<svg xmlns="http://www.w3.org/2000/svg" viewBox="0 0 134.82 40">
  <g>
    <polygon points="0 0 0 40 8.1 40 8.1 11.9 19.76 17.73 19.76 40 39.51 40 39.51 0 0 0" fill="#084c94"/>
    <path d="M603.92,391.75l-11.66,5.83v22.26h11.66Z" transform="translate(-572.51 -379.84)" fill="#3f92d1"/>
    <g>
      <path d="M628.48,392.94l3.95,10.56,4-10.56h2.29V405.5h-1.59V395.05h0l-3.93,10.45h-1.42l-3.92-10.45h0V405.5h-1.58V392.94Z" transform="translate(-572.51 -379.84)" fill="#084c94"/>
      <path d="M647.27,405.5v-1.44h0A3.08,3.08,0,0,1,646,405.3a3.66,3.66,0,0,1-1.74.39,4.08,4.08,0,0,1-1.5-.23,2.36,2.36,0,0,1-1-.68,2.47,2.47,0,0,1-.52-1,5.55,5.55,0,0,1-.15-1.34v-6h1.49v6.15a1.71,1.71,0,0,0,1.85,1.83,3.09,3.09,0,0,0,1.19-.21,2.19,2.19,0,0,0,.83-.6,2.4,2.4,0,0,0,.5-.9,3.49,3.49,0,0,0,.17-1.14v-5.13h1.5v9.09Z" transform="translate(-572.51 -379.84)" fill="#084c94"/>
      <path d="M652.43,392.94V405.5h-1.5V392.94Z" transform="translate(-572.51 -379.84)" fill="#084c94"/>
      <path d="M658.6,396.41v1.32h-1.81v5.64a1.5,1.5,0,0,0,.05.42.39.39,0,0,0,.16.25.76.76,0,0,0,.35.12l.57,0h.68v1.32h-1.14a5.5,5.5,0,0,1-1-.08,1.42,1.42,0,0,1-.67-.29,1.22,1.22,0,0,1-.38-.6,3.46,3.46,0,0,1-.12-1v-5.78h-1.55v-1.32h1.55v-2.73h1.49v2.73Z" transform="translate(-572.51 -379.84)" fill="#084c94"/>
      <path d="M660.22,394.77v-1.83h1.49v1.83Zm1.49,1.64v9.09h-1.49v-9.09Z" transform="translate(-572.51 -379.84)" fill="#084c94"/>
      <path d="M665.51,392.94V405.5H664V392.94Z" transform="translate(-572.51 -379.84)" fill="#084c94"/>
      <path d="M667.82,394.77v-1.83h1.49v1.83Zm1.49,1.64v9.09h-1.49v-9.09Z" transform="translate(-572.51 -379.84)" fill="#084c94"/>
      <path d="M672.81,403.47a1.53,1.53,0,0,0,.56.54,2.09,2.09,0,0,0,.77.29,4.33,4.33,0,0,0,.89.09,4.84,4.84,0,0,0,.74-.05,3.22,3.22,0,0,0,.71-.19,1.39,1.39,0,0,0,.54-.42,1.09,1.09,0,0,0,.21-.69,1,1,0,0,0-.44-.88,4,4,0,0,0-1.1-.49q-.66-.18-1.44-.33a7.69,7.69,0,0,1-1.43-.42,2.91,2.91,0,0,1-1.1-.77,2,2,0,0,1-.44-1.37,2.14,2.14,0,0,1,.31-1.18,2.51,2.51,0,0,1,.79-.8,3.53,3.53,0,0,1,1.09-.45,5.07,5.07,0,0,1,1.21-.15,7,7,0,0,1,1.42.13,3.46,3.46,0,0,1,1.15.45,2.42,2.42,0,0,1,.8.88,3.41,3.41,0,0,1,.36,1.39h-1.5a1.43,1.43,0,0,0-.23-.73,1.47,1.47,0,0,0-.49-.47,2.39,2.39,0,0,0-.66-.26,3.54,3.54,0,0,0-.73-.07,4,4,0,0,0-.68.05,2,2,0,0,0-.62.18,1.37,1.37,0,0,0-.46.35.89.89,0,0,0-.18.58.86.86,0,0,0,.28.64,2.12,2.12,0,0,0,.69.42,5.62,5.62,0,0,0,.95.28l1.06.24a10.52,10.52,0,0,1,1.1.3,4,4,0,0,1,.95.46,2.42,2.42,0,0,1,.66.73,2.17,2.17,0,0,1,.26,1.09,2.54,2.54,0,0,1-.34,1.38,2.8,2.8,0,0,1-.9.88,3.89,3.89,0,0,1-1.25.46,7.16,7.16,0,0,1-1.38.13,6.69,6.69,0,0,1-1.44-.15,3.72,3.72,0,0,1-1.22-.52,2.66,2.66,0,0,1-.84-.95,3.29,3.29,0,0,1-.35-1.44h1.49A1.69,1.69,0,0,0,672.81,403.47Z" transform="translate(-572.51 -379.84)" fill="#084c94"/>
      <path d="M684.33,396.41v1.32h-1.81v5.64a1.5,1.5,0,0,0,.05.42.39.39,0,0,0,.16.25.76.76,0,0,0,.35.12l.57,0h.68v1.32h-1.14a5.5,5.5,0,0,1-1-.08,1.42,1.42,0,0,1-.67-.29,1.22,1.22,0,0,1-.38-.6,3.46,3.46,0,0,1-.12-1v-5.78h-1.55v-1.32H681v-2.73h1.49v2.73Z" transform="translate(-572.51 -379.84)" fill="#084c94"/>
      <path d="M686,394.77v-1.83h1.49v1.83Zm1.49,1.64v9.09H686v-9.09Z" transform="translate(-572.51 -379.84)" fill="#084c94"/>
      <path d="M691.11,396.41v1.44h0a3.15,3.15,0,0,1,3-1.65,4,4,0,0,1,1.49.24,2.59,2.59,0,0,1,1,.69,2.49,2.49,0,0,1,.52,1,5.69,5.69,0,0,1,.15,1.35v6h-1.5v-6.16a1.79,1.79,0,0,0-.49-1.33,1.82,1.82,0,0,0-1.35-.49,3.05,3.05,0,0,0-1.19.21,2.41,2.41,0,0,0-.84.59,2.6,2.6,0,0,0-.5.91,3.72,3.72,0,0,0-.16,1.13v5.14h-1.5v-9.09Z" transform="translate(-572.51 -379.84)" fill="#084c94"/>
      <path d="M706.3,408.07a4.16,4.16,0,0,1-3.2,1.11,6.44,6.44,0,0,1-1.29-.14,4.21,4.21,0,0,1-1.2-.46,2.82,2.82,0,0,1-.89-.83,2.34,2.34,0,0,1-.38-1.25h1.49a1.11,1.11,0,0,0,.26.69,1.88,1.88,0,0,0,.58.46,3.07,3.07,0,0,0,.74.25,4.3,4.3,0,0,0,.78.08,2.79,2.79,0,0,0,1.25-.25,2.31,2.31,0,0,0,.84-.71,3,3,0,0,0,.49-1.08,6,6,0,0,0,.15-1.39V404h0a2.49,2.49,0,0,1-1.17,1.24,3.57,3.57,0,0,1-1.66.4,4,4,0,0,1-1.78-.37,3.85,3.85,0,0,1-1.26-1,4.17,4.17,0,0,1-.77-1.46A6.06,6.06,0,0,1,699,401a6.89,6.89,0,0,1,.22-1.66,4.45,4.45,0,0,1,.7-1.55,3.82,3.82,0,0,1,1.3-1.15,4.15,4.15,0,0,1,2-.44,3.37,3.37,0,0,1,1.58.37,2.7,2.7,0,0,1,1.13,1.14h0v-1.3h1.4v8.32A4.78,4.78,0,0,1,706.3,408.07ZM704.39,404a2.51,2.51,0,0,0,.84-.81,3.69,3.69,0,0,0,.47-1.13,6.17,6.17,0,0,0,.14-1.27,4.7,4.7,0,0,0-.14-1.18,3.29,3.29,0,0,0-.44-1,2.27,2.27,0,0,0-2-1,2.6,2.6,0,0,0-1.23.27,2.37,2.37,0,0,0-.84.73,3.15,3.15,0,0,0-.47,1.05,5.16,5.16,0,0,0-.15,1.25,6.41,6.41,0,0,0,.12,1.23,3.42,3.42,0,0,0,.42,1.12,2.55,2.55,0,0,0,.79.81,2.35,2.35,0,0,0,1.24.31A2.44,2.44,0,0,0,704.39,404Z" transform="translate(-572.51 -379.84)" fill="#084c94"/>
    </g>
  </g>
</svg>
