<svg width="186" height="39" viewBox="0 0 186 39" fill="none" xmlns="http://www.w3.org/2000/svg">
<path d="M29.16 17.69V8.90997H25.16V0.999969H23V8.90997H19V17.69H17.2V37H25.48C28.48 37 30.88 34.06 30.88 30.42V17.69H29.16ZM24.81 11.54H26.97V14.16H24.81V11.54ZM21.21 11.54H23.37V14.16H21.21V11.54ZM21.21 15.93H23.37V18.57H21.21V15.93ZM21.57 31.74H19.41V29.1H21.57V31.74ZM21.57 27.35H19.41V24.71H21.57V27.35ZM21.57 22.96H19.41V20.32H21.57V22.96ZM25.17 31.74H23.01V29.1H25.17V31.74ZM25.17 27.35H23.01V24.71H25.17V27.35ZM25.17 22.96H23.01V20.32H25.17V22.96ZM24.81 18.57V15.93H26.97V18.57H24.81ZM28.81 31.74H26.65V29.1H28.81V31.74ZM28.81 27.35H26.65V24.71H28.81V27.35ZM28.81 22.96H26.65V20.32H28.81V22.96ZM8.28998 16.81H1.81V22.08H0.0100098V30.42C0.0100098 34.06 2.41997 37 5.40997 37H10.09V22.08H8.28998V16.81ZM4.28998 31.74H2.13V29.1H4.28998V31.74ZM4.28998 27.35H2.13V24.71H4.28998V27.35ZM7.89001 31.74H5.81V29.1H7.96997L7.89001 31.74ZM7.89001 27.35H5.81V24.71H7.96997L7.89001 27.35ZM11.16 0.999969H5.81V15.28H10.07V20.28H11.57V36.96H15.81V0.959961H11.16V0.999969ZM10.05 13.3H7.89001V10.66H10.05V13.3ZM10.05 8.90997H7.89001V6.26996H10.05V8.90997ZM13.65 17.69H11.49V15.05H13.65V17.69ZM13.65 13.3H11.49V10.66H13.65V13.3ZM13.65 8.90997H11.49V6.26996H13.65V8.90997Z" fill="#084C95"/>
<path d="M51.045 21.0259C51.045 20.0545 51.1483 19.1142 51.355 18.2049C51.5823 17.2955 51.9336 16.4895 52.409 15.7869C52.8843 15.0635 53.5043 14.4952 54.269 14.0819C55.0336 13.6479 55.9636 13.4309 57.059 13.4309C58.1543 13.4309 59.0843 13.6479 59.849 14.0819C60.6136 14.4952 61.2336 15.0635 61.709 15.7869C62.1843 16.4895 62.5253 17.2955 62.732 18.2049C62.9593 19.1142 63.073 20.0545 63.073 21.0259C63.073 21.9559 62.9593 22.8652 62.732 23.7539C62.5253 24.6219 62.1843 25.4072 61.709 26.1099C61.2336 26.8125 60.6136 27.3809 59.849 27.8149C59.0843 28.2282 58.1543 28.4349 57.059 28.4349C55.9636 28.4349 55.0336 28.2282 54.269 27.8149C53.5043 27.3809 52.8843 26.8125 52.409 26.1099C51.9336 25.4072 51.5823 24.6219 51.355 23.7539C51.1483 22.8652 51.045 21.9559 51.045 21.0259ZM46.178 21.0259C46.178 22.6379 46.426 24.1465 46.922 25.5519C47.418 26.9365 48.131 28.1455 49.061 29.1789C49.991 30.2122 51.1276 31.0285 52.471 31.6279C53.835 32.2065 55.3643 32.4959 57.059 32.4959C58.7743 32.4959 60.3036 32.2065 61.647 31.6279C62.9903 31.0285 64.127 30.2122 65.057 29.1789C65.987 28.1455 66.7 26.9365 67.196 25.5519C67.692 24.1465 67.94 22.6379 67.94 21.0259C67.94 19.3725 67.692 17.8432 67.196 16.4379C66.7 15.0119 65.987 13.7719 65.057 12.7179C64.127 11.6639 62.9903 10.8372 61.647 10.2379C60.3036 9.63853 58.7743 9.33887 57.059 9.33887C55.3643 9.33887 53.835 9.63853 52.471 10.2379C51.1276 10.8372 49.991 11.6639 49.061 12.7179C48.131 13.7719 47.418 15.0119 46.922 16.4379C46.426 17.8432 46.178 19.3725 46.178 21.0259Z" fill="#084C95"/>
<path d="M71.2669 9.86587V31.9999H86.9219V27.9079H76.1339V9.86587H71.2669Z" fill="#084C95"/>
<path d="M95.2229 23.4439L98.1059 15.3219H98.1679L100.958 23.4439H95.2229ZM95.6879 9.86587L87.3179 31.9999H92.2159L93.9519 27.0709H102.229L103.903 31.9999H108.956L100.679 9.86587H95.6879Z" fill="#084C95"/>
<path d="M110.865 9.86587V31.9999H115.422V17.1819H115.484L124.691 31.9999H129.558V9.86587H125.001V24.7149H124.939L115.701 9.86587H110.865Z" fill="#084C95"/>
<path d="M133.563 27.2259V31.9999H138.43V27.2259H133.563Z" fill="#084C95"/>
<path d="M147.337 19.8789V13.6479H152.669C153.785 13.6479 154.622 13.8959 155.18 14.3919C155.738 14.8672 156.017 15.6422 156.017 16.7169C156.017 17.8329 155.738 18.6389 155.18 19.1349C154.622 19.6309 153.785 19.8789 152.669 19.8789H147.337ZM142.47 9.86587V31.9999H147.337V23.3509H152.204C153.423 23.3509 154.302 23.6195 154.839 24.1569C155.376 24.6942 155.728 25.5415 155.893 26.6989C156.017 27.5875 156.11 28.5175 156.172 29.4889C156.234 30.4602 156.399 31.2972 156.668 31.9999H161.535C161.308 31.6899 161.132 31.3179 161.008 30.8839C160.905 30.4292 160.822 29.9539 160.76 29.4579C160.719 28.9619 160.688 28.4762 160.667 28.0009C160.646 27.5255 160.626 27.1122 160.605 26.7609C160.564 26.2029 160.481 25.6449 160.357 25.0869C160.254 24.5289 160.078 24.0225 159.83 23.5679C159.582 23.0925 159.262 22.6895 158.869 22.3589C158.476 22.0075 157.98 21.7492 157.381 21.5839V21.5219C158.621 21.0259 159.51 20.3025 160.047 19.3519C160.605 18.4012 160.884 17.2749 160.884 15.9729C160.884 15.1255 160.729 14.3402 160.419 13.6169C160.13 12.8729 159.696 12.2219 159.117 11.6639C158.559 11.1059 157.877 10.6719 157.071 10.3619C156.286 10.0312 155.397 9.86587 154.405 9.86587H142.47Z" fill="#084C95"/>
<path d="M183.628 23.6299V9.86587H178.761V23.6299C178.761 25.2832 178.43 26.5025 177.769 27.2879C177.108 28.0525 175.909 28.4349 174.173 28.4349C173.181 28.4349 172.385 28.3005 171.786 28.0319C171.207 27.7425 170.753 27.3809 170.422 26.9469C170.091 26.4922 169.874 25.9755 169.771 25.3969C169.668 24.8182 169.616 24.2292 169.616 23.6299V9.86587H164.749V23.6299C164.749 26.6472 165.565 28.8792 167.198 30.3259C168.851 31.7725 171.176 32.4959 174.173 32.4959C177.128 32.4959 179.443 31.7725 181.117 30.3259C182.791 28.8585 183.628 26.6265 183.628 23.6299Z" fill="#084C95"/>
</svg>
