<svg width="0" height="0" class="hidden">
  <symbol xmlns="http://www.w3.org/2000/svg" viewBox="0 0 14 14" id="menu">
    <path d="M5.5 1C5.5 0.447715 5.94772 0 6.5 0H7.5C8.05228 0 8.5 0.447715 8.5 1V2C8.5 2.55228 8.05228 3 7.5 3H6.5C5.94772 3 5.5 2.55228 5.5 2V1Z" fill="currentColor"></path>
    <path d="M5.5 6.5C5.5 5.94772 5.94772 5.5 6.5 5.5H7.5C8.05228 5.5 8.5 5.94772 8.5 6.5V7.5C8.5 8.05228 8.05228 8.5 7.5 8.5H6.5C5.94772 8.5 5.5 8.05228 5.5 7.5V6.5Z" fill="currentColor"></path>
    <path d="M5.5 12C5.5 11.4477 5.94772 11 6.5 11H7.5C8.05228 11 8.5 11.4477 8.5 12V13C8.5 13.5523 8.05228 14 7.5 14H6.5C5.94772 14 5.5 13.5523 5.5 13V12Z" fill="currentColor"></path>
  </symbol>
  <symbol xmlns="http://www.w3.org/2000/svg" viewBox="0 0 14 14" id="archive">
    <path d="M1.39844 2.30371C1.14844 2.63721 1 3.05127 1 3.5H13C13 2.39551 12.1055 1.5 11 1.5H3C2.34375 1.5 1.76172 1.81592 1.39844 2.30371Z" fill="currentColor"></path>
    <path fill-rule="evenodd" clip-rule="evenodd" d="M2 4.5H12V10.5C12 11.0859 11.748 11.6133 11.3477 11.979C10.9922 12.3027 10.5195 12.5 10 12.5H4C2.89453 12.5 2 11.6045 2 10.5V4.5ZM5 7.5C5 6.94775 5.44727 6.5 6 6.5H8C8.55273 6.5 9 6.94775 9 7.5C9 8.05225 8.55273 8.5 8 8.5H6C5.75 8.5 5.52148 8.4082 5.3457 8.25635C5.13281 8.07324 5 7.80225 5 7.5Z" fill="currentColor"></path>
  </symbol>
  <symbol xmlns="http://www.w3.org/2000/svg" viewBox="0 0 14 16" id="shield">
    <path fill-rule="evenodd" clip-rule="evenodd" d="M7 0.5L0 4.5C0 4.5 1 12 7 15.5C13 12 14 4.5 14 4.5L7 0.5ZM7 2.84975V13.0777C8.89335 11.6358 10.143 9.67736 10.9143 7.89368C11.3054 6.98915 11.5687 6.15795 11.7403 5.51223L7 2.84975Z" fill="currentColor"></path>
  </symbol>
  <symbol xmlns="http://www.w3.org/2000/svg" viewBox="0 0 14 14" id="message">
    <path fill-rule="evenodd" clip-rule="evenodd" d="M0 1.99902C0 0.894454 0.895431 -0.000976562 2 -0.000976562H12C13.1046 -0.000976562 14 0.894454 14 1.99902V9.99902C14 11.1036 13.1046 11.999 12 11.999H4.66667C4.23393 11.999 3.81286 12.1394 3.46667 12.399L1.6 13.799C0.940764 14.2935 0 13.8231 0 12.999V1.99902ZM4 2.99902C3.44772 2.99902 3 3.44674 3 3.99902C3 4.55131 3.44772 4.99902 4 4.99902H10C10.5523 4.99902 11 4.55131 11 3.99902C11 3.44674 10.5523 2.99902 10 2.99902H4ZM4 6.99902C3.44772 6.99902 3 7.44674 3 7.99902C3 8.55131 3.44772 8.99902 4 8.99902H7C7.55228 8.99902 8 8.55131 8 7.99902C8 7.44674 7.55228 6.99902 7 6.99902H4Z" fill="currentColor"></path>
  </symbol>
  <symbol xmlns="http://www.w3.org/2000/svg" viewBox="0 0 14 14" id="save">
    <path d="M2 1.99902C2 0.894454 2.89543 -0.000976562 4 -0.000976562H10C11.1046 -0.000976562 12 0.894454 12 1.99902V12.999C12 13.8375 11.0301 14.3037 10.3753 13.7799L7.6247 11.5794C7.25948 11.2872 6.74052 11.2872 6.37531 11.5794L3.6247 13.7799C2.96993 14.3037 2 13.8375 2 12.999V1.99902Z" fill="currentColor"></path>
  </symbol>
  <symbol xmlns="http://www.w3.org/2000/svg" viewBox="0 0 14 14" id="block">
    <path d="M6 8C5.44772 8 5 8.44771 5 9C5 9.55229 5.44772 10 6 10H8C8.55229 10 9 9.55229 9 9C9 8.44771 8.55229 8 8 8H6Z" fill="currentColor"></path>
    <path fill-rule="evenodd" clip-rule="evenodd" d="M11 4C11 1.79086 9.20914 0 7 0C4.79086 0 3 1.79086 3 4C1.89543 4 1 4.89543 1 6V12C1 13.1046 1.89543 14 3 14H11C12.1046 14 13 13.1046 13 12V6C13 4.89543 12.1046 4 11 4ZM9 4C9 2.89543 8.10457 2 7 2C5.89543 2 5 2.89543 5 4H9ZM3 6H11V12H3V6Z" fill="currentColor"></path>
  </symbol>
  <symbol xmlns="http://www.w3.org/2000/svg" viewBox="0 0 14 14" id="calendar">
    <path d="M4 5C3.44772 5 3 5.44772 3 6C3 6.55228 3.44772 7 4 7C4.55228 7 5 6.55228 5 6C5 5.44772 4.55228 5 4 5Z" fill="currentColor"></path>
    <path d="M3 9C3 8.44772 3.44772 8 4 8C4.55228 8 5 8.44772 5 9C5 9.55229 4.55228 10 4 10C3.44772 10 3 9.55229 3 9Z" fill="currentColor"></path>
    <path d="M7 5C6.44772 5 6 5.44772 6 6C6 6.55228 6.44772 7 7 7C7.55228 7 8 6.55228 8 6C8 5.44772 7.55228 5 7 5Z" fill="currentColor"></path>
    <path d="M6 9C6 8.44772 6.44772 8 7 8C7.55228 8 8 8.44772 8 9C8 9.55229 7.55228 10 7 10C6.44772 10 6 9.55229 6 9Z" fill="currentColor"></path>
    <path d="M10 5C9.44771 5 9 5.44772 9 6C9 6.55228 9.44771 7 10 7C10.5523 7 11 6.55228 11 6C11 5.44772 10.5523 5 10 5Z" fill="currentColor"></path>
    <path d="M9 9C9 8.44772 9.44771 8 10 8C10.5523 8 11 8.44772 11 9C11 9.55229 10.5523 10 10 10C9.44771 10 9 9.55229 9 9Z" fill="currentColor"></path>
    <path fill-rule="evenodd" clip-rule="evenodd" d="M3 2C3 1.44772 3.44772 1 4 1C4.55228 1 5 1.44772 5 2L9 2C9 1.44772 9.44771 1 10 1C10.5523 1 11 1.44772 11 2H12C13.1046 2 14 2.89543 14 4V11C14 12.1046 13.1046 13 12 13H2C0.89543 13 0 12.1046 0 11V4C0 2.89543 0.895431 2 2 2L3 2ZM2 4L2 11H12V4H2Z" fill="currentColor"></path>
  </symbol>
  <symbol xmlns="http://www.w3.org/2000/svg" viewBox="0 0 14 14" id="check">
    <path fill-rule="evenodd" clip-rule="evenodd" d="M11.7071 3.81131C12.0976 4.2264 12.0976 4.89939 11.7071 5.31448L7.41421 9.87737C6.63316 10.7075 5.36683 10.7075 4.58579 9.87737L2.29289 7.44027C1.90237 7.02518 1.90237 6.35219 2.29289 5.9371C2.68342 5.52202 3.31658 5.52202 3.70711 5.9371L6 8.37421L10.2929 3.81131C10.6834 3.39623 11.3166 3.39623 11.7071 3.81131Z" fill="currentColor"></path>
  </symbol>
  <symbol xmlns="http://www.w3.org/2000/svg" viewBox="0 0 14 14" id="recovery">
    <path d="M4.11287 3.54812C4.89427 2.89387 5.90114 2.5 7 2.5C9.48528 2.5 11.5 4.51472 11.5 7H10.4998C10.0724 7 9.84293 7.55204 10.1227 7.90708L11.6229 9.81068C11.8218 10.0631 12.1782 10.0631 12.3771 9.81068L13.8773 7.90708C14.1571 7.55204 13.9276 7 13.5002 7L12.5 7C12.5 3.96243 10.0376 1.5 7 1.5C5.67555 1.5 4.46044 1.96815 3.51112 2.748C3.52432 2.76456 3.53734 2.78139 3.55018 2.79849L4.11287 3.54812Z" fill="currentColor"></path>
    <path d="M1.5 7H0.499821C0.0724273 7 -0.157072 6.44796 0.122723 6.09292L1.6229 4.18932C1.82183 3.93689 2.17817 3.93689 2.3771 4.18932L3.87728 6.09292C4.15707 6.44796 3.92757 7 3.50018 7L2.5 7C2.5 9.48528 4.51472 11.5 7 11.5C8.09886 11.5 9.10573 11.1061 9.88713 10.4519L10.4498 11.2015C10.4627 11.2186 10.4757 11.2354 10.4889 11.252C9.53956 12.0318 8.32445 12.5 7 12.5C3.96243 12.5 1.5 10.0376 1.5 7Z" fill="currentColor"></path>
  </symbol>
  <symbol xmlns="http://www.w3.org/2000/svg" viewBox="0 0 14 14" id="users">
    <path d="M9.99995 5C10.8571 5 11.7142 3.97665 11.7142 2.71429C11.7142 1.45192 10.8571 1 9.99995 1C9.14281 1 8.28566 1.45192 8.28566 2.71429C8.28566 3.97665 9.14281 5 9.99995 5Z" fill="currentColor"></path>
    <path d="M9.14281 5.71429C9.35709 5.78571 9.57138 5.85714 9.99995 5.85714C10.4285 5.85714 10.6428 5.78571 10.8571 5.71429C11.0714 5.64286 11.2857 5.57143 11.7142 5.57143C13.1428 5.57143 13.9999 7.28571 13.9999 7.85714C13.9999 8.42857 13.7142 9 12.8571 9C12.5021 9 12.2451 8.95098 11.944 8.89355C11.5182 8.81233 11.0042 8.71429 9.99995 8.71429C9.83297 8.71429 9.67955 8.717 9.53783 8.72189C8.98332 8.20244 8.23546 7.76508 7.30724 7.71841C7.74293 7.13516 8.04174 6.39256 8.1215 5.57905C8.17534 5.57402 8.23007 5.57143 8.28566 5.57143C8.71424 5.57143 8.92852 5.64286 9.14281 5.71429Z" fill="currentColor"></path>
    <path d="M7.14286 8.71429C7.18268 8.71429 7.22214 8.71535 7.26125 8.71745L7.14286 8.71429Z" fill="currentColor"></path>
    <path d="M7.26125 8.71745C8.97582 8.80915 10 10.8731 10 11.5714C10 12.2857 9.64286 13 8.57143 13C8.12763 13 7.80638 12.9387 7.43002 12.8669C6.89775 12.7654 6.25526 12.6429 5 12.6429C3.74474 12.6429 3.10225 12.7654 2.56999 12.8669C2.19362 12.9387 1.87237 13 1.42857 13C0.357143 13 0 12.2857 0 11.5714C0 10.8571 1.07143 8.71429 2.85714 8.71429C3.39286 8.71429 3.66071 8.80357 3.92857 8.89286C4.19643 8.98214 4.46429 9.07143 5 9.07143C5.53571 9.07143 5.80357 8.98214 6.07143 8.89286C6.17808 8.85731 6.28473 8.82176 6.40829 8.79184C6.40828 8.79184 6.40829 8.79185 6.40829 8.79184C6.53599 8.76093 6.68174 8.73602 6.86424 8.72337C6.94863 8.71752 7.04092 8.71429 7.14286 8.71429" fill="currentColor"></path>
    <path d="M7.14286 5.14286C7.14286 6.72081 6.07143 8 5 8C3.92857 8 2.85714 6.72081 2.85714 5.14286C2.85714 3.5649 3.92857 3 5 3C6.07143 3 7.14286 3.5649 7.14286 5.14286Z" fill="currentColor"></path>
  </symbol>
  <symbol xmlns="http://www.w3.org/2000/svg" viewBox="0 0 14 14" id="hourglass">
    <path fill-rule="evenodd" clip-rule="evenodd" d="M1.42857 1C1.19188 1 1 1.19188 1 1.42857C1 1.66526 1.19188 1.85714 1.42857 1.85714H2.02958C2.02961 1.90014 2.02967 1.92922 2.02981 1.93395C2.03104 1.97835 2.03343 2.04085 2.03808 2.11888C2.04735 2.27471 2.06568 2.49369 2.10198 2.75505C2.17409 3.27423 2.31953 3.97848 2.61696 4.69231C2.91412 5.40549 3.37507 6.15683 4.09388 6.73187C4.21339 6.82748 4.33897 6.91735 4.47081 7.00081C4.33897 7.08427 4.21339 7.17414 4.09388 7.26975C3.37507 7.84479 2.91412 8.59613 2.61696 9.30931C2.31953 10.0231 2.17409 10.7274 2.10198 11.2466C2.06568 11.5079 2.04735 11.7269 2.03808 11.8827C2.03343 11.9608 2.03104 12.0233 2.02981 12.0677C2.02968 12.0723 2.02961 12.1008 2.02958 12.1429H1.42857C1.19188 12.1429 1 12.3347 1 12.5714C1 12.8081 1.19188 13 1.42857 13H12.5714C12.8081 13 13 12.8081 13 12.5714C13 12.3347 12.8081 12.1429 12.5714 12.1429H11.9713L11.9713 12.1413L11.9713 12.1362L11.9712 12.1205C11.971 12.1076 11.9707 12.0899 11.97 12.0677C11.9688 12.0233 11.9664 11.9608 11.9618 11.8827C11.9525 11.7269 11.9342 11.5079 11.8979 11.2466C11.8258 10.7274 11.6803 10.0231 11.3829 9.30931C11.0857 8.59613 10.6248 7.84479 9.90596 7.26975C9.78646 7.17414 9.66087 7.08427 9.52904 7.00081C9.66087 6.91735 9.78646 6.82748 9.90596 6.73187C10.6248 6.15683 11.0857 5.40549 11.3829 4.69231C11.6803 3.97848 11.8258 3.27423 11.8979 2.75505C11.9342 2.49369 11.9525 2.27471 11.9618 2.11888C11.9664 2.04085 11.9688 1.97835 11.97 1.93395C11.9707 1.91173 11.971 1.89402 11.9712 1.88112L11.9713 1.86541L11.9713 1.86034L11.9714 1.8585V1.85714H12.5714C12.8081 1.85714 13 1.66526 13 1.42857C13 1.19188 12.8081 1 12.5714 1H1.42857ZM10.3252 10.4286C10.2682 10.2342 10.1995 10.0349 10.117 9.83679C9.8784 9.26426 9.53579 8.72989 9.04924 8.34065C8.57344 7.96002 7.92257 7.68735 6.99992 7.68735C6.07728 7.68735 5.4264 7.96002 4.95061 8.34065C4.46406 8.72989 4.12144 9.26426 3.88289 9.83679C3.80033 10.0349 3.73169 10.2342 3.67465 10.4286H10.3252ZM3.40708 2.03739C3.40593 2.01807 3.40497 1.94705 3.40415 1.85714H10.5999L10.5999 1.86269C10.5998 1.86925 10.5996 1.88041 10.5991 1.89587C10.5983 1.92679 10.5965 1.97478 10.5928 2.03739C10.5853 2.1628 10.5701 2.34561 10.5395 2.56639C10.4777 3.01149 10.3552 3.59295 10.117 4.16483C10.0799 4.2538 10.0403 4.34185 9.99806 4.42857H4.00179C3.95954 4.34185 3.91996 4.2538 3.88289 4.16483C3.6446 3.59295 3.52219 3.01149 3.46037 2.56639C3.4297 2.34561 3.41455 2.1628 3.40708 2.03739Z" fill="currentColor"></path>
  </symbol>
  <symbol xmlns="http://www.w3.org/2000/svg" viewBox="0 0 14 14" id="block-photo">
    <path fill-rule="evenodd" clip-rule="evenodd" d="M12 7.46487C13.1956 6.77325 14 5.48056 14 4C14 1.79086 12.2091 0 10 0C7.79086 0 6 1.79086 6 4H2C0.895431 4 0 4.89543 0 6V12C0 13.1046 0.895431 14 2 14H10C11.1046 14 12 13.1046 12 12V7.46487ZM10 6.5C11.3807 6.5 12.5 5.38071 12.5 4C12.5 3.58277 12.3978 3.18942 12.2171 2.84361L8.84361 6.21705C9.18942 6.39779 9.58277 6.5 10 6.5ZM11.1564 1.78295L7.78295 5.15639C7.60221 4.81058 7.5 4.41723 7.5 4C7.5 2.61929 8.61929 1.5 10 1.5C10.4172 1.5 10.8106 1.60221 11.1564 1.78295ZM10.5 7.96905V10.607L9.1817 9.50844C8.48638 8.92901 7.46395 8.97539 6.82394 9.6154L6.25002 10.1893L4.48749 8.42676C3.80408 7.74334 2.69604 7.74334 2.01262 8.42675L1.5 8.93936V6C1.5 5.72386 1.72386 5.5 2 5.5H6.29076C6.88415 6.96592 8.32131 8 10 8C10.1693 8 10.3362 7.98948 10.5 7.96905ZM1.5 11.059V12C1.5 12.2761 1.72386 12.5 2 12.5H6.43938L3.42682 9.48741C3.32919 9.38978 3.1709 9.38978 3.07327 9.48741L1.53034 11.0303C1.52043 11.0402 1.51031 11.0498 1.5 11.059ZM8.55907 12.5H10C10.1146 12.5 10.2201 12.4615 10.3045 12.3966L8.22143 10.6608C8.1221 10.578 7.97603 10.5846 7.8846 10.676L7.31068 11.25L8.53035 12.4696C8.54026 12.4796 8.54983 12.4897 8.55907 12.5Z" fill="currentColor"></path>
  </symbol>
  <symbol xmlns="http://www.w3.org/2000/svg" viewBox="0 0 14 14" id="pause">
    <path d="M3 3C3 2.44772 3.44772 2 4 2C4.55228 2 5 2.44772 5 3V11C5 11.5523 4.55228 12 4 12C3.44772 12 3 11.5523 3 11V3Z" fill="currentColor"></path>
    <path d="M9 3C9 2.44772 9.44772 2 10 2C10.5523 2 11 2.44772 11 3V11C11 11.5523 10.5523 12 10 12C9.44772 12 9 11.5523 9 11V3Z" fill="currentColor"></path>
  </symbol>
  <symbol xmlns="http://www.w3.org/2000/svg" viewBox="0 0 14 14" id="filter">
    <path d="M8 0H6V1H0V3H6V4H8V3H14V1H8V0Z" fill="currentColor"></path>
    <path d="M10 5H12V6H14V8H12V9H10V8H0V6H10V5Z" fill="currentColor"></path>
    <path d="M4 10H2V11H0V13H2V14H4V13H14V11H4V10Z" fill="currentColor"></path>
  </symbol>
  <symbol xmlns="http://www.w3.org/2000/svg" viewBox="0 0 14 14" id="top">
    <path fill-rule="evenodd" clip-rule="evenodd" d="M3 0C1.34315 0 0 1.34315 0 3V11C0 12.6569 1.34315 14 3 14H11C12.6569 14 14 12.6569 14 11V3C14 1.34315 12.6569 0 11 0H3ZM8.41421 3.99985C7.63317 3.2188 6.36684 3.2188 5.58579 3.99985L4.29289 5.29274C3.90237 5.68327 3.90237 6.31643 4.29289 6.70696C4.68342 7.09748 5.31658 7.09748 5.70711 6.70696L7 5.41406L8.29289 6.70696C8.68342 7.09748 9.31658 7.09748 9.70711 6.70696C10.0976 6.31643 10.0976 5.68327 9.70711 5.29274L8.41421 3.99985ZM8.41421 7.99985C7.63317 7.2188 6.36684 7.2188 5.58579 7.99985L4.29289 9.29274C3.90237 9.68327 3.90237 10.3164 4.29289 10.707C4.68342 11.0975 5.31658 11.0975 5.70711 10.707L7 9.41406L8.29289 10.707C8.68342 11.0975 9.31658 11.0975 9.70711 10.707C10.0976 10.3164 10.0976 9.68327 9.70711 9.29274L8.41421 7.99985Z" fill="currentColor"></path>
  </symbol>
  <symbol xmlns="http://www.w3.org/2000/svg" viewBox="0 0 14 14" id="trash">
    <path d="M3 2C2.44769 2 2 2.44769 2 3C2 3.55231 2.44769 4 3 4V11C3 12.1046 3.89545 13 5 13H9C10.1046 13 11 12.1046 11 11V4C11.5523 4 12 3.55231 12 3C12 2.44769 11.5523 2 11 2H8V1.5C8 1.22388 7.77612 1 7.5 1H6.5C6.22388 1 6 1.22388 6 1.5V2H3Z" fill="currentColor"></path>
  </symbol>
  <symbol xmlns="http://www.w3.org/2000/svg" viewBox="0 0 14 14" id="adv">
    <path fill-rule="evenodd" clip-rule="evenodd" d="M4 4.99844C8.37737 4.99844 10.7995 2.65039 12 0.890951C12.0481 0.820397 12.0943 0.750793 12.1386 0.682321C12.2411 0.52377 12.3333 0.371306 12.4158 0.227287C12.4386 0.187515 12.4606 0.148386 12.4819 0.109951C12.592 -0.088471 13 0.000379831 13 0.227287V5.99918C13.5523 5.99918 14 6.44728 14 6.99956C14 7.55185 13.5523 7.99994 13 7.99994V13.7726C13 13.9995 12.592 14.0883 12.4819 13.8899C12.4606 13.8515 12.4386 13.8123 12.4158 13.7726C12.3333 13.6286 12.2411 13.4761 12.1386 13.3175C12.0943 13.2491 12.0481 13.1795 12 13.1089C10.7995 11.3495 8.37737 9.00142 4 9.00142L4.58412 10.7551C4.78874 11.3694 4.33147 12.0037 3.68398 12.0037C3.27553 12.0037 2.91293 11.7423 2.78385 11.3547L2 9.00143H1C0.447715 9.00143 0 8.55371 0 8.00143V5.99844C0 5.44616 0.447715 4.99844 1 4.99844L4 4.99844ZM5 5.9597C8.40106 5.69167 10.625 4.07736 12 2.51665V11.4832C10.625 9.9225 8.40106 8.30819 5 8.04016V5.9597Z" fill="currentColor"></path>
  </symbol>
  <symbol xmlns="http://www.w3.org/2000/svg" viewBox="0 0 14 14" id="pocket">
    <path d="M9.01049 2.06104C8.49209 1.87059 7.91893 2.13699 7.73159 2.65653L4.84817 10.6528C4.66082 11.1723 4.93023 11.7483 5.44864 11.9387C5.96705 12.1292 6.54021 11.8628 6.72755 11.3432L9.61097 3.34697C9.79831 2.82743 9.5289 2.2515 9.01049 2.06104Z" fill="currentColor"></path>
    <path d="M13.7574 6.39974L11.4142 4.16261C11.0907 3.85373 10.5661 3.85373 10.2427 4.16261C9.9191 4.47149 9.9191 4.97228 10.2427 5.28117L12.0001 6.95902L10.2427 8.63687C9.9191 8.94575 9.9191 9.44655 10.2427 9.75544C10.5661 10.0643 11.0907 10.0643 11.4142 9.75544L13.7574 7.51831C14.0809 7.20943 14.0809 6.70862 13.7574 6.39974Z" fill="currentColor"></path>
    <path d="M0.242551 6.39974C-0.0808505 6.70862 -0.0808505 7.20943 0.242551 7.51831L2.58585 9.75544C2.90925 10.0643 3.4339 10.0643 3.7573 9.75544C4.0809 9.44656 4.0809 8.94577 3.7573 8.63687L1.99992 6.95902L3.7573 5.28118C4.0809 4.9723 4.0809 4.4715 3.7573 4.16261C3.4339 3.85373 2.90925 3.85373 2.58585 4.16261L0.242551 6.39974Z" fill="currentColor"></path>
  </symbol>
  <symbol xmlns="http://www.w3.org/2000/svg" viewBox="0 0 14 14" id="tarif">
    <path d="M14 2C14 3.10457 12.2091 4 10 4C7.79086 4 6 3.10457 6 2C6 0.89543 7.79086 0 10 0C12.2091 0 14 0.89543 14 2Z" fill="currentColor"></path>
    <path d="M13.4649 4C12.7733 4.5978 11.4806 5 10 5C8.51943 5 7.22675 4.5978 6.53513 4C6.41169 4.10669 6.30741 4.21961 6.22461 4.33759C5.58854 4.12437 4.82332 4 4 4C1.79086 4 0 4.89543 0 6C0 7.10457 1.79086 8 4 8C5.7448 8 7.22868 7.44143 7.77539 6.66241C8.41146 6.87563 9.17668 7 10 7C12.2091 7 14 6.10457 14 5C14 4.63571 13.8052 4.29417 13.4649 4Z" fill="currentColor"></path>
    <path d="M7.46487 8C6.77325 8.5978 5.48056 9 4 9C2.51944 9 1.22675 8.5978 0.535129 8C0.194789 8.29417 0 8.63571 0 9C0 10.1046 1.79086 11 4 11C6.20914 11 8 10.1046 8 9C8 8.63571 7.80521 8.29417 7.46487 8Z" fill="currentColor"></path>
    <path d="M7.46487 11C6.77325 11.5978 5.48056 12 4 12C2.51944 12 1.22675 11.5978 0.535129 11C0.194789 11.2942 0 11.6357 0 12C0 13.1046 1.79086 14 4 14C6.20914 14 8 13.1046 8 12C8 11.6357 7.80521 11.2942 7.46487 11Z" fill="currentColor"></path>
  </symbol>
  <symbol xmlns="http://www.w3.org/2000/svg" viewBox="0 0 14 14" id="edit">
    <path d="M11.0175 1.29363C10.627 0.903101 9.9938 0.903101 9.60328 1.29363L8.75881 2.13809L11.862 5.24123L12.7064 4.39676C13.0969 4.00624 13.0969 3.37307 12.7064 2.98255L11.0175 1.29363Z" fill="currentColor"></path>
    <path d="M11.0862 6.01701L7.98303 2.91387L2.55254 8.34436L5.65568 11.4475L11.0862 6.01701Z" fill="currentColor"></path>
    <path d="M4.8799 12.2233L1.77676 9.12016L1.00098 9.89594V11.9991C1.00098 12.5514 1.44869 12.9991 2.00098 12.9991H4.10411L4.8799 12.2233Z" fill="currentColor"></path>
  </symbol>
  <symbol xmlns="http://www.w3.org/2000/svg" viewBox="0 0 14 14" id="sandwich">
    <path d="M1 1C0.447754 1 0 1.44772 0 2C0 2.55228 0.447754 3 1 3H13C13.5522 3 14 2.55228 14 2C14 1.44772 13.5522 1 13 1H1Z" fill="currentColor"></path>
    <path d="M0 7C0 6.44772 0.447754 6 1 6H13C13.5522 6 14 6.44772 14 7C14 7.55228 13.5522 8 13 8H1C0.447754 8 0 7.55228 0 7Z" fill="currentColor"></path>
    <path d="M1 11C0.447754 11 0 11.4477 0 12C0 12.5523 0.447754 13 1 13H13C13.5522 13 14 12.5523 14 12C14 11.4477 13.5522 11 13 11H1Z" fill="currentColor"></path>
  </symbol>
  <symbol xmlns="http://www.w3.org/2000/svg" viewBox="0 0 14 14" id="list">
    <path d="M1 1C0.447754 1 0 1.44772 0 2C0 2.55228 0.447754 3 1 3C1.55225 3 2 2.55228 2 2C2 1.44772 1.55225 1 1 1Z" fill="currentColor"></path>
    <path d="M1 6C0.447754 6 0 6.44772 0 7C0 7.55228 0.447754 8 1 8C1.55225 8 2 7.55228 2 7C2 6.44772 1.55225 6 1 6Z" fill="currentColor"></path>
    <path d="M0 12C0 11.4477 0.447754 11 1 11C1.55225 11 2 11.4477 2 12C2 12.5523 1.55225 13 1 13C0.447754 13 0 12.5523 0 12Z" fill="currentColor"></path>
    <path d="M5 1C4.44775 1 4 1.44772 4 2C4 2.55228 4.44775 3 5 3H13C13.5522 3 14 2.55228 14 2C14 1.44772 13.5522 1 13 1H5Z" fill="currentColor"></path>
    <path d="M4 7C4 6.44772 4.44775 6 5 6H13C13.5522 6 14 6.44772 14 7C14 7.55228 13.5522 8 13 8H5C4.44775 8 4 7.55228 4 7Z" fill="currentColor"></path>
    <path d="M5 11C4.44775 11 4 11.4477 4 12C4 12.5523 4.44775 13 5 13H13C13.5522 13 14 12.5523 14 12C14 11.4477 13.5522 11 13 11H5Z" fill="currentColor"></path>
  </symbol>
  <symbol xmlns="http://www.w3.org/2000/svg" viewBox="0 0 14 14" id="info">
    <path d="M7 1C6.44775 1 6 1.44772 6 2V8C6 8.55228 6.44775 9 7 9C7.55225 9 8 8.55228 8 8V2C8 1.44772 7.55225 1 7 1Z" fill="currentColor"></path>
    <path d="M7 11C6.44775 11 6 11.4477 6 12C6 12.5523 6.44775 13 7 13C7.55225 13 8 12.5523 8 12C8 11.4477 7.55225 11 7 11Z" fill="currentColor"></path>
  </symbol>
  <symbol xmlns="http://www.w3.org/2000/svg" viewBox="0 0 14 14" id="cancel">
    <path fill-rule="evenodd" clip-rule="evenodd" d="M13 7C13 10.3137 10.3137 13 7 13C3.68628 13 1 10.3137 1 7C1 3.68629 3.68628 1 7 1C10.3137 1 13 3.68629 13 7ZM11 7C11 9.20914 9.20911 11 7 11C6.20056 11 5.45581 10.7654 4.83093 10.3614L10.3615 4.83099C10.7655 5.45584 11 6.20053 11 7ZM3.47388 8.89011L8.89014 3.47387C8.32727 3.17152 7.68372 3 7 3C4.79089 3 3 4.79086 3 7C3 7.68365 3.17151 8.32725 3.47388 8.89011Z" fill="currentColor"></path>
  </symbol>
  <symbol xmlns="http://www.w3.org/2000/svg" viewBox="0 0 14 14" id="ok">
    <path d="M6.99635 6.93642C8.0166 6.93642 8.93853 6.54335 9.60231 5.91908C10.2661 5.2948 10.684 4.42775 10.684 3.46821C10.684 2.50867 10.2661 1.64162 9.60231 1.01734C8.93853 0.393063 8.0166 0 6.99635 0C5.9761 0 5.0542 0.393063 4.39042 1.01734C3.72664 1.64162 3.3087 2.50867 3.3087 3.46821C3.3087 4.42775 3.72664 5.2948 4.39042 5.91908C5.0542 6.54335 5.98839 6.93642 6.99635 6.93642ZM5.8163 2.34682C6.1236 2.0578 6.54154 1.88439 6.99635 1.88439C7.46345 1.88439 7.8814 2.0578 8.17641 2.34682C8.48372 2.63584 8.6681 3.0289 8.6681 3.45665C8.6681 3.89595 8.48372 4.28902 8.17641 4.56647C7.86911 4.85549 7.45116 5.0289 6.99635 5.0289C6.52925 5.0289 6.11131 4.85549 5.8163 4.56647C5.50899 4.27746 5.32461 3.88439 5.32461 3.45665C5.32461 3.0289 5.52129 2.63584 5.8163 2.34682Z" fill="currentColor"></path>
    <path d="M11.9624 8.33526L10.8807 6.94798C10.8193 6.86705 10.6963 6.85549 10.6226 6.92485C9.60233 7.74566 8.34853 8.27746 6.99639 8.27746C5.64424 8.27746 4.39044 7.74566 3.37019 6.92485C3.29644 6.86705 3.17351 6.87861 3.11205 6.94798L2.03034 8.33526C1.98117 8.40462 1.99346 8.49711 2.05492 8.55491C2.96455 9.24855 4.02168 9.72254 5.12797 9.96532L2.84162 13.7572C2.78016 13.8613 2.86621 14 2.98913 14H5.22631C5.30006 14 5.36152 13.9653 5.38611 13.896L6.98409 10.5434L8.58208 13.896C8.60666 13.9538 8.66813 14 8.74188 14H10.9791C11.1143 14 11.188 13.8728 11.1266 13.7572L8.84022 9.96532C9.94651 9.72254 11.0036 9.26011 11.9133 8.55491C12.0116 8.49711 12.0239 8.40462 11.9624 8.33526Z" fill="currentColor"></path>
  </symbol>
  <symbol xmlns="http://www.w3.org/2000/svg" viewBox="0 0 14 14" id="vk">
    <path d="M7.62524 11C2.84197 11 0.113679 7.997 0 3H2.396C2.4747 6.66767 4.2411 8.22122 5.64023 8.54154V3H7.89632V6.16316C9.27795 6.02703 10.7295 4.58559 11.2192 3H13.4753C13.2908 3.82233 12.923 4.60094 12.3948 5.28714C11.8667 5.97334 11.1896 6.55236 10.406 6.98799C11.2807 7.38603 12.0534 7.94943 12.6729 8.641C13.2924 9.33257 13.7447 10.1366 14 11H11.5166C11.2874 10.2501 10.8216 9.57875 10.1776 9.07019C9.53361 8.56163 8.74003 8.23844 7.89632 8.14114V11H7.62524Z" fill="currentColor"></path>
  </symbol>
  <symbol xmlns="http://www.w3.org/2000/svg" viewBox="0 0 14 14" id="sub">
    <path d="M6 3C5.44769 3 5 3.44772 5 4V5H4C3.44769 5 3 5.44772 3 6C3 6.55228 3.44769 7 4 7H5V8C5 8.55228 5.44769 9 6 9C6.55231 9 7 8.55228 7 8V7H8C8.55231 7 9 6.55228 9 6C9 5.44772 8.55231 5 8 5H7V4C7 3.44772 6.55231 3 6 3Z" fill="currentColor"></path>
    <path fill-rule="evenodd" clip-rule="evenodd" d="M6 12C7.29584 12 8.49573 11.5892 9.47656 10.8907L12.2929 13.7071C12.6834 14.0976 13.3166 14.0976 13.7071 13.7071C14.0977 13.3166 14.0977 12.6834 13.7071 12.2929L10.8907 9.47654C11.5892 8.49572 12 7.29583 12 6C12 2.68629 9.31372 0 6 0C2.68628 0 0 2.68629 0 6C0 9.31371 2.68628 12 6 12ZM6 10C8.20917 10 10 8.20914 10 6C10 3.79086 8.20917 2 6 2C3.79083 2 2 3.79086 2 6C2 8.20914 3.79083 10 6 10Z" fill="currentColor"></path>
  </symbol>
  <symbol xmlns="http://www.w3.org/2000/svg" viewBox="0 0 14 14" id="navigator">
    <path d="M1.65934 5.68265L11.3994 1.10892C12.3493 0.662876 13.3282 1.6684 12.894 2.64415L8.5867 12.3225C8.11429 13.384 6.58288 13.1428 6.44198 11.9846L5.92306 9.49713C5.86173 8.99273 5.48734 8.58835 5 8.5L1.93219 7.87705C0.842212 7.67946 0.652644 6.15534 1.65934 5.68265Z" fill="currentColor"></path>
  </symbol>
  <symbol xmlns="http://www.w3.org/2000/svg" viewBox="0 0 14 14" id="hot">
    <path d="M4.2995 5.5C4.2995 5.5 6.57484 4 6.57484 0C9.64502 1.5 10.5214 5 10.5214 5C10.5214 5 10.9606 5 11.8371 4C12.714 5 13.591 11.5 8.32928 13C8.32928 10.5 6.57484 10 6.57484 10C6.57484 10 4.82025 11.5 5.69756 14C-1.31939 9.5 2.47707 6 2.93164 4C3.84389 4 4.2995 5.5 4.2995 5.5Z" fill="currentColor"></path>
  </symbol>
  <symbol xmlns="http://www.w3.org/2000/svg" viewBox="0 0 14 14" id="phone">
    <path d="M13 2.97054C13 8.50966 8.50966 13 2.97054 13C2.82221 13 2.67463 12.9968 2.52787 12.9904C2.21732 12.945 1.94803 12.7416 1.82194 12.4474L1.06873 10.6899C0.797561 10.0572 1.37039 9.35293 2.05878 9.35293C3.1227 9.35293 4.13343 9.12514 5.04485 8.71568C5.34593 8.58041 5.71192 8.79247 5.78368 9.11465C5.91324 9.69635 6.23194 10.2102 6.93504 9.76433C8.07409 9.04201 9.04202 8.07407 9.76435 6.93501C10.2102 6.23191 9.69637 5.91321 9.11467 5.78365C8.79249 5.71189 8.58043 5.34591 8.71569 5.04482C9.12514 4.13341 9.35293 3.12269 9.35293 2.05878C9.35293 1.37039 10.0572 0.797561 10.6899 1.06873L12.4474 1.82194C12.7416 1.94803 12.945 2.21732 12.9904 2.52787C12.9968 2.67463 13 2.82221 13 2.97054Z" fill="currentColor"></path>
  </symbol>
  <symbol xmlns="http://www.w3.org/2000/svg" viewBox="0 0 14 14" id="owner">
    <path fill-rule="evenodd" clip-rule="evenodd" d="M13.6644 2.30314C14.0772 2.67006 14.1144 3.30213 13.7474 3.71491L7.32275 10.9427C6.0877 12.3321 3.89923 12.2753 2.73792 10.8237L0.219168 7.67524C-0.125842 7.24398 -0.0559202 6.61469 0.375342 6.26968C0.806604 5.92467 1.4359 5.99459 1.78091 6.42585L4.29966 9.57429C4.68676 10.0582 5.41625 10.0771 5.82794 9.61396L12.2526 2.38618C12.6195 1.9734 13.2516 1.93622 13.6644 2.30314Z" fill="currentColor"></path>
  </symbol>
  <symbol xmlns="http://www.w3.org/2000/svg" viewBox="0 0 14 14" id="agent">
    <path d="M10 3C10 5.20914 8.5 7 7 7C5.5 7 4 5.20914 4 3C4 0.790863 5.5 0 7 0C8.5 0 10 0.790863 10 3Z" fill="currentColor"></path>
    <path d="M9.70764 9.11868C9.49579 10.7267 9.13031 13.5 7 13.5C5.09808 13.5 4.80383 11.2894 4.58844 9.67117C4.46411 8.73686 4.36603 8 4 8C1.5 8 0 11 0 12C0 13 0.5 14 2 14C2.62134 14 3.07104 13.9142 3.59796 13.8137C4.34314 13.6716 5.24261 13.5 7 13.5C8.75739 13.5 9.65686 13.6716 10.402 13.8137C10.929 13.9142 11.3787 14 12 14C13.5 14 14 13 14 12C14 11 12.5 8 10 8C9.85504 8 9.79413 8.46223 9.70764 9.11868Z" fill="currentColor"></path>
    <path d="M6.65302 8.14328C6.04449 8.14328 5.57703 8.68227 5.66309 9.2847C5.70367 9.56898 5.85223 10.359 6.03644 11.3066C6.24445 12.3767 7.75562 12.3767 7.96356 11.3066C8.14777 10.359 8.29633 9.56899 8.33698 9.28471C8.42303 8.68227 7.95557 8.14328 7.34698 8.14328H6.65302Z" fill="currentColor"></path>
  </symbol>
  <symbol xmlns="http://www.w3.org/2000/svg" viewBox="0 0 14 14" id="mortgage">
    <path fill-rule="evenodd" clip-rule="evenodd" d="M14 5C14 7.76143 11.7615 10 9 10H7V12H5V14H0L0.00012207 11.3639L4.40039 6.96365C4.1427 6.36081 4 5.69707 4 5C4 2.23857 6.23853 0 9 0C11.7615 0 14 2.23857 14 5ZM11 4C11 4.5 10.5 5 10 5C9.5 5 9 4.5 9 4C9 3.5 9.5 3 10 3C10.5 3 11 3.5 11 4Z" fill="currentColor"></path>
  </symbol>
  <symbol xmlns="http://www.w3.org/2000/svg" viewBox="0 0 14 14" id="favorite">
    <path d="M4.88631 5.3065H5.47857L5.65146 4.74002L6.80906 0.947124C6.80906 0.947106 6.80907 0.947087 6.80907 0.947068C6.86899 0.750977 7.13101 0.750977 7.19093 0.947068C7.19093 0.947087 7.19094 0.947106 7.19094 0.947124L8.34854 4.74002L8.52143 5.3065H9.1137H12.9976C13.058 5.3065 13.0916 5.32347 13.1144 5.34104C13.1421 5.36237 13.17 5.39853 13.1866 5.44805C13.2031 5.49754 13.2032 5.54537 13.1931 5.58269C13.1846 5.61439 13.1658 5.65158 13.1157 5.69034L9.93066 8.15349L9.49362 8.49147L9.65492 9.01989L10.8448 12.9179L11.6099 12.6843L10.8448 12.9179C10.8651 12.9843 10.8577 13.0279 10.8464 13.0581C10.833 13.0939 10.8057 13.1311 10.7651 13.1598C10.7245 13.1884 10.6831 13.1997 10.6508 13.2C10.6249 13.2002 10.5873 13.1943 10.5358 13.1545C10.5357 13.1545 10.5357 13.1545 10.5357 13.1545L7.48943 10.7985L7 10.4199L6.51057 10.7985L3.4643 13.1545C3.41277 13.1943 3.3751 13.2002 3.34923 13.2C3.31689 13.1997 3.27554 13.1884 3.23492 13.1598C3.19433 13.1311 3.16699 13.0939 3.1536 13.0581C3.14231 13.0279 3.13494 12.9843 3.15523 12.9179L2.39008 12.6843L3.15523 12.9179L4.34508 9.01989L4.50638 8.49147L4.06934 8.15349L0.884302 5.69034C0.834192 5.65158 0.815424 5.61439 0.806865 5.58269C0.796786 5.54537 0.796889 5.49754 0.81344 5.44805C0.83 5.39853 0.857949 5.36237 0.885593 5.34104C0.908359 5.32347 0.941989 5.3065 1.00236 5.3065H4.88631Z" stroke-width="1.6"></path>
  </symbol>
  <symbol xmlns="http://www.w3.org/2000/svg" viewBox="0 0 14 14" id="favorite-fill">
    <path d="M7.95608 0.713542C7.66564 -0.237847 6.33436 -0.237847 6.04392 0.713542L4.88631 4.5065H1.00236C0.0455467 4.5065 -0.365321 5.73518 0.394857 6.32314L3.57993 8.78633L2.39008 12.6843C2.10257 13.6262 3.17957 14.3859 3.95367 13.7873L7 11.4313L10.0463 13.7873C10.8204 14.3859 11.8974 13.6262 11.6099 12.6843L10.4201 8.78633L13.6051 6.32314C14.3653 5.73518 13.9545 4.5065 12.9976 4.5065H9.1137L7.95608 0.713542Z"></path>
  </symbol>
  <symbol xmlns="http://www.w3.org/2000/svg" viewBox="0 0 14 14" id="search">
    <path fill-rule="evenodd" clip-rule="evenodd" d="M9.47653 10.8907C8.49572 11.5892 7.29583 12 6 12C2.68629 12 0 9.31371 0 6C0 2.68629 2.68629 0 6 0C9.31371 0 12 2.68629 12 6C12 7.29583 11.5892 8.49572 10.8907 9.47653L13.7071 12.2929C14.0976 12.6834 14.0976 13.3166 13.7071 13.7071C13.3166 14.0976 12.6834 14.0976 12.2929 13.7071L9.47653 10.8907ZM10 6C10 8.20914 8.20914 10 6 10C3.79086 10 2 8.20914 2 6C2 3.79086 3.79086 2 6 2C8.20914 2 10 3.79086 10 6Z" fill="currentColor"></path>
  </symbol>
  <symbol xmlns="http://www.w3.org/2000/svg" viewBox="0 0 14 14" id="ticket">
    <path fill-rule="evenodd" clip-rule="evenodd" d="M0.00119499 6.25424C0.000645868 6.7727 0.200482 7.27172 0.562169 7.64317C2.55727 9.69216 4.61421 11.685 6.63606 13.7068C7.02656 14.0973 7.65974 14.0973 8.05024 13.7068L13.7071 8.04997C14.0976 7.65944 14.0976 7.02629 13.7071 6.63576C11.6897 4.61831 9.6765 2.59647 7.65546 0.582609C7.281 0.209474 6.7738 0.000244141 6.24517 0.000244141C4.49694 0.000244141 2.74871 0.000244141 1.00049 0.000244141C0.448242 0.000244141 0.000488281 0.447937 0.000488281 1.00024C0.000488281 2.75157 0.0030499 4.50291 0.00119499 6.25424ZM3.53613 3.53574C3.92664 3.14523 3.92664 2.51205 3.53613 2.12155C3.14563 1.73102 2.51245 1.73102 2.12195 2.12155C1.73132 2.51205 1.73132 3.14523 2.12195 3.53574C2.51245 3.92627 3.14563 3.92627 3.53613 3.53574Z" fill="currentColor"></path>
  </symbol>
  <symbol xmlns="http://www.w3.org/2000/svg" viewBox="0 0 14 14" id="location">
    <path d="M4.71545 0.381287C2.93213 0.996704 1.47522 2.31256 0.673584 4H3.29004C3.54114 2.7771 3.92407 1.80872 4.31287 1.06995C4.44849 0.812256 4.58447 0.583099 4.71545 0.381287Z" fill="currentColor"></path>
    <path d="M0.289917 5C0.101318 5.6337 0 6.30502 0 7C0 7.69498 0.101318 8.3663 0.289917 9H3.12402C3.04529 8.38736 3 7.72144 3 7C3 6.27853 3.04529 5.61264 3.12402 5H0.289917Z" fill="currentColor"></path>
    <path d="M0.673584 10C1.47522 11.6874 2.93213 13.0033 4.71545 13.6187C4.58447 13.4169 4.44849 13.1877 4.31287 12.9301C3.92407 12.1913 3.54114 11.2229 3.29004 10H0.673584Z" fill="currentColor"></path>
    <path d="M6.29944 13.9652C6.52979 13.9881 6.76367 14 7 14C7.23486 14 7.46704 13.9884 7.69604 13.9658C7.70935 13.9537 7.73169 13.9328 7.76062 13.904C7.81848 13.8464 7.9054 13.7549 8.01196 13.6275C8.22485 13.3728 8.51575 12.9748 8.80908 12.4174C9.12793 11.8116 9.4519 11.0133 9.68066 10H4.31555C4.54431 11.0133 4.86829 11.8116 5.18713 12.4174C5.48047 12.9748 5.77136 13.3728 5.98425 13.6275C6.09082 13.7549 6.17773 13.8464 6.2356 13.904C6.26453 13.9328 6.28613 13.9531 6.29944 13.9652Z" fill="currentColor"></path>
    <path d="M9.27966 13.6204C11.0652 13.0057 12.524 11.689 13.3264 10H10.7062C10.4551 11.2229 10.0721 12.1913 9.68335 12.9301C9.54736 13.1884 9.41089 13.4182 9.27966 13.6204Z" fill="currentColor"></path>
    <path d="M13.7101 9C13.8987 8.3663 14 7.69498 14 7C14 6.30502 13.8987 5.6337 13.7101 5H10.8722C10.9509 5.61264 10.9962 6.27853 10.9962 7C10.9962 7.72144 10.9509 8.38736 10.8722 9H13.7101Z" fill="currentColor"></path>
    <path d="M13.3264 4C12.524 2.311 11.0652 0.994324 9.27966 0.379608C9.41089 0.581818 9.54736 0.811554 9.68335 1.06995C10.0721 1.80872 10.4551 2.7771 10.7062 4H13.3264Z" fill="currentColor"></path>
    <path d="M7.69604 0.0341797C7.70935 0.0462341 7.73169 0.0671692 7.76062 0.0959778C7.78333 0.11853 7.81042 0.146271 7.84143 0.179321C7.86865 0.208435 7.89893 0.241669 7.93188 0.279114C7.95715 0.30777 7.98389 0.338867 8.01196 0.372467C8.22485 0.627197 8.51575 1.02518 8.80908 1.58258C9.12793 2.18842 9.4519 2.98669 9.68066 4H4.31555C4.54431 2.98669 4.86829 2.18842 5.18713 1.58258C5.48047 1.02518 5.77136 0.627197 5.98425 0.372467C6.03064 0.317017 6.07336 0.268372 6.11157 0.226349C6.16101 0.171844 6.20288 0.12851 6.2356 0.0959778C6.26453 0.0671692 6.28613 0.0468445 6.29944 0.03479C6.52979 0.0119019 6.76367 0 7 0C7.23486 0 7.46704 0.0115662 7.69604 0.0341797Z" fill="currentColor"></path>
    <path d="M9.8623 9C9.94678 8.39587 9.99622 7.73032 9.99622 7C9.99622 6.26968 9.94678 5.60413 9.8623 5H4.13391C4.04944 5.60413 4 6.26968 4 7C4 7.73032 4.04944 8.39587 4.13391 9H9.8623Z" fill="currentColor"></path>
  </symbol>
  <symbol xmlns="http://www.w3.org/2000/svg" viewBox="0 0 14 14" id="garage">
    <path fill-rule="evenodd" clip-rule="evenodd" d="M0.400024 4.46667C0.140381 4.81287 0 5.23392 0 5.66666V10C0 10.5523 0.447754 11 1 11V12C1 12.5523 1.44775 13 2 13C2.55225 13 3 12.5523 3 12V11H11V12C11 12.5523 11.4478 13 12 13C12.5522 13 13 12.5523 13 12V11C13.5522 11 14 10.5523 14 10V5.66666C14 5.23392 13.8596 4.81287 13.6 4.46667L11.6 1.79999C11.2223 1.29639 10.6295 1 10 1H4C3.37048 1 2.77771 1.29639 2.40002 1.79999L0.400024 4.46667ZM3 7C2.44775 7 2 7.44772 2 8C2 8.55228 2.44775 9 3 9C3.55225 9 4 8.55228 4 8C4 7.44772 3.55225 7 3 7ZM11 7C10.4478 7 10 7.44772 10 8C10 8.55228 10.4478 9 11 9C11.5522 9 12 8.55228 12 8C12 7.44772 11.5522 7 11 7ZM4.53516 3C4.20081 3 3.88855 3.16711 3.70312 3.44531C3.54342 3.68488 3.29486 4.05773 3.03652 4.44525C2.59348 5.10981 3.06984 6 3.86854 6H10.1315C10.9302 6 11.4065 5.10981 10.9635 4.44525C10.7051 4.05773 10.4566 3.68488 10.2969 3.44531C10.1115 3.16711 9.79919 3 9.46484 3H4.53516Z" fill="currentColor"></path>
  </symbol>
  <symbol xmlns="http://www.w3.org/2000/svg" viewBox="0 0 14 14" id="plot">
    <path d="M4 1L0 2V13L4 12V1Z" fill="currentColor"></path>
    <path d="M5 12V1L9 2V13L5 12Z" fill="currentColor"></path>
    <path d="M10 13L14 12V1L10 2V13Z" fill="currentColor"></path>
  </symbol>
  <symbol xmlns="http://www.w3.org/2000/svg" viewBox="0 0 14 14" id="comm">
    <path fill-rule="evenodd" clip-rule="evenodd" d="M4 3C4 1.89542 4.89539 1 6 1H8C9.10461 1 10 1.89542 10 3H12C13.1046 3 14 3.89542 14 5V7H0V5C0 3.89542 0.895386 3 2 3H4ZM6 2H8C8.55225 2 9 2.44772 9 3H5C5 2.44772 5.44775 2 6 2Z" fill="currentColor"></path>
    <path d="M2 13C0.895386 13 0 12.1046 0 11V8H5V9C5 9.55229 5.44772 10 6 10H8C8.55229 10 9 9.55229 9 9V8H14V11C14 12.1046 13.1046 13 12 13H2Z" fill="currentColor"></path>
  </symbol>
  <symbol xmlns="http://www.w3.org/2000/svg" viewBox="0 0 14 14" id="registration">
    <path d="M7 7C8.5 7 10 5.20914 10 3C10 0.790863 8.5 0 7 0C5.5 0 4 0.790863 4 3C4 5.20914 5.5 7 7 7Z" fill="currentColor"></path>
    <path d="M5.5 8.25C5.875 8.375 6.25 8.5 7 8.5C7.75 8.5 8.125 8.375 8.5 8.25C8.875 8.125 9.25 8 10 8C12.5 8 14 11 14 12C14 13 13.5 14 12 14C10.5 14 10 13.5 7 13.5C4 13.5 3.5 14 2 14C0.5 14 0 13 0 12C0 11 1.5 8 4 8C4.75 8 5.125 8.125 5.5 8.25Z" fill="currentColor"></path>
  </symbol>
  <symbol xmlns="http://www.w3.org/2000/svg" viewBox="0 0 14 14" id="setting">
    <path fill-rule="evenodd" clip-rule="evenodd" d="M2.55255 2.3491C2.18645 2.22701 1.77776 2.32265 1.5363 2.62371C1.09609 3.17259 0.736881 3.78922 0.476798 4.45548C0.336493 4.8149 0.458092 5.21659 0.746814 5.47253L1.62575 6.2517C2.07461 6.6496 2.07461 7.3504 1.62575 7.7483L0.746814 8.52747C0.458091 8.78341 0.336493 9.1851 0.476798 9.54452C0.736881 10.2108 1.09609 10.8274 1.5363 11.3763C1.77776 11.6774 2.18645 11.773 2.55255 11.6509L3.66476 11.28C4.23379 11.0902 4.84069 11.4406 4.96086 12.0283L5.19597 13.1781C5.27336 13.5565 5.56099 13.8629 5.94292 13.9207C6.28766 13.9729 6.64065 14 6.99997 14C7.35921 14 7.71213 13.9729 8.0568 13.9207C8.43874 13.8629 8.72638 13.5566 8.80377 13.1781L9.03889 12.0283C9.15905 11.4406 9.76596 11.0902 10.335 11.28L11.4473 11.6509C11.8134 11.773 12.2221 11.6774 12.4636 11.3764C12.9038 10.8275 13.263 10.2109 13.5231 9.54466C13.6634 9.18524 13.5418 8.78354 13.2531 8.52759L12.374 7.7483C11.9251 7.3504 11.9251 6.6496 12.374 6.2517L13.2531 5.47241C13.5418 5.21646 13.6634 4.81477 13.5231 4.45534C13.263 3.78911 12.9038 3.17251 12.4636 2.62365C12.2221 2.3226 11.8134 2.22696 11.4473 2.34905L10.335 2.72002C9.76596 2.90979 9.15905 2.55939 9.03889 1.97172L8.80377 0.821898C8.72638 0.443434 8.43874 0.137095 8.0568 0.0792563C7.71213 0.0270612 7.35921 0 6.99997 0C6.64065 0 6.28766 0.0270726 5.94292 0.0792894C5.56099 0.137139 5.27336 0.443472 5.19597 0.821926L4.96086 1.97172C4.84069 2.55939 4.23379 2.90979 3.66476 2.72002L2.55255 2.3491ZM6.99988 9C8.10445 9 8.99988 8.10457 8.99988 7C8.99988 5.89543 8.10445 5 6.99988 5C5.89531 5 4.99988 5.89543 4.99988 7C4.99988 8.10457 5.89531 9 6.99988 9Z" fill="currentColor"></path>
  </symbol>
  <symbol xmlns="http://www.w3.org/2000/svg" viewBox="0 0 14 14" id="balance">
    <path fill-rule="evenodd" clip-rule="evenodd" d="M4 8V4H12V8H4ZM9 6C9 6.55231 8.55228 7 8 7C7.44771 7 7 6.55231 7 6C7 5.44775 7.44771 5 8 5C8.55228 5 9 5.44775 9 6Z" fill="currentColor"></path>
    <path fill-rule="evenodd" clip-rule="evenodd" d="M3 2C2.44771 2 2 2.44769 2 3V4H1C0.447708 4 0 4.44769 0 5V11C0 11.5523 0.447708 12 1 12H11C11.5523 12 12 11.5523 12 11V10H13C13.5523 10 14 9.55231 14 9V3C14 2.44769 13.5523 2 13 2H3ZM12.5 9C12.7761 9 13 8.77612 13 8.5V3.5C13 3.22388 12.7761 3 12.5 3H3.5C3.22386 3 3 3.22388 3 3.5V8.5C3 8.77612 3.22386 9 3.5 9H12.5ZM11 10V11H1V5H2V9C2 9.55231 2.44771 10 3 10H11Z" fill="currentColor"></path>
  </symbol>
  <symbol xmlns="http://www.w3.org/2000/svg" viewBox="0 0 14 14" id="service">
    <path fill-rule="evenodd" clip-rule="evenodd" d="M7 14C10.866 14 14 10.866 14 7C14 3.13401 10.866 0 7 0C3.13401 0 0 3.13401 0 7C0 10.866 3.13401 14 7 14ZM7 11C6.44775 11 6 10.5523 6 10V8H4C3.44775 8 3 7.55228 3 7C3 6.44772 3.44775 6 4 6H6V4C6 3.44772 6.44775 3 7 3C7.55225 3 8 3.44772 8 4V6H10C10.5522 6 11 6.44772 11 7C11 7.55228 10.5522 8 10 8H8V10C8 10.5523 7.55225 11 7 11Z" fill="currentColor"></path>
  </symbol>
  <symbol xmlns="http://www.w3.org/2000/svg" viewBox="0 0 14 14" id="logout">
    <path d="M8 1C8 0.447715 7.55228 0 7 0C6.44772 0 6 0.447715 6 1V5C6 5.55228 6.44772 6 7 6C7.55228 6 8 5.55228 8 5V1Z" fill="currentColor"></path>
    <path d="M7 12C9.76142 12 12 9.76145 12 7.00003C12 5.55237 11.3848 4.24841 10.4015 3.33534C10.0482 3.00723 9.95644 2.45229 10.2651 2.08187L10.3865 1.93621C10.7176 1.53889 11.3029 1.45428 11.687 1.80069C13.1073 3.08184 14 4.93668 14 7.00003C14 10.866 10.866 14 7 14C3.13401 14 0 10.866 0 7.00003C0 4.93668 0.892736 3.08184 2.31302 1.80069C2.69706 1.45428 3.28239 1.53889 3.61349 1.93621L3.73487 2.08187C4.04356 2.45229 3.95183 3.00723 3.59849 3.33534C2.61523 4.24841 2 5.55237 2 7.00003C2 9.76145 4.23858 12 7 12Z" fill="currentColor"></path>
  </symbol>
  <symbol xmlns="http://www.w3.org/2000/svg" viewBox="0 0 14 14" id="login">
    <path d="M10 3C9.44771 3 9 2.55228 9 2C9 1.44772 9.44772 1 10 1H12.0001C13.1047 1 14.0001 1.89543 14.0001 3V11C14.0001 12.1046 13.1047 13 12.0001 13H10C9.44771 13 9 12.5523 9 12C9 11.4477 9.44771 11 10 11H11C11.5523 11 12 10.5523 12 10V4C12 3.44772 11.5523 3 11 3H10Z" fill="currentColor"></path>
    <path d="M4.00002 4.13912C4.00003 3.2906 4.9903 2.8277 5.64134 3.37188L9.07928 6.2455C9.55844 6.64601 9.55735 7.38285 9.077 7.78194L5.63911 10.6382C4.98751 11.1796 4.00006 10.7162 4.00006 9.86907V9H1C0.447715 9 0 8.55228 0 8V6C0 5.44771 0.447715 5 1 5H4L4.00002 4.13912Z" fill="currentColor"></path>
  </symbol>
  <symbol xmlns="http://www.w3.org/2000/svg" viewBox="0 0 14 14" id="house">
    <path d="M7.70708 3.29289C7.31658 2.90237 6.6834 2.90237 6.2929 3.29289L1.70708 7.87868C1.31658 8.2692 0.683403 8.2692 0.2929 7.87868C-0.0976334 7.48816 -0.0976334 6.85499 0.2929 6.46446L4.87868 1.87868C6.05025 0.707108 7.94973 0.707108 9.1213 1.87868L10.024 2.78135C10.1237 2.33423 10.5228 2 11 2C11.5523 2 12 2.44772 12 3V4.75737L13.7071 6.46446C14.0976 6.85499 14.0976 7.48816 13.7071 7.87868C13.3166 8.2692 12.6834 8.2692 12.2929 7.87868L7.70708 3.29289Z" fill="currentColor"></path>
    <path d="M6.33102 5.26306C6.71133 4.92078 7.28866 4.92078 7.66897 5.26306L11.669 9.31555C11.8797 9.50519 12 9.77535 12 10.0588V12C12 12.5523 11.5523 13 11 13H8.99999C8.44772 13 7.99999 12.5523 7.99999 12C7.99999 11.4477 7.55227 11 6.99999 11C6.44772 11 5.99999 11.4477 5.99999 12C5.99999 12.5523 5.55227 13 4.99999 13H2.99999C2.44772 13 1.99999 12.5523 1.99999 12V10.0588C1.99999 9.77535 2.12032 9.50519 2.33102 9.31555L6.33102 5.26306Z" fill="currentColor"></path>
  </symbol>
  <symbol xmlns="http://www.w3.org/2000/svg" viewBox="0 0 14 14" id="hotel">
    <path fill-rule="evenodd" clip-rule="evenodd" d="M0 0.5C0 0.223858 0.223858 0 0.5 0H13.5C13.7761 0 14 0.223858 14 0.5C14 0.776142 13.7761 1 13.5 1C13.2239 1 13 1.22386 13 1.5V12.5C13 12.7761 13.2239 13 13.5 13C13.7761 13 14 13.2239 14 13.5C14 13.7761 13.7761 14 13.5 14H9C8.44772 14 8 13.5523 8 13C8 12.4477 7.55228 12 7 12C6.44772 12 6 12.4477 6 13C6 13.5523 5.55228 14 5 14H0.5C0.223858 14 0 13.7761 0 13.5C0 13.2239 0.223858 13 0.5 13C0.776142 13 1 12.7761 1 12.5V1.5C1 1.22386 0.776142 1 0.5 1C0.223858 1 0 0.776142 0 0.5ZM3 3C3 2.44772 3.44772 2 4 2C4.55228 2 5 2.44772 5 3C5 3.55228 4.55228 4 4 4C3.44772 4 3 3.55228 3 3ZM4 10L7 8L10 10H4ZM4 5C3.44772 5 3 5.44772 3 6C3 6.55228 3.44772 7 4 7C4.55228 7 5 6.55228 5 6C5 5.44772 4.55228 5 4 5ZM9 3C9 2.44772 9.44772 2 10 2C10.5523 2 11 2.44772 11 3C11 3.55228 10.5523 4 10 4C9.44772 4 9 3.55228 9 3ZM10 5C9.44772 5 9 5.44772 9 6C9 6.55228 9.44772 7 10 7C10.5523 7 11 6.55228 11 6C11 5.44772 10.5523 5 10 5ZM6 3C6 2.44772 6.44772 2 7 2C7.55228 2 8 2.44772 8 3C8 3.55228 7.55228 4 7 4C6.44772 4 6 3.55228 6 3ZM7 5C6.44772 5 6 5.44772 6 6C6 6.55228 6.44772 7 7 7C7.55228 7 8 6.55228 8 6C8 5.44772 7.55228 5 7 5Z" fill="currentColor"></path>
  </symbol>
  <symbol xmlns="http://www.w3.org/2000/svg" viewBox="0 0 14 14" id="estate">
    <path d="M4 3H6V5H4V3Z" fill="currentColor"></path>
    <path d="M6 6H4V8H6V6Z" fill="currentColor"></path>
    <path d="M4 9H6V11H4V9Z" fill="currentColor"></path>
    <path d="M10 3H8V5H10V3Z" fill="currentColor"></path>
    <path d="M8 6H10V8H8V6Z" fill="currentColor"></path>
    <path d="M10 9H8V11H10V9Z" fill="currentColor"></path>
    <path fill-rule="evenodd" clip-rule="evenodd" d="M1 12V2C1 0.895432 1.89542 0 3 0H11C12.1046 0 13 0.895432 13 2V12C13.5523 12 14 12.4477 14 13C14 13.5523 13.5523 14 13 14H1C0.447723 14 0 13.5523 0 13C0 12.4477 0.447723 12 1 12ZM3 2H11V12H3V2Z" fill="currentColor"></path>
  </symbol>
  <symbol xmlns="http://www.w3.org/2000/svg" viewBox="0 0 14 14" id="new">
    <path fill-rule="evenodd" clip-rule="evenodd" d="M1 2C1 0.895432 1.89539 0 3 0H11C12.1046 0 13 0.895432 13 2V12C13.5522 12 14 12.4477 14 13C14 13.5523 13.5522 14 13 14H1C0.447754 14 0 13.5523 0 13C0 12.4477 0.447754 12 1 12V2ZM6 2H4V4H6V2ZM8 11H6V12H8V11ZM4 8H6V10H4V8ZM6 5H4V7H6V5ZM8 2H10V4H8V2ZM10 8H8V10H10V8ZM8 5H10V7H8V5Z" fill="currentColor"></path>
  </symbol>
  <symbol xmlns="http://www.w3.org/2000/svg" viewBox="0 0 14 14" id="minus">
    <path fill-rule="evenodd" clip-rule="evenodd" d="M3 0C1.34315 0 0 1.34315 0 3V11C0 12.6569 1.34315 14 3 14H11C12.6569 14 14 12.6569 14 11V3C14 1.34315 12.6569 0 11 0H3ZM4 8C3.44775 8 3 7.55228 3 7C3 6.44772 3.44775 6 4 6C7.17356 6 6.21912 6 10 6C10.5522 6 11 6.44772 11 7C11 7.55228 10.5522 8 10 8C6.21912 8 7.17356 8 4 8Z" fill="currentColor"></path>
  </symbol>
  <symbol xmlns="http://www.w3.org/2000/svg" viewBox="0 0 14 14" id="plus">
    <path fill-rule="evenodd" clip-rule="evenodd" d="M3 0C1.34315 0 0 1.34315 0 3V11C0 12.6569 1.34315 14 3 14H11C12.6569 14 14 12.6569 14 11V3C14 1.34315 12.6569 0 11 0H3ZM7 11C6.44775 11 6 10.5523 6 10V8H4C3.44775 8 3 7.55228 3 7C3 6.44772 3.44775 6 4 6H6V4C6 3.44772 6.44775 3 7 3C7.55225 3 8 3.44772 8 4V6H10C10.5522 6 11 6.44772 11 7C11 7.55228 10.5522 8 10 8H8V10C8 10.5523 7.55225 11 7 11Z" fill="currentColor"></path>
  </symbol>
  <symbol xmlns="http://www.w3.org/2000/svg" viewBox="0 0 14 14" id="cross">
    <path d="M2.05025 10.5355C1.65973 10.926 1.65975 11.5592 2.05025 11.9497C2.44075 12.3402 3.07394 12.3402 3.46447 11.9497L7 8.41417L10.5355 11.9497C10.926 12.3402 11.5592 12.3402 11.9497 11.9497C12.3403 11.5592 12.3402 10.926 11.9497 10.5355L8.41421 6.99996L11.9497 3.46443C12.3403 3.0739 12.3402 2.44071 11.9497 2.05021C11.5593 1.65971 10.9261 1.65969 10.5355 2.05021L7 5.58575L3.46447 2.05021C3.07397 1.65971 2.44078 1.65969 2.05025 2.05021C1.65973 2.44074 1.65976 3.07393 2.05025 3.46442L5.58579 6.99996L2.05025 10.5355Z" fill="currentColor"></path>
  </symbol>
  <symbol xmlns="http://www.w3.org/2000/svg" viewBox="0 0 14 15" id="placeholder">
    <path fill-rule="evenodd" clip-rule="evenodd" d="M5.99553 14.3917C6.59818 14.8397 7.40182 14.8397 8.00447 14.3917C9.71258 13.1221 13 10.246 13 6.91504C13 2.41504 9.5 0.915039 7 0.915039C4.5 0.915039 1 2.41504 1 6.91504C1 10.246 4.28742 13.1221 5.99553 14.3917ZM7 8.91504C8.10457 8.91504 9 8.01961 9 6.91504C9 5.81047 8.10457 4.91504 7 4.91504C5.89543 4.91504 5 5.81047 5 6.91504C5 8.01961 5.89543 8.91504 7 8.91504Z" fill="currentColor"></path>
  </symbol>
  <symbol xmlns="http://www.w3.org/2000/svg" viewBox="0 0 14 14" id="chevron-d">
    <path d="M10.5858 4H3.41421C2.52331 4 2.07714 5.07714 2.70711 5.70711L6.29289 9.29289C6.68342 9.68342 7.31658 9.68342 7.70711 9.29289L11.2929 5.70711C11.9229 5.07714 11.4767 4 10.5858 4Z" fill=" currentColor"></path>
  </symbol>
  <symbol xmlns="http://www.w3.org/2000/svg" viewBox="0 0 14 14" id="chevron-u">
    <path d="M10.5858 10H3.41421C2.52331 10 2.07714 8.92286 2.70711 8.29289L6.29289 4.70711C6.68342 4.31658 7.31658 4.31658 7.70711 4.70711L11.2929 8.29289C11.9229 8.92286 11.4767 10 10.5858 10Z" fill=" currentColor"></path>
  </symbol>
  <symbol xmlns="http://www.w3.org/2000/svg" viewBox="0 0 14 14" id="chevron-l">
    <path d="M10 10.5858L10 3.41421C10 2.52331 8.92286 2.07714 8.29289 2.70711L4.70711 6.29289C4.31658 6.68342 4.31658 7.31658 4.70711 7.70711L8.29289 11.2929C8.92286 11.9229 10 11.4767 10 10.5858Z" fill=" currentColor"></path>
  </symbol>
  <symbol xmlns="http://www.w3.org/2000/svg" viewBox="0 0 14 14" id="chevron-r">
    <path d="M4 10.5858L4 3.41421C4 2.52331 5.07714 2.07714 5.70711 2.70711L9.29289 6.29289C9.68342 6.68342 9.68342 7.31658 9.29289 7.70711L5.70711 11.2929C5.07714 11.9229 4 11.4767 4 10.5858Z" fill=" currentColor"></path>
  </symbol>
</svg>