<svg width="0" height="0" class="hidden">
  <symbol xmlns="http://www.w3.org/2000/svg" viewBox="0 0 14 15" id="agent">
    <g id="agent">
      <path d="M10 3.35718C10 5.56631 8.5 7.35718 7 7.35718C5.5 7.35718 4 5.56631 4 3.35718C4 1.14804 5.5 0.357178 7 0.357178C8.5 0.357178 10 1.14804 10 3.35718Z"  ></path>
      <path d="M9.70764 9.47586C9.49579 11.0838 9.13031 13.8572 7 13.8572C5.09808 13.8572 4.80383 11.6466 4.58844 10.0283C4.46411 9.09404 4.36603 8.35718 4 8.35718C1.5 8.35718 0 11.3572 0 12.3572C0 13.3572 0.5 14.3572 2 14.3572C2.62134 14.3572 3.07104 14.2714 3.59796 14.1709C4.34314 14.0288 5.24261 13.8572 7 13.8572C8.75739 13.8572 9.65686 14.0288 10.402 14.1709C10.929 14.2714 11.3787 14.3572 12 14.3572C13.5 14.3572 14 13.3572 14 12.3572C14 11.3572 12.5 8.35718 10 8.35718C9.85504 8.35718 9.79413 8.8194 9.70764 9.47586Z"  ></path>
      <path d="M6.65302 8.50046C6.04449 8.50046 5.57703 9.03945 5.66309 9.64188C5.70367 9.92616 5.85223 10.7162 6.03644 11.6638C6.24445 12.7338 7.75562 12.7338 7.96356 11.6638C8.14777 10.7162 8.29633 9.92617 8.33698 9.64188C8.42303 9.03945 7.95557 8.50046 7.34698 8.50046H6.65302Z"  ></path>
    </g>
  </symbol>
  <symbol xmlns="http://www.w3.org/2000/svg" viewBox="0 0 14 14" id="appartments">
    <path id="appartments" fill-rule="evenodd" clip-rule="evenodd" d="M1 2C1 0.895432 1.89539 0 3 0H11C12.1046 0 13 0.895432 13 2V12C13.5522 12 14 12.4477 14 13C14 13.5523 13.5522 14 13 14H1C0.447754 14 0 13.5523 0 13C0 12.4477 0.447754 12 1 12V2ZM6 2H4V4H6V2ZM8 11H6V12H8V11ZM4 8H6V10H4V8ZM6 5H4V7H6V5ZM8 2H10V4H8V2ZM10 8H8V10H10V8ZM8 5H10V7H8V5Z"  ></path>
  </symbol>
  <symbol xmlns="http://www.w3.org/2000/svg" viewBox="0 0 10 6" id="caret">
    <path id="caret" d="M8.58579 0H1.41421C0.523309 0 0.0771428 1.07714 0.707108 1.70711L4.29289 5.29289C4.68342 5.68342 5.31658 5.68342 5.70711 5.29289L9.29289 1.70711C9.92286 1.07714 9.47669 0 8.58579 0Z"  ></path>
  </symbol>
  <symbol xmlns="http://www.w3.org/2000/svg" viewBox="0 0 14 12" id="house">
    <g id="house">
      <path d="M7.70708 2.29289C7.31658 1.90237 6.6834 1.90237 6.2929 2.29289L1.70708 6.87868C1.31658 7.2692 0.683403 7.2692 0.2929 6.87868C-0.0976334 6.48816 -0.0976334 5.85499 0.2929 5.46446L4.87868 0.878677C6.05025 -0.292892 7.94973 -0.292892 9.1213 0.878677L10.024 1.78135C10.1237 1.33423 10.5228 1 11 1C11.5523 1 12 1.44772 12 2V3.75737L13.7071 5.46446C14.0976 5.85499 14.0976 6.48816 13.7071 6.87868C13.3166 7.2692 12.6834 7.2692 12.2929 6.87868L7.70708 2.29289Z"  ></path>
      <path d="M6.33102 4.26306C6.71133 3.92078 7.28866 3.92078 7.66897 4.26306L11.669 8.31555C11.8797 8.50519 12 8.77535 12 9.05884V11C12 11.5523 11.5523 12 11 12H8.99999C8.44772 12 7.99999 11.5523 7.99999 11C7.99999 10.4477 7.55227 10 6.99999 10C6.44772 10 5.99999 10.4477 5.99999 11C5.99999 11.5523 5.55227 12 4.99999 12H2.99999C2.44772 12 1.99999 11.5523 1.99999 11V9.05884C1.99999 8.77535 2.12032 8.50519 2.33102 8.31555L6.33102 4.26306Z"  ></path>
    </g>
  </symbol>
  <symbol xmlns="http://www.w3.org/2000/svg" viewBox="0 0 12 14" id="icon-map">
    <path id="icon-map" fill-rule="evenodd" clip-rule="evenodd" d="M4.99553 13.4767C5.59818 13.9246 6.40182 13.9246 7.00447 13.4767C8.71258 12.2071 12 9.33092 12 6C12 1.5 8.5 0 6 0C3.5 0 0 1.5 0 6C0 9.33092 3.28742 12.2071 4.99553 13.4767ZM6 8C7.10457 8 8 7.10457 8 6C8 4.89543 7.10457 4 6 4C4.89543 4 4 4.89543 4 6C4 7.10457 4.89543 8 6 8Z"  ></path>
  </symbol>
  <symbol xmlns="http://www.w3.org/2000/svg" viewBox="0 0 14 14" id="plus">
    <path id="plus" d="M6 13C6 13.5523 6.44775 14 7 14C7.55225 14 8 13.5523 8 13V8H13C13.5522 8 14 7.55228 14 7C14 6.44772 13.5522 6 13 6H8V1C8 0.447716 7.55225 0 7 0C6.44775 0 6 0.447716 6 1V6H1C0.447754 6 0 6.44772 0 7C0 7.55228 0.447754 8 1 8H6V13Z" fill="white"></path>
  </symbol>
  <symbol xmlns="http://www.w3.org/2000/svg" viewBox="0 0 14 14" id="search">
    <path id="search" fill-rule="evenodd" clip-rule="evenodd" d="M9.47653 10.8907C8.49572 11.5892 7.29583 12 6 12C2.68629 12 0 9.31371 0 6C0 2.68629 2.68629 0 6 0C9.31371 0 12 2.68629 12 6C12 7.29583 11.5892 8.49572 10.8907 9.47653L13.7071 12.2929C14.0976 12.6834 14.0976 13.3166 13.7071 13.7071C13.3166 14.0976 12.6834 14.0976 12.2929 13.7071L9.47653 10.8907ZM10 6C10 8.20914 8.20914 10 6 10C3.79086 10 2 8.20914 2 6C2 3.79086 3.79086 2 6 2C8.20914 2 10 3.79086 10 6Z" fill="white"></path>
  </symbol>
  <symbol xmlns="http://www.w3.org/2000/svg" viewBox="0 0 14 14" id="user">
    <g id="user">
      <path d="M7 7C8.5 7 10 5.20914 10 3C10 0.790863 8.5 0 7 0C5.5 0 4 0.790863 4 3C4 5.20914 5.5 7 7 7Z"  ></path>
      <path d="M5.5 8.25C5.875 8.375 6.25 8.5 7 8.5C7.75 8.5 8.125 8.375 8.5 8.25C8.875 8.125 9.25 8 10 8C12.5 8 14 11 14 12C14 13 13.5 14 12 14C10.5 14 10 13.5 7 13.5C4 13.5 3.5 14 2 14C0.5 14 0 13 0 12C0 11 1.5 8 4 8C4.75 8 5.125 8.125 5.5 8.25Z"  ></path>
    </g>
  </symbol>
  <symbol xmlns="http://www.w3.org/2000/svg" viewBox="0 0 3 12" id="info">
    <g id="info">
      <path d="M1.1665 0C0.614258 0 0.166504 0.447716 0.166504 1V7C0.166504 7.55228 0.614258 8 1.1665 8C1.71875 8 2.1665 7.55228 2.1665 7V1C2.1665 0.447716 1.71875 0 1.1665 0Z"></path>
      <path d="M1.1665 10C0.614258 10 0.166504 10.4477 0.166504 11C0.166504 11.5523 0.614258 12 1.1665 12C1.71875 12 2.1665 11.5523 2.1665 11C2.1665 10.4477 1.71875 10 1.1665 10Z"></path>
    </g>
  </symbol>
</svg>