<svg width="0" height="0" class="hidden">
  <symbol xmlns="http://www.w3.org/2000/svg" viewBox="0 0 14 14" id="agent">
    <path d="M10 3C10 5.20914 8.5 7 7 7C5.5 7 4 5.20914 4 3C4 0.790863 5.5 0 7 0C8.5 0 10 0.790863 10 3Z"  ></path>
    <path d="M9.70764 9.11868C9.49579 10.7267 9.13031 13.5 7 13.5C5.09808 13.5 4.80383 11.2894 4.58844 9.67117C4.46411 8.73686 4.36603 8 4 8C1.5 8 0 11 0 12C0 13 0.5 14 2 14C2.62134 14 3.07104 13.9142 3.59796 13.8137C4.34314 13.6716 5.24261 13.5 7 13.5C8.75739 13.5 9.65686 13.6716 10.402 13.8137C10.929 13.9142 11.3787 14 12 14C13.5 14 14 13 14 12C14 11 12.5 8 10 8C9.85504 8 9.79413 8.46223 9.70764 9.11868Z"  ></path>
    <path d="M6.65302 8.14328C6.04449 8.14328 5.57703 8.68227 5.66309 9.2847C5.70367 9.56898 5.85223 10.359 6.03644 11.3066C6.24445 12.3767 7.75562 12.3767 7.96356 11.3066C8.14777 10.359 8.29633 9.56899 8.33698 9.28471C8.42303 8.68227 7.95557 8.14328 7.34698 8.14328H6.65302Z"  ></path>
  </symbol>
  <symbol   xmlns="http://www.w3.org/2000/svg" viewBox="0 0 14 14" id="arr-left">
    <path d="M10 10.5858L10 3.41421C10 2.52331 8.92286 2.07714 8.29289 2.70711L4.70711 6.29289C4.31658 6.68342 4.31658 7.31658 4.70711 7.70711L8.29289 11.2929C8.92286 11.9229 10 11.4767 10 10.5858Z"  ></path>
  </symbol>
  <symbol   xmlns="http://www.w3.org/2000/svg" viewBox="0 0 14 14" id="arr-right">
    <path d="M4 10.5858L4 3.41421C4 2.52331 5.07714 2.07714 5.70711 2.70711L9.29289 6.29289C9.68342 6.68342 9.68342 7.31658 9.29289 7.70711L5.70711 11.2929C5.07714 11.9229 4 11.4767 4 10.5858Z"  ></path>
  </symbol>
  <symbol   xmlns="http://www.w3.org/2000/svg" viewBox="0 0 14 14" id="balance">
    <path fill-rule="evenodd" clip-rule="evenodd" d="M4 8V4H12V8H4ZM9 6C9 6.55231 8.55228 7 8 7C7.44771 7 7 6.55231 7 6C7 5.44775 7.44771 5 8 5C8.55228 5 9 5.44775 9 6Z"  ></path>
    <path fill-rule="evenodd" clip-rule="evenodd" d="M3 2C2.44771 2 2 2.44769 2 3V4H1C0.447708 4 0 4.44769 0 5V11C0 11.5523 0.447708 12 1 12H11C11.5523 12 12 11.5523 12 11V10H13C13.5523 10 14 9.55231 14 9V3C14 2.44769 13.5523 2 13 2H3ZM12.5 9C12.7761 9 13 8.77612 13 8.5V3.5C13 3.22388 12.7761 3 12.5 3H3.5C3.22386 3 3 3.22388 3 3.5V8.5C3 8.77612 3.22386 9 3.5 9H12.5ZM11 10V11H1V5H2V9C2 9.55231 2.44771 10 3 10H11Z"  ></path>
  </symbol>
  <symbol   xmlns="http://www.w3.org/2000/svg" viewBox="0 0 14 14" id="comm">
    <path fill-rule="evenodd" clip-rule="evenodd" d="M4 3C4 1.89542 4.89539 1 6 1H8C9.10461 1 10 1.89542 10 3H12C13.1046 3 14 3.89542 14 5V7H0V5C0 3.89542 0.895386 3 2 3H4ZM6 2H8C8.55225 2 9 2.44772 9 3H5C5 2.44772 5.44775 2 6 2Z"  ></path>
    <path d="M2 13C0.895386 13 0 12.1046 0 11V8H5V9C5 9.55229 5.44772 10 6 10H8C8.55229 10 9 9.55229 9 9V8H14V11C14 12.1046 13.1046 13 12 13H2Z"  ></path>
  </symbol>
  <symbol   xmlns="http://www.w3.org/2000/svg" viewBox="0 0 14 14" id="cross">
    <path d="M2.05021 10.5356C1.65969 10.9261 1.65972 11.5593 2.05021 11.9498C2.44071 12.3403 3.0739 12.3403 3.46443 11.9498L6.99996 8.41423L10.5355 11.9498C10.926 12.3403 11.5592 12.3403 11.9497 11.9498C12.3402 11.5592 12.3402 10.9261 11.9497 10.5356L8.41418 7.00002L11.9497 3.46449C12.3402 3.07396 12.3402 2.44077 11.9497 2.05027C11.5592 1.65978 10.926 1.65975 10.5355 2.05027L6.99996 5.58581L3.46443 2.05027C3.07393 1.65978 2.44074 1.65975 2.05021 2.05027C1.65969 2.4408 1.65972 3.07399 2.05021 3.46449L5.58575 7.00002L2.05021 10.5356Z"  ></path>
  </symbol>
  <symbol   xmlns="http://www.w3.org/2000/svg" viewBox="0 0 14 14" id="dd">
    <path d="M10.5858 4H3.41421C2.52331 4 2.07714 5.07714 2.70711 5.70711L6.29289 9.29289C6.68342 9.68342 7.31658 9.68342 7.70711 9.29289L11.2929 5.70711C11.9229 5.07714 11.4767 4 10.5858 4Z"  ></path>
  </symbol>
  <symbol   xmlns="http://www.w3.org/2000/svg" viewBox="0 0 14 14" id="dd-up">
    <path d="M10.5858 10H3.41421C2.52331 10 2.07714 8.92286 2.70711 8.29289L6.29289 4.70711C6.68342 4.31658 7.31658 4.31658 7.70711 4.70711L11.2929 8.29289C11.9229 8.92286 11.4767 10 10.5858 10Z"  ></path>
  </symbol>
  <symbol   xmlns="http://www.w3.org/2000/svg" viewBox="0 0 14 14" id="estate">
    <path d="M4 3H6V5H4V3Z"  ></path>
    <path d="M6 6H4V8H6V6Z"  ></path>
    <path d="M4 9H6V11H4V9Z"  ></path>
    <path d="M10 3H8V5H10V3Z"  ></path>
    <path d="M8 6H10V8H8V6Z"  ></path>
    <path d="M10 9H8V11H10V9Z"  ></path>
    <path fill-rule="evenodd" clip-rule="evenodd" d="M1 12V2C1 0.895432 1.89542 0 3 0H11C12.1046 0 13 0.895432 13 2V12C13.5523 12 14 12.4477 14 13C14 13.5523 13.5523 14 13 14H1C0.447723 14 0 13.5523 0 13C0 12.4477 0.447723 12 1 12ZM3 2H11V12H3V2Z"  ></path>
  </symbol>
  <symbol   xmlns="http://www.w3.org/2000/svg" viewBox="0 0 14 14" id="favorite">
    <path d="M7.95608 0.713542C7.66564 -0.237847 6.33436 -0.237847 6.04392 0.713542L4.88631 4.5065H1.00236C0.0455467 4.5065 -0.365321 5.73518 0.394857 6.32314L3.57993 8.78633L2.39008 12.6843C2.10257 13.6262 3.17957 14.3859 3.95367 13.7873L7 11.4313L10.0463 13.7873C10.8204 14.3859 11.8974 13.6262 11.6099 12.6843L10.4201 8.78633L13.6051 6.32314C14.3653 5.73518 13.9545 4.5065 12.9976 4.5065H9.1137L7.95608 0.713542Z"  ></path>
  </symbol>
  <symbol   xmlns="http://www.w3.org/2000/svg" viewBox="0 0 14 14" id="garage">
    <path fill-rule="evenodd" clip-rule="evenodd" d="M0.400024 4.46667C0.140381 4.81287 0 5.23392 0 5.66666V10C0 10.5523 0.447754 11 1 11V12C1 12.5523 1.44775 13 2 13C2.55225 13 3 12.5523 3 12V11H11V12C11 12.5523 11.4478 13 12 13C12.5522 13 13 12.5523 13 12V11C13.5522 11 14 10.5523 14 10V5.66666C14 5.23392 13.8596 4.81287 13.6 4.46667L11.6 1.79999C11.2223 1.29639 10.6295 1 10 1H4C3.37048 1 2.77771 1.29639 2.40002 1.79999L0.400024 4.46667ZM3 7C2.44775 7 2 7.44772 2 8C2 8.55228 2.44775 9 3 9C3.55225 9 4 8.55228 4 8C4 7.44772 3.55225 7 3 7ZM11 7C10.4478 7 10 7.44772 10 8C10 8.55228 10.4478 9 11 9C11.5522 9 12 8.55228 12 8C12 7.44772 11.5522 7 11 7ZM4.53516 3C4.20081 3 3.88855 3.16711 3.70312 3.44531C3.54342 3.68488 3.29486 4.05773 3.03652 4.44525C2.59348 5.10981 3.06984 6 3.86854 6H10.1315C10.9302 6 11.4065 5.10981 10.9635 4.44525C10.7051 4.05773 10.4566 3.68488 10.2969 3.44531C10.1115 3.16711 9.79919 3 9.46484 3H4.53516Z"  ></path>
  </symbol>
  <symbol   xmlns="http://www.w3.org/2000/svg" viewBox="0 0 14 14" id="house">
    <path d="M7.70709 3.29289C7.31659 2.90237 6.68341 2.90237 6.29291 3.29289L1.70709 7.87868C1.31659 8.2692 0.683411 8.2692 0.292908 7.87868C-0.0976257 7.48816 -0.0976257 6.85499 0.292908 6.46446L4.87869 1.87868C6.05026 0.707108 7.94974 0.707108 9.12131 1.87868L10.024 2.78135C10.1237 2.33423 10.5228 2 11 2C11.5523 2 12 2.44772 12 3V4.75737L13.7071 6.46446C14.0976 6.85499 14.0976 7.48816 13.7071 7.87868C13.3166 8.2692 12.6834 8.2692 12.2929 7.87868L7.70709 3.29289Z"  ></path>
    <path d="M6.33102 5.26306C6.71133 4.92078 7.28867 4.92078 7.66898 5.26306L11.669 9.31555C11.8797 9.50519 12 9.77535 12 10.0588V12C12 12.5523 11.5523 13 11 13H9C8.44772 13 8 12.5523 8 12C8 11.4477 7.55228 11 7 11C6.44772 11 6 11.4477 6 12C6 12.5523 5.55228 13 5 13H3C2.44772 13 2 12.5523 2 12V10.0588C2 9.77535 2.12033 9.50519 2.33102 9.31555L6.33102 5.26306Z"  ></path>
  </symbol>
  <symbol   xmlns="http://www.w3.org/2000/svg" viewBox="0 0 14 14" id="adv">
    <path fill-rule="evenodd" clip-rule="evenodd" d="M4 4.9985C8.37737 4.9985 10.7995 2.65045 12 0.891012C12.0481 0.820458 12.0943 0.750854 12.1386 0.682382C12.2411 0.523831 12.3333 0.371367 12.4158 0.227348C12.4386 0.187576 12.4606 0.148447 12.4819 0.110012C12.592 -0.08841 13 0.000440866 13 0.227348V5.99925C13.5523 5.99925 14 6.44734 14 6.99962C14 7.55191 13.5523 8 13 8V13.7726C13 13.9995 12.592 14.0884 12.4819 13.89C12.4606 13.8515 12.4386 13.8124 12.4158 13.7726C12.3333 13.6286 12.2411 13.4762 12.1386 13.3176C12.0943 13.2491 12.0481 13.1795 12 13.109C10.7995 11.3495 8.37737 9.00148 4 9.00148L4.58412 10.7552C4.78874 11.3695 4.33147 12.0037 3.68398 12.0037C3.27553 12.0037 2.91293 11.7423 2.78385 11.3548L2 9.00149H1C0.447715 9.00149 0 8.55377 0 8.00149V5.9985C0 5.44622 0.447715 4.9985 1 4.9985L4 4.9985ZM5 5.95976C8.40106 5.69173 10.625 4.07742 12 2.51671V11.4833C10.625 9.92257 8.40106 8.30826 5 8.04022V5.95976Z"  ></path>
  </symbol>
  <symbol   xmlns="http://www.w3.org/2000/svg" viewBox="0 0 14 14" id="arr-down">
    <path fill-rule="evenodd" clip-rule="evenodd" d="M7 11L0 4.24021L1.28429 3L7 8.51957L12.7157 3L14 4.24021L7 11Z"  ></path>
  </symbol>
  <symbol   xmlns="http://www.w3.org/2000/svg" viewBox="0 0 14 14" id="arrow-up">
    <path fill-rule="evenodd" clip-rule="evenodd" d="M7 3L0 9.75979L1.28429 11L7 5.48043L12.7157 11L14 9.75979L7 3Z"  ></path>
  </symbol>
  <symbol   xmlns="http://www.w3.org/2000/svg" viewBox="0 0 14 14" id="cancel">
    <path fill-rule="evenodd" clip-rule="evenodd" d="M13 7C13 10.3137 10.3137 13 7 13C3.68628 13 1 10.3137 1 7C1 3.68629 3.68628 1 7 1C10.3137 1 13 3.68629 13 7ZM11 7C11 9.20914 9.20911 11 7 11C6.20056 11 5.45581 10.7654 4.83093 10.3614L10.3615 4.83099C10.7655 5.45584 11 6.20053 11 7ZM3.47388 8.89011L8.89014 3.47387C8.32727 3.17152 7.68372 3 7 3C4.79089 3 3 4.79086 3 7C3 7.68365 3.17151 8.32725 3.47388 8.89011Z"  ></path>
  </symbol>
  <symbol   xmlns="http://www.w3.org/2000/svg" viewBox="0 0 14 14" id="del">
    <path d="M3 2C2.44769 2 2 2.44769 2 3C2 3.55231 2.44769 4 3 4V11C3 12.1046 3.89545 13 5 13H9C10.1046 13 11 12.1046 11 11V4C11.5523 4 12 3.55231 12 3C12 2.44769 11.5523 2 11 2H8V1.5C8 1.22388 7.77612 1 7.5 1H6.5C6.22388 1 6 1.22388 6 1.5V2H3Z"  ></path>
  </symbol>
  <symbol   xmlns="http://www.w3.org/2000/svg" viewBox="0 0 14 14" id="filter">
    <path d="M8 0H6V1H0V3H6V4H8V3H14V1H8V0Z"  ></path>
    <path d="M10 5H12V6H14V8H12V9H10V8H0V6H10V5Z"  ></path>
    <path d="M4 10H2V11H0V13H2V14H4V13H14V11H4V10Z"  ></path>
  </symbol>
  <symbol   xmlns="http://www.w3.org/2000/svg" viewBox="0 0 14 14" id="hot">
    <path d="M4.70204 1H8.80535C9.14183 1 9.37045 1.35287 9.24206 1.67404L7.89098 5.05495C7.7626 5.37613 7.99122 5.729 8.32769 5.729H10.5268C10.9025 5.729 11.1278 6.1599 10.9219 6.48439L6.92736 12.7778C6.64879 13.2167 5.98755 12.9543 6.0653 12.4357L6.59233 8.91875C6.63668 8.62306 6.41515 8.35622 6.12545 8.35622H3.47266C3.17465 8.35622 2.9511 8.07487 3.00924 7.77309L4.23863 1.39269C4.28264 1.16441 4.47665 1 4.70204 1Z"  ></path>
  </symbol>
  <symbol   xmlns="http://www.w3.org/2000/svg" viewBox="0 0 14 14" id="info">
    <path d="M7 1C6.44775 1 6 1.44772 6 2V8C6 8.55228 6.44775 9 7 9C7.55225 9 8 8.55228 8 8V2C8 1.44772 7.55225 1 7 1Z"  ></path>
    <path d="M7 11C6.44775 11 6 11.4477 6 12C6 12.5523 6.44775 13 7 13C7.55225 13 8 12.5523 8 12C8 11.4477 7.55225 11 7 11Z"  ></path>
  </symbol>
  <symbol   xmlns="http://www.w3.org/2000/svg" viewBox="0 0 14 14" id="list">
    <path d="M1 1C0.447754 1 0 1.44772 0 2C0 2.55228 0.447754 3 1 3C1.55225 3 2 2.55228 2 2C2 1.44772 1.55225 1 1 1Z"  ></path>
    <path d="M1 6C0.447754 6 0 6.44772 0 7C0 7.55228 0.447754 8 1 8C1.55225 8 2 7.55228 2 7C2 6.44772 1.55225 6 1 6Z"  ></path>
    <path d="M0 12C0 11.4477 0.447754 11 1 11C1.55225 11 2 11.4477 2 12C2 12.5523 1.55225 13 1 13C0.447754 13 0 12.5523 0 12Z"  ></path>
    <path d="M5 1C4.44775 1 4 1.44772 4 2C4 2.55228 4.44775 3 5 3H13C13.5522 3 14 2.55228 14 2C14 1.44772 13.5522 1 13 1H5Z"  ></path>
    <path d="M4 7C4 6.44772 4.44775 6 5 6H13C13.5522 6 14 6.44772 14 7C14 7.55228 13.5522 8 13 8H5C4.44775 8 4 7.55228 4 7Z"  ></path>
    <path d="M5 11C4.44775 11 4 11.4477 4 12C4 12.5523 4.44775 13 5 13H13C13.5522 13 14 12.5523 14 12C14 11.4477 13.5522 11 13 11H5Z"  ></path>
  </symbol>
  <symbol   xmlns="http://www.w3.org/2000/svg" viewBox="0 0 14 14" id="navigator">
    <path d="M1.65934 5.68265L11.3994 1.10892C12.3493 0.662876 13.3282 1.6684 12.894 2.64415L8.5867 12.3225C8.11429 13.384 6.58288 13.1428 6.44198 11.9846L5.92306 9.49713C5.86173 8.99273 5.48734 8.58835 5 8.5L1.93219 7.87705C0.842212 7.67946 0.652644 6.15534 1.65934 5.68265Z"  ></path>
  </symbol>
  <symbol   xmlns="http://www.w3.org/2000/svg" viewBox="0 0 14 14" id="ok">
    <path d="M6.99635 6.93642C8.0166 6.93642 8.93853 6.54335 9.60231 5.91908C10.2661 5.2948 10.684 4.42775 10.684 3.46821C10.684 2.50867 10.2661 1.64162 9.60231 1.01734C8.93853 0.393063 8.0166 0 6.99635 0C5.9761 0 5.0542 0.393063 4.39042 1.01734C3.72664 1.64162 3.3087 2.50867 3.3087 3.46821C3.3087 4.42775 3.72664 5.2948 4.39042 5.91908C5.0542 6.54335 5.98839 6.93642 6.99635 6.93642ZM5.8163 2.34682C6.1236 2.0578 6.54154 1.88439 6.99635 1.88439C7.46345 1.88439 7.8814 2.0578 8.17641 2.34682C8.48372 2.63584 8.6681 3.0289 8.6681 3.45665C8.6681 3.89595 8.48372 4.28902 8.17641 4.56647C7.86911 4.85549 7.45116 5.0289 6.99635 5.0289C6.52925 5.0289 6.11131 4.85549 5.8163 4.56647C5.50899 4.27746 5.32461 3.88439 5.32461 3.45665C5.32461 3.0289 5.52129 2.63584 5.8163 2.34682Z"  ></path>
    <path d="M11.9624 8.33526L10.8807 6.94798C10.8193 6.86705 10.6963 6.85549 10.6226 6.92485C9.60233 7.74566 8.34853 8.27746 6.99639 8.27746C5.64424 8.27746 4.39044 7.74566 3.37019 6.92485C3.29644 6.86705 3.17351 6.87861 3.11205 6.94798L2.03034 8.33526C1.98117 8.40462 1.99346 8.49711 2.05492 8.55491C2.96455 9.24855 4.02168 9.72254 5.12797 9.96532L2.84162 13.7572C2.78016 13.8613 2.86621 14 2.98913 14H5.22631C5.30006 14 5.36152 13.9653 5.38611 13.896L6.98409 10.5434L8.58208 13.896C8.60666 13.9538 8.66813 14 8.74188 14H10.9791C11.1143 14 11.188 13.8728 11.1266 13.7572L8.84022 9.96532C9.94651 9.72254 11.0036 9.26011 11.9133 8.55491C12.0116 8.49711 12.0239 8.40462 11.9624 8.33526Z"  ></path>
  </symbol>
  <symbol   xmlns="http://www.w3.org/2000/svg" viewBox="0 0 14 14" id="paint">
    <path d="M11.0174 1.29375C10.6268 0.903223 9.99368 0.903224 9.60316 1.29375L8.75869 2.13821L11.8618 5.24135L12.7063 4.39689C13.0968 4.00636 13.0968 3.3732 12.7063 2.98267L11.0174 1.29375Z"  ></path>
    <path d="M11.086 6.01713L7.98291 2.91399L2.55242 8.34448L5.65556 11.4476L11.086 6.01713Z"  ></path>
    <path d="M4.87978 12.2234L1.77664 9.12028L1.00085 9.89606V11.9992C1.00085 12.5515 1.44857 12.9992 2.00086 12.9992H4.10399L4.87978 12.2234Z"  ></path>
  </symbol>
  <symbol   xmlns="http://www.w3.org/2000/svg" viewBox="0 0 14 14" id="phone">
    <path d="M13 2.97054C13 8.50966 8.50966 13 2.97054 13C2.82221 13 2.67463 12.9968 2.52787 12.9904C2.21732 12.945 1.94803 12.7416 1.82194 12.4474L1.06873 10.6899C0.797561 10.0572 1.37039 9.35293 2.05878 9.35293C3.1227 9.35293 4.13343 9.12514 5.04485 8.71568C5.34593 8.58041 5.71192 8.79247 5.78368 9.11465C5.91324 9.69635 6.23194 10.2102 6.93504 9.76433C8.07409 9.04201 9.04202 8.07407 9.76435 6.93501C10.2102 6.23191 9.69637 5.91321 9.11467 5.78365C8.79249 5.71189 8.58043 5.34591 8.71569 5.04482C9.12514 4.13341 9.35293 3.12269 9.35293 2.05878C9.35293 1.37039 10.0572 0.797561 10.6899 1.06873L12.4474 1.82194C12.7416 1.94803 12.945 2.21732 12.9904 2.52787C12.9968 2.67463 13 2.82221 13 2.97054Z"  ></path>
  </symbol>
  <symbol   xmlns="http://www.w3.org/2000/svg" viewBox="0 0 14 14" id="pocket">
    <path d="M9.01049 2.06117C8.49209 1.87072 7.91893 2.13712 7.73159 2.65666L4.84817 10.6529C4.66082 11.1725 4.93023 11.7484 5.44864 11.9389C5.96705 12.1293 6.54021 11.8629 6.72755 11.3434L9.61097 3.3471C9.79831 2.82756 9.5289 2.25162 9.01049 2.06117Z"  ></path>
    <path d="M13.7574 6.39986L11.4142 4.16273C11.0907 3.85385 10.5661 3.85385 10.2427 4.16273C9.9191 4.47161 9.9191 4.97241 10.2427 5.2813L12.0001 6.95915L10.2427 8.63699C9.9191 8.94587 9.9191 9.44667 10.2427 9.75556C10.5661 10.0644 11.0907 10.0644 11.4142 9.75556L13.7574 7.51843C14.0809 7.20955 14.0809 6.70874 13.7574 6.39986Z"  ></path>
    <path d="M0.242551 6.39986C-0.0808505 6.70874 -0.0808505 7.20955 0.242551 7.51843L2.58585 9.75556C2.90925 10.0644 3.4339 10.0644 3.7573 9.75556C4.0809 9.44668 4.0809 8.94589 3.7573 8.637L1.99992 6.95915L3.7573 5.2813C4.0809 4.97242 4.0809 4.47162 3.7573 4.16273C3.4339 3.85385 2.90925 3.85385 2.58585 4.16273L0.242551 6.39986Z"  ></path>
  </symbol>
  <symbol   xmlns="http://www.w3.org/2000/svg" viewBox="0 0 14 14" id="sandwich">
    <path d="M1 1C0.447754 1 0 1.44772 0 2C0 2.55228 0.447754 3 1 3H13C13.5522 3 14 2.55228 14 2C14 1.44772 13.5522 1 13 1H1Z"  ></path>
    <path d="M0 7C0 6.44772 0.447754 6 1 6H13C13.5522 6 14 6.44772 14 7C14 7.55228 13.5522 8 13 8H1C0.447754 8 0 7.55228 0 7Z"  ></path>
    <path d="M1 11C0.447754 11 0 11.4477 0 12C0 12.5523 0.447754 13 1 13H13C13.5522 13 14 12.5523 14 12C14 11.4477 13.5522 11 13 11H1Z"  ></path>
  </symbol>
  <symbol   xmlns="http://www.w3.org/2000/svg" viewBox="0 0 14 14" id="sub">
    <path d="M6 3C5.44769 3 5 3.44772 5 4V5H4C3.44769 5 3 5.44772 3 6C3 6.55228 3.44769 7 4 7H5V8C5 8.55228 5.44769 9 6 9C6.55231 9 7 8.55228 7 8V7H8C8.55231 7 9 6.55228 9 6C9 5.44772 8.55231 5 8 5H7V4C7 3.44772 6.55231 3 6 3Z"  ></path>
    <path fill-rule="evenodd" clip-rule="evenodd" d="M6 12C7.29584 12 8.49573 11.5892 9.47656 10.8907L12.2929 13.7071C12.6834 14.0976 13.3166 14.0976 13.7071 13.7071C14.0977 13.3166 14.0977 12.6834 13.7071 12.2929L10.8907 9.47654C11.5892 8.49572 12 7.29583 12 6C12 2.68629 9.31372 0 6 0C2.68628 0 0 2.68629 0 6C0 9.31371 2.68628 12 6 12ZM6 10C8.20917 10 10 8.20914 10 6C10 3.79086 8.20917 2 6 2C3.79083 2 2 3.79086 2 6C2 8.20914 3.79083 10 6 10Z"  ></path>
  </symbol>
  <symbol   xmlns="http://www.w3.org/2000/svg" viewBox="0 0 14 14" id="tarif">
    <path d="M14 2C14 3.10457 12.2091 4 10 4C7.79086 4 6 3.10457 6 2C6 0.89543 7.79086 0 10 0C12.2091 0 14 0.89543 14 2Z"  ></path>
    <path d="M13.4649 4C12.7733 4.5978 11.4806 5 10 5C8.51943 5 7.22675 4.5978 6.53513 4C6.41169 4.10669 6.30741 4.21961 6.22461 4.33759C5.58854 4.12437 4.82332 4 4 4C1.79086 4 0 4.89543 0 6C0 7.10457 1.79086 8 4 8C5.7448 8 7.22868 7.44143 7.77539 6.66241C8.41146 6.87563 9.17668 7 10 7C12.2091 7 14 6.10457 14 5C14 4.63571 13.8052 4.29417 13.4649 4Z"  ></path>
    <path d="M7.46487 8C6.77325 8.5978 5.48056 9 4 9C2.51944 9 1.22675 8.5978 0.535129 8C0.194789 8.29417 0 8.63571 0 9C0 10.1046 1.79086 11 4 11C6.20914 11 8 10.1046 8 9C8 8.63571 7.80521 8.29417 7.46487 8Z"  ></path>
    <path d="M7.46487 11C6.77325 11.5978 5.48056 12 4 12C2.51944 12 1.22675 11.5978 0.535129 11C0.194789 11.2942 0 11.6357 0 12C0 13.1046 1.79086 14 4 14C6.20914 14 8 13.1046 8 12C8 11.6357 7.80521 11.2942 7.46487 11Z"  ></path>
  </symbol>
  <symbol   xmlns="http://www.w3.org/2000/svg" viewBox="0 0 14 14" id="top">
    <path d="M4 12L2.5 14H7.5C8.05228 14 8.5 13.5523 8.5 13V5H11.5L7.5 0L3.5 5H6.5V12H4Z"  ></path>
  </symbol>
  <symbol   xmlns="http://www.w3.org/2000/svg" viewBox="0 0 14 14" id="vk">
    <path d="M7.62524 11C2.84197 11 0.113679 7.997 0 3H2.396C2.4747 6.66767 4.2411 8.22122 5.64023 8.54154V3H7.89632V6.16316C9.27795 6.02703 10.7295 4.58559 11.2192 3H13.4753C13.2908 3.82233 12.923 4.60094 12.3948 5.28714C11.8667 5.97334 11.1896 6.55236 10.406 6.98799C11.2807 7.38603 12.0534 7.94943 12.6729 8.641C13.2924 9.33257 13.7447 10.1366 14 11H11.5166C11.2874 10.2501 10.8216 9.57875 10.1776 9.07019C9.53361 8.56163 8.74003 8.23844 7.89632 8.14114V11H7.62524Z"  ></path>
  </symbol>
  <symbol   xmlns="http://www.w3.org/2000/svg" viewBox="0 0 14 14" id="location">
    <path d="M4.71545 0.381287C2.93213 0.996704 1.47522 2.31256 0.673584 4H3.29004C3.54114 2.7771 3.92407 1.80872 4.31287 1.06995C4.44849 0.812256 4.58447 0.583099 4.71545 0.381287Z"  ></path>
    <path d="M0.289917 5C0.101318 5.6337 0 6.30502 0 7C0 7.69498 0.101318 8.3663 0.289917 9H3.12402C3.04529 8.38736 3 7.72144 3 7C3 6.27853 3.04529 5.61264 3.12402 5H0.289917Z"  ></path>
    <path d="M0.673584 10C1.47522 11.6874 2.93213 13.0033 4.71545 13.6187C4.58447 13.4169 4.44849 13.1877 4.31287 12.9301C3.92407 12.1913 3.54114 11.2229 3.29004 10H0.673584Z"  ></path>
    <path d="M6.29944 13.9652C6.52979 13.9881 6.76367 14 7 14C7.23486 14 7.46704 13.9884 7.69604 13.9658C7.70935 13.9537 7.73169 13.9328 7.76062 13.904C7.81848 13.8464 7.9054 13.7549 8.01196 13.6275C8.22485 13.3728 8.51575 12.9748 8.80908 12.4174C9.12793 11.8116 9.4519 11.0133 9.68066 10H4.31555C4.54431 11.0133 4.86829 11.8116 5.18713 12.4174C5.48047 12.9748 5.77136 13.3728 5.98425 13.6275C6.09082 13.7549 6.17773 13.8464 6.2356 13.904C6.26453 13.9328 6.28613 13.9531 6.29944 13.9652Z"  ></path>
    <path d="M9.27966 13.6204C11.0652 13.0057 12.524 11.689 13.3264 10H10.7062C10.4551 11.2229 10.0721 12.1913 9.68335 12.9301C9.54736 13.1884 9.41089 13.4182 9.27966 13.6204Z"  ></path>
    <path d="M13.7101 9C13.8987 8.3663 14 7.69498 14 7C14 6.30502 13.8987 5.6337 13.7101 5H10.8722C10.9509 5.61264 10.9962 6.27853 10.9962 7C10.9962 7.72144 10.9509 8.38736 10.8722 9H13.7101Z"  ></path>
    <path d="M13.3264 4C12.524 2.311 11.0652 0.994324 9.27966 0.379608C9.41089 0.581818 9.54736 0.811554 9.68335 1.06995C10.0721 1.80872 10.4551 2.7771 10.7062 4H13.3264Z"  ></path>
    <path d="M7.69604 0.0341797C7.70935 0.0462341 7.73169 0.0671692 7.76062 0.0959778C7.78333 0.11853 7.81042 0.146271 7.84143 0.179321C7.86865 0.208435 7.89893 0.241669 7.93188 0.279114C7.95715 0.30777 7.98389 0.338867 8.01196 0.372467C8.22485 0.627197 8.51575 1.02518 8.80908 1.58258C9.12793 2.18842 9.4519 2.98669 9.68066 4H4.31555C4.54431 2.98669 4.86829 2.18842 5.18713 1.58258C5.48047 1.02518 5.77136 0.627197 5.98425 0.372467C6.03064 0.317017 6.07336 0.268372 6.11157 0.226349C6.16101 0.171844 6.20288 0.12851 6.2356 0.0959778C6.26453 0.0671692 6.28613 0.0468445 6.29944 0.03479C6.52979 0.0119019 6.76367 0 7 0C7.23486 0 7.46704 0.0115662 7.69604 0.0341797Z"  ></path>
    <path d="M9.8623 9C9.94678 8.39587 9.99622 7.73032 9.99622 7C9.99622 6.26968 9.94678 5.60413 9.8623 5H4.13391C4.04944 5.60413 4 6.26968 4 7C4 7.73032 4.04944 8.39587 4.13391 9H9.8623Z"  ></path>
  </symbol>
  <symbol   xmlns="http://www.w3.org/2000/svg" viewBox="0 0 14 14" id="login">
    <path d="M10 3C9.44771 3 9 2.55228 9 2C9 1.44772 9.44772 1 10 1H12.0001C13.1047 1 14.0001 1.89543 14.0001 3V11C14.0001 12.1046 13.1047 13 12.0001 13H10C9.44771 13 9 12.5523 9 12C9 11.4477 9.44771 11 10 11H11C11.5523 11 12 10.5523 12 10V4C12 3.44772 11.5523 3 11 3H10Z"  ></path>
    <path d="M4.00002 4.13912C4.00003 3.2906 4.9903 2.8277 5.64134 3.37188L9.07928 6.2455C9.55844 6.64601 9.55735 7.38285 9.077 7.78194L5.63911 10.6382C4.98751 11.1796 4.00006 10.7162 4.00006 9.86907V9H1C0.447715 9 0 8.55228 0 8V6C0 5.44771 0.447715 5 1 5H4L4.00002 4.13912Z"  ></path>
  </symbol>
  <symbol   xmlns="http://www.w3.org/2000/svg" viewBox="0 0 14 14" id="logout">
    <path d="M8 1C8 0.447715 7.55228 0 7 0C6.44772 0 6 0.447715 6 1V5C6 5.55228 6.44772 6 7 6C7.55228 6 8 5.55228 8 5V1Z"  ></path>
    <path d="M7 12C9.76142 12 12 9.76145 12 7.00003C12 5.55237 11.3848 4.24841 10.4015 3.33534C10.0482 3.00723 9.95644 2.45229 10.2651 2.08187L10.3865 1.93621C10.7176 1.53889 11.3029 1.45428 11.687 1.80069C13.1073 3.08184 14 4.93668 14 7.00003C14 10.866 10.866 14 7 14C3.13401 14 0 10.866 0 7.00003C0 4.93668 0.892736 3.08184 2.31302 1.80069C2.69706 1.45428 3.28239 1.53889 3.61349 1.93621L3.73487 2.08187C4.04356 2.45229 3.95183 3.00723 3.59849 3.33534C2.61523 4.24841 2 5.55237 2 7.00003C2 9.76145 4.23858 12 7 12Z"  ></path>
  </symbol>
  <symbol   xmlns="http://www.w3.org/2000/svg" viewBox="0 0 14 14" id="mortgage">
    <path fill-rule="evenodd" clip-rule="evenodd" d="M14 5C14 7.76143 11.7615 10 9 10H7V12H5V14H0L0.00012207 11.3639L4.40039 6.96365C4.1427 6.36081 4 5.69707 4 5C4 2.23857 6.23853 0 9 0C11.7615 0 14 2.23857 14 5ZM11 4C11 4.5 10.5 5 10 5C9.5 5 9 4.5 9 4C9 3.5 9.5 3 10 3C10.5 3 11 3.5 11 4Z"  ></path>
  </symbol>
  <symbol   xmlns="http://www.w3.org/2000/svg" viewBox="0 0 14 14" id="new">
    <path fill-rule="evenodd" clip-rule="evenodd" d="M1 2C1 0.895432 1.89539 0 3 0H11C12.1046 0 13 0.895432 13 2V12C13.5522 12 14 12.4477 14 13C14 13.5523 13.5522 14 13 14H1C0.447754 14 0 13.5523 0 13C0 12.4477 0.447754 12 1 12V2ZM6 2H4V4H6V2ZM8 11H6V12H8V11ZM4 8H6V10H4V8ZM6 5H4V7H6V5ZM8 2H10V4H8V2ZM10 8H8V10H10V8ZM8 5H10V7H8V5Z"  ></path>
  </symbol>
  <symbol   xmlns="http://www.w3.org/2000/svg" viewBox="0 0 14 14" id="owner">
    <path fill-rule="evenodd" clip-rule="evenodd" d="M13.6644 2.30308C14.0772 2.67 14.1144 3.30207 13.7474 3.71485L7.32275 10.9426C6.0877 12.3321 3.89923 12.2753 2.73792 10.8236L0.219168 7.67518C-0.125842 7.24392 -0.0559202 6.61463 0.375342 6.26962C0.806604 5.92461 1.4359 5.99453 1.78091 6.42579L4.29966 9.57423C4.68676 10.0581 5.41625 10.077 5.82794 9.6139L12.2526 2.38612C12.6195 1.97334 13.2516 1.93616 13.6644 2.30308Z"  ></path>
  </symbol>
  <symbol   xmlns="http://www.w3.org/2000/svg" viewBox="0 0 14 14" id="placeholder">
    <path fill-rule="evenodd" clip-rule="evenodd" d="M5.99553 13.4767C6.59818 13.9246 7.40182 13.9246 8.00447 13.4767C9.71258 12.2071 13 9.33092 13 6C13 1.5 9.5 0 7 0C4.5 0 1 1.5 1 6C1 9.33092 4.28742 12.2071 5.99553 13.4767ZM7 8C8.10457 8 9 7.10457 9 6C9 4.89543 8.10457 4 7 4C5.89543 4 5 4.89543 5 6C5 7.10457 5.89543 8 7 8Z"  ></path>
  </symbol>
  <symbol   xmlns="http://www.w3.org/2000/svg" viewBox="0 0 14 14" id="plot">
    <path d="M4 1L0 2V13L4 12V1Z"  ></path>
    <path d="M5 12V1L9 2V13L5 12Z"  ></path>
    <path d="M10 13L14 12V1L10 2V13Z"  ></path>
  </symbol>
  <symbol   xmlns="http://www.w3.org/2000/svg" viewBox="0 0 14 14" id="plus">
    <path d="M6 13C6 13.5523 6.44775 14 7 14C7.55225 14 8 13.5523 8 13V8H13C13.5522 8 14 7.55228 14 7C14 6.44772 13.5522 6 13 6H8V1C8 0.447716 7.55225 0 7 0C6.44775 0 6 0.447716 6 1V6H1C0.447754 6 0 6.44772 0 7C0 7.55228 0.447754 8 1 8H6V13Z"  ></path>
  </symbol>
  <symbol   xmlns="http://www.w3.org/2000/svg" viewBox="0 0 14 14" id="registration">
    <path d="M7 7C8.5 7 10 5.20914 10 3C10 0.790863 8.5 0 7 0C5.5 0 4 0.790863 4 3C4 5.20914 5.5 7 7 7Z"  ></path>
    <path d="M5.5 8.25C5.875 8.375 6.25 8.5 7 8.5C7.75 8.5 8.125 8.375 8.5 8.25C8.875 8.125 9.25 8 10 8C12.5 8 14 11 14 12C14 13 13.5 14 12 14C10.5 14 10 13.5 7 13.5C4 13.5 3.5 14 2 14C0.5 14 0 13 0 12C0 11 1.5 8 4 8C4.75 8 5.125 8.125 5.5 8.25Z"  ></path>
  </symbol>
  <symbol   xmlns="http://www.w3.org/2000/svg" viewBox="0 0 14 14" id="search">
    <path fill-rule="evenodd" clip-rule="evenodd" d="M9.47653 10.8907C8.49572 11.5892 7.29583 12 6 12C2.68629 12 0 9.31371 0 6C0 2.68629 2.68629 0 6 0C9.31371 0 12 2.68629 12 6C12 7.29583 11.5892 8.49572 10.8907 9.47653L13.7071 12.2929C14.0976 12.6834 14.0976 13.3166 13.7071 13.7071C13.3166 14.0976 12.6834 14.0976 12.2929 13.7071L9.47653 10.8907ZM10 6C10 8.20914 8.20914 10 6 10C3.79086 10 2 8.20914 2 6C2 3.79086 3.79086 2 6 2C8.20914 2 10 3.79086 10 6Z"  ></path>
  </symbol>
  <symbol   xmlns="http://www.w3.org/2000/svg" viewBox="0 0 14 14" id="service">
    <path fill-rule="evenodd" clip-rule="evenodd" d="M7 14C10.866 14 14 10.866 14 7C14 3.13401 10.866 0 7 0C3.13401 0 0 3.13401 0 7C0 10.866 3.13401 14 7 14ZM7 11C6.44775 11 6 10.5523 6 10V8H4C3.44775 8 3 7.55228 3 7C3 6.44772 3.44775 6 4 6H6V4C6 3.44772 6.44775 3 7 3C7.55225 3 8 3.44772 8 4V6H10C10.5522 6 11 6.44772 11 7C11 7.55228 10.5522 8 10 8H8V10C8 10.5523 7.55225 11 7 11Z"  ></path>
  </symbol>
  <symbol   xmlns="http://www.w3.org/2000/svg" viewBox="0 0 14 14" id="setting">
    <path fill-rule="evenodd" clip-rule="evenodd" d="M2.55261 2.3491C2.18651 2.22701 1.77782 2.32265 1.53636 2.62371C1.09615 3.17259 0.736942 3.78922 0.476859 4.45548C0.336554 4.8149 0.458153 5.21659 0.746875 5.47253L1.62581 6.2517C2.07467 6.6496 2.07467 7.3504 1.62581 7.7483L0.746875 8.52747C0.458152 8.78341 0.336554 9.1851 0.476859 9.54452C0.736942 10.2108 1.09615 10.8274 1.53636 11.3763C1.77782 11.6774 2.18651 11.773 2.55261 11.6509L3.66483 11.28C4.23385 11.0902 4.84075 11.4406 4.96092 12.0283L5.19603 13.1781C5.27342 13.5565 5.56105 13.8629 5.94298 13.9207C6.28772 13.9729 6.64071 14 7.00003 14C7.35927 14 7.71219 13.9729 8.05686 13.9207C8.4388 13.8629 8.72644 13.5566 8.80383 13.1781L9.03895 12.0283C9.15911 11.4406 9.76602 11.0902 10.335 11.28L11.4474 11.6509C11.8135 11.773 12.2222 11.6774 12.4636 11.3764C12.9038 10.8275 13.2631 10.2109 13.5231 9.54466C13.6635 9.18524 13.5419 8.78354 13.2531 8.52759L12.3741 7.7483C11.9252 7.3504 11.9252 6.6496 12.3741 6.2517L13.2531 5.47241C13.5419 5.21646 13.6635 4.81477 13.5231 4.45534C13.2631 3.78911 12.9038 3.17251 12.4636 2.62365C12.2222 2.3226 11.8135 2.22696 11.4474 2.34905L10.335 2.72002C9.76602 2.90979 9.15911 2.55939 9.03895 1.97172L8.80383 0.821898C8.72644 0.443434 8.4388 0.137095 8.05686 0.0792563C7.71219 0.0270612 7.35927 0 7.00003 0C6.64071 0 6.28772 0.0270726 5.94298 0.0792894C5.56105 0.137139 5.27342 0.443472 5.19603 0.821926L4.96092 1.97172C4.84075 2.55939 4.23385 2.90979 3.66483 2.72002L2.55261 2.3491ZM6.99994 9C8.10451 9 8.99994 8.10457 8.99994 7C8.99994 5.89543 8.10451 5 6.99994 5C5.89537 5 4.99994 5.89543 4.99994 7C4.99994 8.10457 5.89537 9 6.99994 9Z"  ></path>
  </symbol>
  <symbol   xmlns="http://www.w3.org/2000/svg" viewBox="0 0 14 14" id="ticket">
    <path fill-rule="evenodd" clip-rule="evenodd" d="M0.00119499 6.25424C0.000645868 6.7727 0.200482 7.27172 0.562169 7.64317C2.55727 9.69216 4.61421 11.685 6.63606 13.7068C7.02656 14.0973 7.65974 14.0973 8.05024 13.7068L13.7071 8.04997C14.0976 7.65944 14.0976 7.02629 13.7071 6.63576C11.6897 4.61831 9.6765 2.59647 7.65546 0.582609C7.281 0.209474 6.7738 0.000244141 6.24517 0.000244141C4.49694 0.000244141 2.74871 0.000244141 1.00049 0.000244141C0.448242 0.000244141 0.000488281 0.447937 0.000488281 1.00024C0.000488281 2.75157 0.0030499 4.50291 0.00119499 6.25424ZM3.53613 3.53574C3.92664 3.14523 3.92664 2.51205 3.53613 2.12155C3.14563 1.73102 2.51245 1.73102 2.12195 2.12155C1.73132 2.51205 1.73132 3.14523 2.12195 3.53574C2.51245 3.92627 3.14563 3.92627 3.53613 3.53574Z"  ></path>
  </symbol>
  <symbol xmlns="http://www.w3.org/2000/svg" viewBox="0 0 14 14" id="hotel">
    <path fill-rule="evenodd" clip-rule="evenodd" d="M0 0.5C0 0.223858 0.223858 0 0.5 0H13.5C13.7761 0 14 0.223858 14 0.5C14 0.776142 13.7761 1 13.5 1C13.2239 1 13 1.22386 13 1.5V12.5C13 12.7761 13.2239 13 13.5 13C13.7761 13 14 13.2239 14 13.5C14 13.7761 13.7761 14 13.5 14H9C8.44772 14 8 13.5523 8 13C8 12.4477 7.55228 12 7 12C6.44772 12 6 12.4477 6 13C6 13.5523 5.55228 14 5 14H0.5C0.223858 14 0 13.7761 0 13.5C0 13.2239 0.223858 13 0.5 13C0.776142 13 1 12.7761 1 12.5V1.5C1 1.22386 0.776142 1 0.5 1C0.223858 1 0 0.776142 0 0.5ZM3 3C3 2.44772 3.44772 2 4 2C4.55228 2 5 2.44772 5 3C5 3.55228 4.55228 4 4 4C3.44772 4 3 3.55228 3 3ZM4 10L7 8L10 10H4ZM4 5C3.44772 5 3 5.44772 3 6C3 6.55228 3.44772 7 4 7C4.55228 7 5 6.55228 5 6C5 5.44772 4.55228 5 4 5ZM9 3C9 2.44772 9.44772 2 10 2C10.5523 2 11 2.44772 11 3C11 3.55228 10.5523 4 10 4C9.44772 4 9 3.55228 9 3ZM10 5C9.44772 5 9 5.44772 9 6C9 6.55228 9.44772 7 10 7C10.5523 7 11 6.55228 11 6C11 5.44772 10.5523 5 10 5ZM6 3C6 2.44772 6.44772 2 7 2C7.55228 2 8 2.44772 8 3C8 3.55228 7.55228 4 7 4C6.44772 4 6 3.55228 6 3ZM7 5C6.44772 5 6 5.44772 6 6C6 6.55228 6.44772 7 7 7C7.55228 7 8 6.55228 8 6C8 5.44772 7.55228 5 7 5Z" ></path>
  </symbol>
  <symbol xmlns="http://www.w3.org/2000/svg" viewBox="0 0 14 14" id="pause">
    <path d="M3 3C3 2.44772 3.44772 2 4 2V2C4.55228 2 5 2.44772 5 3V11C5 11.5523 4.55228 12 4 12V12C3.44772 12 3 11.5523 3 11V3Z"></path>
    <path d="M9 3C9 2.44772 9.44772 2 10 2V2C10.5523 2 11 2.44772 11 3V11C11 11.5523 10.5523 12 10 12V12C9.44772 12 9 11.5523 9 11V3Z"></path>
  </symbol>
</svg>