<svg width="0" height="0" class="hidden">
  <symbol xmlns="http://www.w3.org/2000/svg" viewBox="0 0 14 15" id="agent">
    <g id="agent">
      <path d="M10 3.35718C10 5.56631 8.5 7.35718 7 7.35718C5.5 7.35718 4 5.56631 4 3.35718C4 1.14804 5.5 0.357178 7 0.357178C8.5 0.357178 10 1.14804 10 3.35718Z"  ></path>
      <path d="M9.70764 9.47586C9.49579 11.0838 9.13031 13.8572 7 13.8572C5.09808 13.8572 4.80383 11.6466 4.58844 10.0283C4.46411 9.09404 4.36603 8.35718 4 8.35718C1.5 8.35718 0 11.3572 0 12.3572C0 13.3572 0.5 14.3572 2 14.3572C2.62134 14.3572 3.07104 14.2714 3.59796 14.1709C4.34314 14.0288 5.24261 13.8572 7 13.8572C8.75739 13.8572 9.65686 14.0288 10.402 14.1709C10.929 14.2714 11.3787 14.3572 12 14.3572C13.5 14.3572 14 13.3572 14 12.3572C14 11.3572 12.5 8.35718 10 8.35718C9.85504 8.35718 9.79413 8.8194 9.70764 9.47586Z"  ></path>
      <path d="M6.65302 8.50046C6.04449 8.50046 5.57703 9.03945 5.66309 9.64188C5.70367 9.92616 5.85223 10.7162 6.03644 11.6638C6.24445 12.7338 7.75562 12.7338 7.96356 11.6638C8.14777 10.7162 8.29633 9.92617 8.33698 9.64188C8.42303 9.03945 7.95557 8.50046 7.34698 8.50046H6.65302Z"  ></path>
    </g>
  </symbol>
  <symbol xmlns="http://www.w3.org/2000/svg" viewBox="0 0 14 14" id="appartments">
    <path id="appartments" fill-rule="evenodd" clip-rule="evenodd" d="M1 2C1 0.895432 1.89539 0 3 0H11C12.1046 0 13 0.895432 13 2V12C13.5522 12 14 12.4477 14 13C14 13.5523 13.5522 14 13 14H1C0.447754 14 0 13.5523 0 13C0 12.4477 0.447754 12 1 12V2ZM6 2H4V4H6V2ZM8 11H6V12H8V11ZM4 8H6V10H4V8ZM6 5H4V7H6V5ZM8 2H10V4H8V2ZM10 8H8V10H10V8ZM8 5H10V7H8V5Z"  ></path>
  </symbol>
  <symbol xmlns="http://www.w3.org/2000/svg" viewBox="0 0 10 6" id="caret">
    <path id="caret" d="M8.58579 0H1.41421C0.523309 0 0.0771428 1.07714 0.707108 1.70711L4.29289 5.29289C4.68342 5.68342 5.31658 5.68342 5.70711 5.29289L9.29289 1.70711C9.92286 1.07714 9.47669 0 8.58579 0Z"  ></path>
  </symbol>
  <symbol xmlns="http://www.w3.org/2000/svg" viewBox="0 0 14 12" id="house">
    <g id="house">
      <path d="M7.70708 2.29289C7.31658 1.90237 6.6834 1.90237 6.2929 2.29289L1.70708 6.87868C1.31658 7.2692 0.683403 7.2692 0.2929 6.87868C-0.0976334 6.48816 -0.0976334 5.85499 0.2929 5.46446L4.87868 0.878677C6.05025 -0.292892 7.94973 -0.292892 9.1213 0.878677L10.024 1.78135C10.1237 1.33423 10.5228 1 11 1C11.5523 1 12 1.44772 12 2V3.75737L13.7071 5.46446C14.0976 5.85499 14.0976 6.48816 13.7071 6.87868C13.3166 7.2692 12.6834 7.2692 12.2929 6.87868L7.70708 2.29289Z"  ></path>
      <path d="M6.33102 4.26306C6.71133 3.92078 7.28866 3.92078 7.66897 4.26306L11.669 8.31555C11.8797 8.50519 12 8.77535 12 9.05884V11C12 11.5523 11.5523 12 11 12H8.99999C8.44772 12 7.99999 11.5523 7.99999 11C7.99999 10.4477 7.55227 10 6.99999 10C6.44772 10 5.99999 10.4477 5.99999 11C5.99999 11.5523 5.55227 12 4.99999 12H2.99999C2.44772 12 1.99999 11.5523 1.99999 11V9.05884C1.99999 8.77535 2.12032 8.50519 2.33102 8.31555L6.33102 4.26306Z"  ></path>
    </g>
  </symbol>
  <symbol xmlns="http://www.w3.org/2000/svg" viewBox="0 0 12 14" id="icon-map">
    <path id="icon-map" fill-rule="evenodd" clip-rule="evenodd" d="M4.99553 13.4767C5.59818 13.9246 6.40182 13.9246 7.00447 13.4767C8.71258 12.2071 12 9.33092 12 6C12 1.5 8.5 0 6 0C3.5 0 0 1.5 0 6C0 9.33092 3.28742 12.2071 4.99553 13.4767ZM6 8C7.10457 8 8 7.10457 8 6C8 4.89543 7.10457 4 6 4C4.89543 4 4 4.89543 4 6C4 7.10457 4.89543 8 6 8Z"  ></path>
  </symbol>
  <symbol xmlns="http://www.w3.org/2000/svg" viewBox="0 0 14 14" id="plus">
    <path id="plus" d="M6 13C6 13.5523 6.44775 14 7 14C7.55225 14 8 13.5523 8 13V8H13C13.5522 8 14 7.55228 14 7C14 6.44772 13.5522 6 13 6H8V1C8 0.447716 7.55225 0 7 0C6.44775 0 6 0.447716 6 1V6H1C0.447754 6 0 6.44772 0 7C0 7.55228 0.447754 8 1 8H6V13Z" fill="white"></path>
  </symbol>
  <symbol xmlns="http://www.w3.org/2000/svg" viewBox="0 0 14 14" id="search">
    <path id="search" fill-rule="evenodd" clip-rule="evenodd" d="M9.47653 10.8907C8.49572 11.5892 7.29583 12 6 12C2.68629 12 0 9.31371 0 6C0 2.68629 2.68629 0 6 0C9.31371 0 12 2.68629 12 6C12 7.29583 11.5892 8.49572 10.8907 9.47653L13.7071 12.2929C14.0976 12.6834 14.0976 13.3166 13.7071 13.7071C13.3166 14.0976 12.6834 14.0976 12.2929 13.7071L9.47653 10.8907ZM10 6C10 8.20914 8.20914 10 6 10C3.79086 10 2 8.20914 2 6C2 3.79086 3.79086 2 6 2C8.20914 2 10 3.79086 10 6Z" fill="white"></path>
  </symbol>
  <symbol xmlns="http://www.w3.org/2000/svg" viewBox="0 0 14 14" id="user">
    <g id="user">
      <path d="M7 7C8.5 7 10 5.20914 10 3C10 0.790863 8.5 0 7 0C5.5 0 4 0.790863 4 3C4 5.20914 5.5 7 7 7Z"  ></path>
      <path d="M5.5 8.25C5.875 8.375 6.25 8.5 7 8.5C7.75 8.5 8.125 8.375 8.5 8.25C8.875 8.125 9.25 8 10 8C12.5 8 14 11 14 12C14 13 13.5 14 12 14C10.5 14 10 13.5 7 13.5C4 13.5 3.5 14 2 14C0.5 14 0 13 0 12C0 11 1.5 8 4 8C4.75 8 5.125 8.125 5.5 8.25Z"  ></path>
    </g>
  </symbol>
  <symbol xmlns="http://www.w3.org/2000/svg" viewBox="0 0 3 12" id="info">
    <g id="info">
      <path d="M1.1665 0C0.614258 0 0.166504 0.447716 0.166504 1V7C0.166504 7.55228 0.614258 8 1.1665 8C1.71875 8 2.1665 7.55228 2.1665 7V1C2.1665 0.447716 1.71875 0 1.1665 0Z"></path>
      <path d="M1.1665 10C0.614258 10 0.166504 10.4477 0.166504 11C0.166504 11.5523 0.614258 12 1.1665 12C1.71875 12 2.1665 11.5523 2.1665 11C2.1665 10.4477 1.71875 10 1.1665 10Z"></path>
    </g>
  </symbol>
  <symbol xmlns="http://www.w3.org/2000/svg" viewBox="0 0 14 14" id="login">
    <path d="M10 3C9.44771 3 9 2.55228 9 2C9 1.44772 9.44772 1 10 1H12.0001C13.1047 1 14.0001 1.89543 14.0001 3V11C14.0001 12.1046 13.1047 13 12.0001 13H10C9.44771 13 9 12.5523 9 12C9 11.4477 9.44771 11 10 11H11C11.5523 11 12 10.5523 12 10V4C12 3.44772 11.5523 3 11 3H10Z" ></path>
    <path d="M4.00002 4.13912C4.00003 3.2906 4.9903 2.8277 5.64134 3.37188L9.07928 6.2455C9.55844 6.64601 9.55735 7.38285 9.077 7.78194L5.63911 10.6382C4.98751 11.1796 4.00006 10.7162 4.00006 9.86907V9H1C0.447715 9 0 8.55228 0 8V6C0 5.44771 0.447715 5 1 5H4L4.00002 4.13912Z" ></path>
  </symbol>
  <symbol xmlns="http://www.w3.org/2000/svg" viewBox="0 0 14 14" id="cash">
    <path fill-rule="evenodd" clip-rule="evenodd" d="M4 8V4H12V8H4ZM9 6C9 6.55231 8.55228 7 8 7C7.44771 7 7 6.55231 7 6C7 5.44775 7.44771 5 8 5C8.55228 5 9 5.44775 9 6Z"></path>
    <path fill-rule="evenodd" clip-rule="evenodd" d="M3 2C2.44771 2 2 2.44769 2 3V4H1C0.447708 4 0 4.44769 0 5V11C0 11.5523 0.447708 12 1 12H11C11.5523 12 12 11.5523 12 11V10H13C13.5523 10 14 9.55231 14 9V3C14 2.44769 13.5523 2 13 2H3ZM12.5 9C12.7761 9 13 8.77612 13 8.5V3.5C13 3.22388 12.7761 3 12.5 3H3.5C3.22386 3 3 3.22388 3 3.5V8.5C3 8.77612 3.22386 9 3.5 9H12.5ZM11 10V11H1V5H2V9C2 9.55231 2.44771 10 3 10H11Z"></path>
  </symbol>
  <symbol xmlns="http://www.w3.org/2000/svg" viewBox="0 0 14 14" id="burger">
    <path d="M1 1C0.447754 1 0 1.44772 0 2C0 2.55228 0.447754 3 1 3H13C13.5522 3 14 2.55228 14 2C14 1.44772 13.5522 1 13 1H1Z"></path>
    <path d="M0 7C0 6.44772 0.447754 6 1 6H13C13.5522 6 14 6.44772 14 7C14 7.55228 13.5522 8 13 8H1C0.447754 8 0 7.55228 0 7Z"></path>
    <path d="M1 11C0.447754 11 0 11.4477 0 12C0 12.5523 0.447754 13 1 13H13C13.5522 13 14 12.5523 14 12C14 11.4477 13.5522 11 13 11H1Z"></path>
  </symbol>
  <symbol  xmlns="http://www.w3.org/2000/svg" viewBox="0 0 14 14" id="appartment-line">
    <path d="M4 3H6V5H4V3Z"></path>
    <path d="M6 6H4V8H6V6Z"></path>
    <path d="M4 9H6V11H4V9Z"></path>
    <path d="M10 3H8V5H10V3Z"></path>
    <path d="M8 6H10V8H8V6Z"></path>
    <path d="M10 9H8V11H10V9Z"></path>
    <path fill-rule="evenodd" clip-rule="evenodd" d="M1 12V2C1 0.895432 1.89542 0 3 0H11C12.1046 0 13 0.895432 13 2V12C13.5523 12 14 12.4477 14 13C14 13.5523 13.5523 14 13 14H1C0.447723 14 0 13.5523 0 13C0 12.4477 0.447723 12 1 12ZM3 2H11V12H3V2Z"></path>
  </symbol>
  <symbol xmlns="http://www.w3.org/2000/svg" viewBox="0 0 14 14" id="tag">
    <path d="M9.01049 2.06117C8.49209 1.87072 7.91893 2.13712 7.73159 2.65666L4.84817 10.6529C4.66082 11.1725 4.93023 11.7484 5.44864 11.9389C5.96705 12.1293 6.54021 11.8629 6.72755 11.3434L9.61097 3.3471C9.79831 2.82756 9.5289 2.25162 9.01049 2.06117Z" ></path>
    <path d="M13.7574 6.39986L11.4142 4.16273C11.0907 3.85385 10.5661 3.85385 10.2427 4.16273C9.9191 4.47161 9.9191 4.97241 10.2427 5.2813L12.0001 6.95915L10.2427 8.63699C9.9191 8.94587 9.9191 9.44667 10.2427 9.75556C10.5661 10.0644 11.0907 10.0644 11.4142 9.75556L13.7574 7.51843C14.0809 7.20955 14.0809 6.70874 13.7574 6.39986Z" ></path>
    <path d="M0.242551 6.39986C-0.0808505 6.70874 -0.0808505 7.20955 0.242551 7.51843L2.58585 9.75556C2.90925 10.0644 3.4339 10.0644 3.7573 9.75556C4.0809 9.44668 4.0809 8.94589 3.7573 8.637L1.99992 6.95915L3.7573 5.2813C4.0809 4.97242 4.0809 4.47162 3.7573 4.16273C3.4339 3.85385 2.90925 3.85385 2.58585 4.16273L0.242551 6.39986Z" ></path>
  </symbol>
  <symbol xmlns="http://www.w3.org/2000/svg" viewBox="0 0 14 14" id="coins">
    <path d="M14 2C14 3.10457 12.2091 4 10 4C7.79086 4 6 3.10457 6 2C6 0.89543 7.79086 0 10 0C12.2091 0 14 0.89543 14 2Z" ></path>
    <path d="M13.4649 4C12.7733 4.5978 11.4806 5 10 5C8.51943 5 7.22675 4.5978 6.53513 4C6.41169 4.10669 6.30741 4.21961 6.22461 4.33759C5.58854 4.12437 4.82332 4 4 4C1.79086 4 0 4.89543 0 6C0 7.10457 1.79086 8 4 8C5.7448 8 7.22868 7.44143 7.77539 6.66241C8.41146 6.87563 9.17668 7 10 7C12.2091 7 14 6.10457 14 5C14 4.63571 13.8052 4.29417 13.4649 4Z" ></path>
    <path d="M7.46487 8C6.77325 8.5978 5.48056 9 4 9C2.51944 9 1.22675 8.5978 0.535129 8C0.194789 8.29417 0 8.63571 0 9C0 10.1046 1.79086 11 4 11C6.20914 11 8 10.1046 8 9C8 8.63571 7.80521 8.29417 7.46487 8Z" ></path>
    <path d="M7.46487 11C6.77325 11.5978 5.48056 12 4 12C2.51944 12 1.22675 11.5978 0.535129 11C0.194789 11.2942 0 11.6357 0 12C0 13.1046 1.79086 14 4 14C6.20914 14 8 13.1046 8 12C8 11.6357 7.80521 11.2942 7.46487 11Z" ></path>
  </symbol>
  <symbol  xmlns="http://www.w3.org/2000/svg" viewBox="0 0 14 14" id="megaphone">
    <path fill-rule="evenodd" clip-rule="evenodd" d="M4 4.9985C8.37737 4.9985 10.7995 2.65045 12 0.891012C12.0481 0.820458 12.0943 0.750854 12.1386 0.682382C12.2411 0.523831 12.3333 0.371367 12.4158 0.227348C12.4386 0.187576 12.4606 0.148447 12.4819 0.110012C12.592 -0.08841 13 0.000440866 13 0.227348V5.99925C13.5523 5.99925 14 6.44734 14 6.99962C14 7.55191 13.5523 8 13 8V13.7726C13 13.9995 12.592 14.0884 12.4819 13.89C12.4606 13.8515 12.4386 13.8124 12.4158 13.7726C12.3333 13.6286 12.2411 13.4762 12.1386 13.3176C12.0943 13.2491 12.0481 13.1795 12 13.109C10.7995 11.3495 8.37737 9.00148 4 9.00148L4.58412 10.7552C4.78874 11.3695 4.33147 12.0037 3.68398 12.0037C3.27553 12.0037 2.91293 11.7423 2.78385 11.3548L2 9.00149H1C0.447715 9.00149 0 8.55377 0 8.00149V5.9985C0 5.44622 0.447715 4.9985 1 4.9985L4 4.9985ZM5 5.95976C8.40106 5.69173 10.625 4.07742 12 2.51671V11.4833C10.625 9.92257 8.40106 8.30826 5 8.04022V5.95976Z" ></path>
  </symbol>

</svg>