<svg width="0" height="0" class="hidden">
  <symbol fill="none" xmlns="http://www.w3.org/2000/svg" viewBox="0 0 50 50" id="ramp">
    <path fill-rule="evenodd" clip-rule="evenodd" d="M45.7372 17.3075C46.2698 17.1625 46.8193 17.4772 46.9648 18.0097C47.1098 18.5424 46.7953 19.0919 46.2626 19.2372L43.9999 19.8534V26.8183L44.4736 26.6894C45.7456 26.3424 46.9995 27.2996 46.9999 28.6181V43.9999L46.9892 44.204C46.8937 45.1456 46.1456 45.8937 45.204 45.9892L44.9999 45.9999H4.99993L4.79583 45.9892C3.85441 45.8936 3.10612 45.1455 3.01067 44.204L2.99993 43.9999V39.5273C3.00015 38.6822 3.53062 37.9351 4.31341 37.6493L4.47356 37.5976L6.01653 37.1757C6.00641 37.1186 5.99993 37.0599 5.99993 36.9999V30.2167L4.26263 30.6913C3.72998 30.8363 3.18039 30.5228 3.03509 29.9902C2.89007 29.4575 3.20466 28.908 3.73724 28.7626L45.7372 17.3075ZM4.99993 39.5273V43.9999H44.9999V28.6181L4.99993 39.5273ZM7.99993 29.6708V36.6347L11.9999 35.5439V28.58L7.99993 29.6708ZM13.9999 28.0341V34.998L17.9999 33.9071V26.9433L13.9999 28.0341ZM19.9999 26.3984V33.3622L23.9999 32.2714V25.3075L19.9999 26.3984ZM25.9999 24.7616V31.7255L30.0097 30.6318C30.004 30.5886 29.9999 30.5446 29.9999 30.4999V23.6708L25.9999 24.7616ZM31.9999 23.1249V30.0888L35.9999 28.9989V22.0351L31.9999 23.1249ZM37.9999 21.4901V28.454L41.9999 27.3632V20.3993L37.9999 21.4901Z" fill="#084C95"></path>
  </symbol>
  <symbol fill="none" xmlns="http://www.w3.org/2000/svg" viewBox="0 0 50 50" id="smoking">
    <path d="M13.3009 36.0417C12.9103 35.6513 12.2773 35.6512 11.8868 36.0417C11.4963 36.4322 11.4963 37.0653 11.8868 37.4558L14.7159 40.2849C15.1065 40.6752 15.7396 40.6745 16.13 40.2839C16.5202 39.8933 16.5204 39.2602 16.13 38.8698L13.3009 36.0417Z" fill="#084C95"></path>
    <path fill-rule="evenodd" clip-rule="evenodd" d="M40.171 10.5856C39.39 9.80479 38.1239 9.80479 37.3428 10.5856L14.7149 33.2136C13.9342 33.9946 13.9341 35.2607 14.7149 36.0417L16.13 37.4558C16.911 38.2366 18.1771 38.2367 18.9581 37.4558L41.586 14.8288C42.3668 14.0478 42.3668 12.7817 41.586 12.0007L40.171 10.5856ZM35.2218 18.364L17.544 36.0417L16.13 34.6276L33.8077 16.9499L35.2218 18.364ZM40.171 13.4147L36.6358 16.9499L35.2218 15.5358L38.7569 12.0007L40.171 13.4147Z" fill="#084C95"></path>
    <path d="M12.4473 18.277C11.9534 18.0301 11.3525 18.2304 11.1055 18.7243C10.8592 19.217 11.0578 19.8159 11.5489 20.0642C11.548 20.0637 11.547 20.0632 11.5469 20.0632C11.5469 20.0632 11.5487 20.0644 11.5518 20.0661C11.5584 20.0696 11.5716 20.0761 11.5899 20.0866C11.627 20.1078 11.6853 20.1427 11.7579 20.1911C11.9047 20.289 12.1003 20.4358 12.293 20.6286C12.684 21.0196 13 21.5304 13.0001 22.1716C13.0001 22.992 12.8013 23.3678 12.6163 23.5837C12.3938 23.8433 12.0821 24.0124 11.5528 24.277C11.0822 24.5124 10.3938 24.8433 9.86628 25.4587C9.30131 26.1178 9.00008 26.9921 9.00007 28.1716C9.00007 29.5303 9.68405 30.5196 10.293 31.1286C10.6002 31.4358 10.9047 31.664 11.1329 31.8161C11.2478 31.8927 11.3457 31.9515 11.418 31.9929C11.4543 32.0136 11.4841 32.0305 11.5069 32.0427C11.5181 32.0486 11.5276 32.0534 11.5352 32.0573C11.5391 32.0593 11.5431 32.0607 11.546 32.0622L11.5518 32.0651C11.5522 32.0653 11.5529 32.066 12.0001 31.1716L11.5528 32.0661C12.0468 32.3131 12.6476 32.1128 12.8946 31.6188C13.1412 31.1255 12.9418 30.5256 12.4493 30.278L12.4532 30.28C12.4529 30.2798 12.4512 30.2786 12.4483 30.277C12.4417 30.2735 12.4286 30.267 12.4102 30.2565C12.3732 30.2354 12.3148 30.2004 12.2423 30.152C12.0954 30.0541 11.8999 29.9073 11.7071 29.7145C11.3161 29.3235 11.0001 28.8128 11.0001 28.1716C11.0001 27.3511 11.1988 26.9753 11.3839 26.7595C11.6064 26.4999 11.918 26.3308 12.4473 26.0661C12.918 25.8308 13.6064 25.4998 14.1339 24.8845C14.6988 24.2253 15.0001 23.351 15.0001 22.1716C15 20.8129 14.3161 19.8235 13.7071 19.2145C13.3999 18.9073 13.0954 18.6791 12.8673 18.527C12.7524 18.4504 12.6544 18.3916 12.5821 18.3503C12.5459 18.3296 12.516 18.3126 12.4932 18.3005C12.4821 18.2945 12.4725 18.2898 12.4649 18.2858C12.4611 18.2839 12.457 18.2824 12.4542 18.2809L12.4483 18.278C12.4479 18.2779 12.4426 18.2864 12.0001 19.1716L12.4473 18.277Z" fill="#084C95"></path>
    <path d="M9.63093 11.3962C9.23816 11.0758 8.65916 11.0984 8.29304 11.4645C7.92693 11.8307 7.90434 12.4097 8.22468 12.8024L8.29304 12.8786C8.29645 12.8821 8.30247 12.8893 8.3116 12.8991C8.33037 12.9192 8.36079 12.951 8.39753 12.9938C8.47192 13.0806 8.57049 13.2049 8.66804 13.3513C8.88483 13.6764 9.00007 13.9722 9.00007 14.1716C9.00007 14.7319 8.78253 14.9751 8.29304 15.4645C7.78254 15.975 7.00008 16.7319 7.00007 18.1716C7.00007 18.9722 7.38484 19.6765 7.66804 20.1013C7.82048 20.3299 7.97192 20.5181 8.08503 20.6501C8.14202 20.7166 8.18975 20.7708 8.22566 20.8093C8.24364 20.8285 8.25928 20.8435 8.27058 20.8552C8.27611 20.8609 8.28049 20.866 8.28425 20.8698L8.29304 20.8786C8.68357 21.2691 9.31658 21.2691 9.7071 20.8786C10.0976 20.4881 10.0976 19.8551 9.7071 19.4645L9.68855 19.444C9.66977 19.4239 9.63935 19.3922 9.60261 19.3493C9.52823 19.2625 9.42966 19.1382 9.3321 18.9919C9.11531 18.6667 9.00007 18.371 9.00007 18.1716C9.00008 17.6113 9.21761 17.3681 9.7071 16.8786C10.2176 16.3681 11.0001 15.6113 11.0001 14.1716C11.0001 13.371 10.6153 12.6667 10.3321 12.2419C10.1797 12.0132 10.0282 11.825 9.91511 11.6931C9.85812 11.6266 9.81039 11.5724 9.77449 11.5339C9.75651 11.5146 9.74086 11.4997 9.72956 11.488C9.72403 11.4823 9.71966 11.4772 9.71589 11.4733L9.7071 11.4645L9.63093 11.3962Z" fill="#084C95"></path>
  </symbol>
  <symbol fill="none" xmlns="http://www.w3.org/2000/svg" viewBox="0 0 50 50" id="smoking_aprove">
    <path d="M11.8867 36.0413C12.2771 35.651 12.9103 35.6511 13.3008 36.0413L16.1299 38.8694C16.5203 39.2597 16.52 39.8928 16.1299 40.2834C15.7395 40.6741 15.1065 40.6747 14.7158 40.2844L11.8867 37.4553C11.4965 37.0648 11.4964 36.4317 11.8867 36.0413Z" fill="#084C95"></path>
    <path d="M30.5439 17.3831C30.956 17.91 31.4085 18.4037 31.9014 18.8547L16.1299 34.6272L17.5439 36.0413L33.5 20.0842C34.084 20.4614 34.7009 20.7921 35.3486 21.0647L18.958 37.4553C18.177 38.2363 16.9109 38.2362 16.1299 37.4553L14.7148 36.0413C13.9343 35.2603 13.9342 33.9941 14.7148 33.2131L30.5439 17.3831Z" fill="#084C95"></path>
    <path d="M11.1055 18.7239C11.3525 18.2303 11.9535 18.0299 12.4473 18.2766L12 19.1711C12.4395 18.292 12.4482 18.2776 12.4482 18.2776L12.4541 18.2805C12.4569 18.2819 12.4611 18.2835 12.4648 18.2854C12.4724 18.2893 12.4821 18.2941 12.4932 18.3C12.5159 18.3122 12.5459 18.3292 12.582 18.3498C12.6543 18.3911 12.7524 18.4501 12.8672 18.5266C13.0953 18.6787 13.3999 18.907 13.707 19.2141C14.316 19.823 14.9998 20.8126 15 22.1711C15 23.3505 14.6986 24.2249 14.1338 24.884C13.6064 25.4993 12.9179 25.8303 12.4473 26.0657C11.9181 26.3303 11.6063 26.4996 11.3838 26.759C11.1988 26.9748 11.0001 27.351 11 28.1711C11 28.8122 11.3162 29.3231 11.707 29.7141C11.8997 29.9068 12.0954 30.0537 12.2422 30.1516C12.3146 30.1999 12.3731 30.2349 12.4102 30.2561C12.4283 30.2664 12.4416 30.2731 12.4482 30.2766C12.4507 30.2779 12.4531 30.2795 12.4531 30.2795L12.4492 30.2776C12.9416 30.5251 13.1409 31.1251 12.8945 31.6184C12.6475 32.1124 12.0467 32.3127 11.5527 32.0657L12 31.1711C11.5836 32.0039 11.5541 32.061 11.5518 32.0647L11.5459 32.0618C11.543 32.0603 11.5389 32.0588 11.5352 32.0569C11.5276 32.053 11.5179 32.0481 11.5068 32.0422C11.4841 32.0301 11.4541 32.013 11.418 31.9924C11.3457 31.9511 11.2476 31.8922 11.1328 31.8157C10.9047 31.6636 10.6001 31.4352 10.293 31.1282C9.68404 30.5191 9 29.5297 9 28.1711C9.00009 26.9919 9.30131 26.1173 9.86621 25.4582C10.3937 24.843 11.0821 24.5119 11.5527 24.2766C12.082 24.012 12.3937 23.8428 12.6162 23.5832C12.8012 23.3673 13 22.9913 13 22.1711C12.9998 21.5301 12.6839 21.0191 12.293 20.6282C12.1003 20.4355 11.9046 20.2885 11.7578 20.1907C11.6854 20.1424 11.6268 20.1073 11.5898 20.0862C11.5716 20.0758 11.5583 20.0691 11.5518 20.0657C11.5488 20.0641 11.5469 20.0627 11.5469 20.0627L11.5488 20.0637C11.0579 19.8154 10.8592 19.2165 11.1055 18.7239Z" fill="#084C95"></path>
    <path d="M8.29297 11.4641C8.65901 11.0983 9.23816 11.0757 9.63086 11.3957L9.70703 11.4641L9.71582 11.4729C9.71953 11.4767 9.72408 11.4819 9.72949 11.4875C9.74074 11.4992 9.75654 11.5143 9.77441 11.5334C9.81027 11.5719 9.85816 11.6263 9.91504 11.6926C10.0281 11.8245 10.1797 12.0129 10.332 12.2414C10.6152 12.6662 10.9999 13.3707 11 14.1711C11 15.6106 10.2175 16.3677 9.70703 16.8782C9.21767 17.3675 9.00012 17.6111 9 18.1711C9 18.3705 9.11538 18.6664 9.33203 18.9914C9.42948 19.1376 9.52818 19.2621 9.60254 19.3489C9.63912 19.3915 9.66968 19.4235 9.68848 19.4436L9.70703 19.4641C10.0975 19.8546 10.0974 20.4876 9.70703 20.8782C9.31651 21.2687 8.68349 21.2687 8.29297 20.8782L8.28418 20.8694C8.28047 20.8656 8.27591 20.8603 8.27051 20.8547C8.25923 20.8431 8.24343 20.8279 8.22559 20.8088C8.18971 20.7704 8.14181 20.716 8.08496 20.6497C7.97187 20.5177 7.8203 20.3293 7.66797 20.1008C7.38479 19.676 7 18.9715 7 18.1711C7.00016 16.7317 7.78252 15.9746 8.29297 15.4641C8.78233 14.9747 9 14.7314 9 14.1711C8.99983 13.9717 8.8846 13.6758 8.66797 13.3508C8.57049 13.2046 8.47179 13.0801 8.39746 12.9934C8.36083 12.9507 8.33026 12.9187 8.31152 12.8987C8.30254 12.889 8.29635 12.8817 8.29297 12.8782L8.22461 12.802C7.90452 12.4092 7.92695 11.8301 8.29297 11.4641Z" fill="#084C95"></path>
    <path d="M40 14C40.5523 14 41 14.4477 41 15C41 15.5523 40.5523 16 40 16C39.4477 16 39 15.5523 39 15C39 14.4477 39.4477 14 40 14Z" fill="#084C95"></path>
    <path d="M40 4C40.5523 4 41 4.44772 41 5V12C41 12.5523 40.5523 13 40 13C39.4477 13 39 12.5523 39 12V5C39 4.44772 39.4477 4 40 4Z" fill="#084C95"></path>
    <path fill-rule="evenodd" clip-rule="evenodd" d="M40 0C45.5228 0 50 4.47715 50 10C50 15.5228 45.5228 20 40 20C34.4772 20 30 15.5228 30 10C30 4.47715 34.4772 0 40 0ZM40 2C35.5817 2 32 5.58172 32 10C32 14.4183 35.5817 18 40 18C44.4183 18 48 14.4183 48 10C48 5.58172 44.4183 2 40 2Z" fill="#084C95"></path>
  </symbol>
  <symbol fill="none" xmlns="http://www.w3.org/2000/svg" viewBox="0 0 50 50" id="smoking_less">
    <path d="M11.8867 36.0413C12.2771 35.651 12.9103 35.6511 13.3008 36.0413L16.1299 38.8694C16.5203 39.2597 16.52 39.8928 16.1299 40.2834C15.7395 40.6741 15.1065 40.6747 14.7158 40.2844L11.8867 37.4553C11.4965 37.0648 11.4964 36.4317 11.8867 36.0413Z" fill="#084C95"></path>
    <path d="M30.5439 17.3831C30.956 17.91 31.4085 18.4037 31.9014 18.8547L16.1299 34.6272L17.5439 36.0413L33.5 20.0842C34.084 20.4614 34.7009 20.7921 35.3486 21.0647L18.958 37.4553C18.177 38.2363 16.9109 38.2362 16.1299 37.4553L14.7148 36.0413C13.9343 35.2603 13.9342 33.9941 14.7148 33.2131L30.5439 17.3831Z" fill="#084C95"></path>
    <path d="M11.1055 18.7239C11.3525 18.2303 11.9535 18.0299 12.4473 18.2766L12 19.1711C12.4395 18.292 12.4482 18.2776 12.4482 18.2776L12.4541 18.2805C12.4569 18.2819 12.4611 18.2835 12.4648 18.2854C12.4724 18.2893 12.4821 18.2941 12.4932 18.3C12.5159 18.3122 12.5459 18.3292 12.582 18.3498C12.6543 18.3911 12.7524 18.4501 12.8672 18.5266C13.0953 18.6787 13.3999 18.907 13.707 19.2141C14.316 19.823 14.9998 20.8126 15 22.1711C15 23.3505 14.6986 24.2249 14.1338 24.884C13.6064 25.4993 12.9179 25.8303 12.4473 26.0657C11.9181 26.3303 11.6063 26.4996 11.3838 26.759C11.1988 26.9748 11.0001 27.351 11 28.1711C11 28.8122 11.3162 29.3231 11.707 29.7141C11.8997 29.9068 12.0954 30.0537 12.2422 30.1516C12.3146 30.1999 12.3731 30.2349 12.4102 30.2561C12.4283 30.2664 12.4416 30.2731 12.4482 30.2766C12.4507 30.2779 12.4531 30.2795 12.4531 30.2795L12.4492 30.2776C12.9416 30.5251 13.1409 31.1251 12.8945 31.6184C12.6475 32.1124 12.0467 32.3127 11.5527 32.0657L12 31.1711C11.5836 32.0039 11.5541 32.061 11.5518 32.0647L11.5459 32.0618C11.543 32.0603 11.5389 32.0588 11.5352 32.0569C11.5276 32.053 11.5179 32.0481 11.5068 32.0422C11.4841 32.0301 11.4541 32.013 11.418 31.9924C11.3457 31.9511 11.2476 31.8922 11.1328 31.8157C10.9047 31.6636 10.6001 31.4352 10.293 31.1282C9.68404 30.5191 9 29.5297 9 28.1711C9.00009 26.9919 9.30131 26.1173 9.86621 25.4582C10.3937 24.843 11.0821 24.5119 11.5527 24.2766C12.082 24.012 12.3937 23.8428 12.6162 23.5832C12.8012 23.3673 13 22.9913 13 22.1711C12.9998 21.5301 12.6839 21.0191 12.293 20.6282C12.1003 20.4355 11.9046 20.2885 11.7578 20.1907C11.6854 20.1424 11.6268 20.1073 11.5898 20.0862C11.5716 20.0758 11.5583 20.0691 11.5518 20.0657C11.5488 20.0641 11.5469 20.0627 11.5469 20.0627L11.5488 20.0637C11.0579 19.8154 10.8592 19.2165 11.1055 18.7239Z" fill="#084C95"></path>
    <path d="M8.29297 11.4641C8.65901 11.0983 9.23816 11.0757 9.63086 11.3957L9.70703 11.4641L9.71582 11.4729C9.71953 11.4767 9.72408 11.4819 9.72949 11.4875C9.74074 11.4992 9.75654 11.5143 9.77441 11.5334C9.81027 11.5719 9.85816 11.6263 9.91504 11.6926C10.0281 11.8245 10.1797 12.0129 10.332 12.2414C10.6152 12.6662 10.9999 13.3707 11 14.1711C11 15.6106 10.2175 16.3677 9.70703 16.8782C9.21767 17.3675 9.00012 17.6111 9 18.1711C9 18.3705 9.11538 18.6664 9.33203 18.9914C9.42948 19.1376 9.52818 19.2621 9.60254 19.3489C9.63912 19.3915 9.66968 19.4235 9.68848 19.4436L9.70703 19.4641C10.0975 19.8546 10.0974 20.4876 9.70703 20.8782C9.31651 21.2687 8.68349 21.2687 8.29297 20.8782L8.28418 20.8694C8.28047 20.8656 8.27591 20.8603 8.27051 20.8547C8.25923 20.8431 8.24343 20.8279 8.22559 20.8088C8.18971 20.7704 8.14181 20.716 8.08496 20.6497C7.97187 20.5177 7.8203 20.3293 7.66797 20.1008C7.38479 19.676 7 18.9715 7 18.1711C7.00016 16.7317 7.78252 15.9746 8.29297 15.4641C8.78233 14.9747 9 14.7314 9 14.1711C8.99983 13.9717 8.8846 13.6758 8.66797 13.3508C8.57049 13.2046 8.47179 13.0801 8.39746 12.9934C8.36083 12.9507 8.33026 12.9187 8.31152 12.8987C8.30254 12.889 8.29635 12.8817 8.29297 12.8782L8.22461 12.802C7.90452 12.4092 7.92695 11.8301 8.29297 11.4641Z" fill="#084C95"></path>
    <path d="M36.293 6.29297C36.6591 5.92689 37.2381 5.90427 37.6309 6.22461L37.707 6.29297L40 8.58594L42.293 6.29297L42.3691 6.22461C42.7619 5.9043 43.3409 5.92687 43.707 6.29297C44.0731 6.65907 44.0957 7.2381 43.7754 7.63086L43.707 7.70703L41.4141 10L43.707 12.293L43.7754 12.3691C44.0957 12.7619 44.0731 13.3409 43.707 13.707C43.3409 14.0731 42.7619 14.0957 42.3691 13.7754L42.293 13.707L40 11.4141L37.707 13.707C37.3165 14.0975 36.6835 14.0975 36.293 13.707C35.9024 13.3165 35.9024 12.6835 36.293 12.293L38.5859 10L36.293 7.70703L36.2246 7.63086C35.9043 7.23809 35.9269 6.65908 36.293 6.29297Z" fill="#084C95"></path>
    <path fill-rule="evenodd" clip-rule="evenodd" d="M40 0C45.5228 0 50 4.47715 50 10C50 15.5228 45.5228 20 40 20C34.4772 20 30 15.5228 30 10C30 4.47715 34.4772 0 40 0ZM40 2C35.5817 2 32 5.58172 32 10C32 14.4183 35.5817 18 40 18C44.4183 18 48 14.4183 48 10C48 5.58172 44.4183 2 40 2Z" fill="#084C95"></path>
  </symbol>
  <symbol fill="none" xmlns="http://www.w3.org/2000/svg" viewBox="0 0 50 50" id="towel">
    <path fill-rule="evenodd" clip-rule="evenodd" d="M11 3C8.23857 3 6 5.23858 6 8H5L4.8457 8.00391C3.26056 8.08421 2 9.3949 2 11L2.00391 11.1543C2.08163 12.6883 3.31166 13.9184 4.8457 13.9961L5 14H6V41C6.05809 42.1038 6.87859 42.941 8 43H14V45C14.0581 46.1038 14.8786 46.941 16 47H42C43.1038 46.9419 43.941 46.1214 44 45V14H45L45.1543 13.9961C46.6883 13.9184 47.9184 12.6883 47.9961 11.1543L48 11C48 9.34315 46.6569 8 45 8H43.9141C43.4311 5.16372 40.9294 3.07416 38 3H11ZM42 45H16V39H42V45ZM14 41H8V14H14V41ZM42 37H16V35H42V37ZM38 5C40.2091 5 42 6.79086 42 9V33H16V8C16 6.87432 15.6278 5.83569 15 5H38ZM45 10C45.5523 10 46 10.4477 46 11C46 11.5523 45.5523 12 45 12H44V10H45ZM14 12H5C4.44772 12 4 11.5523 4 11C4 10.4823 4.39333 10.0562 4.89746 10.0049L5 10H14V12ZM11 5C12.6569 5 14 6.34315 14 8H8C8 6.34315 9.34315 5 11 5Z" fill="#084C95"></path>
  </symbol>
  <symbol fill="none" xmlns="http://www.w3.org/2000/svg" viewBox="0 0 50 50" id="tv">
    <path d="M40 41C40.5523 41 41 41.4477 41 42C41 42.5523 40.5523 43 40 43H36C35.4477 43 35 42.5523 35 42C35 41.4477 35.4477 41 36 41H40Z" fill="#084C95"></path>
    <path fill-rule="evenodd" clip-rule="evenodd" d="M38 34C39.6569 34 41 35.3431 41 37C41 38.6569 39.6569 40 38 40C36.3431 40 35 38.6569 35 37C35 35.3431 36.3431 34 38 34ZM38 36C37.4477 36 37 36.4477 37 37C37 37.5523 37.4477 38 38 38C38.5523 38 39 37.5523 39 37C39 36.4477 38.5523 36 38 36Z" fill="#084C95"></path>
    <path d="M36 31C36.5523 31 37 31.4477 37 32C37 32.5523 36.5523 33 36 33C35.4477 33 35 32.5523 35 32C35 31.4477 35.4477 31 36 31Z" fill="#084C95"></path>
    <path d="M40 31C40.5523 31 41 31.4477 41 32C41 32.5523 40.5523 33 40 33C39.4477 33 39 32.5523 39 32C39 31.4477 39.4477 31 40 31Z" fill="#084C95"></path>
    <path d="M36 28C36.5523 28 37 28.4477 37 29C37 29.5523 36.5523 30 36 30C35.4477 30 35 29.5523 35 29C35 28.4477 35.4477 28 36 28Z" fill="#084C95"></path>
    <path d="M40 28C40.5523 28 41 28.4477 41 29C41 29.5523 40.5523 30 40 30C39.4477 30 39 29.5523 39 29C39 28.4477 39.4477 28 40 28Z" fill="#084C95"></path>
    <path fill-rule="evenodd" clip-rule="evenodd" d="M45.2041 4.01074C46.2128 4.11301 47 4.96435 47 6V32L46.9893 32.2041C46.8938 33.1457 46.1457 33.8938 45.2041 33.9893L45 34H44V44L43.9893 44.2041C43.8938 45.1457 43.1457 45.8938 42.2041 45.9893L42 46H34L33.7959 45.9893C32.8543 45.8938 32.1062 45.1457 32.0107 44.2041L32 44V34H25V38H29C29.5523 38 30 38.4477 30 39C30 39.5523 29.5523 40 29 40H19C18.4477 40 18 39.5523 18 39C18 38.4477 18.4477 38 19 38H23V34H5L4.7959 33.9893C3.85435 33.8938 3.1062 33.1457 3.01074 32.2041L3 32V6C3 4.96435 3.78722 4.113 4.7959 4.01074L5 4H45L45.2041 4.01074ZM34 44H42V27H34V44ZM5 32H32V27C32 25.9643 32.7872 25.113 33.7959 25.0107L34 25H42L42.2041 25.0107C43.2128 25.113 44 25.9643 44 27V32H45V6H5V32Z" fill="#084C95"></path>
  </symbol>
  <symbol fill="none" xmlns="http://www.w3.org/2000/svg" viewBox="0 0 50 50" id="wi-fi">
    <path d="M25 35C25.5523 35 26 35.4477 26 36C26 36.5523 25.5523 37 25 37C24.4477 37 24 36.5523 24 36C24 35.4477 24.4477 35 25 35Z" fill="#084C95"></path>
    <path d="M21.2129 31.373C23.3043 29.2816 26.6956 29.2816 28.7871 31.373C29.1774 31.7636 29.1776 32.3967 28.7871 32.7871C28.3967 33.1775 27.7636 33.1774 27.373 32.7871C26.0626 31.4767 23.9374 31.4767 22.627 32.7871C22.2364 33.1773 21.6033 33.1775 21.2129 32.7871C20.8225 32.3967 20.8227 31.7636 21.2129 31.373Z" fill="#084C95"></path>
    <path d="M17.2217 27.2637C21.5174 22.9679 28.4826 22.9679 32.7783 27.2637C33.1686 27.6542 33.1687 28.2873 32.7783 28.6777C32.3879 29.0682 31.7548 29.068 31.3643 28.6777C27.8495 25.163 22.1505 25.163 18.6357 28.6777C18.2452 29.068 17.6121 29.0681 17.2217 28.6777C16.8312 28.2873 16.8314 27.6542 17.2217 27.2637Z" fill="#084C95"></path>
    <path d="M12.2725 22.3135C19.3018 15.2844 30.6982 15.2844 37.7275 22.3135C38.1181 22.704 38.1181 23.337 37.7275 23.7275C37.337 24.118 36.704 24.1181 36.3135 23.7275C30.0652 17.4795 19.9348 17.4795 13.6865 23.7275C13.296 24.118 12.663 24.118 12.2725 23.7275C11.8819 23.337 11.8819 22.704 12.2725 22.3135Z" fill="#084C95"></path>
    <path fill-rule="evenodd" clip-rule="evenodd" d="M25 3C37.1503 3 47 12.8497 47 25C47 37.1503 37.1503 47 25 47C12.8497 47 3 37.1503 3 25C3 12.8497 12.8497 3 25 3ZM25 5C13.9543 5 5 13.9543 5 25C5 36.0457 13.9543 45 25 45C36.0457 45 45 36.0457 45 25C45 13.9543 36.0457 5 25 5Z" fill="#084C95"></path>
  </symbol>
  <symbol fill="none" xmlns="http://www.w3.org/2000/svg" viewBox="0 0 50 50" id="air">
    <path d="M32.793 28.293C33.1835 27.9024 33.8165 27.9024 34.207 28.293L34.2412 28.3271C34.2598 28.3464 34.2858 28.3734 34.3174 28.4072C34.3806 28.475 34.4675 28.5723 34.5713 28.6934C34.7781 28.9347 35.0546 29.2792 35.332 29.6953C35.8652 30.4951 36.5 31.6995 36.5 33C36.4999 35.4395 35.2175 36.6966 34.207 37.707C33.2176 38.6965 32.5 39.4397 32.5 41C32.5001 41.6994 32.8653 42.4952 33.332 43.1953C33.5546 43.5291 33.7782 43.8097 33.9463 44.0059C34.0299 44.1034 34.0994 44.1781 34.1455 44.2275C34.1684 44.252 34.1856 44.2702 34.1963 44.2812C34.2016 44.2867 34.2052 44.2911 34.207 44.293L34.2754 44.3691C34.5956 44.7619 34.5731 45.341 34.207 45.707C33.8409 46.073 33.2619 46.0956 32.8691 45.7754L32.793 45.707L32.7588 45.6729C32.7402 45.6536 32.7142 45.6266 32.6826 45.5928C32.6194 45.525 32.5325 45.4278 32.4287 45.3066C32.2219 45.0653 31.9454 44.7208 31.668 44.3047C31.1348 43.5049 30.5001 42.3005 30.5 41C30.5 38.5604 31.7825 37.3035 32.793 36.293C33.7824 35.3035 34.4999 34.5602 34.5 33C34.5 32.3006 34.1347 31.5048 33.668 30.8047C33.4455 30.4709 33.2218 30.1903 33.0537 29.9941C32.9702 29.8967 32.9006 29.8219 32.8545 29.7725C32.8316 29.748 32.8144 29.7298 32.8037 29.7188L32.793 29.707C32.4025 29.3165 32.4026 28.6835 32.793 28.293Z" fill="#084C95"></path>
    <path d="M27.4453 30.168C27.9048 29.8616 28.5257 29.9858 28.832 30.4453L28.833 30.4463L28.835 30.4492C28.8361 30.451 28.8373 30.4536 28.8389 30.4561C28.8421 30.4609 28.8466 30.467 28.8516 30.4746C28.8617 30.4903 28.875 30.5124 28.8916 30.5391C28.9249 30.5926 28.9708 30.6679 29.0244 30.7617C29.1313 30.9487 29.2728 31.2133 29.4141 31.5312C29.6889 32.1497 30 33.0485 30 34C30 34.8727 29.8518 35.556 29.4932 36.1836C29.1633 36.7609 28.6795 37.2345 28.207 37.707C27.6796 38.2345 27.4133 38.511 27.2432 38.8086C27.1018 39.056 27 39.3729 27 40C27 40.5484 27.189 41.1498 27.4141 41.6562C27.5227 41.9007 27.6313 42.105 27.7119 42.2461C27.7519 42.3161 27.7843 42.37 27.8057 42.4043C27.8162 42.4213 27.8246 42.4334 27.8291 42.4404L27.832 42.4453L27.833 42.4473C28.1378 42.9066 28.0136 43.5261 27.5547 43.832C27.1238 44.1193 26.5508 44.0281 26.2285 43.6367L26.168 43.5547L26.167 43.5537L26.165 43.5508C26.1639 43.549 26.1627 43.5464 26.1611 43.5439C26.1579 43.5391 26.1534 43.533 26.1484 43.5254C26.1383 43.5097 26.125 43.4876 26.1084 43.4609C26.0751 43.4074 26.0292 43.3321 25.9756 43.2383C25.8687 43.0513 25.7272 42.7867 25.5859 42.4688C25.3111 41.8503 25 40.9515 25 40C25 39.1273 25.1482 38.444 25.5068 37.8164C25.8367 37.2391 26.3205 36.7655 26.793 36.293C27.3204 35.7655 27.5867 35.489 27.7568 35.1914C27.8982 34.944 28 34.6271 28 34C28 33.4516 27.811 32.8503 27.5859 32.3438C27.4773 32.0993 27.3687 31.895 27.2881 31.7539C27.2481 31.6839 27.2157 31.63 27.1943 31.5957C27.1838 31.5787 27.1754 31.5666 27.1709 31.5596L27.1152 31.4668C26.8782 31.0189 27.0146 30.4552 27.4453 30.168Z" fill="#084C95"></path>
    <path d="M38.9453 30.168C39.4048 29.8616 40.0257 29.9858 40.332 30.4453L40.333 30.4463L40.335 30.4492C40.3361 30.451 40.3373 30.4536 40.3389 30.4561C40.3421 30.4609 40.3466 30.467 40.3516 30.4746C40.3617 30.4903 40.375 30.5124 40.3916 30.5391C40.4249 30.5926 40.4708 30.6679 40.5244 30.7617C40.6313 30.9487 40.7728 31.2133 40.9141 31.5312C41.1889 32.1497 41.5 33.0485 41.5 34C41.5 34.8727 41.3518 35.556 40.9932 36.1836C40.6633 36.7609 40.1795 37.2345 39.707 37.707C39.1796 38.2345 38.9133 38.511 38.7432 38.8086C38.6018 39.056 38.5 39.3729 38.5 40C38.5 40.5484 38.689 41.1498 38.9141 41.6562C39.0227 41.9007 39.1313 42.105 39.2119 42.2461C39.2519 42.3161 39.2843 42.37 39.3057 42.4043C39.3162 42.4213 39.3246 42.4334 39.3291 42.4404L39.332 42.4453L39.333 42.4473C39.6378 42.9066 39.5136 43.5261 39.0547 43.832C38.6238 44.1193 38.0508 44.0281 37.7285 43.6367L37.668 43.5547L37.667 43.5537L37.665 43.5508C37.6639 43.549 37.6627 43.5464 37.6611 43.5439C37.6579 43.5391 37.6534 43.533 37.6484 43.5254C37.6383 43.5097 37.625 43.4876 37.6084 43.4609C37.5751 43.4074 37.5292 43.3321 37.4756 43.2383C37.3687 43.0513 37.2272 42.7867 37.0859 42.4688C36.8111 41.8503 36.5 40.9515 36.5 40C36.5 39.1273 36.6482 38.444 37.0068 37.8164C37.3367 37.2391 37.8205 36.7655 38.293 36.293C38.8204 35.7655 39.0867 35.489 39.2568 35.1914C39.3982 34.944 39.5 34.6271 39.5 34C39.5 33.4516 39.311 32.8503 39.0859 32.3438C38.9773 32.0993 38.8687 31.895 38.7881 31.7539C38.7481 31.6839 38.7157 31.63 38.6943 31.5957C38.6838 31.5787 38.6754 31.5666 38.6709 31.5596L38.6152 31.4668C38.3782 31.0189 38.5146 30.4552 38.9453 30.168Z" fill="#084C95"></path>
    <path d="M12.3281 31C12.8802 31.0002 13.3281 31.4478 13.3281 32V35.2764L16.165 33.6387C16.6432 33.3626 17.255 33.5259 17.5312 34.0039C17.8074 34.4822 17.6433 35.094 17.165 35.3701L14.332 37.0049L17.1602 38.6387C17.6384 38.9148 17.8023 39.5257 17.5264 40.0039C17.2502 40.4822 16.6384 40.6463 16.1602 40.3701L13.3281 38.7344V42C13.3281 42.5522 12.8802 42.9998 12.3281 43C11.7758 43 11.3281 42.5523 11.3281 42V38.7393L8.50488 40.3701C8.02659 40.6462 7.41481 40.4822 7.13867 40.0039C6.86297 39.5258 7.02697 38.9148 7.50488 38.6387L10.333 37.0049L7.5 35.3701C7.02189 35.0939 6.85769 34.4821 7.13379 34.0039C7.40998 33.5257 8.02176 33.3626 8.5 33.6387L11.3281 35.2715V32C11.3281 31.4477 11.7758 31 12.3281 31Z" fill="#084C95"></path>
    <path fill-rule="evenodd" clip-rule="evenodd" d="M39 8C40.6569 8 42 9.34315 42 11C42 12.6569 40.6569 14 39 14C37.3431 14 36 12.6569 36 11C36 9.34315 37.3431 8 39 8ZM39 10C38.4477 10 38 10.4477 38 11C38 11.5523 38.4477 12 39 12C39.5523 12 40 11.5523 40 11C40 10.4477 39.5523 10 39 10Z" fill="#084C95"></path>
    <path fill-rule="evenodd" clip-rule="evenodd" d="M45.2041 4.01074C46.2128 4.11301 47 4.96435 47 6V22L46.9893 22.2041C46.8938 23.1457 46.1457 23.8938 45.2041 23.9893L45 24H5L4.7959 23.9893C3.85435 23.8938 3.1062 23.1457 3.01074 22.2041L3 22V6C3 4.96435 3.78722 4.113 4.7959 4.01074L5 4H45L45.2041 4.01074ZM5 22H8V20C8 18.9643 8.78722 18.113 9.7959 18.0107L10 18H40L40.2041 18.0107C41.2128 18.113 42 18.9643 42 20V22H45V6H5V22ZM10 22H40V20H10V22Z" fill="#084C95"></path>
  </symbol>
  <symbol fill="none" xmlns="http://www.w3.org/2000/svg" viewBox="0 0 50 50" id="balcony">
    <path fill-rule="evenodd" clip-rule="evenodd" d="M18 40H12V34H18V40ZM14 38H16V36H14V38Z" fill="#084C95"></path>
    <path fill-rule="evenodd" clip-rule="evenodd" d="M28 40H22V34H28V40ZM24 38H26V36H24V38Z" fill="#084C95"></path>
    <path fill-rule="evenodd" clip-rule="evenodd" d="M38 40H32V34H38V40ZM34 38H36V36H34V38Z" fill="#084C95"></path>
    <path fill-rule="evenodd" clip-rule="evenodd" d="M45.2041 42.0107C46.2128 42.113 47 42.9643 47 44V46L46.9893 46.2041C46.8938 47.1457 46.1457 47.8938 45.2041 47.9893L45 48H5L4.7959 47.9893C3.85435 47.8938 3.1062 47.1457 3.01074 46.2041L3 46V44C3 42.9643 3.78722 42.113 4.7959 42.0107L5 42H6V32H5L4.7959 31.9893C3.85435 31.8938 3.1062 31.1457 3.01074 30.2041L3 30V29C3 27.9643 3.78722 27.113 4.7959 27.0107L5 27H11V8H10L9.7959 7.98926C8.85435 7.8938 8.1062 7.14565 8.01074 6.2041L8 6V4C8 2.96435 8.78722 2.113 9.7959 2.01074L10 2H40L40.2041 2.01074C41.2128 2.113 42 2.96435 42 4V6L41.9893 6.2041C41.8938 7.14565 41.1457 7.8938 40.2041 7.98926L40 8H39V27H45L45.2041 27.0107C46.2128 27.113 47 27.9643 47 29V30L46.9893 30.2041C46.8938 31.1457 46.1457 31.8938 45.2041 31.9893L45 32H44V42H45L45.2041 42.0107ZM42 42V32H8V42H42ZM5 46H45V44H5V46ZM5 30H45V29H5V30ZM13 27H24V8H13V27ZM26 27H37V17H26V27ZM26 15H37V8H26V15ZM10 6H40V4H10V6Z" fill="#084C95"></path>
  </symbol>
  <symbol fill="none" xmlns="http://www.w3.org/2000/svg" viewBox="0 0 50 50" id="bedding">
    <path fill-rule="evenodd" clip-rule="evenodd" d="M32.1813 5.00488C33.0997 5.04875 34.1303 5.41533 35.1335 5.89258C36.2308 6.41466 37.4153 7.12793 38.5808 7.90723C40.914 9.46741 43.2538 11.3478 44.8044 12.6484L44.9372 12.7666C46.2665 14.0215 46.1214 16.1835 44.569 17.2285C43.2362 18.1257 41.3818 19.301 39.4997 20.2559C39.452 20.2801 39.4031 20.3021 39.3552 20.3262C40.3304 20.8214 40.9997 21.8314 40.9997 23C40.9997 23.4078 40.9166 23.7959 40.7692 24.1504C42.7658 24.7298 43.9968 26.9025 43.2722 29C43.754 30.3948 43.3701 31.8221 42.4724 32.793C45.1511 34.0859 46.9997 36.8263 46.9997 40C46.9997 44.2801 43.6386 47.7748 39.4118 47.9893L38.9997 48H8.12275L7.88056 47.9932C5.48361 47.8518 3.74593 45.6263 4.19013 43.2666L4.24189 43.0303L4.9997 40L4.24189 36.9697C3.63087 34.5244 5.40372 32.1529 7.88056 32.0068L8.0036 32.0029C7.37415 31.1667 6.9997 30.1273 6.9997 29L7.00653 28.7432C7.11035 26.6915 8.45098 24.9665 10.2976 24.2979C10.1084 23.9048 9.9997 23.4654 9.9997 23C9.9997 22.0179 10.4724 21.1469 11.2018 20.5996C10.9657 20.4875 10.7308 20.3731 10.4997 20.2559C9.08829 19.5398 7.69215 18.7 6.52021 17.9463L5.43036 17.2285C3.8283 16.15 3.72533 13.8813 5.19501 12.6484L6.49384 11.5781C7.91528 10.4276 9.66888 9.07728 11.4186 7.90723C12.5841 7.12793 13.7686 6.41467 14.8659 5.89258C15.9358 5.3836 17.0368 5.00005 17.9997 5H31.9997L32.1813 5.00488ZM8.12275 34C6.82172 34.0001 5.86679 35.2231 6.18232 36.4854L6.81122 39H38.9997C39.552 39 39.9997 39.4477 39.9997 40C39.9997 40.5523 39.552 41 38.9997 41H6.81122L6.18232 43.5146C5.86678 44.7769 6.82172 45.9999 8.12275 46H38.9997C42.3134 46 44.9997 43.3137 44.9997 40C44.9997 36.6863 42.3134 34 38.9997 34H8.12275ZM11.9997 26C10.343 26.0001 8.9997 27.3432 8.9997 29C8.9997 30.6568 10.343 31.9999 11.9997 32H39.7097C40.8032 32 41.6007 31.0311 41.4616 30H13.9089L13.8063 29.9951C13.3023 29.9437 12.9089 29.5176 12.9089 29C12.9089 28.4824 13.3023 28.0563 13.8063 28.0049L13.9089 28H41.4616C41.6007 26.9689 40.8032 26 39.7097 26H11.9997ZM12.9997 22C12.4475 22.0001 11.9997 22.4478 11.9997 23C11.9997 23.5522 12.4475 23.9999 12.9997 24H37.9997C38.552 24 38.9997 23.5523 38.9997 23C38.9997 22.4477 38.552 22 37.9997 22H12.9997ZM17.9997 7C17.4973 7.00006 16.7292 7.22066 15.7253 7.69824C14.749 8.16274 13.6534 8.81911 12.53 9.57031C10.8461 10.6963 9.14484 12.0057 7.75458 13.1309L6.48017 14.1807C6.02003 14.5667 6.05938 15.2409 6.54657 15.5693L7.60517 16.2656C8.73726 16.9936 10.0704 17.7961 11.404 18.4727C13.2294 19.3988 14.8863 19.9999 15.9997 20H33.9997C35.113 20 36.7699 19.3988 38.5954 18.4727C40.3736 17.5705 42.152 16.445 43.4528 15.5693C43.9402 15.2409 43.9795 14.5668 43.5192 14.1807C41.9905 12.8984 39.7144 11.0716 37.4694 9.57031C36.346 8.81911 35.2504 8.16272 34.2741 7.69824C33.3959 7.28047 32.6981 7.05959 32.2009 7.01074L31.9997 7H17.9997Z" fill="#084C95"></path>
  </symbol>
  <symbol fill="none" xmlns="http://www.w3.org/2000/svg" viewBox="0 0 50 50" id="cleaning">
    <path d="M19.293 43.293C19.6835 42.9025 20.3165 42.9025 20.707 43.293C21.0975 43.6835 21.0975 44.3166 20.707 44.7071L19.9141 45.5001L20.707 46.293L20.7754 46.3692C21.0957 46.762 21.0731 47.341 20.707 47.7071C20.3409 48.0732 19.7619 48.0958 19.3691 47.7754L19.293 47.7071L18.5 46.9141L17.707 47.7071C17.3165 48.0976 16.6835 48.0976 16.293 47.7071C15.9024 47.3166 15.9024 46.6836 16.293 46.293L17.0859 45.5001L16.293 44.7071L16.2246 44.6309C15.9043 44.2381 15.9269 43.6591 16.293 43.293C16.6591 42.9269 17.2381 42.9043 17.6309 43.2247L17.707 43.293L18.5 44.086L19.293 43.293Z" fill="#084C95"></path>
    <path fill-rule="evenodd" clip-rule="evenodd" d="M38.0801 4.00006C38.5978 3.10347 39.7054 2.75956 40.6299 3.17486L40.8125 3.26764L42.5449 4.26764L42.7158 4.37896C43.5382 4.97183 43.7941 6.10318 43.2764 7.00006L35.2754 20.8565L41.002 24.1622L41.1582 24.2569C42.7403 25.2682 43.4114 27.2556 42.7471 29.0294L36.2295 46.4297C35.8231 47.5146 34.5944 48.0143 33.5605 47.5635L33.3555 47.46L8.00098 32.8213L7.80957 32.6963C6.96282 32.0712 6.74779 30.8855 7.32129 30.003L7.45605 29.8174L19.2666 15.4727C20.4705 14.0106 22.5276 13.5987 24.1943 14.4629L24.3545 14.5508L30.0801 17.8555L38.0801 4.00006ZM9.00098 31.0899L13.8838 33.9092L18.1338 26.5479C18.4099 26.0698 19.0218 25.9059 19.5 26.1817C19.9782 26.4578 20.1422 27.0696 19.8662 27.5479L15.6162 34.9092L19.0801 36.9092L20.0801 35.1768C20.3562 34.6988 20.9681 34.5348 21.4463 34.8106C21.9245 35.0867 22.0884 35.6986 21.8125 36.1768L20.8125 37.9092L28.6064 42.4092L31.6064 37.2129C31.8826 36.7348 32.4944 36.5708 32.9727 36.8467C33.4509 37.1228 33.6149 37.7347 33.3389 38.2129L30.3389 43.4092L34.3555 45.7286L39.335 32.4376L18.0215 20.1319L9.00098 31.0899ZM23.3545 16.2833C22.5609 15.8252 21.5659 15.9673 20.9326 16.6085L20.8105 16.7432L19.3096 18.5665L40.0469 30.5391L40.875 28.3272C41.2174 27.4119 40.8484 26.3833 40.002 25.8946L23.3545 16.2833ZM31.8125 18.8565L33.5439 19.8555L41.5449 6.00006L39.8125 5.00006L31.8125 18.8565Z" fill="#084C95"></path>
    <path fill-rule="evenodd" clip-rule="evenodd" d="M7 40.0001C8.65683 40.0001 9.99996 41.3432 10 43.0001C10 44.6569 8.65685 46.0001 7 46.0001C5.34315 46.0001 4 44.6569 4 43.0001C4.00004 41.3432 5.34317 40.0001 7 40.0001ZM7 42.0001C6.44774 42.0001 6.00004 42.4478 6 43.0001C6 43.5523 6.44772 44.0001 7 44.0001C7.55228 44.0001 8 43.5523 8 43.0001C7.99996 42.4478 7.55226 42.0001 7 42.0001Z" fill="#084C95"></path>
    <path d="M42.04 37.6124C42.5304 37.3584 43.1336 37.5498 43.3877 38.0401L42.7227 38.3848L43.3887 38.0411L43.3896 38.043C43.3901 38.0438 43.3901 38.045 43.3906 38.046C43.3919 38.0484 43.3938 38.0513 43.3955 38.0547C43.3989 38.0615 43.403 38.0705 43.4082 38.0811C43.4188 38.1025 43.4333 38.1318 43.4502 38.168C43.4839 38.2404 43.5289 38.3417 43.5801 38.4678C43.6822 38.7195 43.8107 39.0753 43.9199 39.502C44.135 40.3421 44.2949 41.5307 43.9658 42.7588C43.5826 44.1892 42.4981 44.8764 41.6426 45.1895C41.2136 45.3465 40.8127 45.4221 40.5225 45.46C40.376 45.4791 40.2535 45.4891 40.1641 45.4942C40.1192 45.4968 40.0823 45.4983 40.0547 45.4991C40.0411 45.4994 40.0296 45.4999 40.0205 45.5001H40.001C40.0006 45.4989 40 45.4652 40 44.5001L40.001 45.5001C39.4487 45.5001 39 45.0523 39 44.5001C39 43.9478 39.4477 43.5001 40 43.5001C40.0087 43.4998 40.0263 43.4994 40.0498 43.4981C40.0971 43.4954 40.1712 43.4897 40.2637 43.4776C40.4521 43.453 40.7012 43.4035 40.9551 43.3106C41.4656 43.1237 41.8815 42.8109 42.0342 42.2413C42.241 41.4695 42.1513 40.6579 41.9824 39.9981C41.8997 39.6749 41.8019 39.4056 41.7266 39.2198C41.6891 39.1274 41.6576 39.0566 41.6367 39.0118C41.6264 38.9896 41.6186 38.9737 41.6143 38.9649L41.6104 38.9571L41.6113 38.9581L41.5693 38.8672C41.3828 38.3959 41.5803 37.8506 42.04 37.6124Z" fill="#084C95"></path>
    <path d="M45 34.0001C45.5523 34.0001 46 34.4478 46 35.0001C46 35.5523 45.5523 36.0001 45 36.0001C44.4477 36.0001 44 35.5523 44 35.0001C44 34.4478 44.4477 34.0001 45 34.0001Z" fill="#084C95"></path>
    <path d="M4.29297 13.4044C5.90046 11.797 7.95834 11.8535 9.41895 12.2012C10.1613 12.378 10.8067 12.6404 11.2627 12.8555C11.4921 12.9638 11.6777 13.0621 11.8086 13.1348C11.8741 13.1712 11.9266 13.2007 11.9639 13.2227C11.9825 13.2337 11.9977 13.2433 12.0088 13.2501C12.0142 13.2533 12.0189 13.2557 12.0225 13.2579C12.024 13.2588 12.0252 13.2601 12.0264 13.2608L12.0283 13.2628C12.0282 13.2634 12.0206 13.2773 11.8076 13.6182L12.0303 13.2628C12.4985 13.5554 12.6402 14.1724 12.3477 14.6407C12.0549 15.109 11.438 15.2517 10.9697 14.959L10.9688 14.9581C10.9646 14.9555 10.9565 14.951 10.9453 14.9444C10.9228 14.9311 10.8864 14.9098 10.8379 14.8829C10.7403 14.8287 10.5936 14.7511 10.4092 14.6641C10.0371 14.4886 9.52603 14.2823 8.95605 14.1465C7.79172 13.8693 6.5996 13.9259 5.70703 14.8184C5.06799 15.4575 4.95324 16.0771 5.02344 16.6378C5.10074 17.2543 5.41488 17.8565 5.73438 18.3165L5.8418 18.4952C6.05902 18.9181 6.0507 19.377 5.95801 19.7286C5.86502 20.0812 5.65467 20.4577 5.30664 20.7217L5.14941 20.8282C4.66856 21.1121 4 21.7146 4 23.1114C4.00005 23.689 4.1416 23.9976 4.26855 24.167C4.39894 24.3409 4.58319 24.4594 4.81641 24.5372C5.05628 24.6171 5.31592 24.6426 5.53125 24.6426C5.63537 24.6426 5.72066 24.6362 5.77637 24.6309C5.8038 24.6283 5.8235 24.6265 5.83398 24.6251C5.83504 24.6249 5.83605 24.6242 5.83691 24.6241C6.38103 24.5342 6.89542 24.9022 6.98633 25.4463C7.07714 25.9911 6.70881 26.5069 6.16406 26.5977L6 25.6114C6.16442 26.5975 6.16456 26.5976 6.16406 26.5977H6.16211L6.16016 26.5987C6.15853 26.599 6.15629 26.5984 6.1543 26.5987C6.15039 26.5993 6.14591 26.6008 6.14062 26.6016C6.1296 26.6033 6.11535 26.6052 6.09863 26.6075C6.06516 26.6119 6.02021 26.6169 5.96582 26.6221C5.85748 26.6324 5.70828 26.6426 5.53125 26.6426C5.18411 26.6427 4.69367 26.6046 4.18359 26.4346C3.66691 26.2624 3.10098 25.9433 2.66895 25.3672C2.23356 24.7867 2.00005 24.0331 2 23.1114C2 21.0213 3.01729 19.8382 3.93848 19.2266C3.56688 18.647 3.15714 17.8286 3.03906 16.8868C2.89742 15.7566 3.18736 14.51 4.29297 13.4044Z" fill="#084C95"></path>
    <path d="M17 11.0001C17.5523 11.0001 18 11.4478 18 12.0001C18 12.5523 17.5523 13.0001 17 13.0001C16.4477 13.0001 16 12.5523 16 12.0001C16 11.4478 16.4477 11.0001 17 11.0001Z" fill="#084C95"></path>
  </symbol>
  <symbol fill="none" xmlns="http://www.w3.org/2000/svg" viewBox="0 0 50 50" id="cleaning_payment">
    <path d="M19.293 43.293C19.6835 42.9025 20.3165 42.9025 20.707 43.293C21.0975 43.6835 21.0975 44.3165 20.707 44.707L19.9141 45.5L20.707 46.293L20.7754 46.3691C21.0957 46.7619 21.0731 47.3409 20.707 47.707C20.3409 48.0731 19.7619 48.0957 19.3691 47.7754L19.293 47.707L18.5 46.9141L17.707 47.707C17.3165 48.0975 16.6835 48.0975 16.293 47.707C15.9025 47.3165 15.9025 46.6835 16.293 46.293L17.0859 45.5L16.293 44.707L16.2246 44.6309C15.9043 44.2381 15.9269 43.6591 16.293 43.293C16.6591 42.9269 17.2381 42.9043 17.6309 43.2246L17.707 43.293L18.5 44.0859L19.293 43.293Z" fill="#084C95"></path>
    <path fill-rule="evenodd" clip-rule="evenodd" d="M19.2666 15.4727C20.4705 14.0106 22.5276 13.5987 24.1943 14.4629L24.3545 14.5508L30.0801 17.8555L30.4336 17.2422C30.858 17.802 31.3304 18.3229 31.8447 18.7998L31.8125 18.8564L32.0781 19.0098C33.2583 20.0483 34.6435 20.8569 36.166 21.3701L41.002 24.1621L41.1582 24.2568C42.7403 25.2681 43.4113 27.2556 42.7471 29.0293L36.2295 46.4297C35.8231 47.5146 34.5944 48.0142 33.5605 47.5635L33.3555 47.46L8.00098 32.8213L7.80957 32.6963C6.96284 32.0711 6.7478 30.8855 7.32129 30.0029L7.45605 29.8174L19.2666 15.4727ZM9.00098 31.0898L13.8838 33.9092L18.1338 26.5479C18.4099 26.0698 19.0218 25.9058 19.5 26.1816C19.9782 26.4577 20.1422 27.0696 19.8662 27.5479L15.6162 34.9092L19.0801 36.9092L20.0801 35.1768C20.3562 34.6988 20.9681 34.5348 21.4463 34.8105C21.9245 35.0866 22.0883 35.6985 21.8125 36.1768L20.8125 37.9092L28.6064 42.4092L31.6064 37.2129C31.8826 36.7348 32.4945 36.5708 32.9727 36.8467C33.4509 37.1228 33.6148 37.7346 33.3389 38.2129L30.3389 43.4092L34.3555 45.7285L39.335 32.4375L18.0215 20.1318L9.00098 31.0898ZM23.3545 16.2832C22.5609 15.8252 21.5659 15.9673 20.9326 16.6084L20.8105 16.7432L19.3096 18.5664L40.0469 30.5391L40.875 28.3271C41.2174 27.4119 40.8483 26.3832 40.002 25.8945L23.3545 16.2832Z" fill="#084C95"></path>
    <path fill-rule="evenodd" clip-rule="evenodd" d="M7 40C8.65681 40 9.99993 41.3432 10 43C10 44.6569 8.65685 46 7 46C5.34315 46 4 44.6569 4 43C4.00007 41.3432 5.34319 40 7 40ZM7 42C6.44776 42 6.00007 42.4478 6 43C6 43.5523 6.44772 44 7 44C7.55228 44 8 43.5523 8 43C7.99993 42.4478 7.55224 42 7 42Z" fill="#084C95"></path>
    <path d="M42.04 37.6123C42.5304 37.3584 43.1336 37.5498 43.3877 38.04L42.7227 38.3848L43.3887 38.041L43.3896 38.043L43.3906 38.0459C43.3919 38.0483 43.3938 38.0513 43.3955 38.0547C43.3989 38.0615 43.403 38.0705 43.4082 38.0811C43.4187 38.1025 43.4333 38.1318 43.4502 38.168C43.4839 38.2403 43.5289 38.3417 43.5801 38.4678C43.6822 38.7195 43.8107 39.0752 43.9199 39.502C44.135 40.3421 44.2949 41.5306 43.9658 42.7588C43.5826 44.1891 42.4981 44.8763 41.6426 45.1895C41.2136 45.3464 40.8127 45.4221 40.5225 45.46C40.376 45.4791 40.2535 45.489 40.1641 45.4941C40.1192 45.4967 40.0823 45.4983 40.0547 45.499C40.0411 45.4994 40.0296 45.4999 40.0205 45.5H40.001C39.4487 45.5 39 45.0523 39 44.5C39.0001 43.9478 39.4478 43.5 40 43.5C40.0087 43.4998 40.0263 43.4994 40.0498 43.498C40.0971 43.4953 40.1712 43.4896 40.2637 43.4775C40.4521 43.4529 40.7012 43.4035 40.9551 43.3105C41.4656 43.1237 41.8816 42.8108 42.0342 42.2412C42.2409 41.4695 42.1513 40.6579 41.9824 39.998C41.8997 39.6749 41.8019 39.4055 41.7266 39.2197C41.6891 39.1273 41.6576 39.0565 41.6367 39.0117C41.6264 38.9895 41.6186 38.9737 41.6143 38.9648L41.6104 38.957L41.6113 38.958L41.5693 38.8672C41.3828 38.3959 41.5803 37.8505 42.04 37.6123Z" fill="#084C95"></path>
    <path d="M45 34C45.5522 34 45.9999 34.4478 46 35C46 35.5523 45.5523 36 45 36C44.4477 36 44 35.5523 44 35C44.0001 34.4478 44.4478 34 45 34Z" fill="#084C95"></path>
    <path d="M4.29297 13.4043C5.90045 11.7969 7.95835 11.8534 9.41895 12.2012C10.1613 12.3779 10.8067 12.6404 11.2627 12.8555C11.4921 12.9637 11.6777 13.0621 11.8086 13.1348C11.8741 13.1711 11.9266 13.2006 11.9639 13.2227C11.9825 13.2337 11.9977 13.2433 12.0088 13.25C12.0142 13.2533 12.0189 13.2556 12.0225 13.2578L12.0264 13.2607L12.0283 13.2627C12.0283 13.2627 12.0206 13.2772 11.8076 13.6182L12.0303 13.2627C12.4985 13.5554 12.6402 14.1723 12.3477 14.6406C12.0549 15.1089 11.438 15.2517 10.9697 14.959L10.9688 14.958C10.9646 14.9555 10.9564 14.9509 10.9453 14.9443C10.9228 14.931 10.8864 14.9098 10.8379 14.8828C10.7403 14.8286 10.5936 14.7511 10.4092 14.6641C10.0371 14.4886 9.52602 14.2822 8.95605 14.1465C7.79174 13.8693 6.59959 13.9259 5.70703 14.8184C5.06801 15.4574 4.95326 16.0771 5.02344 16.6377C5.10074 17.2542 5.41489 17.8564 5.73438 18.3164L5.8418 18.4951C6.05901 18.9181 6.05068 19.3769 5.95801 19.7285C5.86503 20.0812 5.65466 20.4577 5.30664 20.7217L5.14941 20.8281C4.66857 21.1121 4.00002 21.7146 4 23.1113C4.00005 23.6889 4.14161 23.9975 4.26855 24.167C4.39894 24.3408 4.58319 24.4594 4.81641 24.5371C5.05628 24.617 5.31592 24.6426 5.53125 24.6426C5.63537 24.6426 5.72066 24.6362 5.77637 24.6309C5.80379 24.6282 5.8235 24.6264 5.83398 24.625L5.83691 24.624C6.38101 24.5341 6.8954 24.9022 6.98633 25.4463C7.07713 25.991 6.70881 26.5068 6.16406 26.5977H6.16211L6.16016 26.5986C6.16016 26.5986 6.15629 26.5983 6.1543 26.5986C6.15039 26.5993 6.1459 26.6008 6.14062 26.6016C6.1296 26.6032 6.11535 26.6052 6.09863 26.6074C6.06516 26.6119 6.02021 26.6169 5.96582 26.6221C5.85748 26.6324 5.70828 26.6426 5.53125 26.6426C5.18411 26.6426 4.69367 26.6046 4.18359 26.4346C3.66691 26.2623 3.10097 25.9432 2.66895 25.3672C2.23357 24.7866 2.00005 24.0331 2 23.1113C2.00002 21.0213 3.01729 19.8382 3.93848 19.2266C3.56688 18.6469 3.15714 17.8285 3.03906 16.8867C2.89744 15.7566 3.18738 14.5099 4.29297 13.4043Z" fill="#084C95"></path>
    <path d="M40 14C40.5523 14 41 14.4477 41 15C41 15.5523 40.5523 16 40 16C39.4477 16 39 15.5523 39 15C39 14.4477 39.4477 14 40 14Z" fill="#084C95"></path>
    <path d="M40 4C40.5523 4 41 4.44772 41 5V12C41 12.5523 40.5523 13 40 13C39.4477 13 39 12.5523 39 12V5C39 4.44772 39.4477 4 40 4Z" fill="#084C95"></path>
    <path fill-rule="evenodd" clip-rule="evenodd" d="M40 0C45.5228 0 50 4.47715 50 10C50 15.5228 45.5228 20 40 20C34.4772 20 30 15.5228 30 10C30 4.47715 34.4772 0 40 0ZM40 2C35.5817 2 32 5.58172 32 10C32 14.4183 35.5817 18 40 18C44.4183 18 48 14.4183 48 10C48 5.58172 44.4183 2 40 2Z" fill="#084C95"></path>
    <path d="M17 11C17.5522 11 17.9999 11.4478 18 12C18 12.5523 17.5523 13 17 13C16.4477 13 16 12.5523 16 12C16.0001 11.4478 16.4478 11 17 11Z" fill="#084C95"></path>
  </symbol>
  <symbol fill="none" xmlns="http://www.w3.org/2000/svg" viewBox="0 0 50 50" id="docs">
    <path d="M30 34C29.4477 34 29 34.4477 29 35C29 35.5523 29.4477 36 30 36H36C36.5523 36 37 35.5523 37 35C37 34.4477 36.5523 34 36 34H30Z" fill="#084C95"></path>
    <path d="M20 30C19.4477 30 19 30.4477 19 31C19 31.5523 19.4477 32 20 32H36C36.5523 32 37 31.5523 37 31C37 30.4477 36.5523 30 36 30H20Z" fill="#084C95"></path>
    <path d="M20 26C19.4477 26 19 26.4477 19 27C19 27.5523 19.4477 28 20 28H36C36.5523 28 37 27.5523 37 27C37 26.4477 36.5523 26 36 26H20Z" fill="#084C95"></path>
    <path d="M20 22C19.4477 22 19 22.4477 19 23C19 23.5523 19.4477 24 20 24H36C36.5523 24 37 23.5523 37 23C37 22.4477 36.5523 22 36 22H20Z" fill="#084C95"></path>
    <path d="M30 9C29.4477 9 29 9.44772 29 10C29 10.5523 29.4477 11 30 11H36C36.5523 11 37 10.5523 37 10C37 9.44772 36.5523 9 36 9H30Z" fill="#084C95"></path>
    <path fill-rule="evenodd" clip-rule="evenodd" d="M24 3L20 7H8C6.91585 7.05706 6 7.86725 6 9V45C6.05809 46.1038 6.87859 46.941 8 47H36C37.1214 46.941 37.9419 46.1038 38 45V43H42C43.1046 43 44 42.1046 44 41V5C44 3.89543 43.1046 3 42 3H24ZM42 5V41H14V15H20L20.2061 14.9951C22.2512 14.8913 23.8913 13.2512 23.9951 11.2061L24 11V5H42ZM22 11C22 12.1046 21.1046 13 20 13H16.8281L22 7.82812V11ZM12 41C12 42.1046 12.8954 43 14 43H36V45H8V9H18L12 15V41Z" fill="#084C95"></path>
  </symbol>
  <symbol fill="none" xmlns="http://www.w3.org/2000/svg" viewBox="0 0 50 50" id="docs_aprove">
    <path fill-rule="evenodd" clip-rule="evenodd" d="M30.2559 3C29.8064 3.62452 29.4161 4.29362 29.0918 5H24V11L23.9951 11.2061C23.8913 13.2512 22.2512 14.8913 20.2061 14.9951L20 15H14V41H42V21.832C42.6886 21.7165 43.3565 21.541 44 21.3135V41C44 42.1046 43.1046 43 42 43H38V45C37.9419 46.1038 37.1214 46.941 36 47H8C6.8786 46.941 6.05809 46.1038 6 45V9C6 7.86725 6.91585 7.05706 8 7H20L24 3H30.2559ZM8 45H36V43H14C12.8954 43 12 42.1046 12 41V15L18 9H8V45ZM16.8281 13H20C21.1046 13 22 12.1046 22 11V7.82812L16.8281 13Z" fill="#084C95"></path>
    <path d="M36 34C36.5523 34 37 34.4477 37 35C37 35.5523 36.5523 36 36 36H30C29.4477 36 29 35.5523 29 35C29 34.4477 29.4477 34 30 34H36Z" fill="#084C95"></path>
    <path d="M36 30C36.5523 30 37 30.4477 37 31C37 31.5523 36.5523 32 36 32H20C19.4477 32 19 31.5523 19 31C19 30.4477 19.4477 30 20 30H36Z" fill="#084C95"></path>
    <path d="M36 26C36.5523 26 37 26.4477 37 27C37 27.5523 36.5523 28 36 28H20C19.4477 28 19 27.5523 19 27C19 26.4477 19.4477 26 20 26H36Z" fill="#084C95"></path>
    <path d="M36 22C36.5523 22 37 22.4477 37 23C37 23.5523 36.5523 24 36 24H20C19.4477 24 19 23.5523 19 23C19 22.4477 19.4477 22 20 22H36Z" fill="#084C95"></path>
    <path d="M40 14C40.5523 14 41 14.4477 41 15C41 15.5523 40.5523 16 40 16C39.4477 16 39 15.5523 39 15C39 14.4477 39.4477 14 40 14Z" fill="#084C95"></path>
    <path d="M40 4C40.5523 4 41 4.44772 41 5V12C41 12.5523 40.5523 13 40 13C39.4477 13 39 12.5523 39 12V5C39 4.44772 39.4477 4 40 4Z" fill="#084C95"></path>
    <path fill-rule="evenodd" clip-rule="evenodd" d="M40 0C45.5228 0 50 4.47715 50 10C50 15.5228 45.5228 20 40 20C34.4772 20 30 15.5228 30 10C30 4.47715 34.4772 0 40 0ZM40 2C35.5817 2 32 5.58172 32 10C32 14.4183 35.5817 18 40 18C44.4183 18 48 14.4183 48 10C48 5.58172 44.4183 2 40 2Z" fill="#084C95"></path>
  </symbol>
  <symbol fill="none" xmlns="http://www.w3.org/2000/svg" viewBox="0 0 50 50" id="docs_less">
    <path fill-rule="evenodd" clip-rule="evenodd" d="M30.2559 3C29.8064 3.62452 29.4161 4.29362 29.0918 5H24V11L23.9951 11.2061C23.8913 13.2512 22.2512 14.8913 20.2061 14.9951L20 15H14V41H42V21.832C42.6886 21.7165 43.3565 21.541 44 21.3135V41C44 42.1046 43.1046 43 42 43H38V45C37.9419 46.1038 37.1214 46.941 36 47H8C6.8786 46.941 6.05809 46.1038 6 45V9C6 7.86725 6.91585 7.05706 8 7H20L24 3H30.2559ZM8 45H36V43H14C12.8954 43 12 42.1046 12 41V15L18 9H8V45ZM16.8281 13H20C21.1046 13 22 12.1046 22 11V7.82812L16.8281 13Z" fill="#084C95"></path>
    <path d="M36 34C36.5523 34 37 34.4477 37 35C37 35.5523 36.5523 36 36 36H30C29.4477 36 29 35.5523 29 35C29 34.4477 29.4477 34 30 34H36Z" fill="#084C95"></path>
    <path d="M36 30C36.5523 30 37 30.4477 37 31C37 31.5523 36.5523 32 36 32H20C19.4477 32 19 31.5523 19 31C19 30.4477 19.4477 30 20 30H36Z" fill="#084C95"></path>
    <path d="M36 26C36.5523 26 37 26.4477 37 27C37 27.5523 36.5523 28 36 28H20C19.4477 28 19 27.5523 19 27C19 26.4477 19.4477 26 20 26H36Z" fill="#084C95"></path>
    <path d="M36 22C36.5523 22 37 22.4477 37 23C37 23.5523 36.5523 24 36 24H20C19.4477 24 19 23.5523 19 23C19 22.4477 19.4477 22 20 22H36Z" fill="#084C95"></path>
    <path d="M36.293 6.29297C36.6591 5.92689 37.2381 5.90427 37.6309 6.22461L37.707 6.29297L40 8.58594L42.293 6.29297L42.3691 6.22461C42.7619 5.9043 43.3409 5.92687 43.707 6.29297C44.0731 6.65907 44.0957 7.2381 43.7754 7.63086L43.707 7.70703L41.4141 10L43.707 12.293L43.7754 12.3691C44.0957 12.7619 44.0731 13.3409 43.707 13.707C43.3409 14.0731 42.7619 14.0957 42.3691 13.7754L42.293 13.707L40 11.4141L37.707 13.707C37.3165 14.0975 36.6835 14.0975 36.293 13.707C35.9024 13.3165 35.9024 12.6835 36.293 12.293L38.5859 10L36.293 7.70703L36.2246 7.63086C35.9043 7.23809 35.9269 6.65908 36.293 6.29297Z" fill="#084C95"></path>
    <path fill-rule="evenodd" clip-rule="evenodd" d="M40 0C45.5228 0 50 4.47715 50 10C50 15.5228 45.5228 20 40 20C34.4772 20 30 15.5228 30 10C30 4.47715 34.4772 0 40 0ZM40 2C35.5817 2 32 5.58172 32 10C32 14.4183 35.5817 18 40 18C44.4183 18 48 14.4183 48 10C48 5.58172 44.4183 2 40 2Z" fill="#084C95"></path>
  </symbol>
  <symbol fill="none" xmlns="http://www.w3.org/2000/svg" viewBox="0 0 50 50" id="kettle">
    <path fill-rule="evenodd" clip-rule="evenodd" d="M25 11C26.6569 11 28 12.3431 28 14V29L27.9961 29.1543C27.9158 30.7394 26.6051 32 25 32C23.3949 32 22.0842 30.7394 22.0039 29.1543L22 29V14C22 12.3431 23.3431 11 25 11ZM25 13C24.4823 13 24.0562 13.3933 24.0049 13.8975L24 14V29C24 29.5523 24.4477 30 25 30C25.5523 30 26 29.5523 26 29V14C26 13.4477 25.5523 13 25 13Z" fill="#084C95"></path>
    <path fill-rule="evenodd" clip-rule="evenodd" d="M28.3086 2.00781C30.9711 2.1427 33.1746 4.01347 33.8125 6.51074C35.7941 7.38786 37.2201 9.3085 37.373 11.6006L38.8662 34H39V36C39 37.798 38.2089 39.4111 36.9561 40.5107C38.1756 41.196 39 42.5015 39 44L38.9893 44.2041C38.8938 45.1457 38.1457 45.8938 37.2041 45.9893L37 46H13L12.7959 45.9893C11.8543 45.8938 11.1062 45.1457 11.0107 44.2041L11 44C11 42.5018 11.8238 41.1962 13.043 40.5107C11.7904 39.4111 11 37.7978 11 36V34H11.1338L12.2217 17.6748C12.2034 17.6611 12.1838 17.6464 12.1631 17.6309C12.0078 17.5144 11.7862 17.3469 11.5195 17.1396C10.9867 16.7256 10.2681 16.1499 9.53125 15.5088C8.79779 14.8706 8.02792 14.1515 7.40234 13.4512C6.85025 12.8331 6.29432 12.1056 6.07031 11.3926L6.03027 11.25L5.84668 10.5186L6.5 10.1406L6.73535 10.0146C7.94463 9.40721 9.6377 9.17597 10.9238 9.07715C11.6399 9.02214 12.2885 9.00464 12.7578 9.00098C12.993 8.99914 13.1845 9.00085 13.3184 9.00293C13.3541 9.00349 13.3857 9.00339 13.4131 9.00391C14.0481 7.90321 15.0215 7.02662 16.1865 6.51074C16.8244 4.01336 19.0288 2.14271 21.6914 2.00781L22 2H28L28.3086 2.00781ZM15 42C13.9643 42 13.113 42.7872 13.0107 43.7959L13 44H37C37 42.8954 36.1046 42 35 42H15ZM13 36C13 38.2091 14.7909 40 17 40H33C35.2091 40 37 38.2091 37 36H13ZM18.6133 8C16.5074 8.00002 14.7621 9.6332 14.6221 11.7344L13.1377 34H36.8623L35.3779 11.7344C35.2379 9.6332 33.4926 8.00002 31.3867 8H18.6133ZM12.4258 11.0088C12.0397 11.017 11.5742 11.033 11.0762 11.0713C10.1271 11.1442 9.16117 11.2849 8.39551 11.5117C8.52818 11.6906 8.69333 11.8939 8.89453 12.1191C9.44077 12.7306 10.1398 13.3875 10.8438 14C11.293 14.3909 11.7394 14.755 12.1357 15.0732L12.4258 11.0088ZM22 4C20.5196 4 19.2278 4.80464 18.5361 6H31.4639C30.7722 4.80464 29.4804 4 28 4H22Z" fill="#084C95"></path>
  </symbol>
  <symbol fill="none" xmlns="http://www.w3.org/2000/svg" viewBox="0 0 50 50" id="kids">
    <path d="M30.0791 33C30.888 33 31.2659 33.8402 30.6094 34.3125C29.487 35.1194 27.6542 36 25 36C22.3457 36 20.513 35.1194 19.3906 34.3125C18.7339 33.8402 19.1119 33 19.9209 33H30.0791Z" fill="#084C95"></path>
    <path d="M19 23C20.1046 23 21 23.8954 21 25C21 26.1046 20.1046 27 19 27C17.8954 27 17 26.1046 17 25C17 23.8954 17.8954 23 19 23Z" fill="#084C95"></path>
    <path d="M31 23C32.1046 23 33 23.8954 33 25C33 26.1046 32.1046 27 31 27C29.8954 27 29 26.1046 29 25C29 23.8954 29.8954 23 31 23Z" fill="#084C95"></path>
    <path fill-rule="evenodd" clip-rule="evenodd" d="M32.4482 5.01074C37.5969 5.2238 42.0603 8.71254 43.4863 13.7031L43.543 13.9014C44.1465 16.0143 42.9386 18.1169 41 18.7822V22L41.2061 22.0049C43.2512 22.1087 44.8913 23.7488 44.9951 25.7939L45 26V27C45 29.14 43.3194 30.8879 41.2061 30.9951L41 31V32C41 39.1797 35.1797 45 28 45H22C14.8203 45 9 39.1797 9 32V31L8.79395 30.9951C6.7488 30.8913 5.10865 29.2512 5.00488 27.2061L5 27V26C5 23.86 6.68056 22.1121 8.79395 22.0049L9 22V18.7832C7.1344 18.1432 5.94578 16.1714 6.39648 14.1406L6.45703 13.9014L6.51367 13.7031C7.93971 8.71253 12.4031 5.22376 17.5518 5.01074L18.0518 5H31.9482L32.4482 5.01074ZM18.0361 14.7002C18.192 14.2633 17.6027 13.9555 17.333 14.333L14.2988 18.5811L14.2236 18.6748C14.0624 18.8513 13.8428 18.9645 13.6055 18.9932L13.4854 19H11V32C11 38.0751 15.9249 43 22 43H28C34.0751 43 39 38.0751 39 32V19H17.9189L17.792 18.9922C17.17 18.9146 16.7597 18.2746 16.9775 17.6641L18.0361 14.7002ZM9 24C7.89543 24 7 24.8954 7 26V27C7 28.1046 7.89543 29 9 29V24ZM41 29C42.1046 29 43 28.1046 43 27V26C43 24.8954 42.1046 24 41 24V29ZM18.0518 7C13.587 7 9.66311 9.95993 8.43652 14.2529L8.37988 14.4502C8.01486 15.7278 8.97407 16.9999 10.3027 17H12.9707L15.7061 13.1709L15.8633 12.9697C17.4871 11.0838 20.6166 12.72 19.9941 15.1299L19.9189 15.373L19.3379 17H39.6973C40.9429 16.9998 41.8636 15.882 41.6729 14.6895L41.6201 14.4502L41.5635 14.2529C40.3752 10.0941 36.6557 7.18646 32.3652 7.00879L31.9482 7H18.0518Z" fill="#084C95"></path>
  </symbol>
  <symbol fill="none" xmlns="http://www.w3.org/2000/svg" viewBox="0 0 50 50" id="kids_aprove">
    <path d="M29.0918 5C28.7985 5.63893 28.5564 6.30662 28.3779 7H18.0518C13.587 7 9.66311 9.95993 8.43652 14.2529L8.37988 14.4502C8.01486 15.7278 8.97407 16.9999 10.3027 17H12.9707L15.7061 13.1709L15.8633 12.9697C17.4871 11.0838 20.6166 12.72 19.9941 15.1299L19.9189 15.373L19.3379 17H30.2559C30.7835 17.7332 31.3914 18.4037 32.0674 19H17.9189L17.792 18.9922C17.17 18.9146 16.7597 18.2746 16.9775 17.6641L18.0361 14.7002C18.192 14.2633 17.6027 13.9555 17.333 14.333L14.2988 18.5811L14.2236 18.6748C14.0624 18.8513 13.8428 18.9645 13.6055 18.9932L13.4854 19H11V32C11 38.0751 15.9249 43 22 43H28C34.0751 43 39 38.0751 39 32V21.958C39.3298 21.9852 39.6632 22 40 22C40.3368 22 40.6702 21.9852 41 21.958V22L41.2061 22.0049C43.2512 22.1087 44.8913 23.7488 44.9951 25.7939L45 26V27C45 29.14 43.3194 30.8879 41.2061 30.9951L41 31V32C41 39.1797 35.1797 45 28 45H22C14.8203 45 9 39.1797 9 32V31L8.79395 30.9951C6.7488 30.8913 5.10865 29.2512 5.00488 27.2061L5 27V26C5 23.86 6.68056 22.1121 8.79395 22.0049L9 22V18.7832C7.1344 18.1432 5.94578 16.1714 6.39648 14.1406L6.45703 13.9014L6.51367 13.7031C7.93971 8.71253 12.4031 5.22376 17.5518 5.01074L18.0518 5H29.0918ZM30.0791 33C30.888 33 31.2659 33.8402 30.6094 34.3125C29.487 35.1194 27.6542 36 25 36C22.3457 36 20.513 35.1194 19.3906 34.3125C18.7339 33.8402 19.1119 33 19.9209 33H30.0791ZM9 24C7.89543 24 7 24.8954 7 26V27C7 28.1046 7.89543 29 9 29V24ZM41 29C42.1046 29 43 28.1046 43 27V26C43 24.8954 42.1046 24 41 24V29ZM19 23C20.1046 23 21 23.8954 21 25C21 26.1046 20.1046 27 19 27C17.8954 27 17 26.1046 17 25C17 23.8954 17.8954 23 19 23ZM31 23C32.1046 23 33 23.8954 33 25C33 26.1046 32.1046 27 31 27C29.8954 27 29 26.1046 29 25C29 23.8954 29.8954 23 31 23ZM40 0C45.5228 0 50 4.47715 50 10C50 15.5228 45.5228 20 40 20C34.4772 20 30 15.5228 30 10C30 4.47715 34.4772 0 40 0ZM40 2C35.5817 2 32 5.58172 32 10C32 14.4183 35.5817 18 40 18C44.4183 18 48 14.4183 48 10C48 5.58172 44.4183 2 40 2ZM40 14C40.5523 14 41 14.4477 41 15C41 15.5523 40.5523 16 40 16C39.4477 16 39 15.5523 39 15C39 14.4477 39.4477 14 40 14ZM40 4C40.5523 4 41 4.44772 41 5V12C41 12.5523 40.5523 13 40 13C39.4477 13 39 12.5523 39 12V5C39 4.44772 39.4477 4 40 4Z" fill="#084C95"></path>
  </symbol>
  <symbol fill="none" xmlns="http://www.w3.org/2000/svg" viewBox="0 0 50 50" id="kids_less">
    <path fill-rule="evenodd" clip-rule="evenodd" d="M29.0918 5C28.7985 5.63893 28.5564 6.30662 28.3779 7H18.0518C13.587 7 9.66311 9.95993 8.43652 14.2529L8.37988 14.4502C8.01486 15.7278 8.97407 16.9999 10.3027 17H12.9707L15.7061 13.1709L15.8633 12.9697C17.4871 11.0838 20.6166 12.72 19.9941 15.1299L19.9189 15.373L19.3379 17H30.2559C30.7835 17.7332 31.3914 18.4037 32.0674 19H17.9189L17.792 18.9922C17.17 18.9146 16.7597 18.2746 16.9775 17.6641L18.0361 14.7002C18.192 14.2633 17.6027 13.9555 17.333 14.333L14.2988 18.5811L14.2236 18.6748C14.0624 18.8513 13.8428 18.9645 13.6055 18.9932L13.4854 19H11V32C11 38.0751 15.9249 43 22 43H28C34.0751 43 39 38.0751 39 32V21.958C39.3298 21.9852 39.6632 22 40 22C40.3368 22 40.6702 21.9852 41 21.958V22L41.2061 22.0049C43.2512 22.1087 44.8913 23.7488 44.9951 25.7939L45 26V27C45 29.14 43.3194 30.8879 41.2061 30.9951L41 31V32C41 39.1797 35.1797 45 28 45H22C14.8203 45 9 39.1797 9 32V31L8.79395 30.9951C6.7488 30.8913 5.10865 29.2512 5.00488 27.2061L5 27V26C5 23.86 6.68056 22.1121 8.79395 22.0049L9 22V18.7832C7.1344 18.1432 5.94578 16.1714 6.39648 14.1406L6.45703 13.9014L6.51367 13.7031C7.93971 8.71253 12.4031 5.22376 17.5518 5.01074L18.0518 5H29.0918ZM9 24C7.89543 24 7 24.8954 7 26V27C7 28.1046 7.89543 29 9 29V24ZM41 29C42.1046 29 43 28.1046 43 27V26C43 24.8954 42.1046 24 41 24V29Z" fill="#084C95"></path>
    <path d="M30.0791 33C30.888 33 31.2659 33.8402 30.6094 34.3125C29.487 35.1194 27.6542 36 25 36C22.3457 36 20.513 35.1194 19.3906 34.3125C18.7339 33.8402 19.1119 33 19.9209 33H30.0791Z" fill="#084C95"></path>
    <path d="M19 23C20.1046 23 21 23.8954 21 25C21 26.1046 20.1046 27 19 27C17.8954 27 17 26.1046 17 25C17 23.8954 17.8954 23 19 23Z" fill="#084C95"></path>
    <path d="M31 23C32.1046 23 33 23.8954 33 25C33 26.1046 32.1046 27 31 27C29.8954 27 29 26.1046 29 25C29 23.8954 29.8954 23 31 23Z" fill="#084C95"></path>
    <path d="M36.293 6.29297C36.6591 5.92689 37.2381 5.90427 37.6309 6.22461L37.707 6.29297L40 8.58594L42.293 6.29297L42.3691 6.22461C42.7619 5.9043 43.3409 5.92687 43.707 6.29297C44.0731 6.65907 44.0957 7.2381 43.7754 7.63086L43.707 7.70703L41.4141 10L43.707 12.293L43.7754 12.3691C44.0957 12.7619 44.0731 13.3409 43.707 13.707C43.3409 14.0731 42.7619 14.0957 42.3691 13.7754L42.293 13.707L40 11.4141L37.707 13.707C37.3165 14.0975 36.6835 14.0975 36.293 13.707C35.9024 13.3165 35.9024 12.6835 36.293 12.293L38.5859 10L36.293 7.70703L36.2246 7.63086C35.9043 7.23809 35.9269 6.65908 36.293 6.29297Z" fill="#084C95"></path>
    <path fill-rule="evenodd" clip-rule="evenodd" d="M40 0C45.5228 0 50 4.47715 50 10C50 15.5228 45.5228 20 40 20C34.4772 20 30 15.5228 30 10C30 4.47715 34.4772 0 40 0ZM40 2C35.5817 2 32 5.58172 32 10C32 14.4183 35.5817 18 40 18C44.4183 18 48 14.4183 48 10C48 5.58172 44.4183 2 40 2Z" fill="#084C95"></path>
  </symbol>
  <symbol fill="none" xmlns="http://www.w3.org/2000/svg" viewBox="0 0 50 50" id="microwave">
    <path fill-rule="evenodd" clip-rule="evenodd" d="M30.2041 14.0107C31.2128 14.113 32 14.9643 32 16V32L31.9893 32.2041C31.8938 33.1457 31.1457 33.8938 30.2041 33.9893L30 34H9L8.7959 33.9893C7.85435 33.8938 7.1062 33.1457 7.01074 32.2041L7 32V16C7 14.9643 7.78722 14.113 8.7959 14.0107L9 14H30L30.2041 14.0107ZM9 32H30V16H9V32Z" fill="#084C95"></path>
    <path fill-rule="evenodd" clip-rule="evenodd" d="M40.5 29C41.8807 29 43 30.1193 43 31.5C43 32.8807 41.8807 34 40.5 34C39.1193 34 38 32.8807 38 31.5C38 30.1193 39.1193 29 40.5 29ZM40.5 31C40.2239 31 40 31.2239 40 31.5C40 31.7761 40.2239 32 40.5 32C40.7761 32 41 31.7761 41 31.5C41 31.2239 40.7761 31 40.5 31Z" fill="#084C95"></path>
    <path d="M42 24C42.5523 24 43 24.4477 43 25C43 25.5523 42.5523 26 42 26H39C38.4477 26 38 25.5523 38 25C38 24.4477 38.4477 24 39 24H42Z" fill="#084C95"></path>
    <path d="M42 21C42.5523 21 43 21.4477 43 22C43 22.5523 42.5523 23 42 23H39C38.4477 23 38 22.5523 38 22C38 21.4477 38.4477 21 39 21H42Z" fill="#084C95"></path>
    <path fill-rule="evenodd" clip-rule="evenodd" d="M42.1025 13.0049C42.6067 13.0562 43 13.4823 43 14V18L42.9951 18.1025C42.9472 18.573 42.573 18.9472 42.1025 18.9951L42 19H39L38.8975 18.9951C38.427 18.9472 38.0528 18.573 38.0049 18.1025L38 18V14C38 13.4823 38.3933 13.0562 38.8975 13.0049L39 13H42L42.1025 13.0049ZM40 17H41V15H40V17Z" fill="#084C95"></path>
    <path fill-rule="evenodd" clip-rule="evenodd" d="M43.2061 10.0049C45.3194 10.1121 47 11.86 47 14V34L46.9951 34.2061C46.8913 36.2512 45.2512 37.8913 43.2061 37.9951L43 38H40C40 38.5523 39.5523 39 39 39H37C36.4477 39 36 38.5523 36 38H14C14 38.5523 13.5523 39 13 39H11C10.4477 39 10 38.5523 10 38H7L6.79395 37.9951C4.7488 37.8913 3.10865 36.2512 3.00488 34.2061L3 34V14C3 11.86 4.68056 10.1121 6.79395 10.0049L7 10H43L43.2061 10.0049ZM7 12C5.89543 12 5 12.8954 5 14V34C5 35.1046 5.89543 36 7 36H34V12H7ZM36 36H43C44.1046 36 45 35.1046 45 34V14C45 12.8954 44.1046 12 43 12H36V36Z" fill="#084C95"></path>
  </symbol>
  <symbol fill="none" xmlns="http://www.w3.org/2000/svg" viewBox="0 0 50 50" id="parking">
    <path d="M45 6C46.1046 6 47 6.89543 47 8V43C47 43.5523 46.5523 44 46 44C45.4477 44 45 43.5523 45 43V8H26V43C26 43.5523 25.5523 44 25 44C24.4477 44 24 43.5523 24 43V8H5V43C5 43.5523 4.55228 44 4 44C3.44772 44 3 43.5523 3 43V8C3 6.89543 3.89543 6 5 6H45Z" fill="#084C95"></path>
    <path fill-rule="evenodd" clip-rule="evenodd" d="M17.2061 12.0049C19.3194 12.1121 21 13.86 21 16V36L20.9951 36.2061C20.8913 38.2512 19.2512 39.8913 17.2061 39.9951L17 40H12L11.7939 39.9951C9.7488 39.8913 8.10865 38.2512 8.00488 36.2061L8 36V16C8 13.86 9.68056 12.1121 11.7939 12.0049L12 12H17L17.2061 12.0049ZM10 36C10 37.1046 10.8954 38 12 38H17C18.1046 38 19 37.1046 19 36H17C17 36.5523 16.5523 37 16 37H13C12.4477 37 12 36.5523 12 36H10ZM10 34H19V23H10V34ZM12 14C10.8954 14 10 14.8954 10 16V21H12V20C12 19.4477 12.4477 19 13 19H16C16.5523 19 17 19.4477 17 20V21H19V16C19 14.8954 18.1046 14 17 14H12Z" fill="#084C95"></path>
    <path fill-rule="evenodd" clip-rule="evenodd" d="M37.2061 18.0049C39.3194 18.1121 41 19.86 41 22V24L40.9951 24.2061C40.8913 26.2512 39.2512 27.8913 37.2061 27.9951L37 28H32V34H30V18H37L37.2061 18.0049ZM32 26H37C38.1046 26 39 25.1046 39 24V22C39 20.8954 38.1046 20 37 20H32V26Z" fill="#084C95"></path>
  </symbol>
  <symbol fill="none" xmlns="http://www.w3.org/2000/svg" viewBox="0 0 50 50" id="parking_aprove">
    <path d="M28.6855 6C28.4581 6.64347 28.2825 7.31145 28.167 8H26V43C26 43.5523 25.5523 44 25 44C24.4477 44 24 43.5523 24 43V8H5V43C5 43.5523 4.55228 44 4 44C3.44772 44 3 43.5523 3 43V8C3 6.89543 3.89543 6 5 6H28.6855Z" fill="#084C95"></path>
    <path d="M47 43C47 43.5523 46.5523 44 46 44C45.4477 44 45 43.5523 45 43V20.9072C45.7064 20.5829 46.3755 20.1927 47 19.7432V43Z" fill="#084C95"></path>
    <path fill-rule="evenodd" clip-rule="evenodd" d="M17.2061 12.0049C19.3194 12.1121 21 13.86 21 16V36L20.9951 36.2061C20.8913 38.2512 19.2512 39.8913 17.2061 39.9951L17 40H12L11.7939 39.9951C9.7488 39.8913 8.10865 38.2512 8.00488 36.2061L8 36V16C8 13.86 9.68056 12.1121 11.7939 12.0049L12 12H17L17.2061 12.0049ZM10 36C10 37.1046 10.8954 38 12 38H17C18.1046 38 19 37.1046 19 36H17C17 36.5523 16.5523 37 16 37H13C12.4477 37 12 36.5523 12 36H10ZM10 34H19V23H10V34ZM12 14C10.8954 14 10 14.8954 10 16V21H12V20C12 19.4477 12.4477 19 13 19H16C16.5523 19 17 19.4477 17 20V21H19V16C19 14.8954 18.1046 14 17 14H12Z" fill="#084C95"></path>
    <path d="M31.0576 18C31.7385 18.7606 32.515 19.4331 33.3682 20H32V26H37C38.1046 26 39 25.1046 39 24V22C39 21.9856 38.9974 21.9713 38.9971 21.957C39.3278 21.9844 39.6622 22 40 22C40.3361 22 40.6689 21.9851 40.998 21.958C40.9982 21.972 41 21.986 41 22V24L40.9951 24.2061C40.8913 26.2512 39.2512 27.8913 37.2061 27.9951L37 28H32V34H30V18H31.0576Z" fill="#084C95"></path>
    <path d="M40 14C40.5523 14 41 14.4477 41 15C41 15.5523 40.5523 16 40 16C39.4477 16 39 15.5523 39 15C39 14.4477 39.4477 14 40 14Z" fill="#084C95"></path>
    <path d="M40 4C40.5523 4 41 4.44772 41 5V12C41 12.5523 40.5523 13 40 13C39.4477 13 39 12.5523 39 12V5C39 4.44772 39.4477 4 40 4Z" fill="#084C95"></path>
    <path fill-rule="evenodd" clip-rule="evenodd" d="M40 0C45.5228 0 50 4.47715 50 10C50 15.5228 45.5228 20 40 20C34.4772 20 30 15.5228 30 10C30 4.47715 34.4772 0 40 0ZM40 2C35.5817 2 32 5.58172 32 10C32 14.4183 35.5817 18 40 18C44.4183 18 48 14.4183 48 10C48 5.58172 44.4183 2 40 2Z" fill="#084C95"></path>
  </symbol>
  <symbol fill="none" xmlns="http://www.w3.org/2000/svg" viewBox="0 0 50 50" id="parking_less">
    <path d="M28.6855 6C28.4581 6.64347 28.2825 7.31145 28.167 8H26V43C26 43.5523 25.5523 44 25 44C24.4477 44 24 43.5523 24 43V8H5V43C5 43.5523 4.55228 44 4 44C3.44772 44 3 43.5523 3 43V8C3 6.89543 3.89543 6 5 6H28.6855Z" fill="#084C95"></path>
    <path d="M47 43C47 43.5523 46.5523 44 46 44C45.4477 44 45 43.5523 45 43V20.9072C45.7064 20.5829 46.3755 20.1927 47 19.7432V43Z" fill="#084C95"></path>
    <path fill-rule="evenodd" clip-rule="evenodd" d="M17.2061 12.0049C19.3194 12.1121 21 13.86 21 16V36L20.9951 36.2061C20.8913 38.2512 19.2512 39.8913 17.2061 39.9951L17 40H12L11.7939 39.9951C9.7488 39.8913 8.10865 38.2512 8.00488 36.2061L8 36V16C8 13.86 9.68056 12.1121 11.7939 12.0049L12 12H17L17.2061 12.0049ZM10 36C10 37.1046 10.8954 38 12 38H17C18.1046 38 19 37.1046 19 36H17C17 36.5523 16.5523 37 16 37H13C12.4477 37 12 36.5523 12 36H10ZM10 34H19V23H10V34ZM12 14C10.8954 14 10 14.8954 10 16V21H12V20C12 19.4477 12.4477 19 13 19H16C16.5523 19 17 19.4477 17 20V21H19V16C19 14.8954 18.1046 14 17 14H12Z" fill="#084C95"></path>
    <path d="M31.0576 18C31.7385 18.7606 32.515 19.4331 33.3682 20H32V26H37C38.1046 26 39 25.1046 39 24V22C39 21.9856 38.9974 21.9713 38.9971 21.957C39.3278 21.9844 39.6622 22 40 22C40.3361 22 40.6689 21.9851 40.998 21.958C40.9982 21.972 41 21.986 41 22V24L40.9951 24.2061C40.8913 26.2512 39.2512 27.8913 37.2061 27.9951L37 28H32V34H30V18H31.0576Z" fill="#084C95"></path>
    <path d="M36.293 6.29297C36.6591 5.92689 37.2381 5.90427 37.6309 6.22461L37.707 6.29297L40 8.58594L42.293 6.29297L42.3691 6.22461C42.7619 5.9043 43.3409 5.92687 43.707 6.29297C44.0731 6.65907 44.0957 7.2381 43.7754 7.63086L43.707 7.70703L41.4141 10L43.707 12.293L43.7754 12.3691C44.0957 12.7619 44.0731 13.3409 43.707 13.707C43.3409 14.0731 42.7619 14.0957 42.3691 13.7754L42.293 13.707L40 11.4141L37.707 13.707C37.3165 14.0975 36.6835 14.0975 36.293 13.707C35.9024 13.3165 35.9024 12.6835 36.293 12.293L38.5859 10L36.293 7.70703L36.2246 7.63086C35.9043 7.23809 35.9269 6.65908 36.293 6.29297Z" fill="#084C95"></path>
    <path fill-rule="evenodd" clip-rule="evenodd" d="M40 0C45.5228 0 50 4.47715 50 10C50 15.5228 45.5228 20 40 20C34.4772 20 30 15.5228 30 10C30 4.47715 34.4772 0 40 0ZM40 2C35.5817 2 32 5.58172 32 10C32 14.4183 35.5817 18 40 18C44.4183 18 48 14.4183 48 10C48 5.58172 44.4183 2 40 2Z" fill="#084C95"></path>
  </symbol>
  <symbol fill="none" xmlns="http://www.w3.org/2000/svg" viewBox="0 0 50 50" id="parties">
    <path fill-rule="evenodd" clip-rule="evenodd" d="M36.141 16.8213C35.6904 15.7057 34.3023 15.244 33.2279 15.8525L13.5814 26.9805L13.4583 27.0566C12.2263 27.8691 12.3122 29.6732 13.6644 30.3594L44.0277 45.7686C45.6802 46.6064 47.5327 45.0278 46.8578 43.3564L36.141 16.8213ZM44.973 44.0566L40.6722 41.873C41.7433 41.7063 42.796 41.4872 43.8265 41.2158L44.973 44.0566ZM43.0921 39.3975C41.3645 39.8394 39.5718 40.1317 37.7298 40.252C37.6639 40.2563 37.6 40.2666 37.5384 40.2822L31.7455 37.3428C35.1418 37.1274 38.3862 36.377 41.3871 35.1758L43.0921 39.3975ZM40.6576 33.3691C37.293 34.723 33.5969 35.4736 29.7162 35.4736H28.2015L28.098 35.4775C28.0906 35.4783 28.0829 35.4796 28.0755 35.4805L22.2494 32.5244C28.164 32.2246 33.6297 30.2995 38.1683 27.2061L40.6576 33.3691ZM37.4144 25.3389C32.7179 28.6644 26.9115 30.6309 20.6234 30.6309C19.9674 30.6308 19.3167 30.6095 18.6722 30.5674C18.5863 30.5618 18.5023 30.5678 18.4212 30.582L14.6097 28.6484L34.2562 17.5195L37.4144 25.3389Z" fill="#084C95"></path>
    <path d="M9.27573 20.5928C8.7925 20.3254 8.17483 20.4841 7.89584 20.9473L7.39096 21.7861L6.51596 21.3018C6.03274 21.0343 5.41409 21.1931 5.1351 21.6562C4.85653 22.1193 5.02232 22.7111 5.50522 22.9785L6.38022 23.4629L5.87534 24.3018C5.59647 24.7648 5.76169 25.3565 6.24448 25.624C6.72762 25.8914 7.34628 25.7335 7.62534 25.2705L8.13022 24.4316L9.00522 24.916C9.48828 25.1832 10.106 25.0243 10.3851 24.5615C10.6641 24.0983 10.4982 23.5057 10.015 23.2383L9.14096 22.7539L9.64584 21.915C9.92455 21.4519 9.75883 20.8601 9.27573 20.5928Z" fill="#084C95"></path>
    <path d="M8.50034 16.1055C7.94242 16.1055 7.4897 16.5385 7.48959 17.0732C7.48959 17.6081 7.94236 18.042 8.50034 18.042C12.0864 18.0421 14.4991 20.3538 15.221 21.4609C15.5169 21.9139 16.1397 22.0508 16.6126 21.7676C17.0855 21.4841 17.2295 20.887 16.9339 20.4336C15.9718 18.9583 12.996 16.1056 8.50034 16.1055Z" fill="#084C95"></path>
    <path d="M9.5101 9.60059C8.95222 9.6007 8.50034 10.0346 8.50034 10.5693C8.50064 11.1038 8.95242 11.537 9.5101 11.5371C12.2693 11.5371 14.807 12.599 16.89 13.9844C18.9741 15.3706 20.5311 17.0347 21.308 18.1094C21.6257 18.5489 22.2556 18.6579 22.7142 18.3535C23.1727 18.049 23.2876 17.4454 22.9701 17.0059C22.063 15.751 20.3358 13.9201 18.0423 12.3945C15.7475 10.8681 12.8124 9.60059 9.5101 9.60059Z" fill="#084C95"></path>
    <path d="M27.9046 5.25195C27.5347 4.89767 26.9498 4.87541 26.5531 5.18555L26.4759 5.25195L26.2113 5.52539C24.9371 6.93339 24.4617 8.93534 24.3265 10.7334C24.1796 12.6877 24.4188 14.621 24.6878 15.8242C24.805 16.3468 25.3418 16.6792 25.8871 16.5674C26.4323 16.4551 26.7791 15.9407 26.6624 15.418C26.4263 14.3616 26.2112 12.6136 26.3421 10.8721C26.4675 9.2054 26.8971 7.72814 27.7328 6.7998L27.9046 6.62109L27.974 6.54785C28.2976 6.16749 28.2745 5.6065 27.9046 5.25195Z" fill="#084C95"></path>
    <path d="M35.7787 6.90527C35.2207 6.90527 34.7679 7.33919 34.7679 7.87402V8.8418H33.7581C33.2002 8.8418 32.7474 9.27571 32.7474 9.81055C32.7475 10.3453 33.2002 10.7783 33.7581 10.7783H34.7679V11.7471C34.7679 12.2819 35.2207 12.7158 35.7787 12.7158C36.3366 12.7157 36.7884 12.2819 36.7884 11.7471V10.7783H37.7992C38.3571 10.7783 38.8088 10.3453 38.8089 9.81055C38.8089 9.27573 38.3571 8.84182 37.7992 8.8418H36.7884V7.87402C36.7884 7.33924 36.3366 6.90536 35.7787 6.90527Z" fill="#084C95"></path>
    <path fill-rule="evenodd" clip-rule="evenodd" d="M19.1087 4C17.7138 4 16.5824 5.08386 16.5824 6.4209C16.5824 7.75798 17.7138 8.8418 19.1087 8.8418C20.5035 8.8416 21.6341 7.75786 21.6341 6.4209C21.6341 5.08398 20.5035 4.0002 19.1087 4ZM19.1087 5.93652C19.3875 5.93672 19.6136 6.15365 19.6136 6.4209C19.6136 6.68819 19.3875 6.90508 19.1087 6.90527C18.8297 6.90527 18.6029 6.68832 18.6029 6.4209C18.6029 6.15353 18.8298 5.93652 19.1087 5.93652Z" fill="#084C95"></path>
  </symbol>
  <symbol fill="none" xmlns="http://www.w3.org/2000/svg" viewBox="0 0 50 50" id="parties_aprove">
    <path fill-rule="evenodd" clip-rule="evenodd" d="M30.5377 17.376C30.9509 17.9053 31.4054 18.4007 31.9 18.8535L14.61 28.6484L18.4215 30.582C18.5024 30.5679 18.5867 30.5618 18.6725 30.5674C19.3169 30.6094 19.9679 30.6308 20.6237 30.6309C26.9116 30.6308 32.7183 28.6643 37.4147 25.3389L35.7526 21.2236C36.5258 21.5164 37.3364 21.7332 38.1764 21.8613L46.858 43.3564C47.5328 45.0276 45.6804 46.6061 44.028 45.7686L13.6647 30.3594C12.3126 29.6732 12.2267 27.8691 13.4586 27.0566L13.5817 26.9805L30.5377 17.376ZM43.8268 41.2158C42.7964 41.4872 41.7435 41.7063 40.6725 41.873L44.9733 44.0566L43.8268 41.2158ZM41.3873 35.1758C38.3866 36.3769 35.1419 37.1274 31.7457 37.3428L37.5387 40.2822C37.6001 40.2666 37.6644 40.2563 37.7301 40.252C39.5719 40.1317 41.3649 39.8394 43.0924 39.3975L41.3873 35.1758ZM38.1686 27.2061C33.6301 30.2994 28.1641 32.2246 22.2496 32.5244L28.0758 35.4805C28.083 35.4796 28.0911 35.4782 28.0983 35.4775L28.2018 35.4736H29.7164C33.5971 35.4736 37.2934 34.723 40.6578 33.3691L38.1686 27.2061Z" fill="#084C95"></path>
    <path d="M7.89613 20.9473C8.17515 20.4842 8.79286 20.3255 9.27601 20.5928C9.75886 20.8602 9.92466 21.452 9.64613 21.915L9.14125 22.7539L10.0153 23.2383C10.4982 23.5057 10.6642 24.0985 10.3854 24.5615C10.1064 25.0242 9.48851 25.183 9.00551 24.916L8.13051 24.4316L7.62562 25.2705C7.34661 25.7334 6.72785 25.8912 6.24476 25.624C5.76206 25.3564 5.59681 24.7647 5.87562 24.3018L6.38051 23.4629L5.50551 22.9785C5.02268 22.7111 4.85688 22.1193 5.13539 21.6562C5.41441 21.1932 6.03309 21.0344 6.51625 21.3018L7.39125 21.7861L7.89613 20.9473Z" fill="#084C95"></path>
    <path d="M8.50062 16.1055C12.9961 16.1058 15.9721 18.9584 16.9342 20.4336C17.2296 20.8869 17.0855 21.484 16.6129 21.7676C16.1401 22.0507 15.5172 21.9137 15.2213 21.4609C14.4994 20.3538 12.0864 18.0423 8.50062 18.042C7.9427 18.0419 7.48988 17.608 7.48988 17.0732C7.48999 16.5385 7.94276 16.1055 8.50062 16.1055Z" fill="#084C95"></path>
    <path d="M39.9996 14C40.5519 14 40.9996 14.4477 40.9996 15C40.9996 15.5523 40.5519 16 39.9996 16C39.4476 15.9998 38.9996 15.5521 38.9996 15C38.9996 14.4479 39.4476 14.0002 39.9996 14Z" fill="#084C95"></path>
    <path d="M39.9996 4C40.5519 4 40.9996 4.44772 40.9996 5V12C40.9996 12.5523 40.5519 13 39.9996 13C39.4476 12.9998 38.9996 12.5521 38.9996 12V5C38.9996 4.44786 39.4476 4.00023 39.9996 4Z" fill="#084C95"></path>
    <path fill-rule="evenodd" clip-rule="evenodd" d="M39.9996 0C45.5225 0 49.9996 4.47715 49.9996 10C49.9996 15.5228 45.5225 20 39.9996 20C34.477 19.9998 29.9996 15.5227 29.9996 10C29.9996 4.47729 34.477 0.000227806 39.9996 0ZM39.9996 2C35.5816 2.00023 31.9996 5.58186 31.9996 10C31.9996 14.4181 35.5816 17.9998 39.9996 18C44.4179 18 47.9996 14.4183 47.9996 10C47.9996 5.58172 44.4179 2 39.9996 2Z" fill="#084C95"></path>
    <path d="M9.51039 9.60059C12.8125 9.60068 15.7478 10.8682 18.0426 12.3945C20.3359 13.92 22.0633 15.751 22.9703 17.0059C23.2877 17.4454 23.1727 18.049 22.7145 18.3535C22.2559 18.6578 21.626 18.5487 21.3082 18.1094C20.5314 17.0347 18.9743 15.3706 16.8903 13.9844C14.8074 12.5991 12.2694 11.5372 9.51039 11.5371C8.95275 11.5369 8.50093 11.1038 8.50062 10.5693C8.50062 10.0346 8.95256 9.60076 9.51039 9.60059Z" fill="#084C95"></path>
    <path d="M26.5534 5.18555C26.9501 4.8756 27.5351 4.89779 27.9049 5.25195C28.2746 5.60646 28.2977 6.16755 27.9743 6.54785L27.9049 6.62109L27.733 6.7998C26.8974 7.72814 26.4678 9.20545 26.3424 10.8721C26.2115 12.6135 26.4266 14.3616 26.6627 15.418C26.7793 15.9405 26.4323 16.455 25.8873 16.5674C25.3421 16.6792 24.8053 16.3467 24.6881 15.8242C24.4191 14.621 24.1799 12.6877 24.3268 10.7334C24.462 8.93537 24.9375 6.93338 26.2116 5.52539L26.4762 5.25195L26.5534 5.18555Z" fill="#084C95"></path>
    <path fill-rule="evenodd" clip-rule="evenodd" d="M19.109 4C20.5036 4.00038 21.6343 5.0841 21.6344 6.4209C21.6344 7.75775 20.5036 8.84142 19.109 8.8418C17.7141 8.84174 16.5827 7.75795 16.5827 6.4209C16.5827 5.0839 17.7142 4.00006 19.109 4ZM19.109 5.93652C18.8301 5.93658 18.6032 6.15357 18.6032 6.4209C18.6032 6.68828 18.8301 6.90522 19.109 6.90527C19.3877 6.9049 19.6139 6.68808 19.6139 6.4209C19.6138 6.15376 19.3876 5.9369 19.109 5.93652Z" fill="#084C95"></path>
  </symbol>
  <symbol fill="none" xmlns="http://www.w3.org/2000/svg" viewBox="0 0 50 50" id="parties_less">
    <path fill-rule="evenodd" clip-rule="evenodd" d="M30.5378 17.376C30.951 17.9053 31.4054 18.4007 31.9001 18.8535L14.61 28.6484L18.4216 30.582C18.5025 30.5679 18.5867 30.5618 18.6725 30.5674C19.317 30.6094 19.9679 30.6308 20.6237 30.6309C26.9117 30.6308 32.7184 28.6644 37.4147 25.3389L35.7526 21.2236C36.5259 21.5164 37.3364 21.7332 38.1764 21.8613L46.8581 43.3564C47.5328 45.0276 45.6804 46.6061 44.028 45.7686L13.6647 30.3594C12.3125 29.6732 12.2267 27.8691 13.4587 27.0566L13.5817 26.9805L30.5378 17.376ZM43.8268 41.2158C42.7964 41.4872 41.7435 41.7063 40.6725 41.873L44.9733 44.0566L43.8268 41.2158ZM41.3874 35.1758C38.3866 36.3769 35.142 37.1274 31.7458 37.3428L37.5388 40.2822C37.6002 40.2666 37.6644 40.2563 37.7302 40.252C39.572 40.1317 41.3649 39.8394 43.0925 39.3975L41.3874 35.1758ZM38.1686 27.2061C33.6301 30.2995 28.1642 32.2246 22.2497 32.5244L28.0759 35.4805C28.0831 35.4796 28.0911 35.4782 28.0983 35.4775L28.2018 35.4736H29.7165C33.5971 35.4736 37.2934 34.723 40.6579 33.3691L38.1686 27.2061Z" fill="#084C95"></path>
    <path d="M7.89617 20.9473C8.17521 20.4842 8.79289 20.3254 9.27606 20.5928C9.7589 20.8602 9.9247 21.452 9.64617 21.915L9.14129 22.7539L10.0153 23.2383C10.4983 23.5057 10.6642 24.0985 10.3854 24.5615C10.1064 25.0243 9.48857 25.183 9.00555 24.916L8.13055 24.4316L7.62567 25.2705C7.34666 25.7334 6.72791 25.8912 6.24481 25.624C5.76202 25.3565 5.59679 24.7648 5.87567 24.3018L6.38055 23.4629L5.50555 22.9785C5.02264 22.7111 4.85686 22.1193 5.13543 21.6562C5.41446 21.1932 6.03312 21.0344 6.51629 21.3018L7.39129 21.7861L7.89617 20.9473Z" fill="#084C95"></path>
    <path d="M8.50067 16.1055C12.9962 16.1058 15.9722 18.9584 16.9343 20.4336C17.2296 20.8869 17.0855 21.484 16.613 21.7676C16.1401 22.0507 15.5173 21.9138 15.2214 21.4609C14.4995 20.3538 12.0865 18.0423 8.50067 18.042C7.94269 18.042 7.48992 17.6081 7.48992 17.0732C7.49003 16.5385 7.94275 16.1055 8.50067 16.1055Z" fill="#084C95"></path>
    <path d="M9.51043 9.60059C12.8126 9.60068 15.7479 10.8682 18.0427 12.3945C20.336 13.92 22.0634 15.751 22.9704 17.0059C23.2877 17.4454 23.1728 18.049 22.7145 18.3535C22.256 18.6579 21.626 18.5488 21.3083 18.1094C20.5315 17.0347 18.9743 15.3706 16.8903 13.9844C14.8074 12.5991 12.2695 11.5372 9.51043 11.5371C8.95274 11.537 8.50097 11.1038 8.50067 10.5693C8.50067 10.0346 8.95256 9.6007 9.51043 9.60059Z" fill="#084C95"></path>
    <path d="M26.5534 5.18555C26.9501 4.87559 27.5351 4.89774 27.905 5.25195C28.2746 5.60646 28.2977 6.16755 27.9743 6.54785L27.905 6.62109L27.7331 6.7998C26.8974 7.72814 26.4678 9.20541 26.3425 10.8721C26.2116 12.6136 26.4267 14.3616 26.6628 15.418C26.7793 15.9405 26.4324 16.455 25.8874 16.5674C25.3421 16.6792 24.8053 16.3467 24.6882 15.8242C24.4192 14.621 24.1799 12.6877 24.3268 10.7334C24.462 8.93535 24.9375 6.93338 26.2116 5.52539L26.4763 5.25195L26.5534 5.18555Z" fill="#084C95"></path>
    <path fill-rule="evenodd" clip-rule="evenodd" d="M19.1091 4C20.5036 4.00038 21.6344 5.0841 21.6345 6.4209C21.6345 7.75775 20.5037 8.84142 19.1091 8.8418C17.7141 8.8418 16.5827 7.75798 16.5827 6.4209C16.5828 5.08386 17.7142 4 19.1091 4ZM19.1091 5.93652C18.8301 5.93652 18.6033 6.15353 18.6032 6.4209C18.6032 6.68832 18.8301 6.90527 19.1091 6.90527C19.3877 6.9049 19.6139 6.68808 19.6139 6.4209C19.6139 6.15376 19.3877 5.9369 19.1091 5.93652Z" fill="#084C95"></path>
    <path d="M36.2929 6.29297C36.6591 5.92689 37.2381 5.90427 37.6308 6.22461L37.707 6.29297L40 8.58594L42.2929 6.29297L42.3691 6.22461C42.7619 5.9043 43.3409 5.92687 43.707 6.29297C44.0731 6.65907 44.0957 7.2381 43.7754 7.63086L43.707 7.70703L41.414 10L43.707 12.293L43.7754 12.3691C44.0957 12.7619 44.0731 13.3409 43.707 13.707C43.3409 14.0731 42.7619 14.0957 42.3691 13.7754L42.2929 13.707L40 11.4141L37.707 13.707C37.3165 14.0975 36.6835 14.0975 36.2929 13.707C35.9024 13.3165 35.9024 12.6835 36.2929 12.293L38.5859 10L36.2929 7.70703L36.2246 7.63086C35.9042 7.23809 35.9268 6.65908 36.2929 6.29297Z" fill="#084C95"></path>
    <path fill-rule="evenodd" clip-rule="evenodd" d="M40 0C45.5228 0 50 4.47715 50 10C50 15.5228 45.5228 20 40 20C34.4771 20 30 15.5228 30 10C30 4.47715 34.4771 0 40 0ZM40 2C35.5817 2 32 5.58172 32 10C32 14.4183 35.5817 18 40 18C44.4183 18 48 14.4183 48 10C48 5.58172 44.4183 2 40 2Z" fill="#084C95"></path>
  </symbol>
  <symbol fill="none" xmlns="http://www.w3.org/2000/svg" viewBox="0 0 50 50" id="pets">
    <path fill-rule="evenodd" clip-rule="evenodd" d="M25.4968 21.1213C35.935 21.4362 39.4582 31.5669 40.6393 38.9289C41.1944 42.3892 37.8004 44.7394 34.488 43.7873L34.1686 43.6848C31.1499 42.6179 27.7883 41.6267 25.4479 41.5071L24.9938 41.4953C22.6491 41.4955 19.0397 42.5469 15.82 43.6848L15.5007 43.7873C12.2952 44.7086 9.013 42.5378 9.30731 39.261L9.34931 38.9289C10.5492 31.4501 14.166 21.1138 24.9938 21.1135L25.4968 21.1213ZM24.9938 23.1438C20.3624 23.1439 17.3338 25.2978 15.236 28.3635C13.0746 31.5225 11.9325 35.6342 11.3522 39.2512C11.198 40.2132 11.5812 40.9591 12.2624 41.4407C12.9812 41.9487 14.0526 42.1564 15.1442 41.7707C18.332 40.6441 22.2531 39.4652 24.9938 39.4651C27.7346 39.4651 31.6564 40.644 34.8444 41.7707L35.0485 41.8362C36.0684 42.1293 37.0523 41.917 37.7263 41.4407C38.365 40.9891 38.7416 40.3046 38.6589 39.428L38.6364 39.2512C38.0561 35.6342 36.9141 31.5225 34.7526 28.3635C32.6547 25.2977 29.6256 23.1438 24.9938 23.1438Z" fill="#084C95"></path>
    <path fill-rule="evenodd" clip-rule="evenodd" d="M37.9138 17.7971C40.0056 15.7048 43.114 15.4225 44.8571 17.1662L45.0153 17.3332C46.5815 19.1031 46.2524 22.0851 44.2263 24.1125L44.028 24.3039C41.9423 26.2217 38.9709 26.4346 37.2819 24.7453L37.1237 24.5774C35.6082 22.8643 35.8682 20.0157 37.7233 17.9963L37.9138 17.7971ZM43.4226 18.6018C42.7055 17.8847 40.9037 17.6769 39.3483 19.2326C37.7929 20.7887 37.9997 22.5924 38.7165 23.3098C39.4336 24.0269 41.2354 24.233 42.7907 22.677C44.3458 21.121 44.1393 19.3192 43.4226 18.6018Z" fill="#084C95"></path>
    <path fill-rule="evenodd" clip-rule="evenodd" d="M7.57294 13.2922C10.2791 12.5668 13.1782 14.6119 14.0485 17.8606C14.9187 21.1096 13.4306 24.3324 10.7243 25.0578C8.01815 25.7832 5.11902 23.7372 4.24872 20.4885C3.37857 17.2396 4.8668 14.0178 7.57294 13.2922ZM12.0886 18.386C11.4146 15.8704 9.40258 14.9035 8.09833 15.2532C6.79401 15.6028 5.53485 17.4472 6.20868 19.9631C6.88259 22.4786 8.89464 23.4463 10.1989 23.0969C11.5033 22.7473 12.7624 20.9019 12.0886 18.386Z" fill="#084C95"></path>
    <path fill-rule="evenodd" clip-rule="evenodd" d="M29.0524 8.11741C30.7335 5.20446 34.0635 3.97861 36.4899 5.38011C38.9162 6.78165 39.5206 10.2797 37.8395 13.1926C36.1585 16.1056 32.8284 17.3304 30.402 15.9289C27.9757 14.5275 27.3715 11.0303 29.0524 8.11741ZM35.4753 7.1389C34.3059 6.46345 32.112 6.87658 30.8102 9.13206C29.5085 11.3878 30.2473 13.4957 31.4167 14.1711C32.5862 14.8465 34.78 14.4326 36.0817 12.177C37.3832 9.92159 36.6445 7.81458 35.4753 7.1389Z" fill="#084C95"></path>
    <path fill-rule="evenodd" clip-rule="evenodd" d="M16.7048 2.1262C19.411 1.4008 22.4279 3.88556 23.4431 7.67601C24.4581 11.4662 23.0875 15.1271 20.3815 15.8528C17.6752 16.5782 14.6575 14.0934 13.6423 10.303C12.6271 6.5125 13.9985 2.85167 16.7048 2.1262ZM19.4186 4.77464C18.5579 4.06576 17.786 3.93824 17.2302 4.08714C16.6743 4.23614 16.0696 4.73295 15.6784 5.77757C15.289 6.81768 15.1925 8.24402 15.6032 9.77757C16.014 11.311 16.8106 12.4974 17.6677 13.2034C18.5285 13.9123 19.3003 14.0408 19.8561 13.8918C20.4119 13.7428 21.0168 13.2458 21.4079 12.2014C21.7973 11.1613 21.8938 9.73486 21.4831 8.2014C21.0724 6.66784 20.2757 5.4806 19.4186 4.77464Z" fill="#084C95"></path>
  </symbol>
  <symbol fill="none" xmlns="http://www.w3.org/2000/svg" viewBox="0 0 50 50" id="pets_aprove">
    <path fill-rule="evenodd" clip-rule="evenodd" d="M25.4967 21.1211C35.9348 21.436 39.4581 31.5667 40.6393 38.9287C41.1943 42.389 37.8004 44.7392 34.4879 43.7871L34.1686 43.6846C31.1498 42.6177 27.7882 41.6264 25.4479 41.5068L24.9938 41.4951C22.649 41.4953 19.0396 42.5467 15.8199 43.6846L15.5006 43.7871C12.2952 44.7083 9.01294 42.5376 9.30725 39.2607L9.34924 38.9287C10.5492 31.4499 14.1661 21.1137 24.9938 21.1133L25.4967 21.1211ZM24.9938 23.1436C20.3625 23.1437 17.3337 25.2977 15.236 28.3633C13.0746 31.5222 11.9325 35.6341 11.3522 39.251C11.198 40.2129 11.5813 40.9589 12.2623 41.4404C12.9811 41.9484 14.0526 42.1562 15.1442 41.7705C18.3319 40.6439 22.253 39.465 24.9938 39.4648C27.7345 39.4648 31.6564 40.6438 34.8444 41.7705L35.0485 41.8359C36.0683 42.1291 37.0522 41.9167 37.7262 41.4404C38.3649 40.9889 38.7416 40.3044 38.6588 39.4277L38.6363 39.251C38.056 35.6341 36.914 31.5222 34.7526 28.3633C32.6547 25.2976 29.6254 23.1436 24.9938 23.1436Z" fill="#084C95"></path>
    <path d="M45.9889 20.3965C45.9004 21.6879 45.3029 23.0349 44.2262 24.1123L44.028 24.3037C41.9422 26.2215 38.9708 26.4343 37.2819 24.7451L37.1237 24.5771C36.3591 23.7128 36.0465 22.5592 36.1627 21.3691C36.8103 21.5876 37.4817 21.7557 38.1735 21.8613C38.1881 22.4768 38.4038 22.9966 38.7164 23.3096C39.4335 24.0267 41.2353 24.2327 42.7906 22.6768C43.1984 22.2688 43.4825 21.8426 43.6705 21.4248C44.485 21.1633 45.2606 20.8169 45.9889 20.3965Z" fill="#084C95"></path>
    <path fill-rule="evenodd" clip-rule="evenodd" d="M7.57287 13.292C10.279 12.5666 13.178 14.6118 14.0485 17.8604C14.9186 21.1093 13.4305 24.3321 10.7242 25.0576C8.01811 25.7829 5.11894 23.737 4.24865 20.4883C3.37865 17.2395 4.86686 14.0176 7.57287 13.292ZM12.0885 18.3857C11.4145 15.8703 9.40247 14.9033 8.09826 15.2529C6.79402 15.6027 5.53494 17.4472 6.20861 19.9629C6.8825 22.4783 8.89457 23.446 10.1988 23.0967C11.5032 22.747 12.7623 20.9017 12.0885 18.3857Z" fill="#084C95"></path>
    <path d="M39.9996 14C40.5519 14 40.9996 14.4477 40.9996 15C40.9996 15.5523 40.5519 16 39.9996 16C39.4475 15.9998 38.9996 15.5522 38.9996 15C38.9996 14.4478 39.4475 14.0002 39.9996 14Z" fill="#084C95"></path>
    <path d="M39.9996 4C40.5519 4 40.9996 4.44772 40.9996 5V12C40.9996 12.5523 40.5519 13 39.9996 13C39.4475 12.9998 38.9996 12.5522 38.9996 12V5C38.9996 4.44784 39.4475 4.00021 39.9996 4Z" fill="#084C95"></path>
    <path fill-rule="evenodd" clip-rule="evenodd" d="M39.9996 0C45.5225 0 49.9996 4.47715 49.9996 10C49.9996 15.5228 45.5225 20 39.9996 20C34.477 19.9998 29.9996 15.5227 29.9996 10C29.9996 4.47728 34.477 0.000208222 39.9996 0ZM39.9996 2C35.5815 2.00021 31.9996 5.58185 31.9996 10C31.9996 14.4181 35.5815 17.9998 39.9996 18C44.4179 18 47.9996 14.4183 47.9996 10C47.9996 5.58172 44.4179 2 39.9996 2Z" fill="#084C95"></path>
    <path fill-rule="evenodd" clip-rule="evenodd" d="M16.7047 2.12598C19.4109 1.40059 22.4277 3.88547 23.443 7.67578C24.458 11.466 23.0874 15.1268 20.3815 15.8525C17.6752 16.5779 14.6574 14.0932 13.6422 10.3027C12.6272 6.51241 13.9986 2.85149 16.7047 2.12598ZM19.4186 4.77441C18.5579 4.06568 17.7859 3.93803 17.2301 4.08691C16.6743 4.23594 16.0695 4.7329 15.6783 5.77734C15.2889 6.8174 15.1925 8.2439 15.6031 9.77734C16.0139 11.3107 16.8106 12.4972 17.6676 13.2031C18.5284 13.912 19.3002 14.0406 19.8561 13.8916C20.4118 13.7425 21.0167 13.2456 21.4078 12.2012C21.7972 11.1611 21.8937 9.73455 21.483 8.20117C21.0723 6.66773 20.2756 5.48034 19.4186 4.77441Z" fill="#084C95"></path>
    <path d="M28.1012 11.5674C28.2262 12.5254 28.4671 13.4471 28.8043 14.3203C28.3412 13.5219 28.1012 12.5697 28.1012 11.5674Z" fill="#084C95"></path>
  </symbol>
  <symbol fill="none" xmlns="http://www.w3.org/2000/svg" viewBox="0 0 50 50" id="pets_less">
    <path fill-rule="evenodd" clip-rule="evenodd" d="M25.4968 21.1213C35.935 21.4362 39.4581 31.5669 40.6393 38.9289C41.1944 42.3892 37.8004 44.7394 34.488 43.7873L34.1686 43.6848C31.1499 42.6179 27.7882 41.6267 25.4479 41.5071L24.9938 41.4953C22.6491 41.4955 19.0397 42.5469 15.82 43.6848L15.5007 43.7873C12.2952 44.7086 9.013 42.5378 9.3073 39.261L9.34929 38.9289C10.5492 31.4501 14.166 21.1139 24.9938 21.1135L25.4968 21.1213ZM24.9938 23.1438C20.3624 23.144 17.3338 25.2978 15.236 28.3635C13.0746 31.5225 11.9325 35.6343 11.3522 39.2512C11.198 40.2132 11.5812 40.9591 12.2624 41.4407C12.9812 41.9487 14.0526 42.1564 15.1442 41.7707C18.332 40.6441 22.2531 39.4652 24.9938 39.4651C27.7346 39.4651 31.6564 40.6441 34.8444 41.7707L35.0485 41.8362C36.0684 42.1293 37.0523 41.9169 37.7262 41.4407C38.365 40.9891 38.7416 40.3046 38.6589 39.428L38.6364 39.2512C38.0561 35.6342 36.9141 31.5225 34.7526 28.3635C32.6547 25.2977 29.6255 23.1438 24.9938 23.1438Z" fill="#084C95"></path>
    <path d="M45.9889 20.3967C45.9005 21.6881 45.303 23.0351 44.2262 24.1125L44.028 24.3039C41.9423 26.2217 38.9708 26.4346 37.2819 24.7454L37.1237 24.5774C36.3591 23.713 36.0466 22.5595 36.1628 21.3694C36.8104 21.5879 37.4817 21.7559 38.1735 21.8616C38.1881 22.4772 38.4038 22.9969 38.7165 23.3098C39.4336 24.0269 41.2353 24.2329 42.7907 22.677C43.1985 22.269 43.4825 21.8429 43.6706 21.425C44.4851 21.1636 45.2607 20.8171 45.9889 20.3967Z" fill="#084C95"></path>
    <path fill-rule="evenodd" clip-rule="evenodd" d="M7.57293 13.2922C10.2791 12.5668 13.1782 14.6119 14.0485 17.8606C14.9187 21.1096 13.4306 24.3324 10.7243 25.0579C8.01816 25.7832 5.11899 23.7372 4.24871 20.4885C3.37857 17.2397 4.86685 14.0179 7.57293 13.2922ZM12.0886 18.386C11.4146 15.8704 9.40257 14.9035 8.09832 15.2532C6.79404 15.6029 5.53486 17.4473 6.20867 19.9631C6.88256 22.4785 8.89463 23.4463 10.1989 23.0969C11.5032 22.7473 12.7624 20.9019 12.0886 18.386Z" fill="#084C95"></path>
    <path fill-rule="evenodd" clip-rule="evenodd" d="M16.7048 2.12621C19.411 1.4008 22.4278 3.88558 23.443 7.67601C24.4581 11.4662 23.0875 15.1271 20.3815 15.8528C17.6753 16.5782 14.6575 14.0934 13.6423 10.303C12.6271 6.51256 13.9986 2.85173 16.7048 2.12621ZM19.4186 4.77465C18.5579 4.06581 17.786 3.93825 17.2302 4.08715C16.6743 4.23618 16.0696 4.73301 15.6784 5.77758C15.289 6.81768 15.1925 8.24405 15.6032 9.77758C16.0139 11.311 16.8106 12.4974 17.6677 13.2034C18.5284 13.9123 19.3003 14.0408 19.8561 13.8918C20.4119 13.7428 21.0168 13.2458 21.4079 12.2014C21.7973 11.1613 21.8937 9.73487 21.4831 8.20141C21.0723 6.66786 20.2757 5.48061 19.4186 4.77465Z" fill="#084C95"></path>
    <path d="M28.1012 11.5676C28.2262 12.5257 28.4671 13.4473 28.8044 14.3205C28.3412 13.5221 28.1013 12.57 28.1012 11.5676Z" fill="#084C95"></path>
    <path d="M36.293 6.29297C36.6592 5.92689 37.2382 5.90427 37.6309 6.22461L37.7071 6.29297L40.0001 8.58594L42.293 6.29297L42.3692 6.22461C42.762 5.9043 43.341 5.92687 43.7071 6.29297C44.0732 6.65907 44.0958 7.2381 43.7755 7.63086L43.7071 7.70703L41.4141 10L43.7071 12.293L43.7755 12.3691C44.0958 12.7619 44.0732 13.3409 43.7071 13.707C43.341 14.0731 42.762 14.0957 42.3692 13.7754L42.293 13.707L40.0001 11.4141L37.7071 13.707C37.3166 14.0975 36.6836 14.0975 36.293 13.707C35.9025 13.3165 35.9025 12.6835 36.293 12.293L38.586 10L36.293 7.70703L36.2247 7.63086C35.9043 7.23809 35.9269 6.65908 36.293 6.29297Z" fill="#084C95"></path>
    <path fill-rule="evenodd" clip-rule="evenodd" d="M40.0001 0C45.5229 0 50.0001 4.47715 50.0001 10C50.0001 15.5228 45.5229 20 40.0001 20C34.4772 20 30.0001 15.5228 30.0001 10C30.0001 4.47715 34.4772 0 40.0001 0ZM40.0001 2C35.5818 2 32.0001 5.58172 32.0001 10C32.0001 14.4183 35.5818 18 40.0001 18C44.4184 18 48.0001 14.4183 48.0001 10C48.0001 5.58172 44.4184 2 40.0001 2Z" fill="#084C95"></path>
  </symbol>
</svg>