<svg width="0" height="0" class="hidden">
  <symbol fill="none" xmlns="http://www.w3.org/2000/svg" viewBox="0 0 14 14" id="active">
    <path fill-rule="evenodd" clip-rule="evenodd" d="M7 0C10.866 0 14 3.13401 14 7C14 10.866 10.866 14 7 14C3.13401 14 0 10.866 0 7C0 3.13401 3.13401 0 7 0ZM10.707 4.31152C10.3165 3.89644 9.68349 3.89644 9.29297 4.31152L6 7.87402L4.70703 6.4375C4.31651 6.02241 3.68349 6.02241 3.29297 6.4375C2.90264 6.8526 2.90251 7.52541 3.29297 7.94043L4.58594 9.37695C5.36699 10.2069 6.63307 10.207 7.41406 9.37695L10.707 5.81445C11.0975 5.39945 11.0973 4.72663 10.707 4.31152Z" fill="currentColor"></path>
  </symbol>
  <symbol fill="none" xmlns="http://www.w3.org/2000/svg" viewBox="0 0 14 14" id="archive">
    <path d="M1.39844 2.30371C1.14844 2.63721 1 3.05127 1 3.5H13C13 2.39551 12.1055 1.5 11 1.5H3C2.34375 1.5 1.76172 1.81592 1.39844 2.30371Z" fill="currentColor"></path>
    <path fill-rule="evenodd" clip-rule="evenodd" d="M2 4.5H12V10.5C12 11.0859 11.748 11.6133 11.3477 11.979C10.9922 12.3027 10.5195 12.5 10 12.5H4C2.89453 12.5 2 11.6045 2 10.5V4.5ZM5 7.5C5 6.94775 5.44727 6.5 6 6.5H8C8.55273 6.5 9 6.94775 9 7.5C9 8.05225 8.55273 8.5 8 8.5H6C5.75 8.5 5.52148 8.4082 5.3457 8.25635C5.13281 8.07324 5 7.80225 5 7.5Z" fill="currentColor"></path>
  </symbol>
  <symbol fill="none" xmlns="http://www.w3.org/2000/svg" viewBox="0 0 30 30" id="ava_olan">
    <path d="M26.5513 13.9262V6.61765H23.1824V0.033303H21.3631V6.61765H17.9942V13.9262H16.4781V30H23.4519C25.9786 30 28 27.5527 28 24.5228V13.9262H26.5513ZM22.8876 8.8069H24.7068V10.9878H22.8876V8.8069ZM19.8555 8.8069H21.6748V10.9878H19.8555V8.8069ZM19.8555 12.4612H21.6748V14.6587H19.8555V12.4612ZM20.1587 25.6215H18.3395V23.424H20.1587V25.6215ZM20.1587 21.9673H18.3395V19.7697H20.1587V21.9673ZM20.1587 18.313H18.3395V16.1154H20.1587V18.313ZM23.1908 25.6215H21.3716V23.424H23.1908V25.6215ZM23.1908 21.9673H21.3716V19.7697H23.1908V21.9673ZM23.1908 18.313H21.3716V16.1154H23.1908V18.313ZM22.8876 14.6587V12.4612H24.7068V14.6587H22.8876ZM26.2566 25.6215H24.4373V23.424H26.2566V25.6215ZM26.2566 21.9673H24.4373V19.7697H26.2566V21.9673ZM26.2566 18.313H24.4373V16.1154H26.2566V18.313ZM8.97374 13.1937H3.51603V17.5805H2V24.5228C2 27.5527 4.02977 30 6.54807 30H10.4898V17.5805H8.97374V13.1937ZM5.60477 25.6215H3.78554V23.424H5.60477V25.6215ZM5.60477 21.9673H3.78554V19.7697H5.60477V21.9673ZM8.63687 25.6215H6.88499V23.424H8.70421L8.63687 25.6215ZM8.63687 21.9673H6.88499V19.7697H8.70421L8.63687 21.9673ZM11.391 0.033303H6.88499V11.9201H10.4729V16.0821H11.7363V29.9667H15.3074V0H11.391V0.033303ZM10.4561 10.2719H8.63687V8.07439H10.4561V10.2719ZM10.4561 6.61765H8.63687V4.42008H10.4561V6.61765ZM13.4882 13.9262H11.6689V11.7287H13.4882V13.9262ZM13.4882 10.2719H11.6689V8.07439H13.4882V10.2719ZM13.4882 6.61765H11.6689V4.42008H13.4882V6.61765Z" fill="currentColor"></path>
  </symbol>
  <symbol fill="none" xmlns="http://www.w3.org/2000/svg" viewBox="0 0 35 34" id="ava_support">
    <path d="M17.5 0C25.7289 0 32.4334 6.43862 32.7304 14.4918H33.871C34.4945 14.4918 35 14.9909 35 15.6066V24.5246C35 25.1403 34.4945 25.6393 33.871 25.6393H32.5782C31.0175 29.6699 27.1206 32.5792 22.5917 32.8629L22.3282 33.3838C22.1369 33.7615 21.7458 34 21.3182 34H15.3753C14.536 34 13.99 33.1279 14.3654 32.3867L15.4944 30.1571C15.6857 29.7795 16.0768 29.541 16.5044 29.541H22.4472C23.0519 29.541 23.5038 29.9937 23.5691 30.524C26.7904 29.9728 29.425 27.7366 30.5114 24.7684C30.4937 24.6899 30.4839 24.6084 30.4839 24.5246V15.0492C30.4839 7.96907 24.6708 2.22951 17.5 2.22951C10.3292 2.22951 4.51613 7.96907 4.51613 15.0492V24.5246C4.51613 25.1403 4.01064 25.6393 3.3871 25.6393H1.12903C0.505485 25.6393 9.09246e-09 25.1403 0 24.5246V15.6066C1.45479e-07 14.9909 0.505485 14.4918 1.12903 14.4918H2.26964C2.56663 6.43862 9.27112 0 17.5 0Z" fill="currentColor"></path>
    <path d="M14.1129 14.4918C14.7365 14.4918 15.2419 14.9909 15.2419 15.6066C15.2419 16.2222 14.7365 16.7213 14.1129 16.7213C13.4894 16.7213 12.9839 16.2222 12.9839 15.6066C12.9839 14.9909 13.4894 14.4918 14.1129 14.4918Z" fill="currentColor"></path>
    <path d="M17.5 14.4918C18.1235 14.4918 18.629 14.9909 18.629 15.6066C18.629 16.2222 18.1235 16.7213 17.5 16.7213C16.8765 16.7213 16.371 16.2222 16.371 15.6066C16.371 14.9909 16.8765 14.4918 17.5 14.4918Z" fill="currentColor"></path>
    <path d="M20.8871 14.4918C21.5106 14.4918 22.0161 14.9909 22.0161 15.6066C22.0161 16.2222 21.5106 16.7213 20.8871 16.7213C20.2635 16.7213 19.7581 16.2222 19.7581 15.6066C19.7581 14.9909 20.2635 14.4918 20.8871 14.4918Z" fill="currentColor"></path>
    <path fill-rule="evenodd" clip-rule="evenodd" d="M17.5 6.13115C22.8002 6.13115 27.0968 10.3734 27.0968 15.6066C27.0968 20.8397 22.8002 25.082 17.5 25.082H7.90323C7.90323 25.082 7.90323 18.3618 7.90323 15.6066C7.90323 10.3734 12.1998 6.13115 17.5 6.13115ZM17.5 8.36066C13.4469 8.36066 10.1613 11.6048 10.1613 15.6066V22.8525H17.5C21.5531 22.8525 24.8387 19.6084 24.8387 15.6066C24.8387 11.6048 21.5531 8.36066 17.5 8.36066Z" fill="currentColor"></path>
  </symbol>
  <symbol fill="none" xmlns="http://www.w3.org/2000/svg" viewBox="0 0 14 14" id="cancel">
    <path fill-rule="evenodd" clip-rule="evenodd" d="M13 7C13 10.3137 10.3137 13 7 13C3.68628 13 1 10.3137 1 7C1 3.68629 3.68628 1 7 1C10.3137 1 13 3.68629 13 7ZM11 7C11 9.20914 9.20911 11 7 11C6.20056 11 5.45581 10.7654 4.83093 10.3614L10.3615 4.83099C10.7655 5.45584 11 6.20053 11 7ZM3.47388 8.89011L8.89014 3.47387C8.32727 3.17152 7.68372 3 7 3C4.79089 3 3 4.79086 3 7C3 7.68365 3.17151 8.32725 3.47388 8.89011Z" fill="currentColor"></path>
  </symbol>
  <symbol fill="none" xmlns="http://www.w3.org/2000/svg" viewBox="0 0 14 14" id="card">
    <path d="M0.430694 5.65538C0.287762 5.12195 0.604372 4.57357 1.1378 4.43063L10.7971 1.84244C11.3305 1.69951 11.8789 2.01612 12.0218 2.54955L12.2806 3.51548L0.689513 6.6213L0.430694 5.65538Z" fill="currentColor"></path>
    <path fill-rule="evenodd" clip-rule="evenodd" d="M0.948332 7.58723L12.5394 4.4814L13.5747 8.34511C13.7176 8.87853 13.401 9.42692 12.8676 9.56985L3.20835 12.158C2.67492 12.301 2.12654 11.9844 1.98361 11.4509L0.948332 7.58723ZM6.2956 8.22499L3.39782 9.00144L3.65664 9.96737L6.55442 9.19091L6.2956 8.22499Z" fill="currentColor"></path>
  </symbol>
  <symbol fill="none" xmlns="http://www.w3.org/2000/svg" viewBox="0 0 14 14" id="filter">
    <path d="M8 0H6V1H0V3H6V4H8V3H14V1H8V0Z" fill="currentColor"></path>
    <path d="M10 5H12V6H14V8H12V9H10V8H0V6H10V5Z" fill="currentColor"></path>
    <path d="M4 10H2V11H0V13H2V14H4V13H14V11H4V10Z" fill="currentColor"></path>
  </symbol>
  <symbol fill="none" xmlns="http://www.w3.org/2000/svg" viewBox="0 0 14 14" id="info">
    <path fill-rule="evenodd" clip-rule="evenodd" d="M11 0C12.6569 1.28851e-07 14 1.34315 14 3V11C14 12.6569 12.6569 14 11 14H3C1.34315 14 1.61067e-08 12.6569 0 11V3C1.28853e-07 1.34315 1.34315 1.61064e-08 3 0H11ZM7 10C6.44775 10 6 10.4477 6 11C6 11.5523 6.44775 12 7 12C7.55225 12 8 11.5523 8 11C8 10.4477 7.55225 10 7 10ZM7 2C6.44775 2 6 2.44772 6 3V7C6 7.55228 6.44775 8 7 8C7.55225 8 8 7.55228 8 7V3C8 2.44772 7.55225 2 7 2Z" fill="currentColor"></path>
  </symbol>
  <symbol fill="none" xmlns="http://www.w3.org/2000/svg" viewBox="0 0 14 14" id="message">
    <path fill-rule="evenodd" clip-rule="evenodd" d="M0 2C0 0.895431 0.895431 0 2 0H12C13.1046 0 14 0.895431 14 2V10C14 11.1046 13.1046 12 12 12H4.66667C4.23393 12 3.81286 12.1404 3.46667 12.4L1.6 13.8C0.940764 14.2944 0 13.824 0 13V2ZM4 3C3.44772 3 3 3.44772 3 4C3 4.55228 3.44772 5 4 5H10C10.5523 5 11 4.55228 11 4C11 3.44772 10.5523 3 10 3H4ZM4 7C3.44772 7 3 7.44772 3 8C3 8.55228 3.44772 9 4 9H7C7.55228 9 8 8.55228 8 8C8 7.44772 7.55228 7 7 7H4Z" fill="currentColor"></path>
  </symbol>
  <symbol fill="none" xmlns="http://www.w3.org/2000/svg" viewBox="0 0 14 14" id="recovery">
    <path d="M4.75391 1.67969C5.08389 1.63255 5.36745 1.91611 5.32031 2.24609L4.84863 5.5459C4.79019 5.95359 4.29128 6.11941 4 5.82812L3.4082 5.23633C3.1465 5.76829 3 6.3671 3 7C3 9.04015 4.52736 10.7236 6.50099 10.9692C6.77502 11.0033 7 11.2239 7 11.5V12.5C7 12.7761 6.77536 13.0022 6.50015 12.9795C3.42031 12.7255 1 10.1454 1 7C1 5.81114 1.3469 4.70375 1.94336 3.77148L1.17188 3C0.880625 2.70875 1.04651 2.2099 1.4541 2.15137L4.75391 1.67969Z" fill="currentColor"></path>
    <path d="M7 1.5C7 1.22386 7.22464 0.997827 7.49985 1.02052C10.5797 1.27453 13 3.85462 13 7C13 8.18886 12.6531 9.29625 12.0566 10.2285L12.8281 11C13.1194 11.2913 12.9535 11.7901 12.5459 11.8486L9.24609 12.3203C8.91611 12.3675 8.63255 12.0839 8.67969 11.7539L9.15137 8.4541C9.20983 8.04643 9.70873 7.8806 10 8.17188L10.5908 8.7627C10.8524 8.23083 11 7.63274 11 7C11 4.95985 9.47264 3.27643 7.49901 3.03082C7.22498 2.99672 7 2.77614 7 2.5V1.5Z" fill="currentColor"></path>
  </symbol>
  <symbol fill="none" xmlns="http://www.w3.org/2000/svg" viewBox="0 0 14 14" id="send">
    <path fill-rule="evenodd" clip-rule="evenodd" d="M2 1C0.895431 1 3.22133e-08 1.89543 0 3V11C1.28851e-07 12.1046 0.895431 13 2 13H12C13.1046 13 14 12.1046 14 11V3C14 1.89543 13.1046 1 12 1H2ZM11 3C11.5523 3 12 3.44772 12 4V7C12 8.10457 11.1046 9 10 9H5.41406L5.70703 9.29297C6.09756 9.68349 6.09756 10.3165 5.70703 10.707C5.31651 11.0976 4.68349 11.0976 4.29297 10.707L2.29297 8.70703C1.90255 8.31653 1.90254 7.68347 2.29297 7.29297L4.29297 5.29297L4.36914 5.22461C4.76191 4.90426 5.34092 4.92685 5.70703 5.29297C6.07315 5.65908 6.09574 6.23809 5.77539 6.63086L5.70703 6.70703L5.41406 7H10V4C10 3.44772 10.4477 3 11 3Z" fill="currentColor"></path>
  </symbol>
  <symbol fill="none" xmlns="http://www.w3.org/2000/svg" viewBox="0 0 14 14" id="support">
    <path d="M7 0C9.97288 0 12.4388 2.16245 12.915 5H13C13.5523 5 14 5.44772 14 6V10C14 10.5523 13.5523 11 13 11C13 12.6569 11.6569 14 10 14H7C6.44772 14 6 13.5523 6 13C6 12.4477 6.44772 12 7 12H10C10.5523 12 11 11.5523 11 11C10.4477 11 10 10.5523 10 10V6C10 5.49005 10.3817 5.06933 10.875 5.00781C10.4336 3.27874 8.86657 2 7 2C5.13335 2 3.56534 3.27862 3.12402 5.00781C3.61777 5.0689 4 5.48972 4 6V10C4 10.5523 3.55228 11 3 11H1C0.447715 11 1.61065e-08 10.5523 0 10V6C6.4426e-08 5.44772 0.447715 5 1 5H1.08496C1.56117 2.16245 4.02712 0 7 0Z" fill="currentColor"></path>
  </symbol>
  <symbol fill="none" xmlns="http://www.w3.org/2000/svg" viewBox="0 0 14 14" id="wait">
    <path d="M12 7C12 4.23858 9.76142 2 7 2C4.23858 2 2 4.23858 2 7C2 9.76142 4.23858 12 7 12V14C3.13401 14 0 10.866 0 7C0 3.13401 3.13401 0 7 0C10.866 0 14 3.13401 14 7C14 10.866 10.866 14 7 14V12C9.76142 12 12 9.76142 12 7Z" fill="currentColor"></path>
    <path d="M6 7.08594V5C6 4.44772 6.44772 4 7 4C7.55228 4 8 4.44772 8 5V7.08594L8.70703 7.79297C9.09756 8.18349 9.09756 8.81651 8.70703 9.20703C8.31651 9.59756 7.68349 9.59756 7.29297 9.20703L6.58594 8.5C6.2109 8.12496 6.00004 7.61632 6 7.08594Z" fill="currentColor"></path>
  </symbol>
</svg>