<svg width="30" height="30" viewBox="0 0 30 30" fill="none" xmlns="http://www.w3.org/2000/svg">
<path d="M26.5513 13.9262V6.61765H23.1824V0.033303H21.3631V6.61765H17.9942V13.9262H16.4781V30H23.4519C25.9786 30 28 27.5527 28 24.5228V13.9262H26.5513ZM22.8876 8.8069H24.7068V10.9878H22.8876V8.8069ZM19.8555 8.8069H21.6748V10.9878H19.8555V8.8069ZM19.8555 12.4612H21.6748V14.6587H19.8555V12.4612ZM20.1587 25.6215H18.3395V23.424H20.1587V25.6215ZM20.1587 21.9673H18.3395V19.7697H20.1587V21.9673ZM20.1587 18.313H18.3395V16.1154H20.1587V18.313ZM23.1908 25.6215H21.3716V23.424H23.1908V25.6215ZM23.1908 21.9673H21.3716V19.7697H23.1908V21.9673ZM23.1908 18.313H21.3716V16.1154H23.1908V18.313ZM22.8876 14.6587V12.4612H24.7068V14.6587H22.8876ZM26.2566 25.6215H24.4373V23.424H26.2566V25.6215ZM26.2566 21.9673H24.4373V19.7697H26.2566V21.9673ZM26.2566 18.313H24.4373V16.1154H26.2566V18.313ZM8.97374 13.1937H3.51603V17.5805H2V24.5228C2 27.5527 4.02977 30 6.54807 30H10.4898V17.5805H8.97374V13.1937ZM5.60477 25.6215H3.78554V23.424H5.60477V25.6215ZM5.60477 21.9673H3.78554V19.7697H5.60477V21.9673ZM8.63687 25.6215H6.88499V23.424H8.70421L8.63687 25.6215ZM8.63687 21.9673H6.88499V19.7697H8.70421L8.63687 21.9673ZM11.391 0.033303H6.88499V11.9201H10.4729V16.0821H11.7363V29.9667H15.3074V0H11.391V0.033303ZM10.4561 10.2719H8.63687V8.07439H10.4561V10.2719ZM10.4561 6.61765H8.63687V4.42008H10.4561V6.61765ZM13.4882 13.9262H11.6689V11.7287H13.4882V13.9262ZM13.4882 10.2719H11.6689V8.07439H13.4882V10.2719ZM13.4882 6.61765H11.6689V4.42008H13.4882V6.61765Z" fill="#084C95"/>
</svg>
