<svg width="30" height="30" viewBox="0 0 30 30" fill="none" xmlns="http://www.w3.org/2000/svg">
<path d="M12.3066 2.90918C13.9488 1.85924 16.0512 1.85924 17.6934 2.90918L26.6934 8.66406C28.1303 9.58287 28.9999 11.1704 29 12.876V24C29 26.7614 26.7614 29 24 29H6C3.23858 29 1 26.7614 1 24V12.876C1.00007 11.1704 1.86972 9.58287 3.30664 8.66406L12.3066 2.90918Z" stroke="#C4CDD9" stroke-width="2"/>
<path fill-rule="evenodd" clip-rule="evenodd" d="M20.6644 14.2526C21.0772 14.6195 21.1144 15.2516 20.7474 15.6644L16.3228 20.8922C15.0877 22.2816 12.8992 22.2248 11.7379 20.7731L9.21917 17.6247C8.87416 17.1934 8.94408 16.5642 9.37534 16.2191C9.8066 15.8741 10.4359 15.9441 10.7809 16.3753L13.2997 19.5238C13.6868 20.0076 14.4163 20.0266 14.8279 19.5634L19.2526 14.3356C19.6195 13.9229 20.2516 13.8857 20.6644 14.2526Z" fill="#242A3E"/>
</svg>
