<svg width="35" height="34" viewBox="0 0 35 34" fill="none" xmlns="http://www.w3.org/2000/svg">
<path d="M17.5 0C25.7289 0 32.4334 6.43862 32.7304 14.4918H33.871C34.4945 14.4918 35 14.9909 35 15.6066V24.5246C35 25.1403 34.4945 25.6393 33.871 25.6393H32.5782C31.0175 29.6699 27.1206 32.5792 22.5917 32.8629L22.3282 33.3838C22.1369 33.7615 21.7458 34 21.3182 34H15.3753C14.536 34 13.99 33.1279 14.3654 32.3867L15.4944 30.1571C15.6857 29.7795 16.0768 29.541 16.5044 29.541H22.4472C23.0519 29.541 23.5038 29.9937 23.5691 30.524C26.7904 29.9728 29.425 27.7366 30.5114 24.7684C30.4937 24.6899 30.4839 24.6084 30.4839 24.5246V15.0492C30.4839 7.96907 24.6708 2.22951 17.5 2.22951C10.3292 2.22951 4.51613 7.96907 4.51613 15.0492V24.5246C4.51613 25.1403 4.01064 25.6393 3.3871 25.6393H1.12903C0.505485 25.6393 9.09246e-09 25.1403 0 24.5246V15.6066C1.45479e-07 14.9909 0.505485 14.4918 1.12903 14.4918H2.26964C2.56663 6.43862 9.27112 0 17.5 0Z" fill="#C4CDD9"/>
<path d="M14.1129 14.4918C14.7365 14.4918 15.2419 14.9909 15.2419 15.6066C15.2419 16.2222 14.7365 16.7213 14.1129 16.7213C13.4894 16.7213 12.9839 16.2222 12.9839 15.6066C12.9839 14.9909 13.4894 14.4918 14.1129 14.4918Z" fill="#C4CDD9"/>
<path d="M17.5 14.4918C18.1235 14.4918 18.629 14.9909 18.629 15.6066C18.629 16.2222 18.1235 16.7213 17.5 16.7213C16.8765 16.7213 16.371 16.2222 16.371 15.6066C16.371 14.9909 16.8765 14.4918 17.5 14.4918Z" fill="#C4CDD9"/>
<path d="M20.8871 14.4918C21.5106 14.4918 22.0161 14.9909 22.0161 15.6066C22.0161 16.2222 21.5106 16.7213 20.8871 16.7213C20.2635 16.7213 19.7581 16.2222 19.7581 15.6066C19.7581 14.9909 20.2635 14.4918 20.8871 14.4918Z" fill="#C4CDD9"/>
<path fill-rule="evenodd" clip-rule="evenodd" d="M17.5 6.13115C22.8002 6.13115 27.0968 10.3734 27.0968 15.6066C27.0968 20.8397 22.8002 25.082 17.5 25.082H7.90323C7.90323 25.082 7.90323 18.3618 7.90323 15.6066C7.90323 10.3734 12.1998 6.13115 17.5 6.13115ZM17.5 8.36066C13.4469 8.36066 10.1613 11.6048 10.1613 15.6066V22.8525H17.5C21.5531 22.8525 24.8387 19.6084 24.8387 15.6066C24.8387 11.6048 21.5531 8.36066 17.5 8.36066Z" fill="#C4CDD9"/>
</svg>
