<svg width="70" height="70" viewBox="0 0 70 70" fill="none" xmlns="http://www.w3.org/2000/svg">
<path d="M0 5C0 2.23858 2.23858 0 5 0H65C67.7614 0 70 2.23858 70 5V65C70 67.7614 67.7614 70 65 70H5C2.23858 70 0 67.7614 0 65V5Z" fill="white"/>
<path d="M35 14C44.8747 14 52.92 21.9536 53.2764 31.9016H54.6452C55.3934 31.9016 56 32.5182 56 33.2787V44.2951C56 45.0556 55.3934 45.6721 54.6452 45.6721H53.0938C51.221 50.651 46.5447 54.2449 41.11 54.5954L40.7938 55.2389C40.5643 55.7053 40.095 56 39.5818 56H32.4504C31.4433 56 30.7881 54.9226 31.2385 54.007L32.5933 51.2529C32.8228 50.7865 33.2921 50.4918 33.8053 50.4918H40.9367C41.6623 50.4918 42.2046 51.0511 42.2829 51.7061C46.1485 51.0253 49.31 48.2628 50.6137 44.5963C50.5924 44.4993 50.5806 44.3986 50.5806 44.2951V32.5902C50.5806 23.8441 43.605 16.7541 35 16.7541C26.395 16.7541 19.4194 23.8441 19.4194 32.5902V44.2951C19.4194 45.0556 18.8128 45.6721 18.0645 45.6721H15.3548C14.6066 45.6721 14 45.0556 14 44.2951V33.2787C14 32.5182 14.6066 31.9016 15.3548 31.9016H16.7236C17.08 21.9536 25.1253 14 35 14Z" fill="#C4CDD9"/>
<path d="M30.9355 31.9016C31.6837 31.9016 32.2903 32.5182 32.2903 33.2787C32.2903 34.0392 31.6837 34.6557 30.9355 34.6557C30.1872 34.6557 29.5806 34.0392 29.5806 33.2787C29.5806 32.5182 30.1872 31.9016 30.9355 31.9016Z" fill="#C4CDD9"/>
<path d="M35 31.9016C35.7483 31.9016 36.3548 32.5182 36.3548 33.2787C36.3548 34.0392 35.7483 34.6557 35 34.6557C34.2517 34.6557 33.6452 34.0392 33.6452 33.2787C33.6452 32.5182 34.2517 31.9016 35 31.9016Z" fill="#C4CDD9"/>
<path d="M39.0645 31.9016C39.8128 31.9016 40.4194 32.5182 40.4194 33.2787C40.4194 34.0392 39.8128 34.6557 39.0645 34.6557C38.3163 34.6557 37.7097 34.0392 37.7097 33.2787C37.7097 32.5182 38.3163 31.9016 39.0645 31.9016Z" fill="#C4CDD9"/>
<path fill-rule="evenodd" clip-rule="evenodd" d="M35 21.5738C41.3602 21.5738 46.5161 26.8142 46.5161 33.2787C46.5161 39.7431 41.3602 44.9836 35 44.9836H23.4839C23.4839 44.9836 23.4839 36.6822 23.4839 33.2787C23.4839 26.8142 28.6398 21.5738 35 21.5738ZM35 24.3279C30.1363 24.3279 26.1935 28.3353 26.1935 33.2787V42.2295H35C39.8637 42.2295 43.8065 38.2221 43.8065 33.2787C43.8065 28.3353 39.8637 24.3279 35 24.3279Z" fill="#C4CDD9"/>
</svg>
