<svg width="122" height="36" viewBox="0 0 122 36" fill="none" xmlns="http://www.w3.org/2000/svg">
<g clip-path="url(#clip0)">
<path d="M17.8069 31.7509H3.65437C1.8563 31.7509 0.40625 30.2755 0.40625 28.446V11.2132C0.40625 9.91485 1.10228 8.67551 2.20432 7.96731L13.2827 0.590261C14.2688 -0.0589189 15.5448 9.74983e-05 16.5308 0.590261L27.7833 8.20337C28.8853 8.91157 29.5233 10.0919 29.5233 11.3903V18.2952C27.6672 20.3017 20.649 28.623 17.8069 31.7509ZM6.67048 25.3771H18.4449L23.3171 19.1804V12.8657L14.8488 7.02305L6.67048 12.6886V25.3771Z" fill="url(#paint0_linear)"/>
<path d="M111.765 29.2725L113.447 28.0332H107.879V35.4693H113.447V34.2299H109.503V32.3414H112.867V31.1021H109.503V29.2725H111.765Z" fill="#21A038"/>
<path d="M103.705 30.925H101.791V29.2725H104.865L106.547 28.0332H100.225V35.4693H103.531C105.387 35.4693 106.431 34.643 106.431 33.1086C106.431 31.6922 105.445 30.925 103.705 30.925ZM103.415 34.2299H101.791V32.1643H103.415C104.401 32.1643 104.865 32.5184 104.865 33.2266C104.923 33.9348 104.401 34.2299 103.415 34.2299Z" fill="#21A038"/>
<path d="M117.917 28.0332H114.9V35.4693H116.466V33.3447H117.917C119.831 33.3447 121.049 32.3414 121.049 30.6889C121.049 29.0365 119.889 28.0332 117.917 28.0332ZM117.917 32.1053H116.524V29.2725H117.917C118.903 29.2725 119.483 29.8037 119.483 30.6889C119.483 31.6332 118.903 32.1053 117.917 32.1053Z" fill="#21A038"/>
<path d="M97.4989 33.8758C97.0929 34.1118 96.6289 34.2298 96.1069 34.2298C94.6568 34.2298 93.6708 33.1676 93.6708 31.7512C93.6708 30.3348 94.7148 29.2725 96.1069 29.2725C96.6289 29.2725 97.1509 29.4495 97.5569 29.7446L98.717 28.9184L98.659 28.8594C98.0209 28.2692 97.0929 27.9741 96.1069 27.9741C95.0048 27.9741 94.0188 28.3282 93.3227 29.0364C92.6267 29.7446 92.2207 30.6889 92.2207 31.7512C92.2207 32.8135 92.6267 33.8167 93.3227 34.5249C94.0188 35.2331 95.0048 35.6462 96.1069 35.6462C97.2669 35.6462 98.2529 35.2331 98.891 34.5249C98.3689 34.1118 97.8469 33.7577 97.8469 33.7577L97.4989 33.8758Z" fill="#21A038"/>
<path d="M17.8047 31.751V21.5411C17.8047 19.7706 19.1967 18.3542 20.9368 18.3542H29.5791L17.8047 31.751Z" fill="#FBBC33"/>
<path d="M36.0762 18.4732H37.5842C38.1643 17.765 38.9183 16.1715 39.1503 11.0961L39.2083 8.38135H47.7926V18.5322H49.7647V22.8404H47.3866V20.9518H38.4543V22.8404H36.0762V18.4732ZM40.3683 18.4732H45.2985V10.565L41.7024 10.624L41.5864 12.9256C41.3544 16.4666 40.8903 17.883 40.3683 18.4732Z" fill="#004C60"/>
<path d="M55.9733 11.1543C59.0475 11.1543 61.0775 13.2199 61.0775 15.9936C61.0775 18.7674 59.1055 20.833 55.9733 20.833C52.8992 20.833 50.8691 18.7674 50.8691 15.9936C50.8691 13.2199 52.8992 11.1543 55.9733 11.1543ZM55.9733 18.5904C57.4234 18.5904 58.5254 17.5281 58.5254 15.9346C58.5254 14.4002 57.4234 13.3379 55.9733 13.3379C54.5813 13.3379 53.4212 14.3412 53.4212 15.9346C53.4792 17.5281 54.5233 18.5904 55.9733 18.5904Z" fill="#004C60"/>
<path d="M62.9297 11.3901H65.0758L68.2659 14.7541L71.282 11.3901H73.3701V20.5967H70.992V14.9901L68.2079 17.941H68.1499L65.3078 14.9901V20.5967H62.9297V11.3901Z" fill="#004C60"/>
<path d="M111.652 11.3901H114.03V20.5967H111.652V11.3901ZM116.409 15.7574L120.933 20.5967H117.801L113.102 15.9344L117.569 11.3901H120.585L116.409 15.7574Z" fill="#004C60"/>
<path d="M94.3663 13.751H91.9302L91.8722 14.7542C91.7562 20.0067 90.1322 20.951 87.5801 20.6559V18.3542C88.9721 18.4723 89.5521 17.7641 89.6101 14.2231L89.6682 11.3313H96.7444V20.5379H94.3663V13.751Z" fill="#004C60"/>
<path d="M99.6484 20.5967V11.3901H102.027V17.2328L106.377 11.3901H108.755V20.5967H106.377V14.7541L102.027 20.5967H99.6484Z" fill="#004C60"/>
<path d="M76.0977 8.32129H78.6498V13.0426L83.1739 8.32129H86.248L80.8538 13.9869L86.596 20.5967H83.3479L78.7078 15.3442V20.5967H76.1557V8.32129H76.0977Z" fill="#004C60"/>
<path d="M87.1753 27.9148C87.4653 28.2689 87.6973 28.682 87.9293 29.1541L82.3611 33.3443L80.041 31.8689V30.0984L82.3611 31.5738L87.1753 27.9148Z" fill="#21A038"/>
</g>
<defs>
<linearGradient id="paint0_linear" x1="-3.70082" y1="2.10102" x2="22.609" y2="26.2056" gradientUnits="userSpaceOnUse">
<stop offset="0.00558659" stop-color="#88C92D"/>
<stop offset="0.0370465" stop-color="#81C631"/>
<stop offset="0.2891" stop-color="#4DB151"/>
<stop offset="0.4787" stop-color="#2CA465"/>
<stop offset="0.583" stop-color="#209F6D"/>
<stop offset="0.6888" stop-color="#1D9B72"/>
<stop offset="0.8206" stop-color="#148F82"/>
<stop offset="0.9657" stop-color="#067B9B"/>
<stop offset="1" stop-color="#0276A2"/>
</linearGradient>
<clipPath id="clip0">
<rect width="121.224" height="36" fill="white"/>
</clipPath>
</defs>
</svg>
