<svg width="166" height="36" viewBox="0 0 166 36" fill="none" xmlns="http://www.w3.org/2000/svg">
<g clip-path="url(#clip0)">
<path fill-rule="evenodd" clip-rule="evenodd" d="M155.786 14.3127H159.218V10.4288H162.375V14.3127H165.807V4.59478H162.375V8.0153H159.218V4.59478H155.786V14.3127ZM134.993 7.37141C135.716 6.88798 136.698 6.54495 137.542 6.54495C137.974 6.54495 138.915 6.6077 138.915 7.43312C138.915 8.23695 138.089 8.2565 137.755 8.2565H136.07V10.3682H137.561C138.052 10.3682 138.973 10.4093 138.973 11.1941C138.973 11.515 138.779 12.1414 137.579 12.1414C136.383 12.1414 135.618 11.8174 134.617 11.2136L133.737 13.5084C135.618 14.5781 137.326 14.6784 138.11 14.6784C142.034 14.6784 142.524 12.4222 142.524 11.6791C142.524 10.6515 141.916 9.60495 140.543 9.28198V9.24238C141.405 8.85975 141.955 8.0153 141.955 6.96924C141.955 4.69506 139.544 4.23272 138.07 4.23272C136.698 4.23272 135.108 4.63438 134.07 5.19753L134.993 7.37141ZM127.563 3.32655C129.114 3.32655 130.722 2.72381 131.428 1.07192L129.192 0.229522C128.918 1.35683 127.957 1.41495 127.563 1.41495C127.171 1.41495 126.211 1.35683 125.938 0.229522L123.703 1.07192C124.406 2.72381 126.016 3.32655 127.563 3.32655ZM122.212 4.59478V14.3127H125.544L128.938 8.9621V14.3127H132.37V4.59478H129.075L125.641 9.80501V4.59478H122.212ZM99.4569 12.2211V6.82832C98.2995 6.80724 97.1189 7.67381 97.1189 9.52472C97.1189 11.3762 98.2995 12.2402 99.4569 12.2211ZM102.457 6.82832V12.2211C103.615 12.2402 104.791 11.3762 104.791 9.52472C104.791 7.67381 103.615 6.80724 102.457 6.82832ZM99.2397 18.5417V14.4583C97.199 14.4773 93.8237 13.6498 93.8237 9.44347C93.8237 5.25975 97.1815 4.43381 99.2397 4.45283V0.229522H102.672V4.45283C104.734 4.43381 108.086 5.25975 108.086 9.44347C108.086 13.6498 104.713 14.4773 102.672 14.4583V18.5417H99.2397ZM84.0194 12.2211V6.82832C82.862 6.80724 81.6845 7.67381 81.6845 9.52472C81.6845 11.3762 82.862 12.2402 84.0194 12.2211ZM87.0224 6.82832V12.2211C88.1771 12.2402 89.3546 11.3762 89.3546 9.52472C89.3546 7.67381 88.1771 6.80724 87.0224 6.82832ZM83.8032 18.5417V14.4583C81.7616 14.4773 78.3888 13.6498 78.3888 9.44347C78.3888 5.25975 81.7435 4.43381 83.8032 4.45283V0.229522H87.2354V4.45283C89.2957 4.43381 92.6483 5.25975 92.6483 9.44347C92.6483 13.6498 89.2771 14.4773 87.2354 14.4583V18.5417H83.8032ZM71.9541 3.32655C73.5055 3.32655 75.1138 2.72381 75.8181 1.07192L73.5831 0.229522C73.3075 1.35683 72.3461 1.41495 71.9541 1.41495C71.5621 1.41495 70.6008 1.35683 70.3246 0.229522L68.0896 1.07192C68.7965 2.72381 70.4053 3.32655 71.9541 3.32655ZM66.6013 4.59478V14.3127H69.9332L73.3276 8.9621V14.3127H76.7614V4.59478H73.4652L70.0335 9.80501V4.59478H66.6013ZM45.6424 3.10386V6.34387H46.899C48.6061 6.34387 48.7829 5.31684 48.7829 4.71512C48.7829 4.01003 48.5471 3.10386 46.899 3.10386H45.7996H45.6424ZM41.9568 14.3127V0.00683594H47.7425C51.6474 0.00683594 52.7452 2.78192 52.7452 4.71512C52.7452 6.66581 51.6282 9.44347 47.7425 9.44347H45.6424V14.3127H41.9568ZM120.072 4.57883V14.3127H116.649V13.2312H116.613C116.011 14.2001 114.826 14.6362 113.698 14.6362C110.841 14.6362 108.828 12.2268 108.828 9.43781C108.828 6.64781 110.801 4.25689 113.662 4.25689C114.77 4.25689 115.935 4.67398 116.649 5.5277V4.57883H120.072ZM114.563 7.25467C113.172 7.25467 112.363 8.26112 112.363 9.45478C112.363 10.688 113.172 11.6369 114.563 11.6369C115.955 11.6369 116.764 10.688 116.764 9.45478C116.764 8.26112 115.955 7.25467 114.563 7.25467ZM64.4619 4.57883V14.3127H61.0395V13.2312H61.0017C60.4003 14.2001 59.2161 14.6362 58.0861 14.6362C55.2295 14.6362 53.2173 12.2268 53.2173 9.43781C53.2173 6.64781 55.1928 4.25689 58.0499 4.25689C59.1592 4.25689 60.3253 4.67398 61.0395 5.5277V4.57883H64.4619ZM58.9529 7.25467C57.5612 7.25467 56.7519 8.26112 56.7519 9.45478C56.7519 10.688 57.5612 11.6369 58.9529 11.6369C60.3434 11.6369 61.1517 10.688 61.1517 9.45478C61.1517 8.26112 60.3434 7.25467 58.9529 7.25467ZM154.097 9.86621V10.2283H146.894C146.894 11.6328 147.63 12.3908 149.037 12.3908C149.773 12.3908 150.298 12.145 150.673 11.4991H153.966C153.418 13.7954 151.257 14.8399 149.057 14.8399C145.862 14.8399 143.472 13.0178 143.472 9.6569C143.472 6.41278 145.673 4.46055 148.813 4.46055C152.158 4.46055 154.097 6.54598 154.097 9.86621ZM146.951 8.23592H150.917C150.751 7.3061 149.903 6.70027 148.982 6.70027C147.986 6.70027 147.157 7.22947 146.951 8.23592ZM47.4369 29.8246H46.3788L45.856 32.8594H46.8628C49.1155 32.8594 49.554 32.2263 49.6833 31.4127C49.8276 30.5173 49.6512 29.8246 47.4369 29.8246ZM53.6326 31.4544C53.4759 32.4151 53.1604 33.3866 52.4613 34.0906C50.9208 35.6335 48.5968 35.7574 47.1224 35.7631H41.3574L43.8061 21.4577H53.6176L53.1589 24.2744H47.2259L46.7677 27.1292H48.4861C49.7546 27.1292 51.3815 27.2984 52.5404 28.2838C53.3937 29.0095 53.8482 30.1039 53.6326 31.4544ZM63.952 33.277H58.5376L57.0782 35.7631H52.907L61.1181 21.4577H65.4088L68.7096 35.7631H64.5188L63.952 33.277ZM63.3661 30.4325L62.5242 25.879H62.4833L60.0968 30.4325H63.3661ZM90.6444 21.4577H86.6821L84.2893 35.7615L88.2175 35.762L89.2579 29.5592H89.2978L93.3361 35.7631L98.4298 35.762L93.1277 28.2298L100.281 21.4577H95.4067L89.667 27.3571H89.6236L90.6444 21.4577ZM75.4396 21.4577L74.5656 26.7903H79.8058L80.6782 21.4577H84.4962L82.1737 35.7631H78.3692L79.3553 29.6127H74.1183L73.128 35.7631H69.2935L71.6356 21.4577H75.4396Z" fill="black"/>
<path fill-rule="evenodd" clip-rule="evenodd" d="M1.19727 34.5716H34.7613V1.19287H1.19727V34.5716Z" fill="#FFED00"/>
<path fill-rule="evenodd" clip-rule="evenodd" d="M1.19872 34.5714H34.7628V1.19268H1.19872V34.5714ZM0 35.7635H35.9625V-0.000976562H0V35.7635Z" fill="black"/>
<path fill-rule="evenodd" clip-rule="evenodd" d="M17.9823 21.9588L7.65304 32.2296L3.55475 28.159L13.885 17.8846L11.7301 15.74V11.5059L10.2335 10.016V13.7086L8.93087 15.0046L3.69386 9.79488L2.39844 11.0827C2.40775 10.1112 2.60271 7.29956 5.00066 4.95545C7.58839 2.47968 10.383 3.59516 11.3386 4.54659L16.5731 9.75374L15.2378 11.0801L17.9823 13.8104L20.7262 11.0801L19.3915 9.75374L24.6249 4.54659C25.5805 3.59516 28.3751 2.47968 30.9629 4.95545C33.3613 7.29956 33.5563 10.1112 33.5661 11.0827L32.2707 9.79488L27.0331 15.0046L25.731 13.7086V10.016L24.2334 11.5059V15.74L22.0785 17.8846L32.4093 28.159L28.3115 32.2296L17.9823 21.9588Z" fill="black"/>
</g>
<defs>
<clipPath id="clip0">
<rect width="166" height="36" fill="white"/>
</clipPath>
</defs>
</svg>
