<svg width="110" height="36" viewBox="0 0 110 36" fill="none" xmlns="http://www.w3.org/2000/svg">
<g clip-path="url(#clip0)">
<path d="M31.7146 4.80759H5.64572L7.52371 0.010498H33.5926L31.7146 4.80759ZM30.7756 7.20614H4.69498L2.81699 12.0032H28.8859L30.7756 7.20614ZM27.9586 14.38H1.87799L0 19.1771H26.0454L27.9586 14.38Z" fill="#009FDF"/>
<path d="M93.8299 31.1813H98.5249C99.1922 31.2553 99.8688 31.1756 100.495 30.9494C101.122 30.7231 101.678 30.3572 102.117 29.8839C102.761 29.101 103.085 28.1314 103.032 27.1473C103.076 26.5212 102.952 25.8946 102.672 25.3238C102.391 24.753 101.962 24.2557 101.424 23.8766C100.552 23.3469 99.5161 23.1015 98.4779 23.1788H93.8299V31.1813ZM87.6677 36.0111V7.2067H107.844L106.072 12.0365H93.8299V18.4145H98.8183C102.844 18.4145 104.934 19.3085 106.377 20.4532C107.409 21.3022 108.221 22.3573 108.752 23.5393C109.282 24.7213 109.518 25.9996 109.441 27.2782C109.52 28.6551 109.228 30.0285 108.59 31.2737C107.953 32.519 106.99 33.5965 105.79 34.4084C103.854 35.6513 101.823 36.0002 97.6915 36.0002L87.6677 36.0111ZM69.8033 36.0111V12.0256H60.8359V7.2067H85.731L83.9587 12.0365H76.0242V36.022L69.8033 36.0111ZM44.9551 18.7415H48.4764C49.1965 18.7872 49.92 18.7358 50.6243 18.5889C51.3568 18.3716 51.988 17.9295 52.4145 17.3353C52.841 16.741 53.0375 16.0297 52.9718 15.3181C53.0695 14.6111 52.8845 13.8952 52.4518 13.3064C52.0191 12.7177 51.3688 12.2968 50.6243 12.1237C49.8553 11.9579 49.0653 11.8918 48.2768 11.9275H44.9551V18.7415ZM44.9551 23.724V31.2794H49.251C50.435 31.4051 51.6253 31.1003 52.5727 30.429C53.0094 30.0532 53.3514 29.5927 53.5746 29.0801C53.7978 28.5675 53.8965 28.0156 53.8639 27.4635C53.8826 26.5815 53.5944 25.7174 53.0422 24.9996C52.1267 23.9093 50.9999 23.7022 49.075 23.7022L44.9551 23.724ZM54.885 20.6822V20.7803C55.9315 21.1545 56.9094 21.6767 57.7842 22.3284C58.6683 23.01 59.3672 23.8756 59.824 24.8549C60.2808 25.8342 60.4827 26.8997 60.4134 27.965C60.4134 31.9008 58.1598 34.7464 54.4625 35.5968C52.9887 35.9314 51.4707 36.0673 49.9553 36.0002H38.793V7.2067H48.7229C50.3 7.15314 51.878 7.28872 53.4178 7.61009C57.0095 8.50409 59.3687 10.8045 59.3687 14.435C59.3981 15.3006 59.2373 16.1627 58.8963 16.9687C58.5552 17.7747 58.0411 18.5077 57.3851 19.1231C56.6885 19.7801 55.8587 20.3026 54.9437 20.6604L54.885 20.6822Z" fill="#0A2973"/>
</g>
<defs>
<clipPath id="clip0">
<rect width="109.44" height="36" fill="white"/>
</clipPath>
</defs>
</svg>
