<svg xmlns="http://www.w3.org/2000/svg" viewBox="0 0 527.68 402.33">
  <g>
    <g>
      <g>
        <path d="M556.59,392.1l25.68-152.33-2.07-.87,3.1-1.77h0a2.24,2.24,0,0,1,2.39.17L790.88,355.78a5.8,5.8,0,0,1,2.67,5.21L767.67,514.53a1.92,1.92,0,0,1-1.08,1.56h0l-3,1.75L763,515l.18,0-204-117.75A5.8,5.8,0,0,1,556.59,392.1Z" transform="translate(-376.07 -198.5)" fill="#a8cff0"/>
        <path d="M789.74,359.94l3.37-1.49a4.64,4.64,0,0,1,.44,2.54L767.67,514.53a1.92,1.92,0,0,1-1.08,1.56h0l-3,1.75L763,515l.18,0-10.32-5.95Z" transform="translate(-376.07 -198.5)" fill="#d1ebff"/>
        <path d="M556,399.16,761.23,517.63c1.59.91,2.94.38,3.22-1.26l25.88-153.53a5.78,5.78,0,0,0-2.66-5.21L582.47,239.16c-1.58-.92-2.94-.39-3.22,1.25L553.37,394A5.8,5.8,0,0,0,556,399.16Z" transform="translate(-376.07 -198.5)" fill="#084c94"/>
        <polygon points="209.08 50.45 406.87 164.65 382.34 309.25 184.68 195.13 209.08 50.45" fill="#06335b"/>
      </g>
      <g>
        <path d="M427.05,471.85l11.2,5.85,112.29-64.83a8.14,8.14,0,0,1,7.33.3L751.53,525c1.85-1,10.3-5.1,10.3-5.1l-4.1,10.68h0a2.43,2.43,0,0,1-1.15,1.27L638.31,600.1a8.14,8.14,0,0,1-7.33-.3L432.8,485.38a3.54,3.54,0,0,1-1.66-1.77h0Z" transform="translate(-376.07 -198.5)" fill="#3f92d1"/>
        <path d="M428.78,473.69,631.89,591c2.22,1.29,5.59,1.43,7.51.32l121.2-70c1.93-1.11,1.69-3-.54-4.34L557,399.69a8.33,8.33,0,0,0-7.51-.31l-121.21,70C426.32,470.46,426.56,472.41,428.78,473.69Z" transform="translate(-376.07 -198.5)" fill="#a8cff0"/>
        <path d="M693.15,565.59v-2.23c0-.21-.13-.31-.28-.22L685,567.68a.69.69,0,0,0-.29.55v2.22c0,.22.13.31.29.22l7.86-4.53A.73.73,0,0,0,693.15,565.59Z" transform="translate(-376.07 -198.5)" fill="#084c94"/>
        <path d="M681.41,572.37v-2.23c0-.21-.13-.3-.29-.21l-7.86,4.53a.68.68,0,0,0-.28.55v2.23c0,.21.12.31.28.21l7.86-4.53A.69.69,0,0,0,681.41,572.37Z" transform="translate(-376.07 -198.5)" fill="#084c94"/>
        <path d="M729,514.74,560.22,417.29a3.62,3.62,0,0,0-3.63,0l-60.11,34.77a1.3,1.3,0,0,0,0,2.25l168.71,97.4a3.62,3.62,0,0,0,3.63,0L729,517A1.29,1.29,0,0,0,729,514.74Z" transform="translate(-376.07 -198.5)" fill="#d1ebff"/>
        <path d="M729,517l-.61.35-168.18-97.1a3.62,3.62,0,0,0-3.63,0l-59.5,34.43-.61-.35a1.3,1.3,0,0,1,0-2.25l60.11-34.77a3.62,3.62,0,0,1,3.63,0L729,514.74A1.29,1.29,0,0,1,729,517Z" transform="translate(-376.07 -198.5)" fill="#3f92d1"/>
        <g>
          <polygon points="175.98 227.59 322.59 312.24 329.11 308.48 182.5 223.83 175.98 227.59" fill="#084c94"/>
          <polygon points="160 236.82 297.51 316.21 304.03 312.45 166.51 233.06 160 236.82" fill="#084c94"/>
          <polygon points="149.59 242.83 311.5 336.31 318.02 332.55 156.1 239.07 149.59 242.83" fill="#084c94"/>
          <polygon points="139.18 248.84 301.09 342.32 307.61 338.56 145.7 245.08 139.18 248.84" fill="#084c94"/>
          <polygon points="128.77 254.85 290.68 348.33 297.2 344.56 135.29 251.09 128.77 254.85" fill="#084c94"/>
          <polygon points="331.45 317.35 337.97 321.12 344.49 317.35 337.97 313.59 331.45 317.35" fill="#084c94"/>
          <polygon points="308.45 322.53 321.99 330.34 328.5 326.58 314.97 318.77 308.45 322.53" fill="#084c94"/>
        </g>
        <path d="M553.72,538.32,508.21,512c-1.78-1-1.78-2.69,0-3.72l31.12-18a7.12,7.12,0,0,1,6.45,0l45.51,26.27c1.77,1,1.77,2.69,0,3.72l-31.12,18A7.18,7.18,0,0,1,553.72,538.32Z" transform="translate(-376.07 -198.5)" fill="#d1ebff"/>
        <path d="M591.29,518.15l-45.51-26.27a7.12,7.12,0,0,0-6.45,0l-31.12,18a2.78,2.78,0,0,0-1.11,1.1c-.47-.89-.12-1.91,1.11-2.62l31.12-18a7.12,7.12,0,0,1,6.45,0l45.51,26.27c1.23.71,1.58,1.72,1.11,2.62A2.85,2.85,0,0,0,591.29,518.15Z" transform="translate(-376.07 -198.5)" fill="#3f92d1"/>
      </g>
    </g>
    <g>
      <polygon points="232.16 97.34 232.15 100.23 224.11 99.27 232.13 107.58 232.12 110.44 221.02 98.97 221.03 96 232.16 97.34" fill="#3f92d1"/>
      <polygon points="241.54 97.29 235.38 112.55 232.91 111.12 239.05 95.85 241.54 97.29" fill="#3f92d1"/>
      <polygon points="242.29 103.19 253.4 114.69 253.39 117.66 242.26 116.29 242.27 113.43 250.31 114.39 242.29 106.08 242.29 103.19" fill="#3f92d1"/>
      <polygon points="238.57 126.45 238.54 135.3 220.94 125.14 220.97 116.29 238.57 126.45" fill="#3f92d1"/>
      <polygon points="284.13 165.59 284.11 174.43 242.16 150.22 242.19 141.37 284.13 165.59" fill="#3f92d1"/>
      <g style="isolation: isolate">
        <polygon points="284.06 191.19 284.03 200.04 242.09 175.82 242.11 166.97 284.06 191.19" fill="#3f92d1"/>
        <polygon points="284.09 178.38 284.07 187.23 242.13 163.02 242.15 154.17 284.09 178.38" fill="#3f92d1"/>
      </g>
      <polygon points="284.17 152.78 284.14 161.63 242.2 137.41 242.22 128.56 284.17 152.78" fill="#3f92d1"/>
      <polygon points="238.5 152.06 238.47 160.91 220.87 150.75 220.9 141.9 238.5 152.06" fill="#3f92d1"/>
      <polygon points="238.53 139.26 238.51 148.11 220.91 137.95 220.93 129.1 238.53 139.26" fill="#3f92d1"/>
      <polygon points="238.46 164.87 238.44 173.71 220.84 163.55 220.86 154.71 238.46 164.87" fill="#3f92d1"/>
      <path d="M592,271.91l73.51,42.45-.28,98-73.51-42.44Zm68.14,113.83,0-8.85-41.95-24.22,0,8.85,41.94,24.22m0-12.8,0-8.85-41.94-24.22,0,8.85,41.95,24.22m-.07,25.6,0-8.84-41.94-24.22,0,8.85,42,24.21m.1-38.41,0-8.85L618.3,327.07l0,8.85,41.94,24.21m-48.75-49.08,6.16-15.25-2.5-1.45L609,309.63l2.48,1.42m3.08,48.36,0-8.85L597,340.4l0,8.85,17.59,10.16m0-12.8,0-8.85L597,327.6l0,8.85,17.6,10.16m0-12.8,0-8.85L597,314.8l0,8.85,17.6,10.16m-.11,38.41,0-8.85-17.6-10.16,0,8.85,17.6,10.16M597.1,294.51v3l11.11,11.47v-2.86l-8-8.31,8,1v-2.88l-11.13-1.34m21.24,17.42v2.86l11.13,1.37v-3l-11.1-11.5v2.89l8,8.31-8-1" transform="translate(-376.07 -198.5)" fill="#a8cff0"/>
    </g>
    <g>
      <polygon points="470.4 86.28 470.39 89.17 462.35 88.21 470.37 96.52 470.37 99.38 459.26 87.91 459.27 84.94 470.4 86.28" fill="#3f92d1"/>
      <polygon points="479.79 86.23 473.63 101.49 471.15 100.06 477.29 84.79 479.79 86.23" fill="#3f92d1"/>
      <polygon points="480.54 92.13 491.64 103.63 491.63 106.59 480.5 105.23 480.51 102.37 488.55 103.33 480.53 95.02 480.54 92.13" fill="#3f92d1"/>
      <polygon points="476.81 115.39 476.79 124.24 459.19 114.08 459.21 105.23 476.81 115.39" fill="#3f92d1"/>
      <polygon points="522.37 154.53 522.35 163.37 480.4 139.16 480.43 130.31 522.37 154.53" fill="#3f92d1"/>
      <g style="isolation: isolate">
        <polygon points="522.3 180.13 522.28 188.98 480.33 164.76 480.36 155.91 522.3 180.13" fill="#3f92d1"/>
        <polygon points="522.34 167.32 522.31 176.17 480.37 151.96 480.39 143.11 522.34 167.32" fill="#3f92d1"/>
      </g>
      <polygon points="522.41 141.72 522.38 150.57 480.44 126.35 480.47 117.5 522.41 141.72" fill="#3f92d1"/>
      <polygon points="476.74 141 476.71 149.85 459.12 139.69 459.14 130.84 476.74 141" fill="#3f92d1"/>
      <polygon points="476.78 128.2 476.75 137.05 459.15 126.89 459.18 118.04 476.78 128.2" fill="#3f92d1"/>
      <polygon points="476.7 153.8 476.68 162.65 459.08 152.49 459.11 143.64 476.7 153.8" fill="#3f92d1"/>
      <path d="M830.24,260.85l73.51,42.45-.27,98L830,358.88Zm68.14,113.83,0-8.85-41.94-24.22,0,8.85,41.94,24.22m0-12.8,0-8.85-42-24.22,0,8.85,41.94,24.22m-.07,25.6,0-8.85-41.94-24.21,0,8.85,41.94,24.21m.11-38.41,0-8.85L856.54,316l0,8.85,42,24.21M849.7,300l6.16-15.25-2.5-1.45-6.13,15.28L849.7,300m3.09,48.36,0-8.85-17.6-10.16,0,8.85,17.6,10.16m0-12.8,0-8.85-17.6-10.16,0,8.85,17.59,10.16m0-12.8,0-8.85-17.6-10.16,0,8.85,17.6,10.16m-.11,38.41,0-8.85-17.6-10.16,0,8.85,17.6,10.16m-17.41-77.71v3l11.1,11.47V295l-8-8.31,8,1v-2.88l-11.14-1.34m21.24,17.42v2.86l11.14,1.37v-3l-11.1-11.49v2.89l8,8.3-8-1" transform="translate(-376.07 -198.5)" fill="#a8cff0"/>
    </g>
    <g>
      <polygon points="16.51 92.3 16.5 95.19 8.46 94.23 16.48 102.53 16.48 105.4 5.37 93.93 5.38 90.96 16.51 92.3" fill="#3f92d1"/>
      <polygon points="25.9 92.25 19.74 107.51 17.26 106.08 23.4 90.81 25.9 92.25" fill="#3f92d1"/>
      <polygon points="26.65 98.15 37.75 109.65 37.74 112.61 26.61 111.25 26.62 108.39 34.66 109.35 26.64 101.04 26.65 98.15" fill="#3f92d1"/>
      <polygon points="22.92 121.41 22.9 130.26 5.3 120.1 5.32 111.25 22.92 121.41" fill="#3f92d1"/>
      <polygon points="68.48 160.54 68.46 169.39 26.52 145.18 26.54 136.33 68.48 160.54" fill="#3f92d1"/>
      <g style="isolation: isolate">
        <polygon points="68.41 186.15 68.39 195 26.44 170.78 26.47 161.94 68.41 186.15" fill="#3f92d1"/>
        <polygon points="68.45 173.34 68.42 182.19 26.48 157.98 26.5 149.13 68.45 173.34" fill="#3f92d1"/>
      </g>
      <polygon points="68.52 147.74 68.49 156.59 26.55 132.37 26.58 123.52 68.52 147.74" fill="#3f92d1"/>
      <polygon points="22.85 147.02 22.82 155.87 5.23 145.71 5.25 136.86 22.85 147.02" fill="#3f92d1"/>
      <polygon points="22.89 134.22 22.86 143.07 5.26 132.91 5.29 124.06 22.89 134.22" fill="#3f92d1"/>
      <polygon points="22.81 159.82 22.79 168.67 5.19 158.51 5.21 149.66 22.81 159.82" fill="#3f92d1"/>
      <path d="M376.35,266.87l73.51,42.45-.27,98L376.07,364.9ZM444.49,380.7l0-8.85-41.94-24.22,0,8.85,41.94,24.22m0-12.8,0-8.85-41.95-24.22,0,8.85,41.94,24.22m-.07,25.6,0-8.85-41.94-24.21,0,8.85,41.94,24.21m.11-38.41,0-8.85L402.65,322l0,8.85,41.95,24.21M395.81,306,402,290.76l-2.5-1.45-6.13,15.28,2.47,1.42m3.09,48.36,0-8.85-17.6-10.16,0,8.85,17.6,10.16m0-12.8,0-8.85-17.6-10.16,0,8.85,17.59,10.16m0-12.8,0-8.85-17.6-10.16,0,8.85L399,328.77m-.11,38.41,0-8.85-17.6-10.16,0,8.85,17.6,10.16m-17.41-77.71v3l11.1,11.47V301l-8-8.31,8,1v-2.88l-11.14-1.34m21.24,17.42v2.86l11.14,1.37v-3l-11.1-11.5v2.89l8,8.3-8-1" transform="translate(-376.07 -198.5)" fill="#a8cff0"/>
    </g>
    <g>
      <g style="isolation: isolate">
        <polygon points="339.54 104.64 339.51 113.48 321.91 103.32 321.94 94.47 339.54 104.64" fill="#a8cff0"/>
        <polygon points="339.57 91.84 339.55 100.68 321.95 90.52 321.98 81.68 339.57 91.84" fill="#a8cff0"/>
        <polygon points="385.21 105.36 385.18 114.2 343.23 89.98 343.26 81.14 385.21 105.36" fill="#a8cff0"/>
        <path d="M693,224.49l73.52,42.44-.28,98-73.51-42.45Zm68.12,126.63,0-8.85-41.95-24.22,0,8.85,41.95,24.22m0-12.81,0-8.84-42-24.22,0,8.84,41.95,24.22m0-12.8,0-8.84-42-24.22,0,8.85,42,24.21m0-12.8,0-8.85-41.95-24.22,0,8.85,41.94,24.22M712.5,263.63l6.15-15.26-2.49-1.44L710,262.2l2.48,1.43M715.58,312l0-8.85L698,293l0,8.85L715.58,312m0,12.8,0-8.84L698,305.79l0,8.84,17.6,10.16m.07-25.6,0-8.85-17.6-10.16,0,8.85,17.6,10.16m0-12.81,0-8.84-17.6-10.17,0,8.85,17.6,10.16m3.71-21.87v2.86l11.13,1.37v-3l-11.11-11.5v2.89l8,8.31-8-1m-21.23-17.43v3l11.11,11.47v-2.86l-8-8.32,8,1v-2.89l-11.13-1.34" transform="translate(-376.07 -198.5)" fill="#3f92d1"/>
        <polygon points="339.5 117.44 339.48 126.29 321.88 116.13 321.9 107.28 339.5 117.44" fill="#a8cff0"/>
        <polygon points="385.1 143.77 385.07 152.62 343.12 128.4 343.15 119.55 385.1 143.77" fill="#a8cff0"/>
        <polygon points="385.13 130.96 385.11 139.81 343.16 115.59 343.19 106.74 385.13 130.96" fill="#a8cff0"/>
        <polygon points="342.58 49.87 336.43 65.13 333.95 63.7 340.09 48.43 342.58 49.87" fill="#a8cff0"/>
        <polygon points="343.33 55.77 354.44 67.27 354.43 70.23 343.29 68.86 343.3 66 351.35 66.97 343.32 58.65 343.33 55.77" fill="#a8cff0"/>
        <polygon points="385.17 118.16 385.14 127.01 343.2 102.79 343.22 93.94 385.17 118.16" fill="#a8cff0"/>
      </g>
      <polygon points="333.2 49.92 333.19 52.81 325.14 51.84 333.17 60.15 333.16 63.02 322.06 51.54 322.07 48.58 333.2 49.92" fill="#a8cff0"/>
      <polygon points="339.61 79.03 339.58 87.88 321.99 77.72 322.01 68.87 339.61 79.03" fill="#a8cff0"/>
    </g>
    <g>
      <g style="isolation: isolate">
        <polygon points="445.23 320.66 445.2 329.5 427.6 319.34 427.63 310.5 445.23 320.66" fill="#a8cff0"/>
        <polygon points="445.26 307.86 445.24 316.7 427.64 306.54 427.66 297.7 445.26 307.86" fill="#a8cff0"/>
        <polygon points="490.89 321.38 490.87 330.22 448.92 306 448.95 297.16 490.89 321.38" fill="#a8cff0"/>
        <path d="M798.72,440.51,872.24,483,872,581l-73.52-42.45Zm68.11,126.63,0-8.85-42-24.22,0,8.85,41.94,24.22m0-12.81,0-8.84L825,521.27l0,8.84,42,24.22m0-12.8,0-8.84L825,508.47l0,8.85,41.95,24.21m0-12.8,0-8.85-42-24.22,0,8.85,42,24.22m-48.75-49.08,6.15-15.26L821.85,463l-6.14,15.27,2.48,1.43M821.27,528l0-8.85L803.7,509l0,8.85L821.27,528m0,12.8,0-8.84-17.6-10.16,0,8.84,17.6,10.16m.07-25.6,0-8.85L803.74,496.2l0,8.85,17.6,10.16m0-12.81,0-8.84-17.6-10.17,0,8.85,17.6,10.16m3.71-21.87v2.86l11.14,1.37v-3l-11.11-11.5v2.89l8,8.31-8.05-1M803.83,463.1v3l11.1,11.47v-2.86l-8-8.32,8,1v-2.89l-11.13-1.34" transform="translate(-376.07 -198.5)" fill="#3f92d1"/>
        <polygon points="445.19 333.46 445.16 342.31 427.56 332.15 427.59 323.3 445.19 333.46" fill="#a8cff0"/>
        <polygon points="490.79 359.79 490.76 368.63 448.81 344.42 448.84 335.57 490.79 359.79" fill="#a8cff0"/>
        <polygon points="490.82 346.98 490.8 355.83 448.85 331.61 448.87 322.76 490.82 346.98" fill="#a8cff0"/>
        <polygon points="448.27 265.88 442.11 281.15 439.64 279.72 445.78 264.45 448.27 265.88" fill="#a8cff0"/>
        <polygon points="449.02 271.79 460.13 283.29 460.12 286.25 448.98 284.88 448.99 282.02 457.04 282.99 449.01 274.68 449.02 271.79" fill="#a8cff0"/>
        <polygon points="490.86 334.18 490.83 343.03 448.88 318.81 448.91 309.96 490.86 334.18" fill="#a8cff0"/>
      </g>
      <polygon points="438.89 265.94 438.88 268.83 430.83 267.86 438.86 276.17 438.85 279.04 427.75 267.56 427.76 264.6 438.89 265.94" fill="#a8cff0"/>
      <polygon points="445.3 295.05 445.27 303.9 427.67 293.74 427.7 284.89 445.3 295.05" fill="#a8cff0"/>
    </g>
    <g>
      <g style="isolation: isolate">
        <polygon points="113.54 78.65 113.51 87.5 95.91 77.34 95.94 68.49 113.54 78.65" fill="#a8cff0"/>
        <polygon points="113.57 65.85 113.55 74.7 95.95 64.54 95.97 55.69 113.57 65.85" fill="#a8cff0"/>
        <polygon points="159.21 79.37 159.18 88.22 117.23 64 117.26 55.15 159.21 79.37" fill="#a8cff0"/>
        <path d="M467,198.5,540.55,241l-.28,98-73.51-42.45Zm68.12,126.64,0-8.85-41.95-24.22,0,8.85,41.95,24.22m0-12.81,0-8.85-42-24.22,0,8.85,41.95,24.22m0-12.8,0-8.85L493.3,266.46l0,8.85,42,24.22m0-12.8,0-8.85-41.95-24.22,0,8.85,41.95,24.22M486.5,237.65l6.15-15.26L490.16,221,484,236.22l2.48,1.43M489.59,286l0-8.84L472,267l0,8.84L489.59,286m0,12.81,0-8.85L472,279.8l0,8.85,17.6,10.16m.07-25.6,0-8.85-17.6-10.16,0,8.84,17.6,10.17m0-12.81,0-8.85-17.6-10.16,0,8.85,17.6,10.16m3.71-21.88v2.86l11.13,1.37v-3l-11.11-11.5v2.89l8,8.31-8.05-1M472.14,221.1v3l11.11,11.48v-2.87l-8-8.31,8,1v-2.89l-11.13-1.34" transform="translate(-376.07 -198.5)" fill="#3f92d1"/>
        <polygon points="113.5 91.46 113.48 100.31 95.88 90.14 95.9 81.3 113.5 91.46" fill="#a8cff0"/>
        <polygon points="159.1 117.78 159.07 126.63 117.13 102.41 117.15 93.56 159.1 117.78" fill="#a8cff0"/>
        <polygon points="159.13 104.98 159.11 113.83 117.16 89.61 117.19 80.76 159.13 104.98" fill="#a8cff0"/>
        <polygon points="116.58 23.88 110.42 39.14 107.95 37.72 114.09 22.44 116.58 23.88" fill="#a8cff0"/>
        <polygon points="117.33 29.78 128.44 41.28 128.43 44.25 117.29 42.88 117.3 40.02 125.35 40.98 117.32 32.67 117.33 29.78" fill="#a8cff0"/>
        <polygon points="159.17 92.18 159.15 101.03 117.2 76.81 117.22 67.96 159.17 92.18" fill="#a8cff0"/>
      </g>
      <polygon points="107.2 23.93 107.19 26.82 99.15 25.86 107.17 34.17 107.16 37.03 96.06 25.56 96.07 22.6 107.2 23.93" fill="#a8cff0"/>
      <polygon points="113.61 53.05 113.58 61.9 95.99 51.73 96.01 42.89 113.61 53.05" fill="#a8cff0"/>
    </g>
  </g>
</svg>
