<svg xmlns="http://www.w3.org/2000/svg" viewBox="0 0 81 101">
  <g>
    <rect x="0.5" y="0.5" width="80" height="100" fill="none" stroke="#d1d8e5" stroke-miterlimit="10"/>
    <rect x="5.5" y="5.95" width="70" height="5" fill="#8fa0bc"/>
    <rect x="5.5" y="90.95" width="5" height="5" fill="#8fa0bc"/>
    <rect x="15.5" y="90.95" width="5" height="5" fill="#8fa0bc"/>
    <rect x="25.5" y="90.95" width="5" height="5" fill="#8fa0bc"/>
    <rect x="35.5" y="90.95" width="5" height="5" fill="#8fa0bc"/>
    <rect x="45.5" y="90.95" width="5" height="5" fill="#8fa0bc"/>
    <rect x="42.5" y="23.33" width="33" height="15.98" fill="#323b6a"/>
    <g>
      <rect x="5.5" y="41.31" width="5" height="5" fill="#d1d8e5"/>
      <rect x="14.5" y="41.31" width="5" height="5" fill="#d1d8e5"/>
      <rect x="23.5" y="41.31" width="5" height="5" fill="#d1d8e5"/>
      <g>
        <rect x="5.5" y="15.98" width="32" height="23.33" fill="#d1d8e5"/>
        <rect x="42.5" y="15.98" width="16.5" height="3" fill="#d1d8e5"/>
        <rect x="42.5" y="43.31" width="33" height="3" fill="#d1d8e5"/>
        <g>
          <rect x="5.5" y="49.31" width="70" height="3" fill="#d1d8e5"/>
          <rect x="5.5" y="54.31" width="70" height="3" fill="#d1d8e5"/>
        </g>
        <rect x="32.5" y="41.31" width="5" height="5" fill="#d1d8e5"/>
      </g>
    </g>
    <g>
      <rect x="5.5" y="75.95" width="15" height="10" fill="#d1d8e5"/>
      <rect x="25.5" y="75.95" width="50" height="10" fill="#d1d8e5"/>
    </g>
    <g>
      <rect x="5.5" y="60.95" width="15" height="10" fill="#d1d8e5"/>
      <rect x="25.5" y="60.95" width="50" height="10" fill="#d1d8e5"/>
    </g>
  </g>
</svg>
