<svg xmlns="http://www.w3.org/2000/svg" viewBox="0 0 81 101">
  <g>
    <rect x="0.5" y="0.5" width="80" height="100" fill="none" stroke="#d1d8e5" stroke-miterlimit="10"/>
    <rect x="5.5" y="5.95" width="70" height="5" fill="#8fa0bc"/>
    <rect x="5.5" y="90.95" width="5" height="5" fill="#8fa0bc"/>
    <rect x="15.5" y="90.95" width="5" height="5" fill="#8fa0bc"/>
    <rect x="25.5" y="90.95" width="5" height="5" fill="#8fa0bc"/>
    <rect x="35.5" y="90.95" width="5" height="5" fill="#8fa0bc"/>
    <rect x="45.5" y="90.95" width="5" height="5" fill="#8fa0bc"/>
    <g>
      <g>
        <rect x="5.5" y="45.95" width="15" height="10" fill="#d1d8e5"/>
        <rect x="25.5" y="45.95" width="35" height="10" fill="#d1d8e5"/>
      </g>
      <g>
        <rect x="5.5" y="60.95" width="15" height="10" fill="#d1d8e5"/>
        <rect x="25.5" y="60.95" width="35" height="10" fill="#d1d8e5"/>
      </g>
      <g>
        <rect x="5.5" y="30.95" width="15" height="10" fill="#d1d8e5"/>
        <rect x="25.5" y="30.95" width="35" height="10" fill="#d1d8e5"/>
      </g>
      <g>
        <rect x="5.5" y="75.95" width="15" height="10" fill="#d1d8e5"/>
        <rect x="25.5" y="75.95" width="35" height="10" fill="#d1d8e5"/>
      </g>
      <g>
        <rect x="5.5" y="15.95" width="15" height="10" fill="#d1d8e5"/>
        <rect x="25.5" y="15.95" width="35" height="10" fill="#d1d8e5"/>
      </g>
    </g>
    <rect x="65.5" y="15.95" width="10" height="32.2" fill="#323b6a"/>
  </g>
</svg>
