<svg
  width="40"
  height="40"
  viewBox="0 0 40 40"
  fill="none"
  xmlns="http://www.w3.org/2000/svg"
>
  <path id="apartment"
    d="M3.57 2C3.42054 1.99998 3.27706 2.05866 3.17044 2.1634C3.06383 2.26814 3.00262 2.41057 3 2.56V4.79C2.99999 4.86439 3.0148 4.93804 3.04356 5.00664C3.07233 5.07524 3.11448 5.13742 3.16754 5.18956C3.2206 5.24169 3.28352 5.28273 3.35263 5.31028C3.42173 5.33782 3.49562 5.35133 3.57 5.35H5.11V37.6C5.11262 37.7494 5.17383 37.8919 5.28044 37.9966C5.38706 38.1013 5.53054 38.16 5.68 38.16H33.46C33.5322 38.1587 33.6035 38.1432 33.6697 38.1143C33.736 38.0855 33.7959 38.0439 33.846 37.9919C33.8962 37.9399 33.9356 37.8785 33.962 37.8113C33.9884 37.744 34.0013 37.6722 34 37.6V5.35H35.56C35.7085 5.35 35.851 5.291 35.956 5.18598C36.061 5.08096 36.12 4.93852 36.12 4.79V2.56C36.1201 2.41488 36.0638 2.27539 35.9631 2.17093C35.8624 2.06646 35.725 2.00518 35.58 2L3.57 2ZM4.13 3.13H35V4.22H4.13V3.13ZM6.25 5.35H32.89V37H24.51V28C24.51 27.8488 24.4499 27.7038 24.3431 27.5969C24.2362 27.4901 24.0912 27.43 23.94 27.43H15.63C15.4788 27.43 15.3338 27.4901 15.2269 27.5969C15.1201 27.7038 15.06 27.8488 15.06 28V37H6.25V5.35ZM8.81 6.68C8.66054 6.67998 8.51706 6.73866 8.41044 6.8434C8.30383 6.94814 8.24262 7.09057 8.24 7.24V12.7H7.93C7.78057 12.7026 7.63814 12.7638 7.5334 12.8704C7.42866 12.9771 7.36998 13.1205 7.37 13.27C7.37 13.3435 7.38449 13.4164 7.41263 13.4843C7.44077 13.5522 7.48202 13.614 7.53402 13.666C7.58602 13.718 7.64775 13.7592 7.7157 13.7874C7.78364 13.8155 7.85646 13.83 7.93 13.83H14C14.0735 13.83 14.1464 13.8155 14.2143 13.7874C14.2822 13.7592 14.344 13.718 14.396 13.666C14.448 13.614 14.4892 13.5522 14.5174 13.4843C14.5455 13.4164 14.56 13.3435 14.56 13.27C14.5547 13.141 14.5051 13.0178 14.4194 12.9212C14.3338 12.8247 14.2174 12.7606 14.09 12.74H13.69V7.24C13.6874 7.09057 13.6262 6.94814 13.5196 6.8434C13.4129 6.73866 13.2695 6.67998 13.12 6.68H8.81ZM17.4 6.68C17.2515 6.68 17.109 6.739 17.004 6.84402C16.899 6.94904 16.84 7.09148 16.84 7.24V12.7H16.52C16.4456 12.7 16.372 12.7148 16.3034 12.7436C16.2348 12.7723 16.1726 12.8145 16.1204 12.8675C16.0683 12.9206 16.0273 12.9835 15.9997 13.0526C15.9722 13.1217 15.9587 13.1956 15.96 13.27C15.96 13.3435 15.9745 13.4164 16.0026 13.4843C16.0308 13.5522 16.072 13.614 16.124 13.666C16.176 13.718 16.2378 13.7592 16.3057 13.7874C16.3736 13.8155 16.4465 13.83 16.52 13.83H22.63C22.7044 13.8313 22.7783 13.8178 22.8474 13.7903C22.9165 13.7627 22.9794 13.7217 23.0325 13.6696C23.0855 13.6174 23.1277 13.5552 23.1564 13.4866C23.1852 13.418 23.2 13.3444 23.2 13.27C23.19 13.1249 23.1258 12.9889 23.0203 12.8889C22.9147 12.7889 22.7754 12.7322 22.63 12.73H22.32V7.24C22.3174 7.09057 22.2562 6.94814 22.1496 6.8434C22.0429 6.73866 21.8995 6.67998 21.75 6.68H17.4ZM25.99 6.68C25.8405 6.67998 25.6971 6.73866 25.5904 6.8434C25.4838 6.94814 25.4226 7.09057 25.42 7.24V12.7H25.11C24.9606 12.7026 24.8181 12.7638 24.7134 12.8704C24.6087 12.9771 24.55 13.1205 24.55 13.27C24.55 13.3435 24.5645 13.4164 24.5926 13.4843C24.6208 13.5522 24.662 13.614 24.714 13.666C24.766 13.718 24.8278 13.7592 24.8957 13.7874C24.9636 13.8155 25.0365 13.83 25.11 13.83H31.22C31.3695 13.83 31.5129 13.7713 31.6196 13.6666C31.7262 13.5619 31.7874 13.4194 31.79 13.27C31.7847 13.141 31.7351 13.0178 31.6494 12.9212C31.5638 12.8247 31.4474 12.7606 31.32 12.74H30.92V7.24C30.9174 7.09057 30.8562 6.94814 30.7496 6.8434C30.6429 6.73866 30.4995 6.67998 30.35 6.68H25.99ZM9.37 7.81H12.6V9.69H9.37V7.81ZM17.96 7.81H21.19V9.69H18L17.96 7.81ZM26.55 7.81H29.78V9.69H26.55V7.81ZM9.37 10.81H12.6V12.7H9.37V10.81ZM17.96 10.81H21.19V12.7H18L17.96 10.81ZM26.55 10.81H29.78V12.7H26.55V10.81ZM8.81 17.62C8.66054 17.62 8.51706 17.6787 8.41044 17.7834C8.30383 17.8881 8.24262 18.0306 8.24 18.18V23.64H7.93C7.85561 23.64 7.78196 23.6548 7.71336 23.6836C7.64476 23.7123 7.58258 23.7545 7.53044 23.8075C7.47831 23.8606 7.43727 23.9235 7.40972 23.9926C7.38218 24.0617 7.36867 24.1356 7.37 24.21C7.37 24.3585 7.429 24.501 7.53402 24.606C7.63904 24.711 7.78148 24.77 7.93 24.77H14C14.1485 24.77 14.291 24.711 14.396 24.606C14.501 24.501 14.56 24.3585 14.56 24.21C14.5547 24.081 14.5051 23.9578 14.4194 23.8612C14.3338 23.7647 14.2174 23.7006 14.09 23.68H13.69V18.18C13.6874 18.0306 13.6262 17.8881 13.5196 17.7834C13.4129 17.6787 13.2695 17.62 13.12 17.62H8.81ZM17.4 17.62C17.2515 17.62 17.109 17.679 17.004 17.784C16.899 17.889 16.84 18.0315 16.84 18.18V23.64H16.52C16.3715 23.64 16.229 23.699 16.124 23.804C16.019 23.909 15.96 24.0515 15.96 24.2C15.96 24.3485 16.019 24.491 16.124 24.596C16.229 24.701 16.3715 24.76 16.52 24.76H22.63C22.7795 24.76 22.9229 24.7013 23.0296 24.5966C23.1362 24.4919 23.1974 24.3494 23.2 24.2C23.1923 24.0541 23.1289 23.9167 23.0228 23.8162C22.9167 23.7157 22.7761 23.6598 22.63 23.66H22.32V18.18C22.3174 18.0306 22.2562 17.8881 22.1496 17.7834C22.0429 17.6787 21.8995 17.62 21.75 17.62H17.4ZM25.99 17.62C25.8405 17.62 25.6971 17.6787 25.5904 17.7834C25.4838 17.8881 25.4226 18.0306 25.42 18.18V23.64H25.11C25.0356 23.64 24.962 23.6548 24.8934 23.6836C24.8248 23.7123 24.7626 23.7545 24.7104 23.8075C24.6583 23.8606 24.6173 23.9235 24.5897 23.9926C24.5622 24.0617 24.5487 24.1356 24.55 24.21C24.55 24.3585 24.609 24.501 24.714 24.606C24.819 24.711 24.9615 24.77 25.11 24.77H31.22C31.3695 24.77 31.5129 24.7113 31.6196 24.6066C31.7262 24.5019 31.7874 24.3594 31.79 24.21C31.7847 24.081 31.7351 23.9578 31.6494 23.8612C31.5638 23.7647 31.4474 23.7006 31.32 23.68H30.92V18.18C30.9174 18.0306 30.8562 17.8881 30.7496 17.7834C30.6429 17.6787 30.4995 17.62 30.35 17.62H25.99ZM9.37 18.75H12.6V20.63H9.37V18.75ZM17.96 18.75H21.19V20.63H18L17.96 18.75ZM26.55 18.75H29.78V20.63H26.55V18.75ZM9.37 21.75H12.6V23.63H9.37V21.75ZM17.96 21.75H21.19V23.63H18L17.96 21.75ZM26.55 21.75H29.78V23.63H26.55V21.75ZM16.19 28.63H23.38V37H16.19V28.63Z"
    fill="#737A8E"
  />
</svg>