<svg
  width="40"
  height="40"
  viewBox="0 0 40 40"
  fill="none"
  xmlns="http://www.w3.org/2000/svg"
>
  <g id="bus">
    <path
      d="M22.65 6.92001C22.65 7.11627 22.572 7.3045 22.4333 7.44327C22.2945 7.58205 22.1063 7.66001 21.91 7.66001H18.72C18.5373 7.63881 18.3687 7.5512 18.2464 7.41384C18.1241 7.27648 18.0565 7.09895 18.0565 6.91501C18.0565 6.73107 18.1241 6.55355 18.2464 6.41619C18.3687 6.27883 18.5373 6.19122 18.72 6.17001H21.91C22.008 6.17 22.1051 6.18947 22.1955 6.22728C22.286 6.2651 22.368 6.3205 22.4368 6.39028C22.5057 6.46006 22.56 6.54282 22.5966 6.63376C22.6332 6.72469 22.6513 6.822 22.65 6.92001Z"
      fill="#737A8E"
    />
    <path
      d="M35.39 11.41H34.34V8.22C34.34 6.83557 33.79 5.50784 32.8111 4.5289C31.8322 3.54996 30.5044 3 29.12 3L11.49 3C10.1056 3 8.77784 3.54996 7.7989 4.5289C6.81996 5.50784 6.27 6.83557 6.27 8.22V11.4H5.27C4.97464 11.3947 4.68118 11.4481 4.40664 11.5572C4.13211 11.6663 3.88198 11.8288 3.67079 12.0353C3.45959 12.2419 3.29154 12.4883 3.17639 12.7604C3.06123 13.0324 3.00128 13.3246 3 13.62V17.43C3.00263 17.6272 3.08281 17.8154 3.22317 17.9539C3.36354 18.0924 3.55281 18.17 3.75 18.17C3.94626 18.17 4.13448 18.092 4.27326 17.9533C4.41204 17.8145 4.49 17.6263 4.49 17.43V13.62C4.49524 13.4255 4.57689 13.2409 4.71726 13.1061C4.85763 12.9713 5.04543 12.8973 5.24 12.9H6.24V31.11C6.24258 31.7269 6.45633 32.3243 6.84569 32.8028C7.23504 33.2813 7.77652 33.6121 8.38 33.74H8.49V35.65C8.49 36.1645 8.69439 36.658 9.05821 37.0218C9.42203 37.3856 9.91548 37.59 10.43 37.59H13.36C13.8745 37.59 14.368 37.3856 14.7318 37.0218C15.0956 36.658 15.3 36.1645 15.3 35.65V33.8H25.3V35.68C25.3 36.1945 25.5044 36.688 25.8682 37.0518C26.232 37.4156 26.7255 37.62 27.24 37.62H30.16C30.6745 37.62 31.168 37.4156 31.5318 37.0518C31.8956 36.688 32.1 36.1945 32.1 35.68V33.76H32.22C32.8189 33.6264 33.3548 33.2935 33.7399 32.8157C34.125 32.338 34.3366 31.7436 34.34 31.13V12.9H35.39C35.4859 12.8987 35.5811 12.9163 35.6701 12.9517C35.7592 12.9872 35.8404 13.0399 35.9091 13.1067C35.9779 13.1736 36.0327 13.2533 36.0706 13.3414C36.1085 13.4295 36.1287 13.5241 36.13 13.62V17.43C36.1326 17.6272 36.2128 17.8154 36.3532 17.9539C36.4935 18.0924 36.6828 18.17 36.88 18.17C37.0763 18.17 37.2645 18.092 37.4033 17.9533C37.542 17.8145 37.62 17.6263 37.62 17.43V13.62C37.6187 13.3285 37.56 13.04 37.4472 12.7712C37.3344 12.5024 37.1698 12.2584 36.9627 12.0531C36.7556 11.8479 36.5102 11.6855 36.2403 11.5752C35.9705 11.4648 35.6815 11.4087 35.39 11.41ZM13.84 35.68C13.84 35.7391 13.8284 35.7976 13.8057 35.8522C13.7831 35.9068 13.75 35.9564 13.7082 35.9982C13.6664 36.04 13.6168 36.0731 13.5622 36.0957C13.5076 36.1184 13.4491 36.13 13.39 36.13H10.46C10.4001 36.1313 10.3405 36.1207 10.2847 36.0987C10.229 36.0766 10.1782 36.0437 10.1353 36.0018C10.0925 35.9599 10.0584 35.9098 10.0352 35.8545C10.0119 35.7993 9.99999 35.7399 10 35.68V33.8H13.82L13.84 35.68ZM30.61 35.68C30.61 35.7391 30.5984 35.7976 30.5757 35.8522C30.5531 35.9068 30.52 35.9564 30.4782 35.9982C30.4364 36.04 30.3868 36.0731 30.3322 36.0957C30.2776 36.1184 30.2191 36.13 30.16 36.13H27.24C27.1809 36.13 27.1224 36.1184 27.0678 36.0957C27.0132 36.0731 26.9636 36.04 26.9218 35.9982C26.88 35.9564 26.8469 35.9068 26.8243 35.8522C26.8016 35.7976 26.79 35.7391 26.79 35.68V33.8H30.61V35.68ZM32.85 31.11C32.85 31.4283 32.7236 31.7335 32.4985 31.9585C32.2735 32.1836 31.9683 32.31 31.65 32.31H9C8.84288 32.31 8.68732 32.2789 8.54228 32.2185C8.39725 32.158 8.26562 32.0695 8.15499 31.9579C8.04435 31.8464 7.95691 31.714 7.8977 31.5685C7.83849 31.4229 7.80868 31.2671 7.81 31.11V22.81H32.85V31.11ZM32.85 21.32H7.76V10.78H32.85V21.32ZM32.85 9.32H7.76V8.22C7.76264 7.23155 8.15647 6.28435 8.85541 5.58541C9.55435 4.88647 10.5016 4.49264 11.49 4.49H29.12C30.1084 4.49264 31.0557 4.88647 31.7546 5.58541C32.4535 6.28435 32.8474 7.23155 32.85 8.22V9.32Z"
      fill="#737A8E"
    />
    <path
      d="M30.18 25.69C29.9195 25.4257 29.6077 25.2175 29.2638 25.0782C28.9198 24.9389 28.551 24.8714 28.18 24.88C27.6344 24.8898 27.1039 25.0606 26.655 25.3709C26.2061 25.6812 25.8588 26.1172 25.6568 26.6242C25.4548 27.1311 25.407 27.6864 25.5195 28.2204C25.6319 28.7544 25.8996 29.2433 26.2889 29.6257C26.6782 30.0081 27.1718 30.267 27.7077 30.3699C28.2437 30.4728 28.798 30.4151 29.3013 30.204C29.8045 29.993 30.2342 29.638 30.5364 29.1836C30.8387 28.7292 30.9999 28.1957 31 27.65C31.0018 27.285 30.9302 26.9234 30.7893 26.5866C30.6484 26.2499 30.4412 25.945 30.18 25.69ZM28.18 28.93C27.924 28.932 27.6733 28.8577 27.4596 28.7168C27.2459 28.5758 27.079 28.3744 26.9802 28.1383C26.8813 27.9022 26.8549 27.642 26.9044 27.3908C26.9538 27.1396 27.0769 26.9089 27.2579 26.7279C27.4389 26.5469 27.6697 26.4238 27.9208 26.3743C28.172 26.3249 28.4322 26.3513 28.6683 26.4501C28.9044 26.549 29.1058 26.7159 29.2468 26.9296C29.3878 27.1432 29.462 27.394 29.46 27.65C29.4602 27.9827 29.3308 28.3023 29.0994 28.5412C28.8679 28.7802 28.5525 28.9196 28.22 28.93H28.18Z"
      fill="#737A8E"
    />
    <path
      d="M12.41 24.88C11.8622 24.88 11.3266 25.0425 10.8711 25.3468C10.4156 25.6512 10.0605 26.0838 9.85087 26.59C9.64121 27.0961 9.58636 27.6531 9.69324 28.1904C9.80012 28.7277 10.0639 29.2213 10.4513 29.6087C10.8387 29.9961 11.3323 30.2599 11.8696 30.3668C12.4069 30.4737 12.9639 30.4188 13.47 30.2092C13.9762 29.9995 14.4088 29.6445 14.7132 29.1889C15.0176 28.7334 15.18 28.1979 15.18 27.65C15.1774 26.9162 14.8847 26.2131 14.3658 25.6942C13.8469 25.1753 13.1439 24.8826 12.41 24.88ZM12.41 28.93C12.154 28.932 11.9033 28.8578 11.6896 28.7168C11.4759 28.5758 11.309 28.3744 11.2102 28.1383C11.1113 27.9022 11.0849 27.642 11.1344 27.3908C11.1838 27.1397 11.3069 26.9089 11.4879 26.7279C11.6689 26.5469 11.8997 26.4238 12.1508 26.3743C12.402 26.3249 12.6622 26.3513 12.8983 26.4502C13.1344 26.549 13.3358 26.7159 13.4768 26.9296C13.6178 27.1432 13.692 27.394 13.69 27.65C13.6874 27.9887 13.5517 28.3127 13.3122 28.5522C13.0727 28.7917 12.7487 28.9274 12.41 28.93Z"
      fill="#737A8E"
    />
  </g>
</svg>