<svg
  width="40"
  height="40"
  viewBox="0 0 40 40"
  fill="none"
  xmlns="http://www.w3.org/2000/svg"
>
  <path id="childrens_playground"
    d="M38.055 33.31H30.125C29.863 33.3157 29.6044 33.2498 29.3771 33.1194C29.1498 32.989 28.9623 32.7991 28.835 32.57L23.835 23.88C23.4584 23.211 22.9087 22.6556 22.2437 22.2721C21.5786 21.8886 20.8227 21.691 20.055 21.7H18.855V15.7H20.735C20.8585 15.7003 20.9789 15.6619 21.0794 15.5901C21.1798 15.5183 21.2552 15.4169 21.295 15.3C21.3388 15.1851 21.345 15.0593 21.3127 14.9406C21.2803 14.822 21.2111 14.7167 21.115 14.64L11.765 6.87V5.42L15.675 4.27C15.7991 4.23503 15.9084 4.16037 15.986 4.05743C16.0637 3.95449 16.1055 3.82894 16.105 3.7C16.1038 3.57146 16.0614 3.4467 15.984 3.34408C15.9066 3.24146 15.7983 3.16642 15.675 3.13L11.765 2V1.6C11.765 1.52121 11.7495 1.44319 11.7193 1.37039C11.6892 1.29759 11.645 1.23145 11.5893 1.17574C11.5335 1.12002 11.4674 1.07583 11.3946 1.04567C11.3218 1.01552 11.2438 1 11.165 1C11.0862 1 11.0082 1.01552 10.9354 1.04567C10.8626 1.07583 10.7964 1.12002 10.7407 1.17574C10.685 1.23145 10.6408 1.29759 10.6107 1.37039C10.5805 1.44319 10.565 1.52121 10.565 1.6V6.87L1.215 14.64C1.12148 14.7182 1.05402 14.8231 1.0216 14.9406C0.98918 15.0582 0.993337 15.1828 1.03352 15.2979C1.0737 15.413 1.148 15.5132 1.24652 15.585C1.34504 15.6568 1.46311 15.697 1.585 15.7H3.465V26.11V38.63C3.465 38.7891 3.52821 38.9417 3.64073 39.0543C3.75325 39.1668 3.90587 39.23 4.065 39.23H6.285C6.44413 39.23 6.59674 39.1668 6.70926 39.0543C6.82178 38.9417 6.885 38.7891 6.885 38.63V27.63H8.545V38.63C8.545 38.7891 8.60821 38.9417 8.72073 39.0543C8.83325 39.1668 8.98587 39.23 9.145 39.23C9.30413 39.23 9.45674 39.1668 9.56926 39.0543C9.68178 38.9417 9.745 38.7891 9.745 38.63V35.41H12.595V38.63C12.5937 38.7083 12.6079 38.7861 12.637 38.8589C12.6661 38.9316 12.7093 38.9978 12.7642 39.0537C12.8191 39.1095 12.8846 39.1539 12.9569 39.1842C13.0291 39.2144 13.1067 39.23 13.185 39.23C13.3441 39.23 13.4967 39.1668 13.6093 39.0543C13.7218 38.9417 13.785 38.7891 13.785 38.63V27.63H15.445V38.63C15.445 38.7891 15.5082 38.9417 15.6207 39.0543C15.7333 39.1668 15.8859 39.23 16.045 39.23H18.265C18.4241 39.23 18.5767 39.1668 18.6893 39.0543C18.8018 38.9417 18.865 38.7891 18.865 38.63V27.72C19.1742 27.8438 19.4318 28.0696 19.595 28.36C20.825 30.49 22.055 32.63 23.295 34.76L24.605 37C24.9795 37.6716 25.5284 38.2295 26.1937 38.615C26.8591 39.0005 27.6161 39.1991 28.385 39.19H38.065C38.2241 39.19 38.3767 39.1268 38.4893 39.0143C38.6018 38.9017 38.665 38.7491 38.665 38.59V33.91C38.6575 33.7516 38.5906 33.6018 38.4775 33.4906C38.3644 33.3793 38.2135 33.3149 38.055 33.31ZM13.375 3.7L11.755 4.18V3.18L13.375 3.7ZM11.165 7.92L19.075 14.5H3.245L11.165 7.92ZM17.665 15.7V26.11C17.6624 26.1931 17.6275 26.272 17.5678 26.3298C17.5081 26.3877 17.4282 26.42 17.345 26.42H13.775V22.32C13.7971 21.963 13.7458 21.6052 13.6244 21.2688C13.503 20.9323 13.314 20.6243 13.069 20.3637C12.824 20.1031 12.5282 19.8954 12.1999 19.7534C11.8716 19.6115 11.5177 19.5382 11.16 19.5382C10.8023 19.5382 10.4484 19.6115 10.1201 19.7534C9.79179 19.8954 9.49603 20.1031 9.25103 20.3637C9.00604 20.6243 8.81701 20.9323 8.69558 21.2688C8.57416 21.6052 8.52291 21.963 8.545 22.32V26.42H4.995C4.91278 26.42 4.83393 26.3873 4.77579 26.3292C4.71766 26.2711 4.685 26.1922 4.685 26.11V15.7H17.665ZM12.585 30.4H9.745V27.61H12.585V30.4ZM12.585 26.4H9.745V22.3C9.745 21.9234 9.8946 21.5622 10.1609 21.2959C10.4272 21.0296 10.7884 20.88 11.165 20.88C11.5416 20.88 11.9028 21.0296 12.1691 21.2959C12.4354 21.5622 12.585 21.9234 12.585 22.3V26.4ZM5.695 38H4.695V27.58C4.80141 27.5903 4.90858 27.5903 5.015 27.58H5.695V38ZM9.745 34.18V31.59H12.585V34.21L9.745 34.18ZM16.625 38V27.61H17.625V38H16.625ZM37.455 38H28.375C27.8174 38.0055 27.2685 37.8619 26.7851 37.5841C26.3016 37.3063 25.9011 36.9044 25.625 36.42L24.315 34.13L20.615 27.73C20.4332 27.3999 20.1815 27.1134 19.8775 26.8906C19.5735 26.6678 19.2246 26.514 18.855 26.44V22.89H20.045C20.604 22.8834 21.1544 23.0276 21.6383 23.3074C22.1222 23.5872 22.5218 23.9923 22.795 24.48L27.795 33.17C28.0253 33.5815 28.3624 33.9231 28.7708 34.159C29.1791 34.3948 29.6435 34.5161 30.115 34.51H37.445L37.455 38Z"
    fill="#737A8E"
  />
</svg>