<svg
  width="40"
  height="40"
  viewBox="0 0 40 40"
  fill="none"
  xmlns="http://www.w3.org/2000/svg"
>
  <path id="doc"
    d="M18.3811 12.8546H9.21105C9.05811 12.8546 8.91143 12.9151 8.80328 13.0227C8.69513 13.1303 8.63438 13.2762 8.63438 13.4284C8.63312 13.5045 8.64711 13.5801 8.67553 13.6508C8.70395 13.7215 8.74623 13.7859 8.7999 13.8402C8.85358 13.8945 8.91757 13.9376 8.98816 13.967C9.05875 13.9964 9.13452 14.0116 9.21105 14.0116H18.3811C18.5225 13.9936 18.6525 13.9249 18.7467 13.8184C18.841 13.712 18.8929 13.5749 18.8929 13.4331C18.8929 13.2912 18.841 13.1542 18.7467 13.0477C18.6525 12.9412 18.5225 12.8726 18.3811 12.8546ZM24.819 18.9309H9.21105C9.13452 18.9309 9.05875 18.9461 8.98816 18.9755C8.91757 19.0049 8.85358 19.048 8.7999 19.1023C8.74623 19.1566 8.70395 19.2209 8.67553 19.2916C8.64711 19.3623 8.63312 19.438 8.63438 19.5141C8.63438 19.6663 8.69513 19.8122 8.80328 19.9198C8.91143 20.0274 9.05811 20.0879 9.21105 20.0879H24.819C24.972 20.0879 25.1187 20.0274 25.2268 19.9198C25.3349 19.8122 25.3957 19.6663 25.3957 19.5141C25.397 19.438 25.383 19.3623 25.3546 19.2916C25.3261 19.2209 25.2839 19.1566 25.2302 19.1023C25.1765 19.048 25.1125 19.0049 25.0419 18.9755C24.9713 18.9461 24.8956 18.9309 24.819 18.9309ZM24.819 24.9884H9.21105C9.07257 24.9971 8.94185 25.0551 8.84287 25.1518C8.74389 25.2486 8.6833 25.3776 8.67219 25.5152C8.67094 25.5913 8.68493 25.6669 8.71335 25.7376C8.74176 25.8083 8.78404 25.8727 8.83772 25.927C8.89139 25.9813 8.95539 26.0244 9.02598 26.0538C9.09656 26.0832 9.17233 26.0984 9.24887 26.0984H24.819C24.8956 26.0984 24.9713 26.0832 25.0419 26.0538C25.1125 26.0244 25.1765 25.9813 25.2302 25.927C25.2839 25.8727 25.3261 25.8083 25.3546 25.7376C25.383 25.6669 25.397 25.5913 25.3957 25.5152C25.3908 25.3663 25.3279 25.2251 25.2203 25.1216C25.1126 25.018 24.9688 24.9601 24.819 24.9602V24.9884ZM18.3811 12.8546H9.21105C9.05811 12.8546 8.91143 12.9151 8.80328 13.0227C8.69513 13.1303 8.63438 13.2762 8.63438 13.4284C8.63312 13.5045 8.64711 13.5801 8.67553 13.6508C8.70395 13.7215 8.74623 13.7859 8.7999 13.8402C8.85358 13.8945 8.91757 13.9376 8.98816 13.967C9.05875 13.9964 9.13452 14.0116 9.21105 14.0116H18.3811C18.5225 13.9936 18.6525 13.9249 18.7467 13.8184C18.841 13.712 18.8929 13.5749 18.8929 13.4331C18.8929 13.2912 18.841 13.1542 18.7467 13.0477C18.6525 12.9412 18.5225 12.8726 18.3811 12.8546ZM24.819 24.9602H9.21105C9.06796 24.9695 8.93349 25.0315 8.83386 25.1341C8.73423 25.2367 8.67659 25.3726 8.67219 25.5152C8.67094 25.5913 8.68493 25.6669 8.71335 25.7376C8.74176 25.8083 8.78404 25.8727 8.83772 25.927C8.89139 25.9813 8.95539 26.0244 9.02598 26.0538C9.09656 26.0832 9.17233 26.0984 9.24887 26.0984H24.819C24.8956 26.0984 24.9713 26.0832 25.0419 26.0538C25.1125 26.0244 25.1765 25.9813 25.2302 25.927C25.2839 25.8727 25.3261 25.8083 25.3546 25.7376C25.383 25.6669 25.397 25.5913 25.3957 25.5152C25.3908 25.3663 25.3279 25.2251 25.2203 25.1216C25.1126 25.018 24.9688 24.9601 24.819 24.9602ZM24.819 18.9027H9.21105C9.13452 18.9027 9.05875 18.9179 8.98816 18.9473C8.91757 18.9767 8.85358 19.0198 8.7999 19.0741C8.74623 19.1284 8.70395 19.1927 8.67553 19.2634C8.64711 19.3341 8.63312 19.4098 8.63438 19.4859C8.63438 19.6381 8.69513 19.784 8.80328 19.8916C8.91143 19.9992 9.05811 20.0597 9.21105 20.0597H24.819C24.972 20.0597 25.1187 19.9992 25.2268 19.8916C25.3349 19.784 25.3957 19.6381 25.3957 19.4859C25.3908 19.337 25.3279 19.1958 25.2203 19.0923C25.1126 18.9887 24.9688 18.9309 24.819 18.9309V18.9027ZM18.3811 12.8546H9.21105C9.05811 12.8546 8.91143 12.9151 8.80328 13.0227C8.69513 13.1303 8.63438 13.2762 8.63438 13.4284C8.63312 13.5045 8.64711 13.5801 8.67553 13.6508C8.70395 13.7215 8.74623 13.7859 8.7999 13.8402C8.85358 13.8945 8.91757 13.9376 8.98816 13.967C9.05875 13.9964 9.13452 14.0116 9.21105 14.0116H18.3811C18.5225 13.9936 18.6525 13.9249 18.7467 13.8184C18.841 13.712 18.8929 13.5749 18.8929 13.4331C18.8929 13.2912 18.841 13.1542 18.7467 13.0477C18.6525 12.9412 18.5225 12.8726 18.3811 12.8546ZM24.819 24.9602H9.21105C9.06796 24.9695 8.93349 25.0315 8.83386 25.1341C8.73423 25.2367 8.67659 25.3726 8.67219 25.5152C8.67094 25.5913 8.68493 25.6669 8.71335 25.7376C8.74176 25.8083 8.78404 25.8727 8.83772 25.927C8.89139 25.9813 8.95539 26.0244 9.02598 26.0538C9.09656 26.0832 9.17233 26.0984 9.24887 26.0984H24.819C24.8956 26.0984 24.9713 26.0832 25.0419 26.0538C25.1125 26.0244 25.1765 25.9813 25.2302 25.927C25.2839 25.8727 25.3261 25.8083 25.3546 25.7376C25.383 25.6669 25.397 25.5913 25.3957 25.5152C25.3908 25.3663 25.3279 25.2251 25.2203 25.1216C25.1126 25.018 24.9688 24.9601 24.819 24.9602ZM24.819 18.9027H9.21105C9.13452 18.9027 9.05875 18.9179 8.98816 18.9473C8.91757 18.9767 8.85358 19.0198 8.7999 19.0741C8.74623 19.1284 8.70395 19.1927 8.67553 19.2634C8.64711 19.3341 8.63312 19.4098 8.63438 19.4859C8.63438 19.6381 8.69513 19.784 8.80328 19.8916C8.91143 19.9992 9.05811 20.0597 9.21105 20.0597H24.819C24.972 20.0597 25.1187 19.9992 25.2268 19.8916C25.3349 19.784 25.3957 19.6381 25.3957 19.4859C25.3908 19.337 25.3279 19.1958 25.2203 19.0923C25.1126 18.9887 24.9688 18.9309 24.819 18.9309V18.9027ZM24.819 24.9602H9.21105C9.06796 24.9695 8.93349 25.0315 8.83386 25.1341C8.73423 25.2367 8.67659 25.3726 8.67219 25.5152C8.67094 25.5913 8.68493 25.6669 8.71335 25.7376C8.74176 25.8083 8.78404 25.8727 8.83772 25.927C8.89139 25.9813 8.95539 26.0244 9.02598 26.0538C9.09656 26.0832 9.17233 26.0984 9.24887 26.0984H24.819C24.8956 26.0984 24.9713 26.0832 25.0419 26.0538C25.1125 26.0244 25.1765 25.9813 25.2302 25.927C25.2839 25.8727 25.3261 25.8083 25.3546 25.7376C25.383 25.6669 25.397 25.5913 25.3957 25.5152C25.3908 25.3663 25.3279 25.2251 25.2203 25.1216C25.1126 25.018 24.9688 24.9601 24.819 24.9602ZM24.819 18.9027H9.21105C9.13452 18.9027 9.05875 18.9179 8.98816 18.9473C8.91757 18.9767 8.85358 19.0198 8.7999 19.0741C8.74623 19.1284 8.70395 19.1927 8.67553 19.2634C8.64711 19.3341 8.63312 19.4098 8.63438 19.4859C8.63438 19.6381 8.69513 19.784 8.80328 19.8916C8.91143 19.9992 9.05811 20.0597 9.21105 20.0597H24.819C24.972 20.0597 25.1187 19.9992 25.2268 19.8916C25.3349 19.784 25.3957 19.6381 25.3957 19.4859C25.3908 19.337 25.3279 19.1958 25.2203 19.0923C25.1126 18.9887 24.9688 18.9309 24.819 18.9309V18.9027ZM18.3811 12.8546H9.21105C9.05811 12.8546 8.91143 12.9151 8.80328 13.0227C8.69513 13.1303 8.63438 13.2762 8.63438 13.4284C8.63312 13.5045 8.64711 13.5801 8.67553 13.6508C8.70395 13.7215 8.74623 13.7859 8.7999 13.8402C8.85358 13.8945 8.91757 13.9376 8.98816 13.967C9.05875 13.9964 9.13452 14.0116 9.21105 14.0116H18.3811C18.5225 13.9936 18.6525 13.9249 18.7467 13.8184C18.841 13.712 18.8929 13.5749 18.8929 13.4331C18.8929 13.2912 18.841 13.1542 18.7467 13.0477C18.6525 12.9412 18.5225 12.8726 18.3811 12.8546ZM18.3811 12.8546H9.21105C9.05811 12.8546 8.91143 12.9151 8.80328 13.0227C8.69513 13.1303 8.63438 13.2762 8.63438 13.4284C8.63312 13.5045 8.64711 13.5801 8.67553 13.6508C8.70395 13.7215 8.74623 13.7859 8.7999 13.8402C8.85358 13.8945 8.91757 13.9376 8.98816 13.967C9.05875 13.9964 9.13452 14.0116 9.21105 14.0116H18.3811C18.5225 13.9936 18.6525 13.9249 18.7467 13.8184C18.841 13.712 18.8929 13.5749 18.8929 13.4331C18.8929 13.2912 18.841 13.1542 18.7467 13.0477C18.6525 12.9412 18.5225 12.8726 18.3811 12.8546ZM24.819 24.9602H9.21105C9.06796 24.9695 8.93349 25.0315 8.83386 25.1341C8.73423 25.2367 8.67659 25.3726 8.67219 25.5152C8.67094 25.5913 8.68493 25.6669 8.71335 25.7376C8.74176 25.8083 8.78404 25.8727 8.83772 25.927C8.89139 25.9813 8.95539 26.0244 9.02598 26.0538C9.09656 26.0832 9.17233 26.0984 9.24887 26.0984H24.819C24.8956 26.0984 24.9713 26.0832 25.0419 26.0538C25.1125 26.0244 25.1765 25.9813 25.2302 25.927C25.2839 25.8727 25.3261 25.8083 25.3546 25.7376C25.383 25.6669 25.397 25.5913 25.3957 25.5152C25.3908 25.3663 25.3279 25.2251 25.2203 25.1216C25.1126 25.018 24.9688 24.9601 24.819 24.9602ZM24.819 18.9027H9.21105C9.13452 18.9027 9.05875 18.9179 8.98816 18.9473C8.91757 18.9767 8.85358 19.0198 8.7999 19.0741C8.74623 19.1284 8.70395 19.1927 8.67553 19.2634C8.64711 19.3341 8.63312 19.4098 8.63438 19.4859C8.63438 19.6381 8.69513 19.784 8.80328 19.8916C8.91143 19.9992 9.05811 20.0597 9.21105 20.0597H24.819C24.972 20.0597 25.1187 19.9992 25.2268 19.8916C25.3349 19.784 25.3957 19.6381 25.3957 19.4859C25.3908 19.337 25.3279 19.1958 25.2203 19.0923C25.1126 18.9887 24.9688 18.9309 24.819 18.9309V18.9027ZM24.819 18.9027H9.21105C9.13452 18.9027 9.05875 18.9179 8.98816 18.9473C8.91757 18.9767 8.85358 19.0198 8.7999 19.0741C8.74623 19.1284 8.70395 19.1927 8.67553 19.2634C8.64711 19.3341 8.63312 19.4098 8.63438 19.4859C8.63438 19.6381 8.69513 19.784 8.80328 19.8916C8.91143 19.9992 9.05811 20.0597 9.21105 20.0597H24.819C24.972 20.0597 25.1187 19.9992 25.2268 19.8916C25.3349 19.784 25.3957 19.6381 25.3957 19.4859C25.3908 19.337 25.3279 19.1958 25.2203 19.0923C25.1126 18.9887 24.9688 18.9309 24.819 18.9309V18.9027ZM24.819 24.9602H9.21105C9.06796 24.9695 8.93349 25.0315 8.83386 25.1341C8.73423 25.2367 8.67659 25.3726 8.67219 25.5152C8.67094 25.5913 8.68493 25.6669 8.71335 25.7376C8.74176 25.8083 8.78404 25.8727 8.83772 25.927C8.89139 25.9813 8.95539 26.0244 9.02598 26.0538C9.09656 26.0832 9.17233 26.0984 9.24887 26.0984H24.819C24.8956 26.0984 24.9713 26.0832 25.0419 26.0538C25.1125 26.0244 25.1765 25.9813 25.2302 25.927C25.2839 25.8727 25.3261 25.8083 25.3546 25.7376C25.383 25.6669 25.397 25.5913 25.3957 25.5152C25.3908 25.3663 25.3279 25.2251 25.2203 25.1216C25.1126 25.018 24.9688 24.9601 24.819 24.9602ZM18.3811 12.8546H9.21105C9.05811 12.8546 8.91143 12.9151 8.80328 13.0227C8.69513 13.1303 8.63438 13.2762 8.63438 13.4284C8.63312 13.5045 8.64711 13.5801 8.67553 13.6508C8.70395 13.7215 8.74623 13.7859 8.7999 13.8402C8.85358 13.8945 8.91757 13.9376 8.98816 13.967C9.05875 13.9964 9.13452 14.0116 9.21105 14.0116H18.3811C18.5225 13.9936 18.6525 13.9249 18.7467 13.8184C18.841 13.712 18.8929 13.5749 18.8929 13.4331C18.8929 13.2912 18.841 13.1542 18.7467 13.0477C18.6525 12.9412 18.5225 12.8726 18.3811 12.8546ZM18.3811 12.8546H9.21105C9.05811 12.8546 8.91143 12.9151 8.80328 13.0227C8.69513 13.1303 8.63438 13.2762 8.63438 13.4284C8.63312 13.5045 8.64711 13.5801 8.67553 13.6508C8.70395 13.7215 8.74623 13.7859 8.7999 13.8402C8.85358 13.8945 8.91757 13.9376 8.98816 13.967C9.05875 13.9964 9.13452 14.0116 9.21105 14.0116H18.3811C18.5225 13.9936 18.6525 13.9249 18.7467 13.8184C18.841 13.712 18.8929 13.5749 18.8929 13.4331C18.8929 13.2912 18.841 13.1542 18.7467 13.0477C18.6525 12.9412 18.5225 12.8726 18.3811 12.8546ZM24.819 24.9602H9.21105C9.06796 24.9695 8.93349 25.0315 8.83386 25.1341C8.73423 25.2367 8.67659 25.3726 8.67219 25.5152C8.67094 25.5913 8.68493 25.6669 8.71335 25.7376C8.74176 25.8083 8.78404 25.8727 8.83772 25.927C8.89139 25.9813 8.95539 26.0244 9.02598 26.0538C9.09656 26.0832 9.17233 26.0984 9.24887 26.0984H24.819C24.8956 26.0984 24.9713 26.0832 25.0419 26.0538C25.1125 26.0244 25.1765 25.9813 25.2302 25.927C25.2839 25.8727 25.3261 25.8083 25.3546 25.7376C25.383 25.6669 25.397 25.5913 25.3957 25.5152C25.3908 25.3663 25.3279 25.2251 25.2203 25.1216C25.1126 25.018 24.9688 24.9601 24.819 24.9602ZM24.819 18.9027H9.21105C9.13452 18.9027 9.05875 18.9179 8.98816 18.9473C8.91757 18.9767 8.85358 19.0198 8.7999 19.0741C8.74623 19.1284 8.70395 19.1927 8.67553 19.2634C8.64711 19.3341 8.63312 19.4098 8.63438 19.4859C8.63438 19.6381 8.69513 19.784 8.80328 19.8916C8.91143 19.9992 9.05811 20.0597 9.21105 20.0597H24.819C24.972 20.0597 25.1187 19.9992 25.2268 19.8916C25.3349 19.784 25.3957 19.6381 25.3957 19.4859C25.3908 19.337 25.3279 19.1958 25.2203 19.0923C25.1126 18.9887 24.9688 18.9309 24.819 18.9309V18.9027ZM9.21105 20.0597H24.819C24.972 20.0597 25.1187 19.9992 25.2268 19.8916C25.3349 19.784 25.3957 19.6381 25.3957 19.4859C25.397 19.4098 25.383 19.3341 25.3546 19.2634C25.3261 19.1927 25.2839 19.1284 25.2302 19.0741C25.1765 19.0198 25.1125 18.9767 25.0419 18.9473C24.9713 18.9179 24.8956 18.9027 24.819 18.9027H9.21105C9.13452 18.9027 9.05875 18.9179 8.98816 18.9473C8.91757 18.9767 8.85358 19.0198 8.7999 19.0741C8.74623 19.1284 8.70395 19.1927 8.67553 19.2634C8.64711 19.3341 8.63312 19.4098 8.63438 19.4859C8.63438 19.6381 8.69513 19.784 8.80328 19.8916C8.91143 19.9992 9.05811 20.0597 9.21105 20.0597ZM24.819 24.9602H9.21105C9.06796 24.9695 8.93349 25.0315 8.83386 25.1341C8.73423 25.2367 8.67659 25.3726 8.67219 25.5152C8.67094 25.5913 8.68493 25.6669 8.71335 25.7376C8.74176 25.8083 8.78404 25.8727 8.83772 25.927C8.89139 25.9813 8.95539 26.0244 9.02598 26.0538C9.09656 26.0832 9.17233 26.0984 9.24887 26.0984H24.819C24.8956 26.0984 24.9713 26.0832 25.0419 26.0538C25.1125 26.0244 25.1765 25.9813 25.2302 25.927C25.2839 25.8727 25.3261 25.8083 25.3546 25.7376C25.383 25.6669 25.397 25.5913 25.3957 25.5152C25.3908 25.3663 25.3279 25.2251 25.2203 25.1216C25.1126 25.018 24.9688 24.9601 24.819 24.9602ZM9.21105 14.0116H18.3811C18.5225 13.9936 18.6525 13.9249 18.7467 13.8184C18.841 13.712 18.8929 13.5749 18.8929 13.4331C18.8929 13.2912 18.841 13.1542 18.7467 13.0477C18.6525 12.9412 18.5225 12.8726 18.3811 12.8546H9.21105C9.05811 12.8546 8.91143 12.9151 8.80328 13.0227C8.69513 13.1303 8.63438 13.2762 8.63438 13.4284C8.63312 13.5045 8.64711 13.5801 8.67553 13.6508C8.70395 13.7215 8.74623 13.7859 8.7999 13.8402C8.85358 13.8945 8.91757 13.9376 8.98816 13.967C9.05875 13.9964 9.13452 14.0116 9.21105 14.0116ZM30.8599 9.76001L23.297 2.23515C23.2472 2.16351 23.1809 2.10477 23.1036 2.06386C23.0262 2.02295 22.9402 2.00105 22.8527 2H5.8361H5.45795C4.80835 2.00733 4.18743 2.26734 3.72806 2.7244C3.2687 3.18145 3.00737 3.79925 3 4.44558V34.545C3.00741 35.1955 3.27104 35.817 3.73421 36.2761C4.19738 36.7352 4.8231 36.9951 5.47686 37H28.5249C29.177 36.9927 29.8003 36.7317 30.2614 36.2728C30.7226 35.814 30.9849 35.1938 30.9923 34.545V10.2962C31.02 10.1071 30.9725 9.91476 30.8599 9.76001ZM29.9146 34.498C29.9148 34.6762 29.8785 34.8526 29.8078 35.0163C29.7371 35.1801 29.6335 35.3277 29.5033 35.4501C29.3732 35.5726 29.2193 35.6673 29.051 35.7284C28.8827 35.7895 28.7037 35.8157 28.5249 35.8054H5.48631C5.13693 35.8054 4.80171 35.668 4.55377 35.4231C4.30584 35.1781 4.1653 34.8456 4.1628 34.498V4.46439C4.1653 4.11677 4.30584 3.78424 4.55377 3.53931C4.80171 3.29439 5.13693 3.15694 5.48631 3.15695H21.2456V9.34614C21.2529 9.99497 21.5152 10.6152 21.9764 11.074C22.4375 11.5328 23.0608 11.7938 23.713 11.8011H29.8673L29.9146 34.498ZM29.1394 10.6442H23.7224C23.3739 10.6442 23.0397 10.5064 22.7932 10.2612C22.5468 10.016 22.4084 9.68349 22.4084 9.33674V2.98764L29.4702 9.96694L30.1414 10.6442H29.1394ZM8.67219 19.4859C8.67219 19.6381 8.73295 19.784 8.8411 19.8916C8.94924 19.9992 9.09592 20.0597 9.24887 20.0597H24.819C24.972 20.0597 25.1187 19.9992 25.2268 19.8916C25.3349 19.784 25.3957 19.6381 25.3957 19.4859C25.397 19.4098 25.383 19.3341 25.3546 19.2634C25.3261 19.1927 25.2839 19.1284 25.2302 19.0741C25.1765 19.0198 25.1125 18.9767 25.0419 18.9473C24.9713 18.9179 24.8956 18.9027 24.819 18.9027H9.21105C9.06311 18.9124 8.92458 18.9783 8.82424 19.0869C8.72389 19.1955 8.66944 19.3384 8.67219 19.4859ZM24.8568 24.9602H9.21105C9.06796 24.9695 8.93349 25.0315 8.83386 25.1341C8.73423 25.2367 8.67659 25.3726 8.67219 25.5152C8.67094 25.5913 8.68493 25.6669 8.71335 25.7376C8.74176 25.8083 8.78404 25.8727 8.83772 25.927C8.89139 25.9813 8.95539 26.0244 9.02598 26.0538C9.09656 26.0832 9.17233 26.0984 9.24887 26.0984H24.819C24.8956 26.0984 24.9713 26.0832 25.0419 26.0538C25.1125 26.0244 25.1765 25.9813 25.2302 25.927C25.2839 25.8727 25.3261 25.8083 25.3546 25.7376C25.383 25.6669 25.397 25.5913 25.3957 25.5152C25.3908 25.3663 25.3279 25.2251 25.2203 25.1216C25.1126 25.018 24.9688 24.9601 24.819 24.9602H24.8568ZM9.21105 14.0116H18.3811C18.5225 13.9936 18.6525 13.9249 18.7467 13.8184C18.841 13.712 18.8929 13.5749 18.8929 13.4331C18.8929 13.2912 18.841 13.1542 18.7467 13.0477C18.6525 12.9412 18.5225 12.8726 18.3811 12.8546H9.21105C9.05811 12.8546 8.91143 12.9151 8.80328 13.0227C8.69513 13.1303 8.63438 13.2762 8.63438 13.4284C8.63312 13.5045 8.64711 13.5801 8.67553 13.6508C8.70395 13.7215 8.74623 13.7859 8.7999 13.8402C8.85358 13.8945 8.91757 13.9376 8.98816 13.967C9.05875 13.9964 9.13452 14.0116 9.21105 14.0116ZM18.3811 12.8546H9.21105C9.05811 12.8546 8.91143 12.9151 8.80328 13.0227C8.69513 13.1303 8.63438 13.2762 8.63438 13.4284C8.63312 13.5045 8.64711 13.5801 8.67553 13.6508C8.70395 13.7215 8.74623 13.7859 8.7999 13.8402C8.85358 13.8945 8.91757 13.9376 8.98816 13.967C9.05875 13.9964 9.13452 14.0116 9.21105 14.0116H18.3811C18.5225 13.9936 18.6525 13.9249 18.7467 13.8184C18.841 13.712 18.8929 13.5749 18.8929 13.4331C18.8929 13.2912 18.841 13.1542 18.7467 13.0477C18.6525 12.9412 18.5225 12.8726 18.3811 12.8546ZM24.819 24.9602H9.21105C9.06796 24.9695 8.93349 25.0315 8.83386 25.1341C8.73423 25.2367 8.67659 25.3726 8.67219 25.5152C8.67094 25.5913 8.68493 25.6669 8.71335 25.7376C8.74176 25.8083 8.78404 25.8727 8.83772 25.927C8.89139 25.9813 8.95539 26.0244 9.02598 26.0538C9.09656 26.0832 9.17233 26.0984 9.24887 26.0984H24.819C24.8956 26.0984 24.9713 26.0832 25.0419 26.0538C25.1125 26.0244 25.1765 25.9813 25.2302 25.927C25.2839 25.8727 25.3261 25.8083 25.3546 25.7376C25.383 25.6669 25.397 25.5913 25.3957 25.5152C25.3908 25.3663 25.3279 25.2251 25.2203 25.1216C25.1126 25.018 24.9688 24.9601 24.819 24.9602ZM24.819 18.9027H9.21105C9.13452 18.9027 9.05875 18.9179 8.98816 18.9473C8.91757 18.9767 8.85358 19.0198 8.7999 19.0741C8.74623 19.1284 8.70395 19.1927 8.67553 19.2634C8.64711 19.3341 8.63312 19.4098 8.63438 19.4859C8.63438 19.6381 8.69513 19.784 8.80328 19.8916C8.91143 19.9992 9.05811 20.0597 9.21105 20.0597H24.819C24.972 20.0597 25.1187 19.9992 25.2268 19.8916C25.3349 19.784 25.3957 19.6381 25.3957 19.4859C25.3908 19.337 25.3279 19.1958 25.2203 19.0923C25.1126 18.9887 24.9688 18.9309 24.819 18.9309V18.9027ZM24.819 18.9027H9.21105C9.13452 18.9027 9.05875 18.9179 8.98816 18.9473C8.91757 18.9767 8.85358 19.0198 8.7999 19.0741C8.74623 19.1284 8.70395 19.1927 8.67553 19.2634C8.64711 19.3341 8.63312 19.4098 8.63438 19.4859C8.63438 19.6381 8.69513 19.784 8.80328 19.8916C8.91143 19.9992 9.05811 20.0597 9.21105 20.0597H24.819C24.972 20.0597 25.1187 19.9992 25.2268 19.8916C25.3349 19.784 25.3957 19.6381 25.3957 19.4859C25.3908 19.337 25.3279 19.1958 25.2203 19.0923C25.1126 18.9887 24.9688 18.9309 24.819 18.9309V18.9027ZM24.819 24.9602H9.21105C9.06796 24.9695 8.93349 25.0315 8.83386 25.1341C8.73423 25.2367 8.67659 25.3726 8.67219 25.5152C8.67094 25.5913 8.68493 25.6669 8.71335 25.7376C8.74176 25.8083 8.78404 25.8727 8.83772 25.927C8.89139 25.9813 8.95539 26.0244 9.02598 26.0538C9.09656 26.0832 9.17233 26.0984 9.24887 26.0984H24.819C24.8956 26.0984 24.9713 26.0832 25.0419 26.0538C25.1125 26.0244 25.1765 25.9813 25.2302 25.927C25.2839 25.8727 25.3261 25.8083 25.3546 25.7376C25.383 25.6669 25.397 25.5913 25.3957 25.5152C25.3908 25.3663 25.3279 25.2251 25.2203 25.1216C25.1126 25.018 24.9688 24.9601 24.819 24.9602ZM18.3811 12.8546H9.21105C9.05811 12.8546 8.91143 12.9151 8.80328 13.0227C8.69513 13.1303 8.63438 13.2762 8.63438 13.4284C8.63312 13.5045 8.64711 13.5801 8.67553 13.6508C8.70395 13.7215 8.74623 13.7859 8.7999 13.8402C8.85358 13.8945 8.91757 13.9376 8.98816 13.967C9.05875 13.9964 9.13452 14.0116 9.21105 14.0116H18.3811C18.5225 13.9936 18.6525 13.9249 18.7467 13.8184C18.841 13.712 18.8929 13.5749 18.8929 13.4331C18.8929 13.2912 18.841 13.1542 18.7467 13.0477C18.6525 12.9412 18.5225 12.8726 18.3811 12.8546ZM18.3811 12.8546H9.21105C9.05811 12.8546 8.91143 12.9151 8.80328 13.0227C8.69513 13.1303 8.63438 13.2762 8.63438 13.4284C8.63312 13.5045 8.64711 13.5801 8.67553 13.6508C8.70395 13.7215 8.74623 13.7859 8.7999 13.8402C8.85358 13.8945 8.91757 13.9376 8.98816 13.967C9.05875 13.9964 9.13452 14.0116 9.21105 14.0116H18.3811C18.5225 13.9936 18.6525 13.9249 18.7467 13.8184C18.841 13.712 18.8929 13.5749 18.8929 13.4331C18.8929 13.2912 18.841 13.1542 18.7467 13.0477C18.6525 12.9412 18.5225 12.8726 18.3811 12.8546ZM24.819 24.9602H9.21105C9.06796 24.9695 8.93349 25.0315 8.83386 25.1341C8.73423 25.2367 8.67659 25.3726 8.67219 25.5152C8.67094 25.5913 8.68493 25.6669 8.71335 25.7376C8.74176 25.8083 8.78404 25.8727 8.83772 25.927C8.89139 25.9813 8.95539 26.0244 9.02598 26.0538C9.09656 26.0832 9.17233 26.0984 9.24887 26.0984H24.819C24.8956 26.0984 24.9713 26.0832 25.0419 26.0538C25.1125 26.0244 25.1765 25.9813 25.2302 25.927C25.2839 25.8727 25.3261 25.8083 25.3546 25.7376C25.383 25.6669 25.397 25.5913 25.3957 25.5152C25.3908 25.3663 25.3279 25.2251 25.2203 25.1216C25.1126 25.018 24.9688 24.9601 24.819 24.9602ZM24.819 18.9027H9.21105C9.13452 18.9027 9.05875 18.9179 8.98816 18.9473C8.91757 18.9767 8.85358 19.0198 8.7999 19.0741C8.74623 19.1284 8.70395 19.1927 8.67553 19.2634C8.64711 19.3341 8.63312 19.4098 8.63438 19.4859C8.63438 19.6381 8.69513 19.784 8.80328 19.8916C8.91143 19.9992 9.05811 20.0597 9.21105 20.0597H24.819C24.972 20.0597 25.1187 19.9992 25.2268 19.8916C25.3349 19.784 25.3957 19.6381 25.3957 19.4859C25.3908 19.337 25.3279 19.1958 25.2203 19.0923C25.1126 18.9887 24.9688 18.9309 24.819 18.9309V18.9027ZM24.819 24.9602H9.21105C9.06796 24.9695 8.93349 25.0315 8.83386 25.1341C8.73423 25.2367 8.67659 25.3726 8.67219 25.5152C8.67094 25.5913 8.68493 25.6669 8.71335 25.7376C8.74176 25.8083 8.78404 25.8727 8.83772 25.927C8.89139 25.9813 8.95539 26.0244 9.02598 26.0538C9.09656 26.0832 9.17233 26.0984 9.24887 26.0984H24.819C24.8956 26.0984 24.9713 26.0832 25.0419 26.0538C25.1125 26.0244 25.1765 25.9813 25.2302 25.927C25.2839 25.8727 25.3261 25.8083 25.3546 25.7376C25.383 25.6669 25.397 25.5913 25.3957 25.5152C25.3908 25.3663 25.3279 25.2251 25.2203 25.1216C25.1126 25.018 24.9688 24.9601 24.819 24.9602ZM24.819 18.9027H9.21105C9.13452 18.9027 9.05875 18.9179 8.98816 18.9473C8.91757 18.9767 8.85358 19.0198 8.7999 19.0741C8.74623 19.1284 8.70395 19.1927 8.67553 19.2634C8.64711 19.3341 8.63312 19.4098 8.63438 19.4859C8.63438 19.6381 8.69513 19.784 8.80328 19.8916C8.91143 19.9992 9.05811 20.0597 9.21105 20.0597H24.819C24.972 20.0597 25.1187 19.9992 25.2268 19.8916C25.3349 19.784 25.3957 19.6381 25.3957 19.4859C25.3908 19.337 25.3279 19.1958 25.2203 19.0923C25.1126 18.9887 24.9688 18.9309 24.819 18.9309V18.9027ZM18.3811 12.8546H9.21105C9.05811 12.8546 8.91143 12.9151 8.80328 13.0227C8.69513 13.1303 8.63438 13.2762 8.63438 13.4284C8.63312 13.5045 8.64711 13.5801 8.67553 13.6508C8.70395 13.7215 8.74623 13.7859 8.7999 13.8402C8.85358 13.8945 8.91757 13.9376 8.98816 13.967C9.05875 13.9964 9.13452 14.0116 9.21105 14.0116H18.3811C18.5225 13.9936 18.6525 13.9249 18.7467 13.8184C18.841 13.712 18.8929 13.5749 18.8929 13.4331C18.8929 13.2912 18.841 13.1542 18.7467 13.0477C18.6525 12.9412 18.5225 12.8726 18.3811 12.8546Z"
    fill="#737A8E"
  />
</svg>