<svg
  width="40"
  height="40"
  viewBox="0 0 40 40"
  fill="none"
  xmlns="http://www.w3.org/2000/svg"
>
  <path id="doors"
    d="M24.73 17.3C24.5576 17.3 24.3923 17.3685 24.2704 17.4904C24.1485 17.6123 24.08 17.7776 24.08 17.95V22.95C24.08 23.1224 24.1485 23.2877 24.2704 23.4096C24.3923 23.5315 24.5576 23.6 24.73 23.6C24.9033 23.6 25.0697 23.5319 25.1932 23.4102C25.3167 23.2886 25.3874 23.1233 25.39 22.95V18C25.3955 17.91 25.3824 17.8199 25.3517 17.7351C25.321 17.6504 25.2733 17.5728 25.2114 17.5072C25.1496 17.4416 25.075 17.3894 24.9922 17.3538C24.9094 17.3181 24.8201 17.2998 24.73 17.3ZM14.73 17.3C14.6338 17.2877 14.5361 17.2971 14.444 17.3275C14.3519 17.3579 14.2678 17.4085 14.1978 17.4756C14.1278 17.5427 14.0737 17.6247 14.0395 17.7154C14.0052 17.8061 13.9918 17.9034 14 18V23C14 23.1724 14.0685 23.3377 14.1904 23.4596C14.3123 23.5815 14.4776 23.65 14.65 23.65C14.8233 23.65 14.9897 23.5819 15.1132 23.4602C15.2367 23.3386 15.3074 23.1733 15.31 23V18C15.3154 17.9133 15.3037 17.8264 15.2754 17.7442C15.2471 17.6621 15.203 17.5863 15.1454 17.5213C15.0877 17.4562 15.0179 17.4032 14.9397 17.3652C14.8616 17.3273 14.7767 17.3051 14.69 17.3H14.73ZM24.73 17.3C24.5576 17.3 24.3923 17.3685 24.2704 17.4904C24.1485 17.6123 24.08 17.7776 24.08 17.95V22.95C24.08 23.1224 24.1485 23.2877 24.2704 23.4096C24.3923 23.5315 24.5576 23.6 24.73 23.6C24.9033 23.6 25.0697 23.5319 25.1932 23.4102C25.3167 23.2886 25.3874 23.1233 25.39 22.95V18C25.3955 17.91 25.3824 17.8199 25.3517 17.7351C25.321 17.6504 25.2733 17.5728 25.2114 17.5072C25.1496 17.4416 25.075 17.3894 24.9922 17.3538C24.9094 17.3181 24.8201 17.2998 24.73 17.3ZM14.73 17.3C14.6338 17.2877 14.5361 17.2971 14.444 17.3275C14.3519 17.3579 14.2678 17.4085 14.1978 17.4756C14.1278 17.5427 14.0737 17.6247 14.0395 17.7154C14.0052 17.8061 13.9918 17.9034 14 18V23C14 23.1724 14.0685 23.3377 14.1904 23.4596C14.3123 23.5815 14.4776 23.65 14.65 23.65C14.8233 23.65 14.9897 23.5819 15.1132 23.4602C15.2367 23.3386 15.3074 23.1733 15.31 23V18C15.3154 17.9133 15.3037 17.8264 15.2754 17.7442C15.2471 17.6621 15.203 17.5863 15.1454 17.5213C15.0877 17.4562 15.0179 17.4032 14.9397 17.3652C14.8616 17.3273 14.7767 17.3051 14.69 17.3H14.73ZM14.73 17.3C14.6338 17.2877 14.5361 17.2971 14.444 17.3275C14.3519 17.3579 14.2678 17.4085 14.1978 17.4756C14.1278 17.5427 14.0737 17.6247 14.0395 17.7154C14.0052 17.8061 13.9918 17.9034 14 18V23C14 23.1724 14.0685 23.3377 14.1904 23.4596C14.3123 23.5815 14.4776 23.65 14.65 23.65C14.8233 23.65 14.9897 23.5819 15.1132 23.4602C15.2367 23.3386 15.3074 23.1733 15.31 23V18C15.3154 17.9133 15.3037 17.8264 15.2754 17.7442C15.2471 17.6621 15.203 17.5863 15.1454 17.5213C15.0877 17.4562 15.0179 17.4032 14.9397 17.3652C14.8616 17.3273 14.7767 17.3051 14.69 17.3H14.73ZM24.73 17.3C24.5576 17.3 24.3923 17.3685 24.2704 17.4904C24.1485 17.6123 24.08 17.7776 24.08 17.95V22.95C24.08 23.1224 24.1485 23.2877 24.2704 23.4096C24.3923 23.5315 24.5576 23.6 24.73 23.6C24.9033 23.6 25.0697 23.5319 25.1932 23.4102C25.3167 23.2886 25.3874 23.1233 25.39 22.95V18C25.3955 17.91 25.3824 17.8199 25.3517 17.7351C25.321 17.6504 25.2733 17.5728 25.2114 17.5072C25.1496 17.4416 25.075 17.3894 24.9922 17.3538C24.9094 17.3181 24.8201 17.2998 24.73 17.3ZM14.73 17.3C14.6338 17.2877 14.5361 17.2971 14.444 17.3275C14.3519 17.3579 14.2678 17.4085 14.1978 17.4756C14.1278 17.5427 14.0737 17.6247 14.0395 17.7154C14.0052 17.8061 13.9918 17.9034 14 18V23C14 23.1724 14.0685 23.3377 14.1904 23.4596C14.3123 23.5815 14.4776 23.65 14.65 23.65C14.8233 23.65 14.9897 23.5819 15.1132 23.4602C15.2367 23.3386 15.3074 23.1733 15.31 23V18C15.3154 17.9133 15.3037 17.8264 15.2754 17.7442C15.2471 17.6621 15.203 17.5863 15.1454 17.5213C15.0877 17.4562 15.0179 17.4032 14.9397 17.3652C14.8616 17.3273 14.7767 17.3051 14.69 17.3H14.73ZM24.73 17.3C24.5576 17.3 24.3923 17.3685 24.2704 17.4904C24.1485 17.6123 24.08 17.7776 24.08 17.95V22.95C24.08 23.1224 24.1485 23.2877 24.2704 23.4096C24.3923 23.5315 24.5576 23.6 24.73 23.6C24.9033 23.6 25.0697 23.5319 25.1932 23.4102C25.3167 23.2886 25.3874 23.1233 25.39 22.95V18C25.3955 17.91 25.3824 17.8199 25.3517 17.7351C25.321 17.6504 25.2733 17.5728 25.2114 17.5072C25.1496 17.4416 25.075 17.3894 24.9922 17.3538C24.9094 17.3181 24.8201 17.2998 24.73 17.3ZM14.73 17.3C14.6338 17.2877 14.5361 17.2971 14.444 17.3275C14.3519 17.3579 14.2678 17.4085 14.1978 17.4756C14.1278 17.5427 14.0737 17.6247 14.0395 17.7154C14.0052 17.8061 13.9918 17.9034 14 18V23C14 23.1724 14.0685 23.3377 14.1904 23.4596C14.3123 23.5815 14.4776 23.65 14.65 23.65C14.8233 23.65 14.9897 23.5819 15.1132 23.4602C15.2367 23.3386 15.3074 23.1733 15.31 23V18C15.3154 17.9133 15.3037 17.8264 15.2754 17.7442C15.2471 17.6621 15.203 17.5863 15.1454 17.5213C15.0877 17.4562 15.0179 17.4032 14.9397 17.3652C14.8616 17.3273 14.7767 17.3051 14.69 17.3H14.73ZM24.73 17.3C24.5576 17.3 24.3923 17.3685 24.2704 17.4904C24.1485 17.6123 24.08 17.7776 24.08 17.95V22.95C24.08 23.1224 24.1485 23.2877 24.2704 23.4096C24.3923 23.5315 24.5576 23.6 24.73 23.6C24.9033 23.6 25.0697 23.5319 25.1932 23.4102C25.3167 23.2886 25.3874 23.1233 25.39 22.95V18C25.3955 17.91 25.3824 17.8199 25.3517 17.7351C25.321 17.6504 25.2733 17.5728 25.2114 17.5072C25.1496 17.4416 25.075 17.3894 24.9922 17.3538C24.9094 17.3181 24.8201 17.2998 24.73 17.3ZM24.73 17.3C24.5576 17.3 24.3923 17.3685 24.2704 17.4904C24.1485 17.6123 24.08 17.7776 24.08 17.95V22.95C24.08 23.1224 24.1485 23.2877 24.2704 23.4096C24.3923 23.5315 24.5576 23.6 24.73 23.6C24.9033 23.6 25.0697 23.5319 25.1932 23.4102C25.3167 23.2886 25.3874 23.1233 25.39 22.95V18C25.3955 17.91 25.3824 17.8199 25.3517 17.7351C25.321 17.6504 25.2733 17.5728 25.2114 17.5072C25.1496 17.4416 25.075 17.3894 24.9922 17.3538C24.9094 17.3181 24.8201 17.2998 24.73 17.3ZM14.73 17.3C14.6338 17.2877 14.5361 17.2971 14.444 17.3275C14.3519 17.3579 14.2678 17.4085 14.1978 17.4756C14.1278 17.5427 14.0737 17.6247 14.0395 17.7154C14.0052 17.8061 13.9918 17.9034 14 18V23C14 23.1724 14.0685 23.3377 14.1904 23.4596C14.3123 23.5815 14.4776 23.65 14.65 23.65C14.8233 23.65 14.9897 23.5819 15.1132 23.4602C15.2367 23.3386 15.3074 23.1733 15.31 23V18C15.3154 17.9133 15.3037 17.8264 15.2754 17.7442C15.2471 17.6621 15.203 17.5863 15.1454 17.5213C15.0877 17.4562 15.0179 17.4032 14.9397 17.3652C14.8616 17.3273 14.7767 17.3051 14.69 17.3H14.73ZM32.26 6H7.16C6.321 6.00265 5.51726 6.3378 4.92493 6.932C4.3326 7.5262 4 8.33099 4 9.17L4 30.5C4.00264 31.3373 4.33641 32.1395 4.92846 32.7315C5.5205 33.3236 6.32273 33.6574 7.16 33.66H32.26C33.0973 33.6574 33.8995 33.3236 34.4915 32.7315C35.0836 32.1395 35.4174 31.3373 35.42 30.5V9.17C35.42 8.33099 35.0874 7.5262 34.4951 6.932C33.9027 6.3378 33.099 6.00265 32.26 6ZM19.06 32.35H7.16C6.66935 32.35 6.19879 32.1551 5.85185 31.8081C5.50491 31.4612 5.31 30.9907 5.31 30.5V9.17C5.30868 8.92621 5.35556 8.68457 5.44794 8.45896C5.54032 8.23336 5.67638 8.02823 5.8483 7.85538C6.02022 7.68253 6.22461 7.54537 6.44972 7.45177C6.67482 7.35818 6.91621 7.31 7.16 7.31H19.06V32.35ZM34.11 30.5C34.11 30.9907 33.9151 31.4612 33.5681 31.8081C33.2212 32.1551 32.7507 32.35 32.26 32.35H20.37V7.35H32.26C32.5038 7.35 32.7452 7.39818 32.9703 7.49177C33.1954 7.58537 33.3998 7.72253 33.5717 7.89538C33.7436 8.06823 33.8797 8.27336 33.9721 8.49896C34.0644 8.72457 34.1113 8.96621 34.11 9.21V30.5ZM24.73 17.3C24.5576 17.3 24.3923 17.3685 24.2704 17.4904C24.1485 17.6123 24.08 17.7776 24.08 17.95V22.95C24.08 23.1224 24.1485 23.2877 24.2704 23.4096C24.3923 23.5315 24.5576 23.6 24.73 23.6C24.9033 23.6 25.0697 23.5319 25.1932 23.4102C25.3167 23.2886 25.3874 23.1233 25.39 22.95V18C25.3955 17.91 25.3824 17.8199 25.3517 17.7351C25.321 17.6504 25.2733 17.5728 25.2114 17.5072C25.1496 17.4416 25.075 17.3894 24.9922 17.3538C24.9094 17.3181 24.8201 17.2998 24.73 17.3ZM14.73 23.62C14.9033 23.62 15.0697 23.5519 15.1932 23.4302C15.3167 23.3086 15.3874 23.1433 15.39 22.97V18C15.3874 17.8267 15.3167 17.6614 15.1932 17.5398C15.0697 17.4181 14.9033 17.35 14.73 17.35C14.6382 17.3386 14.545 17.347 14.4566 17.3745C14.3683 17.402 14.2868 17.4481 14.2177 17.5096C14.1486 17.5711 14.0935 17.6467 14.0559 17.7313C14.0184 17.8159 13.9993 17.9075 14 18V23C14.0038 23.0863 14.0248 23.1709 14.0617 23.249C14.0986 23.3271 14.1507 23.397 14.2149 23.4548C14.2792 23.5125 14.3543 23.5568 14.4358 23.5852C14.5174 23.6136 14.6038 23.6254 14.69 23.62H14.73ZM14.73 17.3C14.6338 17.2877 14.5361 17.2971 14.444 17.3275C14.3519 17.3579 14.2678 17.4085 14.1978 17.4756C14.1278 17.5427 14.0737 17.6247 14.0395 17.7154C14.0052 17.8061 13.9918 17.9034 14 18V23C14 23.1724 14.0685 23.3377 14.1904 23.4596C14.3123 23.5815 14.4776 23.65 14.65 23.65C14.8233 23.65 14.9897 23.5819 15.1132 23.4602C15.2367 23.3386 15.3074 23.1733 15.31 23V18C15.3154 17.9133 15.3037 17.8264 15.2754 17.7442C15.2471 17.6621 15.203 17.5863 15.1454 17.5213C15.0877 17.4562 15.0179 17.4032 14.9397 17.3652C14.8616 17.3273 14.7767 17.3051 14.69 17.3H14.73ZM24.73 17.3C24.5576 17.3 24.3923 17.3685 24.2704 17.4904C24.1485 17.6123 24.08 17.7776 24.08 17.95V22.95C24.08 23.1224 24.1485 23.2877 24.2704 23.4096C24.3923 23.5315 24.5576 23.6 24.73 23.6C24.9033 23.6 25.0697 23.5319 25.1932 23.4102C25.3167 23.2886 25.3874 23.1233 25.39 22.95V18C25.3955 17.91 25.3824 17.8199 25.3517 17.7351C25.321 17.6504 25.2733 17.5728 25.2114 17.5072C25.1496 17.4416 25.075 17.3894 24.9922 17.3538C24.9094 17.3181 24.8201 17.2998 24.73 17.3ZM24.73 17.3C24.5576 17.3 24.3923 17.3685 24.2704 17.4904C24.1485 17.6123 24.08 17.7776 24.08 17.95V22.95C24.08 23.1224 24.1485 23.2877 24.2704 23.4096C24.3923 23.5315 24.5576 23.6 24.73 23.6C24.9033 23.6 25.0697 23.5319 25.1932 23.4102C25.3167 23.2886 25.3874 23.1233 25.39 22.95V18C25.3955 17.91 25.3824 17.8199 25.3517 17.7351C25.321 17.6504 25.2733 17.5728 25.2114 17.5072C25.1496 17.4416 25.075 17.3894 24.9922 17.3538C24.9094 17.3181 24.8201 17.2998 24.73 17.3ZM14.73 17.3C14.6338 17.2877 14.5361 17.2971 14.444 17.3275C14.3519 17.3579 14.2678 17.4085 14.1978 17.4756C14.1278 17.5427 14.0737 17.6247 14.0395 17.7154C14.0052 17.8061 13.9918 17.9034 14 18V23C14 23.1724 14.0685 23.3377 14.1904 23.4596C14.3123 23.5815 14.4776 23.65 14.65 23.65C14.8233 23.65 14.9897 23.5819 15.1132 23.4602C15.2367 23.3386 15.3074 23.1733 15.31 23V18C15.3154 17.9133 15.3037 17.8264 15.2754 17.7442C15.2471 17.6621 15.203 17.5863 15.1454 17.5213C15.0877 17.4562 15.0179 17.4032 14.9397 17.3652C14.8616 17.3273 14.7767 17.3051 14.69 17.3H14.73ZM24.73 17.3C24.5576 17.3 24.3923 17.3685 24.2704 17.4904C24.1485 17.6123 24.08 17.7776 24.08 17.95V22.95C24.08 23.1224 24.1485 23.2877 24.2704 23.4096C24.3923 23.5315 24.5576 23.6 24.73 23.6C24.9033 23.6 25.0697 23.5319 25.1932 23.4102C25.3167 23.2886 25.3874 23.1233 25.39 22.95V18C25.3955 17.91 25.3824 17.8199 25.3517 17.7351C25.321 17.6504 25.2733 17.5728 25.2114 17.5072C25.1496 17.4416 25.075 17.3894 24.9922 17.3538C24.9094 17.3181 24.8201 17.2998 24.73 17.3ZM14.73 17.3C14.6338 17.2877 14.5361 17.2971 14.444 17.3275C14.3519 17.3579 14.2678 17.4085 14.1978 17.4756C14.1278 17.5427 14.0737 17.6247 14.0395 17.7154C14.0052 17.8061 13.9918 17.9034 14 18V23C14 23.1724 14.0685 23.3377 14.1904 23.4596C14.3123 23.5815 14.4776 23.65 14.65 23.65C14.8233 23.65 14.9897 23.5819 15.1132 23.4602C15.2367 23.3386 15.3074 23.1733 15.31 23V18C15.3154 17.9133 15.3037 17.8264 15.2754 17.7442C15.2471 17.6621 15.203 17.5863 15.1454 17.5213C15.0877 17.4562 15.0179 17.4032 14.9397 17.3652C14.8616 17.3273 14.7767 17.3051 14.69 17.3H14.73ZM24.73 17.3C24.5576 17.3 24.3923 17.3685 24.2704 17.4904C24.1485 17.6123 24.08 17.7776 24.08 17.95V22.95C24.08 23.1224 24.1485 23.2877 24.2704 23.4096C24.3923 23.5315 24.5576 23.6 24.73 23.6C24.9033 23.6 25.0697 23.5319 25.1932 23.4102C25.3167 23.2886 25.3874 23.1233 25.39 22.95V18C25.3955 17.91 25.3824 17.8199 25.3517 17.7351C25.321 17.6504 25.2733 17.5728 25.2114 17.5072C25.1496 17.4416 25.075 17.3894 24.9922 17.3538C24.9094 17.3181 24.8201 17.2998 24.73 17.3ZM14.73 17.3C14.6338 17.2877 14.5361 17.2971 14.444 17.3275C14.3519 17.3579 14.2678 17.4085 14.1978 17.4756C14.1278 17.5427 14.0737 17.6247 14.0395 17.7154C14.0052 17.8061 13.9918 17.9034 14 18V23C14 23.1724 14.0685 23.3377 14.1904 23.4596C14.3123 23.5815 14.4776 23.65 14.65 23.65C14.8233 23.65 14.9897 23.5819 15.1132 23.4602C15.2367 23.3386 15.3074 23.1733 15.31 23V18C15.3154 17.9133 15.3037 17.8264 15.2754 17.7442C15.2471 17.6621 15.203 17.5863 15.1454 17.5213C15.0877 17.4562 15.0179 17.4032 14.9397 17.3652C14.8616 17.3273 14.7767 17.3051 14.69 17.3H14.73Z"
    fill="#737A8E"
  />
</svg>