<svg
  width="40"
  height="40"
  viewBox="0 0 40 40"
  fill="none"
  xmlns="http://www.w3.org/2000/svg"
>
  <g id="high_building">
    <path
      d="M36.56 2.99999H15.71C15.5535 2.99999 15.4035 3.06215 15.2928 3.1728C15.1822 3.28344 15.12 3.43351 15.12 3.58999V11.12H2.58C2.42526 11.1226 2.27775 11.1859 2.16926 11.2963C2.06076 11.4067 1.99998 11.5552 2 11.71V36.09C2 36.2438 2.06111 36.3913 2.16988 36.5001C2.27865 36.6089 2.42617 36.67 2.58 36.67H36.58C36.657 36.6713 36.7335 36.6573 36.805 36.6287C36.8766 36.6002 36.9417 36.5577 36.9966 36.5037C37.0515 36.4497 37.0951 36.3853 37.1249 36.3143C37.1547 36.2432 37.17 36.167 37.17 36.09V3.58999C37.1715 3.51039 37.1566 3.43134 37.1262 3.35777C37.0958 3.28419 37.0506 3.21765 36.9933 3.16231C36.9361 3.10696 36.8681 3.06399 36.7936 3.03606C36.719 3.00814 36.6395 2.99586 36.56 2.99999ZM15.12 35.5H3.17V12.3H15.17L15.12 35.5ZM32.88 35.5H28.66V26.11H32.88V35.5ZM35.97 35.5H34.06V25.5C34.06 25.3435 33.9978 25.1934 33.8872 25.0828C33.7765 24.9721 33.6265 24.91 33.47 24.91H28.07C27.9135 24.91 27.7635 24.9721 27.6528 25.0828C27.5422 25.1934 27.48 25.3435 27.48 25.5V35.5H16.3V4.16999H36L35.97 35.5Z"
      fill="#737A8E"
    />
    <path
      d="M18.21 5.42999V12.3H24V5.42999H18.21ZM22.85 11.12H19.39V6.60999H22.85V11.12Z"
      fill="#737A8E"
    />
    <path
      d="M18.21 14.37V21.24H24V14.37H18.21ZM22.85 20.06H19.39V15.55H22.85V20.06Z"
      fill="#737A8E"
    />
    <path
      d="M27.48 5.42999V12.3H33.29V5.42999H27.48ZM32.11 11.12H28.66V6.60999H32.11V11.12Z"
      fill="#737A8E"
    />
    <path
      d="M27.48 14.37V21.24H33.29V14.37H27.48ZM32.11 20.06H28.66V15.55H32.11V20.06Z"
      fill="#737A8E"
    />
    <path
      d="M18.21 24.12V31H24V24.12H18.21ZM22.85 29.81H19.39V25.3H22.85V29.81Z"
      fill="#737A8E"
    />
    <path
      d="M6.63 16V22.86H12.44V16H6.63ZM11.26 21.68H7.81V17.17H11.26V21.68Z"
      fill="#737A8E"
    />
    <path
      d="M6.63 25.75V32.61H12.44V25.75H6.63ZM11.26 31.43H7.81V26.92H11.26V31.43Z"
      fill="#737A8E"
    />
  </g>
</svg>