<svg
  width="40"
  height="40"
  viewBox="0 0 40 40"
  fill="none"
  xmlns="http://www.w3.org/2000/svg"
>
  <g id="home_roller">
    <path
      d="M36.8802 15.1167L20.7502 2.35673C20.468 2.12603 20.1147 2 19.7502 2C19.3857 2 19.0324 2.12603 18.7502 2.35673L12.5402 7.27673V4.77673C12.5403 4.63257 12.4837 4.49417 12.3827 4.39131C12.2817 4.28845 12.1444 4.22935 12.0002 4.22673H8.66024C8.51344 4.2267 8.37249 4.28433 8.26776 4.38719C8.16302 4.49006 8.10286 4.62994 8.10024 4.77673V10.7767L2.63024 15.1167C2.29067 15.3901 2.06987 15.7841 2.01396 16.2164C1.95806 16.6488 2.07137 17.086 2.33024 17.4367C2.45882 17.6129 2.62164 17.7612 2.80894 17.8729C2.99624 17.9846 3.20416 18.0573 3.42024 18.0867H3.63024C3.99365 18.087 4.34633 17.9636 4.63024 17.7367L5.33024 17.1867V37.0067C5.33024 37.1526 5.38819 37.2925 5.49133 37.3956C5.59448 37.4988 5.73437 37.5567 5.88024 37.5567H33.6302C33.7761 37.5567 33.916 37.4988 34.0191 37.3956C34.1223 37.2925 34.1802 37.1526 34.1802 37.0067V17.1967L34.8802 17.7467C35.05 17.8814 35.2452 17.9805 35.4541 18.038C35.6631 18.0955 35.8815 18.1102 36.0962 18.0812C36.311 18.0523 36.5177 17.9803 36.704 17.8695C36.8902 17.7588 37.0522 17.6116 37.1802 17.4367C37.4391 17.086 37.5524 16.6488 37.4965 16.2164C37.4406 15.7841 37.2198 15.3901 36.8802 15.1167ZM9.21024 5.33673H11.4302V8.15673L9.21024 9.90673V5.33673ZM6.44024 36.4067V35.2967H33.0702V36.4067H6.44024ZM33.0702 34.1867H6.44024V16.3167L19.7502 5.77673L33.0702 16.3167V34.1867ZM36.2902 16.7767C36.2443 16.8427 36.183 16.8963 36.1115 16.9329C36.04 16.9695 35.9606 16.988 35.8802 16.9867C35.7676 16.9853 35.6586 16.9466 35.5702 16.8767L20.1002 4.63673C20.0017 4.55969 19.8803 4.51783 19.7552 4.51783C19.6302 4.51783 19.5087 4.55969 19.4102 4.63673L3.94024 16.8767C3.88836 16.921 3.82763 16.9537 3.7621 16.9727C3.69658 16.9917 3.62776 16.9964 3.56024 16.9867C3.49252 16.9759 3.42762 16.9517 3.36926 16.9157C3.31091 16.8796 3.26027 16.8324 3.22024 16.7767C3.13293 16.6572 3.09465 16.5087 3.11325 16.3619C3.13184 16.215 3.2059 16.0808 3.32024 15.9867L19.4502 3.22673C19.5355 3.15823 19.6409 3.11959 19.7502 3.11673C19.8629 3.11815 19.9719 3.15683 20.0602 3.22673L36.1902 16.0067C36.2991 16.1 36.3696 16.2303 36.3881 16.3725C36.4066 16.5147 36.3717 16.6587 36.2902 16.7767Z"
      fill="#737A8E"
    />
    <path
      d="M19.1302 12.0067C18.8871 12.0062 18.6463 12.0537 18.4215 12.1463C18.1967 12.239 17.9924 12.375 17.8202 12.5467L8.67023 21.7167C8.32459 22.0651 8.13065 22.536 8.13065 23.0267C8.13065 23.5175 8.32459 23.9883 8.67023 24.3367L10.0002 25.6367C10.3503 25.983 10.8228 26.1772 11.3152 26.1772C11.8076 26.1772 12.2801 25.983 12.6302 25.6367L21.7702 16.4867C21.9438 16.3155 22.0816 16.1116 22.1756 15.8867C22.2697 15.6618 22.3181 15.4205 22.3181 15.1767C22.3181 14.933 22.2697 14.6916 22.1756 14.4667C22.0816 14.2418 21.9438 14.0379 21.7702 13.8667L21.5902 13.6767C21.8127 13.5731 22.0548 13.5185 22.3002 13.5167C22.7415 13.5145 23.1658 13.6871 23.4802 13.9967L25.0002 15.5667C25.3108 15.8814 25.4865 16.3046 25.4902 16.7467C25.4887 17.1892 25.3126 17.6133 25.0002 17.9267L21.6602 21.2567C21.0188 21.8993 20.6447 22.7609 20.6131 23.6683C20.5816 24.5756 20.895 25.4612 21.4902 26.1467L21.0702 26.5567C20.9682 26.6629 20.9112 26.8044 20.9112 26.9517C20.9112 27.099 20.9682 27.2405 21.0702 27.3467L25.5402 31.8067C25.595 31.8748 25.6655 31.9285 25.7456 31.9634C25.8257 31.9982 25.9131 32.0131 26.0002 32.0067C26.0742 32.0083 26.1478 31.995 26.2165 31.9675C26.2853 31.94 26.3478 31.8989 26.4002 31.8467L27.9702 30.2767C28.0716 30.1722 28.1284 30.0323 28.1284 29.8867C28.1284 29.7411 28.0716 29.6012 27.9702 29.4967L23.4502 25.0067C23.3453 24.9023 23.2033 24.8437 23.0552 24.8437C22.9072 24.8437 22.7652 24.9023 22.6602 25.0067L22.2902 25.3767C21.8872 24.8969 21.6815 24.2819 21.7149 23.6562C21.7484 23.0305 22.0184 22.4408 22.4702 22.0067L25.8002 18.7067C26.0603 18.4508 26.2668 18.1457 26.4077 17.8092C26.5487 17.4727 26.6213 17.1115 26.6213 16.7467C26.6213 16.3819 26.5487 16.0207 26.4077 15.6842C26.2668 15.3477 26.0603 15.0426 25.8002 14.7867L24.2302 13.2167C23.7773 12.7663 23.183 12.4856 22.5474 12.4219C21.9118 12.3581 21.2736 12.5152 20.7402 12.8667L20.4402 12.5667C20.2704 12.3905 20.067 12.2502 19.842 12.154C19.617 12.0578 19.3749 12.0077 19.1302 12.0067ZM26.7402 29.8267L25.9502 30.6167L22.2702 26.9267L23.0602 26.1467L26.7402 29.8267ZM21.0002 15.7067L11.8102 24.8567C11.7415 24.926 11.6597 24.9809 11.5696 25.0184C11.4795 25.0559 11.3828 25.0752 11.2852 25.0752C11.1876 25.0752 11.091 25.0559 11.0009 25.0184C10.9108 24.9809 10.829 24.926 10.7602 24.8567L9.46023 23.5567C9.31978 23.4161 9.24089 23.2255 9.24089 23.0267C9.24089 22.828 9.31978 22.6373 9.46023 22.4967L18.6102 13.3467C18.6784 13.2787 18.7596 13.2251 18.8489 13.189C18.9383 13.1529 19.0339 13.1352 19.1302 13.1367C19.2281 13.1349 19.3253 13.1526 19.4163 13.1886C19.5072 13.2247 19.5902 13.2784 19.6602 13.3467L20.9602 14.6467C21.0325 14.7137 21.0908 14.7942 21.1319 14.8837C21.173 14.9733 21.1961 15.07 21.1998 15.1684C21.2035 15.2669 21.1878 15.3651 21.1536 15.4574C21.1193 15.5498 21.0672 15.6345 21.0002 15.7067Z"
      fill="#737A8E"
    />
  </g>
</svg>