<svg
  width="40"
  height="40"
  viewBox="0 0 40 40"
  fill="none"
  xmlns="http://www.w3.org/2000/svg"
>
  <g id="key_outlined">
    <path
      d="M32.92 18.49L31.57 16.9C31.4863 16.7895 31.3771 16.7008 31.2517 16.6416C31.1264 16.5824 30.9885 16.5544 30.85 16.56H20.72C20.0059 15.175 18.8471 14.0702 17.4297 13.4229C16.0122 12.7757 14.4184 12.6235 12.9041 12.9909C11.3898 13.3583 10.0429 14.224 9.07965 15.4489C8.11643 16.6737 7.59277 18.1868 7.59277 19.745C7.59277 21.3032 8.11643 22.8163 9.07965 24.0411C10.0429 25.266 11.3898 26.1316 12.9041 26.499C14.4184 26.8664 16.0122 26.7143 17.4297 26.067C18.8471 25.4198 20.0059 24.315 20.72 22.93H22.72C22.855 22.9205 22.9871 22.8866 23.11 22.83L24.7 22.15L26.39 22.83C26.4984 22.8711 26.6144 22.8881 26.73 22.88H29.43C29.6979 22.8768 29.9548 22.7734 30.15 22.59L32.85 19.74C33.0022 19.5707 33.0921 19.3546 33.1048 19.1273C33.1176 18.9 33.0524 18.6752 32.92 18.49ZM29.11 21.05H27.01L25.13 20.27C24.8954 20.178 24.6347 20.178 24.4 20.27L22.62 21.05H20.14C19.9426 21.051 19.7499 21.1104 19.5861 21.2207C19.4224 21.331 19.295 21.4874 19.22 21.67C18.846 22.6032 18.1994 23.402 17.3646 23.9622C16.5297 24.5223 15.5454 24.8178 14.54 24.81C13.6364 24.8 12.7523 24.5453 11.9819 24.073C11.2114 23.6006 10.5834 22.9283 10.1646 22.1275C9.74577 21.3268 9.55181 20.4274 9.60334 19.5252C9.65487 18.623 9.94996 17.7516 10.4572 17.0037C10.9645 16.2558 11.665 15.6593 12.4842 15.2778C13.3034 14.8962 14.2107 14.7439 15.1096 14.8368C16.0085 14.9298 16.8654 15.2647 17.5892 15.8058C18.313 16.3469 18.8765 17.0741 19.22 17.91C19.2861 18.0994 19.411 18.2628 19.5765 18.3761C19.742 18.4895 19.9395 18.5469 20.14 18.54H30.46L30.94 19.12L29.11 21.05Z"
      fill="#737A8E"
    />
    <path
      d="M19.7 2C16.1993 2 12.7772 3.03809 9.86641 4.98299C6.95566 6.92789 4.68701 9.69225 3.34734 12.9265C2.00767 16.1608 1.65715 19.7196 2.34011 23.1531C3.02307 26.5866 4.70883 29.7404 7.18422 32.2158C9.65961 34.6912 12.8134 36.3769 16.2469 37.0599C19.6804 37.7429 23.2393 37.3923 26.4735 36.0527C29.7078 34.713 32.4721 32.4443 34.417 29.5336C36.3619 26.6228 37.4 23.2007 37.4 19.7C37.3947 15.0073 35.5282 10.5083 32.21 7.19006C28.8917 3.87181 24.3927 2.00529 19.7 2ZM19.7 36C16.4851 35.9921 13.3446 35.0319 10.6749 33.2407C8.00526 31.4494 5.9261 28.9074 4.69992 25.9355C3.47373 22.9636 3.15548 19.6951 3.78535 16.5424C4.41521 13.3898 5.96495 10.4945 8.23894 8.22189C10.5129 5.9493 13.4092 4.40134 16.5622 3.77341C19.7152 3.14548 22.9836 3.46573 25.9547 4.69374C28.9259 5.92175 31.4666 8.00246 33.2562 10.6732C35.0458 13.344 36.0041 16.4851 36.01 19.7C36.0126 21.8421 35.5925 23.9637 34.7737 25.9432C33.9548 27.9226 32.7534 29.721 31.2382 31.2353C29.723 32.7495 27.9239 33.9498 25.9439 34.7675C23.964 35.5851 21.8421 36.0039 19.7 36Z"
      fill="#737A8E"
    />
    <path
      d="M13.72 21.77C14.8135 21.77 15.7 20.8835 15.7 19.79C15.7 18.6965 14.8135 17.81 13.72 17.81C12.6265 17.81 11.74 18.6965 11.74 19.79C11.74 20.8835 12.6265 21.77 13.72 21.77Z"
      fill="#737A8E"
    />
  </g>
</svg>