<svg
  width="40"
  height="40"
  viewBox="0 0 40 40"
  fill="none"
  xmlns="http://www.w3.org/2000/svg"
>
  <g id="liner_height">
    <path
      fill-rule="evenodd"
      clip-rule="evenodd"
      d="M24.4367 20.7203V24.7703H30.1867C30.2782 24.7589 30.371 24.7671 30.459 24.7943C30.5471 24.8215 30.6283 24.8671 30.6974 24.9281C30.7665 24.9891 30.8218 25.0641 30.8597 25.1481C30.8976 25.2321 30.9172 25.3232 30.9172 25.4153C30.9172 25.5075 30.8976 25.5986 30.8597 25.6826C30.8218 25.7666 30.7665 25.8416 30.6974 25.9026C30.6283 25.9636 30.5471 26.0092 30.459 26.0364C30.371 26.0636 30.2782 26.0717 30.1867 26.0603H24.4367V30.0603H30.1867C30.3591 30.0603 30.5244 30.1288 30.6463 30.2507C30.7682 30.3726 30.8367 30.5379 30.8367 30.7103C30.8367 30.8827 30.7682 31.0481 30.6463 31.17C30.5244 31.2919 30.3591 31.3603 30.1867 31.3603H24.4367V35.3603H34.4367C34.5282 35.3489 34.621 35.3571 34.709 35.3843C34.7971 35.4115 34.8783 35.4571 34.9474 35.5181C35.0165 35.5791 35.0718 35.6541 35.1097 35.7381C35.1476 35.8221 35.1672 35.9132 35.1672 36.0053C35.1672 36.0975 35.1476 36.1886 35.1097 36.2726C35.0718 36.3566 35.0165 36.4316 34.9474 36.4926C34.8783 36.5536 34.7971 36.5992 34.709 36.6264C34.621 36.6536 34.5282 36.6618 34.4367 36.6503H23.7867C23.6143 36.6503 23.449 36.5819 23.3271 36.46C23.2052 36.3381 23.1367 36.1727 23.1367 36.0003V4.00034C23.1393 3.82876 23.2086 3.66492 23.33 3.54358C23.4513 3.42223 23.6151 3.35292 23.7867 3.35034H34.4567C34.5421 3.35034 34.6266 3.36715 34.7055 3.39982C34.7843 3.43249 34.856 3.48036 34.9163 3.54072C34.9767 3.60108 35.0246 3.67274 35.0572 3.7516C35.0899 3.83046 35.1067 3.91498 35.1067 4.00034C35.1067 4.0857 35.0899 4.17022 35.0572 4.24909C35.0246 4.32795 34.9767 4.3996 34.9163 4.45996C34.856 4.52032 34.7843 4.5682 34.7055 4.60086C34.6266 4.63353 34.5421 4.65034 34.4567 4.65034H24.4567V8.65034H30.2067C30.2982 8.63893 30.391 8.6471 30.479 8.6743C30.5671 8.7015 30.6483 8.74711 30.7174 8.8081C30.7865 8.8691 30.8418 8.94408 30.8797 9.02809C30.9176 9.11209 30.9372 9.20319 30.9372 9.29534C30.9372 9.38749 30.9176 9.47859 30.8797 9.5626C30.8418 9.6466 30.7865 9.72159 30.7174 9.78258C30.6483 9.84358 30.5671 9.88919 30.479 9.91638C30.391 9.94358 30.2982 9.95175 30.2067 9.94034H24.4367V14.1003H30.1867C30.2782 14.0889 30.371 14.0971 30.459 14.1243C30.5471 14.1515 30.6283 14.1971 30.6974 14.2581C30.7665 14.3191 30.8218 14.3941 30.8597 14.4781C30.8976 14.5621 30.9172 14.6532 30.9172 14.7453C30.9172 14.8375 30.8976 14.9286 30.8597 15.0126C30.8218 15.0966 30.7665 15.1716 30.6974 15.2326C30.6283 15.2936 30.5471 15.3392 30.459 15.3664C30.371 15.3936 30.2782 15.4017 30.1867 15.3903H24.4367V19.3903H34.4367C34.5282 19.3789 34.621 19.3871 34.709 19.4143C34.7971 19.4415 34.8783 19.4871 34.9474 19.5481C35.0165 19.6091 35.0718 19.6841 35.1097 19.7681C35.1476 19.8521 35.1672 19.9432 35.1672 20.0353C35.1672 20.1275 35.1476 20.2186 35.1097 20.3026C35.0718 20.3866 35.0165 20.4616 34.9474 20.5226C34.8783 20.5836 34.7971 20.6292 34.709 20.6564C34.621 20.6836 34.5282 20.6917 34.4367 20.6803L24.4367 20.7203Z"
      fill="#737A8E"
    />
    <path
      fill-rule="evenodd"
      clip-rule="evenodd"
      d="M16.7767 30.2903C16.8964 30.4135 16.9634 30.5785 16.9634 30.7503C16.9634 30.9221 16.8964 31.0871 16.7767 31.2103L11.4367 36.5403C11.3772 36.6005 11.3063 36.6483 11.2282 36.6809C11.1501 36.7135 11.0663 36.7302 10.9817 36.7302C10.8971 36.7302 10.8133 36.7135 10.7352 36.6809C10.6571 36.6483 10.5862 36.6005 10.5267 36.5403L5.18671 31.2103C5.06698 31.0871 5 30.9221 5 30.7503C5 30.5785 5.06698 30.4135 5.18671 30.2903C5.30938 30.1694 5.47446 30.1012 5.64671 30.1003C5.81855 30.1033 5.9829 30.1711 6.10671 30.2903L9.61671 33.8003L10.3367 34.5203V5.63033L6.10671 9.86033C6.04696 9.92158 5.97536 9.97001 5.89627 10.0027C5.81718 10.0353 5.73227 10.0516 5.64671 10.0503C5.56107 10.0522 5.47598 10.0362 5.39681 10.0035C5.31764 9.97081 5.2461 9.92206 5.18671 9.86033C5.0799 9.74258 5.02074 9.5893 5.02074 9.43033C5.02074 9.27135 5.0799 9.11807 5.18671 9.00033L10.5267 3.61033C10.5862 3.55016 10.6571 3.50239 10.7352 3.46979C10.8133 3.4372 10.8971 3.42041 10.9817 3.42041C11.0663 3.42041 11.1501 3.4372 11.2282 3.46979C11.3063 3.50239 11.3772 3.55016 11.4367 3.61033L16.7767 9.00033C16.8958 9.12183 16.9625 9.28519 16.9625 9.45533C16.9625 9.62547 16.8958 9.78882 16.7767 9.91033C16.717 9.97158 16.6454 10.02 16.5663 10.0527C16.4872 10.0853 16.4023 10.1016 16.3167 10.1003C16.2311 10.1022 16.146 10.0862 16.0668 10.0535C15.9876 10.0208 15.9161 9.97206 15.8567 9.91033L12.3467 6.35033L11.6267 5.63033V34.5203L15.8567 30.2903C15.9794 30.1694 16.1445 30.1012 16.3167 30.1003C16.4885 30.1033 16.6529 30.1711 16.7767 30.2903Z"
      fill="#737A8E"
    />
    <path
      d="M10.9967 3.00033C10.8944 2.99741 10.7925 3.01439 10.6967 3.05033C10.8957 2.99056 11.1078 2.99056 11.3067 3.05033C11.2074 3.01433 11.1023 2.99736 10.9967 3.00033Z"
      fill="#737A8E"
    />
  </g>
</svg>