<svg
  width="40"
  height="40"
  viewBox="0 0 40 40"
  fill="none"
  xmlns="http://www.w3.org/2000/svg"
>
  <g id="parking_rectangle">
    <path
      d="M35.1 4.93021C34.8071 4.63137 34.4568 4.39491 34.0701 4.23508C33.6834 4.07525 33.2684 3.99536 32.85 4.00021H6.19C5.77026 3.99629 5.35399 4.07658 4.96581 4.23632C4.57763 4.39605 4.22542 4.632 3.93 4.93021C3.35304 5.54381 3.02201 6.34824 3 7.19021V32.9202C3.02094 33.7643 3.35614 34.5702 3.94 35.1802C4.23491 35.4763 4.58563 35.711 4.97184 35.8706C5.35805 36.0302 5.7721 36.1117 6.19 36.1102H32.85C33.2705 36.1128 33.6871 36.031 34.0754 35.8695C34.4636 35.708 34.8154 35.4702 35.11 35.1702C35.6742 34.5557 35.9911 33.7543 36 32.9202V7.19021C35.9899 6.35147 35.6693 5.54625 35.1 4.93021ZM34.69 32.9302C34.6923 33.1727 34.6467 33.4133 34.5558 33.6381C34.4648 33.8629 34.3303 34.0676 34.16 34.2402C33.9872 34.4096 33.7823 34.5429 33.5574 34.6322C33.3324 34.7215 33.092 34.765 32.85 34.7602H6.19C5.94804 34.765 5.70756 34.7215 5.48262 34.6322C5.25769 34.5429 5.05282 34.4096 4.88 34.2402C4.70968 34.0676 4.57518 33.8629 4.48422 33.6381C4.39327 33.4133 4.34765 33.1727 4.35 32.9302V7.19021C4.34594 6.94746 4.39076 6.70637 4.48179 6.4813C4.57283 6.25623 4.70821 6.05177 4.87988 5.88009C5.05156 5.70842 5.25602 5.57304 5.48109 5.482C5.70616 5.39097 5.94725 5.34615 6.19 5.35021H32.85C33.0928 5.34615 33.3338 5.39097 33.5589 5.482C33.784 5.57304 33.9884 5.70842 34.1601 5.88009C34.3318 6.05177 34.4672 6.25623 34.5582 6.4813C34.6492 6.70637 34.6941 6.94746 34.69 7.19021V32.9302Z"
      fill="#737A8E"
    />
    <path
      fill-rule="evenodd"
      clip-rule="evenodd"
      d="M26.13 13.42C25.8227 12.6944 25.3166 12.0704 24.67 11.62C23.9712 11.1733 23.1824 10.8864 22.36 10.78C21.3993 10.6467 20.4296 10.5899 19.46 10.61H12.35V29.5H14.53V21.61H19.64C22.42 21.61 24.23 21.08 25.16 19.98C26.1789 18.9015 26.729 17.4632 26.69 15.98C26.7054 15.0947 26.5136 14.218 26.13 13.42ZM23.34 18.79C22.272 19.5278 20.9849 19.8805 19.69 19.79H14.52V12.42H19.63C20.4546 12.3884 21.28 12.4521 22.09 12.61C22.7908 12.8256 23.4019 13.2646 23.83 13.86C24.2606 14.4889 24.4812 15.238 24.46 16C24.4916 16.519 24.4075 17.0385 24.2138 17.521C24.0201 18.0035 23.7216 18.4369 23.34 18.79Z"
      fill="#737A8E"
    />
  </g>
</svg>