<svg
  width="52"
  height="68"
  viewBox="0 0 52 68"
  fill="none"
  xmlns="http://www.w3.org/2000/svg"
>
  <path id="point_map_blue"
    d="M4.14917 39.3326L4.27917 39.5169C4.43806 39.7508 4.60417 39.9776 4.77028 40.2257L23.5914 66.7637C23.8622 67.1453 24.2229 67.457 24.6429 67.6723C25.063 67.8876 25.5298 68 26.0036 68C26.4774 68 26.9443 67.8876 27.3643 67.6723C27.7843 67.457 28.1451 67.1453 28.4158 66.7637L47.1936 40.247C47.3742 39.9989 47.5475 39.7579 47.7208 39.5382L47.8364 39.3681C50.3738 35.515 51.8057 31.0617 51.9816 26.4772C52.1574 21.8926 51.0707 17.3464 48.8356 13.3169C46.6006 9.2875 43.3001 5.92397 39.2814 3.58042C35.2627 1.23688 30.6746 0 26 0C21.3254 0 16.7373 1.23688 12.7186 3.58042C8.69994 5.92397 5.39937 9.2875 3.16435 13.3169C0.929339 17.3464 -0.157445 21.8926 0.0184076 26.4772C0.19426 31.0617 1.62624 35.515 4.16361 39.3681L4.14917 39.3326ZM26.0036 14.8998C28.1462 14.8998 30.2408 15.5234 32.0223 16.6917C33.8038 17.86 35.1924 19.5205 36.0123 21.4633C36.8323 23.4061 37.0468 25.5438 36.6288 27.6063C36.2108 29.6687 35.179 31.5632 33.6639 33.0501C32.1489 34.5371 30.2185 35.5497 28.1171 35.9599C26.0156 36.3702 23.8374 36.1596 21.8579 35.3549C19.8783 34.5502 18.1864 33.1874 16.996 31.439C15.8056 29.6905 15.1703 27.6349 15.1703 25.532C15.1703 22.7122 16.3116 20.0079 18.3433 18.0139C20.3749 16.02 23.1304 14.8998 26.0036 14.8998Z"
    fill="#1C6CC4"
  />
</svg>