<svg
  width="40"
  height="40"
  viewBox="0 0 40 40"
  fill="none"
  xmlns="http://www.w3.org/2000/svg"
>
  <g id="quote_to_rigt">
    <path
      d="M14.4 14C14.4 14.2175 14.3136 14.426 14.1598 14.5798C14.006 14.7336 13.7975 14.82 13.58 14.82H10.91C10.6925 14.82 10.4839 14.7336 10.3302 14.5798C10.1764 14.426 10.09 14.2175 10.09 14C10.09 13.7825 10.1764 13.5739 10.3302 13.4202C10.4839 13.2664 10.6925 13.18 10.91 13.18H13.58C13.7975 13.18 14.006 13.2664 14.1598 13.4202C14.3136 13.5739 14.4 13.7825 14.4 14Z"
      fill="#737A8E"
    />
    <path
      d="M5.31 14C5.31 14.2175 5.22361 14.426 5.06983 14.5798C4.91605 14.7336 4.70748 14.82 4.49 14.82H1.82C1.60252 14.82 1.39395 14.7336 1.24017 14.5798C1.08639 14.426 1 14.2175 1 14C1 13.7825 1.08639 13.5739 1.24017 13.4202C1.39395 13.2664 1.60252 13.18 1.82 13.18H4.49C4.70748 13.18 4.91605 13.2664 5.06983 13.4202C5.22361 13.5739 5.31 13.7825 5.31 14Z"
      fill="#737A8E"
    />
    <path
      d="M11.19 20.37C11.1874 20.5858 11.0998 20.7918 10.9463 20.9434C10.7928 21.095 10.5858 21.18 10.37 21.18H5.00002C4.88541 21.1927 4.7694 21.1811 4.65958 21.146C4.54976 21.1108 4.44859 21.0529 4.36267 20.976C4.27676 20.8991 4.20803 20.8049 4.16097 20.6996C4.11392 20.5943 4.0896 20.4803 4.0896 20.365C4.0896 20.2497 4.11392 20.1357 4.16097 20.0304C4.20803 19.9251 4.27676 19.831 4.36267 19.7541C4.44859 19.6771 4.54976 19.6192 4.65958 19.5841C4.7694 19.5489 4.88541 19.5373 5.00002 19.55H10.37C10.5875 19.55 10.7961 19.6364 10.9498 19.7902C11.1036 19.944 11.19 20.1525 11.19 20.37Z"
      fill="#737A8E"
    />
    <path
      d="M7.99999 26.78C8.00001 26.9958 7.91499 27.2028 7.76337 27.3563C7.61174 27.5098 7.40573 27.5974 7.18999 27.6H1.81999C1.63834 27.5591 1.476 27.4577 1.35968 27.3123C1.24336 27.1669 1.17999 26.9862 1.17999 26.8C1.17999 26.6138 1.24336 26.4332 1.35968 26.2878C1.476 26.1424 1.63834 26.0409 1.81999 26H7.16999C7.38244 25.9972 7.58769 26.0769 7.74252 26.2224C7.89734 26.3679 7.98965 26.5678 7.99999 26.78Z"
      fill="#737A8E"
    />
    <path
      d="M20.81 14C20.8002 14.1601 20.7437 14.3138 20.6474 14.4421C20.5511 14.5704 20.4193 14.6677 20.2683 14.7218C20.1173 14.776 19.9538 14.7846 19.7979 14.7468C19.642 14.7089 19.5007 14.6261 19.3914 14.5087C19.2821 14.3913 19.2096 14.2444 19.1829 14.0862C19.1563 13.9281 19.1766 13.7655 19.2414 13.6188C19.3062 13.472 19.4126 13.3475 19.5474 13.2606C19.6822 13.1738 19.8396 13.1283 20 13.13C20.1112 13.1311 20.221 13.1549 20.3227 13.1998C20.4244 13.2447 20.5159 13.3098 20.5917 13.3912C20.6675 13.4726 20.7259 13.5685 20.7634 13.6732C20.8009 13.7778 20.8168 13.889 20.81 14Z"
      fill="#737A8E"
    />
    <path
      d="M17.6 14C17.6 14.1622 17.5519 14.3207 17.4618 14.4556C17.3717 14.5904 17.2436 14.6955 17.0938 14.7576C16.944 14.8196 16.7791 14.8359 16.62 14.8042C16.461 14.7726 16.3148 14.6945 16.2002 14.5798C16.0855 14.4651 16.0074 14.319 15.9757 14.16C15.9441 14.0009 15.9603 13.836 16.0224 13.6862C16.0845 13.5364 16.1896 13.4083 16.3244 13.3182C16.4593 13.2281 16.6178 13.18 16.78 13.18C16.9975 13.18 17.206 13.2664 17.3598 13.4202C17.5136 13.5739 17.6 13.7825 17.6 14Z"
      fill="#737A8E"
    />
    <path
      d="M8.52001 14C8.52001 14.1622 8.47191 14.3207 8.38181 14.4556C8.29171 14.5904 8.16364 14.6955 8.01381 14.7576C7.86397 14.8196 7.6991 14.8359 7.54003 14.8042C7.38097 14.7726 7.23486 14.6945 7.12018 14.5798C7.0055 14.4651 6.9274 14.319 6.89576 14.16C6.86412 14.0009 6.88036 13.836 6.94242 13.6862C7.00449 13.5364 7.10959 13.4083 7.24444 13.3182C7.37929 13.2281 7.53782 13.18 7.7 13.18C7.91748 13.18 8.12605 13.2664 8.27983 13.4202C8.43361 13.5739 8.52001 13.7825 8.52001 14Z"
      fill="#737A8E"
    />
    <path
      d="M14.4 20.37C14.4 20.5322 14.3519 20.6907 14.2618 20.8256C14.1717 20.9604 14.0436 21.0655 13.8938 21.1276C13.744 21.1896 13.5791 21.2059 13.42 21.1742C13.261 21.1426 13.1149 21.0645 13.0002 20.9498C12.8855 20.8351 12.8074 20.689 12.7758 20.53C12.7441 20.3709 12.7604 20.206 12.8224 20.0562C12.8845 19.9064 12.9896 19.7783 13.1244 19.6882C13.2593 19.5981 13.4178 19.55 13.58 19.55C13.7975 19.55 14.0061 19.6364 14.1598 19.7902C14.3136 19.9439 14.4 20.1525 14.4 20.37Z"
      fill="#737A8E"
    />
    <path
      d="M2.64 20.37C2.63737 20.5857 2.54982 20.7918 2.39632 20.9434C2.24283 21.095 2.03576 21.18 1.82 21.18C1.6574 21.18 1.49847 21.1316 1.36341 21.0411C1.22835 20.9505 1.12327 20.8219 1.06151 20.6715C0.99975 20.521 0.984106 20.3557 1.01657 20.1963C1.04902 20.037 1.12812 19.8909 1.2438 19.7766C1.35948 19.6624 1.50653 19.5851 1.66624 19.5546C1.82596 19.5241 1.99114 19.5417 2.14079 19.6053C2.29044 19.6689 2.4178 19.7756 2.50669 19.9117C2.59558 20.0479 2.64198 20.2074 2.64 20.37Z"
      fill="#737A8E"
    />
    <path
      d="M20.81 20.37C20.81 20.5326 20.7616 20.6915 20.6711 20.8266C20.5805 20.9616 20.4518 21.0667 20.3014 21.1285C20.151 21.1902 19.9856 21.2059 19.8263 21.1734C19.667 21.141 19.5209 21.0619 19.4066 20.9462C19.2923 20.8305 19.215 20.6835 19.1845 20.5237C19.154 20.364 19.1717 20.1988 19.2353 20.0492C19.2989 19.8995 19.4056 19.7722 19.5417 19.6833C19.6779 19.5944 19.8374 19.548 20 19.55C20.2157 19.5526 20.4217 19.6402 20.5734 19.7937C20.725 19.9472 20.81 20.1542 20.81 20.37Z"
      fill="#737A8E"
    />
    <path
      d="M17.6 20.37C17.6 20.5322 17.5519 20.6907 17.4618 20.8256C17.3717 20.9604 17.2436 21.0655 17.0938 21.1276C16.944 21.1896 16.7791 21.2059 16.62 21.1742C16.461 21.1426 16.3148 21.0645 16.2002 20.9498C16.0855 20.8351 16.0074 20.689 15.9757 20.53C15.9441 20.3709 15.9603 20.206 16.0224 20.0562C16.0845 19.9064 16.1896 19.7783 16.3244 19.6882C16.4593 19.5981 16.6178 19.55 16.78 19.55C16.888 19.5486 16.9953 19.5689 17.0954 19.6097C17.1955 19.6504 17.2864 19.7108 17.3628 19.7872C17.4392 19.8636 17.4996 19.9545 17.5403 20.0546C17.581 20.1547 17.6013 20.2619 17.6 20.37Z"
      fill="#737A8E"
    />
    <path
      d="M13.58 27.6C14.0329 27.6 14.4 27.2329 14.4 26.78C14.4 26.3271 14.0329 25.96 13.58 25.96C13.1271 25.96 12.76 26.3271 12.76 26.78C12.76 27.2329 13.1271 27.6 13.58 27.6Z"
      fill="#737A8E"
    />
    <path
      d="M10.37 27.6C10.8229 27.6 11.19 27.2329 11.19 26.78C11.19 26.3271 10.8229 25.96 10.37 25.96C9.91711 25.96 9.54999 26.3271 9.54999 26.78C9.54999 27.2329 9.91711 27.6 10.37 27.6Z"
      fill="#737A8E"
    />
    <path
      d="M17.6 26.78C17.6 26.9422 17.5519 27.1007 17.4618 27.2356C17.3717 27.3704 17.2436 27.4755 17.0938 27.5376C16.944 27.5996 16.7791 27.6159 16.62 27.5842C16.461 27.5526 16.3148 27.4745 16.2002 27.3598C16.0855 27.2451 16.0074 27.099 15.9757 26.94C15.9441 26.7809 15.9603 26.616 16.0224 26.4662C16.0845 26.3164 16.1896 26.1883 16.3244 26.0982C16.4593 26.0081 16.6178 25.96 16.78 25.96C16.9975 25.96 17.206 26.0464 17.3598 26.2002C17.5136 26.3539 17.6 26.5625 17.6 26.78Z"
      fill="#737A8E"
    />
    <path
      d="M19.99 27.6C20.4429 27.6 20.81 27.2329 20.81 26.78C20.81 26.3271 20.4429 25.96 19.99 25.96C19.5371 25.96 19.17 26.3271 19.17 26.78C19.17 27.2329 19.5371 27.6 19.99 27.6Z"
      fill="#737A8E"
    />
    <path
      d="M24 11.82V28.92C24 29.1375 23.9136 29.346 23.7598 29.4998C23.606 29.6536 23.3975 29.74 23.18 29.74C22.9625 29.74 22.7539 29.6536 22.6002 29.4998C22.4464 29.346 22.36 29.1375 22.36 28.92V11.82C22.36 11.6025 22.4464 11.394 22.6002 11.2402C22.7539 11.0864 22.9625 11 23.18 11C23.3975 11 23.606 11.0864 23.7598 11.2402C23.9136 11.394 24 11.6025 24 11.82Z"
      fill="#737A8E"
    />
    <path
      d="M39 20.2C39.0246 20.3154 39.0246 20.4346 39 20.55V20.61V20.69V20.75C38.9699 20.7957 38.9364 20.8391 38.9 20.88L35.67 24.1C35.5176 24.2486 35.3128 24.3312 35.1 24.33C34.9896 24.3319 34.8801 24.3106 34.7785 24.2675C34.6769 24.2244 34.5854 24.1606 34.51 24.08C34.4338 24.0038 34.3734 23.9134 34.3321 23.8139C34.2909 23.7144 34.2696 23.6077 34.2696 23.5C34.2696 23.3923 34.2909 23.2856 34.3321 23.1861C34.3734 23.0866 34.4338 22.9962 34.51 22.92L35.89 21.54L36.31 21.11H28.29V28.85C28.29 29.0675 28.2036 29.276 28.0498 29.4298C27.896 29.5836 27.6875 29.67 27.47 29.67C27.2525 29.67 27.0439 29.5836 26.8902 29.4298C26.7364 29.276 26.65 29.0675 26.65 28.85V11.82C26.65 11.6025 26.7364 11.394 26.8902 11.2402C27.0439 11.0864 27.2525 11 27.47 11C27.6875 11 27.896 11.0864 28.0498 11.2402C28.2036 11.394 28.29 11.6025 28.29 11.82V19.55H36.18L35.76 19.12L34.38 17.74C34.2298 17.5883 34.1455 17.3835 34.1455 17.17C34.1455 16.9565 34.2298 16.7517 34.38 16.6C34.4592 16.5161 34.5556 16.4503 34.6626 16.4071C34.7696 16.364 34.8847 16.3445 35 16.35C35.1039 16.3496 35.2068 16.3698 35.3029 16.4092C35.399 16.4487 35.4864 16.5067 35.56 16.58L38.77 19.78C38.8164 19.8282 38.8567 19.882 38.89 19.94C38.9233 19.9836 38.9441 20.0355 38.95 20.09L39 20.2Z"
      fill="#737A8E"
    />
  </g>
</svg>