<svg
  width="40"
  height="40"
  viewBox="0 0 40 40"
  fill="none"
  xmlns="http://www.w3.org/2000/svg"
>
  <path id="wall"
    d="M32.0878 5H7.91202C7.1334 5.00076 6.38687 5.31027 5.83612 5.86065C5.28538 6.41104 4.97539 7.15737 4.97412 7.93599V32.064C4.97539 32.8426 5.28538 33.589 5.83612 34.1393C6.38687 34.6897 7.1334 34.9992 7.91202 35H32.084C32.8628 34.9992 33.6095 34.6896 34.1602 34.139C34.711 33.5884 35.0209 32.8418 35.0219 32.0631V7.93599C35.0206 7.15803 34.7112 6.41228 34.1612 5.862C33.6113 5.31172 32.8658 5.00177 32.0878 5ZM28.9502 13.4812V19.2834H20.7165V13.4812H28.9502ZM15.1627 6.43312H24.8372V12.0481H15.1627V6.43312ZM19.2834 13.4812V19.2834H11.0496V13.4812H19.2834ZM6.40724 7.93599C6.408 7.5373 6.56684 7.1552 6.84893 6.87346C7.13103 6.59173 7.51334 6.43337 7.91202 6.43312H13.7295V12.0481H6.40724V7.93599ZM6.40724 13.4774H9.61648V19.2834H6.40724V13.4774ZM9.61648 33.5669H7.91202C7.51317 33.5666 7.13072 33.4081 6.8486 33.1262C6.56648 32.8443 6.40775 32.4619 6.40724 32.0631V27.9548H9.61648V33.5669ZM6.40724 26.5188V20.7166H13.7295V26.5188H6.40724ZM19.2834 33.5669H11.0496V27.9519H19.2834V33.5669ZM15.1627 26.5178V20.7166H24.8372V26.5188L15.1627 26.5178ZM28.9502 33.5669H20.7165V27.9519H28.9502V33.5669ZM33.5926 32.0631C33.5921 32.4619 33.4334 32.8443 33.1512 33.1262C32.8691 33.4081 32.4867 33.5666 32.0878 33.5669H30.3834V27.9519H33.5926V32.0631ZM33.5926 26.5217H26.2703V20.7166H33.5926V26.5217ZM33.5926 19.2863H30.3834V13.4812H33.5926V19.2863ZM33.5926 12.051H26.2703V6.43312H32.0878C32.4867 6.43337 32.8691 6.59186 33.1512 6.8738C33.4334 7.15574 33.5921 7.53809 33.5926 7.93694V12.051Z"
    fill="#737A8E"
  />
</svg>