<svg width="25" height="24" viewBox="0 0 25 24" fill="none" xmlns="http://www.w3.org/2000/svg">
<path d="M17.5 11V5C17.5 3.9 16.6 3 15.5 3H9.5C8.4 3 7.5 3.9 7.5 5V7H5.5C4.4 7 3.5 7.9 3.5 9V19C3.5 20.1 4.4 21 5.5 21H10.5C11.05 21 11.5 20.55 11.5 20V17H13.5V20C13.5 20.55 13.95 21 14.5 21H19.5C20.6 21 21.5 20.1 21.5 19V13C21.5 11.9 20.6 11 19.5 11H17.5ZM7.5 19H5.5V17H7.5V19ZM7.5 15H5.5V13H7.5V15ZM7.5 11H5.5V9H7.5V11ZM11.5 15H9.5V13H11.5V15ZM11.5 11H9.5V9H11.5V11ZM11.5 7H9.5V5H11.5V7ZM15.5 15H13.5V13H15.5V15ZM15.5 11H13.5V9H15.5V11ZM15.5 7H13.5V5H15.5V7ZM19.5 19H17.5V17H19.5V19ZM19.5 15H17.5V13H19.5V15Z" fill="#337AB7"/>
</svg>
