<svg width="24" height="23" viewBox="0 0 24 23" fill="none" xmlns="http://www.w3.org/2000/svg">
<path d="M11.9182 22.7542C18.2154 22.7542 23.2819 17.6965 23.2819 11.4127C23.2819 5.13482 18.2154 0.077034 11.9182 0.077034C5.61989 0.077034 0.550537 5.13482 0.550537 11.4127C0.550537 17.6965 5.61989 22.7542 11.9182 22.7542Z" fill="#FFCC00"/>
<path fill-rule="evenodd" clip-rule="evenodd" d="M15.799 5.52393H14.79L16.2363 0.924455C16.5372 1.04416 16.8329 1.18126 17.121 1.33125L15.799 5.52393ZM14.4163 0.351068C14.0987 0.282111 13.7812 0.221856 13.4592 0.179341L11.738 5.52393H12.7469L14.412 0.351068H14.4163Z" fill="#292929"/>
<path d="M7.16636 14.9728C6.88292 14.8905 6.57736 14.8861 6.2904 14.9685C5.78818 15.0835 5.41901 15.7393 5.41901 16.6987C5.41901 17.6534 5.71468 18.1679 6.11471 18.3991C6.41893 18.4967 6.74112 18.5098 7.0499 18.4198C7.40159 18.3301 7.9258 17.6491 7.9258 16.6897C7.9258 15.7349 7.64207 15.113 7.16636 14.9728ZM16.511 14.9728C16.2329 14.8905 15.9363 14.8861 15.6525 14.9685C15.1639 15.0835 14.7942 15.7393 14.7942 16.6987C14.7942 17.6534 15.0869 18.1679 15.4812 18.3991C15.778 18.4967 16.0989 18.5098 16.3999 18.4198C16.7471 18.3301 17.2628 17.6491 17.2628 16.6897C17.2628 15.7349 16.979 15.113 16.511 14.9728Z" fill="#292929"/>
<path d="M16.5033 4.95941H9.97757C8.4103 4.95941 7.86981 6.71051 7.86981 6.71051C7.86981 6.71051 6.00265 12.7363 5.32001 14.9378C4.6332 17.135 7.04553 18.0044 7.65987 18.0044H14.4769C15.0986 18.0044 15.5034 17.5417 15.5034 16.6129C15.5034 15.5212 16.0824 14.9729 16.4902 14.9893C16.632 15.0156 16.7649 15.0879 16.8506 15.1954C17.4606 13.2163 18.9835 8.39017 19.0398 8.16315C19.7576 6.11938 17.6363 4.95941 16.5033 4.95941Z" fill="url(#paint0_linear_915_7016)"/>
<path d="M17.1551 5.5888C16.963 5.57976 16.7858 5.70383 16.7307 5.88815L14.0217 14.18C14.0217 14.1844 14.013 14.189 14.013 14.2009C13.9525 14.4927 13.8416 14.7755 13.691 15.0276C13.5153 15.2163 13.5921 15.5462 14.4074 15.3534C15.2242 15.1603 15.3099 14.6593 15.6658 13.5761C15.9748 12.6385 17.4428 8.0131 17.8253 6.8134C17.9199 6.5392 17.8937 6.24006 17.7605 5.98673C17.645 5.75538 17.4133 5.6062 17.1551 5.5888Z" fill="url(#paint1_linear_915_7016)"/>
<path d="M13.9186 6.75733C13.7604 7.14339 11.6687 13.8073 11.558 14.1539C11.45 14.4971 11.9226 14.6089 11.9226 14.6089L14.5064 6.38919L14.5108 6.3726H14.4977C14.2361 6.35053 14 6.50974 13.9186 6.75733Z" fill="url(#paint2_linear_915_7016)"/>
<path d="M12.313 6.3726C12.137 6.41096 11.8843 6.36827 11.7205 6.75733C11.5579 7.14339 9.47096 13.8073 9.3597 14.1539C9.24796 14.4971 9.72015 14.6089 9.72015 14.6089L12.313 6.3726Z" fill="url(#paint3_linear_915_7016)"/>
<path d="M10.0205 6.3726C9.75873 6.34616 9.50923 6.50537 9.428 6.75733C9.26541 7.14339 7.17422 13.8073 7.06734 14.1539C6.95557 14.4971 7.42797 14.6089 7.42797 14.6089L10.0205 6.3726Z" fill="url(#paint4_linear_915_7016)"/>
<defs>
<linearGradient id="paint0_linear_915_7016" x1="12.1872" y1="17.907" x2="12.1872" y2="4.8656" gradientUnits="userSpaceOnUse">
<stop stop-color="#C70000"/>
<stop offset="0.0930233" stop-color="#C70000"/>
<stop offset="0.20155" stop-color="#E11B1B"/>
<stop offset="0.976744" stop-color="#E11B1B"/>
<stop offset="1" stop-color="#E11B1B"/>
</linearGradient>
<linearGradient id="paint1_linear_915_7016" x1="14.3458" y1="15.396" x2="17.2895" y2="5.62201" gradientUnits="userSpaceOnUse">
<stop stop-color="#E42E2D"/>
<stop offset="0.078125" stop-color="#E63633"/>
<stop offset="1" stop-color="#EF8782"/>
</linearGradient>
<linearGradient id="paint2_linear_915_7016" x1="11.8324" y1="14.4162" x2="14.9937" y2="3.86674" gradientUnits="userSpaceOnUse">
<stop stop-color="#E42E2D"/>
<stop offset="0.03125" stop-color="#E42E2D"/>
<stop offset="0.523438" stop-color="#E94A45"/>
<stop offset="1" stop-color="#EF6761"/>
</linearGradient>
<linearGradient id="paint3_linear_915_7016" x1="9.81977" y1="13.797" x2="12.9782" y2="3.22774" gradientUnits="userSpaceOnUse">
<stop stop-color="#E42E2D"/>
<stop offset="0.03125" stop-color="#E42E2D"/>
<stop offset="0.523438" stop-color="#E94A45"/>
<stop offset="1" stop-color="#EF6761"/>
</linearGradient>
<linearGradient id="paint4_linear_915_7016" x1="7.72257" y1="13.1567" x2="10.881" y2="2.61102" gradientUnits="userSpaceOnUse">
<stop stop-color="#E42E2D"/>
<stop offset="0.03125" stop-color="#E42E2D"/>
<stop offset="0.523438" stop-color="#E94A45"/>
<stop offset="1" stop-color="#EF6761"/>
</linearGradient>
</defs>
</svg>
