<svg width="23" height="23" viewBox="0 0 23 23" fill="none" xmlns="http://www.w3.org/2000/svg">
<path fill-rule="evenodd" clip-rule="evenodd" d="M22.8245 11.4298C22.8245 5.16663 17.7355 0.0893873 11.4577 0.0893873C5.17978 0.0893873 0.0906372 5.16663 0.0906372 11.4298C0.0906372 17.6928 5.17978 22.77 11.4577 22.77C17.7355 22.77 22.8245 17.6928 22.8245 11.4298" fill="#FC3F1D"/>
<path fill-rule="evenodd" clip-rule="evenodd" d="M12.9733 6.51558H11.9314C9.98938 6.51558 8.99483 7.50798 8.99483 8.92548C8.99483 10.5321 9.7053 11.2882 11.1261 12.2804L12.3103 13.0836L8.90002 18.1868H6.34253L9.42105 13.6507C7.66868 12.3748 6.67408 11.1463 6.67408 9.11448C6.67408 6.51558 8.47379 4.76714 11.9314 4.76714H15.3413V18.234H12.9733V6.51558Z" fill="white"/>
</svg>
