<svg width="130" height="22" viewBox="0 0 130 22" fill="none" xmlns="http://www.w3.org/2000/svg">
<path d="M0.490601 0.837117H11.7163V17.8358H8.75224V3.13666H3.45426V17.8358H0.490601V0.837117ZM15.7303 21.6259C15.1559 21.6259 14.7491 21.5527 14.5047 21.4086L14.1361 21.2113V18.8398C14.3041 19.0019 14.5047 19.1309 14.7238 19.2073C14.9553 19.2885 15.1989 19.3266 15.4597 19.3266C15.8708 19.3266 16.1964 19.2371 16.4408 19.0578C16.6977 18.8827 16.9086 18.6476 17.0538 18.3741L12.813 5.53332H15.8751L18.5999 14.7804L21.3195 5.53332H24.1384L20.292 17.1771C19.8809 18.4296 19.3576 19.485 18.7197 20.3308C18.0857 21.1939 17.0878 21.6259 15.7303 21.6259V21.6259ZM34.5329 7.83205H31.1023V17.8358H28.1812V7.83205H24.7501V5.53332H34.5329V7.83205ZM44.8376 17.0068C44.4145 17.2974 43.8573 17.5489 43.1721 17.7635C42.4827 17.9724 41.6733 18.0798 40.7433 18.0798C38.897 18.0798 37.4583 17.558 36.4265 16.5153C35.4157 15.4551 34.9053 13.857 34.9053 11.7208C34.9053 10.7899 35.0123 9.9344 35.2271 9.15342C35.441 8.3537 35.7581 7.67853 36.1821 7.12289C36.6185 6.55503 37.18 6.09367 37.8265 5.77743C38.4945 5.45266 39.2694 5.28976 40.1526 5.28976C41.6089 5.28976 42.7701 5.73809 43.6348 6.6317C44.5163 7.52922 44.9588 9.04593 44.9588 11.1826V12.7251H37.9257C37.9893 13.751 38.2509 14.5203 38.7097 15.0245C39.1637 15.5286 39.9254 15.7805 40.9882 15.7805C41.6897 15.7805 42.3924 15.6699 43.0952 15.4392C43.7976 15.2123 44.3792 14.9423 44.8376 14.6304V17.0068ZM40.1054 7.58896C39.4026 7.58896 38.8716 7.8404 38.5121 8.34466C38.1525 8.84939 37.9553 9.5927 37.9257 10.571H41.9942V10.3283C41.9942 9.55923 41.8529 8.91787 41.5741 8.39639C41.3134 7.85815 40.8245 7.58896 40.1054 7.58896V7.58896ZM46.9155 17.8358V5.53332H49.8323V15.5365H53.0189V5.53332H55.9362V15.5365H59.1228V5.53332H62.0435V17.8358H46.9155ZM73.9295 17.0068C73.5007 17.2974 72.9483 17.5489 72.2584 17.7635C71.5732 17.9724 70.7639 18.0798 69.8339 18.0798C67.9888 18.0798 66.5493 17.558 65.5175 16.5153C64.5062 15.4551 63.9968 13.857 63.9968 11.7208C63.9968 10.7899 64.1042 9.9344 64.3177 9.15342C64.5273 8.3537 64.8486 7.67853 65.2726 7.12289C65.7103 6.55503 66.2705 6.09367 66.9175 5.77743C67.5863 5.45266 68.3613 5.28976 69.2428 5.28976C70.6995 5.28976 71.8602 5.73809 72.7253 6.6317C73.6081 7.52922 74.0493 9.04593 74.0493 11.1826V12.7251H67.0115C67.0807 13.751 67.3415 14.5203 67.8002 15.0245C68.2543 15.5286 69.0164 15.7805 70.0787 15.7805C70.7815 15.7805 71.4834 15.6699 72.1858 15.4392C72.8877 15.2123 73.4711 14.9423 73.9295 14.6304V17.0068ZM69.1959 7.58896C68.4944 7.58896 67.9622 7.8404 67.6031 8.34466C67.2431 8.84939 67.0459 9.5927 67.0115 10.571H71.0852V10.3283C71.0852 9.55923 70.9439 8.91787 70.6655 8.39639C70.4039 7.85815 69.9163 7.58896 69.1959 7.58896V7.58896ZM81.3942 18.0798C79.45 18.0798 77.9984 17.5285 77.0349 16.417C76.0838 15.3098 75.6078 13.7336 75.6078 11.6957C75.6078 10.7679 75.7324 9.90895 75.9764 9.12732C76.2243 8.32842 76.5765 7.6526 77.0349 7.09777C77.5096 6.52473 78.114 6.07207 78.7991 5.77743C79.5183 5.45266 80.3405 5.28976 81.2748 5.28976C81.9943 5.28976 82.6155 5.34552 83.1379 5.46119C83.677 5.57617 84.1014 5.71297 84.4142 5.87467V8.34466C84.119 8.16569 83.7079 7.99495 83.1851 7.83205C82.6705 7.6658 82.1314 7.58463 81.5918 7.58896C80.6455 7.58896 79.9087 7.93032 79.3855 8.61367C78.8799 9.29737 78.6282 10.3019 78.6282 11.6222C78.6282 12.8955 78.855 13.9042 79.3129 14.657C79.788 15.404 80.5381 15.7805 81.5665 15.7805C82.1743 15.7805 82.7057 15.7082 83.1598 15.5624C83.6096 15.4258 84.0335 15.2202 84.4142 14.951V17.3225C84.0293 17.5918 83.5962 17.7844 83.1379 17.8869C82.6456 18.0151 82.0678 18.0798 81.3942 18.0798V18.0798ZM95.2979 7.83205H91.8669V17.8358H88.9501V7.83205H85.5152V5.53332H95.2979V7.83205ZM101.881 17.8358H97.0283V5.53332H101.928C103.268 5.53332 104.283 5.79415 104.969 6.3158C105.671 6.83647 106.023 7.61862 106.023 8.6609C106.023 9.3965 105.829 9.99886 105.436 10.4736C105.042 10.9307 104.519 11.2471 103.868 11.4265C104.686 11.575 105.321 11.8835 105.779 12.3578C106.254 12.8321 106.49 13.4646 106.49 14.263C106.49 15.4392 106.082 16.3271 105.265 16.9296C104.447 17.5372 103.319 17.8358 101.881 17.8358V17.8358ZM101.513 7.73429H99.9442V10.4736H101.414C101.971 10.4736 102.395 10.3487 102.691 10.1062C102.999 9.86223 103.157 9.52859 103.157 9.10623C103.157 8.64903 103.008 8.30682 102.717 8.07582C102.438 7.84927 102.035 7.73429 101.513 7.73429V7.73429ZM101.564 12.6011H99.9442V15.6347H101.564C102.151 15.6347 102.618 15.511 102.96 15.2674C103.304 15.0245 103.475 14.6225 103.475 14.0716C103.475 13.563 103.312 13.1949 102.987 12.969C102.656 12.7251 102.185 12.6011 101.564 12.6011V12.6011ZM108.447 5.53332H111.291V13.1395L115.801 5.53332H118.328V17.8358H115.484V10.2295L110.975 17.8358H108.447V5.53332ZM119.917 17.8358L122.688 13.1909C121.905 12.9265 121.301 12.5028 120.877 11.9174C120.452 11.315 120.238 10.5456 120.238 9.61816C120.238 8.29777 120.697 7.2851 121.609 6.58452C122.526 5.88355 123.694 5.53332 125.117 5.53332H129.58V17.8358H126.663V13.8232H125.262L122.912 17.8358H119.917ZM125.339 7.83205C124.701 7.83205 124.188 7.9772 123.793 8.27232C123.4 8.56696 123.207 9.04593 123.207 9.71677C123.207 10.4179 123.386 10.9223 123.742 11.2337C124.101 11.5412 124.611 11.6957 125.262 11.6957H126.663V7.83205H125.339" fill="black"/>
</svg>
