<svg xmlns="http://www.w3.org/2000/svg" viewBox="0 0 108.11 36">
  <path d="M567.85,411.82l-6.8-21h4.74l4.68,14.79h.06l4.74-14.79H580l-7,21Zm20.1-5.18a3.48,3.48,0,0,0,1,1.19,4.57,4.57,0,0,0,1.48.68,7.4,7.4,0,0,0,1.77.22,9.16,9.16,0,0,0,1.33-.11,4.48,4.48,0,0,0,1.32-.39,2.86,2.86,0,0,0,1-.81,2,2,0,0,0,.42-1.31,1.88,1.88,0,0,0-.55-1.39,4.25,4.25,0,0,0-1.43-.88,14,14,0,0,0-2-.62c-.75-.18-1.5-.37-2.27-.59a19.65,19.65,0,0,1-2.29-.72,7.79,7.79,0,0,1-2-1.1,5.36,5.36,0,0,1-1.43-1.7,5.2,5.2,0,0,1-.54-2.46,5.52,5.52,0,0,1,.69-2.81,6.28,6.28,0,0,1,1.81-2,8,8,0,0,1,2.54-1.18,10.94,10.94,0,0,1,2.82-.38,13.17,13.17,0,0,1,3.17.37,7.91,7.91,0,0,1,2.69,1.19,5.94,5.94,0,0,1,1.87,2.11,6.45,6.45,0,0,1,.7,3.1h-4.48a3.73,3.73,0,0,0-.4-1.56,2.55,2.55,0,0,0-.9-1A3.93,3.93,0,0,0,593,394a7.68,7.68,0,0,0-1.57-.15,5.26,5.26,0,0,0-1.12.12,3.17,3.17,0,0,0-1,.41,2.78,2.78,0,0,0-.75.74,2,2,0,0,0-.29,1.12,1.85,1.85,0,0,0,.23,1,2.14,2.14,0,0,0,.93.71,13,13,0,0,0,1.91.65l3.2.82c.39.08.94.22,1.63.43a7.68,7.68,0,0,1,2.08,1,6.31,6.31,0,0,1,1.78,1.82,5.14,5.14,0,0,1,.75,2.9,6.34,6.34,0,0,1-.56,2.68,5.77,5.77,0,0,1-1.66,2.13,8,8,0,0,1-2.74,1.4,14,14,0,0,1-7.16.07,8.3,8.3,0,0,1-2.88-1.34,6.49,6.49,0,0,1-2-2.32,7,7,0,0,1-.71-3.36h4.48A3.93,3.93,0,0,0,588,406.64Zm23.18-15.85,8.78,14.11H620V390.79h4.33v21h-4.63l-8.74-14.08h-.06v14.08h-4.33v-21Zm-65.78,7.74v-8.78h-4v-7.91h-2.16v7.91h-4v8.78h-1.8v19.31h8.28c3,0,5.4-2.94,5.4-6.58V398.53ZM541,392.38h2.16V395H541Zm-3.6,0h2.16V395h-2.16Zm0,4.39h2.16v2.64h-2.16Zm.36,15.81h-2.16v-2.64h2.16Zm0-4.39h-2.16v-2.64h2.16Zm0-4.39h-2.16v-2.64h2.16Zm3.6,8.78h-2.16v-2.64h2.16Zm0-4.39h-2.16v-2.64h2.16Zm0-4.39h-2.16v-2.64h2.16Zm-.36-4.39v-2.64h2.16v2.64Zm4,13.17h-2.16v-2.64H545Zm0-4.39h-2.16v-2.64H545Zm0-4.39h-2.16v-2.64H545Zm-20.52-6.15H518v5.27h-1.8v8.34c0,3.64,2.41,6.58,5.4,6.58h4.68V402.92h-1.8Zm-4,14.93h-2.16v-2.64h2.16Zm0-4.39h-2.16v-2.64h2.16Zm3.6,4.39H522v-2.64h2.16Zm0-4.39H522v-2.64h2.16Zm3.27-26.35H522v14.28h4.26v5h1.5v16.68H532v-36h-4.65Zm-1.11,12.3h-2.16V391.5h2.16Zm0-4.39h-2.16v-2.64h2.16Zm3.6,8.78h-2.16v-2.64h2.16Zm0-4.39h-2.16V391.5h2.16Zm0-4.39h-2.16v-2.64h2.16Z" transform="translate(-516.19 -381.84)" fill="#084c95"/>
</svg>
