<svg width="111" height="24" viewBox="0 0 111 24" fill="none" xmlns="http://www.w3.org/2000/svg">
<g clip-path="url(#clip0_926_7541)">
<path fill-rule="evenodd" clip-rule="evenodd" d="M103.285 9.54178H105.56V6.95252H107.653V9.54178H109.929V3.06314H107.653V5.34349H105.56V3.06314H103.285V9.54178ZM89.4992 4.91423C89.9785 4.59195 90.6296 4.36326 91.1895 4.36326C91.4754 4.36326 92.0994 4.40509 92.0994 4.95538C92.0994 5.49126 91.5522 5.50429 91.3304 5.50429H90.2133V6.91206H91.2018C91.5275 6.91206 92.1381 6.93949 92.1381 7.46269C92.1381 7.67663 92.0096 8.09423 91.2141 8.09423C90.4208 8.09423 89.914 7.87823 89.2499 7.47572L88.6664 9.00555C89.914 9.71869 91.0458 9.78555 91.5659 9.78555C94.1672 9.78555 94.4925 8.28143 94.4925 7.78601C94.4925 7.10098 94.0893 6.40326 93.1791 6.18795V6.16155C93.7506 5.90646 94.1151 5.34349 94.1151 4.64612C94.1151 3.13 92.5163 2.82177 91.5395 2.82177C90.6296 2.82177 89.5756 3.08954 88.8875 3.46498L89.4992 4.91423ZM84.5733 2.21766C85.6019 2.21766 86.6679 1.81583 87.1355 0.714573L85.6533 0.152974C85.4716 0.904516 84.8346 0.943259 84.5733 0.943259C84.3131 0.943259 83.6771 0.904516 83.4957 0.152974L82.0139 0.714573C82.4802 1.81583 83.5479 2.21766 84.5733 2.21766ZM81.0255 3.06314V9.54178H83.2345L85.4847 5.97469V9.54178H87.7602V3.06314H85.5755L83.2989 6.53663V3.06314H81.0255ZM65.9391 8.14738V4.55218C65.1717 4.53812 64.389 5.11583 64.389 6.34978C64.389 7.58406 65.1717 8.16006 65.9391 8.14738ZM67.9283 4.55218V8.14738C68.696 8.16006 69.4756 7.58406 69.4756 6.34978C69.4756 5.11583 68.696 4.53812 67.9283 4.55218ZM65.7951 12.3611V9.6388C64.4421 9.65149 62.2043 9.09983 62.2043 6.2956C62.2043 3.50646 64.4305 2.95583 65.7951 2.96852V0.152974H68.0706V2.96852C69.4376 2.95583 71.66 3.50646 71.66 6.2956C71.66 9.09983 69.4239 9.65149 68.0706 9.6388V12.3611H65.7951ZM55.7041 8.14738V4.55218C54.9368 4.53812 54.1561 5.11583 54.1561 6.34978C54.1561 7.58406 54.9368 8.16006 55.7041 8.14738ZM57.6951 4.55218V8.14738C58.4607 8.16006 59.2413 7.58406 59.2413 6.34978C59.2413 5.11583 58.4607 4.53812 57.6951 4.55218ZM55.5608 12.3611V9.6388C54.2072 9.65149 51.9711 9.09983 51.9711 6.2956C51.9711 3.50646 54.1952 2.95583 55.5608 2.96852V0.152974H57.8363V2.96852C59.2023 2.95583 61.425 3.50646 61.425 6.2956C61.425 9.09983 59.1899 9.65149 57.8363 9.6388V12.3611H55.5608ZM47.7049 2.21766C48.7335 2.21766 49.7997 1.81583 50.2667 0.714573L48.7849 0.152974C48.6021 0.904516 47.9648 0.943259 47.7049 0.943259C47.445 0.943259 46.8076 0.904516 46.6245 0.152974L45.1427 0.714573C45.6114 1.81583 46.678 2.21766 47.7049 2.21766ZM44.156 3.06314V9.54178H46.365L48.6155 5.97469V9.54178H50.8921V3.06314H48.7067L46.4315 6.53663V3.06314H44.156ZM30.2603 2.0692V4.2292H31.0935C32.2253 4.2292 32.3425 3.54452 32.3425 3.14337C32.3425 2.67332 32.1862 2.0692 31.0935 2.0692H30.3646H30.2603ZM27.8168 9.54178V0.0045166H31.6527C34.2416 0.0045166 34.9695 1.85457 34.9695 3.14337C34.9695 4.44383 34.2289 6.2956 31.6527 6.2956H30.2603V9.54178H27.8168ZM79.6071 3.05252V9.54178H77.3377V8.82075H77.3133C76.9146 9.46669 76.1288 9.75743 75.3807 9.75743C73.4867 9.75743 72.1523 8.15115 72.1523 6.29183C72.1523 4.43183 73.4603 2.83789 75.357 2.83789C76.0917 2.83789 76.8642 3.11594 77.3377 3.68509V3.05252H79.6071ZM75.9546 4.8364C75.0323 4.8364 74.4957 5.50738 74.4957 6.30315C74.4957 7.12532 75.0323 7.75789 75.9546 7.75789C76.8776 7.75789 77.4138 7.12532 77.4138 6.30315C77.4138 5.50738 76.8776 4.8364 75.9546 4.8364ZM42.7376 3.05252V9.54178H40.4685V8.82075H40.4435C40.0448 9.46669 39.2596 9.75743 38.5105 9.75743C36.6165 9.75743 35.2825 8.15115 35.2825 6.29183C35.2825 4.43183 36.5922 2.83789 38.4865 2.83789C39.2219 2.83789 39.9951 3.11594 40.4685 3.68509V3.05252H42.7376ZM39.0851 4.8364C38.1625 4.8364 37.6259 5.50738 37.6259 6.30315C37.6259 7.12532 38.1625 7.75789 39.0851 7.75789C40.0071 7.75789 40.5429 7.12532 40.5429 6.30315C40.5429 5.50738 40.0071 4.8364 39.0851 4.8364ZM102.165 6.57743V6.8188H97.3897C97.3897 7.75515 97.8776 8.26052 98.8101 8.26052C99.2987 8.26052 99.6467 8.09663 99.8953 7.666H102.078C101.715 9.19686 100.282 9.8932 98.8239 9.8932C96.7057 9.8932 95.121 8.67846 95.121 6.43789C95.121 4.27515 96.5799 2.97366 98.662 2.97366C100.88 2.97366 102.165 4.36395 102.165 6.57743ZM97.4274 5.49058H100.057C99.9467 4.87069 99.3848 4.4668 98.7738 4.4668C98.1135 4.4668 97.5642 4.8196 97.4274 5.49058ZM31.4501 19.883H30.7486L30.4019 21.9062H31.0695C32.563 21.9062 32.8537 21.4842 32.9394 20.9418C33.0351 20.3449 32.9182 19.883 31.4501 19.883ZM35.5578 20.9695C35.4539 21.61 35.2448 22.2577 34.7812 22.727C33.7599 23.7556 32.2191 23.8382 31.2416 23.842H27.4194L29.0429 14.3051H35.5479L35.2437 16.1829H31.3102L31.0064 18.0861H32.1457C32.9867 18.0861 34.0654 18.1989 34.8337 18.8558C35.3994 19.3396 35.7008 20.0692 35.5578 20.9695ZM42.3995 22.1846H38.8098L37.8423 23.842H35.0768L40.5207 14.3051H43.3653L45.5538 23.842H42.7753L42.3995 22.1846ZM42.0111 20.2883L41.4529 17.2526H41.4258L39.8435 20.2883H42.0111ZM60.0964 14.3051H57.4695L55.8831 23.841L58.4874 23.8413L59.1772 19.7061H59.2036L61.881 23.842L65.2581 23.8413L61.7428 18.8198L66.4852 14.3051H63.2538L59.4484 18.238H59.4196L60.0964 14.3051ZM50.0157 14.3051L49.4363 17.8602H52.9105L53.4889 14.3051H56.0202L54.4804 23.842H51.958L52.6119 19.7418H49.1397L48.4832 23.842H45.9409L47.4937 14.3051H50.0157Z" fill="black"/>
<path fill-rule="evenodd" clip-rule="evenodd" d="M0.794434 23.0479H23.0472V0.795471H0.794434V23.0479Z" fill="#FFED00"/>
<path fill-rule="evenodd" clip-rule="evenodd" d="M0.794743 23.0473H23.0475V0.794794H0.794743V23.0473ZM0 23.842H23.843V-0.000976562H0V23.842Z" fill="black"/>
<path fill-rule="evenodd" clip-rule="evenodd" d="M11.9218 14.6392L5.07362 21.4864L2.35647 18.7727L9.20539 11.9231L7.7767 10.4933V7.6706L6.78447 6.67735V9.13906L5.92081 10.0031L2.4487 6.52992L1.58984 7.38843C1.59602 6.74078 1.72527 4.86638 3.3151 3.30363C5.03076 1.65312 6.88356 2.39678 7.51716 3.03106L10.9876 6.50249L10.1023 7.38672L11.9218 9.20695L13.741 7.38672L12.8561 6.50249L16.3258 3.03106C16.9594 2.39678 18.8122 1.65312 20.5279 3.30363C22.1181 4.86638 22.2473 6.74078 22.2538 7.38843L21.395 6.52992L17.9225 10.0031L17.0592 9.13906V6.67735L16.0663 7.6706V10.4933L14.6376 11.9231L21.4869 18.7727L18.7701 21.4864L11.9218 14.6392Z" fill="black"/>
</g>
<defs>
<clipPath id="clip0_926_7541">
<rect width="110.057" height="24" fill="white"/>
</clipPath>
</defs>
</svg>
