<svg width="0" height="0" class="hidden">
  <symbol fill="none" xmlns="http://www.w3.org/2000/svg" viewBox="0 0 16 16" id="checked-ok">
    <path fill-rule="evenodd" clip-rule="evenodd" d="M8 0C3.6 0 0 3.6 0 8C0 12.4 3.6 16 8 16C12.4 16 16 12.4 16 8C16 3.6 12.4 0 8 0ZM6.4 12.0001L2.4 8.00008L3.52 6.88008L6.4 9.76008L12.48 3.68008L13.6 4.80008L6.4 12.0001Z" fill="#42AA31"></path>
  </symbol>
  <symbol fill="none" xmlns="http://www.w3.org/2000/svg" viewBox="0 0 16 14" id="comment">
    <path d="M3.00665 10.4174C2.70665 10.204 2.40227 10.0052 2.11726 9.77936C1.37507 9.19686 0.759126 8.50016 0.381309 7.61429C-0.231822 6.17878 -0.0936957 4.79271 0.710375 3.47554C1.54382 2.10925 2.78133 1.25433 4.23104 0.709789C6.63325 -0.192989 9.06421 -0.23765 11.4936 0.593353C12.9149 1.07951 14.154 1.85979 15.0718 3.10486C16.3877 4.89128 16.2962 7.17566 14.8499 8.86829C13.678 10.24 12.1624 10.9855 10.4627 11.3954C9.27515 11.6825 8.07201 11.7294 6.85888 11.6213C6.75575 11.612 6.62356 11.6781 6.53919 11.7489C5.24542 12.8606 3.76103 13.5634 2.11195 13.9181C1.96164 13.95 1.80851 13.9701 1.65632 13.9928C1.46351 14.0215 1.30601 13.9675 1.20757 13.7835C1.10913 13.5994 1.14507 13.4326 1.26726 13.2804C1.40944 13.1046 1.55445 12.9295 1.71039 12.7678C2.339 12.1155 2.78637 11.3043 3.00665 10.4174Z" fill="#275D8C"></path>
  </symbol>
  <symbol fill="none" xmlns="http://www.w3.org/2000/svg" viewBox="0 0 18 20" id="date">
    <path d="M6 9H4V11H6V9ZM10 9H8V11H10V9ZM14 9H12V11H14V9ZM16 2H15V0H13V2H5V0H3V2H2C0.89 2 0 2.9 0 4V18C0 18.5304 0.210714 19.0391 0.585786 19.4142C0.960859 19.7893 1.46957 20 2 20H16C16.5304 20 17.0391 19.7893 17.4142 19.4142C17.7893 19.0391 18 18.5304 18 18V4C18 3.46957 17.7893 2.96086 17.4142 2.58579C17.0391 2.21071 16.5304 2 16 2ZM16 18H2V7H16V18Z" fill="#275D8C"></path>
  </symbol>
  <symbol fill="none" xmlns="http://www.w3.org/2000/svg" viewBox="0 0 21 17" id="eye">
    <path fill-rule="evenodd" clip-rule="evenodd" d="M0.236989 7.77324C6.68309 0.315993 13.698 0.37919 20.0177 7.77324C20.3968 8.21562 20.3968 8.84759 20.0177 9.22677C13.6348 16.7472 6.61989 16.684 0.236989 9.22677C-0.0789963 8.84759 -0.0789963 8.21562 0.236989 7.77324ZM10.1589 4.4238C12.434 4.4238 14.2667 6.25651 14.2667 8.53161C14.2667 10.7435 12.434 12.5762 10.1589 12.5762C7.88383 12.5762 6.05112 10.7435 6.05112 8.53161C6.05112 6.25651 7.88383 4.4238 10.1589 4.4238Z" fill="#275D8C"></path>
    <path fill-rule="evenodd" clip-rule="evenodd" d="M10.1589 6.38293C11.3596 6.38293 12.3076 7.33089 12.3076 8.53163C12.3076 9.66918 11.3596 10.6803 10.1589 10.6803C8.95815 10.6803 8.01019 9.66918 8.01019 8.53163C8.01019 7.33089 8.95815 6.38293 10.1589 6.38293Z" fill="#275D8C"></path>
  </symbol>
  <symbol fill="none" xmlns="http://www.w3.org/2000/svg" viewBox="0 0 20 20" id="time">
    <path fill-rule="evenodd" clip-rule="evenodd" d="M20 10C20 4.47714 15.5237 0 10 0C4.47627 0 0 4.47714 0 10C0 15.5229 4.47779 20 10 20C15.5211 20 20 15.5229 20 10ZM15.2512 13.865C15.6332 14.2478 15.6332 14.8675 15.2512 15.2503C14.8692 15.6332 14.2478 15.6332 13.8658 15.2503L10.264 11.6486C9.45334 10.837 9.01956 9.79629 9.01956 8.64699V3.87887C9.01956 3.33812 9.45927 2.89925 10 2.89925C10.5408 2.89925 10.9805 3.33812 10.9805 3.87887V8.64699C10.9805 9.2964 11.1893 9.80402 11.6503 10.2633L15.2512 13.865Z" fill="#275D8C"></path>
  </symbol>
  <symbol fill="none" xmlns="http://www.w3.org/2000/svg" viewBox="0 0 20 20" id="user">
    <path d="M10 0C4.48525 0 0 4.48525 0 10C0 15.5147 4.48525 20 10 20C15.5147 20 20 15.5147 20 10C20 4.48525 15.5147 0 10 0ZM10 3C12.0674 3 13.75 4.68262 13.75 6.75C13.75 8.81738 12.0674 10.5 10 10.5C7.93262 10.5 6.25 8.81738 6.25 6.75C6.25 4.68262 7.93262 3 10 3ZM10 19C7.4745 19 5.1925 17.9521 3.55475 16.2725C4.62017 13.7647 7.1075 12 10 12C12.8925 12 15.38 13.7646 16.4452 16.2725C14.8105 17.9522 12.5252 19 10 19Z" fill="#275D8C"></path>
  </symbol>
  <symbol fill="none" xmlns="http://www.w3.org/2000/svg" viewBox="0 0 38 38" id="slider-arrow-prev">
    <circle cx="19" cy="19" r="19" transform="rotate(-180 19 19)" fill="#F0F2F6"></circle>
    <path d="M8.29289 18.2929C7.90237 18.6834 7.90237 19.3166 8.29289 19.7071L14.6569 26.0711C15.0474 26.4616 15.6805 26.4616 16.0711 26.0711C16.4616 25.6805 16.4616 25.0474 16.0711 24.6569L10.4142 19L16.0711 13.3431C16.4616 12.9526 16.4616 12.3195 16.0711 11.9289C15.6805 11.5384 15.0474 11.5384 14.6569 11.9289L8.29289 18.2929ZM29 18L9 18L9 20L29 20L29 18Z" fill="#337AB7"></path>
  </symbol>
  <symbol fill="none" xmlns="http://www.w3.org/2000/svg" viewBox="0 0 38 38" id="slider-arrow-next">
    <circle cx="19" cy="19" r="19" fill="#F0F2F6"/>
    <path d="M29.7071 19.7071C30.0976 19.3166 30.0976 18.6834 29.7071 18.2929L23.3431 11.9289C22.9526 11.5384 22.3195 11.5384 21.9289 11.9289C21.5384 12.3195 21.5384 12.9526 21.9289 13.3431L27.5858 19L21.9289 24.6569C21.5384 25.0474 21.5384 25.6805 21.9289 26.0711C22.3195 26.4616 22.9526 26.4616 23.3431 26.0711L29.7071 19.7071ZM9 20L29 20L29 18L9 18L9 20Z" fill="#337AB7"/>
  </symbol>
</svg>
