<svg width="254" height="169" viewBox="0 0 254 169" fill="none" xmlns="http://www.w3.org/2000/svg">
<rect width="254" height="169" fill="#D7DDE7"/>
<path fill-rule="evenodd" clip-rule="evenodd" d="M92.6 56H161.55C165.73 56 169.15 59.4207 169.15 63.6V105.73C169.15 109.909 165.73 113.33 161.55 113.33H92.6C88.4207 113.33 85 109.909 85 105.73V63.6C85 59.4207 88.4207 56 92.6 56ZM156.722 62.9044C154.002 62.9044 151.798 65.109 151.798 67.8286C151.798 70.5482 154.002 72.7556 156.722 72.7556C159.442 72.7556 161.649 70.5482 161.649 67.8286C161.649 65.109 159.442 62.9044 156.722 62.9044ZM115.86 76.4447L122.512 86.4575C123.559 88.0323 125.185 88.9032 127.075 88.9032C128.968 88.9032 130.592 88.0295 131.638 86.4575L138.29 76.4447C139.337 74.8699 140.963 73.999 142.853 73.999C144.743 73.999 146.37 74.8726 147.416 76.4447L154.419 86.9888L160.332 95.8897C161.479 97.6151 161.575 99.6829 160.597 101.51C159.62 103.336 157.842 104.399 155.769 104.399H142.85H134.429H119.716H111.295H98.376C96.3055 104.399 94.5281 103.336 93.5476 101.51C92.5699 99.6829 92.6657 97.6151 93.8133 95.8897L99.7262 86.9888L106.729 76.4447C107.775 74.8699 109.402 73.999 111.292 73.999C113.184 73.999 114.808 74.8726 115.855 76.4447H115.86Z" fill="#BFC2CC"/>
</svg>
