<svg width="30" height="30" viewBox="0 0 30 30" fill="none" xmlns="http://www.w3.org/2000/svg">
<rect width="30" height="30" rx="3" fill="#CF5551"/>
<path d="M15.4755 6.08156L16.9941 10.7553C17.1949 11.3734 17.7709 11.7918 18.4207 11.7918H23.335C23.8194 11.7918 24.0207 12.4116 23.6289 12.6963L19.6531 15.5848C19.1274 15.9668 18.9074 16.6439 19.1082 17.2619L20.6268 21.9357C20.7765 22.3963 20.2493 22.7794 19.8574 22.4947L15.8817 19.6061C15.3559 19.2242 14.6441 19.2242 14.1183 19.6061L10.1426 22.4947C9.75073 22.7794 9.22349 22.3963 9.37316 21.9357L10.8918 17.2619C11.0926 16.6439 10.8726 15.9668 10.3469 15.5848L6.37111 12.6963C5.97926 12.4116 6.18064 11.7918 6.66501 11.7918H11.5793C12.2291 11.7918 12.8051 11.3734 13.0059 10.7553L14.5245 6.08156C14.6741 5.6209 15.3259 5.62091 15.4755 6.08156Z" stroke="white"/>
</svg>
