<svg width="130" height="316" viewBox="0 0 130 316" fill="none" xmlns="http://www.w3.org/2000/svg">
<path d="M77.8899 204.15V205.801L76.4417 204.975V203.324L77.8899 204.15Z" fill="#72B5E8"/>
<path d="M77.8809 204.15V205.801L86.5169 200.821V199.178L77.8809 204.15Z" fill="#A8CFF0"/>
<path d="M86.517 199.178L77.881 204.149L76.4417 203.324L85.0863 198.343L86.517 199.178Z" fill="#D1EBFF"/>
<path d="M95.1008 204.149V205.801L96.5405 204.975V203.324L95.1008 204.149Z" fill="#72B5E8"/>
<path d="M95.1011 204.15V205.801L86.4651 200.821V199.178L95.1011 204.15Z" fill="#72B5E8"/>
<path d="M86.4651 199.178L95.1011 204.15L96.5404 203.324L87.8958 198.344L86.4651 199.178Z" fill="#D1EBFF"/>
<path d="M77.8899 217.396V219.047L76.4417 218.213V216.57L77.8899 217.396Z" fill="#72B5E8"/>
<path d="M77.8809 217.396V219.047L86.5169 214.067V212.424L77.8809 217.396Z" fill="#A8CFF0"/>
<path d="M86.517 212.424L77.881 217.396L76.4417 216.57L85.0863 211.59L86.517 212.424Z" fill="#D1EBFF"/>
<path d="M95.1008 217.396V219.048L96.5405 218.213V216.57L95.1008 217.396Z" fill="#72B5E8"/>
<path d="M95.1011 217.396V219.048L86.4651 214.067V212.425L95.1011 217.396Z" fill="#72B5E8"/>
<path d="M86.4651 212.424L95.1011 217.396L96.5404 216.57L87.8958 211.59L86.4651 212.424Z" fill="#D1EBFF"/>
<path d="M77.8899 177.7V179.351L76.4417 178.526V176.874L77.8899 177.7Z" fill="#72B5E8"/>
<path d="M77.8809 177.7V179.351L86.5169 174.371V172.728L77.8809 177.7Z" fill="#A8CFF0"/>
<path d="M86.517 172.728L77.881 177.7L76.4417 176.874L85.0863 171.894L86.517 172.728Z" fill="#D1EBFF"/>
<path d="M95.1008 177.7V179.351L96.5405 178.526V176.874L95.1008 177.7Z" fill="#72B5E8"/>
<path d="M95.1011 177.7V179.351L86.4651 174.371V172.728L95.1011 177.7Z" fill="#72B5E8"/>
<path d="M86.4651 172.728L95.1011 177.7L96.5404 176.874L87.8958 171.894L86.4651 172.728Z" fill="#D1EBFF"/>
<path d="M77.8897 190.946V192.598L76.4414 191.763V190.12L77.8897 190.946Z" fill="#72B5E8"/>
<path d="M77.8806 190.946V192.598L86.5166 187.617V185.975L77.8806 190.946Z" fill="#A8CFF0"/>
<path d="M86.5167 185.974L77.8807 190.946L76.4414 190.12L85.086 185.14L86.5167 185.974Z" fill="#D1EBFF"/>
<path d="M95.1008 190.946V192.598L96.5405 191.763V190.12L95.1008 190.946Z" fill="#72B5E8"/>
<path d="M95.1011 190.946V192.598L86.4651 187.617V185.975L95.1011 190.946Z" fill="#72B5E8"/>
<path d="M86.4651 185.974L95.1011 190.946L96.5404 190.12L87.8958 185.14L86.4651 185.974Z" fill="#D1EBFF"/>
<path d="M77.8897 151.241V152.892L76.4414 152.067V150.415L77.8897 151.241Z" fill="#72B5E8"/>
<path d="M77.8806 151.241V152.893L86.5166 147.912V146.269L77.8806 151.241Z" fill="#A8CFF0"/>
<path d="M86.5167 146.269L77.8807 151.241L76.4414 150.415L85.086 145.435L86.5167 146.269Z" fill="#D1EBFF"/>
<path d="M95.1008 151.241V152.893L96.5405 152.067V150.415L95.1008 151.241Z" fill="#72B5E8"/>
<path d="M95.1011 151.241V152.893L86.4651 147.912V146.269L95.1011 151.241Z" fill="#72B5E8"/>
<path d="M86.4651 146.269L95.1011 151.241L96.5404 150.415L87.8958 145.435L86.4651 146.269Z" fill="#D1EBFF"/>
<path d="M77.8899 164.488V166.139L76.4417 165.314V163.662L77.8899 164.488Z" fill="#72B5E8"/>
<path d="M77.8809 164.488V166.139L86.5169 161.159V159.516L77.8809 164.488Z" fill="#A8CFF0"/>
<path d="M86.517 159.516L77.881 164.488L76.4417 163.662L85.0863 158.682L86.517 159.516Z" fill="#D1EBFF"/>
<path d="M95.1008 164.488V166.139L96.5405 165.313V163.662L95.1008 164.488Z" fill="#72B5E8"/>
<path d="M95.1011 164.488V166.139L86.4651 161.159V159.516L95.1011 164.488Z" fill="#72B5E8"/>
<path d="M86.4651 159.516L95.1011 164.487L96.5404 163.662L87.8958 158.681L86.4651 159.516Z" fill="#D1EBFF"/>
<path d="M77.8899 124.8V126.452L76.4417 125.626V123.974L77.8899 124.8Z" fill="#72B5E8"/>
<path d="M77.8809 124.8V126.452L86.5169 121.471V119.828L77.8809 124.8Z" fill="#A8CFF0"/>
<path d="M86.517 119.828L77.881 124.8L76.4417 123.974L85.0863 118.994L86.517 119.828Z" fill="#D1EBFF"/>
<path d="M95.1008 124.8V126.452L96.5405 125.626V123.975L95.1008 124.8Z" fill="#72B5E8"/>
<path d="M95.1011 124.8V126.452L86.4651 121.471V119.828L95.1011 124.8Z" fill="#72B5E8"/>
<path d="M86.4651 119.828L95.1011 124.8L96.5404 123.974L87.8958 118.994L86.4651 119.828Z" fill="#D1EBFF"/>
<path d="M77.8899 138.046V139.698L76.4417 138.872V137.221L77.8899 138.046Z" fill="#72B5E8"/>
<path d="M77.8809 138.046V139.698L86.5169 134.718V133.075L77.8809 138.046Z" fill="#A8CFF0"/>
<path d="M86.517 133.075L77.881 138.046L76.4417 137.221L85.0863 132.24L86.517 133.075Z" fill="#D1EBFF"/>
<path d="M95.1008 138.046V139.698L96.5405 138.872V137.221L95.1008 138.046Z" fill="#72B5E8"/>
<path d="M95.1011 138.046V139.698L86.4651 134.718V133.075L95.1011 138.046Z" fill="#72B5E8"/>
<path d="M86.4651 133.075L95.1011 138.046L96.5404 137.221L87.8958 132.24L86.4651 133.075Z" fill="#D1EBFF"/>
<path d="M7.99105 101.214C8.03477 100.426 8.26442 99.6589 8.66131 98.9758C9.0582 98.2927 9.6111 97.7128 10.275 97.2833C10.5102 97.1116 10.7883 97.0079 11.0787 96.9837C11.3691 96.9594 11.6606 97.0154 11.9212 97.1457L12.6021 97.5327L12.1539 98.2897C12.1582 98.3326 12.1582 98.3758 12.1539 98.4187C12.1088 99.2068 11.8786 99.9732 11.4818 100.656C11.0851 101.339 10.5329 101.919 9.86993 102.35L9.69755 102.436L9.32695 103.064L8.8443 102.771C8.55341 102.637 8.31337 102.414 8.1597 102.133C8.00603 101.853 7.94689 101.531 7.99105 101.214Z" fill="#2672AB"/>
<path d="M12.5239 101.214C13.4224 99.6798 13.4311 98.0164 12.5434 97.4985C11.6556 96.9805 10.2075 97.8041 9.30901 99.3381C8.4105 100.872 8.40181 102.535 9.28959 103.053C10.1774 103.571 11.6254 102.748 12.5239 101.214Z" fill="#72B5E8"/>
<path d="M6.61203 77.104C6.6745 75.9726 7.00367 74.8719 7.57277 73.8914C8.14187 72.9109 8.93482 72.0783 9.88714 71.4614C10.2246 71.215 10.6235 71.0663 11.0401 71.0314C11.4567 70.9965 11.8748 71.0768 12.2487 71.2635L13.2226 71.8226L12.5848 72.9064C12.5848 72.9666 12.5848 73.0183 12.5848 73.0871C12.5217 74.2171 12.1922 75.3164 11.6231 76.2954C11.054 77.2744 10.2614 78.1055 9.3097 78.7211L9.05975 78.8501L8.53402 79.7103L7.8445 79.2888C7.43257 79.1033 7.09082 78.7912 6.86911 78.3982C6.64739 78.0052 6.55732 77.5517 6.61203 77.104Z" fill="#72B5E8"/>
<path d="M7.53418 77.6287C7.53418 79.7017 8.99936 80.5361 10.8093 79.4953C11.761 78.8797 12.5536 78.0486 13.1227 77.0696C13.6918 76.0906 14.0213 74.9913 14.0844 73.8612C14.0844 71.7882 12.6192 70.9539 10.8093 71.9947C9.85811 72.6108 9.06586 73.442 8.49682 74.4209C7.92778 75.3998 7.59798 76.4988 7.53418 77.6287Z" fill="#A8CFF0"/>
<path d="M8.69793 101.171L7.50854 78.9964C7.49943 78.8589 7.49943 78.721 7.50854 78.5835C7.58423 77.2816 7.96527 76.0157 8.62097 74.8877C9.27666 73.7597 10.1887 72.8011 11.2836 72.0893C11.8184 71.7596 12.4306 71.5757 13.059 71.556C14.4725 71.556 15.3861 72.6828 15.3861 74.4289C15.3861 74.5752 15.3861 74.7214 15.3861 74.8418L14.145 98.4274C14.0858 99.3066 13.8211 100.16 13.3721 100.919C12.9231 101.677 12.3023 102.321 11.5593 102.797C11.1859 103.028 10.7575 103.156 10.3182 103.167C9.3874 103.132 8.70655 102.358 8.69793 101.171ZM11.5938 72.6742C10.5944 73.3196 9.76142 74.191 9.16245 75.2177C8.56348 76.2444 8.21536 77.3975 8.14631 78.5835C8.14631 78.7039 8.14631 78.8243 8.14631 78.9534L9.38742 101.154C9.38742 101.971 9.75803 102.462 10.37 102.462C10.6902 102.448 11.0017 102.354 11.2749 102.186C11.9122 101.763 12.4435 101.199 12.8275 100.539C13.2116 99.878 13.4383 99.1379 13.4899 98.3758L14.6879 74.7988C14.6879 74.687 14.6879 74.558 14.6879 74.4289C14.6879 73.0699 14.0502 72.2269 13.0332 72.2269C12.5225 72.2482 12.0263 72.4024 11.5938 72.6742Z" fill="#2672AB"/>
<path d="M9.43934 109.902C10.0244 109.616 10.525 109.184 10.8922 108.647C11.2594 108.11 11.4804 107.488 11.5337 106.84C11.5337 105.119 9.80994 105.79 9.80994 104.922V103.072L11.0942 102.324V104.311C12.1887 104.122 12.9472 104.939 12.8179 106.461C12.6085 108.004 11.7968 109.401 10.5598 110.349C9.69789 110.977 8.83604 111.046 8.31891 110.65C8.18963 110.564 8.31891 110.203 8.53438 110.194C8.85542 110.172 9.16609 110.072 9.43934 109.902Z" fill="#001A46"/>
<path d="M9.76674 110.031C10.3533 109.748 10.8558 109.318 11.2246 108.783C11.5935 108.247 11.8158 107.625 11.8697 106.977C11.8697 105.214 10.146 105.928 10.146 105.059V103.21L11.4388 102.461V104.448C12.5247 104.259 13.2832 105.085 13.1625 106.599C12.9571 108.145 12.1449 109.546 10.9044 110.495C10.0426 111.123 9.18067 111.183 8.66355 110.796C8.53426 110.702 8.70664 110.34 8.87901 110.332C9.19486 110.304 9.49936 110.201 9.76674 110.031Z" fill="#03336E"/>
<path d="M8.24972 77.9985C8.3142 76.8688 8.6443 75.77 9.21328 74.7912C9.78226 73.8125 10.5741 72.9811 11.5249 72.3645C11.8624 72.1152 12.2624 71.9639 12.6807 71.9275C13.0991 71.891 13.5193 71.9708 13.895 72.158L14.8689 72.7171L14.2311 73.8009C14.2311 73.8612 14.2311 73.9214 14.2311 73.9816C14.168 75.1116 13.8385 76.2109 13.2694 77.1899C12.7003 78.1689 11.9077 79 10.956 79.6156L10.7061 79.7446L10.1803 80.6048L9.4822 80.1833C9.07027 79.9978 8.72854 79.6858 8.50683 79.2927C8.28511 78.8997 8.19502 78.4462 8.24972 77.9985Z" fill="#72B5E8"/>
<path d="M14.7491 77.9769C16.0367 75.7787 16.0512 73.3961 14.7814 72.6553C13.5116 71.9144 11.4384 73.0959 10.1508 75.2941C8.86315 77.4923 8.84872 79.8749 10.1185 80.6157C11.3883 81.3566 13.4615 80.1751 14.7491 77.9769Z" fill="#A8CFF0"/>
<path d="M10.6372 77.6888C10.6372 78.8414 11.4475 79.3059 12.4562 78.7296C12.9828 78.3851 13.4215 77.9226 13.7373 77.379C14.0531 76.8354 14.2373 76.2258 14.2752 75.5986C14.2752 74.446 13.4562 73.9815 12.4562 74.5578C11.9281 74.9008 11.4884 75.3629 11.1724 75.9068C10.8564 76.4507 10.6731 77.0611 10.6372 77.6888Z" fill="#03336E"/>
<path d="M9.13764 101.868C9.18136 101.08 9.41102 100.313 9.8079 99.6295C10.2048 98.9464 10.7577 98.3665 11.4216 97.937C11.6568 97.7653 11.9349 97.6617 12.2253 97.6374C12.5157 97.6131 12.8072 97.6692 13.0678 97.7994L13.7487 98.1865L13.3005 98.9434C13.3048 98.9863 13.3048 99.0295 13.3005 99.0724C13.2554 99.8605 13.0252 100.627 12.6284 101.31C12.2317 101.993 11.6795 102.573 11.0165 103.003L10.8442 103.089L10.4736 103.717L9.99092 103.416C9.69893 103.286 9.4575 103.065 9.30345 102.785C9.1494 102.506 9.09116 102.184 9.13764 101.868Z" fill="#2672AB"/>
<path d="M13.6685 101.83C14.567 100.296 14.5757 98.6326 13.6879 98.1147C12.8001 97.5967 11.352 98.4203 10.4535 99.9543C9.55504 101.488 9.54635 103.152 10.4341 103.67C11.3219 104.187 12.77 103.364 13.6685 101.83Z" fill="#72B5E8"/>
<path d="M10.7925 101.627C10.7925 102.435 11.3614 102.754 12.0683 102.349C12.437 102.111 12.7439 101.788 12.9641 101.408C13.1843 101.029 13.3116 100.603 13.3356 100.165C13.3356 99.3647 12.7666 99.0465 12.0683 99.4421C11.6981 99.6802 11.3895 100.002 11.1678 100.382C10.946 100.762 10.8174 101.188 10.7925 101.627Z" fill="#03336E"/>
<path d="M111.149 36.2723L97.0056 28.1609V25.4256L111.149 33.5369V36.2723Z" fill="#2672AB"/>
<path d="M119.449 31.3951L111.141 36.2722V33.5369L119.449 28.6684V31.3951Z" fill="#3F92D1"/>
<path d="M119.449 28.6684L111.14 33.5369L97.0056 25.4256L105.331 20.5485L119.449 28.6684Z" fill="#72B5E8"/>
<path d="M111.149 32.8143L97.0056 24.703V21.9677L111.149 30.079V32.8143Z" fill="#2672AB"/>
<path d="M119.449 27.9372L111.141 32.8143V30.079L119.449 25.2105V27.9372Z" fill="#3F92D1"/>
<path d="M119.449 25.2105L111.14 30.079L97.0056 21.9677L105.331 17.0906L119.449 25.2105Z" fill="#72B5E8"/>
<path d="M111.149 29.4425L97.0056 21.3312V18.5959L111.149 26.7072V29.4425Z" fill="#2672AB"/>
<path d="M119.449 24.5654L111.141 29.4425V26.7072L119.449 21.8387V24.5654Z" fill="#3F92D1"/>
<path d="M119.449 21.8387L111.14 26.7072L97.0056 18.5959L105.331 13.7188L119.449 21.8387Z" fill="#72B5E8"/>
<path d="M111.149 25.9159L97.0056 17.8046V15.0693L111.149 23.1806V25.9159Z" fill="#2672AB"/>
<path d="M119.449 21.0387L111.141 25.9158V23.1805L119.449 18.312V21.0387Z" fill="#3F92D1"/>
<path d="M119.449 18.3121L111.14 23.1806L97.0056 15.0693L105.331 10.1922L119.449 18.3121Z" fill="#72B5E8"/>
<path opacity="0.2" d="M110.192 231.683L86.5423 245.428L62.5649 231.666L86.2407 217.903L110.192 231.683Z" fill="#92B4D1"/>
<path d="M86.5512 244.164L63.1943 230.763V228.621L86.5512 242.022V244.164Z" fill="#2672AB"/>
<path d="M109.563 230.763L86.5334 244.164V242.022L109.563 228.638V230.763Z" fill="#3F92D1"/>
<path d="M109.563 228.638L86.5339 242.022L63.1943 228.621L86.2495 215.22L109.563 228.638Z" fill="#D1EBFF"/>
<path d="M109.563 228.638L86.5339 242.022L63.1943 228.621L86.4563 241.566L109.563 228.638Z" fill="white"/>
<path d="M86.4822 237.231L72.3474 229.12V226.385L86.4822 234.496V237.231Z" fill="#72B5E8"/>
<path d="M100.41 229.12L86.4736 237.231V234.496L100.41 226.402V229.12Z" fill="#A8CFF0"/>
<path d="M100.41 226.402L86.4733 234.496L72.3472 226.385L86.3009 218.282L100.41 226.402Z" fill="#D1EBFF"/>
<path d="M100.41 226.402L86.4735 234.496L72.3474 226.385L86.4304 233.963L100.41 226.402Z" fill="white"/>
<path d="M77.8899 45.3814V47.0243L76.4417 46.1986V44.5471L77.8899 45.3814Z" fill="#72B5E8"/>
<path d="M77.8809 45.3815V47.0244L86.5169 42.0441V40.4012L77.8809 45.3815Z" fill="#A8CFF0"/>
<path d="M86.517 40.4011L77.881 45.3815L76.4417 44.5471L85.0863 39.5668L86.517 40.4011Z" fill="#D1EBFF"/>
<path d="M77.8899 58.6622V60.3137L76.4417 59.488V57.8364L77.8899 58.6622Z" fill="#72B5E8"/>
<path d="M77.8809 58.6623V60.3138L86.5169 55.3334V53.6905L77.8809 58.6623Z" fill="#A8CFF0"/>
<path d="M86.517 53.6905L77.881 58.6622L76.4417 57.8364L85.0863 52.8561L86.517 53.6905Z" fill="#D1EBFF"/>
<path d="M77.8899 71.9002V73.5517L76.4417 72.7173V71.0658L77.8899 71.9002Z" fill="#72B5E8"/>
<path d="M77.8809 71.9002V73.5517L86.5169 68.5714V66.9199L77.8809 71.9002Z" fill="#A8CFF0"/>
<path d="M86.517 66.9199L77.881 71.9002L76.4417 71.0658L85.0863 66.0941L86.517 66.9199Z" fill="#D1EBFF"/>
<path d="M77.8899 85.0863V86.7379L76.4417 85.9121V84.2606L77.8899 85.0863Z" fill="#72B5E8"/>
<path d="M77.8809 85.0865V86.738L86.5169 81.7577V80.1148L77.8809 85.0865Z" fill="#A8CFF0"/>
<path d="M86.517 80.1148L77.881 85.0865L76.4417 84.2607L85.0863 79.2804L86.517 80.1148Z" fill="#D1EBFF"/>
<path d="M77.8899 98.3759V100.027L76.4417 99.193V97.5501L77.8899 98.3759Z" fill="#72B5E8"/>
<path d="M77.8809 98.3759V100.027L86.5169 95.0471V93.3956L77.8809 98.3759Z" fill="#A8CFF0"/>
<path d="M86.517 93.3955L77.881 98.3758L76.4417 97.5501L85.0863 92.5612L86.517 93.3955Z" fill="#D1EBFF"/>
<path d="M77.8899 111.605V113.257L76.4417 112.431V110.779L77.8899 111.605Z" fill="#72B5E8"/>
<path d="M77.8809 111.605V113.257L86.5169 108.276V106.633L77.8809 111.605Z" fill="#A8CFF0"/>
<path d="M86.517 106.633L77.881 111.605L76.4417 110.779L85.0863 105.799L86.517 106.633Z" fill="#D1EBFF"/>
<path d="M95.1008 32.1867V33.8382L96.5405 33.0124V31.3609L95.1008 32.1867Z" fill="#72B5E8"/>
<path d="M95.1011 32.1867V33.8382L86.4651 28.8579V27.215L95.1011 32.1867Z" fill="#72B5E8"/>
<path d="M86.4651 27.2149L95.1011 32.1866L96.5404 31.3609L87.8958 26.3806L86.4651 27.2149Z" fill="#D1EBFF"/>
<path d="M77.8899 32.1867V33.8382L76.4417 33.0124V31.3609L77.8899 32.1867Z" fill="#72B5E8"/>
<path d="M77.8809 32.1867V33.8382L86.5169 28.8579V27.215L77.8809 32.1867Z" fill="#A8CFF0"/>
<path d="M86.517 27.2149L77.881 32.1866L76.4417 31.3609L85.0863 26.3806L86.517 27.2149Z" fill="#D1EBFF"/>
<path d="M76.4416 15.0179V227.357L75.002 226.531V14.1835L76.4416 15.0179Z" fill="#72B5E8"/>
<path d="M76.4414 15.0179V227.357L77.8638 226.531V14.1921L76.4414 15.0179Z" fill="#A8CFF0"/>
<path d="M77.864 14.192L76.4416 15.0178L75.002 14.1834L76.4416 13.3577L77.864 14.192Z" fill="#D1EBFF"/>
<path d="M85.0774 38.07V39.7215L86.5171 38.8872V37.2357L85.0774 38.07Z" fill="#72B5E8"/>
<path d="M85.0776 38.0701V39.7216L76.4417 34.7413V33.0898L85.0776 38.0701Z" fill="#72B5E8"/>
<path d="M76.4417 33.0897L85.0776 38.07L86.517 37.2357L77.8724 32.264L76.4417 33.0897Z" fill="#D1EBFF"/>
<path d="M27.2627 65.0619V66.7134L28.7024 65.879V64.2361L27.2627 65.0619Z" fill="#72B5E8"/>
<path d="M27.2627 65.062V66.7135L22.5569 63.8836V62.2407L27.2627 65.062Z" fill="#72B5E8"/>
<path d="M22.5569 62.2406L27.2627 65.0619L28.702 64.2362L23.9876 61.4063L22.5569 62.2406Z" fill="#D1EBFF"/>
<path d="M22.566 56.7957V62.2921L21.1177 61.4664V55.97L22.566 56.7957Z" fill="#72B5E8"/>
<path d="M22.5571 56.7957V62.2921L23.9882 61.4664V55.9699L22.5571 56.7957Z" fill="#A8CFF0"/>
<path d="M23.9884 55.9701L22.5573 56.7958L21.1177 55.9701L22.5573 55.1357L23.9884 55.9701Z" fill="#D1EBFF"/>
<path d="M18.937 69.8616V71.5131L20.3767 70.6873V69.0358L18.937 69.8616Z" fill="#72B5E8"/>
<path d="M18.9456 69.8616V71.5131L14.2397 68.6918V67.0489L18.9456 69.8616Z" fill="#72B5E8"/>
<path d="M14.2397 67.0488L18.9456 69.8615L20.3763 69.0357L15.6705 66.2144L14.2397 67.0488Z" fill="#D1EBFF"/>
<path d="M14.24 61.6039V67.1003L12.8003 66.2745V60.7695L14.24 61.6039Z" fill="#72B5E8"/>
<path d="M14.2397 61.6039V67.1003L15.6708 66.2745V60.7781L14.2397 61.6039Z" fill="#A8CFF0"/>
<path d="M15.671 60.7782L14.24 61.6039L12.8003 60.7696L14.24 59.9438L15.671 60.7782Z" fill="#D1EBFF"/>
<path d="M118.484 12.4633V14.1148L119.923 13.289V11.6375L118.484 12.4633Z" fill="#72B5E8"/>
<path d="M118.484 12.4633V14.1148L113.778 11.2934V9.65053L118.484 12.4633Z" fill="#72B5E8"/>
<path d="M113.778 9.6505L118.484 12.4632L119.923 11.6375L115.209 8.81615L113.778 9.6505Z" fill="#D1EBFF"/>
<path d="M113.787 4.1454V9.64182L112.339 8.81606V3.31105L113.787 4.1454Z" fill="#72B5E8"/>
<path d="M113.778 4.14549V9.6419L115.209 8.81615V3.31973L113.778 4.14549Z" fill="#A8CFF0"/>
<path d="M115.209 3.31962L113.778 4.14537L112.339 3.31102L113.778 2.48526L115.209 3.31962Z" fill="#D1EBFF"/>
<path d="M2.09624 74.2054V75.8569L0.647949 75.0225V73.3796L2.09624 74.2054Z" fill="#72B5E8"/>
<path d="M2.08716 74.2055V75.857L115.346 10.3473V8.70439L2.08716 74.2055Z" fill="#A8CFF0"/>
<path d="M115.346 8.70415L2.08728 74.2053L0.647949 73.3795L113.916 7.8698L115.346 8.70415Z" fill="#D1EBFF"/>
<path d="M101.892 22.0023V23.6452L103.332 22.8195V21.168L101.892 22.0023Z" fill="#72B5E8"/>
<path d="M101.892 22.0023V23.6452L97.1865 20.8239V19.181L101.892 22.0023Z" fill="#72B5E8"/>
<path d="M97.1865 19.1809L101.892 22.0022L103.332 21.1679L98.6172 18.3466L97.1865 19.1809Z" fill="#D1EBFF"/>
<path d="M97.1954 13.736V19.2324L95.7471 18.4067V12.9103L97.1954 13.736Z" fill="#72B5E8"/>
<path d="M97.1865 13.736V19.2324L98.6176 18.4067V12.9103L97.1865 13.736Z" fill="#A8CFF0"/>
<path d="M98.6178 12.9104L97.1867 13.7361L95.7471 12.9104L97.1867 12.076L98.6178 12.9104Z" fill="#D1EBFF"/>
<path d="M110.158 17.2716V18.9231L111.598 18.0973V16.4458L110.158 17.2716Z" fill="#72B5E8"/>
<path d="M110.167 17.2715V18.923L105.461 16.1017V14.4502L110.167 17.2715Z" fill="#72B5E8"/>
<path d="M105.461 14.4502L110.167 17.2715L111.597 16.4457L106.891 13.6244L105.461 14.4502Z" fill="#D1EBFF"/>
<path d="M105.461 8.94518V14.4502L104.021 13.6158V8.11943L105.461 8.94518Z" fill="#72B5E8"/>
<path d="M105.461 8.94518V14.4502L106.892 13.6158V8.11943L105.461 8.94518Z" fill="#A8CFF0"/>
<path d="M106.892 8.11939L105.461 8.94514L104.021 8.11939L105.461 7.29364L106.892 8.11939Z" fill="#D1EBFF"/>
<path d="M43.8967 55.6003V57.2518L45.3364 56.426V54.7745L43.8967 55.6003Z" fill="#72B5E8"/>
<path d="M43.8968 55.6002V57.2518L39.1909 54.4304V52.7875L43.8968 55.6002Z" fill="#72B5E8"/>
<path d="M39.1909 52.7874L43.8968 55.6002L45.3361 54.7744L40.6216 51.9531L39.1909 52.7874Z" fill="#D1EBFF"/>
<path d="M39.2005 47.3427V52.8391L37.7522 52.0047V46.5083L39.2005 47.3427Z" fill="#72B5E8"/>
<path d="M39.1917 47.3427V52.8392L40.6227 52.0048V46.517L39.1917 47.3427Z" fill="#A8CFF0"/>
<path d="M40.6229 46.5169L39.1919 47.3426L37.7522 46.5083L39.1919 45.6825L40.6229 46.5169Z" fill="#D1EBFF"/>
<path d="M52.1624 50.8779V52.5208L53.6106 51.6951V50.0435L52.1624 50.8779Z" fill="#72B5E8"/>
<path d="M52.1712 50.8779V52.5208L47.4653 49.6995V48.0566L52.1712 50.8779Z" fill="#72B5E8"/>
<path d="M47.4653 48.0565L52.1712 50.8779L53.6105 50.0435L48.896 47.2222L47.4653 48.0565Z" fill="#D1EBFF"/>
<path d="M47.4653 42.6117V48.1082L46.0256 47.2824V41.786L47.4653 42.6117Z" fill="#72B5E8"/>
<path d="M47.4653 42.6117V48.1082L48.8964 47.2824V41.786L47.4653 42.6117Z" fill="#A8CFF0"/>
<path d="M48.8964 41.786L47.4653 42.6117L46.0256 41.786L47.4653 40.9516L48.8964 41.786Z" fill="#D1EBFF"/>
<path d="M60.488 46.0697V47.7212L61.9277 46.8955V45.244L60.488 46.0697Z" fill="#72B5E8"/>
<path d="M60.4881 46.0697V47.7212L55.7822 44.8999V43.257L60.4881 46.0697Z" fill="#72B5E8"/>
<path d="M55.7822 43.2569L60.4881 46.0696L61.9274 45.2439L57.2129 42.4225L55.7822 43.2569Z" fill="#D1EBFF"/>
<path d="M55.7912 37.812V43.3084L54.3516 42.4741V36.9777L55.7912 37.812Z" fill="#72B5E8"/>
<path d="M55.7822 37.8121V43.3085L57.2133 42.4741V36.9863L55.7822 37.8121Z" fill="#A8CFF0"/>
<path d="M57.2137 36.9863L55.7826 37.812L54.3516 36.9776L55.7826 36.1519L57.2137 36.9863Z" fill="#D1EBFF"/>
<path d="M68.7534 41.2182V42.8698L70.2017 42.0354V40.3839L68.7534 41.2182Z" fill="#72B5E8"/>
<path d="M68.762 41.2182V42.8698L64.0562 40.0398V38.3969L68.762 41.2182Z" fill="#72B5E8"/>
<path d="M64.0562 38.3969L68.762 41.2183L70.2013 40.3839L65.4869 37.5626L64.0562 38.3969Z" fill="#D1EBFF"/>
<path d="M64.0566 32.9522V38.4486L62.6169 37.6229V32.1264L64.0566 32.9522Z" fill="#72B5E8"/>
<path d="M64.0562 32.9522V38.4486L65.4872 37.6229V32.1264L64.0562 32.9522Z" fill="#A8CFF0"/>
<path d="M65.4877 32.1264L64.0566 32.9521L62.6169 32.1264L64.0566 31.292L65.4877 32.1264Z" fill="#D1EBFF"/>
<path d="M77.0791 36.4099V38.0614L78.5188 37.2357V35.5842L77.0791 36.4099Z" fill="#72B5E8"/>
<path d="M77.0791 36.41V38.0615L72.3733 35.2401V33.5972L77.0791 36.41Z" fill="#72B5E8"/>
<path d="M72.3733 33.5972L77.0791 36.4099L78.5185 35.5842L73.804 32.7628L72.3733 33.5972Z" fill="#D1EBFF"/>
<path d="M72.3823 28.1525V33.6489L70.9426 32.8145V27.3181L72.3823 28.1525Z" fill="#72B5E8"/>
<path d="M72.3733 28.1524V33.6488L73.8043 32.8145V27.3266L72.3733 28.1524Z" fill="#A8CFF0"/>
<path d="M73.8047 27.3266L72.3737 28.1524L70.9426 27.318L72.3737 26.4923L73.8047 27.3266Z" fill="#D1EBFF"/>
<path d="M85.3442 31.6877V33.3306L86.7925 32.5049V30.8533L85.3442 31.6877Z" fill="#72B5E8"/>
<path d="M85.3531 31.6878V33.3307L80.6472 30.5094V28.8665L85.3531 31.6878Z" fill="#72B5E8"/>
<path d="M80.6472 28.8664L85.3531 31.6877L86.7924 30.8534L82.0779 28.032L80.6472 28.8664Z" fill="#D1EBFF"/>
<path d="M80.6477 23.4216V28.9181L79.208 28.0923V22.5959L80.6477 23.4216Z" fill="#72B5E8"/>
<path d="M80.6475 23.4216V28.9181L82.0785 28.0923V22.5959L80.6475 23.4216Z" fill="#A8CFF0"/>
<path d="M82.0787 22.5958L80.6477 23.4216L79.208 22.5958L80.6477 21.7615L82.0787 22.5958Z" fill="#D1EBFF"/>
<path d="M93.6702 26.8794V28.5309L95.1098 27.7052V26.0536L93.6702 26.8794Z" fill="#72B5E8"/>
<path d="M93.6702 26.8794V28.5309L88.9644 25.7096V24.0581L93.6702 26.8794Z" fill="#72B5E8"/>
<path d="M88.9644 24.0581L93.6702 26.8794L95.1095 26.0536L90.3951 23.2323L88.9644 24.0581Z" fill="#D1EBFF"/>
<path d="M88.9734 18.6133V24.1183L87.5337 23.284V17.7876L88.9734 18.6133Z" fill="#72B5E8"/>
<path d="M88.9644 18.6132V24.1182L90.3954 23.2839V17.7961L88.9644 18.6132Z" fill="#A8CFF0"/>
<path d="M90.3958 17.7961L88.9647 18.6132L87.5337 17.7875L88.9647 16.9617L90.3958 17.7961Z" fill="#D1EBFF"/>
<path d="M35.5715 60.4082V62.0597L37.0112 61.2254V59.5739L35.5715 60.4082Z" fill="#72B5E8"/>
<path d="M35.5799 60.4083V62.0598L30.874 59.2299V57.587L35.5799 60.4083Z" fill="#72B5E8"/>
<path d="M30.874 57.587L35.5799 60.4083L37.0106 59.5739L32.3047 56.7526L30.874 57.587Z" fill="#D1EBFF"/>
<path d="M8.16386 77.8095V79.461L6.71558 78.6266V76.9837L8.16386 77.8095Z" fill="#72B5E8"/>
<path d="M8.15503 77.8096V79.4611L121.311 14.0546V12.4117L8.15503 77.8096Z" fill="#A8CFF0"/>
<path d="M121.31 12.4117L8.15491 77.8096L6.71558 76.9838L119.88 11.5773L121.31 12.4117Z" fill="#D1EBFF"/>
<path d="M30.8742 52.1425V57.6389L29.4346 56.8131V51.3167L30.8742 52.1425Z" fill="#72B5E8"/>
<path d="M30.8738 52.1424V57.6389L32.3048 56.8131V51.3167L30.8738 52.1424Z" fill="#A8CFF0"/>
<path d="M32.3053 51.3166L30.8742 52.1424L29.4346 51.3166L30.8742 50.4909L32.3053 51.3166Z" fill="#D1EBFF"/>
<path d="M8.62057 63.3158V64.9673L7.18091 64.1416V62.4901L8.62057 63.3158Z" fill="#72B5E8"/>
<path d="M8.62012 63.3158V64.9673L115.243 3.2423V1.5994L8.62012 63.3158Z" fill="#A8CFF0"/>
<path d="M115.243 1.5994L8.62024 63.3158L7.18091 62.4901L113.812 0.765045L115.243 1.5994Z" fill="#D1EBFF"/>
<path d="M6.79321 76.9923V78.6438L8.23288 77.8094V76.1579L6.79321 76.9923Z" fill="#72B5E8"/>
<path d="M6.80178 76.9924V78.6439L2.09595 75.814V74.1711L6.80178 76.9924Z" fill="#72B5E8"/>
<path d="M2.09595 74.1709L6.80179 76.9922L8.2325 76.1578L3.52666 73.3365L2.09595 74.1709Z" fill="#D1EBFF"/>
<path d="M8.63753 63.3416L2.08728 74.1968L0.647949 73.3711L7.1982 62.5158L8.63753 63.3416Z" fill="#72B5E8"/>
<path d="M8.63741 63.3416L2.08716 74.1968L3.51787 73.3711L10.0681 62.5158L8.63741 63.3416Z" fill="#A8CFF0"/>
<path d="M111.485 13.8862L12.5864 71.1474L12.9238 71.7277L111.822 14.4665L111.485 13.8862Z" fill="#2672AB"/>
<path d="M36.9592 55.7292V61.2256L35.5195 60.3998V54.8948L36.9592 55.7292Z" fill="#72B5E8"/>
<path d="M36.959 55.7293V61.2257L38.39 60.4V54.9036L36.959 55.7293Z" fill="#A8CFF0"/>
<path d="M38.3902 54.9034L36.9592 55.7291L35.5195 54.8948L36.9592 54.069L38.3902 54.9034Z" fill="#D1EBFF"/>
<path d="M35.5715 53.3121V54.9636L37.0112 54.1379V52.4864L35.5715 53.3121Z" fill="#72B5E8"/>
<path d="M35.5799 53.3122V54.9637L30.874 52.1423V50.4994L35.5799 53.3122Z" fill="#72B5E8"/>
<path d="M30.874 50.4993L35.5799 53.3121L37.0106 52.4863L32.3047 49.665L30.874 50.4993Z" fill="#D1EBFF"/>
<path d="M45.2849 50.9207V56.4257L43.8452 55.5913V50.0949L45.2849 50.9207Z" fill="#72B5E8"/>
<path d="M45.2759 50.9207V56.4257L46.7069 55.5913V50.0949L45.2759 50.9207Z" fill="#A8CFF0"/>
<path d="M46.7073 50.095L45.2763 50.9208L43.8452 50.095L45.2763 49.2693L46.7073 50.095Z" fill="#D1EBFF"/>
<path d="M43.8967 48.5124V50.1639L45.3364 49.3295V47.6866L43.8967 48.5124Z" fill="#72B5E8"/>
<path d="M43.8968 48.5125V50.164L39.1909 47.3427V45.6911L43.8968 48.5125Z" fill="#72B5E8"/>
<path d="M39.1909 45.6911L43.8968 48.5124L45.3361 47.6866L40.6216 44.8567L39.1909 45.6911Z" fill="#D1EBFF"/>
<path d="M53.5586 46.1986V51.695L52.1104 50.8693V45.3643L53.5586 46.1986Z" fill="#72B5E8"/>
<path d="M53.55 46.1988V51.6952L54.9811 50.8694V45.373L53.55 46.1988Z" fill="#A8CFF0"/>
<path d="M54.9811 45.3728L53.55 46.1986L52.1104 45.3642L53.55 44.5385L54.9811 45.3728Z" fill="#D1EBFF"/>
<path d="M20.3335 65.1824V70.6874L18.8853 69.8531V64.3566L20.3335 65.1824Z" fill="#72B5E8"/>
<path d="M20.3247 65.1824V70.6874L21.7558 69.8531V64.3566L20.3247 65.1824Z" fill="#A8CFF0"/>
<path d="M21.756 64.3566L20.3249 65.1823L18.8853 64.3566L20.3249 63.5308L21.756 64.3566Z" fill="#D1EBFF"/>
<path d="M18.937 62.7737V64.4252L20.3767 63.5908V61.9479L18.937 62.7737Z" fill="#72B5E8"/>
<path d="M18.9456 62.7738V64.4253L14.2397 61.604V59.9525L18.9456 62.7738Z" fill="#72B5E8"/>
<path d="M14.2397 59.9524L18.9456 62.7737L20.3763 61.948L15.6705 59.1181L14.2397 59.9524Z" fill="#D1EBFF"/>
<path d="M28.6506 60.3825V65.8789L27.2109 65.0532V59.5481L28.6506 60.3825Z" fill="#72B5E8"/>
<path d="M28.6501 60.3826V65.879L30.0726 65.0532V59.5568L28.6501 60.3826Z" fill="#A8CFF0"/>
<path d="M30.073 59.5568L28.6506 60.3825L27.2109 59.5482L28.6506 58.7224L30.073 59.5568Z" fill="#D1EBFF"/>
<path d="M27.2627 57.9656V59.6171L28.7024 58.7913V57.1398L27.2627 57.9656Z" fill="#72B5E8"/>
<path d="M27.2627 57.9657V59.6172L22.5569 56.7959V55.153L27.2627 57.9657Z" fill="#72B5E8"/>
<path d="M22.5569 55.1528L27.2627 57.9655L28.702 57.1398L23.9876 54.3184L22.5569 55.1528Z" fill="#D1EBFF"/>
<path d="M52.1624 43.7817V45.4332L53.6106 44.6075V42.9559L52.1624 43.7817Z" fill="#72B5E8"/>
<path d="M52.1712 43.7817V45.4332L47.4653 42.6119V40.969L52.1712 43.7817Z" fill="#72B5E8"/>
<path d="M47.4653 40.9689L52.1712 43.7816L53.6105 42.9559L48.896 40.1346L47.4653 40.9689Z" fill="#D1EBFF"/>
<path d="M61.8762 41.3904V46.8869L60.4365 46.0611V40.5647L61.8762 41.3904Z" fill="#72B5E8"/>
<path d="M61.8757 41.3904V46.8869L63.3068 46.0611V40.5647L61.8757 41.3904Z" fill="#A8CFF0"/>
<path d="M63.3072 40.5646L61.8762 41.3904L60.4365 40.5646L61.8762 39.7388L63.3072 40.5646Z" fill="#D1EBFF"/>
<path d="M60.488 38.9819V40.6248L61.9277 39.7991V38.1476L60.488 38.9819Z" fill="#72B5E8"/>
<path d="M60.4881 38.9818V40.6247L55.7822 37.8034V36.1605L60.4881 38.9818Z" fill="#72B5E8"/>
<path d="M55.7822 36.1605L60.4881 38.9819L61.9274 38.1475L57.2129 35.3262L55.7822 36.1605Z" fill="#D1EBFF"/>
<path d="M70.15 36.5389V42.0353L68.7017 41.2095V35.7045L70.15 36.5389Z" fill="#72B5E8"/>
<path d="M70.1409 36.5389V42.0353L71.5719 41.2095V35.7131L70.1409 36.5389Z" fill="#A8CFF0"/>
<path d="M71.5724 35.7131L70.1413 36.5388L68.7017 35.7045L70.1413 34.8788L71.5724 35.7131Z" fill="#D1EBFF"/>
<path d="M68.7534 34.122V35.7735L70.2017 34.9478V33.2963L68.7534 34.122Z" fill="#72B5E8"/>
<path d="M68.762 34.122V35.7735L64.0562 32.9522V31.3093L68.762 34.122Z" fill="#72B5E8"/>
<path d="M64.0562 31.3093L68.762 34.122L70.2013 33.2963L65.4869 30.4749L64.0562 31.3093Z" fill="#D1EBFF"/>
<path d="M78.467 31.7308V37.2272L77.0273 36.4014V30.905L78.467 31.7308Z" fill="#72B5E8"/>
<path d="M78.4666 31.7308V37.2272L79.8976 36.4014V30.905L78.4666 31.7308Z" fill="#A8CFF0"/>
<path d="M79.8981 30.905L78.467 31.7307L77.0273 30.905L78.467 30.0792L79.8981 30.905Z" fill="#D1EBFF"/>
<path d="M77.0791 29.3223V30.9738L78.5188 30.1394V28.4879L77.0791 29.3223Z" fill="#72B5E8"/>
<path d="M77.0791 29.3223V30.9738L72.3733 28.1439V26.501L77.0791 29.3223Z" fill="#72B5E8"/>
<path d="M72.3733 26.5009L77.0791 29.3223L78.5185 28.4879L73.804 25.6666L72.3733 26.5009Z" fill="#D1EBFF"/>
<path d="M86.741 27.0086V32.505L85.2927 31.6707V26.1743L86.741 27.0086Z" fill="#72B5E8"/>
<path d="M86.7319 27.0086V32.5051L88.163 31.6707V26.1829L86.7319 27.0086Z" fill="#A8CFF0"/>
<path d="M88.1634 26.1828L86.7324 27.0086L85.2927 26.1742L86.7324 25.3484L88.1634 26.1828Z" fill="#D1EBFF"/>
<path d="M85.3442 24.5914V26.2429L86.7925 25.4172V23.7656L85.3442 24.5914Z" fill="#72B5E8"/>
<path d="M85.3531 24.5914V26.2429L80.6472 23.4216V21.7787L85.3531 24.5914Z" fill="#72B5E8"/>
<path d="M80.6472 21.7787L85.3531 24.5914L86.7924 23.7656L82.0779 20.9443L80.6472 21.7787Z" fill="#D1EBFF"/>
<path d="M95.0581 22.2003V27.6967L93.6184 26.8709V21.3745L95.0581 22.2003Z" fill="#72B5E8"/>
<path d="M95.0579 22.2003V27.6967L96.4889 26.871V21.3746L95.0579 22.2003Z" fill="#A8CFF0"/>
<path d="M96.4891 21.3744L95.0581 22.2002L93.6184 21.3744L95.0581 20.5401L96.4891 21.3744Z" fill="#D1EBFF"/>
<path d="M93.6702 19.7916V21.4431L95.1098 20.6088V18.9573L93.6702 19.7916Z" fill="#72B5E8"/>
<path d="M93.6702 19.7917V21.4432L88.9644 18.6133V16.9704L93.6702 19.7917Z" fill="#72B5E8"/>
<path d="M88.9644 16.9703L93.6702 19.7916L95.1095 18.9573L90.3951 16.1359L88.9644 16.9703Z" fill="#D1EBFF"/>
<path d="M103.281 17.323V22.8194L101.841 21.9937V16.4887L103.281 17.323Z" fill="#72B5E8"/>
<path d="M103.272 17.3231V22.8195L104.703 21.9938V16.4973L103.272 17.3231Z" fill="#A8CFF0"/>
<path d="M104.703 16.4972L103.272 17.323L101.841 16.4886L103.272 15.6629L104.703 16.4972Z" fill="#D1EBFF"/>
<path d="M101.892 14.906V16.5575L103.332 15.7317V14.0802L101.892 14.906Z" fill="#72B5E8"/>
<path d="M101.892 14.906V16.5575L97.1865 13.7362V12.0933L101.892 14.906Z" fill="#72B5E8"/>
<path d="M97.1865 12.0933L101.892 14.906L103.332 14.0803L98.6172 11.259L97.1865 12.0933Z" fill="#D1EBFF"/>
<path d="M111.546 12.532V18.0284L110.106 17.2027V11.7063L111.546 12.532Z" fill="#72B5E8"/>
<path d="M111.546 12.532V18.0284L112.977 17.2027V11.7063L111.546 12.532Z" fill="#A8CFF0"/>
<path d="M112.977 11.7062L111.546 12.532L110.106 11.7062L111.546 10.8719L112.977 11.7062Z" fill="#D1EBFF"/>
<path d="M110.158 10.1837V11.8266L111.598 11.0008V9.34933L110.158 10.1837Z" fill="#72B5E8"/>
<path d="M110.167 10.1837V11.8266L105.461 9.00531V7.36241L110.167 10.1837Z" fill="#72B5E8"/>
<path d="M105.461 7.3624L110.167 10.1837L111.597 9.34937L106.891 6.52805L105.461 7.3624Z" fill="#D1EBFF"/>
<path d="M119.872 7.72382V13.2288L118.432 12.3945V6.89807L119.872 7.72382Z" fill="#72B5E8"/>
<path d="M119.863 7.72384V13.2289L121.294 12.3945V6.90669L119.863 7.72384Z" fill="#A8CFF0"/>
<path d="M121.294 6.90658L119.863 7.72372L118.432 6.89797L119.863 6.07222L121.294 6.90658Z" fill="#D1EBFF"/>
<path d="M118.484 5.25516V6.90667L119.923 6.07232V4.42941L118.484 5.25516Z" fill="#72B5E8"/>
<path d="M118.484 5.25514V6.90665L113.778 4.07673V2.43382L118.484 5.25514Z" fill="#72B5E8"/>
<path d="M113.778 2.43381L118.484 5.25513L119.923 4.42938L115.209 1.59946L113.778 2.43381Z" fill="#D1EBFF"/>
<path d="M14.6882 66.9199V68.5714L13.2485 67.7457V66.0941L14.6882 66.9199Z" fill="#72B5E8"/>
<path d="M14.688 66.9198V68.5713L121.311 6.84632V5.20341L14.688 66.9198Z" fill="#A8CFF0"/>
<path d="M121.31 5.20337L14.6879 66.9198L13.2485 66.094L119.88 4.36902L121.31 5.20337Z" fill="#D1EBFF"/>
<path d="M14.6966 66.937L8.12049 77.8611L6.68115 77.0353L13.2573 66.1113L14.6966 66.937Z" fill="#72B5E8"/>
<path d="M14.6881 66.937L8.12061 77.861L9.55132 77.0353L16.1188 66.1113L14.6881 66.937Z" fill="#A8CFF0"/>
<path d="M86.4653 3.72411V116.758L85.0256 115.932V2.89836L86.4653 3.72411Z" fill="#72B5E8"/>
<path d="M86.4651 3.72411V116.758L87.8875 115.932V2.89836L86.4651 3.72411Z" fill="#A8CFF0"/>
<path d="M87.8877 2.89826L86.4653 3.72401L85.0256 2.89826L86.4653 2.0639L87.8877 2.89826Z" fill="#D1EBFF"/>
<path d="M95.1008 45.3815V47.0244L96.5405 46.1986V44.5471L95.1008 45.3815Z" fill="#72B5E8"/>
<path d="M95.1011 45.3815V47.0244L86.4651 42.0441V40.4012L95.1011 45.3815Z" fill="#72B5E8"/>
<path d="M86.4651 40.4011L95.1011 45.3815L96.5404 44.5471L87.8958 39.5668L86.4651 40.4011Z" fill="#D1EBFF"/>
<path d="M95.1008 58.6622V60.3137L96.5405 59.488V57.8365L95.1008 58.6622Z" fill="#72B5E8"/>
<path d="M95.1011 58.6623V60.3138L86.4651 55.3334V53.6905L95.1011 58.6623Z" fill="#72B5E8"/>
<path d="M86.4651 53.6905L95.1011 58.6622L96.5404 57.8364L87.8958 52.8561L86.4651 53.6905Z" fill="#D1EBFF"/>
<path d="M95.1008 71.9001V73.5516L96.5405 72.7173V71.0658L95.1008 71.9001Z" fill="#72B5E8"/>
<path d="M95.1011 71.9002V73.5517L86.4651 68.5714V66.9199L95.1011 71.9002Z" fill="#72B5E8"/>
<path d="M86.4651 66.9198L95.1011 71.9001L96.5404 71.0658L87.8958 66.0941L86.4651 66.9198Z" fill="#D1EBFF"/>
<path d="M95.1008 85.0864V86.7379L96.5405 85.9121V84.2606L95.1008 85.0864Z" fill="#72B5E8"/>
<path d="M95.1011 85.0865V86.738L86.4651 81.7577V80.1148L95.1011 85.0865Z" fill="#72B5E8"/>
<path d="M86.4651 80.1148L95.1011 85.0865L96.5404 84.2607L87.8958 79.2804L86.4651 80.1148Z" fill="#D1EBFF"/>
<path d="M95.1008 98.3759V100.027L96.5405 99.1931V97.5501L95.1008 98.3759Z" fill="#72B5E8"/>
<path d="M95.1011 98.3759V100.027L86.4651 95.0471V93.3956L95.1011 98.3759Z" fill="#72B5E8"/>
<path d="M86.4651 93.3955L95.1011 98.3758L96.5404 97.55L87.8958 92.5611L86.4651 93.3955Z" fill="#D1EBFF"/>
<path d="M95.1008 111.605V113.257L96.5405 112.431V110.779L95.1008 111.605Z" fill="#72B5E8"/>
<path d="M95.1011 111.605V113.257L86.4651 108.276V106.633L95.1011 111.605Z" fill="#72B5E8"/>
<path d="M86.4651 106.633L95.1011 111.605L96.5404 110.779L87.8958 105.799L86.4651 106.633Z" fill="#D1EBFF"/>
<path d="M96.532 9.39226V227.374L95.0923 226.548V8.55791L96.532 9.39226Z" fill="#72B5E8"/>
<path d="M96.5315 9.39227V227.374L97.9625 226.548V8.56651L96.5315 9.39227Z" fill="#A8CFF0"/>
<path d="M97.963 8.56656L96.532 9.39231L95.0923 8.55796L96.532 7.73221L97.963 8.56656Z" fill="#D1EBFF"/>
<path d="M87.9134 223.28V224.922L86.4651 224.097V222.445L87.9134 223.28Z" fill="#72B5E8"/>
<path d="M87.9043 223.279V224.922L96.5403 219.942V218.299L87.9043 223.279Z" fill="#A8CFF0"/>
<path d="M96.5404 218.299L87.9044 223.279L86.4651 222.445L95.1097 217.465L96.5404 218.299Z" fill="#D1EBFF"/>
<path d="M87.9134 221.602V223.253L86.4651 222.419V220.776L87.9134 221.602Z" fill="#72B5E8"/>
<path d="M87.9043 221.602V223.254L96.5403 208.468V206.825L87.9043 221.602Z" fill="#A8CFF0"/>
<path d="M96.5404 206.825L87.9044 221.602L86.4651 220.776L95.1097 205.99L96.5404 206.825Z" fill="#D1EBFF"/>
<path d="M87.9134 210.033V211.685L86.4651 210.85V209.208L87.9134 210.033Z" fill="#72B5E8"/>
<path d="M87.9043 210.033V211.685L96.5403 206.704V205.061L87.9043 210.033Z" fill="#A8CFF0"/>
<path d="M96.5404 205.062L87.9044 210.033L86.4651 209.207L95.1097 204.227L96.5404 205.062Z" fill="#D1EBFF"/>
<path d="M87.9134 208.356V210.007L86.4651 209.181V207.53L87.9134 208.356Z" fill="#72B5E8"/>
<path d="M87.9043 208.356V210.007L96.5403 195.221V193.578L87.9043 208.356Z" fill="#A8CFF0"/>
<path d="M96.5404 193.578L87.9044 208.356L86.4651 207.53L95.1097 192.744L96.5404 193.578Z" fill="#D1EBFF"/>
<path d="M87.9134 196.83V198.473L86.4651 197.647V195.995L87.9134 196.83Z" fill="#72B5E8"/>
<path d="M87.9043 196.83V198.473L96.5403 193.492V191.849L87.9043 196.83Z" fill="#A8CFF0"/>
<path d="M96.5404 191.849L87.9044 196.83L86.4651 195.995L95.1097 191.015L96.5404 191.849Z" fill="#D1EBFF"/>
<path d="M87.9134 195.152V196.795L86.4651 195.969V194.318L87.9134 195.152Z" fill="#72B5E8"/>
<path d="M87.9043 195.153V196.795L96.5403 182.018V180.375L87.9043 195.153Z" fill="#A8CFF0"/>
<path d="M96.5404 180.375L87.9044 195.152L86.4651 194.318L95.1097 179.541L96.5404 180.375Z" fill="#D1EBFF"/>
<path d="M87.9134 183.583V185.235L86.4651 184.4V182.749L87.9134 183.583Z" fill="#72B5E8"/>
<path d="M87.9043 183.583V185.235L96.5403 180.254V178.603L87.9043 183.583Z" fill="#A8CFF0"/>
<path d="M96.5404 178.603L87.9044 183.583L86.4651 182.749L95.1097 177.768L96.5404 178.603Z" fill="#D1EBFF"/>
<path d="M87.9134 181.906V183.557L86.4651 182.723V181.08L87.9134 181.906Z" fill="#72B5E8"/>
<path d="M87.9043 181.906V183.557L96.5403 168.771V167.128L87.9043 181.906Z" fill="#A8CFF0"/>
<path d="M96.5404 167.128L87.9044 181.906L86.4651 181.08L95.1097 166.294L96.5404 167.128Z" fill="#D1EBFF"/>
<path d="M87.9134 170.371V172.023L86.4651 171.188V169.537L87.9134 170.371Z" fill="#72B5E8"/>
<path d="M87.9043 170.371V172.023L96.5403 167.042V165.391L87.9043 170.371Z" fill="#A8CFF0"/>
<path d="M96.5404 165.391L87.9044 170.371L86.4651 169.537L95.1097 164.565L96.5404 165.391Z" fill="#D1EBFF"/>
<path d="M87.9134 168.694V170.345L86.4651 169.52V167.868L87.9134 168.694Z" fill="#72B5E8"/>
<path d="M87.9043 168.694V170.345L96.5403 155.559V153.916L87.9043 168.694Z" fill="#A8CFF0"/>
<path d="M96.5404 153.916L87.9044 168.694L86.4651 167.868L95.1097 153.082L96.5404 153.916Z" fill="#D1EBFF"/>
<path d="M87.9134 157.125V158.776L86.4651 157.95V156.299L87.9134 157.125Z" fill="#72B5E8"/>
<path d="M87.9043 157.125V158.776L96.5403 153.796V152.153L87.9043 157.125Z" fill="#A8CFF0"/>
<path d="M96.5404 152.153L87.9044 157.125L86.4651 156.299L95.1097 151.319L96.5404 152.153Z" fill="#D1EBFF"/>
<path d="M87.9134 155.447V157.099L86.4651 156.273V154.622L87.9134 155.447Z" fill="#72B5E8"/>
<path d="M87.9043 155.448V157.099L96.5403 142.313V140.67L87.9043 155.448Z" fill="#A8CFF0"/>
<path d="M96.5404 140.67L87.9044 155.447L86.4651 154.622L95.1097 139.836L96.5404 140.67Z" fill="#D1EBFF"/>
<path d="M87.9134 143.93V145.581L86.4651 144.747V143.095L87.9134 143.93Z" fill="#72B5E8"/>
<path d="M87.9043 143.93V145.581L96.5403 140.601V138.95L87.9043 143.93Z" fill="#A8CFF0"/>
<path d="M96.5404 138.95L87.9044 143.93L86.4651 143.096L95.1097 138.115L96.5404 138.95Z" fill="#D1EBFF"/>
<path d="M85.0774 223.28V224.922L86.5171 224.097V222.445L85.0774 223.28Z" fill="#72B5E8"/>
<path d="M85.0776 223.279V224.922L76.4417 219.942V218.299L85.0776 223.279Z" fill="#72B5E8"/>
<path d="M76.4417 218.299L85.0776 223.279L86.517 222.445L77.8724 217.465L76.4417 218.299Z" fill="#D1EBFF"/>
<path d="M85.0774 223.279V224.922L86.5171 224.096V222.445L85.0774 223.279Z" fill="#72B5E8"/>
<path d="M85.0776 223.28V224.923L76.4417 208.407V206.765L85.0776 223.28Z" fill="#72B5E8"/>
<path d="M76.4417 206.764L85.0776 223.28L86.517 222.445L77.8724 205.93L76.4417 206.764Z" fill="#D1EBFF"/>
<path d="M85.0776 210.033V211.685L86.5173 210.85V209.208L85.0776 210.033Z" fill="#72B5E8"/>
<path d="M85.0776 210.033V211.685L76.4417 206.704V205.061L85.0776 210.033Z" fill="#72B5E8"/>
<path d="M76.4417 205.062L85.0776 210.033L86.517 209.208L77.8724 204.227L76.4417 205.062Z" fill="#D1EBFF"/>
<path d="M85.0774 210.034V211.685L86.5171 210.851V209.208L85.0774 210.034Z" fill="#72B5E8"/>
<path d="M85.0776 210.033V211.685L76.4417 195.17V193.518L85.0776 210.033Z" fill="#72B5E8"/>
<path d="M76.4417 193.518L85.0776 210.033L86.517 209.207L77.8724 192.692L76.4417 193.518Z" fill="#D1EBFF"/>
<path d="M85.0774 196.83V198.473L86.5171 197.647V195.995L85.0774 196.83Z" fill="#72B5E8"/>
<path d="M85.0776 196.83V198.473L76.4417 193.492V191.849L85.0776 196.83Z" fill="#72B5E8"/>
<path d="M76.4417 191.849L85.0776 196.83L86.517 195.995L77.8724 191.015L76.4417 191.849Z" fill="#D1EBFF"/>
<path d="M85.0771 196.83V198.472L86.5168 197.647V195.995L85.0771 196.83Z" fill="#72B5E8"/>
<path d="M85.0774 196.83V198.472L76.4414 181.957V180.315L85.0774 196.83Z" fill="#72B5E8"/>
<path d="M76.4414 180.314L85.0774 196.829L86.5167 195.995L77.8721 179.48L76.4414 180.314Z" fill="#D1EBFF"/>
<path d="M85.0774 183.583V185.234L86.5171 184.4V182.749L85.0774 183.583Z" fill="#72B5E8"/>
<path d="M85.0776 183.583V185.234L76.4417 180.254V178.603L85.0776 183.583Z" fill="#72B5E8"/>
<path d="M76.4417 178.602L85.0776 183.583L86.517 182.748L77.8724 177.768L76.4417 178.602Z" fill="#D1EBFF"/>
<path d="M85.0774 183.583V185.235L86.5171 184.4V182.749L85.0774 183.583Z" fill="#72B5E8"/>
<path d="M85.0776 183.583V185.235L76.4417 168.72V167.068L85.0776 183.583Z" fill="#72B5E8"/>
<path d="M76.4417 167.068L85.0776 183.583L86.517 182.749L77.8724 166.234L76.4417 167.068Z" fill="#D1EBFF"/>
<path d="M87.9134 142.252V143.904L86.4651 143.07V141.427L87.9134 142.252Z" fill="#72B5E8"/>
<path d="M87.9043 142.252V143.904L96.5403 129.118V127.475L87.9043 142.252Z" fill="#A8CFF0"/>
<path d="M96.5404 127.475L87.9044 142.253L86.4651 141.427L95.1097 126.641L96.5404 127.475Z" fill="#D1EBFF"/>
<path d="M85.0774 170.371V172.022L86.5171 171.188V169.537L85.0774 170.371Z" fill="#72B5E8"/>
<path d="M85.0776 170.371V172.023L76.4417 167.042V165.391L85.0776 170.371Z" fill="#72B5E8"/>
<path d="M76.4417 165.391L85.0776 170.371L86.517 169.537L77.8724 164.565L76.4417 165.391Z" fill="#D1EBFF"/>
<path d="M85.0774 170.371V172.022L86.5171 171.188V169.537L85.0774 170.371Z" fill="#72B5E8"/>
<path d="M85.0776 170.371V172.022L76.4417 155.507V153.856L85.0776 170.371Z" fill="#72B5E8"/>
<path d="M76.4417 153.856L85.0776 170.371L86.517 169.536L77.8724 153.03L76.4417 153.856Z" fill="#D1EBFF"/>
<path d="M85.0774 157.125V158.776L86.5171 157.95V156.299L85.0774 157.125Z" fill="#72B5E8"/>
<path d="M85.0776 157.125V158.776L76.4417 153.796V152.153L85.0776 157.125Z" fill="#72B5E8"/>
<path d="M76.4417 152.153L85.0776 157.125L86.517 156.299L77.8724 151.319L76.4417 152.153Z" fill="#D1EBFF"/>
<path d="M87.9134 130.683V132.335L86.4651 131.5V129.858L87.9134 130.683Z" fill="#72B5E8"/>
<path d="M87.9043 130.683V132.335L96.5403 127.355V125.712L87.9043 130.683Z" fill="#A8CFF0"/>
<path d="M96.5404 125.712L87.9044 130.683L86.4651 129.857L95.1097 124.877L96.5404 125.712Z" fill="#D1EBFF"/>
<path d="M87.9134 129.006V130.657L86.4651 129.831V128.18L87.9134 129.006Z" fill="#72B5E8"/>
<path d="M87.9043 129.006V130.658L96.5403 115.871V114.228L87.9043 129.006Z" fill="#A8CFF0"/>
<path d="M96.5404 114.228L87.9044 129.006L86.4651 128.18L95.1097 113.394L96.5404 114.228Z" fill="#D1EBFF"/>
<path d="M85.0769 157.124V158.776L86.5166 157.95V156.299L85.0769 157.124Z" fill="#72B5E8"/>
<path d="M85.0771 157.124V158.776L76.4412 142.261V140.618L85.0771 157.124Z" fill="#72B5E8"/>
<path d="M76.4412 140.618L85.0772 157.124L86.5165 156.299L77.8719 139.784L76.4412 140.618Z" fill="#D1EBFF"/>
<path d="M87.9134 117.489V119.14L86.4651 118.306V116.663L87.9134 117.489Z" fill="#72B5E8"/>
<path d="M87.9043 117.489V119.14L96.5403 114.16V112.517L87.9043 117.489Z" fill="#A8CFF0"/>
<path d="M96.5404 112.517L87.9044 117.489L86.4651 116.663L95.1097 111.682L96.5404 112.517Z" fill="#D1EBFF"/>
<path d="M87.9134 115.811V117.463L86.4651 116.637V114.985L87.9134 115.811Z" fill="#72B5E8"/>
<path d="M87.9043 115.811V117.463L96.5403 102.677V101.034L87.9043 115.811Z" fill="#A8CFF0"/>
<path d="M96.5404 101.034L87.9044 115.811L86.4651 114.986L95.1097 100.199L96.5404 101.034Z" fill="#D1EBFF"/>
<path d="M85.0771 143.93V145.581L86.5168 144.747V143.096L85.0771 143.93Z" fill="#72B5E8"/>
<path d="M85.0774 143.93V145.581L76.4414 140.601V138.95L85.0774 143.93Z" fill="#72B5E8"/>
<path d="M76.4414 138.95L85.0774 143.93L86.5167 143.096L77.8721 138.115L76.4414 138.95Z" fill="#D1EBFF"/>
<path d="M85.0774 143.93V145.582L86.5171 144.747V143.096L85.0774 143.93Z" fill="#72B5E8"/>
<path d="M85.0776 143.93V145.582L76.4417 129.067V127.415L85.0776 143.93Z" fill="#72B5E8"/>
<path d="M76.4417 127.415L85.0776 143.93L86.517 143.096L77.8724 126.589L76.4417 127.415Z" fill="#D1EBFF"/>
<path d="M85.0776 130.683V132.335L86.5173 131.5V129.858L85.0776 130.683Z" fill="#72B5E8"/>
<path d="M85.0776 130.683V132.335L76.4417 127.355V125.712L85.0776 130.683Z" fill="#72B5E8"/>
<path d="M76.4417 125.712L85.0776 130.683L86.517 129.857L77.8724 124.877L76.4417 125.712Z" fill="#D1EBFF"/>
<path d="M85.0774 130.683V132.335L86.5171 131.501V129.858L85.0774 130.683Z" fill="#72B5E8"/>
<path d="M85.0776 130.683V132.335L76.4417 115.82V114.177L85.0776 130.683Z" fill="#72B5E8"/>
<path d="M76.4417 114.177L85.0776 130.683L86.517 129.858L77.8724 113.342L76.4417 114.177Z" fill="#D1EBFF"/>
<path d="M87.9134 104.251V105.902L86.4651 105.076V103.425L87.9134 104.251Z" fill="#72B5E8"/>
<path d="M87.9043 104.25V105.902L96.5403 100.922V99.2787L87.9043 104.25Z" fill="#A8CFF0"/>
<path d="M96.5404 99.2787L87.9044 104.25L86.4651 103.425L95.1097 98.4444L96.5404 99.2787Z" fill="#D1EBFF"/>
<path d="M85.0774 117.489V119.14L86.5171 118.306V116.663L85.0774 117.489Z" fill="#72B5E8"/>
<path d="M85.0776 117.489V119.14L76.4417 114.16V112.517L85.0776 117.489Z" fill="#72B5E8"/>
<path d="M76.4417 112.517L85.0776 117.489L86.517 116.663L77.8724 111.682L76.4417 112.517Z" fill="#D1EBFF"/>
<path d="M85.0774 117.489V119.14L86.5171 118.306V116.663L85.0774 117.489Z" fill="#72B5E8"/>
<path d="M85.0776 117.488V119.14L76.4417 102.625V100.973L85.0776 117.488Z" fill="#72B5E8"/>
<path d="M76.4417 100.974L85.0776 117.489L86.517 116.663L77.8724 100.148L76.4417 100.974Z" fill="#D1EBFF"/>
<path d="M85.0771 104.251V105.902L86.5168 105.076V103.425L85.0771 104.251Z" fill="#72B5E8"/>
<path d="M85.0774 104.251V105.902L76.4414 100.922V99.2788L85.0774 104.251Z" fill="#72B5E8"/>
<path d="M76.4414 99.2787L85.0774 104.25L86.5167 103.425L77.8721 98.4444L76.4414 99.2787Z" fill="#D1EBFF"/>
<path d="M85.0774 102.668V104.32L86.5171 103.485V101.834L85.0774 102.668Z" fill="#72B5E8"/>
<path d="M85.0776 102.668V104.32L76.4417 87.8046V86.1531L85.0776 102.668Z" fill="#72B5E8"/>
<path d="M76.4417 86.1532L85.0776 102.668L86.517 101.834L77.8724 85.3274L76.4417 86.1532Z" fill="#D1EBFF"/>
<path d="M85.0774 90.9699V92.6129L86.5171 91.7871V90.1356L85.0774 90.9699Z" fill="#72B5E8"/>
<path d="M85.0776 90.97V92.6129L76.4417 87.6412V85.9897L85.0776 90.97Z" fill="#72B5E8"/>
<path d="M76.4417 85.9896L85.0776 90.97L86.517 90.1356L77.8724 85.1639L76.4417 85.9896Z" fill="#D1EBFF"/>
<path d="M87.9134 51.2563V52.9078L86.4651 52.0821V50.4306L87.9134 51.2563Z" fill="#72B5E8"/>
<path d="M87.9043 51.2562V52.9077L96.5403 47.9274V46.2845L87.9043 51.2562Z" fill="#A8CFF0"/>
<path d="M96.5404 46.2846L87.9044 51.2563L86.4651 50.4306L95.1097 45.4502L96.5404 46.2846Z" fill="#D1EBFF"/>
<path d="M85.0774 51.2563V52.9078L86.5171 52.0821V50.4306L85.0774 51.2563Z" fill="#72B5E8"/>
<path d="M85.0776 51.2562V52.9077L76.4417 47.9274V46.2845L85.0776 51.2562Z" fill="#72B5E8"/>
<path d="M76.4417 46.2846L85.0776 51.2563L86.517 50.4306L77.8724 45.4503L76.4417 46.2846Z" fill="#D1EBFF"/>
<path d="M87.9134 38.07V39.7215L86.4651 38.8871V37.2356L87.9134 38.07Z" fill="#72B5E8"/>
<path d="M87.9043 38.07V39.7215L96.5403 34.7412V33.0897L87.9043 38.07Z" fill="#A8CFF0"/>
<path d="M96.5404 33.0898L87.9044 38.0701L86.4651 37.2357L95.1097 32.264L96.5404 33.0898Z" fill="#D1EBFF"/>
<path d="M82.9573 4.12821V5.77111L81.509 4.94536V3.29385L82.9573 4.12821Z" fill="#72B5E8"/>
<path d="M82.9485 4.12835V5.77125L87.9646 2.7865V1.13499L82.9485 4.12835Z" fill="#A8CFF0"/>
<path d="M87.9645 1.13488L82.9484 4.12823L81.509 3.29388L86.5338 0.300522L87.9645 1.13488Z" fill="#D1EBFF"/>
<path d="M82.9742 4.1454L76.4239 15.0006L74.9846 14.1749L81.5349 3.31105L82.9742 4.1454Z" fill="#72B5E8"/>
<path d="M82.9746 4.14541L76.4243 15.0006L77.8464 14.1749L84.3967 3.31966L82.9746 4.14541Z" fill="#A8CFF0"/>
<path d="M95.1008 7.00112V8.65263L96.5405 7.81828V6.17537L95.1008 7.00112Z" fill="#72B5E8"/>
<path d="M95.1011 7.00107V8.65258L86.4651 3.67226V2.02075L95.1011 7.00107Z" fill="#72B5E8"/>
<path d="M86.4651 2.02066L95.1011 7.00098L96.5404 6.17523L87.8958 1.1949L86.4651 2.02066Z" fill="#D1EBFF"/>
<path d="M85.1116 19.981V21.6325L86.5512 20.7981V19.1552L85.1116 19.981Z" fill="#72B5E8"/>
<path d="M85.1117 19.981V21.6326L76.4844 16.6522V15.0093L85.1117 19.981Z" fill="#72B5E8"/>
<path d="M76.4844 15.0093L85.1118 19.981L86.5511 19.1552L77.9151 14.1749L76.4844 15.0093Z" fill="#D1EBFF"/>
<path d="M85.0774 89.3527V90.9957L86.5171 90.1699V88.5184L85.0774 89.3527Z" fill="#72B5E8"/>
<path d="M85.0776 89.3528V90.9957L76.4417 74.4892V72.8377L85.0776 89.3528Z" fill="#72B5E8"/>
<path d="M76.4417 72.8377L85.0776 89.3527L86.517 88.5184L77.8724 72.0033L76.4417 72.8377Z" fill="#D1EBFF"/>
<path d="M85.0774 77.7751V79.4266L86.5171 78.6008V76.9493L85.0774 77.7751Z" fill="#72B5E8"/>
<path d="M85.0776 77.7751V79.4267L76.4417 74.4463V72.8034L85.0776 77.7751Z" fill="#72B5E8"/>
<path d="M76.4417 72.8034L85.0776 77.7751L86.517 76.9493L77.8724 71.969L76.4417 72.8034Z" fill="#D1EBFF"/>
<path d="M85.0774 76.1494V77.8009L86.5171 76.9665V75.315L85.0774 76.1494Z" fill="#72B5E8"/>
<path d="M85.0776 76.1494V77.8009L76.4417 61.2859V59.6344L85.0776 76.1494Z" fill="#72B5E8"/>
<path d="M76.4417 59.6343L85.0776 76.1494L86.517 75.315L77.8724 58.8086L76.4417 59.6343Z" fill="#D1EBFF"/>
<path d="M85.0774 64.5458V66.1973L86.5171 65.3629V63.7114L85.0774 64.5458Z" fill="#72B5E8"/>
<path d="M85.0776 64.5457V66.1972L76.4417 61.2169V59.5654L85.0776 64.5457Z" fill="#72B5E8"/>
<path d="M76.4417 59.5654L85.0776 64.5457L86.517 63.7113L77.8724 58.7396L76.4417 59.5654Z" fill="#D1EBFF"/>
<path d="M85.0774 63.0232V64.6747L86.5171 63.849V62.1975L85.0774 63.0232Z" fill="#72B5E8"/>
<path d="M85.0776 63.0234V64.6749L76.4417 48.1598V46.5169L85.0776 63.0234Z" fill="#72B5E8"/>
<path d="M76.4417 46.5169L85.0776 63.0233L86.517 62.1976L77.8724 45.6825L76.4417 46.5169Z" fill="#D1EBFF"/>
<path d="M87.9134 102.582V104.233L86.4651 103.408V101.756L87.9134 102.582Z" fill="#72B5E8"/>
<path d="M87.9043 102.582V104.234L96.5403 89.4474V87.8045L87.9043 102.582Z" fill="#A8CFF0"/>
<path d="M96.5404 87.8044L87.9044 102.582L86.4651 101.756L95.1097 86.9701L96.5404 87.8044Z" fill="#D1EBFF"/>
<path d="M87.9134 90.9699V92.6128L86.4651 91.7871V90.1356L87.9134 90.9699Z" fill="#72B5E8"/>
<path d="M87.9043 90.97V92.6129L96.5403 87.6412V85.9897L87.9043 90.97Z" fill="#A8CFF0"/>
<path d="M96.5404 85.9896L87.9044 90.97L86.4651 90.1356L95.1097 85.1639L96.5404 85.9896Z" fill="#D1EBFF"/>
<path d="M87.9134 89.3527V90.9956L86.4651 90.1698V88.5183L87.9134 89.3527Z" fill="#72B5E8"/>
<path d="M87.9043 89.3525V90.9954L96.5403 76.2179V74.575L87.9043 89.3525Z" fill="#A8CFF0"/>
<path d="M96.5404 74.5752L87.9044 89.3527L86.4651 88.5184L95.1097 73.7408L96.5404 74.5752Z" fill="#D1EBFF"/>
<path d="M87.9134 77.7751V79.4266L86.4651 78.6008V76.9493L87.9134 77.7751Z" fill="#72B5E8"/>
<path d="M87.9043 77.7752V79.4267L96.5403 74.4464V72.8035L87.9043 77.7752Z" fill="#A8CFF0"/>
<path d="M96.5404 72.8034L87.9044 77.7751L86.4651 76.9493L95.1097 71.969L96.5404 72.8034Z" fill="#D1EBFF"/>
<path d="M87.9134 76.1235V77.7664L86.4651 76.9406V75.2891L87.9134 76.1235Z" fill="#72B5E8"/>
<path d="M87.9043 76.1236V77.7665L96.5403 62.9889V61.3374L87.9043 76.1236Z" fill="#A8CFF0"/>
<path d="M96.5404 61.3374L87.9044 76.1235L86.4651 75.2892L95.1097 60.5116L96.5404 61.3374Z" fill="#D1EBFF"/>
<path d="M87.9134 64.5458V66.1973L86.4651 65.3629V63.7114L87.9134 64.5458Z" fill="#72B5E8"/>
<path d="M87.9043 64.5457V66.1972L96.5403 61.2169V59.5654L87.9043 64.5457Z" fill="#A8CFF0"/>
<path d="M96.5404 59.5653L87.9044 64.5457L86.4651 63.7113L95.1097 58.7396L96.5404 59.5653Z" fill="#D1EBFF"/>
<path d="M87.9134 62.9457V64.5973L86.4651 63.7629V62.1114L87.9134 62.9457Z" fill="#72B5E8"/>
<path d="M87.9043 62.9458V64.5973L96.5403 49.8112V48.1597L87.9043 62.9458Z" fill="#A8CFF0"/>
<path d="M96.5404 48.1596L87.9044 62.9458L86.4651 62.1114L95.1097 47.3339L96.5404 48.1596Z" fill="#D1EBFF"/>
<path d="M86.4653 20.8412V233.18L85.0256 232.346V20.0069L86.4653 20.8412Z" fill="#72B5E8"/>
<path d="M86.4651 20.8412V233.18L87.8875 232.346V20.0155L86.4651 20.8412Z" fill="#A8CFF0"/>
<path d="M87.8877 20.0154L86.4653 20.8411L85.0256 20.0068L86.4653 19.181L87.8877 20.0154Z" fill="#D1EBFF"/>
<path d="M84.9739 55.5569L103.142 45.0888V26.9394L91.1104 33.8723L84.9739 49.9745V55.5569Z" fill="#A8CFF0"/>
<path d="M84.974 49.9746V55.557L73.5886 49.08V43.489L84.974 49.9746Z" fill="#72B5E8"/>
<path d="M79.7338 27.3869L91.1105 33.8725L84.974 49.9746L73.5886 43.489L79.7338 27.3869Z" fill="#72B5E8"/>
<path d="M90.3521 35.8679L84.974 49.9745L73.5886 43.4889L78.9926 29.3135L90.3521 35.8679Z" fill="#001A46"/>
<path d="M73.5886 43.4892L82.9917 31.619L86.8701 33.8554L73.5886 43.4892Z" fill="#03336E"/>
<path d="M91.7568 20.4625L103.142 26.9395L91.1104 33.8724L79.7336 27.3868L91.7568 20.4625Z" fill="#D1EBFF"/>
<path d="M91.119 33.4164L103.142 26.9394L91.1104 33.8723L79.7336 27.3867L91.119 33.4164Z" fill="white"/>
<path d="M98.6432 31.0769V42.1299L84.9739 50.0004V49.9746L90.3606 35.8508L98.6432 31.0769Z" fill="#03336E"/>
<path d="M98.2209 42.0009V31.3177L98.6432 31.0769V42.1299L84.9739 50.0004V49.9746L85.1376 49.5445L98.2209 42.0009Z" fill="#001A46"/>
<path d="M91.5757 9.09127V10.7428L93.0153 9.91702V8.26552L91.5757 9.09127Z" fill="#72B5E8"/>
<path d="M91.5759 9.09124V10.7427L82.9485 5.76243V4.11952L91.5759 9.09124Z" fill="#72B5E8"/>
<path d="M82.9485 4.11956L91.5759 9.09128L93.0152 8.26553L84.3706 3.2852L82.9485 4.11956Z" fill="#D1EBFF"/>
<path d="M92.938 9.90833V11.5512L91.4983 10.7255V9.07397L92.938 9.90833Z" fill="#72B5E8"/>
<path d="M92.9375 9.90841V11.5513L97.945 8.56656V6.91505L92.9375 9.90841Z" fill="#A8CFF0"/>
<path d="M97.9451 6.91497L92.9376 9.90833L91.4983 9.07397L96.5144 6.08061L97.9451 6.91497Z" fill="#D1EBFF"/>
<path d="M92.9463 9.91693L86.3702 20.8409L84.9309 20.0152L91.507 9.09117L92.9463 9.91693Z" fill="#72B5E8"/>
<path d="M92.9381 9.91693L86.3706 20.8409L87.8013 20.0152L94.3688 9.09117L92.9381 9.91693Z" fill="#A8CFF0"/>
<path d="M44.1979 308.346V313.102L27.9861 303.675V298.918L44.1979 308.346Z" fill="#A8CFF0"/>
<path d="M44.1809 308.345V313.102L76.6046 294.394V289.654L44.1809 308.345Z" fill="#D1EBFF"/>
<path d="M76.6045 289.654L44.1807 308.346L27.9861 298.918L60.4443 280.21L76.6045 289.654Z" fill="#F0F8FF"/>
<path d="M44.1982 302.806V307.563L27.9863 298.144V293.379L44.1982 302.806Z" fill="#A8CFF0"/>
<path d="M44.1809 302.806V307.562L76.6046 288.854V284.123L44.1809 302.806Z" fill="#D1EBFF"/>
<path d="M76.6047 284.123L44.181 302.806L27.9863 293.379L60.4445 274.679L76.6047 284.123Z" fill="#F0F8FF"/>
<path d="M92.696 278.343V283.1L76.4841 273.681V268.916L92.696 278.343Z" fill="#A8CFF0"/>
<path d="M92.6699 278.343V283.1L125.094 264.4V259.661L92.6699 278.343Z" fill="#D1EBFF"/>
<path d="M125.094 259.66L92.6701 278.343L76.4841 268.916L108.934 250.216L125.094 259.66Z" fill="#F0F8FF"/>
<path d="M96.7033 309.249V314.006L80.4915 304.587V299.822L96.7033 309.249Z" fill="#A8CFF0"/>
<path d="M96.6863 309.249V314.006L129.11 295.306V290.566L96.6863 309.249Z" fill="#D1EBFF"/>
<path d="M129.11 290.566L96.6861 309.249L80.4915 299.821L112.95 281.122L129.11 290.566Z" fill="#F0F8FF"/>
<path d="M28.8999 306.238V299.426L27.8396 300.079V306.883L28.8999 306.238Z" fill="#D1EBFF"/>
<path d="M27.8396 306.883L28.8997 306.238L33.0022 308.569L31.9335 309.223L27.8396 306.883Z" fill="#F0F8FF"/>
<path d="M25.3403 296.131V308.303L33.6488 313.068V300.897L25.3403 296.131ZM31.089 308.655L27.9001 306.823V300.552L31.089 302.376V308.655Z" fill="#A8CFF0"/>
<path d="M33.6487 300.905V313.068L34.709 312.414V300.252L33.6487 300.905Z" fill="#D1EBFF"/>
<path d="M34.7088 300.251L33.6487 300.905L25.3489 296.14L26.4176 295.477L34.7088 300.251Z" fill="#F0F8FF"/>
<path d="M26.7713 307.305V300.484L25.7109 301.146V307.95L26.7713 307.305Z" fill="#D1EBFF"/>
<path d="M25.7107 307.95L26.7708 307.305L30.8733 309.628L29.8046 310.29L25.7107 307.95Z" fill="#F0F8FF"/>
<path d="M23.2114 297.198V309.369L31.5199 314.135V301.963L23.2114 297.198ZM28.9602 309.705L25.7712 307.881V301.619L28.9602 303.443V309.705Z" fill="#A8CFF0"/>
<path d="M31.5198 301.963V314.134L32.5801 313.481V301.318L31.5198 301.963Z" fill="#D1EBFF"/>
<path d="M32.58 301.318L31.5199 301.963L23.22 297.198L24.2887 296.544L32.58 301.318Z" fill="#F0F8FF"/>
<path d="M24.6856 308.406V301.593L23.6252 302.247V309.06L24.6856 308.406Z" fill="#D1EBFF"/>
<path d="M23.6252 309.06L24.6853 308.406L28.7879 310.737L27.7191 311.391L23.6252 309.06Z" fill="#F0F8FF"/>
<path d="M21.1257 298.308V310.47L29.4342 315.236V303.073L21.1257 298.308ZM26.8744 310.823L23.6855 308.991V302.72L26.8744 304.544V310.823Z" fill="#A8CFF0"/>
<path d="M29.4341 303.073V315.244L30.4944 314.582V302.419L29.4341 303.073Z" fill="#D1EBFF"/>
<path d="M30.4943 302.419L29.4342 303.073L21.1257 298.307L22.2031 297.654L30.4943 302.419Z" fill="#F0F8FF"/>
<path d="M73.4158 297.018V290.48L74.433 291.108V297.637L73.4158 297.018Z" fill="#A8CFF0"/>
<path d="M74.4328 297.637L73.4158 297.017L69.4771 299.254L70.5027 299.882L74.4328 297.637Z" fill="#F0F8FF"/>
<path d="M68.8564 291.9V303.564L76.8202 298.996V287.341L68.8564 291.9ZM74.3638 297.577L71.3128 299.297V293.276L74.3638 291.556V297.577Z" fill="#D1EBFF"/>
<path d="M68.8655 291.9V303.572L67.8396 302.944V291.272L68.8655 291.9Z" fill="#A8CFF0"/>
<path d="M67.8396 291.272L68.8652 291.9L76.829 287.332L75.7947 286.696L67.8396 291.272Z" fill="#F0F8FF"/>
<path d="M103.073 276.571V270.034L104.09 270.662V277.199L103.073 276.571Z" fill="#A8CFF0"/>
<path d="M104.09 277.199L103.073 276.571L99.134 278.808L100.168 279.436L104.09 277.199Z" fill="#F0F8FF"/>
<path d="M98.5134 271.454V283.126L106.486 278.55V266.877L98.5134 271.454ZM104.029 277.131L100.97 278.851V272.83L104.029 271.109V277.131Z" fill="#D1EBFF"/>
<path d="M98.5224 271.454V283.126L97.4966 282.498V270.834L98.5224 271.454Z" fill="#A8CFF0"/>
<path d="M97.4966 270.834L98.5222 271.453L106.486 266.886L105.452 266.258L97.4966 270.834Z" fill="#F0F8FF"/>
</svg>
