<svg xmlns="http://www.w3.org/2000/svg" xmlns:xlink="http://www.w3.org/1999/xlink" viewBox="0 0 495.91 362.2">
  <defs>
    <radialGradient id="a" cx="3859.03" cy="-2515.53" r="63.83" gradientTransform="matrix(0.98, 0.19, -0.07, 0.38, -3067.75, 214.17)" gradientUnits="userSpaceOnUse">
      <stop offset="0" stop-color="#819ec7"/>
      <stop offset="1" stop-color="#fff"/>
    </radialGradient>
    <radialGradient id="b" cx="3857.72" cy="-2514.19" r="44.38" xlink:href="#a"/>
    <radialGradient id="c" cx="4854.48" cy="171.8" r="36.67" gradientTransform="matrix(0.73, -0.89, 0.12, 0.1, -2586.7, 4206.61)" gradientUnits="userSpaceOnUse">
      <stop offset="0" stop-color="#fff"/>
      <stop offset="0.13" stop-color="#ff63ce"/>
      <stop offset="1"/>
    </radialGradient>
  </defs>
  <g style="isolation: isolate">
    <g>
      <g>
        <path d="M566.87,146.64c13.28,7.61,32.32,9.83,49.12,6.72l12.11,6.94,4-2.33,17.07,9.78,15.45-.07,0,8.7,15.08-.07,0,8.7,15.08-.07,0,8.9,23-.11,0-14.47L656.17,144l4-2.33-12.1-6.94c5.25-9.72,1.27-20.7-12-28.31-19.06-10.93-50-10.77-69.12.34S547.8,135.72,566.87,146.64Zm9.5-34.51c6-3.49,15.7-3.54,21.67-.11s6,9,0,12.52-15.7,3.53-21.68.11S570.37,115.62,576.37,112.13Z" transform="translate(-548.8 168.36)" fill="#92b4d1" opacity="0.2"/>
        <path d="M570.07,144.9c13.28,7.61,32.33,9.82,49.12,6.72l12.11,6.94,4-2.33L652.39,166l15.44-.08,0,8.71,15.08-.08,0,8.71L698,183.2v8.9l23-.12,0-14.46-61.57-35.29,4-2.33L651.28,133c5.26-9.72,1.28-20.7-12-28.32-19.07-10.92-50-10.76-69.12.35S551,134,570.07,144.9Zm9.5-34.51c6-3.49,15.7-3.54,21.68-.11s6,9,0,12.51-15.7,3.54-21.68.11S573.58,113.87,579.57,110.39Z" transform="translate(-548.8 168.36)" fill="#72b5e8"/>
        <path d="M570.05,138c13.28,7.61,32.32,9.82,49.12,6.72l12.11,6.94,4-2.34,17.07,9.79,15.45-.08,0,8.71,15.08-.08,0,8.71,15.08-.08,0,8.91,23-.12,0-14.46L659.35,135.3l4-2.33L651.26,126c5.25-9.73,1.28-20.7-12-28.32-19.06-10.92-50-10.77-69.12.35S551,127,570.05,138Zm9.5-34.51c6-3.49,15.7-3.54,21.68-.11s6,9,0,12.51-15.7,3.54-21.68.11S573.55,106.94,579.55,103.46Z" transform="translate(-548.8 168.36)" fill="#d1ebff"/>
        <path d="M702,181.11l0-8.91-15.08.08,0-8.71-15.08.08,0-8.71-18.43.09-18.16-10.4-4,2.33-11.37-6.51-1.45.27A78.44,78.44,0,0,1,604.39,142h0c-12.29,0-23.78-2.63-32.33-7.54-7.88-4.51-12.22-10.3-12.25-16.3s4.37-12,12.36-16.61c8.68-5,20.29-7.85,32.71-7.89s23.79,2.65,32.36,7.56c10.92,6.25,14.83,14.81,10.46,22.88l-1.87,3.47,9.46,5.42-4,2.33,65.61,37.6V181ZM577.52,100c-4.16,2.42-6.53,6-6.52,9.82s2.39,7.34,6.51,9.7a28,28,0,0,0,25.72-.12c4.15-2.42,6.52-6,6.51-9.82s-2.38-7.34-6.51-9.7a25.87,25.87,0,0,0-12.8-3.07A26.21,26.21,0,0,0,577.52,100Z" transform="translate(-548.8 168.36)" fill="#a8cff0" opacity="0.5"/>
        <g>
          <polygon points="102.48 305.66 104.19 304.67 168.09 341.29 168.08 343.25 102.48 305.66" fill="#72b5e8" opacity="0.5"/>
          <path d="M603.23,121.33a26.18,26.18,0,0,1-12.91,3.19,25.88,25.88,0,0,1-12.8-3.08c-4.13-2.36-6.5-5.89-6.51-9.69,0-.33,0-.66.07-1,.39,3.42,2.67,6.56,6.43,8.72a28,28,0,0,0,25.72-.12c3.79-2.21,6.08-5.39,6.44-8.84,0,.33.08.66.08,1C609.76,115.33,607.39,118.91,603.23,121.33Z" transform="translate(-548.8 168.36)" fill="#72b5e8" opacity="0.5"/>
          <path d="M637.25,103.19c-8.57-4.91-20.07-7.6-32.37-7.56a79.28,79.28,0,0,0-13.53,1.19c-.31,0-.61,0-.92,0A26.21,26.21,0,0,0,577.52,100a15.64,15.64,0,0,0-3.15,2.4c-.74.38-1.5.75-2.2,1.16-7.55,4.39-11.83,9.91-12.26,15.63,0-.33-.09-.66-.1-1,0-6.06,4.37-12,12.36-16.61,8.68-5,20.29-7.85,32.71-7.89s23.79,2.65,32.36,7.56c8.36,4.79,12.6,10.93,12.17,17.17C648.91,112.84,644.73,107.47,637.25,103.19Z" transform="translate(-548.8 168.36)" fill="#72b5e8" opacity="0.5"/>
          <polygon points="97.04 297.9 97.85 296.4 106.49 301.35 104.79 302.34 97.04 297.9" fill="#72b5e8" opacity="0.5"/>
          <polygon points="153.19 342.54 153.18 349.47 153.16 349.47 153.18 342.54 153.19 342.54" fill="#72b5e8" opacity="0.5"/>
          <polygon points="123.07 325.27 123.05 332.01 123.04 332.01 123.06 325.27 123.07 325.27" fill="#72b5e8" opacity="0.5"/>
          <polygon points="138.13 333.9 138.11 340.64 138.1 340.64 138.12 333.9 138.13 333.9" fill="#72b5e8" opacity="0.5"/>
        </g>
        <g>
          <polygon points="128.34 284.22 128.37 292.94 125.49 287.07 128.34 284.22" fill="#72b5e8"/>
          <path d="M589,142.78a80.51,80.51,0,0,0,50.59-.83l14.82,4.88,2.85-2.84,20.91,6.89,14.93-2.37L697,156.9l14.58-2.32,3.86,8.4L730,160.66l3.95,8.58,22.22-3.53-6.42-13.94-75.4-24.85,2.84-2.84-14.82-4.89c.75-10.15-8-20.14-24.27-25.5-23.34-7.69-53.25-2.94-66.8,10.62S565.64,135.08,589,142.78Zm-6.2-34.68c4.25-4.25,13.63-5.74,21-3.32s9.8,7.81,5.55,12.06-13.63,5.74-20.95,3.33S578.54,112.36,582.79,108.1Z" transform="translate(-548.8 168.36)" fill="#92b4d1" opacity="0.2" style="mix-blend-mode: multiply"/>
          <path d="M589,141.49a80.51,80.51,0,0,0,50.59-.83l14.83,4.89,2.84-2.85,20.91,6.9,14.93-2.38,3.87,8.4,14.57-2.32,3.87,8.39L730,159.38l3.95,8.58,22.22-3.53-6.43-14-75.4-24.84,2.85-2.85-14.83-4.88c.76-10.15-8-20.14-24.26-25.5-23.34-7.69-53.25-2.94-66.81,10.61S565.64,133.8,589,141.49Zm-6.19-34.67c4.25-4.25,13.63-5.74,21-3.33s9.81,7.82,5.56,12.07-13.63,5.74-20.95,3.33S578.54,111.07,582.79,106.82Z" transform="translate(-548.8 168.36)" fill="#72b5e8"/>
          <path d="M589,134.56a80.51,80.51,0,0,0,50.59-.83l14.83,4.89,2.84-2.85,20.91,6.89,14.93-2.37,3.87,8.4,14.57-2.32,3.87,8.39,14.57-2.31,4,8.58,22.22-3.53-6.43-13.95-75.4-24.84,2.85-2.85L662.31,111c.76-10.15-8-20.14-24.26-25.5-23.34-7.7-53.25-2.94-66.81,10.61S565.62,126.87,589,134.56Zm-6.19-34.67c4.25-4.25,13.63-5.74,21-3.33s9.81,7.82,5.56,12.07-13.64,5.74-21,3.33S578.51,104.14,582.77,99.89Z" transform="translate(-548.8 168.36)" fill="#d1ebff"/>
          <path d="M748.62,153.49,746,147.73,664.76,121l2.85-2.84-10.72-3.53.3-4c.59-7.95-7.55-15.9-20.75-20.25a75.62,75.62,0,0,0-47,.65,30.85,30.85,0,0,1,6.61-.73,29.45,29.45,0,0,1,9.24,1.42c5.84,1.92,9.81,5.6,10.87,10.1a11.06,11.06,0,0,1-3.29,10.47c-3.73,3.72-10.07,6-16.95,6a29.4,29.4,0,0,1-9.24-1.41c-5.85-1.92-9.81-5.61-10.88-10.1a11,11,0,0,1,3.3-10.47c.06-.06.12-.13.19-.19a30.31,30.31,0,0,0-4.46,3.65c-2.93,2.93-6.14,7.59-4.8,13.21,1.62,6.79,9.28,13.06,20.49,16.76a72.38,72.38,0,0,0,22.62,3.41h0a72.37,72.37,0,0,0,24.59-4.19l1.69-.61L653,132.75l2.85-2.84,22.72,7.49,17.55-2.79L700,143l14.58-2.32,3.86,8.39L733,146.77l3.95,8.58Z" transform="translate(-548.8 168.36)" fill="#a8cff0" opacity="0.5"/>
          <g opacity="0.5">
            <path d="M576.37,100.4c-.52.44-1,.88-1.5,1.34-2.26,2.27-4.67,5.59-5,9.57-.45-4.89,2.39-9,5-11.59a30.31,30.31,0,0,1,4.46-3.65c-.07.06-.13.13-.19.19A12.5,12.5,0,0,0,576.37,100.4Z" transform="translate(-548.8 168.36)" fill="#72b5e8"/>
            <path d="M612.91,112.26a11.63,11.63,0,0,0,3.51-7.19,11.24,11.24,0,0,1-3.51,9.21c-3.73,3.72-10.06,6-16.95,6a29.45,29.45,0,0,1-9.24-1.42c-5.84-1.92-9.81-5.61-10.88-10.1a10.09,10.09,0,0,1-.21-3.28,9.2,9.2,0,0,0,.21,1.26c1.07,4.49,5,8.18,10.88,10.1a29.12,29.12,0,0,0,9.24,1.41C602.84,118.22,609.18,116,612.91,112.26Z" transform="translate(-548.8 168.36)" fill="#72b5e8"/>
            <path d="M657.17,110.85c-.63-7.34-8.5-14.45-20.72-18.48A72.59,72.59,0,0,0,613.79,89,77.15,77.15,0,0,0,599,90.42c-1-.09-1.92-.15-2.89-.15a30.85,30.85,0,0,0-6.61.73,75.62,75.62,0,0,1,47-.65c13.2,4.35,21.34,12.3,20.75,20.25Z" transform="translate(-548.8 168.36)" fill="#72b5e8"/>
            <polygon points="108.1 284.98 108.25 283.01 118.81 286.49 117.29 288.01 108.1 284.98" fill="#72b5e8"/>
            <polygon points="197.17 318.11 115.97 291.35 117.49 289.83 197.16 316.09 199.82 321.86 198.96 321.99 197.17 318.11" fill="#72b5e8"/>
          </g>
          <polygon points="207.32 325.86 207.34 332.79 185.12 336.32 185.1 329.39 207.32 325.86" fill="#a8cff0" opacity="0.5"/>
          <polygon points="181.15 320.81 181.17 327.74 166.59 330.06 166.57 323.13 181.15 320.81" fill="#a8cff0" opacity="0.5"/>
          <polygon points="162.71 314.73 162.73 321.66 148.15 323.98 148.13 317.05 162.71 314.73" fill="#a8cff0" opacity="0.5"/>
          <polygon points="144.26 308.65 144.28 315.58 129.35 317.96 129.33 311.03 144.26 308.65" fill="#a8cff0" opacity="0.5"/>
          <polygon points="108.42 304.14 108.45 311.07 105.6 313.91 105.58 306.98 108.42 304.14" fill="#a8cff0" opacity="0.5"/>
        </g>
        <g>
          <path d="M594.48,113.17,592,112.8c1.68-2.23,2.6-5.51,2.59-9.67,0-13.42-9.62-29.81-21.35-36.53a17.83,17.83,0,0,0-8.65-2.68c-5.87,0-9.36,4.87-9.34,13s3.63,17.53,9.1,25.07l-.87.57c-1.47,1.44-2.11,2.48-3.63,3.93l.14.39c-6.72-8.8-11.12-19.92-11.15-29.94,0-11.76,6.13-19.38,15.73-19.41A23.87,23.87,0,0,1,576.39,61c13.73,7.87,24.53,26.35,24.58,42.08A24.32,24.32,0,0,1,599.1,113Z" transform="translate(-548.8 168.36)" fill="#2672ab"/>
          <path d="M596.5,101.71C596.41,87.58,586.65,71,574.29,64c-6.65-3.78-13.08-4.24-18.11-1.29-.38.22-.72.49-1.07.74a13.84,13.84,0,0,1,3.5-3c5-3,11.46-2.49,18.11,1.3,12.36,7,22.11,23.6,22.21,37.74C599,105.74,596.54,107.19,596.5,101.71Z" transform="translate(-548.8 168.36)" fill="#3f92d1"/>
          <path d="M551.17,79.68c0-4.49,1.33-7.86,3.72-9.26a2.76,2.76,0,0,1,.39-.18,13.32,13.32,0,0,0-1.73,7.27c.07,10,4.6,17.31,8.36,23.1a2,2,0,0,1-.7,2.82h0a1.08,1.08,0,0,1-1.42-.32C557,99.05,551.24,89.83,551.17,79.68Z" transform="translate(-548.8 168.36)" fill="#3f92d1"/>
        </g>
        <polygon points="82.48 319.99 82.5 326.92 86.52 324.59 86.49 317.66 82.48 319.99" fill="#a8cff0" opacity="0.5"/>
        <polygon points="119.01 327.37 119.03 334.3 103.59 334.37 103.57 327.44 119.01 327.37" fill="#a8cff0" opacity="0.5"/>
        <polygon points="118.99 336.07 119.02 343 134.1 342.93 134.07 336 118.99 336.07" fill="#a8cff0" opacity="0.5"/>
        <polygon points="134.06 344.7 134.08 351.63 149.16 351.56 149.13 344.63 134.06 344.7" fill="#a8cff0" opacity="0.5"/>
        <polygon points="149.12 353.53 149.14 360.46 172.12 360.39 172.1 353.42 149.12 353.53" fill="#a8cff0" opacity="0.5"/>
      </g>
      <g>
        <path d="M808.47,124,950.59,41.13c9.17-5.3,8-14.55-2.57-20.66L733.6-103.29c-10.6-6.12-26.62-6.78-35.8-1.48L555.69-21.89c-9.18,5.29-8,14.55,2.57,20.66L772.68,122.53C783.27,128.64,799.3,129.31,808.47,124Z" transform="translate(-548.8 168.36)" fill="#92b4d1" opacity="0.2"/>
        <path d="M585.83-38.92l15.32,5.72,93.07-57L678.9-95.9c-4.49-1.66-10.56-2.15-16.71-1.35a36.94,36.94,0,0,0-14.25,4.65L630.48-81.91l-4.21-1.55c-8.36-3.08-21.56-1.63-29.3,3.26S590.38-69.09,598.63-66l3.71,1.37L584.87-54c-3.73,2.29-5.85,5-5.94,7.72C578.83-43.24,581.34-40.57,585.83-38.92Zm19.35-32.2c-3.79-1.4-4-4.29-.42-6.47s9.51-2.81,13.29-1.41,4,4.29.41,6.46A17.3,17.3,0,0,1,605.18-71.12Z" transform="translate(-548.8 168.36)" fill="#a8cff0"/>
        <path d="M807.48,121.1,949.66,38.16c9.13-5.27,8-14.47-2.55-20.55L733.21-105.85c-10.54-6.08-26.48-6.74-35.6-1.47L555.42-24.38c-9.12,5.27-8,14.47,2.56,20.55l213.9,123.45C782.41,125.71,798.35,126.37,807.48,121.1Z" transform="translate(-548.8 168.36)" fill="#084c94"/>
        <path d="M807.48,118.18,949.66,35.24c9.13-5.27,8-14.47-2.55-20.56L733.21-108.77c-10.54-6.08-26.48-6.74-35.6-1.48L555.42-27.31c-9.12,5.27-8,14.47,2.56,20.56L771.88,116.7C782.41,122.78,798.35,123.44,807.48,118.18Z" transform="translate(-548.8 168.36)" fill="#2672ab"/>
        <path d="M558-8.35l213.9,123.46c10.53,6.08,26.47,6.74,35.6,1.47L949.66,33.64c3.83-2.21,5.83-5.11,6.11-8.19.37,3.66-1.62,7.2-6.11,9.79L807.48,118.18c-9.13,5.26-25.07,4.6-35.6-1.48L558-6.75c-6.12-3.54-9.05-8.12-8.66-12.37C549.7-15.34,552.62-11.44,558-8.35Z" transform="translate(-548.8 168.36)" fill="#3f92d1"/>
        <polygon points="244.38 274.36 390.71 175.4 161.3 63.86 14.97 162.83 244.38 274.36" fill="#d1ebff" style="mix-blend-mode: multiply"/>
        <polygon points="241.62 271.33 387.95 172.36 158.54 60.82 12.21 159.79 241.62 271.33" fill="#f0f8ff"/>
        <polygon points="243.24 277.64 397.79 188.41 174.63 59.57 20.08 148.8 243.24 277.64" fill="#d1ebff" style="mix-blend-mode: multiply"/>
        <polygon points="240.8 274.05 393.78 185.72 172.87 58.18 19.89 146.5 240.8 274.05" fill="#fff"/>
        <g>
          <path d="M585.89-38.87l14.29,6.73,93-53.69-14.29-6.73A30.87,30.87,0,0,0,663-96.09a30.28,30.28,0,0,0-14,3.58L631.55-82.43l-3.93-2.27c-7.8-4.51-20.54-4.43-28.28.2s-7.06,11.86.63,16.3l3.47,2L586-56.13c-3.74,2.16-6,5-6.21,8.07C579.48-44.63,581.7-41.29,585.89-38.87Zm20.7-34.32c-3.53-2-3.52-5.35,0-7.4a14.16,14.16,0,0,1,12.82,0c3.53,2,3.51,5.35,0,7.4A14.16,14.16,0,0,1,606.59-73.19Z" transform="translate(-548.8 168.36)" fill="#d1ebff" style="mix-blend-mode: multiply"/>
          <path d="M586.92-41.94l14.29,8.33,93-53.69-14.29-8.33c-4.19-2.43-10-3.71-15.92-3.53a30.23,30.23,0,0,0-14,3.58L632.57-85.5l-3.92-2.27c-7.81-4.51-20.55-4.43-28.29.2s-7.06,11.86.64,16.3l3.46,2L587-59.2c-3.73,2.16-6,5-6.21,8.07C580.5-47.7,582.72-44.36,586.92-41.94Zm20.69-34.32c-3.53-2-3.51-5.35,0-7.4a14.16,14.16,0,0,1,12.82,0c3.53,2,3.52,5.35,0,7.4A14.16,14.16,0,0,1,607.61-76.26Z" transform="translate(-548.8 168.36)" fill="#a8cff0"/>
          <g>
            <path d="M607.65-85.09a14.13,14.13,0,0,1,12.82,0c2.08,1.2,2.92,2.84,2.55,4.4a4.9,4.9,0,0,0-2.55-3,14.16,14.16,0,0,0-12.82,0,5,5,0,0,0-2.58,3C604.7-82.23,605.55-83.88,607.65-85.09Z" transform="translate(-548.8 168.36)" fill="#d1ebff"/>
            <path d="M601-72.71l3.47,2-1.24.71L601-71.27c-4.33-2.51-6.39-5.92-6-9.24C595.25-77.66,597.28-74.85,601-72.71Z" transform="translate(-548.8 168.36)" fill="#d1ebff"/>
            <path d="M586.92-43.38,601.21-35,693-88l1.23.72-93,53.69-14.29-8.33c-4.2-2.42-6.42-5.76-6.12-9.19,0,0,0-.07,0-.1C581.12-48.28,583.27-45.48,586.92-43.38Z" transform="translate(-548.8 168.36)" fill="#72b5e8"/>
          </g>
          <polygon points="48.92 124.36 130.45 77.29 126.95 75.3 45.42 122.37 48.92 124.36" fill="#d1ebff"/>
          <polygon points="49.74 125.38 131.26 78.31 127.77 76.33 46.24 123.39 49.74 125.38" fill="#72b5e8"/>
        </g>
        <g>
          <path d="M659.85-50.09l3.76,2.18,7.58-4.38-3.76-2.17Zm35.39-11.12L652.76-36.68l3.77,2.17L699-59ZM629.93-28.47,660.37-46l-3.77-2.17L626.16-30.64Zm94.94-49.84L698.49-63.08l3.77,2.17,26.38-15.23Zm-20.51,2.52L670.67-56.34l3.77,2.18,33.68-19.45ZM731.88-78l7.9-4.55L736-84.75l-7.89,4.56Zm-109,49.26L609.43-21l3.77,2.17,13.48-7.78Zm26.6-6.05-32,18.49,3.76,2.17,32-18.48Z" transform="translate(-548.8 168.36)" fill="#084c94"/>
          <path d="M679.64-32.95l2.83,1.63,5.7-3.28-2.83-1.64Zm32.5-11.73-37.82,21.8,2.83,1.64L715-43Zm-24.23,21,2.82,1.63,16.06-9.23L704-33Zm30.67-10.69L689.81-17.83l2.83,1.63,28.77-16.57ZM650.09-12.66,680-29.91l-2.83-1.63L647.26-14.29Zm15.33,5.19,22.87-13.21-2.82-1.63L662.59-9.1Zm75.82-54.07L714.58-46.08l2.83,1.63,26.66-15.46Zm11.38,14.43L713.85-24.67,716.68-23l38.76-22.45ZM711.41-23.26,682.64-6.68,685.47-5l28.77-16.57Zm25-18.22-2.83-1.64L721-35.81l2.83,1.63ZM719-55.63l-31.21,18L690.61-36l31.21-18Zm-9.76,22.9L735.39-47.9l-2.83-1.63L706.4-34.37Zm28.6-16.58,28.42-16.48-2.83-1.63L735-50.94Zm8.68-12,13.67-8-2.82-1.63-13.68,8ZM644.82-12.89,634.68-7l2.83,1.63,10.14-5.85Zm133.55-45.9-2.83-1.63-20.48,11.9,2.82,1.63Zm-9.32-4.9L736-44.52l2.83,1.63L771.88-62ZM680.2-5.27,658.93,7l2.83,1.63L683-3.64Zm-8.32-16.2L640.75-3.53l2.83,1.63,31.13-17.93ZM660.15-7.7,646.81,0l2.83,1.63L663-6.06Zm25.38-7.65L652.87,3.47,655.7,5.1l32.66-18.81Z" transform="translate(-548.8 168.36)" fill="#72b5e8"/>
          <path d="M714.49-12.92l2.83,1.64,5.7-3.29-2.83-1.63ZM747-24.64,709.17-2.84,712-1.21,749.81-23Zm-24.24,21L725.58-2l16.06-9.24-2.83-1.63Zm30.68-10.68L724.66,2.2l2.83,1.64,28.77-16.58ZM684.94,7.37,714.88-9.87l-2.83-1.64L682.11,5.74Zm15.33,5.19L723.14-.64l-2.83-1.64L697.44,10.93Zm75.82-54.07L749.43-26l2.82,1.63,26.67-15.46Zm-4.86,20.06-2.83-1.63-12.53,7.3,2.83,1.63ZM753.84-35.6l-31.21,18L725.46-16l31.2-18Zm-9.76,22.9,26.16-15.17-2.83-1.63L741.25-14.33Zm28.6-16.57L801.1-45.76l-2.83-1.63L769.85-30.91Zm8.68-12,13.67-8-2.83-1.63-13.67,8ZM679.67,7.15,669.53,13l2.83,1.63L682.5,8.78ZM803.9-43.65,770.84-24.49l2.83,1.63L806.73-42ZM706.73-1.43,675.6,16.5l2.82,1.63L709.56.2ZM695,12.34,681.66,20l2.83,1.63L697.83,14Zm25.38-7.65L687.72,23.5l2.83,1.63L723.21,6.32Z" transform="translate(-548.8 168.36)" fill="#72b5e8"/>
          <path d="M745,4.09l2.82,1.63,5.7-3.29L750.66.8ZM777.46-7.64l-37.82,21.8,2.83,1.63L780.29-6Zm-24.23,21L756.05,15l16.06-9.24-2.82-1.63ZM783.9,2.63,755.13,19.21,758,20.84,786.73,4.26ZM715.41,24.38,745.35,7.13,742.53,5.5,712.58,22.74Zm15.33,5.19,22.87-13.21-2.82-1.63-22.88,13.2Zm75.82-54.08L779.9-9l2.83,1.64,26.66-15.46Zm11.38,14.44L779.17,12.37,782,14,820.76-8.44ZM776.73,13.78,748,30.35,750.79,32l28.77-16.58Zm25-18.22-2.83-1.64-12.53,7.3,2.83,1.64ZM784.31-18.59,753.1-.61,755.93,1l31.21-18ZM774.55,4.3l26.16-15.16-2.83-1.64L771.73,2.67Zm28.6-16.57,28.42-16.48-2.83-1.64L800.32-13.9Zm8.68-12,13.68-8-2.83-1.64-13.68,8ZM710.14,24.15,700,30l2.83,1.64L713,25.79Zm133.55-45.9-2.83-1.64L820.38-11.48l2.83,1.63Zm-9.32-4.9L801.31-7.49l2.83,1.64L837.2-25ZM745.52,31.76,724.25,44l2.83,1.64L748.35,33.4ZM737.2,15.57,706.07,33.5l2.83,1.64L740,17.2ZM725.47,29.34,712.13,37,715,38.64,728.3,31Zm25.38-7.65L718.19,40.5,721,42.14l32.66-18.82Zm20.68,2.11,2.83,1.63,16.06-9.24-2.83-1.63Zm30.68-10.69L773.44,29.69l2.83,1.63L805,14.74ZM749.05,40.05l22.87-13.21-2.83-1.63-22.87,13.2ZM820,6,817.18,4.4l-12.53,7.3,2.83,1.64Zm-27.15,8.74L819-.38,816.19-2,790,13.15Zm28.6-16.57,28.42-16.48-2.83-1.64L818.63-3.42Zm31.22-14.38L819.62,3l2.83,1.64,33.06-19.17Zm-108.9,56-13.34,7.66,2.83,1.64,13.34-7.66Zm25.38-7.65L736.5,51l2.83,1.64L772,33.8Z" transform="translate(-548.8 168.36)" fill="#72b5e8"/>
          <path d="M858.51,9l2.83,1.63,10.17-5.87-2.83-1.63ZM881.45,2.7,858.57,15.91l2.83,1.64L884.28,4.34ZM836,25.2,858.9,12l-2.83-1.63-22.88,13.2Zm27.42,5.23L887.5,16.54l-2.83-1.63L860.61,28.8ZM830.75,25l-6.27,3.62,2.83,1.64,6.27-3.62Zm25.38-7.65L830.55,32.09l2.83,1.64L859,19Z" transform="translate(-548.8 168.36)" fill="#72b5e8"/>
          <path d="M770.41,51.07l49.77,8.77h.1a.58.58,0,0,0,.1-1.15l-44.92-7.91c6.37-3.67,15.62-5,24.23-3.5,8.26,1.46,14.5,5.35,16.29,10.16l1.08-.4c-1.93-5.2-8.51-9.37-17.17-10.89-9-1.58-18.64-.14-25.24,3.77l.47.8-4.51-.79a.57.57,0,1,0-.2,1.13Zm-6.89,10.15a.58.58,0,0,0,.47.67l4.65.82-.91.27c1.66,5.47,8.31,9.85,17.36,11.45a42,42,0,0,0,7.25.62c6.53,0,12.92-1.48,17.72-4.24l-.5-.88,4.2.72h.1a.57.57,0,0,0,.1-1.14L787.33,65a.58.58,0,1,0-.2,1.14l22.21,3.8c-6.36,3.59-15.56,4.9-24.05,3.4s-14.83-5.54-16.42-10.54l13,2.29h.1a.58.58,0,0,0,.1-1.15l-17.86-3.15A.57.57,0,0,0,763.52,61.22Zm-3.81,4.62c3.16,6.51,11.65,11.56,22.73,13.51a56.46,56.46,0,0,0,9.85.85c15,0,28.17-5.63,32.68-14a12.14,12.14,0,0,0,.3-11.45c-3.16-6.51-11.65-11.56-22.73-13.51a56.46,56.46,0,0,0-9.85-.85c-15,0-28.17,5.63-32.68,14A12.14,12.14,0,0,0,759.71,65.84ZM761,54.93c4.24-7.89,17.26-13.4,31.66-13.4a56.12,56.12,0,0,1,9.65.83c10.72,1.89,18.9,6.7,21.89,12.88A11,11,0,0,1,824,65.65c-4.24,7.89-17.26,13.4-31.66,13.4a56.12,56.12,0,0,1-9.65-.83c-10.72-1.89-18.9-6.7-21.89-12.88A11,11,0,0,1,761,54.93Zm1.89.06a10.89,10.89,0,0,0-.27,10.29c2.86,5.9,10.58,10.48,20.66,12.25a51.66,51.66,0,0,0,9,.78c13.7,0,25.66-5.11,29.75-12.72a10.89,10.89,0,0,0,.27-10.29c-2.86-5.9-10.58-10.48-20.66-12.25a51.66,51.66,0,0,0-9-.78C779,42.27,767,47.38,762.92,55Zm.51.27c3.93-7.31,16-12.41,29.24-12.41a51.49,51.49,0,0,1,8.9.76c9.9,1.75,17.47,6.21,20.24,11.94a10.35,10.35,0,0,1-.26,9.77c-3.93,7.31-16,12.42-29.24,12.42a51.49,51.49,0,0,1-8.9-.77c-9.9-1.75-17.47-6.21-20.25-11.94A10.38,10.38,0,0,1,763.43,55.26Zm21.17,3,2.54,2.7-2.42,2.75a.43.43,0,0,0,.37.71l5.66-.62,4,2.33a.54.54,0,0,0,.22,0,.47.47,0,0,0,.17,0,.44.44,0,0,0,.25-.3l.72-3.14,5-1.49a.44.44,0,0,0,.31-.42.45.45,0,0,0-.32-.41L796.08,59l-.85-3.12a.44.44,0,0,0-.54-.3.43.43,0,0,0-.3.53l.92,3.36a.43.43,0,0,0,.31.3l3.86,1.05L795.67,62a.43.43,0,0,0-.3.31l-.64,2.82L791.06,63a.47.47,0,0,0-.26,0l-4.7.51,1.95-2.21a.44.44,0,0,0,0-.58l-2-2.16,4.7.42a.44.44,0,0,0,.47-.4.43.43,0,0,0-.39-.46L785,57.52a.45.45,0,0,0-.43.24A.42.42,0,0,0,784.6,58.25Zm-12.29-2.67-3.77,1.12a.42.42,0,0,0-.31.42.43.43,0,0,0,.31.41l3.83,1L773,60.9a.42.42,0,0,0,.26.29l.15,0a.46.46,0,0,0,.23-.06l3.1-1.9a.43.43,0,0,0,.15-.59.44.44,0,0,0-.6-.15l-2.61,1.6-.55-2a.45.45,0,0,0-.3-.31l-2.6-.7,2.56-.77a.4.4,0,0,0,.29-.31l.47-2,2.67,1.53a.42.42,0,0,0,.27.06l3.32-.37-1.31,1.49a.42.42,0,0,0,0,.58l2.14,2.28a.44.44,0,0,0,.61,0,.42.42,0,0,0,0-.61l-1.87-2,1.78-2a.44.44,0,0,0,.06-.49.42.42,0,0,0-.43-.23l-4.29.47L773.48,53a.45.45,0,0,0-.39,0,.47.47,0,0,0-.25.3Zm38.52,9.79,4.45.39a.43.43,0,0,0,.35-.73l-1.87-2,1.78-2a.41.41,0,0,0,.06-.48.42.42,0,0,0-.43-.23l-4.29.47L807.82,59a.44.44,0,0,0-.39,0,.5.5,0,0,0-.25.3l-.53,2.34-3.77,1.12a.41.41,0,0,0-.31.42.43.43,0,0,0,.32.41l3.82,1,.64,2.33a.44.44,0,0,0,.42.32l.11,0a.42.42,0,0,0,.3-.53l-.7-2.56a.45.45,0,0,0-.3-.31l-2.6-.71,2.56-.76a.4.4,0,0,0,.29-.32l.47-2,2.67,1.54a.43.43,0,0,0,.27.06l3.32-.37-1.31,1.49a.43.43,0,0,0,0,.58l1.37,1.45-3.32-.29a.43.43,0,1,0-.08.86Z" transform="translate(-548.8 168.36)" fill="#084c94"/>
        </g>
      </g>
      <g>
        <path d="M935.81-11.06,907.73-30.62s-17.65,45-14.66,47.44S935.81-11.06,935.81-11.06Z" transform="translate(-548.8 168.36)" fill="#ffe9b8"/>
        <path d="M980.17,10.27l-55,.79s-1.1,0-1.53.12c-13,.64-28.34,4.2-28.34,4.2a.08.08,0,0,0,0,0c-1.87.42-2.38,1.34-.85,3s3,2.26,6.41,2.89h0s21.72,3.12,34.82,3.62A14.06,14.06,0,0,0,938,25h.12l55.77-.44Z" transform="translate(-548.8 168.36)" opacity="0.2" fill="url(#a)" style="mix-blend-mode: multiply"/>
        <path d="M950,14l-41.26.53a6.41,6.41,0,0,0-.68.06,84.42,84.42,0,0,0-12.71,1.88h0c-.85.19.94,2.34,2.49,2.62h0s9.75,1.4,15.63,1.62a6.12,6.12,0,0,0,1,.09h.06l41.6-.38Z" transform="translate(-548.8 168.36)" opacity="0.3" fill="url(#b)" style="mix-blend-mode: multiply"/>
        <path d="M1007.19-139.85c2.35,1.93-7.74,18.14-22.54,36.2s-28.7,31.16-31,29.23,7.74-18.13,22.54-36.2S1004.84-141.77,1007.19-139.85Z" transform="translate(-548.8 168.36)" fill="url(#c)" style="mix-blend-mode: screen"/>
        <path d="M990.66-133.9,909.58-33.46a12.9,12.9,0,0,0-2.68,6L906-21.89A2.67,2.67,0,0,0,909.61-19l6.91-2.84L1000-125.9Z" transform="translate(-548.8 168.36)" fill="#fc0"/>
        <path d="M1000-125.9,916.52-21.82l-.28,6.32a2.63,2.63,0,0,0,3.31,2.66l7.14-1.92,81.68-101.36Z" transform="translate(-548.8 168.36)" fill="#ffde17"/>
        <path d="M1008.37-116.12l8.67,4.56L936.85-12a6.14,6.14,0,0,1-5.1,2.29l-3.06-.15a2.14,2.14,0,0,1-2.41-2.46l.41-2.44Z" transform="translate(-548.8 168.36)" fill="#fc0"/>
        <path d="M1034.07-132l-27.72-22.22-15.79,19.63h0l-.1.11c-3.57,4.46-.26,13,7.4,19.18s16.76,7.5,20.33,3l.08-.12h0Z" transform="translate(-548.8 168.36)" fill="#a8cff0"/>
        <ellipse cx="1020.16" cy="-143.02" rx="10.35" ry="17.77" transform="translate(-55.06 910.82) rotate(-51.29)" fill="#72b5e8"/>
        <path d="M1014.31-135.37c-7.66-6.13-11-14.72-7.4-19.18.08-.1.18-.18.26-.27a6.29,6.29,0,0,0-1.29,1.18c-3.58,4.46-.27,13,7.39,19.19,7.49,6,16.34,7.41,20.07,3.31C1029.18-128.22,1021.17-129.87,1014.31-135.37Z" transform="translate(-548.8 168.36)" fill="#d1ebff"/>
        <path d="M1043.4-145.22,1017.52-166,1008-154.14h0l-.08.1c-3.34,4.17-.25,12.18,6.9,17.91s15.65,7,19,2.84a1,1,0,0,0,.08-.11h0Z" transform="translate(-548.8 168.36)" fill="#eb4680"/>
        <path d="M1043.36-145.16c-3.33,4.16-11.83,2.89-19-2.84s-10.24-13.75-6.9-17.91,11.83-2.9,19,2.83S1046.7-149.33,1043.36-145.16Z" transform="translate(-548.8 168.36)" fill="#f76195"/>
        <path d="M1024.84-148.55c-6.51-5.22-9.64-12.33-7.62-16.7a2.61,2.61,0,0,0-.23.24c-3.34,4.16-.25,12.18,6.9,17.91s15.65,7,19,2.84a6.14,6.14,0,0,0,.72-1.21C1040.12-141.62,1031.84-142.94,1024.84-148.55Z" transform="translate(-548.8 168.36)" fill="#fff" opacity="0.5"/>
        <path d="M895.47,3.71a26.88,26.88,0,0,0,8.87,7.83c-5.78,3.64-10.32,6-11.27,5.28S893.35,10.61,895.47,3.71Z" transform="translate(-548.8 168.36)" fill="#001a46"/>
      </g>
    </g>
  </g>
</svg>
