<svg xmlns="http://www.w3.org/2000/svg" viewBox="0 0 468.54 390.44">
  <g>
    <g>
      <path d="M2323.05-108.59a5.93,5.93,0,0,0-.72-.34h0a4.44,4.44,0,0,0-.52-.15l-.13,0h0a5,5,0,0,0-.54-.07h-.49l-.44,0H2320l-.25,0-.42.07-.11,0-.08,0-.19,0-.39.11-.25.08-.06,0-.07,0-.38.15-.37.16-.07,0-.06,0-.25.11-.39.2-.29.17-150.67,87-.09.05-.4.24-.4.27-.05,0-.06,0-.3.21-.41.31-.14.12-.09.08a1.39,1.39,0,0,0-.19.15l-.42.36-.2.19-.09.08-.12.12c-.14.12-.27.26-.4.39l-.26.27a.23.23,0,0,1-.07.07l-.05.06-.37.41-.36.42h0v0l-.34.42c-.15.18-.29.36-.42.55h0l0,.05c-.19.26-.38.53-.56.8l-.06.1-.39.61c-.08.14-.17.27-.25.4l-.06.1c0,.09-.09.17-.14.26l-.27.47c-.06.13-.13.27-.2.4a.93.93,0,0,0,0,.1l0,.07-.24.49c-.07.15-.14.31-.2.46l0,.07,0,.06-.14.32-.18.46c0,.1-.08.2-.11.3l0,.07,0,.09c-.06.16-.12.32-.17.48s-.11.32-.16.49a.14.14,0,0,1,0,.06l0,.07c0,.12-.07.24-.1.36s-.09.34-.13.5a2.25,2.25,0,0,0-.05.22l0,.1c0,.06,0,.12,0,.18s-.07.32-.1.49-.05.29-.08.44v0h0c0,.16,0,.32-.07.48s0,.3-.05.46,0,.1,0,.15v.1c0,.07,0,.14,0,.2s0,.31,0,.46v.42l.32,115.55a10.13,10.13,0,0,0,5,8.71h0l-.34-121.34c0-.36,0-.73,0-1.09V-3c0-.37.07-.74.13-1.11h0c0-.37.13-.74.21-1.12l0-.1c.08-.36.18-.72.28-1.08l0-.07c.12-.37.24-.74.38-1.12l0-.07c.13-.36.28-.73.44-1.09l0,0c.16-.37.33-.73.51-1.09l.05-.1q.22-.43.48-.87a2,2,0,0,1,.14-.25c.1-.17.2-.34.31-.51l.38-.61q.3-.46.63-.9l0-.05c.24-.33.5-.66.76-1v0c.26-.31.53-.61.8-.9l.06-.06c.25-.27.52-.53.78-.79l.1-.08c.26-.25.53-.48.8-.7l.09-.08c.28-.22.57-.44.86-.64a.1.1,0,0,1,.05,0c.31-.22.63-.42.94-.6l150.67-87a10.28,10.28,0,0,1,.93-.48l.06,0a9.22,9.22,0,0,1,.89-.36l.06,0c.28-.09.56-.17.83-.23h.08a5.69,5.69,0,0,1,.78-.12h.09a5.67,5.67,0,0,1,.71,0h.15a5.14,5.14,0,0,1,.7.09l.13,0a5.18,5.18,0,0,1,.56.17,4.8,4.8,0,0,1,.73.33Z" transform="translate(-2031.63 182.2)" fill="#084c94"/>
      <path d="M2170.7-18c-5.2,3-9.4,10.29-9.38,16.26l.34,121.34,169.5-97.86-.35-121.34c0-6-4.25-8.39-9.44-5.39Z" transform="translate(-2031.63 182.2)" fill="#1d76a3"/>
      <path d="M2168.72-1.81c0-3.29,2.81-8.16,5.68-9.82l149-86,.33,115.1L2169,106.76Z" transform="translate(-2031.63 182.2)" fill="#d1ebff"/>
      <path d="M2439.93,88a4.75,4.75,0,0,1-.55,2.2,8.24,8.24,0,0,1-3.37,3.27l-150.66,87a14.4,14.4,0,0,1-2,.95l-.33.12c-.6.21-1.21.4-1.84.56l-.38.09a21.51,21.51,0,0,1-2.13.36l-.34,0a20.13,20.13,0,0,1-2.2.12h-.36c-.74,0-1.49,0-2.22-.12l-.41-.06c-.54-.07-1.07-.17-1.6-.28a13.6,13.6,0,0,1-1.33-.33c-.42-.12-.84-.23-1.25-.38l-.51-.19a14.35,14.35,0,0,1-1.85-.88l-104.92-61v1.75a7.05,7.05,0,0,0,3.51,6.08l101.41,58.94a15.12,15.12,0,0,0,1.86.87l.51.2c.18.07.35.14.54.2s.47.11.7.18c.44.12.88.24,1.33.33.17,0,.32.09.48.12.37.07.75.11,1.13.16l.4,0,.17,0c.49,0,1,.08,1.47.09h1.36c.44,0,.88,0,1.31-.07l.48-.05.33,0,.48,0c.44-.07.88-.14,1.32-.23l.33-.09c.13,0,.26-.06.38-.09l.67-.16c.4-.12.79-.26,1.18-.4l.32-.11.11,0a13.47,13.47,0,0,0,1.91-.91l150.67-87c2.61-1.51,3.92-3.49,3.91-5.47Z" transform="translate(-2031.63 182.2)" fill="#084c94"/>
      <path d="M2161.66,119.53l104.92,61c5.16,3,13.57,3,18.77,0l150.66-87c5.2-3,5.22-7.87.06-10.87l-104.91-61Z" transform="translate(-2031.63 182.2)" fill="#136e91"/>
      <path d="M2346.48,39.21h0a.66.66,0,0,1-.14.42,1.19,1.19,0,0,1-.42.37l-4.25,2.46a2.41,2.41,0,0,1-.62.23h0a3.1,3.1,0,0,1-.69.08h0a3.51,3.51,0,0,1-.66-.08l-.09,0a2.51,2.51,0,0,1-.58-.23L2334.76,40a1.34,1.34,0,0,1-.41-.36h0a.7.7,0,0,1-.13-.4v2.32h0s0,.08,0,.11a.23.23,0,0,0,0,.11.47.47,0,0,0,0,.1.16.16,0,0,0,0,.07h0s0,0,0,0l.12.12a1.08,1.08,0,0,0,.24.18l0,0,4.23,2.45a1.79,1.79,0,0,0,.42.19l.16,0,.09,0,.11,0,.24,0h.59l.18,0a1.08,1.08,0,0,0,.19,0h.09l.11,0,.23-.08a1.13,1.13,0,0,0,.27-.13l4.25-2.45a1,1,0,0,0,.57-.79Z" transform="translate(-2031.63 182.2)" fill="#084c94"/>
      <path d="M2334.78,38.44c-.76.43-.76,1.13,0,1.56l4.22,2.45a2.94,2.94,0,0,0,2.69,0l4.25-2.46c.74-.43.75-1.12,0-1.55L2341.71,36a3,3,0,0,0-2.69,0Z" transform="translate(-2031.63 182.2)" fill="#3f92d1"/>
      <path d="M2337.48,44.41a.91.91,0,0,1-.55.78l-4.25,2.46a2.55,2.55,0,0,1-.62.23h0a3.17,3.17,0,0,1-.69.07h0a3,3,0,0,1-.66-.07l-.09,0a2.12,2.12,0,0,1-.58-.22l-4.22-2.46a1.31,1.31,0,0,1-.41-.35v0a.79.79,0,0,1-.13-.4v2.33s0,.08,0,.11a.23.23,0,0,0,0,.11.54.54,0,0,0,0,.11l0,.06h0l0,0a.69.69,0,0,0,.11.13l.24.18h0L2330,50a1.72,1.72,0,0,0,.41.19l.17,0,.09,0,.1,0,.24,0h.6l.19,0,.19,0h.08l.12,0a1.69,1.69,0,0,0,.24-.08l.27-.13,4.24-2.45a.93.93,0,0,0,.56-.78Z" transform="translate(-2031.63 182.2)" fill="#084c94"/>
      <path d="M2325.77,43.63a.82.82,0,0,0,0,1.56l4.22,2.46a3,3,0,0,0,2.7,0l4.25-2.46a.82.82,0,0,0,0-1.55l-4.21-2.46a3,3,0,0,0-2.7,0Z" transform="translate(-2031.63 182.2)" fill="#3f92d1"/>
      <path d="M2328.49,49.59a.68.68,0,0,1-.15.42,1.19,1.19,0,0,1-.42.37l-4.25,2.46a2.28,2.28,0,0,1-.62.23h0a3.17,3.17,0,0,1-.69.07h0a3.5,3.5,0,0,1-.65-.07l-.1,0a2.25,2.25,0,0,1-.58-.22l-4.22-2.45a1.29,1.29,0,0,1-.4-.36h0a.72.72,0,0,1-.14-.4v2.32h0s0,.08,0,.11l0,.11,0,.11,0,.06h0l0,0,.12.13a.92.92,0,0,0,.24.17l0,0,4.22,2.45a2.65,2.65,0,0,0,.42.18l.16,0,.09,0,.11,0,.25,0h.59l.18,0,.19,0h.08l.12,0,.23-.08a1.66,1.66,0,0,0,.27-.13l4.25-2.45a1,1,0,0,0,.56-.79Z" transform="translate(-2031.63 182.2)" fill="#084c94"/>
      <path d="M2316.78,48.82c-.75.43-.76,1.13,0,1.56l4.22,2.45a3,3,0,0,0,2.69,0l4.25-2.46c.75-.43.76-1.13,0-1.56l-4.21-2.45a3,3,0,0,0-2.7,0Z" transform="translate(-2031.63 182.2)" fill="#3f92d1"/>
      <path d="M2319.49,54.79a.93.93,0,0,1-.56.78L2314.67,58a2.35,2.35,0,0,1-.61.24h0a2.66,2.66,0,0,1-.69.08h0a2.84,2.84,0,0,1-.66-.07l-.09,0A2.12,2.12,0,0,1,2312,58l-4.23-2.46a1.16,1.16,0,0,1-.4-.35v0a.72.72,0,0,1-.14-.4v2.33a.37.37,0,0,0,0,.11l0,.11,0,.11,0,.06h0l0,0a.49.49,0,0,0,.12.13l.24.18h0l4.22,2.45a2.17,2.17,0,0,0,.41.19l.17,0,.09,0,.1,0,.24,0h.59l.19,0,.19,0,.07,0h0l.11,0,.23-.08.28-.13,4.26-2.45a1,1,0,0,0,.56-.78Z" transform="translate(-2031.63 182.2)" fill="#084c94"/>
      <path d="M2307.77,54a.83.83,0,0,0,0,1.56L2312,58a3,3,0,0,0,2.68,0l4.26-2.45a.83.83,0,0,0,0-1.56l-4.22-2.45a3,3,0,0,0-2.7,0Z" transform="translate(-2031.63 182.2)" fill="#3f92d1"/>
      <path d="M2310.49,60a1,1,0,0,1-.57.79l-4.24,2.46a2.55,2.55,0,0,1-.62.23h0a3.11,3.11,0,0,1-.69.07h0a3.51,3.51,0,0,1-.66-.07l-.09,0a2.12,2.12,0,0,1-.58-.22l-4.22-2.45a1.34,1.34,0,0,1-.41-.36h0a.7.7,0,0,1-.13-.4v2.32h0s0,.08,0,.11a.23.23,0,0,0,0,.11.54.54,0,0,0,.05.11l0,.06h0s0,0,0,0l.12.12a1.08,1.08,0,0,0,.24.18h0l4.22,2.46a2.65,2.65,0,0,0,.42.18l.17,0,.09,0,.11,0,.24,0h.59l.19,0,.18,0h.08l.12,0,.23-.08a1.13,1.13,0,0,0,.27-.13l4.25-2.45a1,1,0,0,0,.57-.79Z" transform="translate(-2031.63 182.2)" fill="#084c94"/>
      <path d="M2298.78,59.2a.83.83,0,0,0,0,1.56l4.22,2.45a3,3,0,0,0,2.68,0l4.25-2.46c.75-.43.76-1.13,0-1.56l-4.22-2.45a3,3,0,0,0-2.69,0Z" transform="translate(-2031.63 182.2)" fill="#3f92d1"/>
      <path d="M2301.5,65.16a1,1,0,0,1-.56.79l-4.26,2.45a3.07,3.07,0,0,1-.62.24h0a2.61,2.61,0,0,1-.69.08h0a2.84,2.84,0,0,1-.66-.07l-.09,0a2.49,2.49,0,0,1-.58-.22L2289.77,66a1.33,1.33,0,0,1-.41-.36h0a.79.79,0,0,1-.13-.41v2.34s0,.07,0,.11l0,.11.05.11,0,0v0l0,0a.49.49,0,0,0,.12.13,1.08,1.08,0,0,0,.24.18h0l4.23,2.45a1.72,1.72,0,0,0,.41.19l.17,0,.09,0,.1,0,.24,0h.59l.18,0,.19,0,.07,0h0l.1,0,.24-.08a2.24,2.24,0,0,0,.27-.13l4.26-2.45a1,1,0,0,0,.56-.79Z" transform="translate(-2031.63 182.2)" fill="#084c94"/>
      <path d="M2289.78,64.39a.83.83,0,0,0,0,1.56l4.22,2.46a3,3,0,0,0,2.69,0l4.26-2.45a.83.83,0,0,0,0-1.56l-4.22-2.45a3,3,0,0,0-2.69,0Z" transform="translate(-2031.63 182.2)" fill="#3f92d1"/>
      <path d="M2292.49,70.35a1,1,0,0,1-.56.79l-4.24,2.45a2.17,2.17,0,0,1-.63.24h0a3.17,3.17,0,0,1-.69.07h0a3.7,3.7,0,0,1-.66-.07l-.09,0a2.12,2.12,0,0,1-.58-.22l-4.22-2.45a1.29,1.29,0,0,1-.4-.36h0a.72.72,0,0,1-.14-.4v2.32h0a.37.37,0,0,0,0,.11l0,.11.05.11,0,.06h0l0,0,.11.12a1.08,1.08,0,0,0,.24.18h0l4.22,2.46a2.31,2.31,0,0,0,.42.18l.16,0,.09,0,.11,0,.24,0h.59l.19,0,.19,0,.06,0h0l.11,0,.24-.08a2.24,2.24,0,0,0,.27-.13l4.24-2.45a1,1,0,0,0,.57-.79Z" transform="translate(-2031.63 182.2)" fill="#084c94"/>
      <path d="M2280.79,69.58c-.76.43-.76,1.13,0,1.56l4.22,2.45a3,3,0,0,0,2.7,0l4.24-2.45c.74-.43.76-1.13,0-1.56l-4.22-2.45a3,3,0,0,0-2.68,0Z" transform="translate(-2031.63 182.2)" fill="#3f92d1"/>
      <path d="M2283.5,75.54a.73.73,0,0,1-.14.42,1.19,1.19,0,0,1-.42.37l-4.26,2.45a2.67,2.67,0,0,1-.62.24h0a3.25,3.25,0,0,1-.69.08h0a2.9,2.9,0,0,1-.66-.07l-.09,0a2.78,2.78,0,0,1-.59-.23l-4.2-2.45a1.34,1.34,0,0,1-.41-.36v0a.69.69,0,0,1-.14-.4v2.32h0s0,.08,0,.11l0,.11.05.11,0,.06v0l0,0,.12.13.24.18h0l4.2,2.46a2.65,2.65,0,0,0,.42.18l.17,0,.09,0,.1,0,.24,0h.59l.19,0,.19,0,.06,0h0l.11,0,.23-.08.28-.13,4.26-2.45a1,1,0,0,0,.56-.79Z" transform="translate(-2031.63 182.2)" fill="#084c94"/>
      <path d="M2271.78,74.77a.82.82,0,0,0,0,1.56l4.2,2.45a3,3,0,0,0,2.7,0l4.26-2.45a.83.83,0,0,0,0-1.56l-4.22-2.45a3,3,0,0,0-2.7,0Z" transform="translate(-2031.63 182.2)" fill="#3f92d1"/>
      <path d="M2274.5,80.73a.73.73,0,0,1-.14.42,1.33,1.33,0,0,1-.43.37L2269.69,84a2.42,2.42,0,0,1-.62.24h0a3.11,3.11,0,0,1-.69.07h0a3.5,3.5,0,0,1-.65-.07l-.09,0A2.32,2.32,0,0,1,2267,84l-4.22-2.45a1.29,1.29,0,0,1-.4-.36v0a.67.67,0,0,1-.14-.4v2.34a.45.45,0,0,0,0,.11l0,.1a.37.37,0,0,0,.05.11l0,.06v0l0,0a.68.68,0,0,0,.12.12.76.76,0,0,0,.24.18h0l4.22,2.46a2.65,2.65,0,0,0,.42.18l.16,0,.1,0,.1,0,.25,0h.59l.18,0,.19,0,.06,0h0l.12,0,.23-.08.28-.13,4.24-2.45a1,1,0,0,0,.57-.79Z" transform="translate(-2031.63 182.2)" fill="#084c94"/>
      <path d="M2262.78,80a.83.83,0,0,0,0,1.57L2267,84a3,3,0,0,0,2.7,0l4.24-2.45c.76-.43.76-1.13,0-1.56l-4.21-2.45a3,3,0,0,0-2.69,0Z" transform="translate(-2031.63 182.2)" fill="#3f92d1"/>
      <path d="M2265.5,85.92a1,1,0,0,1-.56.79l-4.26,2.45a2.77,2.77,0,0,1-.61.24h0a3.17,3.17,0,0,1-.69.08h0a3.7,3.7,0,0,1-.66-.07l-.09,0a2.51,2.51,0,0,1-.58-.23l-4.21-2.45a1.47,1.47,0,0,1-.41-.36v0a.76.76,0,0,1-.13-.4v2.34s0,.07,0,.1a.2.2,0,0,0,0,.11.54.54,0,0,0,0,.11l0,.06v0l0,0a.69.69,0,0,0,.11.13,1.8,1.8,0,0,0,.25.18h0l4.2,2.46a2.65,2.65,0,0,0,.42.18l.17,0,.09,0,.1,0,.25,0h.59l.18,0,.19,0,.07,0h0l.11,0,.23-.08.28-.13L2265,89a1,1,0,0,0,.56-.79Z" transform="translate(-2031.63 182.2)" fill="#084c94"/>
      <path d="M2253.79,85.14a.83.83,0,0,0,0,1.57l4.21,2.45a3,3,0,0,0,2.69,0l4.26-2.45a.82.82,0,0,0,0-1.56l-4.22-2.45a3,3,0,0,0-2.7,0Z" transform="translate(-2031.63 182.2)" fill="#3f92d1"/>
      <path d="M2256.5,91.12a1,1,0,0,1-.56.78l-4.25,2.45a2.29,2.29,0,0,1-.62.24h0a2.74,2.74,0,0,1-.7.08h0a3.51,3.51,0,0,1-.66-.07l-.09,0a2.12,2.12,0,0,1-.58-.22l-4.22-2.45a1.34,1.34,0,0,1-.41-.36v0a.69.69,0,0,1-.14-.4v2.34s0,.07,0,.11l0,.1a.39.39,0,0,0,.06.11l0,.06v0l0,0,.12.12a1.08,1.08,0,0,0,.24.18h0l4.22,2.46a2.65,2.65,0,0,0,.42.18l.17,0,.09,0,.11,0,.24,0h.59l.19,0,.18,0,.06,0h0l.11,0,.23-.08.28-.13,4.24-2.45a1,1,0,0,0,.57-.79Z" transform="translate(-2031.63 182.2)" fill="#084c94"/>
      <path d="M2244.78,90.33a.83.83,0,0,0,0,1.57l4.22,2.45a3,3,0,0,0,2.69,0l4.25-2.45a.82.82,0,0,0,0-1.56l-4.2-2.45a3,3,0,0,0-2.7,0Z" transform="translate(-2031.63 182.2)" fill="#3f92d1"/>
      <path d="M2247.5,96.3a.7.7,0,0,1-.14.42,1.29,1.29,0,0,1-.42.37l-4.25,2.45a2.86,2.86,0,0,1-.62.24h0a3.1,3.1,0,0,1-.69.08h0a3.6,3.6,0,0,1-.66-.07l-.09,0a1.85,1.85,0,0,1-.58-.23l-4.21-2.44a1.39,1.39,0,0,1-.42-.36v0a.69.69,0,0,1-.14-.4v2.34s0,.07,0,.1a.23.23,0,0,0,0,.11.54.54,0,0,0,0,.11l0,.06v0s0,0,0,0l.12.13a1.8,1.8,0,0,0,.25.18h0l4.22,2.45a1.87,1.87,0,0,0,.43.19l.15,0,.09,0a.45.45,0,0,0,.11,0l.24,0h.59l.18,0,.19,0,.06,0h0l.11,0,.23-.08a1.69,1.69,0,0,0,.27-.13l4.25-2.46a1,1,0,0,0,.57-.78Z" transform="translate(-2031.63 182.2)" fill="#084c94"/>
      <path d="M2235.8,95.52c-.76.44-.76,1.13,0,1.57l4.21,2.44a2.94,2.94,0,0,0,2.69,0l4.25-2.45c.75-.44.75-1.13,0-1.56l-4.22-2.45a2.94,2.94,0,0,0-2.69,0Z" transform="translate(-2031.63 182.2)" fill="#3f92d1"/>
      <path d="M2238.5,101.5a.94.94,0,0,1-.56.78l-4.24,2.45a2.86,2.86,0,0,1-.62.24h0a3.1,3.1,0,0,1-.69.08h0a3.51,3.51,0,0,1-.66-.07l-.1,0a2.12,2.12,0,0,1-.58-.22l-4.22-2.45a1.47,1.47,0,0,1-.41-.36v0a.68.68,0,0,1-.13-.4v2.34a.52.52,0,0,0,0,.11.19.19,0,0,0,0,.1.37.37,0,0,0,0,.11l0,.06v0l0,0,.11.12a1.08,1.08,0,0,0,.24.18h0l4.22,2.46a2.2,2.2,0,0,0,.41.18l.17,0,.09,0,.1,0,.25,0,.21,0h.39l.18,0,.19,0,.06,0h0l.11,0,.23-.08a1.69,1.69,0,0,0,.27-.13l4.25-2.45a1,1,0,0,0,.56-.79Z" transform="translate(-2031.63 182.2)" fill="#084c94"/>
      <path d="M2226.79,100.71a.83.83,0,0,0,0,1.57l4.22,2.45a3,3,0,0,0,2.7,0l4.24-2.45a.82.82,0,0,0,0-1.56l-4.21-2.45a2.94,2.94,0,0,0-2.69,0Z" transform="translate(-2031.63 182.2)" fill="#3f92d1"/>
      <path d="M2229.48,106.68a.75.75,0,0,1-.15.43,1.25,1.25,0,0,1-.43.38l-4.64,2.68a2.3,2.3,0,0,1-.64.24h0a3.45,3.45,0,0,1-.72.08h0a3.1,3.1,0,0,1-.69-.08l-.09,0a2.5,2.5,0,0,1-.6-.23l-4.13-2.4a1.55,1.55,0,0,1-.42-.37h0a.78.78,0,0,1-.14-.42v2.32h0a.49.49,0,0,0,0,.12l0,.11a.6.6,0,0,0,.06.11.21.21,0,0,0,0,.06v0l0,0a.71.71,0,0,0,.12.13,1.24,1.24,0,0,0,.25.18l0,0,4.12,2.39a2.08,2.08,0,0,0,.43.19l.18,0,.09,0,.11,0,.25,0,.22,0h.39l.2,0,.19,0h.09l.12,0,.24-.08a1.47,1.47,0,0,0,.28-.14l4.63-2.67a1,1,0,0,0,.59-.81Z" transform="translate(-2031.63 182.2)" fill="#084c94"/>
      <path d="M2217.36,106.15a.86.86,0,0,0,0,1.62l4.13,2.4a3.09,3.09,0,0,0,2.78,0l4.64-2.68a.85.85,0,0,0,0-1.61l-4.13-2.4a3.11,3.11,0,0,0-2.79,0Z" transform="translate(-2031.63 182.2)" fill="#3f92d1"/>
      <path d="M2354.78,44.18h0a.86.86,0,0,1-.05.27,1.41,1.41,0,0,1-.67.74l-8.12,4.67a2.77,2.77,0,0,1-.79.31h0a3.8,3.8,0,0,1-.89.1h0a4,4,0,0,1-.85-.09l-.12,0a2.93,2.93,0,0,1-.75-.29l-3.44-2a.83.83,0,0,1-.15-.11.76.76,0,0,1-.17-.13,1,1,0,0,1-.2-.21l0,0a.8.8,0,0,1-.11-.23v0a.69.69,0,0,1,0-.25v2.32h0v0a.59.59,0,0,0,0,.14.29.29,0,0,1,0,.09v0l.06.14.05.07,0,0,0,0,.16.16h0a1.09,1.09,0,0,0,.17.13l.13.09,0,0,3.43,2a3.25,3.25,0,0,0,.54.23,1.41,1.41,0,0,0,.22.06l.11,0,.14,0,.31,0,.28,0h.49l.24,0,.24,0,.07,0h0l.15,0,.29-.1.35-.17,8.12-4.67a1.2,1.2,0,0,0,.71-1Z" transform="translate(-2031.63 182.2)" fill="#084c94"/>
      <path d="M2339.05,45.85a1.06,1.06,0,0,0,0,2l3.44,2a3.83,3.83,0,0,0,3.46,0l8.12-4.67a1.06,1.06,0,0,0,0-2l-3.43-2a3.88,3.88,0,0,0-3.48,0Z" transform="translate(-2031.63 182.2)" fill="#3f92d1"/>
      <path d="M2363.38,49.13h0a1,1,0,0,1-.38.73,1.34,1.34,0,0,1-.3.21l-10.53,6.08a2.85,2.85,0,0,1-.74.29h0a3.25,3.25,0,0,1-.83.1h0a4.16,4.16,0,0,1-.79-.09l-.1,0a2.43,2.43,0,0,1-.7-.27l-3.7-2.15a1.48,1.48,0,0,1-.49-.42v0a.89.89,0,0,1-.16-.48v2.34a.62.62,0,0,0,0,.13.93.93,0,0,0,0,.13l.06.13.05.07v0l0,0a1,1,0,0,0,.14.15,1.69,1.69,0,0,0,.29.22h0l3.7,2.15a2.43,2.43,0,0,0,.49.22l.2.05.11,0,.12,0,.29,0,.26,0h.23l.23,0,.22,0,.23,0,.07,0h0l.14,0,.27-.09a2.53,2.53,0,0,0,.33-.16l10.53-6.08a1.15,1.15,0,0,0,.68-.94Z" transform="translate(-2031.63 182.2)" fill="#084c94"/>
      <path d="M2345.26,52.14a1,1,0,0,0,0,1.86l3.7,2.15a3.52,3.52,0,0,0,3.22,0l10.53-6.08c.89-.51.91-1.34,0-1.86l-3.7-2.15a3.5,3.5,0,0,0-3.21,0Z" transform="translate(-2031.63 182.2)" fill="#3f92d1"/>
      <path d="M2341.65,51.88a1,1,0,0,1-.56.79l-4.25,2.45a2.57,2.57,0,0,1-.62.24h0a2.66,2.66,0,0,1-.69.08h0a3.7,3.7,0,0,1-.66-.07l-.09,0a2.51,2.51,0,0,1-.58-.23l-4.21-2.46a1.13,1.13,0,0,1-.41-.36h0a.72.72,0,0,1-.14-.41v2.34a.41.41,0,0,0,0,.11l0,.11a.47.47,0,0,0,0,.1.43.43,0,0,0,0,.07h0l0,0a.71.71,0,0,0,.12.13l.24.18h0l4.22,2.46a2.2,2.2,0,0,0,.41.18l.17,0,.09,0,.1,0,.25,0h.59l.19,0,.19,0,.06,0h0l.12,0,.23-.08a1.69,1.69,0,0,0,.27-.13l4.25-2.45a1,1,0,0,0,.56-.79Z" transform="translate(-2031.63 182.2)" fill="#084c94"/>
      <path d="M2329.93,51.11c-.75.43-.74,1.12,0,1.55l4.21,2.46a3,3,0,0,0,2.7,0l4.25-2.45a.83.83,0,0,0,0-1.56l-4.22-2.46a3,3,0,0,0-2.69,0Z" transform="translate(-2031.63 182.2)" fill="#3f92d1"/>
      <path d="M2348,58.1h0a.78.78,0,0,1-.14.42,1.46,1.46,0,0,1-.43.37l-4.25,2.45a2.28,2.28,0,0,1-.62.23h0a3.17,3.17,0,0,1-.69.08h0a2.82,2.82,0,0,1-.65-.08l-.09,0a2.78,2.78,0,0,1-.59-.23l-4.22-2.45a1.16,1.16,0,0,1-.4-.35v0a.68.68,0,0,1-.13-.4v2.34s0,.07,0,.11l0,.1.06.11a.21.21,0,0,0,0,.06v0l0,0a.49.49,0,0,0,.12.13,1.46,1.46,0,0,0,.24.17l0,0,4.22,2.45a2,2,0,0,0,.42.19l.16,0,.1,0,.1,0,.25,0h.59l.19,0,.18,0h.08a.53.53,0,0,0,.12,0l.23-.07.27-.13,4.25-2.46a.91.91,0,0,0,.56-.79Z" transform="translate(-2031.63 182.2)" fill="#084c94"/>
      <path d="M2336.28,57.32c-.74.43-.76,1.13,0,1.56l4.22,2.45a3,3,0,0,0,2.69,0l4.25-2.45c.75-.43.76-1.13,0-1.56l-4.22-2.46a3,3,0,0,0-2.69,0Z" transform="translate(-2031.63 182.2)" fill="#3f92d1"/>
      <path d="M2371.84,54.1a1.21,1.21,0,0,1-.71,1l-14.57,8.39a2.53,2.53,0,0,1-.78.3h0a3.71,3.71,0,0,1-.88.1h0a3.86,3.86,0,0,1-.84-.09l-.12,0a3,3,0,0,1-.74-.29l-3.49-2-.15-.1a1.09,1.09,0,0,1-.17-.13,1.8,1.8,0,0,1-.19-.21l0,0a.7.7,0,0,1-.11-.23v0a.73.73,0,0,1,0-.25v2.34a.66.66,0,0,0,0,.14l0,.09v0l.06.14,0,.07,0,0,0,0,.15.16h0l.17.13a.5.5,0,0,0,.12.08l0,0,3.49,2a2.83,2.83,0,0,0,.53.23,1.29,1.29,0,0,0,.21.06l.11,0a.5.5,0,0,1,.13,0l.31,0,.27,0h.49l.24,0,.24,0,.07,0h0l.14,0,.29-.1a2.85,2.85,0,0,0,.35-.17l14.57-8.4a1.21,1.21,0,0,0,.71-1Z" transform="translate(-2031.63 182.2)" fill="#084c94"/>
      <path d="M2349.66,59.47a1,1,0,0,0,0,2l3.49,2a3.75,3.75,0,0,0,3.42,0l14.57-8.39c.95-.56.95-1.44,0-2l-3.49-2a3.81,3.81,0,0,0-3.42,0Z" transform="translate(-2031.63 182.2)" fill="#3f92d1"/>
      <path d="M2381.36,59.68h0a.93.93,0,0,1-.05.29,1.52,1.52,0,0,1-.74.8l-7.82,4.52a3.07,3.07,0,0,1-.86.33h0a4.42,4.42,0,0,1-1,.11h0a3.91,3.91,0,0,1-.91-.11.5.5,0,0,1-.13,0,3,3,0,0,1-.81-.31l-4.26-2.47-.14-.1-.2-.15a1.13,1.13,0,0,1-.21-.24l0,0A.94.94,0,0,1,2364,62v0a.86.86,0,0,1,0-.28v2.35a.77.77,0,0,0,0,.15l0,.1v0a1.09,1.09,0,0,0,.08.15.43.43,0,0,0,0,.07l0,.05,0,0a1,1,0,0,0,.17.18h0a1.66,1.66,0,0,0,.21.16.5.5,0,0,0,.12.08l0,0,4.26,2.47a2.66,2.66,0,0,0,.57.25,2.1,2.1,0,0,0,.24.06l.12,0,.14,0,.34.05.3,0h.27l.26,0a1.09,1.09,0,0,0,.26,0l.27,0,.08,0h0l.16,0,.32-.11a2.22,2.22,0,0,0,.38-.18l7.83-4.52a1.33,1.33,0,0,0,.78-1.09Z" transform="translate(-2031.63 182.2)" fill="#084c94"/>
      <path d="M2364.75,60.65a1.15,1.15,0,0,0,0,2.17l4.26,2.47a4.13,4.13,0,0,0,3.75,0l7.82-4.52c1-.6,1-1.56,0-2.16l-4.26-2.48a4.09,4.09,0,0,0-3.73,0Z" transform="translate(-2031.63 182.2)" fill="#3f92d1"/>
      <path d="M2332.51,57.15a1,1,0,0,1-.57.79l-4.24,2.44a2,2,0,0,1-.62.24h0a3.1,3.1,0,0,1-.69.08h0a2.91,2.91,0,0,1-.66-.08l-.09,0a2,2,0,0,1-.59-.23l-4.21-2.44a1.47,1.47,0,0,1-.41-.36v0a.68.68,0,0,1-.13-.4V59.5a.52.52,0,0,0,0,.11.19.19,0,0,0,0,.1.54.54,0,0,0,.05.11l0,.06v0l0,0,.12.13.24.18h0L2325,62.7a1.87,1.87,0,0,0,.43.19l.16,0,.09,0,.11,0,.24,0,.21,0h.37l.19,0,.19,0,.06,0h0l.1,0,.24-.08a2.44,2.44,0,0,0,.28-.14l4.24-2.45a1,1,0,0,0,.57-.78Z" transform="translate(-2031.63 182.2)" fill="#084c94"/>
      <path d="M2320.8,56.37a.83.83,0,0,0,0,1.57l4.21,2.44a2.93,2.93,0,0,0,2.7,0l4.24-2.44c.76-.44.76-1.13,0-1.56l-4.22-2.45a2.94,2.94,0,0,0-2.69,0Z" transform="translate(-2031.63 182.2)" fill="#3f92d1"/>
      <path d="M2338.86,63.37h0a.78.78,0,0,1-.14.42,1.37,1.37,0,0,1-.42.36L2334,66.6a2,2,0,0,1-.62.24h0a3.83,3.83,0,0,1-.69.08h0a2.91,2.91,0,0,1-.66-.08l-.09,0a2.12,2.12,0,0,1-.58-.22l-4.21-2.46a1.34,1.34,0,0,1-.41-.36h0a.72.72,0,0,1-.14-.41v2.34a.34.34,0,0,0,0,.1l0,.11a.37.37,0,0,0,0,.11l0,.06v0l0,0a.68.68,0,0,0,.12.12,1.08,1.08,0,0,0,.24.18l0,0,4.22,2.46a2.2,2.2,0,0,0,.41.18l.17,0,.09,0,.1,0,.24,0h.34s0,0,.06,0h.19l.19,0,.19,0,.06,0h0l.11,0,.23-.08a1.69,1.69,0,0,0,.27-.13l4.26-2.45a.91.91,0,0,0,.56-.78Z" transform="translate(-2031.63 182.2)" fill="#084c94"/>
      <path d="M2327.14,62.59a.82.82,0,0,0,0,1.56l4.21,2.46a3,3,0,0,0,2.69,0l4.26-2.45a.83.83,0,0,0,0-1.56l-4.23-2.45a3,3,0,0,0-2.69,0Z" transform="translate(-2031.63 182.2)" fill="#3f92d1"/>
      <path d="M2352.56,65.35a.93.93,0,0,1-.55.77l-4.26,2.45a2.11,2.11,0,0,1-.62.24h0a3.83,3.83,0,0,1-.69.08h0a2.84,2.84,0,0,1-.66-.08l-.09,0a2.2,2.2,0,0,1-.59-.23l-4.21-2.45a1.2,1.2,0,0,1-.41-.35v0a.69.69,0,0,1-.14-.4v2.34a.34.34,0,0,0,0,.1l0,.11.05.11,0,.06v0l0,0a.49.49,0,0,0,.12.13l.24.18h0l4.22,2.45a2,2,0,0,0,.42.19l.16,0,.09,0,.11,0,.24,0h.21a.33.33,0,0,0,.1,0h.28l.19,0,.19,0h.09l.11,0,.23-.08a1.13,1.13,0,0,0,.27-.13l4.26-2.45a.92.92,0,0,0,.56-.78Z" transform="translate(-2031.63 182.2)" fill="#084c94"/>
      <path d="M2340.85,64.56c-.75.43-.76,1.13,0,1.56l4.21,2.45a3,3,0,0,0,2.7,0l4.26-2.45a.82.82,0,0,0,0-1.55l-4.22-2.46a3,3,0,0,0-2.69,0Z" transform="translate(-2031.63 182.2)" fill="#3f92d1"/>
      <path d="M2368.22,67.31a1.22,1.22,0,0,1-.72,1L2361.14,72a2.49,2.49,0,0,1-.79.3h0a3.71,3.71,0,0,1-.88.1h0a3.93,3.93,0,0,1-.84-.09l-.11,0a2.93,2.93,0,0,1-.75-.29l-4.55-2.65-.15-.1-.18-.13a1.8,1.8,0,0,1-.19-.21l0,0a.8.8,0,0,1-.11-.23v0a.69.69,0,0,1,0-.25v2.34s0,.1,0,.14l0,.09v0l.06.14a.18.18,0,0,1,.05.07l0,0,0,0,.15.17h0l.18.13.11.08,0,0,4.56,2.65a2.83,2.83,0,0,0,.53.23l.21.06.12,0,.13,0,.31,0,.27,0h.49l.24,0,.24,0,.07,0h0l.14,0,.3-.1.35-.17,6.35-3.67a1.22,1.22,0,0,0,.72-1Z" transform="translate(-2031.63 182.2)" fill="#084c94"/>
      <path d="M2353.16,67.34c-1,.56-1,1.45,0,2L2357.7,72a3.79,3.79,0,0,0,3.44,0l6.36-3.67a1.05,1.05,0,0,0,0-2L2363,63.67a3.79,3.79,0,0,0-3.44,0Z" transform="translate(-2031.63 182.2)" fill="#3f92d1"/>
      <path d="M2344,70.29a1,1,0,0,1-.56.79l-4.25,2.45a2.11,2.11,0,0,1-.62.24h0a2.74,2.74,0,0,1-.7.08h0a3.7,3.7,0,0,1-.66-.07l-.09,0a2.12,2.12,0,0,1-.58-.22l-4.22-2.46a1.2,1.2,0,0,1-.41-.35v0a.68.68,0,0,1-.13-.4v2.32h0a.36.36,0,0,0,0,.11.2.2,0,0,0,0,.11.54.54,0,0,0,.05.11.21.21,0,0,0,0,.06v0l0,0,.12.13.24.18h0l4.23,2.46a2.31,2.31,0,0,0,.42.18l.16,0,.09,0,.11,0a1,1,0,0,0,.24,0l.21,0h.39l.18,0,.19,0,.05,0h0l.11,0,.23-.08a1.69,1.69,0,0,0,.27-.13l4.25-2.45a1,1,0,0,0,.57-.79Z" transform="translate(-2031.63 182.2)" fill="#084c94"/>
      <path d="M2332.26,69.51a.82.82,0,0,0,0,1.56l4.22,2.46a3,3,0,0,0,2.69,0l4.25-2.45a.83.83,0,0,0,0-1.56l-4.22-2.45a2.91,2.91,0,0,0-2.69,0Z" transform="translate(-2031.63 182.2)" fill="#3f92d1"/>
      <path d="M2356.68,73.91a1.34,1.34,0,0,1-.78,1.1l-7.83,4.51a3,3,0,0,1-.87.33h0a4.42,4.42,0,0,1-1,.11h0a4.53,4.53,0,0,1-.91-.1l-.13,0a3,3,0,0,1-.81-.31L2340.06,77a.91.91,0,0,1-.16-.11l-.19-.14a1.07,1.07,0,0,1-.2-.23l0,0a.85.85,0,0,1-.13-.25,0,0,0,0,0,0,0,1.1,1.1,0,0,1,0-.27v2.35a.76.76,0,0,0,0,.15l0,.09a0,0,0,0,0,0,0v0a.51.51,0,0,0,.07.15.43.43,0,0,1,0,.07l0,0,0,0,.16.18h0c.05,0,.12.09.18.14l.14.09,0,0,4.26,2.48a3.4,3.4,0,0,0,.58.26l.23.05.13,0,.14,0,.34,0,.29,0h.27l.26,0,.25,0,.27,0,.08,0h0l.15,0,.33-.11a2.64,2.64,0,0,0,.38-.18l7.84-4.52a1.32,1.32,0,0,0,.78-1.09Z" transform="translate(-2031.63 182.2)" fill="#084c94"/>
      <path d="M2340.08,74.88c-1,.6-1,1.57,0,2.16l4.26,2.48a4.13,4.13,0,0,0,3.75,0L2355.9,75a1.15,1.15,0,0,0,0-2.17l-4.25-2.48a4.13,4.13,0,0,0-3.75,0Z" transform="translate(-2031.63 182.2)" fill="#3f92d1"/>
      <path d="M2323.38,62.42a.78.78,0,0,1-.14.42,1.37,1.37,0,0,1-.42.36l-4.25,2.46a3.07,3.07,0,0,1-.62.24h0a3.17,3.17,0,0,1-.69.08h0a3.7,3.7,0,0,1-.66-.07l-.09,0a2.12,2.12,0,0,1-.58-.22l-4.21-2.46a1.34,1.34,0,0,1-.41-.36h0a.72.72,0,0,1-.14-.41v2.34a.45.45,0,0,0,0,.11l0,.1a1.17,1.17,0,0,0,0,.11l.05.07h0a.08.08,0,0,0,0,0,.68.68,0,0,0,.12.12,1.08,1.08,0,0,0,.24.18l0,0,4.22,2.46a2.2,2.2,0,0,0,.41.18l.17,0,.09,0,.1,0,.25,0,.21,0h.39l.18,0,.19,0h.08l.12,0,.23-.08a1.69,1.69,0,0,0,.27-.13l4.25-2.46a.91.91,0,0,0,.56-.78Z" transform="translate(-2031.63 182.2)" fill="#084c94"/>
      <path d="M2311.67,61.64a.82.82,0,0,0,0,1.56l4.21,2.46a3,3,0,0,0,2.7,0l4.25-2.46a.83.83,0,0,0,0-1.56l-4.23-2.45a3,3,0,0,0-2.69,0Z" transform="translate(-2031.63 182.2)" fill="#3f92d1"/>
      <path d="M2314.24,67.68a1,1,0,0,1-.57.79l-4.24,2.45a2,2,0,0,1-.62.24h0a3.11,3.11,0,0,1-.69.07h0a2.84,2.84,0,0,1-.66-.07l-.09,0a2.51,2.51,0,0,1-.58-.23l-4.22-2.45a1.31,1.31,0,0,1-.41-.35v0a.68.68,0,0,1-.13-.4V70h0s0,.08,0,.11a.23.23,0,0,0,0,.11.54.54,0,0,0,.05.11l0,.06h0s0,0,0,0l.12.13a1.8,1.8,0,0,0,.25.18h0l4.21,2.45a2,2,0,0,0,.42.18l.16,0,.1,0,.1,0,.25,0h.59l.18,0,.19,0h.09l.11,0,.23-.08.28-.13,4.24-2.45a1,1,0,0,0,.57-.79Z" transform="translate(-2031.63 182.2)" fill="#084c94"/>
      <path d="M2302.53,66.91c-.74.43-.76,1.13,0,1.56l4.22,2.45a2.94,2.94,0,0,0,2.69,0l4.24-2.45c.76-.43.76-1.12,0-1.55l-4.21-2.46a3,3,0,0,0-2.7,0Z" transform="translate(-2031.63 182.2)" fill="#3f92d1"/>
      <path d="M2305.11,73a1,1,0,0,1-.56.78l-4.25,2.46a2.55,2.55,0,0,1-.62.23h0a3.17,3.17,0,0,1-.69.07h0a2.81,2.81,0,0,1-.65-.07l-.09,0a2.51,2.51,0,0,1-.58-.23l-4.22-2.45a1.34,1.34,0,0,1-.41-.36v0a.67.67,0,0,1-.14-.4V75.3s0,.07,0,.1l0,.11,0,.11.05.06v0l0,0a.74.74,0,0,0,.12.13,1.08,1.08,0,0,0,.24.18l0,0,4.22,2.45a2.32,2.32,0,0,0,.42.19l.16,0,.08,0,.11,0,.24,0h.59l.19,0,.19,0,.06,0h0l.12,0,.24-.08.27-.13,4.24-2.45a1,1,0,0,0,.57-.79Z" transform="translate(-2031.63 182.2)" fill="#084c94"/>
      <path d="M2293.4,72.17a.83.83,0,0,0,0,1.57l4.22,2.45a3,3,0,0,0,2.69,0l4.25-2.46a.83.83,0,0,0,0-1.56l-4.23-2.45a3,3,0,0,0-2.69,0Z" transform="translate(-2031.63 182.2)" fill="#3f92d1"/>
      <path d="M2296,78.22h0a.66.66,0,0,1-.14.42,1.29,1.29,0,0,1-.42.37l-4.25,2.45a2.67,2.67,0,0,1-.62.24h0a3.17,3.17,0,0,1-.69.08h0a3.6,3.6,0,0,1-.66-.07l-.09,0a2.12,2.12,0,0,1-.58-.22L2284.25,79a1.34,1.34,0,0,1-.41-.36h0a.7.7,0,0,1-.13-.4v2.32h0s0,.08,0,.11a.23.23,0,0,0,0,.11l.05.11,0,.06h0s0,0,0,0l.12.12a1.08,1.08,0,0,0,.24.18h0l4.22,2.46a2.65,2.65,0,0,0,.42.18l.17,0,.09,0,.1,0a2,2,0,0,0,.24,0l.22,0h.38l.19,0,.19,0h.08l.12,0,.23-.08a2.24,2.24,0,0,0,.27-.13l4.25-2.46a1,1,0,0,0,.56-.78Z" transform="translate(-2031.63 182.2)" fill="#084c94"/>
      <path d="M2284.26,77.45a.83.83,0,0,0,0,1.56l4.22,2.45a3,3,0,0,0,2.69,0l4.25-2.45a.82.82,0,0,0,0-1.56L2291.21,75a3,3,0,0,0-2.7,0Z" transform="translate(-2031.63 182.2)" fill="#3f92d1"/>
      <path d="M2286.84,83.49a1,1,0,0,1-.56.79L2282,86.73a2.57,2.57,0,0,1-.62.24h0a3.17,3.17,0,0,1-.69.08h0A3.5,3.5,0,0,1,2280,87l-.09,0a2.12,2.12,0,0,1-.58-.22l-4.22-2.46a1.31,1.31,0,0,1-.41-.35v0a.76.76,0,0,1-.13-.4v2.32h0s0,.08,0,.11a.2.2,0,0,0,0,.11.54.54,0,0,0,.05.11l0,.06v0l0,0a.69.69,0,0,0,.11.13l.24.18h0l4.22,2.46a2.65,2.65,0,0,0,.42.18l.16,0,.09,0,.1,0a1,1,0,0,0,.24,0l.21,0h.38l.19,0,.19,0,.06,0h0l.13,0,.23-.08.27-.13,4.25-2.45a1,1,0,0,0,.56-.79Z" transform="translate(-2031.63 182.2)" fill="#084c94"/>
      <path d="M2275.13,82.71a.82.82,0,0,0,0,1.56l4.22,2.46a3,3,0,0,0,2.69,0l4.25-2.45a.83.83,0,0,0,0-1.56l-4.22-2.46a3,3,0,0,0-2.7,0Z" transform="translate(-2031.63 182.2)" fill="#3f92d1"/>
      <path d="M2329.72,68.64h0a.72.72,0,0,1-.14.41,1.33,1.33,0,0,1-.43.37l-4.24,2.45a2,2,0,0,1-.62.24h0a3.11,3.11,0,0,1-.69.07h0a3.51,3.51,0,0,1-.66-.07l-.09,0a2.51,2.51,0,0,1-.58-.23L2318,69.42a1.29,1.29,0,0,1-.4-.36h0a.68.68,0,0,1-.13-.4V71h0a.36.36,0,0,0,0,.11.23.23,0,0,0,0,.11.54.54,0,0,0,.05.11l0,.06h0s0,0,0,0l.12.13a1.46,1.46,0,0,0,.24.17l0,0,4.22,2.45a2.65,2.65,0,0,0,.42.18l.16,0,.1,0,.1,0,.25,0h.59l.18,0,.19,0,.06,0h0l.11,0,.23-.08.28-.13,4.24-2.45a.93.93,0,0,0,.56-.79Z" transform="translate(-2031.63 182.2)" fill="#084c94"/>
      <path d="M2318,67.86c-.74.43-.76,1.13,0,1.56l4.23,2.45a2.94,2.94,0,0,0,2.69,0l4.24-2.45a.82.82,0,0,0,0-1.56L2325,65.41a3,3,0,0,0-2.69,0Z" transform="translate(-2031.63 182.2)" fill="#3f92d1"/>
      <path d="M2320.59,73.9a1,1,0,0,1-.56.79l-4.26,2.45a2.67,2.67,0,0,1-.62.24h0a3.1,3.1,0,0,1-.69.08h0a3.6,3.6,0,0,1-.66-.07l-.09,0a2.78,2.78,0,0,1-.59-.23l-4.2-2.45a1.34,1.34,0,0,1-.41-.36v0a.69.69,0,0,1-.14-.4v2.32h0a.37.37,0,0,0,0,.11l0,.11,0,.11.05.06v0l0,0a.49.49,0,0,0,.12.13l.24.18h0l4.2,2.46a2.65,2.65,0,0,0,.42.18l.17,0,.09,0,.1,0,.24,0h.59l.19,0,.19,0,.06,0h0l.11,0,.23-.08.28-.13L2320,77a1,1,0,0,0,.57-.79Z" transform="translate(-2031.63 182.2)" fill="#084c94"/>
      <path d="M2308.87,73.13a.82.82,0,0,0,0,1.56l4.2,2.45a3,3,0,0,0,2.7,0l4.26-2.45a.83.83,0,0,0,0-1.56l-4.23-2.45a3,3,0,0,0-2.69,0Z" transform="translate(-2031.63 182.2)" fill="#3f92d1"/>
      <path d="M2311.45,79.17a1,1,0,0,1-.57.79l-4.24,2.45a2.67,2.67,0,0,1-.62.24h0a3.27,3.27,0,0,1-.7.08h0a3.51,3.51,0,0,1-.66-.07l-.09,0a2.12,2.12,0,0,1-.58-.22L2299.73,80a1.2,1.2,0,0,1-.41-.35h0a.7.7,0,0,1-.13-.4v2.33s0,.07,0,.11a.23.23,0,0,0,0,.11.47.47,0,0,0,.05.1l0,.06v0s0,0,0,0l.12.12.24.18h0l4.22,2.46a2.65,2.65,0,0,0,.42.18l.17,0,.09,0,.1,0,.25,0,.21,0h.38l.18,0,.19,0,.06,0h0l.11,0,.23-.08.28-.13,4.24-2.45a1,1,0,0,0,.57-.79Z" transform="translate(-2031.63 182.2)" fill="#084c94"/>
      <path d="M2299.74,78.4c-.74.43-.75,1.12,0,1.55l4.22,2.46a3,3,0,0,0,2.69,0l4.24-2.45c.76-.44.76-1.13,0-1.56L2306.68,76a2.94,2.94,0,0,0-2.69,0Z" transform="translate(-2031.63 182.2)" fill="#3f92d1"/>
      <path d="M2302.32,84.44a1,1,0,0,1-.56.79l-4.26,2.45a2.28,2.28,0,0,1-.62.23h0a3.25,3.25,0,0,1-.69.08h0a3.7,3.7,0,0,1-.66-.07l-.08,0a2.42,2.42,0,0,1-.59-.23l-4.21-2.46a1.22,1.22,0,0,1-.41-.36h0a.72.72,0,0,1-.14-.4v2.32h0a.41.41,0,0,0,0,.11l0,.11a.47.47,0,0,0,0,.1.43.43,0,0,0,0,.07h0l0,0a.68.68,0,0,0,.12.12,1.55,1.55,0,0,0,.24.19h0l4.21,2.46a2.2,2.2,0,0,0,.41.18l.17,0,.09,0,.1,0a2,2,0,0,0,.24,0l.21,0h.38l.19,0,.19,0h.09l.11,0,.23-.08.28-.14,4.26-2.44a1,1,0,0,0,.56-.79Z" transform="translate(-2031.63 182.2)" fill="#084c94"/>
      <path d="M2290.61,83.66c-.75.44-.76,1.13,0,1.56l4.21,2.46a3,3,0,0,0,2.69,0l4.26-2.45a.83.83,0,0,0,0-1.56l-4.22-2.46a3,3,0,0,0-2.7,0Z" transform="translate(-2031.63 182.2)" fill="#3f92d1"/>
      <path d="M2293.18,89.71a1,1,0,0,1-.56.79l-4.24,2.44a2.22,2.22,0,0,1-.62.24h0a3.94,3.94,0,0,1-.69.08h0a3.61,3.61,0,0,1-.66-.08l-.09,0a2.13,2.13,0,0,1-.58-.23l-4.22-2.45a1.32,1.32,0,0,1-.41-.35v0a.72.72,0,0,1-.14-.4v2.33s0,.07,0,.11l0,.11.06.11a.21.21,0,0,0,0,.06h0l0,0,.12.13.24.18h0l4.22,2.45a2,2,0,0,0,.42.19l.17,0,.09,0,.1,0,.25,0h.33s.05,0,.07,0h.19l.19,0,.19,0h.08l.12,0,.23-.08a1.13,1.13,0,0,0,.27-.13l4.24-2.44a1,1,0,0,0,.57-.79Z" transform="translate(-2031.63 182.2)" fill="#084c94"/>
      <path d="M2281.47,88.93a.82.82,0,0,0,0,1.56l4.22,2.45a3,3,0,0,0,2.7,0l4.24-2.44a.83.83,0,0,0,0-1.57l-4.2-2.45a3,3,0,0,0-2.7,0Z" transform="translate(-2031.63 182.2)" fill="#3f92d1"/>
      <path d="M2335.38,75.24a1,1,0,0,1-.56.79l-4.25,2.45a2.42,2.42,0,0,1-.62.24h0a2.61,2.61,0,0,1-.69.08h0a3.5,3.5,0,0,1-.65-.07l-.1,0a2.51,2.51,0,0,1-.58-.23L2323.66,76a1.32,1.32,0,0,1-.41-.35v0a.72.72,0,0,1-.14-.4v2.32h0s0,.08,0,.11l0,.11,0,.11.05.06h0a.05.05,0,0,0,0,0,.71.71,0,0,0,.12.13l.24.18h0l4.21,2.45a2.2,2.2,0,0,0,.41.18l.17,0,.09,0,.1,0,.25,0h.6l.18,0,.19,0,.06,0h0l.11,0,.23-.08.28-.13,4.24-2.45a1,1,0,0,0,.57-.79Z" transform="translate(-2031.63 182.2)" fill="#084c94"/>
      <path d="M2323.67,74.47c-.75.43-.76,1.13,0,1.56l4.21,2.45a3,3,0,0,0,2.7,0l4.25-2.45a.83.83,0,0,0,0-1.56L2330.61,72a3,3,0,0,0-2.69,0Z" transform="translate(-2031.63 182.2)" fill="#3f92d1"/>
      <path d="M2326.79,80.2a1,1,0,0,1-.56.79L2322,83.44a2.42,2.42,0,0,1-.62.24h0a3.25,3.25,0,0,1-.69.08h0a2.82,2.82,0,0,1-.65-.08l-.1,0a2.49,2.49,0,0,1-.58-.22L2315.07,81a1.2,1.2,0,0,1-.41-.35v0a.7.7,0,0,1-.13-.4v2.33a.43.43,0,0,0,0,.11.23.23,0,0,0,0,.11.54.54,0,0,0,0,.11l0,.06h0s0,0,0,0l.12.13.24.18h0l4.22,2.45a2,2,0,0,0,.42.19l.16,0,.09,0,.11,0,.24,0,.22,0h.38l.18,0,.19,0h.08l.11,0,.23-.08.28-.13,4.24-2.45a1,1,0,0,0,.57-.79Z" transform="translate(-2031.63 182.2)" fill="#084c94"/>
      <path d="M2315.08,79.42a.82.82,0,0,0,0,1.56l4.22,2.46a3,3,0,0,0,2.69,0l4.25-2.45a.83.83,0,0,0,0-1.57L2322,77a3,3,0,0,0-2.68,0Z" transform="translate(-2031.63 182.2)" fill="#3f92d1"/>
      <path d="M2318.21,85.15a1,1,0,0,1-.57.79l-4.25,2.45a2.67,2.67,0,0,1-.62.24h0a3.1,3.1,0,0,1-.69.08h0a3.51,3.51,0,0,1-.66-.07l-.1,0a2.12,2.12,0,0,1-.58-.22l-4.2-2.45a1.23,1.23,0,0,1-.41-.36v0a.69.69,0,0,1-.14-.4v2.32h0a.37.37,0,0,0,0,.11.23.23,0,0,0,0,.11l.05.11,0,.06v0l0,0,.11.13.25.18h0l4.21,2.46a2.2,2.2,0,0,0,.41.18l.17,0,.09,0,.11,0a2,2,0,0,0,.24,0l.21,0h.39l.18,0,.19,0,.06,0h0l.11,0,.23-.08.28-.13,4.25-2.46a1,1,0,0,0,.56-.78Z" transform="translate(-2031.63 182.2)" fill="#084c94"/>
      <path d="M2306.49,84.38c-.75.43-.75,1.12,0,1.56l4.2,2.45a3,3,0,0,0,2.7,0l4.25-2.45c.75-.44.75-1.13,0-1.56l-4.23-2.45a3,3,0,0,0-2.69,0Z" transform="translate(-2031.63 182.2)" fill="#3f92d1"/>
      <path d="M2309.61,90.11a1,1,0,0,1-.56.78l-4.24,2.45a2.22,2.22,0,0,1-.62.24h0a3.17,3.17,0,0,1-.69.08h0a3.5,3.5,0,0,1-.65-.08l-.1,0a2.51,2.51,0,0,1-.58-.23l-4.22-2.45a1.47,1.47,0,0,1-.41-.36h0a.79.79,0,0,1-.13-.41v2.34s0,.07,0,.11a.23.23,0,0,0,0,.11l.05.11,0,.06h0l0,0,.11.13a1.46,1.46,0,0,0,.24.17l0,0,4.22,2.45a2,2,0,0,0,.42.19l.16,0,.09,0,.11,0,.24,0h.41l.18,0,.19,0,.19,0h.08l.12,0,.23-.08a1.43,1.43,0,0,0,.28-.13l4.24-2.45a1,1,0,0,0,.56-.78Z" transform="translate(-2031.63 182.2)" fill="#084c94"/>
      <path d="M2297.9,89.33a.82.82,0,0,0,0,1.56l4.22,2.45a3,3,0,0,0,2.7,0l4.24-2.45a.83.83,0,0,0,0-1.56l-4.22-2.45a2.91,2.91,0,0,0-2.68,0Z" transform="translate(-2031.63 182.2)" fill="#3f92d1"/>
      <path d="M2301,95.05a.91.91,0,0,1-.56.79l-4.25,2.46a2.28,2.28,0,0,1-.62.23h0a3.27,3.27,0,0,1-.7.08h0a3.6,3.6,0,0,1-.66-.07l-.09,0a2.32,2.32,0,0,1-.59-.22l-4.2-2.46a1.2,1.2,0,0,1-.41-.35v0a.72.72,0,0,1-.14-.4v2.32h0a.41.41,0,0,0,0,.11l0,.11a.47.47,0,0,0,0,.1.43.43,0,0,0,0,.07h0l0,0,.12.13.24.18h0l4.2,2.46a2.65,2.65,0,0,0,.42.18l.17,0,.09,0,.1,0a2,2,0,0,0,.24,0l.21,0h.38l.19,0,.19,0,.06,0h0l.11,0,.23-.08.28-.13,4.25-2.46a1,1,0,0,0,.56-.79Z" transform="translate(-2031.63 182.2)" fill="#084c94"/>
      <path d="M2289.32,94.28c-.76.44-.76,1.13,0,1.56l4.2,2.46a3,3,0,0,0,2.7,0l4.25-2.46c.74-.43.76-1.12,0-1.55l-4.22-2.46a3,3,0,0,0-2.7,0Z" transform="translate(-2031.63 182.2)" fill="#3f92d1"/>
      <path d="M2277.7,88.76a.91.91,0,0,1-.56.78L2272.9,92a2.55,2.55,0,0,1-.62.23h0a3.17,3.17,0,0,1-.69.08h0a2.91,2.91,0,0,1-.66-.08l-.09,0a2.12,2.12,0,0,1-.58-.22L2266,89.54a1.2,1.2,0,0,1-.41-.35v0a.73.73,0,0,1-.13-.4v2.34a.41.41,0,0,0,0,.11l0,.1a.37.37,0,0,0,.05.11l0,.06v0s0,0,0,0l.12.12.24.18h0l4.22,2.45a2,2,0,0,0,.42.19l.17,0,.09,0,.1,0,.25,0h.59l.19,0,.19,0h.08l.12,0,.23-.07a1.71,1.71,0,0,0,.27-.14l4.25-2.45a1,1,0,0,0,.56-.78Z" transform="translate(-2031.63 182.2)" fill="#084c94"/>
      <path d="M2266,88c-.74.43-.75,1.12,0,1.55L2270.2,92a3,3,0,0,0,2.7,0l4.24-2.46a.82.82,0,0,0,0-1.55l-4.2-2.46a3,3,0,0,0-2.7,0Z" transform="translate(-2031.63 182.2)" fill="#3f92d1"/>
      <path d="M2284.05,95a1,1,0,0,1-.56.79l-4.26,2.44a2,2,0,0,1-.62.24h0a3.94,3.94,0,0,1-.69.08h0a2.91,2.91,0,0,1-.66-.08l-.09,0a2.34,2.34,0,0,1-.59-.23l-4.2-2.45a1.47,1.47,0,0,1-.41-.36h0a.71.71,0,0,1-.13-.41v2.34s0,.07,0,.11a.42.42,0,0,0,0,.1.37.37,0,0,0,.05.11.25.25,0,0,0,0,.07h0s0,0,0,0l.12.12a1.08,1.08,0,0,0,.24.18l0,0,4.2,2.45a2,2,0,0,0,.42.19l.17,0,.09,0,.1,0,.24,0h.21a.41.41,0,0,0,.11,0h.28l.18,0a1.08,1.08,0,0,0,.19,0h.09l.11,0,.23-.08a1.43,1.43,0,0,0,.28-.13l4.26-2.45a1,1,0,0,0,.56-.78Z" transform="translate(-2031.63 182.2)" fill="#084c94"/>
      <path d="M2272.34,94.2a.82.82,0,0,0,0,1.56l4.2,2.45a3,3,0,0,0,2.7,0l4.26-2.45a.83.83,0,0,0,0-1.56l-4.22-2.45a3,3,0,0,0-2.7,0Z" transform="translate(-2031.63 182.2)" fill="#3f92d1"/>
      <path d="M2292.44,100h0a.72.72,0,0,1-.14.41,1.28,1.28,0,0,1-.42.37l-4.25,2.45a2.22,2.22,0,0,1-.62.24h0a3.17,3.17,0,0,1-.69.07h0a2.81,2.81,0,0,1-.65-.07l-.1,0a2.51,2.51,0,0,1-.58-.23l-4.22-2.45a1.47,1.47,0,0,1-.41-.36h0a.79.79,0,0,1-.13-.41v2.34a.45.45,0,0,0,0,.11.61.61,0,0,0,0,.11.47.47,0,0,0,.05.1l0,.06v0l0,0,.11.13a1.46,1.46,0,0,0,.24.17l0,0,4.22,2.45a2,2,0,0,0,.42.18l.16,0,.09,0,.11,0,.24,0h.6l.18,0,.19,0h.08l.12,0,.23-.08.28-.13,4.25-2.45a1,1,0,0,0,.55-.78Z" transform="translate(-2031.63 182.2)" fill="#084c94"/>
      <path d="M2280.72,99.24a.82.82,0,0,0,0,1.56l4.22,2.45a3,3,0,0,0,2.7,0l4.25-2.45a.83.83,0,0,0,0-1.56l-4.21-2.46a3,3,0,0,0-2.69,0Z" transform="translate(-2031.63 182.2)" fill="#3f92d1"/>
      <g style="isolation: isolate">
        <path d="M2343.31,81.58a1.4,1.4,0,0,1-.83,1.16l-47.05,27.14a3.74,3.74,0,0,1-.92.35h0a5,5,0,0,1-1,.12h0a5.35,5.35,0,0,1-1-.11l-.13,0a3.27,3.27,0,0,1-.86-.33l-4-2.34a1.77,1.77,0,0,1-.17-.12,1.49,1.49,0,0,1-.2-.15,2.55,2.55,0,0,1-.23-.24l0,0a1.26,1.26,0,0,1-.13-.26v0a1,1,0,0,1,0-.29v2.34a.78.78,0,0,0,0,.16.45.45,0,0,0,0,.11v0a1.19,1.19,0,0,0,.08.16.35.35,0,0,0,0,.08l0,0,0,0,.17.19h0a1.73,1.73,0,0,0,.2.15l.13.1,0,0,4,2.34a2.82,2.82,0,0,0,.61.27,1.83,1.83,0,0,0,.25.06l.13,0,.15,0,.36.05.31,0a.85.85,0,0,0,.16,0h0a.33.33,0,0,0,.1,0h.28l.28,0,.28,0,.09,0h0l.16,0a3.59,3.59,0,0,0,.35-.12l.41-.19,47-27.14a1.42,1.42,0,0,0,.83-1.16Z" transform="translate(-2031.63 182.2)" fill="#084c94"/>
        <path d="M2287.45,105.24c-1.11.64-1.12,1.67,0,2.3l4,2.34a4.39,4.39,0,0,0,4,0l47.05-27.14c1.11-.64,1.11-1.67,0-2.3l-4-2.34a4.41,4.41,0,0,0-4,0Z" transform="translate(-2031.63 182.2)" fill="#3f92d1"/>
      </g>
      <path d="M2268.57,94a1,1,0,0,1-.56.79l-4.26,2.44a2,2,0,0,1-.61.24h0a3.83,3.83,0,0,1-.69.08h0a3.72,3.72,0,0,1-.66-.08l-.09,0a2.51,2.51,0,0,1-.58-.23l-4.22-2.45a1.33,1.33,0,0,1-.41-.36h0a.79.79,0,0,1-.13-.4v2.33a.41.41,0,0,0,0,.11l0,.11a.54.54,0,0,0,.05.11l0,.06h0l0,0,.11.13.24.18h0l4.22,2.45a2,2,0,0,0,.42.19l.16,0,.09,0,.11,0,.24,0h.58l.19,0,.18,0h.09l.11,0,.23-.08a1.43,1.43,0,0,0,.28-.13l4.26-2.45a1,1,0,0,0,.56-.78Z" transform="translate(-2031.63 182.2)" fill="#084c94"/>
      <path d="M2256.86,93.25a.83.83,0,0,0,0,1.56l4.22,2.45a3,3,0,0,0,2.68,0l4.26-2.44a.83.83,0,0,0,0-1.57l-4.22-2.45a3,3,0,0,0-2.7,0Z" transform="translate(-2031.63 182.2)" fill="#3f92d1"/>
      <path d="M2259.44,99.3a1,1,0,0,1-.56.78l-4.25,2.45a2.22,2.22,0,0,1-.62.24h0a3.17,3.17,0,0,1-.69.07h0a3,3,0,0,1-.66-.07l-.09,0a2.51,2.51,0,0,1-.58-.23l-4.22-2.45a1.45,1.45,0,0,1-.41-.35v0a.76.76,0,0,1-.13-.4v2.34a.34.34,0,0,0,0,.1.2.2,0,0,0,0,.11.54.54,0,0,0,.05.11l0,.06h0s0,0,0,0l.12.13a1.46,1.46,0,0,0,.24.17l0,0,4.23,2.45a1.7,1.7,0,0,0,.41.18l.17,0,.09,0,.1,0,.25,0h.59l.19,0,.19,0,.06,0h0l.12,0,.23-.08a1.69,1.69,0,0,0,.27-.13l4.25-2.45a.94.94,0,0,0,.56-.78Z" transform="translate(-2031.63 182.2)" fill="#084c94"/>
      <path d="M2247.73,98.52c-.76.44-.76,1.13,0,1.56l4.22,2.45a3,3,0,0,0,2.7,0l4.25-2.45a.83.83,0,0,0,0-1.56l-4.21-2.45a3,3,0,0,0-2.7,0Z" transform="translate(-2031.63 182.2)" fill="#3f92d1"/>
      <path d="M2250.3,104.57a.93.93,0,0,1-.56.78l-4.26,2.45a2.35,2.35,0,0,1-.61.24h0a2.61,2.61,0,0,1-.69.08h0a3.6,3.6,0,0,1-.66-.07l-.09,0a2.32,2.32,0,0,1-.59-.22l-4.21-2.45a1.29,1.29,0,0,1-.4-.36h0a.72.72,0,0,1-.14-.41v2.34a.45.45,0,0,0,0,.11l0,.11.05.1a.43.43,0,0,1,0,.07h0l0,0,.12.13a.92.92,0,0,0,.24.17l0,0,4.21,2.44a1.87,1.87,0,0,0,.43.19l.16,0,.09,0a.45.45,0,0,0,.11,0l.24,0h.59l.18,0,.19,0,.06,0h0l.11,0,.23-.08.28-.13,4.26-2.45a1,1,0,0,0,.56-.78Z" transform="translate(-2031.63 182.2)" fill="#084c94"/>
      <path d="M2238.59,103.79a.83.83,0,0,0,0,1.56l4.21,2.45a3,3,0,0,0,2.69,0l4.26-2.45a.82.82,0,0,0,0-1.56l-4.22-2.45a3,3,0,0,0-2.69,0Z" transform="translate(-2031.63 182.2)" fill="#3f92d1"/>
      <path d="M2241,109.83a1.16,1.16,0,0,1-.69,1l-7.23,4.17a2.56,2.56,0,0,1-.76.29h0a4.12,4.12,0,0,1-.86.1h0a4.38,4.38,0,0,1-.81-.1l-.11,0a2.69,2.69,0,0,1-.72-.27l-3.59-2.09-.14-.1a1.09,1.09,0,0,1-.17-.13.89.89,0,0,1-.19-.2l0,0a1.13,1.13,0,0,1-.11-.22v0a1,1,0,0,1,0-.24v2.34a.53.53,0,0,0,0,.13l0,.09v0l.06.13.05.07a.05.05,0,0,1,0,0l0,0a.75.75,0,0,0,.15.16h0a1.09,1.09,0,0,0,.17.13.5.5,0,0,0,.12.08l0,0,3.59,2.09a2.61,2.61,0,0,0,.51.22l.2,0,.12,0a.5.5,0,0,0,.13,0l.3,0h.74l.23,0,.23,0,.07,0h0l.14,0,.28-.1.34-.16,7.23-4.17a1.19,1.19,0,0,0,.69-1Z" transform="translate(-2031.63 182.2)" fill="#084c94"/>
      <path d="M2226.15,111a1,1,0,0,0,0,1.92l3.59,2.09a3.66,3.66,0,0,0,3.32,0l7.23-4.17c.92-.53.93-1.39,0-1.92l-3.6-2.1a3.63,3.63,0,0,0-3.32,0Z" transform="translate(-2031.63 182.2)" fill="#3f92d1"/>
      <path d="M2274.91,100.25a1,1,0,0,1-.56.78l-4.24,2.45a2.57,2.57,0,0,1-.62.24h0a3.17,3.17,0,0,1-.69.07h0a3.7,3.7,0,0,1-.66-.07l-.09,0a2.51,2.51,0,0,1-.58-.23l-4.22-2.45a1.34,1.34,0,0,1-.41-.36h0a.71.71,0,0,1-.13-.41v2.34s0,.07,0,.11a.76.76,0,0,0,0,.11.47.47,0,0,0,0,.1.16.16,0,0,0,0,.07h0s0,0,0,0l.12.13a1.46,1.46,0,0,0,.24.17l0,0,4.23,2.45a2.2,2.2,0,0,0,.41.18l.17,0,.09,0,.1,0,.25,0h.59l.19,0,.19,0,.06,0h0l.12,0,.23-.08a1.69,1.69,0,0,0,.27-.13l4.24-2.45a1,1,0,0,0,.57-.78Z" transform="translate(-2031.63 182.2)" fill="#084c94"/>
      <path d="M2263.2,99.47a.82.82,0,0,0,0,1.56l4.22,2.45a3,3,0,0,0,2.7,0l4.24-2.45a.82.82,0,0,0,0-1.56L2270.15,97a3,3,0,0,0-2.7,0Z" transform="translate(-2031.63 182.2)" fill="#3f92d1"/>
      <path d="M2265.78,105.51a1,1,0,0,1-.57.79l-4.25,2.45a2.35,2.35,0,0,1-.61.24h0a3.17,3.17,0,0,1-.69.08h0a2.82,2.82,0,0,1-.65-.08l-.09,0a2.34,2.34,0,0,1-.59-.23l-4.21-2.44a1.34,1.34,0,0,1-.41-.36v0a.69.69,0,0,1-.14-.4v2.34a.34.34,0,0,0,0,.1l0,.11,0,.11.05.06v0l0,0a.71.71,0,0,0,.12.13l.24.18,0,0,4.21,2.44a2,2,0,0,0,.42.19l.16,0,.1,0,.1,0,.25,0,.21,0h.38l.19,0,.18,0h.08l.12,0,.23-.08.27-.13,4.25-2.45a1,1,0,0,0,.57-.79Z" transform="translate(-2031.63 182.2)" fill="#084c94"/>
      <path d="M2254.07,104.73c-.75.44-.76,1.13,0,1.57l4.21,2.44a3,3,0,0,0,2.69,0l4.25-2.45c.76-.44.75-1.13,0-1.56l-4.22-2.45a3,3,0,0,0-2.7,0Z" transform="translate(-2031.63 182.2)" fill="#3f92d1"/>
      <path d="M2256.64,110.79a1,1,0,0,1-.55.78l-4.25,2.45a2.86,2.86,0,0,1-.62.24h0a3.17,3.17,0,0,1-.69.08h0a3.7,3.7,0,0,1-.66-.07l-.09,0a2.12,2.12,0,0,1-.58-.22l-4.22-2.45a1.34,1.34,0,0,1-.41-.36v0a.68.68,0,0,1-.13-.4v2.32h0a.5.5,0,0,0,0,.12.19.19,0,0,0,0,.1.37.37,0,0,0,0,.11.21.21,0,0,0,0,.06v0s0,0,0,0l.12.12a1.5,1.5,0,0,0,.24.18h0l4.22,2.46a2.2,2.2,0,0,0,.41.18l.17,0,.09,0,.1,0a1.9,1.9,0,0,0,.25,0l.21,0h.39l.18,0,.19,0h.08l.12,0,.23-.08a1.69,1.69,0,0,0,.27-.13l4.25-2.46a.92.92,0,0,0,.56-.77Z" transform="translate(-2031.63 182.2)" fill="#084c94"/>
      <path d="M2244.93,110a.83.83,0,0,0,0,1.57l4.22,2.45a3,3,0,0,0,2.7,0l4.25-2.45a.83.83,0,0,0,0-1.56l-4.22-2.46a3,3,0,0,0-2.68,0Z" transform="translate(-2031.63 182.2)" fill="#3f92d1"/>
      <path d="M2217.64,113.55a.73.73,0,0,1-.14.42,1.17,1.17,0,0,1-.42.36l-4.25,2.46a2.28,2.28,0,0,1-.62.23h0a3.19,3.19,0,0,1-.7.08h0a2.84,2.84,0,0,1-.66-.08l-.09,0a2.12,2.12,0,0,1-.58-.22l-4.23-2.46a1.16,1.16,0,0,1-.4-.35v0a.69.69,0,0,1-.14-.4v2.32h0a.37.37,0,0,0,0,.11l0,.11.05.11,0,.06v0l0,0a.49.49,0,0,0,.12.13l.24.18h0l4.22,2.46a2.65,2.65,0,0,0,.42.18l.16,0,.1,0,.1,0,.24,0,.22,0h.38l.19,0,.19,0h.08l.12,0,.23-.07.27-.13,4.25-2.46a.92.92,0,0,0,.55-.78Z" transform="translate(-2031.63 182.2)" fill="#084c94"/>
      <path d="M2205.92,112.77a.83.83,0,0,0,0,1.56l4.23,2.46a3,3,0,0,0,2.69,0l4.25-2.46c.75-.43.74-1.12,0-1.55l-4.2-2.46a3,3,0,0,0-2.7,0Z" transform="translate(-2031.63 182.2)" fill="#3f92d1"/>
      <path d="M2208.64,118.73a1,1,0,0,1-.57.79l-4.24,2.46a2.55,2.55,0,0,1-.62.23h0a3.1,3.1,0,0,1-.69.08h0a3,3,0,0,1-.66-.08l-.09,0a2.51,2.51,0,0,1-.58-.23l-4.22-2.45a1.16,1.16,0,0,1-.4-.35l0,0a.79.79,0,0,1-.13-.4v2.32h0a.37.37,0,0,0,0,.11l0,.11a.54.54,0,0,0,0,.11l0,.06h0l0,0,.11.13a1.8,1.8,0,0,0,.25.18h0l4.21,2.45a2.08,2.08,0,0,0,.43.19l.16,0,.09,0,.11,0,.24,0h.59l.18,0,.19,0h.09l.11,0,.23-.07.27-.13,4.25-2.46a1,1,0,0,0,.57-.79Z" transform="translate(-2031.63 182.2)" fill="#084c94"/>
      <path d="M2196.93,118a.83.83,0,0,0,0,1.56l4.22,2.45a2.94,2.94,0,0,0,2.69,0l4.24-2.46c.76-.43.76-1.13,0-1.55l-4.22-2.46a3,3,0,0,0-2.7,0Z" transform="translate(-2031.63 182.2)" fill="#3f92d1"/>
      <path d="M2199.49,124a1,1,0,0,1-.57.79l-4.25,2.45a2.29,2.29,0,0,1-.62.24h0a3.19,3.19,0,0,1-.7.08h0a3.6,3.6,0,0,1-.66-.07l-.09,0a2.12,2.12,0,0,1-.58-.22l-4.21-2.45a1.34,1.34,0,0,1-.41-.36v0a.69.69,0,0,1-.14-.4v2.32h0a.37.37,0,0,0,0,.11l0,.11a1.17,1.17,0,0,1,0,.11l.05.06v0l0,0a.71.71,0,0,0,.12.13l.24.18,0,0,4.2,2.45a2.65,2.65,0,0,0,.42.18l.17,0,.09,0,.1,0,.24,0h.6l.19,0,.19,0,.05,0h0l.12,0,.23-.08.27-.13,4.25-2.45a1,1,0,0,0,.56-.79Z" transform="translate(-2031.63 182.2)" fill="#084c94"/>
      <path d="M2187.77,123.24a.82.82,0,0,0,0,1.56l4.21,2.45a3,3,0,0,0,2.69,0l4.25-2.45c.75-.43.76-1.13,0-1.56l-4.22-2.45a3,3,0,0,0-2.7,0Z" transform="translate(-2031.63 182.2)" fill="#3f92d1"/>
      <path d="M2226.23,118.55h0a.78.78,0,0,1-.14.42,1.17,1.17,0,0,1-.42.36l-4.25,2.46a2.28,2.28,0,0,1-.62.23h0a3.27,3.27,0,0,1-.7.08h0a2.84,2.84,0,0,1-.66-.08l-.09,0a2.13,2.13,0,0,1-.58-.23l-4.22-2.45a1.47,1.47,0,0,1-.41-.36h0a.79.79,0,0,1-.13-.41v2.34a.41.41,0,0,0,0,.11.45.45,0,0,0,0,.11l0,.11,0,.06h0l0,0,.11.13a1.46,1.46,0,0,0,.24.17l0,0,4.22,2.45a2,2,0,0,0,.42.19l.16,0,.09,0,.11,0,.24,0,.21,0h.38l.19,0,.19,0h.08a.35.35,0,0,0,.11,0l.23-.07.28-.13,4.25-2.46a1,1,0,0,0,.56-.78Z" transform="translate(-2031.63 182.2)" fill="#084c94"/>
      <path d="M2214.52,117.77a.82.82,0,0,0,0,1.56l4.22,2.45a2.94,2.94,0,0,0,2.69,0l4.25-2.46a.83.83,0,0,0,0-1.56l-4.22-2.45a3,3,0,0,0-2.69,0Z" transform="translate(-2031.63 182.2)" fill="#3f92d1"/>
      <path d="M2217.23,123.74a.94.94,0,0,1-.56.78l-4.25,2.45a2,2,0,0,1-.62.24h0a3.26,3.26,0,0,1-.7.07h0a2.84,2.84,0,0,1-.66-.07l-.09,0a2.51,2.51,0,0,1-.58-.23l-4.22-2.45a1.31,1.31,0,0,1-.41-.35v0a.68.68,0,0,1-.13-.4v2.32h0a.36.36,0,0,0,0,.11.23.23,0,0,0,0,.11.54.54,0,0,0,0,.11.21.21,0,0,0,0,.06v0l0,0,.12.13a1.8,1.8,0,0,0,.25.18h0l4.21,2.45a2,2,0,0,0,.42.18l.16.05.1,0,.1,0,.24,0h.6l.19,0,.19,0,.05,0h0l.11,0,.24-.08.27-.13,4.25-2.45a1,1,0,0,0,.56-.78Z" transform="translate(-2031.63 182.2)" fill="#084c94"/>
      <path d="M2205.52,123c-.74.43-.76,1.13,0,1.56l4.22,2.45a3,3,0,0,0,2.69,0l4.25-2.45a.82.82,0,0,0,0-1.55l-4.21-2.46a3,3,0,0,0-2.7,0Z" transform="translate(-2031.63 182.2)" fill="#3f92d1"/>
      <path d="M2208.08,129h0a.72.72,0,0,1-.15.42,1.29,1.29,0,0,1-.42.37l-4.25,2.45a2.29,2.29,0,0,1-.62.24h0a3.17,3.17,0,0,1-.69.08h0a2.82,2.82,0,0,1-.65-.08l-.1,0a2.12,2.12,0,0,1-.58-.22l-4.21-2.45a1.34,1.34,0,0,1-.41-.36h0a.72.72,0,0,1-.14-.41v2.34s0,.07,0,.11l0,.1a1.17,1.17,0,0,0,.05.11l0,.06v0l0,0,.12.12a1.08,1.08,0,0,0,.24.18l0,0,4.21,2.44a2,2,0,0,0,.42.19l.16,0,.09,0,.11,0a1.9,1.9,0,0,0,.25,0l.21,0h.38l.18,0,.19,0,0,0h0l.12,0,.23-.08.27-.13,4.25-2.45a1,1,0,0,0,.56-.79Z" transform="translate(-2031.63 182.2)" fill="#084c94"/>
      <path d="M2196.37,128.24a.82.82,0,0,0,0,1.56l4.21,2.45a3,3,0,0,0,2.69,0l4.25-2.45c.74-.43.76-1.13,0-1.56l-4.22-2.45a3,3,0,0,0-2.69,0Z" transform="translate(-2031.63 182.2)" fill="#3f92d1"/>
      <path d="M2247.43,116h0a.84.84,0,0,1-.15.47,1.59,1.59,0,0,1-.47.4L2241.4,120a2.91,2.91,0,0,1-.68.26h0a3.16,3.16,0,0,1-.76.09h0a3.53,3.53,0,0,1-.72-.08l-.1,0a2.36,2.36,0,0,1-.63-.24l-4-2.3a1.55,1.55,0,0,1-.44-.39v0a.75.75,0,0,1-.15-.44v2.34s0,.08,0,.12a.56.56,0,0,0,0,.12l0,.11.05.07v0l0,0a.83.83,0,0,0,.13.14,2,2,0,0,0,.26.19h0l4,2.31a2.77,2.77,0,0,0,.46.2l.18,0,.1,0,.11,0,.27,0,.23,0h.42l.2,0,.21,0,.07,0h0l.13,0,.25-.09v0h0v0a2.09,2.09,0,0,0,.3-.14l5.41-3.13a1.05,1.05,0,0,0,.63-.87Z" transform="translate(-2031.63 182.2)" fill="#084c94"/>
      <path d="M2234.5,116a.91.91,0,0,0,0,1.72l4,2.3a3.26,3.26,0,0,0,3,0l5.41-3.13c.82-.47.83-1.24,0-1.71l-4-2.3a3.26,3.26,0,0,0-2.95,0Z" transform="translate(-2031.63 182.2)" fill="#3f92d1"/>
      <path d="M2234.82,123.55a1,1,0,0,1-.56.79l-4.24,2.44a2.11,2.11,0,0,1-.62.24h0a3.11,3.11,0,0,1-.69.07h0a3,3,0,0,1-.66-.07l-.09,0a2.51,2.51,0,0,1-.58-.23l-4.22-2.45a1.22,1.22,0,0,1-.41-.36h0a.71.71,0,0,1-.13-.41v2.34a.43.43,0,0,0,0,.11.23.23,0,0,0,0,.11l.05.11a.21.21,0,0,0,0,.06h0l0,0,.12.13.24.18h0l4.22,2.45a1.38,1.38,0,0,0,.41.18l.17.05.09,0,.1,0,.25,0h.6l.18,0,.19,0h.08l.12,0,.23-.08a1.13,1.13,0,0,0,.27-.13l4.24-2.45a1,1,0,0,0,.57-.78Z" transform="translate(-2031.63 182.2)" fill="#084c94"/>
      <path d="M2223.11,122.77a.82.82,0,0,0,0,1.56l4.22,2.45a3,3,0,0,0,2.7,0l4.24-2.44a.83.83,0,0,0,0-1.57l-4.22-2.46a3,3,0,0,0-2.68,0Z" transform="translate(-2031.63 182.2)" fill="#3f92d1"/>
      <path d="M2225.83,128.73a1,1,0,0,1-.57.79L2221,132a2,2,0,0,1-.62.24h0a3.17,3.17,0,0,1-.69.07h0a3.5,3.5,0,0,1-.65-.07l-.1,0a2.12,2.12,0,0,1-.58-.22l-4.21-2.45a1.34,1.34,0,0,1-.41-.36h0a.72.72,0,0,1-.14-.4v2.33s0,.07,0,.11l0,.11.05.1,0,.07h0a.08.08,0,0,0,0,0l.12.12a1.08,1.08,0,0,0,.24.18l0,0,4.21,2.45a2.65,2.65,0,0,0,.42.18l.16,0,.09,0,.11,0,.25,0h.59l.18,0,.19,0,0,0h0l.12,0,.22-.08.28-.13,4.25-2.45a1,1,0,0,0,.56-.79Z" transform="translate(-2031.63 182.2)" fill="#084c94"/>
      <path d="M2214.12,128c-.75.43-.76,1.13,0,1.56l4.21,2.45a3,3,0,0,0,2.69,0l4.25-2.45c.74-.43.76-1.13,0-1.56l-4.22-2.45a3,3,0,0,0-2.7,0Z" transform="translate(-2031.63 182.2)" fill="#3f92d1"/>
      <path d="M2283.85,105a1,1,0,0,1-.57.79L2279,108.2a2,2,0,0,1-.62.24h0a3.94,3.94,0,0,1-.69.08h0a3.51,3.51,0,0,1-.66-.08l-.09,0a2.78,2.78,0,0,1-.59-.23l-4.21-2.45a1.22,1.22,0,0,1-.41-.36h0a.72.72,0,0,1-.14-.4v2.33a.41.41,0,0,0,0,.11l0,.1a.37.37,0,0,0,.05.11l0,.07h0l0,0,.12.12a1.55,1.55,0,0,0,.24.19h0l4.21,2.45a2.68,2.68,0,0,0,.42.19l.17,0,.09,0,.11,0,.24,0h.59l.18,0,.19,0h.08l.11,0,.23-.07a2.44,2.44,0,0,0,.28-.14l4.25-2.45a1,1,0,0,0,.56-.79Z" transform="translate(-2031.63 182.2)" fill="#084c94"/>
      <path d="M2272.14,104.19c-.75.43-.76,1.13,0,1.56l4.21,2.45a3,3,0,0,0,2.69,0l4.25-2.46c.74-.43.76-1.13,0-1.56l-4.22-2.45a3,3,0,0,0-2.7,0Z" transform="translate(-2031.63 182.2)" fill="#3f92d1"/>
      <path d="M2275.26,109.93a1,1,0,0,1-.56.78l-4.25,2.45a2.67,2.67,0,0,1-.62.24h0a3.27,3.27,0,0,1-.7.08h0a3.51,3.51,0,0,1-.66-.07l-.09,0a2.18,2.18,0,0,1-.59-.22l-4.22-2.45a1.29,1.29,0,0,1-.4-.36l0,0a.76.76,0,0,1-.13-.4v2.32h0v0a.45.45,0,0,0,0,.11l0,.1a.37.37,0,0,0,0,.11l0,.06v0l0,0a.68.68,0,0,0,.12.12.84.84,0,0,0,.23.18h0l4.22,2.46a3,3,0,0,0,.41.18l.17,0,.09,0,.11,0a2,2,0,0,0,.24,0l.21,0h.39l.18,0,.19,0,.06,0h0l.11,0,.23-.08.28-.13,4.25-2.46a.93.93,0,0,0,.55-.77Z" transform="translate(-2031.63 182.2)" fill="#084c94"/>
      <path d="M2263.54,109.14a.83.83,0,0,0,0,1.57l4.22,2.45a3,3,0,0,0,2.7,0l4.25-2.45a.83.83,0,0,0,0-1.56l-4.2-2.45a3,3,0,0,0-2.7,0Z" transform="translate(-2031.63 182.2)" fill="#3f92d1"/>
      <path d="M2266.62,114.87h0a.75.75,0,0,1-.15.44,1.31,1.31,0,0,1-.44.39L2249.87,125a2.66,2.66,0,0,1-.65.25h0a3.65,3.65,0,0,1-.74.09h0a4.06,4.06,0,0,1-.7-.08l-.09,0a2.11,2.11,0,0,1-.62-.24l-4.06-2.36a1.25,1.25,0,0,1-.43-.38h0a.72.72,0,0,1-.15-.43v2.34s0,.07,0,.11a.56.56,0,0,0,0,.12l.05.11a.43.43,0,0,1,0,.07h0l0,0,.13.14a1.8,1.8,0,0,0,.25.18l0,0,4.07,2.36a2.28,2.28,0,0,0,.45.2l.17,0,.09,0,.11,0,.26,0h.62l.2,0,.21,0,.05,0h0l.13,0,.25-.08.28-.13L2266,118a1,1,0,0,0,.6-.83Z" transform="translate(-2031.63 182.2)" fill="#084c94"/>
      <path d="M2243,121a.87.87,0,0,0,0,1.65L2247,125a3.15,3.15,0,0,0,2.85,0L2266,115.7a.87.87,0,0,0,0-1.64L2262,111.7a3.15,3.15,0,0,0-2.85,0Z" transform="translate(-2031.63 182.2)" fill="#3f92d1"/>
      <path d="M2243.75,128.74a1,1,0,0,1-.56.79l-4.25,2.45a2.67,2.67,0,0,1-.62.24h0a3.1,3.1,0,0,1-.69.08h0a3.51,3.51,0,0,1-.66-.07l-.1,0a2.12,2.12,0,0,1-.58-.22l-4.21-2.46a1.31,1.31,0,0,1-.41-.35v0a.76.76,0,0,1-.13-.4v2.34s0,.07,0,.1a.2.2,0,0,0,0,.11.54.54,0,0,0,0,.11l0,.06v0l0,0,.12.13.24.18h0l4.21,2.46a2.2,2.2,0,0,0,.41.18l.17,0,.09,0,.1,0,.25,0,.21,0h.39l.18,0,.19,0,.06,0h0l.11,0,.23-.08.28-.13,4.25-2.46a1,1,0,0,0,.56-.78Z" transform="translate(-2031.63 182.2)" fill="#084c94"/>
      <path d="M2232.05,128c-.76.44-.76,1.13,0,1.56l4.21,2.46a3,3,0,0,0,2.7,0l4.25-2.45c.74-.43.76-1.13,0-1.56l-4.23-2.45a2.94,2.94,0,0,0-2.69,0Z" transform="translate(-2031.63 182.2)" fill="#3f92d1"/>
      <path d="M2234.76,133.94a1,1,0,0,1-.56.78l-4.25,2.45a2.67,2.67,0,0,1-.62.24h0a3.1,3.1,0,0,1-.69.08h0a3.51,3.51,0,0,1-.66-.07l-.09,0a2.18,2.18,0,0,1-.59-.22l-4.22-2.45a1.47,1.47,0,0,1-.41-.36v0a.76.76,0,0,1-.13-.4v2.34a.45.45,0,0,0,0,.11l0,.1a.37.37,0,0,0,0,.11l0,.06v0l0,0,.11.12a1.08,1.08,0,0,0,.24.18h0l4.22,2.46a3,3,0,0,0,.41.18l.17,0,.09,0,.11,0a2,2,0,0,0,.24,0l.21,0h.39l.18,0,.19,0,.06,0h0l.11,0,.23-.08.28-.13,4.25-2.46a.93.93,0,0,0,.55-.77Z" transform="translate(-2031.63 182.2)" fill="#084c94"/>
      <path d="M2223,133.15a.83.83,0,0,0,0,1.57l4.22,2.45a3,3,0,0,0,2.7,0l4.25-2.45a.83.83,0,0,0,0-1.56L2230,130.7a3,3,0,0,0-2.7,0Z" transform="translate(-2031.63 182.2)" fill="#3f92d1"/>
      <path d="M2290.73,112A1.28,1.28,0,0,1,2290,113l-7.89,4.54a3,3,0,0,1-.83.32h0a4.82,4.82,0,0,1-.93.11h0a5.16,5.16,0,0,1-.89-.1l-.12,0a3.25,3.25,0,0,1-.79-.31l-4.37-2.54a.91.91,0,0,1-.16-.11c-.06,0-.13-.09-.18-.14a1,1,0,0,1-.2-.22l0,0a.9.9,0,0,1-.12-.24v0a.75.75,0,0,1,0-.26v2.34a.77.77,0,0,0,0,.15.29.29,0,0,0,0,.09v.05a1,1,0,0,0,.07.15.43.43,0,0,1,0,.07l0,0,0,0a.85.85,0,0,0,.16.17h0l.18.14.13.09,0,0,4.38,2.54a3.17,3.17,0,0,0,.56.25l.23,0,.12,0,.13,0,.33,0,.28,0a.65.65,0,0,0,.14,0h0a.27.27,0,0,0,.09,0h.25l.25,0,.25,0,.08,0h0l.15,0,.31-.1a2.53,2.53,0,0,0,.37-.18l7.89-4.54a1.29,1.29,0,0,0,.75-1.06Z" transform="translate(-2031.63 182.2)" fill="#084c94"/>
      <path d="M2274.11,112.93c-1,.58-1,1.52,0,2.1l4.37,2.54a4,4,0,0,0,3.62,0L2290,113a1.11,1.11,0,0,0,0-2.1l-4.37-2.54a4,4,0,0,0-3.63,0Z" transform="translate(-2031.63 182.2)" fill="#3f92d1"/>
      <path d="M2277.71,119.54h0a.76.76,0,0,1-.17.5,1.42,1.42,0,0,1-.51.45l-5.52,3.19a2.91,2.91,0,0,1-.75.28h0a3.86,3.86,0,0,1-.84.09h0a3.42,3.42,0,0,1-.79-.09l-.11,0a3,3,0,0,1-.71-.27l-4.74-2.76a1.62,1.62,0,0,1-.49-.43v0a.86.86,0,0,1-.17-.49v2.34a.59.59,0,0,0,0,.13.5.5,0,0,0,0,.13l.06.13a.35.35,0,0,1,.05.08l0,0,0,0a1.07,1.07,0,0,0,.14.16,2.43,2.43,0,0,0,.29.21l0,0,4.74,2.75a2.94,2.94,0,0,0,.51.23l.19,0,.12,0,.12,0,.3.05h.72l.22,0,.23,0,.07,0h0l.14,0,.28-.1a2,2,0,0,0,.33-.16l5.52-3.18a1.18,1.18,0,0,0,.68-1Z" transform="translate(-2031.63 182.2)" fill="#084c94"/>
      <path d="M2263.52,119a1,1,0,0,0,0,1.89l4.74,2.76a3.63,3.63,0,0,0,3.26,0l5.52-3.19c.9-.52.92-1.37,0-1.89l-4.73-2.75a3.54,3.54,0,0,0-3.26,0Z" transform="translate(-2031.63 182.2)" fill="#3f92d1"/>
      <path d="M2267,125.69a1.24,1.24,0,0,1-.72,1l-6.48,3.74a3.09,3.09,0,0,1-.79.3h0a4.41,4.41,0,0,1-.89.1h0a3.86,3.86,0,0,1-.84-.1l-.12,0a2.93,2.93,0,0,1-.75-.29l-4.53-2.63a.83.83,0,0,1-.15-.11l-.18-.12a1.3,1.3,0,0,1-.19-.22l0,0a.76.76,0,0,1-.11-.22v0a.73.73,0,0,1,0-.25v2.34s0,.09,0,.14l0,.09v.05l.06.13.05.07,0,0s0,0,0,0l.15.16h0a1.09,1.09,0,0,0,.17.13l.12.09,0,0,4.53,2.63a2.61,2.61,0,0,0,.54.24l.21,0,.12,0a.7.7,0,0,0,.14,0l.31.05.27,0h.26l.24,0,.24,0,.24,0,.07,0h0l.14,0,.3-.1a2.21,2.21,0,0,0,.35-.16l6.47-3.74a1.23,1.23,0,0,0,.73-1Z" transform="translate(-2031.63 182.2)" fill="#084c94"/>
      <path d="M2251.81,125.79c-1,.56-1,1.46,0,2l4.53,2.63a3.8,3.8,0,0,0,3.46,0l6.48-3.74a1.07,1.07,0,0,0,0-2l-4.53-2.63a3.81,3.81,0,0,0-3.48,0Z" transform="translate(-2031.63 182.2)" fill="#3f92d1"/>
      <path d="M2252,133.58a1,1,0,0,1-.6.83L2238.34,142a2.66,2.66,0,0,1-.65.25h0a3.55,3.55,0,0,1-.73.08h0a3.17,3.17,0,0,1-.69-.08l-.1,0a2.35,2.35,0,0,1-.61-.24l-4.07-2.36a1.48,1.48,0,0,1-.43-.38v0a.7.7,0,0,1-.15-.42v2.34s0,.07,0,.11a.49.49,0,0,0,0,.11.61.61,0,0,0,0,.12l0,.06v0l0,0,.12.13a1.74,1.74,0,0,0,.26.19h0l4.06,2.37a2.25,2.25,0,0,0,.45.19l.17.05.1,0,.11,0,.25,0,.23,0h.4l.19,0,.2,0h.09l.12,0,.24-.08a2.75,2.75,0,0,0,.3-.14l13.09-7.55a1,1,0,0,0,.59-.83Z" transform="translate(-2031.63 182.2)" fill="#084c94"/>
      <path d="M2231.44,138c-.79.46-.8,1.19,0,1.65l4.07,2.36a3.09,3.09,0,0,0,2.84,0l13.09-7.55c.79-.45.8-1.19,0-1.64l-4.06-2.37a3.15,3.15,0,0,0-2.85,0Z" transform="translate(-2031.63 182.2)" fill="#3f92d1"/>
      <path d="M2216.67,134a1,1,0,0,1-.56.79l-4.25,2.46a2.41,2.41,0,0,1-.62.23h0a3.17,3.17,0,0,1-.69.08h0a3,3,0,0,1-.66-.08l-.09,0a2.12,2.12,0,0,1-.58-.22l-4.22-2.46a1.16,1.16,0,0,1-.4-.35v0a.69.69,0,0,1-.14-.4v2.34s0,.07,0,.11l0,.1.06.11,0,.06,0,0s0,0,0,0l.12.13a1.8,1.8,0,0,0,.25.18h0l4.22,2.46a2.2,2.2,0,0,0,.41.18l.17,0,.09,0,.1,0,.25,0,.21,0h.39l.18,0,.19,0h.09l.11,0,.23-.07a1.69,1.69,0,0,0,.27-.13l4.25-2.46a1,1,0,0,0,.57-.79Z" transform="translate(-2031.63 182.2)" fill="#084c94"/>
      <path d="M2205,133.24c-.75.43-.75,1.12,0,1.55l4.22,2.46a3,3,0,0,0,2.7,0l4.25-2.46c.74-.43.75-1.12,0-1.55l-4.22-2.46a3,3,0,0,0-2.69,0Z" transform="translate(-2031.63 182.2)" fill="#3f92d1"/>
      <path d="M2233.88,144.05a1,1,0,0,1-.6.83l-4.08,2.36a2.74,2.74,0,0,1-.66.25h0a3.65,3.65,0,0,1-.74.08h0a3.19,3.19,0,0,1-.7-.08l-.1,0a2.35,2.35,0,0,1-.61-.24L2214,140a1.46,1.46,0,0,1-.43-.37v0a.78.78,0,0,1-.14-.43v2.34a.49.49,0,0,0,0,.12l0,.11.06.12,0,.06v0l0,0,.12.13a1.64,1.64,0,0,0,.25.19h0l12.38,7.21a2.17,2.17,0,0,0,.44.19l.18.05.1,0,.1,0,.26,0,.22,0h.41l.2,0,.21,0,.06,0h0l.13,0,.25-.09.28-.13,4.09-2.36a1,1,0,0,0,.59-.84Z" transform="translate(-2031.63 182.2)" fill="#084c94"/>
      <path d="M2214,138.39a.87.87,0,0,0,0,1.64l12.39,7.21a3.17,3.17,0,0,0,2.86,0l4.08-2.36a.88.88,0,0,0,0-1.66L2220.91,136a3.14,3.14,0,0,0-2.86,0Z" transform="translate(-2031.63 182.2)" fill="#3f92d1"/>
    </g>
    <g style="isolation: isolate">
      <polygon points="219.73 205.07 219.75 209.88 194.35 224.54 194.34 219.74 219.73 205.07" fill="#fff"/>
      <polygon points="188.28 232.02 188.29 237.37 183.64 240.06 183.62 234.71 188.28 232.02" fill="#a8cff0"/>
      <path d="M2214.09,51.84l7-4,0,8-7,4Zm5.84,3.33,0-5.35-4.66,2.69,0,5.35,4.66-2.69" transform="translate(-2031.63 182.2)" fill="#fff"/>
      <polygon points="180.16 236.71 180.18 242.06 175.52 244.75 175.5 239.4 180.16 236.71" fill="#a8cff0"/>
      <path d="M2225.35,21.41l46.22-26.68,0,6.15-46.23,26.69ZM2270.42.21V-3.26l-43.9,25.34v3.47L2270.42.21" transform="translate(-2031.63 182.2)" fill="#fff"/>
      <polygon points="238.78 178.94 238.79 182.41 194.89 207.75 194.88 204.28 238.78 178.94" fill="#a8cff0"/>
      <path d="M2206,56.53l7-4,0,8-7,4Zm5.85,3.33,0-5.35-4.65,2.68v5.36l4.66-2.69" transform="translate(-2031.63 182.2)" fill="#fff"/>
      <polygon points="172.04 241.4 172.06 246.75 167.39 249.44 167.38 244.09 172.04 241.4" fill="#a8cff0"/>
      <polygon points="268.37 151.84 268.38 155.29 194.86 197.74 194.85 194.28 268.37 151.84" fill="#a8cff0"/>
      <path d="M2197.84,61.22l7-4,0,8-7,4Zm5.85,3.32,0-5.35-4.66,2.7v5.35l4.67-2.7" transform="translate(-2031.63 182.2)" fill="#fff"/>
      <polygon points="163.93 246.08 163.94 251.43 159.27 254.13 159.26 248.78 163.93 246.08" fill="#a8cff0"/>
      <path d="M2189.72,65.91l7-4,0,8-7,4Zm5.85,3.32V63.88l-4.67,2.69v5.36l4.67-2.7" transform="translate(-2031.63 182.2)" fill="#fff"/>
      <path d="M2225.29,1.38l75.84-43.79,0,6.16L2225.31,7.54ZM2300-36.91v-3.47L2226.46,2.06V5.53L2300-36.91" transform="translate(-2031.63 182.2)" fill="#fff"/>
      <polygon points="268.34 141.82 268.35 145.29 194.84 187.74 194.83 184.26 268.34 141.82" fill="#a8cff0"/>
      <polygon points="268.31 131.8 268.32 135.28 194.81 177.72 194.8 174.25 268.31 131.8" fill="#a8cff0"/>
      <path d="M2225.26-8.62l75.85-43.79v6.15L2225.28-2.47ZM2300-46.93V-50.4L2226.43-8v3.48L2300-46.93" transform="translate(-2031.63 182.2)" fill="#fff"/>
      <polygon points="188.13 178.1 188.27 227.39 159.24 244.15 159.1 194.86 188.13 178.1" fill="#a8cff0"/>
      <path d="M2189.57,12l31.35-18.1.15,52L2189.72,64Zm30.33,33.2-.14-49.29-29,16.75.14,49.3,29-16.76" transform="translate(-2031.63 182.2)" fill="#fff"/>
      <path d="M2183,6.16l128-73.93.23,80.91-128,73.93Zm38.05,39.7-.15-52L2189.57,12l.15,52,31.35-18.1m80.08-82.11,0-6.16L2225.29,1.38l0,6.16,75.84-43.79m0,10,0-6.16L2225.32,11.4l0,6.16,75.84-43.79m-.06-20v-6.15L2225.26-8.62l0,6.15,75.84-43.79M2271.59.88l0-6.15-46.22,26.68v6.16L2271.59.88m-20.21,26.8,0-4.81L2226,37.53v4.81l25.4-14.66M2196.74,69.9l0-8-7,4,0,8,7-4M2213,60.52l0-8-7,4,0,8,7-4m-8.12,4.69,0-8-7,4,0,8,7-4m16.23-9.38,0-8-7,4,0,8,7-4" transform="translate(-2031.63 182.2)" fill="#a8cff0"/>
      <path d="M2225.32,11.4l75.84-43.79,0,6.16-75.84,43.79ZM2300-26.91v-3.46l-73.51,42.45v3.45L2300-26.91" transform="translate(-2031.63 182.2)" fill="#fff"/>
      <polygon points="279.4 102.05 279.43 114.44 151.38 188.36 151.35 175.97 279.4 102.05" fill="#3f92d1"/>
    </g>
    <g>
      <polygon points="468.35 57 468.38 65.98 375.5 119.6 375.47 110.62 468.35 57" fill="#084c94"/>
      <g style="isolation: isolate">
        <polygon points="462.83 86.91 462.84 90.38 417.61 116.5 417.6 113.03 462.83 86.91" fill="#54abdc"/>
        <path d="M2407.13-62.6,2500-116.23l.16,58.7L2407.3-3.91Zm36.7,30.4L2443.7-77l-31.35,18.1.13,44.81,31.35-18.1m51.81-59V-97.3l-47.57,27.46,0,6.15,47.56-27.47m0-9.66,0-6.15L2448-79.51l0,6.15,47.57-27.46m-21,31.46v-6.15l-26.56,15.33,0,6.15,26.55-15.33m-.53,19,0-4.8-25.38,14.65,0,4.81,25.38-14.66" transform="translate(-2031.63 182.2)" fill="#54abdc"/>
        <path d="M2448.09-60.18l26.56-15.33v6.15L2448.11-54Zm25.4-9.85V-73.5l-24.22,14V-56l24.22-14" transform="translate(-2031.63 182.2)" fill="#fff"/>
        <polygon points="441.85 108.71 441.86 112.18 417.63 126.17 417.62 122.69 441.85 108.71" fill="#54abdc"/>
        <path d="M2448.06-69.84l47.57-27.46v6.14l-47.56,27.47Zm46.42-22v-3.47l-45.24,26.11v3.48l45.24-26.12" transform="translate(-2031.63 182.2)" fill="#fff"/>
        <path d="M2448-79.51,2495.6-107l0,6.15-47.57,27.46Zm46.42-22V-105L2449.2-78.84v3.47l45.24-26.12" transform="translate(-2031.63 182.2)" fill="#fff"/>
        <polygon points="462.81 77.24 462.82 80.72 417.58 106.83 417.57 103.36 462.81 77.24" fill="#54abdc"/>
      </g>
      <path d="M2412.35-58.91,2443.7-77l.13,44.81-31.35,18.1Zm30.31,26.05L2442.54-75l-29,16.76.12,42.13,29-16.75" transform="translate(-2031.63 182.2)" fill="#fff"/>
      <polygon points="410.91 107.21 411.03 149.34 382.01 166.1 381.89 123.96 410.91 107.21" fill="#54abdc"/>
      <polygon points="442.48 127.03 442.5 131.84 417.11 146.49 417.1 141.68 442.48 127.03" fill="#fff"/>
    </g>
    <g>
      <polygon points="346.41 94.11 346.43 103.09 253.56 156.72 253.53 147.74 346.41 94.11" fill="#084c94"/>
      <g style="isolation: isolate">
        <polygon points="340.89 124.03 340.9 127.5 295.67 153.61 295.65 150.14 340.89 124.03" fill="#54abdc"/>
        <path d="M2285.19-25.49l92.87-53.62.17,58.69-92.88,53.63Zm36.7,30.41-.13-44.81-31.35,18.1.13,44.81,31.35-18.1m51.81-59,0-6.15-47.56,27.46,0,6.15L2373.7-54m0-9.67v-6.14l-47.57,27.46,0,6.14,47.56-27.46m-21,31.46,0-6.14-26.55,15.33v6.15l26.56-15.34m-.53,19,0-4.81L2326.79-3.4V1.4l25.39-14.65" transform="translate(-2031.63 182.2)" fill="#54abdc"/>
        <path d="M2326.15-23.06l26.55-15.33,0,6.14-26.56,15.34Zm25.4-9.85v-3.47l-24.23,14v3.47l24.23-14" transform="translate(-2031.63 182.2)" fill="#fff"/>
        <polygon points="319.91 145.82 319.92 149.29 295.69 163.28 295.68 159.81 319.91 145.82" fill="#54abdc"/>
        <path d="M2326.12-32.73l47.56-27.46,0,6.15-47.56,27.46Zm46.41-22v-3.47l-45.23,26.12v3.47l45.23-26.12" transform="translate(-2031.63 182.2)" fill="#fff"/>
        <path d="M2326.09-42.39l47.57-27.46v6.14l-47.56,27.46Zm46.42-22v-3.47l-45.24,26.11v3.47l45.24-26.11" transform="translate(-2031.63 182.2)" fill="#fff"/>
        <polygon points="340.87 114.36 340.88 117.83 295.64 143.95 295.63 140.48 340.87 114.36" fill="#54abdc"/>
      </g>
      <path d="M2290.41-21.79l31.35-18.1.13,44.81L2290.54,23Zm30.31,26-.12-42.13-29,16.75L2291.7,21l29-16.76" transform="translate(-2031.63 182.2)" fill="#fff"/>
      <polygon points="288.97 144.32 289.09 186.46 260.06 203.21 259.94 161.08 288.97 144.32" fill="#54abdc"/>
      <polygon points="320.54 164.14 320.55 168.95 295.17 183.61 295.16 178.8 320.54 164.14" fill="#fff"/>
    </g>
    <g>
      <path d="M2200.9,153.24l31.35-18.1.13,44.81L2201,198.05Zm30.31,26-.12-42.12-29,16.75.12,42.13,29-16.76" transform="translate(-2031.63 182.2)" fill="#fff"/>
      <g style="isolation: isolate">
        <path d="M2236.64,152l26.55-15.34,0,6.15-26.56,15.33Zm25.4-9.85v-3.48l-24.22,14v3.47l24.22-14" transform="translate(-2031.63 182.2)" fill="#fff"/>
        <polygon points="230.4 320.85 230.41 324.32 206.19 338.3 206.18 334.83 230.4 320.85" fill="#54abdc"/>
        <polygon points="251.39 299.05 251.4 302.52 206.16 328.64 206.16 325.17 251.39 299.05" fill="#54abdc"/>
        <polygon points="251.37 289.38 251.38 292.85 206.14 318.97 206.13 315.5 251.37 289.38" fill="#54abdc"/>
        <path d="M2236.58,132.64l47.58-27.47,0,6.14-47.58,27.47Zm46.43-22v-3.47l-45.24,26.11v3.48L2283,110.65" transform="translate(-2031.63 182.2)" fill="#fff"/>
        <path d="M2195.68,149.54l92.87-53.62.17,58.69-92.88,53.62Zm36.7,30.41-.13-44.81-31.35,18.1.13,44.81,31.35-18.1m51.82-59v-6.15l-47.58,27.47,0,6.15L2284.2,121m0-9.67,0-6.14-47.58,27.47,0,6.14,47.58-27.47m-21,31.47,0-6.15L2236.64,152v6.14l26.56-15.33m-.52,19,0-4.81-25.39,14.66v4.81l25.4-14.66" transform="translate(-2031.63 182.2)" fill="#54abdc"/>
        <path d="M2236.61,142.3l47.58-27.47V121l-47.57,27.47Zm46.42-22v-3.47L2237.79,143v3.47L2283,120.31" transform="translate(-2031.63 182.2)" fill="#fff"/>
        <polygon points="199.46 319.35 199.58 361.47 170.55 378.23 170.44 336.11 199.46 319.35" fill="#54abdc"/>
        <polygon points="256.9 269.13 256.92 278.12 164.04 331.74 164.02 322.75 256.9 269.13" fill="#084c94"/>
      </g>
      <polygon points="231.04 339.17 231.06 343.98 205.66 358.64 205.65 353.83 231.04 339.17" fill="#fff"/>
    </g>
    <g>
      <g style="isolation: isolate">
        <polygon points="411.44 203.41 411.44 206.89 366.21 233 366.2 229.53 411.44 203.41" fill="#54abdc"/>
        <path d="M2361,67.26l31.35-18.1.13,44.81-31.35,18.11Zm30.3,26.06-.12-42.14-29,16.75.12,42.14,29-16.75" transform="translate(-2031.63 182.2)" fill="#fff"/>
        <path d="M2355.76,63.58,2448.63,10l.17,58.68-92.88,53.62ZM2392.46,94l-.13-44.81L2361,67.26l.13,44.82L2392.46,94m51.81-59,0-6.14-47.56,27.46,0,6.15L2444.27,35m0-9.66V19.2l-47.57,27.46,0,6.15,47.56-27.46m-20.95,31.46,0-6.15L2396.72,66v6.14l26.56-15.33m-.53,19,0-4.81-25.39,14.66v4.81l25.4-14.66" transform="translate(-2031.63 182.2)" fill="#54abdc"/>
        <path d="M2396.72,66l26.55-15.34,0,6.15-26.56,15.33Zm25.4-9.86V52.67l-24.23,14v3.47l24.23-14" transform="translate(-2031.63 182.2)" fill="#fff"/>
        <polygon points="390.48 234.88 390.49 238.35 366.26 252.34 366.25 248.87 390.48 234.88" fill="#54abdc"/>
        <path d="M2396.69,56.33l47.56-27.46,0,6.14-47.56,27.47Zm46.41-22V30.88L2397.86,57v3.48l45.23-26.12" transform="translate(-2031.63 182.2)" fill="#fff"/>
        <polygon points="411.46 213.08 411.47 216.55 366.23 242.67 366.22 239.2 411.46 213.08" fill="#54abdc"/>
        <path d="M2396.66,46.66l47.57-27.46v6.15l-47.56,27.46Zm46.42-22V21.21l-45.24,26.12V50.8l45.24-26.12" transform="translate(-2031.63 182.2)" fill="#fff"/>
        <polygon points="359.53 233.38 359.65 275.52 330.63 292.27 330.51 250.13 359.53 233.38" fill="#54abdc"/>
        <polygon points="416.98 183.17 417 192.16 324.13 245.78 324.1 236.79 416.98 183.17" fill="#084c94"/>
      </g>
      <polygon points="391.11 253.21 391.12 258.02 365.73 272.68 365.72 267.87 391.11 253.21" fill="#fff"/>
    </g>
    <g>
      <polygon points="146.99 220.44 147.11 262.57 118.09 279.33 117.97 237.19 146.99 220.44" fill="#54abdc"/>
      <polygon points="178.57 240.26 178.58 245.07 153.2 259.72 153.18 254.91 178.57 240.26" fill="#fff"/>
      <g style="isolation: isolate">
        <path d="M2184.17,53.05l26.56-15.33,0,6.15L2184.19,59.2Zm25.41-9.85V39.73l-24.23,14v3.47l24.23-14" transform="translate(-2031.63 182.2)" fill="#fff"/>
        <path d="M2184.14,43.39l47.58-27.47,0,6.14-47.58,27.47Zm46.42-22V17.93l-45.24,26.12v3.47l45.24-26.12" transform="translate(-2031.63 182.2)" fill="#fff"/>
        <polygon points="198.89 190.47 198.9 193.94 153.66 220.06 153.65 216.59 198.89 190.47" fill="#54abdc"/>
        <path d="M2148.43,54.32l31.35-18.1.13,44.81-31.35,18.1Zm30.31,26.05-.12-42.14L2149.6,55l.12,42.13,29-16.75" transform="translate(-2031.63 182.2)" fill="#fff"/>
        <path d="M2143.21,50.62,2236.09-3l.17,58.7-92.88,53.62ZM2179.91,81l-.13-44.81-31.35,18.1.13,44.81L2179.91,81m51.8-68.63,0-6.15-47.57,27.47v6.15l47.58-27.47m0,9.66,0-6.14-47.58,27.47,0,6.14,47.58-27.47m-21,21.81,0-6.15-26.56,15.33,0,6.15,26.56-15.33m-.54,19V58.05l-25.39,14.66,0,4.81,25.38-14.66" transform="translate(-2031.63 182.2)" fill="#54abdc"/>
        <polygon points="177.94 221.93 177.95 225.4 153.72 239.39 153.71 235.92 177.94 221.93" fill="#54abdc"/>
        <polygon points="198.92 200.14 198.93 203.61 153.69 229.73 153.68 226.25 198.92 200.14" fill="#54abdc"/>
        <path d="M2184.12,33.72l47.57-27.47,0,6.15-47.58,27.47Zm46.41-22V8.27l-45.24,26.12v3.47l45.24-26.12" transform="translate(-2031.63 182.2)" fill="#fff"/>
        <polygon points="204.43 170.23 204.46 179.21 111.58 232.83 111.56 223.85 204.43 170.23" fill="#084c94"/>
      </g>
    </g>
    <g>
      <polygon points="35.44 219.57 35.56 261.71 6.53 278.46 6.42 236.33 35.44 219.57" fill="#54abdc"/>
      <polygon points="67.01 239.4 67.03 244.2 41.64 258.86 41.63 254.05 67.01 239.4" fill="#fff"/>
      <g style="isolation: isolate">
        <path d="M2072.62,52.19l26.55-15.33,0,6.14-26.56,15.34Zm25.4-9.85V38.87l-24.23,14v3.47l24.23-14" transform="translate(-2031.63 182.2)" fill="#fff"/>
        <path d="M2072.59,42.52l47.58-27.46V21.2l-47.57,27.47Zm46.41-22V17.07l-45.23,26.12v3.47L2119,20.54" transform="translate(-2031.63 182.2)" fill="#fff"/>
        <polygon points="87.33 189.61 87.34 193.08 42.11 219.2 42.1 215.73 87.33 189.61" fill="#54abdc"/>
        <path d="M2036.88,53.46l31.35-18.1.13,44.81L2037,98.27Zm30.31,26-.12-42.13-29,16.75.12,42.14,29-16.76" transform="translate(-2031.63 182.2)" fill="#fff"/>
        <path d="M2031.66,49.76l92.87-53.62.17,58.69-92.88,53.63Zm36.7,30.41-.13-44.81-31.35,18.1.13,44.81,31.35-18.1m51.8-68.63,0-6.15-47.58,27.47,0,6.14,47.58-27.46m0,9.66V15.06l-47.58,27.46,0,6.15,47.57-27.47m-21,21.8,0-6.14-26.55,15.33v6.15L2099.19,43m-.53,19,0-4.81-25.38,14.66v4.8L2098.66,62" transform="translate(-2031.63 182.2)" fill="#54abdc"/>
        <polygon points="66.38 221.07 66.39 224.54 42.16 238.53 42.15 235.06 66.38 221.07" fill="#54abdc"/>
        <polygon points="87.36 199.28 87.37 202.75 42.13 228.86 42.13 225.39 87.36 199.28" fill="#54abdc"/>
        <path d="M2072.56,32.86l47.58-27.47,0,6.15L2072.58,39Zm46.42-22V7.41l-45.24,26.11V37L2119,10.88" transform="translate(-2031.63 182.2)" fill="#fff"/>
        <polygon points="92.88 169.36 92.9 178.34 0.03 231.97 0 222.99 92.88 169.36" fill="#084c94"/>
      </g>
    </g>
    <g>
      <path d="M2306.71-115.9,2338.06-134l.12,44.82-31.35,18.1Zm30.31,26L2336.9-132l-29,16.76L2308-73.1l29-16.76" transform="translate(-2031.63 182.2)" fill="#fff"/>
      <polygon points="336.84 70.04 336.85 74.85 311.46 89.51 311.45 84.7 336.84 70.04" fill="#fff"/>
      <path d="M2342.44-117.17,2369-132.51l0,6.15L2342.46-111Zm25.41-9.86v-3.47l-24.23,14V-113l24.23-14" transform="translate(-2031.63 182.2)" fill="#fff"/>
      <g style="isolation: isolate">
        <path d="M2342.39-136.51,2390-164v6.15l-47.56,27.46Zm46.41-22V-162l-45.23,26.12v3.47l45.23-26.12" transform="translate(-2031.63 182.2)" fill="#fff"/>
        <path d="M2301.49-119.59l92.87-53.62.17,58.68-92.88,53.62Zm36.69,30.4-.12-44.82-31.35,18.11.12,44.81,31.35-18.1m51.82-59,0-6.14-47.56,27.46v6.15L2390-148.16m0-9.66V-164l-47.57,27.46,0,6.15L2390-157.82M2369-126.36l0-6.15-26.56,15.34,0,6.14L2369-126.36m-.54,19v-4.81L2343.08-97.5v4.81l25.39-14.66" transform="translate(-2031.63 182.2)" fill="#54abdc"/>
        <polygon points="336.21 51.71 336.22 55.18 311.99 69.17 311.98 65.69 336.21 51.71" fill="#54abdc"/>
        <path d="M2342.42-126.84,2390-154.3l0,6.14-47.57,27.47Zm46.41-22v-3.47l-45.24,26.12v3.47l45.24-26.12" transform="translate(-2031.63 182.2)" fill="#fff"/>
        <polygon points="357.19 29.91 357.2 33.38 311.96 59.5 311.95 56.03 357.19 29.91" fill="#54abdc"/>
        <polygon points="357.16 20.25 357.17 23.72 311.94 49.84 311.93 46.36 357.16 20.25" fill="#54abdc"/>
      </g>
      <polygon points="305.26 50.21 305.38 92.34 276.36 109.1 276.24 66.97 305.26 50.21" fill="#54abdc"/>
      <polygon points="362.71 0 362.73 8.99 269.85 62.61 269.83 53.62 362.71 0" fill="#084c94"/>
    </g>
    <g>
      <g style="isolation: isolate">
        <polygon points="66.46 114.6 66.47 118.07 42.25 132.05 42.24 128.58 66.46 114.6" fill="#54abdc"/>
        <polygon points="87.45 92.8 87.46 96.27 42.22 122.39 42.21 118.92 87.45 92.8" fill="#54abdc"/>
        <path d="M2031.73-56.71l92.89-53.63.17,58.7L2031.9,2Zm36.7,30.41-.12-44.81L2037-53l.12,44.81,31.35-18.1m51.83-59,0-6.15-47.56,27.47v6.14l47.57-27.46m0-9.67v-6.14l-47.57,27.46,0,6.15,47.56-27.47m-21,31.47,0-6.15L2072.7-54.29l0,6.15,26.55-15.33m-.53,19v-4.81l-25.39,14.66v4.81l25.39-14.66" transform="translate(-2031.63 182.2)" fill="#54abdc"/>
        <path d="M2072.7-54.29l26.55-15.33,0,6.15-26.55,15.33Zm25.4-9.84v-3.48l-24.22,14v3.47l24.22-14" transform="translate(-2031.63 182.2)" fill="#fff"/>
        <polygon points="87.42 83.13 87.43 86.6 42.2 112.72 42.19 109.25 87.42 83.13" fill="#54abdc"/>
      </g>
      <polygon points="35.52 113.1 35.63 155.24 6.61 171.99 6.49 129.86 35.52 113.1" fill="#54abdc"/>
      <path d="M2037-53l31.35-18.1.12,44.81L2037.08-8.2Zm30.31,26-.12-42.13-29,16.75.12,42.14,29-16.76" transform="translate(-2031.63 182.2)" fill="#fff"/>
      <path d="M2072.68-63.95l47.56-27.47,0,6.15-47.57,27.46Zm46.41-22v-3.47l-45.24,26.12v3.47l45.24-26.12" transform="translate(-2031.63 182.2)" fill="#fff"/>
      <polygon points="92.97 62.87 92.99 71.86 0.1 125.49 0.08 116.5 92.97 62.87" fill="#084c94"/>
      <path d="M2072.65-73.62l47.57-27.46v6.14l-47.56,27.47Zm46.42-22v-3.47L2073.82-73v3.48l45.24-26.12" transform="translate(-2031.63 182.2)" fill="#fff"/>
      <polygon points="67.1 132.92 67.11 137.72 41.72 152.39 41.71 147.58 67.1 132.92" fill="#fff"/>
    </g>
    <g>
      <g style="isolation: isolate">
        <polygon points="210.76 56.21 210.77 59.68 186.55 73.67 186.54 70.19 210.76 56.21" fill="#54abdc"/>
        <polygon points="231.75 34.41 231.76 37.88 186.52 64 186.51 60.53 231.75 34.41" fill="#54abdc"/>
        <path d="M2176-115.1l92.89-53.63.17,58.7L2176.2-56.4Zm36.7,30.41-.13-44.81-31.35,18.1.13,44.81,31.35-18.1m51.83-59,0-6.14L2217-122.34l0,6.15,47.57-27.47m0-9.66,0-6.15L2217-132v6.15l47.57-27.46m-21,31.46,0-6.14L2217-112.68l0,6.15,26.55-15.33m-.53,19v-4.8L2217.63-93l0,4.81L2243-102.87" transform="translate(-2031.63 182.2)" fill="#54abdc"/>
        <path d="M2217-112.68,2243.55-128l0,6.14L2217-106.53Zm25.4-9.84V-126l-24.22,14v3.47l24.22-14" transform="translate(-2031.63 182.2)" fill="#fff"/>
        <polygon points="231.72 24.74 231.73 28.21 186.49 54.33 186.48 50.86 231.72 24.74" fill="#54abdc"/>
      </g>
      <polygon points="179.81 54.71 179.93 96.85 150.91 113.6 150.79 71.47 179.81 54.71" fill="#54abdc"/>
      <path d="M2181.25-111.4l31.35-18.1.13,44.81-31.35,18.1Zm30.31,26-.12-42.13-29,16.76.12,42.13,29-16.76" transform="translate(-2031.63 182.2)" fill="#fff"/>
      <path d="M2217-122.34l47.57-27.46,0,6.14L2217-116.19Zm46.42-22v-3.47l-45.24,26.11v3.48l45.24-26.12" transform="translate(-2031.63 182.2)" fill="#fff"/>
      <polygon points="237.26 4.49 237.29 13.48 144.4 67.11 144.38 58.12 237.26 4.49" fill="#084c94"/>
      <path d="M2217-132l47.56-27.46,0,6.15L2217-125.86Zm46.41-22v-3.47l-45.24,26.12v3.47L2263.36-154" transform="translate(-2031.63 182.2)" fill="#fff"/>
      <polygon points="211.4 74.53 211.41 79.34 186.02 94 186 89.19 211.4 74.53" fill="#fff"/>
    </g>
  </g>
</svg>
