<svg xmlns="http://www.w3.org/2000/svg" xmlns:xlink="http://www.w3.org/1999/xlink" viewBox="0 0 545.48 376.87">
  <defs>
    <linearGradient id="a" x1="-360.25" y1="9175.14" x2="-388.85" y2="9229.65" gradientTransform="translate(23.5 9301.44) rotate(180)" gradientUnits="userSpaceOnUse">
      <stop offset="0" stop-color="#afb6e5"/>
      <stop offset="0.14" stop-color="#b6bce8"/>
      <stop offset="0.35" stop-color="#c8cdf1"/>
      <stop offset="0.58" stop-color="#e5e9ff"/>
      <stop offset="0.95" stop-color="#f5f4fc"/>
      <stop offset="1" stop-color="#f7f6fb"/>
    </linearGradient>
  </defs>
  <g>
    <polygon points="445.3 325.51 495.05 354.48 545.48 325.47 495.68 296.47 445.3 325.51" fill="#2672ab"/>
    <polygon points="360.35 243.07 410.1 272.05 460.52 243.03 410.72 214.03 360.35 243.07" fill="#2672ab"/>
    <g>
      <polygon points="339.41 291.74 363.06 278.22 297.54 240.4 348.89 210.5 293.41 178.56 262.75 196.18 164.84 139.82 19.82 223.52 146.19 297.56 127.56 308.22 246.47 376.87 367.25 307.81 339.41 291.74" fill="#2672ab"/>
      <path d="M-2446.42-55.49c-18.93,0-34.27,9.2-34.27,20.56s15.34,20.56,34.27,20.56,34.27-9.21,34.27-20.56S-2427.49-55.49-2446.42-55.49Z" transform="translate(2480.69 177.34)" fill="#2672ab"/>
      <path d="M-2435.11-127.33c-18.93,0-34.27,9.21-34.27,20.56s15.34,20.56,34.27,20.56,34.27-9.2,34.27-20.56S-2416.18-127.33-2435.11-127.33Z" transform="translate(2480.69 177.34)" fill="#2672ab"/>
      <g>
        <path d="M-2235,190.28s-20.06-8.44-26.75-12.3l-79.37-45.82,117.44-67.81,82.34,47.54c6,3.43,23.78,10.59,23.78,10.59Z" transform="translate(2480.69 177.34)" fill="#d1ebff"/>
        <path d="M-2237.74,158.33s-39-17.3-52-24.83l-54-31.16,117.44-67.81,64.14,37c10.5,6.05,41.87,19,41.87,19Z" transform="translate(2480.69 177.34)" fill="#a8cff0"/>
        <g>
          <path d="M-2221.73,64.74l2.72,1.34,1.69.87c.4.22.69.4.85.51a1.1,1.1,0,0,1,.29.27s0,.1-.16.26-.27.33-.42.52-.29.36-.43.51l-.24.25a1.62,1.62,0,0,1-.74.21c-.4.06-.88.11-1.44.16s-1.18.09-1.84.12-1.28.06-1.86.07l-1.52,0c-.43,0-.72,0-.86,0a.52.52,0,0,0-.39.16c-.08.09-.08.15,0,.18l.84.35a5.15,5.15,0,0,1,.92.51,3.4,3.4,0,0,1,.73.68,1.12,1.12,0,0,1,.26.85,1.9,1.9,0,0,1-.54,1,6.13,6.13,0,0,1-1.59,1.19c-.48.28-1.1.6-1.86,1s-1.58.69-2.46,1-1.81.64-2.8.92a20.67,20.67,0,0,1-2.84.61,12.84,12.84,0,0,1-2.59.12,4.66,4.66,0,0,1-2.06-.56,2.9,2.9,0,0,1-1-.87,2.55,2.55,0,0,1-.42-1,1.35,1.35,0,0,1,.08-.85,1,1,0,0,1,.55-.56,4.49,4.49,0,0,1,.83-.27,5.61,5.61,0,0,1,.81-.13,1.54,1.54,0,0,0,.54,1.39,2.86,2.86,0,0,0,1.56.5,8.91,8.91,0,0,0,2.22-.18,21.92,21.92,0,0,0,2.48-.62c.82-.25,1.59-.54,2.33-.84a15.7,15.7,0,0,0,1.78-.87c.48-.28.72-.53.72-.76a.79.79,0,0,0-.45-.63,5,5,0,0,0-1.2-.48c-.5-.14-1-.26-1.45-.37l-1.23-.27a1.68,1.68,0,0,1-.57-.18.44.44,0,0,1,0-.39,2.73,2.73,0,0,1,.22-.46,2.77,2.77,0,0,1,.27-.4.73.73,0,0,1,.19-.2,2.5,2.5,0,0,1,1-.33c.53-.1,1.16-.19,1.9-.26s1.52-.15,2.37-.22l2.44-.17,2.1-.14c.62,0,1.06-.1,1.34-.15a.31.31,0,0,0,.23-.12c.06-.07.05-.13,0-.16a8.93,8.93,0,0,0-.91-.44c-.44-.2-.87-.42-1.31-.67a7.52,7.52,0,0,1-1.08-.76q-.45-.4-.21-.72s.08-.07.32-.17.52-.2.81-.29l.78-.21C-2221.77,64.67-2221.68,64.67-2221.73,64.74Z" transform="translate(2480.69 177.34)" fill="#2c1d1b"/>
          <path d="M-2208.38,71.23a1.59,1.59,0,0,1,1,1.64,4.51,4.51,0,0,1-1.13,2.19,16.7,16.7,0,0,1-2.7,2.46,32.68,32.68,0,0,1-3.77,2.42,45.26,45.26,0,0,1-4.31,2.11,31.59,31.59,0,0,1-4.33,1.51,17.67,17.67,0,0,1-3.86.63,5.25,5.25,0,0,1-2.82-.55,1.79,1.79,0,0,1-1.11-1.73,4,4,0,0,1,1.12-2.2,15.46,15.46,0,0,1,2.78-2.4,35.12,35.12,0,0,1,3.87-2.37,45.57,45.57,0,0,1,4.41-2.06,37.83,37.83,0,0,1,4.4-1.47,19.13,19.13,0,0,1,3.82-.64A4.79,4.79,0,0,1-2208.38,71.23ZM-2228.07,82a3.93,3.93,0,0,0,2.71.12,21.65,21.65,0,0,0,4-1.31,45.43,45.43,0,0,0,4.37-2.17,43.12,43.12,0,0,0,3.87-2.45,13.43,13.43,0,0,0,2.46-2.19c.53-.66.58-1.11.16-1.35a3.4,3.4,0,0,0-2.36.08,26.88,26.88,0,0,0-3.85,1.38q-2.14.95-4.38,2.17t-4,2.39a16.63,16.63,0,0,0-2.63,2.1Q-2228.61,81.71-2228.07,82Z" transform="translate(2480.69 177.34)" fill="#2c1d1b"/>
          <path d="M-2208.33,86.89a14.61,14.61,0,0,1-3,1.24,27.93,27.93,0,0,1-3.51.84,19.56,19.56,0,0,1-3.22.32,4.52,4.52,0,0,1-2.1-.36,3.63,3.63,0,0,1-1.17-1,2,2,0,0,1-.37-1.18,2.11,2.11,0,0,1,.5-1.22,4.8,4.8,0,0,1,1.44-1.17.28.28,0,0,1,.29,0,1.28,1.28,0,0,1,.29.24,1.85,1.85,0,0,1,.25.32,2.12,2.12,0,0,0,.16.23,3,3,0,0,0-.8,1.72.92.92,0,0,0,.68.85,4.12,4.12,0,0,0,1.73.13,12.14,12.14,0,0,0,2.31-.44,19.06,19.06,0,0,0,2.41-.83,14.51,14.51,0,0,0,2.09-1.05c.61-.39.92-.78.94-1.18a1.27,1.27,0,0,0-.53-1,4.2,4.2,0,0,0-1.5-.73,6.19,6.19,0,0,0-2-.23.42.42,0,0,1-.17-.2c0-.09-.07-.2-.12-.31l-.13-.39a3,3,0,0,1,.83-.6c.5-.29,1.09-.62,1.78-1s1.44-.75,2.26-1.14,1.57-.77,2.29-1.09,1.33-.6,1.84-.8a3.88,3.88,0,0,1,1-.29,5.53,5.53,0,0,1,.91.17,7.13,7.13,0,0,1,1.17.44c.45.22,1,.51,1.65.89s1.44.87,2.39,1.48a1.89,1.89,0,0,1-.15.3,2.81,2.81,0,0,1-.36.47,3.27,3.27,0,0,1-.53.42,1.17,1.17,0,0,1-.69.18,4,4,0,0,1-.62-.21c-.3-.11-.63-.25-1-.42l-1.17-.55-1.14-.55-.9-.42-.42-.19s-.18,0-.42,0a2.58,2.58,0,0,0-.52.13c-.61.32-1.18.61-1.72.87s-1.1.54-1.69.84a.47.47,0,0,0-.21.28c0,.13,0,.21.13.24a6.33,6.33,0,0,1,2.59,1.18,2.18,2.18,0,0,1,.87,1.54,2.56,2.56,0,0,1-.68,1.68A7.3,7.3,0,0,1-2208.33,86.89Z" transform="translate(2480.69 177.34)" fill="#2c1d1b"/>
          <path d="M-2193.72,90.77a.44.44,0,0,1-.15.33,1.86,1.86,0,0,1-.42.35c-.17.11-.36.21-.56.32l-.53.27a1.53,1.53,0,0,1-.81,0,8.17,8.17,0,0,1-1-.36c-.36-.15-.69-.3-1-.46l-.65-.34a1.05,1.05,0,0,0-.37,0,.92.92,0,0,0-.37.1,7.82,7.82,0,0,0-.8.51c-.25.18-.5.36-.76.53a8.54,8.54,0,0,1-.82.5,5.31,5.31,0,0,1-.94.4,2.37,2.37,0,0,1-.42-.05,4.74,4.74,0,0,1-.5-.15,2.24,2.24,0,0,1-.41-.2.43.43,0,0,1-.19-.23,2,2,0,0,1,.47-.44l.93-.72c.34-.26.65-.49,1-.7s.49-.34.6-.4.1-.1.13-.22,0-.17-.08-.2c-.41-.21-.82-.43-1.22-.66s-.77-.48-1.14-.74c-.17,0-.23-.1-.17-.23a1.06,1.06,0,0,1,.32-.44,4,4,0,0,1,.56-.44,1.37,1.37,0,0,1,.5-.24,2.63,2.63,0,0,1,.69.18c.34.11.7.25,1.06.4l1,.44.56.27a1.2,1.2,0,0,0,.51,0,1.35,1.35,0,0,0,.49-.15,9,9,0,0,0,.83-.55c.31-.22.65-.44,1-.65a11,11,0,0,1,1.05-.58,2.82,2.82,0,0,1,1-.31,1,1,0,0,1,.48,0,1.36,1.36,0,0,1,.46.25.92.92,0,0,1,.27.38.61.61,0,0,1-.06.45,7.46,7.46,0,0,1-1.33,1c-.58.36-1.1.69-1.57,1a.25.25,0,0,0-.11.2.14.14,0,0,0,.09.18c.48.22,1,.44,1.44.64A2.37,2.37,0,0,1-2193.72,90.77Z" transform="translate(2480.69 177.34)" fill="#2c1d1b"/>
          <path d="M-2186.88,99.27a14.14,14.14,0,0,1-3,1.25,27.12,27.12,0,0,1-3.51.84,19.37,19.37,0,0,1-3.22.31,4.36,4.36,0,0,1-2.09-.35,3.57,3.57,0,0,1-1.18-1,1.88,1.88,0,0,1-.36-1.18,2.09,2.09,0,0,1,.5-1.23,4.9,4.9,0,0,1,1.43-1.17.29.29,0,0,1,.3,0,1.93,1.93,0,0,1,.29.24,1.72,1.72,0,0,1,.24.31c.07.11.12.19.16.24a3,3,0,0,0-.8,1.72.94.94,0,0,0,.68.85,4.36,4.36,0,0,0,1.74.13,13.14,13.14,0,0,0,2.31-.44,20.21,20.21,0,0,0,2.41-.83,13.41,13.41,0,0,0,2.08-1.06c.61-.38.93-.78,1-1.17a1.27,1.27,0,0,0-.53-1,4,4,0,0,0-1.51-.73,6.16,6.16,0,0,0-2-.23.51.51,0,0,1-.17-.21l-.11-.31-.13-.39a3.24,3.24,0,0,1,.83-.6c.49-.29,1.08-.62,1.77-1s1.45-.75,2.26-1.15,1.58-.76,2.29-1.09,1.33-.59,1.85-.79a3.3,3.3,0,0,1,1-.29,7,7,0,0,1,.91.16,7.89,7.89,0,0,1,1.16.45c.46.22,1,.51,1.65.88s1.45.87,2.4,1.49a1.89,1.89,0,0,1-.15.3,2.41,2.41,0,0,1-.36.46,2.62,2.62,0,0,1-.54.43,1.21,1.21,0,0,1-.68.17,3.14,3.14,0,0,1-.62-.2c-.3-.11-.64-.25-1-.42s-.76-.35-1.16-.55l-1.14-.56c-.36-.17-.66-.31-.91-.41l-.41-.19a.87.87,0,0,0-.42,0,2.41,2.41,0,0,0-.52.13c-.62.32-1.19.61-1.72.86s-1.11.54-1.7.85a.47.47,0,0,0-.21.28c0,.13,0,.2.14.23a6.45,6.45,0,0,1,2.59,1.19,2.17,2.17,0,0,1,.86,1.54,2.55,2.55,0,0,1-.67,1.67A7.18,7.18,0,0,1-2186.88,99.27Z" transform="translate(2480.69 177.34)" fill="#2c1d1b"/>
          <path d="M-2172,93.46l2.73,1.34,1.68.87a7.34,7.34,0,0,1,.85.51,1.44,1.44,0,0,1,.3.27s-.05.1-.17.25l-.41.53c-.15.19-.3.36-.44.51l-.24.25a1.57,1.57,0,0,1-.73.21c-.41.06-.89.11-1.45.16s-1.17.09-1.84.12-1.28.06-1.86.07l-1.51,0c-.44,0-.73,0-.87,0a.5.5,0,0,0-.38.16c-.09.09-.08.15,0,.18l.85.35a5.52,5.52,0,0,1,.92.51,3.66,3.66,0,0,1,.73.68,1.16,1.16,0,0,1,.25.85,1.94,1.94,0,0,1-.53,1,6,6,0,0,1-1.6,1.19c-.48.28-1.1.6-1.85,1s-1.58.69-2.46,1-1.82.64-2.8.92a21.13,21.13,0,0,1-2.85.61,12.81,12.81,0,0,1-2.59.12,4.7,4.7,0,0,1-2.06-.56,3,3,0,0,1-1-.86,2.66,2.66,0,0,1-.42-1,1.46,1.46,0,0,1,.08-.86,1.09,1.09,0,0,1,.55-.55,4.75,4.75,0,0,1,.83-.27,5.52,5.52,0,0,1,.82-.13,1.48,1.48,0,0,0,.53,1.38,2.85,2.85,0,0,0,1.57.51,8.94,8.94,0,0,0,2.22-.18,20,20,0,0,0,2.48-.62c.81-.25,1.59-.54,2.32-.84a16.86,16.86,0,0,0,1.79-.87c.48-.28.71-.53.71-.76s-.15-.44-.45-.63a4.65,4.65,0,0,0-1.2-.48c-.5-.14-1-.26-1.45-.37l-1.22-.27a1.78,1.78,0,0,1-.58-.18.47.47,0,0,1,0-.39,3.81,3.81,0,0,1,.22-.46,2.77,2.77,0,0,1,.27-.4.92.92,0,0,1,.19-.2,2.67,2.67,0,0,1,1-.33c.54-.1,1.17-.19,1.9-.26s1.52-.15,2.37-.22l2.44-.17,2.1-.14c.62,0,1.07-.1,1.34-.15a.35.35,0,0,0,.24-.12c.05-.07.05-.13,0-.16a7.57,7.57,0,0,0-.9-.44,13.47,13.47,0,0,1-1.31-.67,6.54,6.54,0,0,1-1.08-.76c-.3-.27-.37-.51-.22-.72,0,0,.08-.07.33-.17s.51-.2.8-.29.55-.16.78-.21S-2171.93,93.39-2172,93.46Z" transform="translate(2480.69 177.34)" fill="#2c1d1b"/>
          <path d="M-2178.38,105.77a10.32,10.32,0,0,1,2.24-.89,20.63,20.63,0,0,1,2.79-.58,16.32,16.32,0,0,1,2.63-.16,3.85,3.85,0,0,1,1.78.35c.05,0,.09,0,.15,0s.07-.07.06-.1a1,1,0,0,1,.1-.57,4.55,4.55,0,0,1,.47-.84,7.21,7.21,0,0,1,.73-.9,3.93,3.93,0,0,1,.93-.75,10,10,0,0,1,1.9-.8,15.29,15.29,0,0,1,2.34-.54,11.74,11.74,0,0,1,2.26-.13,3.6,3.6,0,0,1,1.7.41,3.22,3.22,0,0,1,1,.84,2.44,2.44,0,0,1,.46,1.11,1.88,1.88,0,0,1-.23,1.2,3.22,3.22,0,0,1-1.21,1.11c-.5.29-1,.57-1.65.85a17.4,17.4,0,0,1-1.92.74,15.53,15.53,0,0,1-2.09.49,10,10,0,0,1-2.1.11,3.47,3.47,0,0,1-.67,1.87,6.35,6.35,0,0,1-2.19,1.86,14,14,0,0,1-2.85,1.18,26.89,26.89,0,0,1-3.6.83,18.49,18.49,0,0,1-3.49.22,5.33,5.33,0,0,1-2.51-.59,2.09,2.09,0,0,1-1-1.25,2.31,2.31,0,0,1,.2-1.56,6,6,0,0,1,1.35-1.73A13.27,13.27,0,0,1-2178.38,105.77Zm-.18,5.39a3.18,3.18,0,0,0,1.84.31,12.39,12.39,0,0,0,2.35-.39,21.22,21.22,0,0,0,2.25-.73,12.13,12.13,0,0,0,1.57-.71,5.36,5.36,0,0,0,1-.77,4.24,4.24,0,0,0,.75-.94,1.93,1.93,0,0,0,.27-.94,1,1,0,0,0-.37-.77,1.72,1.72,0,0,0-1-.46,8.89,8.89,0,0,0-1.88-.15,11.89,11.89,0,0,0-2.24.27,6.88,6.88,0,0,0-2.11.78,16,16,0,0,0-1.72,1.14,5,5,0,0,0-1.2,1.2,1.79,1.79,0,0,0-.36,1.15A1.46,1.46,0,0,0-2178.56,111.16Zm18.56-7.66a1.05,1.05,0,0,0,.41-.51,1.15,1.15,0,0,0,0-.61,1.64,1.64,0,0,0-.26-.57,1.27,1.27,0,0,0-.39-.38,2.72,2.72,0,0,0-1-.31,6.18,6.18,0,0,0-1.36,0,7.34,7.34,0,0,0-1.46.31,6.57,6.57,0,0,0-1.38.58,1.8,1.8,0,0,0-.58.63,4,4,0,0,0-.44.94,3.77,3.77,0,0,0-.19.92c0,.28,0,.45.17.53a2.45,2.45,0,0,0,1.57.23,10.43,10.43,0,0,0,1.94-.44,15.51,15.51,0,0,0,1.83-.72A10,10,0,0,0-2160,103.5Z" transform="translate(2480.69 177.34)" fill="#2c1d1b"/>
        </g>
        <g>
          <path d="M-2262.64,117.57a11,11,0,0,1,2.53-1,22.3,22.3,0,0,1,3.15-.66,19.72,19.72,0,0,1,3-.18,4.46,4.46,0,0,1,2,.39s.1,0,.17,0,.08-.08.07-.11a1,1,0,0,1,.11-.64,5.87,5.87,0,0,1,.53-1,8.94,8.94,0,0,1,.82-1,4.62,4.62,0,0,1,1.05-.84,10.79,10.79,0,0,1,2.15-.9,17,17,0,0,1,2.65-.61,13.29,13.29,0,0,1,2.55-.16,4.24,4.24,0,0,1,1.93.47,3.48,3.48,0,0,1,1.07,1,2.72,2.72,0,0,1,.54,1.25,2.18,2.18,0,0,1-.28,1.36,3.41,3.41,0,0,1-1.36,1.25c-.56.33-1.19.65-1.86,1a18.09,18.09,0,0,1-2.17.84,16.24,16.24,0,0,1-2.36.56,11.38,11.38,0,0,1-2.38.12,4,4,0,0,1-.75,2.11,7.36,7.36,0,0,1-2.48,2.11,16,16,0,0,1-3.23,1.33,27.5,27.5,0,0,1-4.06.93,20.2,20.2,0,0,1-3.95.26,5.86,5.86,0,0,1-2.83-.67,2.39,2.39,0,0,1-1.14-1.41,2.54,2.54,0,0,1,.24-1.76,6.35,6.35,0,0,1,1.52-2A14.58,14.58,0,0,1-2262.64,117.57Zm-.2,6.09a3.66,3.66,0,0,0,2.07.35,14.23,14.23,0,0,0,2.66-.45,24.6,24.6,0,0,0,2.55-.82,13.89,13.89,0,0,0,1.77-.81,5.84,5.84,0,0,0,1.15-.86,4.75,4.75,0,0,0,.84-1.07,2.08,2.08,0,0,0,.31-1.06,1.09,1.09,0,0,0-.41-.86,1.89,1.89,0,0,0-1.16-.53,9.05,9.05,0,0,0-2.12-.17,14.38,14.38,0,0,0-2.54.3,8.15,8.15,0,0,0-2.38.89,17.33,17.33,0,0,0-2,1.29,5.93,5.93,0,0,0-1.35,1.35,2,2,0,0,0-.4,1.31Q-2263.74,123.14-2262.84,123.66Zm21-8.66a1.16,1.16,0,0,0,.46-.58,1.16,1.16,0,0,0,0-.69,1.8,1.8,0,0,0-.3-.64,1.35,1.35,0,0,0-.43-.43,3,3,0,0,0-1.18-.35,6.52,6.52,0,0,0-1.53,0,8.6,8.6,0,0,0-1.66.34,7.06,7.06,0,0,0-1.56.67,2,2,0,0,0-.66.7,5.39,5.39,0,0,0-.5,1.06,4.36,4.36,0,0,0-.21,1c0,.32,0,.52.2.61a2.77,2.77,0,0,0,1.77.25,11.8,11.8,0,0,0,2.2-.5,17.68,17.68,0,0,0,2.06-.81A12.93,12.93,0,0,0-2241.87,115Z" transform="translate(2480.69 177.34)" fill="#2c1d1b"/>
          <path d="M-2250.21,130a.67.67,0,0,1-.24.78,3.28,3.28,0,0,1-1,.66,6.1,6.1,0,0,1-1.25.41,4.21,4.21,0,0,1-1,.12,1,1,0,0,1-.56-.27.61.61,0,0,1-.19-.46.92.92,0,0,1,.2-.53,1.55,1.55,0,0,1,.6-.48,10.23,10.23,0,0,1,1-.43,5.25,5.25,0,0,1,1-.31,2.07,2.07,0,0,1,.86,0A.79.79,0,0,1-2250.21,130Zm23.51-7.71a15.43,15.43,0,0,1-3.57,1.41c-1.43.39-2.88.72-4.36,1s-2.87.48-4.21.65l-3.21.43a6.63,6.63,0,0,0-2.21.74,22.64,22.64,0,0,0-2.41,1.58,1,1,0,0,1-.63.12,1.7,1.7,0,0,1-.6-.2,1.61,1.61,0,0,1-.44-.38.74.74,0,0,1-.2-.38.94.94,0,0,1,.36-.71,5.76,5.76,0,0,1,1.14-.86,14.85,14.85,0,0,1,1.85-1,24,24,0,0,1,2.43-.9c.29-.09.8-.19,1.52-.32l2.44-.39,2.9-.45c1-.16,2-.33,2.92-.51s1.77-.37,2.52-.57a7.22,7.22,0,0,0,1.7-.63,7,7,0,0,0,.85-.59,6.81,6.81,0,0,0,.82-.78,2.71,2.71,0,0,0,.47-.76.41.41,0,0,0-.2-.55,6.47,6.47,0,0,0-2.1-.76,17.18,17.18,0,0,0-2.32-.31,18.5,18.5,0,0,0-2.1,0c-.63,0-1.1.08-1.4.12a4.53,4.53,0,0,0-.94.36c-.3.16-.63.31-1,.47s-.51,0-.47-.12a1.55,1.55,0,0,1,.41-.6,7.45,7.45,0,0,1,.86-.75,3.44,3.44,0,0,1,.82-.5,14.61,14.61,0,0,1,2-.34,29.76,29.76,0,0,1,3-.2,22.72,22.72,0,0,1,3.2.15,6.67,6.67,0,0,1,2.58.77,1.74,1.74,0,0,1,1.06,1.43,2.91,2.91,0,0,1-.53,1.66,7,7,0,0,1-1.4,1.55A11.64,11.64,0,0,1-2226.7,122.26Z" transform="translate(2480.69 177.34)" fill="#2c1d1b"/>
        </g>
        <path d="M-2218.49,104.33c-.8-.69-2,.47-1.17,1.16,13.08,11.2.32,26.86-11.66,31.51-9.78,3.79-22.31,5.61-32.15,1.19s-14.67-15.32-5.29-23.49c4.37-3.81,10.38-5.68,16-6.72,12-2.21,22.74.82,33.73,5.29.22.09.32-.24.15-.35-12.91-9-33-9.76-46.77-2.26-12.23,6.64-13.63,20.88-.86,27.94s33.3,3.9,44.72-4.88C-2212.61,126.68-2208.84,112.65-2218.49,104.33Z" transform="translate(2480.69 177.34)" fill="#2c1d1b"/>
      </g>
      <g>
        <g>
          <g>
            <polygon points="309.68 204.64 170.56 284.95 25.26 199.83 163.1 120.27 309.68 204.64" fill="#d1ebff"/>
            <polygon points="309.68 204.64 341.04 149.81 194.46 65.44 163.1 120.27 309.68 204.64" fill="#a8cff0"/>
            <polygon points="307.88 199.04 335.47 150.82 196.11 70.61 168.52 118.84 307.88 199.04" fill="#084c94"/>
            <polygon points="305.01 191.34 322.27 162.62 192.7 87.49 175.44 116.2 305.01 191.34" fill="#a8cff0"/>
            <polygon points="25.26 199.83 25.26 221.08 171.84 305.45 171.84 284.2 25.26 199.83" fill="#084c94"/>
            <polygon points="309.67 204.64 171.84 284.2 171.84 305.45 320.57 218.76 350.64 166.26 341.04 149.81 309.67 204.64" fill="#0759a3"/>
          </g>
          <g>
            <g>
              <path d="M-2300.53-37.59l-2.79-.14-10.4-6c-2.15-1.24-5.93-1.08-8.41.35l-7.5,4.33-2.1-.11v2.82h0a2.47,2.47,0,0,0,1.43,2.18l11.74,6.77c2.14,1.24,5.93,1.09,8.41-.35l7.55-4.35a3.37,3.37,0,0,0,2-2.8h0Z" transform="translate(2480.69 177.34)" fill="#084c94"/>
              <path d="M-2318.54-30.09l-11.74-6.77c-2.15-1.24-1.88-3.43.6-4.86l7.55-4.36c2.48-1.43,6.26-1.59,8.41-.35l11.74,6.78c2.15,1.24,1.88,3.43-.6,4.86l-7.55,4.36C-2312.61-29-2316.4-28.85-2318.54-30.09Z" transform="translate(2480.69 177.34)" fill="#2672ab"/>
            </g>
            <g>
              <path d="M-2275.61-22.27l-2.79-.14-10.39-6c-2.15-1.24-5.94-1.09-8.42.35l-7.5,4.33-2.1-.11V-21h0a2.43,2.43,0,0,0,1.42,2.17l11.74,6.78c2.15,1.24,5.93,1.08,8.41-.35l7.55-4.36a3.38,3.38,0,0,0,2-2.79h0Z" transform="translate(2480.69 177.34)" fill="#084c94"/>
              <path d="M-2293.62-14.77l-11.74-6.78c-2.15-1.24-1.88-3.42.6-4.86l7.55-4.35c2.48-1.43,6.27-1.59,8.42-.35l11.73,6.78c2.15,1.24,1.88,3.42-.6,4.85l-7.55,4.36C-2287.69-13.69-2291.47-13.53-2293.62-14.77Z" transform="translate(2480.69 177.34)" fill="#2672ab"/>
            </g>
            <g>
              <path d="M-2249.61-7l-2.8-.14-10.39-6c-2.15-1.24-5.93-1.08-8.41.35l-7.5,4.33-2.1-.11v2.82h0a2.45,2.45,0,0,0,1.43,2.18l11.73,6.77c2.15,1.24,5.94,1.09,8.42-.35l7.55-4.35a3.41,3.41,0,0,0,2-2.8h0Z" transform="translate(2480.69 177.34)" fill="#2672ab"/>
              <path d="M-2267.63.54l-11.73-6.77c-2.15-1.24-1.88-3.43.6-4.86l7.55-4.36c2.48-1.43,6.26-1.59,8.41-.35L-2251.06-9c2.15,1.24,1.87,3.43-.6,4.86L-2259.21.2C-2261.69,1.63-2265.48,1.78-2267.63.54Z" transform="translate(2480.69 177.34)" fill="#a8cff0"/>
            </g>
            <g>
              <path d="M-2223.25,8.36l-2.8-.14-10.39-6c-2.15-1.24-5.93-1.09-8.41.35l-7.5,4.33-2.1-.11V9.61h0a2.43,2.43,0,0,0,1.43,2.17l11.73,6.78c2.15,1.24,5.94,1.08,8.42-.35l7.55-4.36a3.38,3.38,0,0,0,2-2.79h0Z" transform="translate(2480.69 177.34)" fill="#2672ab"/>
              <path d="M-2241.27,15.86-2253,9.08c-2.14-1.24-1.87-3.42.61-4.85l7.55-4.36c2.48-1.43,6.26-1.59,8.41-.35l11.74,6.78c2.15,1.24,1.87,3.42-.6,4.85l-7.55,4.36C-2235.33,16.94-2239.12,17.1-2241.27,15.86Z" transform="translate(2480.69 177.34)" fill="#a8cff0"/>
            </g>
            <g>
              <path d="M-2196.89,23.68l-2.8-.15-10.39-6c-2.15-1.24-5.93-1.08-8.41.35l-7.5,4.33-2.1-.1v2.81h0a2.45,2.45,0,0,0,1.43,2.18l11.73,6.77c2.15,1.24,5.94,1.09,8.42-.34l7.55-4.36a3.39,3.39,0,0,0,2-2.8h0Z" transform="translate(2480.69 177.34)" fill="#084c94"/>
              <path d="M-2214.91,31.18l-11.73-6.78c-2.15-1.24-1.88-3.43.6-4.86l7.55-4.36c2.48-1.43,6.26-1.59,8.41-.35l11.74,6.78c2.15,1.24,1.87,3.43-.6,4.86l-7.55,4.36C-2209,32.26-2212.76,32.42-2214.91,31.18Z" transform="translate(2480.69 177.34)" fill="#2672ab"/>
            </g>
          </g>
          <g>
            <g>
              <path d="M-2324.67-23.62l-2.79-.14-10.4-6c-2.14-1.24-5.93-1.09-8.41.35l-7.5,4.33-2.1-.11v2.82h0a2.45,2.45,0,0,0,1.43,2.17l11.74,6.78c2.15,1.24,5.93,1.08,8.41-.35l7.55-4.36a3.34,3.34,0,0,0,2-2.79h0Z" transform="translate(2480.69 177.34)" fill="#2672ab"/>
              <path d="M-2342.68-16.12l-11.74-6.78c-2.15-1.24-1.88-3.42.6-4.85l7.55-4.36c2.48-1.43,6.27-1.59,8.41-.35l11.74,6.78c2.15,1.24,1.88,3.42-.6,4.85l-7.55,4.36C-2336.75-15-2340.53-14.88-2342.68-16.12Z" transform="translate(2480.69 177.34)" fill="#a8cff0"/>
            </g>
            <g>
              <path d="M-2299.74-8.3l-2.8-.15-10.39-6c-2.15-1.24-5.94-1.08-8.42.35l-7.49,4.33-2.11-.1v2.81h0a2.45,2.45,0,0,0,1.42,2.18l11.74,6.77c2.15,1.24,5.94,1.09,8.42-.34l7.54-4.36a3.4,3.4,0,0,0,2-2.8h0Z" transform="translate(2480.69 177.34)" fill="#2672ab"/>
              <path d="M-2317.76-.8l-11.74-6.78c-2.14-1.24-1.87-3.43.61-4.86l7.54-4.36c2.48-1.43,6.27-1.59,8.42-.35l11.74,6.78c2.14,1.24,1.87,3.43-.61,4.86l-7.54,4.36C-2311.82.28-2315.61.44-2317.76-.8Z" transform="translate(2480.69 177.34)" fill="#a8cff0"/>
            </g>
            <g>
              <path d="M-2273.75,7l-2.79-.14-10.4-6c-2.15-1.24-5.93-1.08-8.41.35l-7.5,4.33-2.1-.11V8.26h0a2.45,2.45,0,0,0,1.43,2.17l11.74,6.78c2.14,1.24,5.93,1.08,8.41-.35l7.55-4.36a3.34,3.34,0,0,0,2-2.79h0Z" transform="translate(2480.69 177.34)" fill="#2672ab"/>
              <path d="M-2291.76,14.51l-11.74-6.78c-2.15-1.24-1.88-3.42.6-4.85l7.55-4.36c2.48-1.43,6.26-1.59,8.41-.35L-2275.2,5c2.15,1.24,1.88,3.42-.6,4.85l-7.55,4.36C-2285.83,15.59-2289.62,15.75-2291.76,14.51Z" transform="translate(2480.69 177.34)" fill="#a8cff0"/>
            </g>
            <g>
              <path d="M-2247.39,22.33l-2.79-.14-10.4-6c-2.15-1.24-5.93-1.08-8.41.35l-7.5,4.33-2.1-.1v2.81h0a2.46,2.46,0,0,0,1.43,2.17l11.74,6.77c2.14,1.24,5.93,1.09,8.41-.34l7.55-4.36a3.37,3.37,0,0,0,2-2.8h0Z" transform="translate(2480.69 177.34)" fill="#084c94"/>
              <path d="M-2265.4,29.83l-11.74-6.78c-2.15-1.24-1.88-3.43.6-4.86l7.55-4.36c2.48-1.43,6.26-1.59,8.41-.35l11.74,6.78c2.15,1.24,1.88,3.43-.6,4.86l-7.55,4.36C-2259.47,30.91-2263.26,31.07-2265.4,29.83Z" transform="translate(2480.69 177.34)" fill="#2672ab"/>
            </g>
            <g>
              <path d="M-2221,37.64l-2.79-.14-10.4-6c-2.15-1.24-5.93-1.08-8.41.35l-7.5,4.33-2.1-.11v2.82h0a2.45,2.45,0,0,0,1.43,2.17l11.74,6.78c2.14,1.24,5.93,1.08,8.41-.35l7.55-4.36a3.34,3.34,0,0,0,2-2.79h0Z" transform="translate(2480.69 177.34)" fill="#084c94"/>
              <path d="M-2239,45.14l-11.74-6.78c-2.15-1.24-1.88-3.42.6-4.85l7.55-4.36c2.48-1.43,6.26-1.59,8.41-.35l11.74,6.78c2.15,1.24,1.88,3.42-.6,4.86l-7.55,4.35C-2233.11,46.22-2236.9,46.38-2239,45.14Z" transform="translate(2480.69 177.34)" fill="#2672ab"/>
            </g>
          </g>
          <g>
            <g>
              <path d="M-2348.82-9.61l-2.79-.14-10.4-6c-2.14-1.24-5.93-1.09-8.41.35l-7.5,4.32-2.1-.1v2.82h0a2.46,2.46,0,0,0,1.43,2.17l11.74,6.78c2.15,1.24,5.93,1.08,8.41-.35l7.55-4.36a3.39,3.39,0,0,0,2-2.79h0Z" transform="translate(2480.69 177.34)" fill="#2672ab"/>
              <path d="M-2366.83-2.11l-11.74-6.78c-2.15-1.24-1.88-3.42.6-4.86l7.55-4.35c2.48-1.44,6.27-1.59,8.41-.35l11.74,6.78c2.15,1.24,1.88,3.42-.6,4.85l-7.55,4.36C-2360.9-1-2364.68-.87-2366.83-2.11Z" transform="translate(2480.69 177.34)" fill="#a8cff0"/>
            </g>
            <g>
              <path d="M-2323.89,5.7l-2.8-.14-10.39-6c-2.15-1.24-5.94-1.08-8.42.35L-2353,4.24l-2.11-.11V7h0a2.45,2.45,0,0,0,1.42,2.18l11.74,6.77c2.15,1.24,5.94,1.09,8.42-.35l7.54-4.35a3.4,3.4,0,0,0,2-2.8h0Z" transform="translate(2480.69 177.34)" fill="#2672ab"/>
              <path d="M-2341.91,13.2l-11.74-6.77c-2.14-1.24-1.87-3.43.61-4.86l7.55-4.36c2.47-1.43,6.26-1.59,8.41-.35l11.74,6.78c2.14,1.24,1.87,3.43-.61,4.86l-7.54,4.36C-2336,14.29-2339.76,14.44-2341.91,13.2Z" transform="translate(2480.69 177.34)" fill="#a8cff0"/>
            </g>
            <g>
              <path d="M-2297.9,21l-2.79-.14-10.4-6c-2.15-1.24-5.93-1.09-8.41.35l-7.5,4.33-2.1-.11v2.82h0a2.46,2.46,0,0,0,1.43,2.17l11.74,6.78c2.14,1.24,5.93,1.08,8.41-.35l7.55-4.36a3.34,3.34,0,0,0,2-2.79h0Z" transform="translate(2480.69 177.34)" fill="#2672ab"/>
              <path d="M-2315.91,28.52l-11.74-6.78c-2.15-1.24-1.88-3.42.6-4.86l7.55-4.35c2.48-1.43,6.26-1.59,8.41-.35l11.74,6.78c2.15,1.24,1.88,3.42-.6,4.85l-7.55,4.36C-2310,29.6-2313.77,29.76-2315.91,28.52Z" transform="translate(2480.69 177.34)" fill="#a8cff0"/>
            </g>
            <g>
              <path d="M-2271.54,36.33l-2.79-.14-10.4-6c-2.15-1.24-5.93-1.08-8.41.35l-7.5,4.33-2.1-.11v2.82h0a2.47,2.47,0,0,0,1.43,2.18l11.74,6.77c2.14,1.24,5.93,1.09,8.41-.35l7.55-4.35a3.37,3.37,0,0,0,2-2.8h0Z" transform="translate(2480.69 177.34)" fill="#084c94"/>
              <path d="M-2289.55,43.83l-11.74-6.77c-2.15-1.24-1.88-3.43.6-4.86l7.55-4.36c2.48-1.43,6.26-1.59,8.41-.35l11.74,6.78c2.15,1.24,1.88,3.43-.6,4.86l-7.55,4.36C-2283.62,44.92-2287.41,45.07-2289.55,43.83Z" transform="translate(2480.69 177.34)" fill="#2672ab"/>
            </g>
            <g>
              <path d="M-2245.18,51.65l-2.79-.14-10.4-6c-2.14-1.24-5.93-1.09-8.41.35l-7.5,4.33-2.1-.11V52.9h0a2.45,2.45,0,0,0,1.43,2.17l11.74,6.78c2.14,1.24,5.93,1.08,8.41-.35l7.55-4.36a3.34,3.34,0,0,0,2-2.79h0Z" transform="translate(2480.69 177.34)" fill="#084c94"/>
              <path d="M-2263.19,59.15l-11.74-6.78c-2.15-1.24-1.88-3.42.6-4.85l7.55-4.36c2.48-1.43,6.27-1.59,8.41-.35l11.74,6.78c2.15,1.24,1.88,3.42-.6,4.85l-7.55,4.36C-2257.26,60.23-2261,60.39-2263.19,59.15Z" transform="translate(2480.69 177.34)" fill="#2672ab"/>
            </g>
          </g>
          <g>
            <g>
              <path d="M-2372.95,4.35l-2.8-.14-10.39-6c-2.15-1.24-5.94-1.08-8.42.35L-2402,2.89l-2.11-.11V5.6h0a2.44,2.44,0,0,0,1.42,2.18l11.74,6.77c2.15,1.24,5.94,1.09,8.42-.34l7.54-4.36a3.4,3.4,0,0,0,2-2.8h0Z" transform="translate(2480.69 177.34)" fill="#2672ab"/>
              <path d="M-2391,11.86l-11.74-6.78c-2.14-1.24-1.87-3.43.61-4.86l7.54-4.36c2.48-1.43,6.27-1.59,8.42-.35l11.74,6.78c2.14,1.24,1.87,3.43-.61,4.86l-7.54,4.36C-2385,12.94-2388.82,13.09-2391,11.86Z" transform="translate(2480.69 177.34)" fill="#a8cff0"/>
            </g>
            <g>
              <path d="M-2348,19.67l-2.79-.14-10.4-6c-2.15-1.24-5.93-1.09-8.41.35l-7.5,4.33-2.1-.11v2.82h0a2.43,2.43,0,0,0,1.43,2.17l11.74,6.78c2.14,1.24,5.93,1.08,8.41-.35l7.55-4.36a3.34,3.34,0,0,0,2-2.79h0Z" transform="translate(2480.69 177.34)" fill="#2672ab"/>
              <path d="M-2366,27.17l-11.74-6.78c-2.15-1.24-1.88-3.42.6-4.86l7.55-4.35c2.48-1.43,6.26-1.59,8.41-.35l11.74,6.78c2.15,1.24,1.88,3.42-.6,4.85l-7.55,4.36C-2360.11,28.25-2363.9,28.41-2366,27.17Z" transform="translate(2480.69 177.34)" fill="#a8cff0"/>
            </g>
            <g>
              <path d="M-2322,35l-2.79-.15-10.4-6c-2.14-1.24-5.93-1.08-8.41.35l-7.5,4.33-2.1-.1v2.81h0a2.47,2.47,0,0,0,1.43,2.18l11.74,6.77c2.15,1.24,5.93,1.09,8.41-.34l7.55-4.36a3.4,3.4,0,0,0,2-2.8h0Z" transform="translate(2480.69 177.34)" fill="#2672ab"/>
              <path d="M-2340,42.49l-11.74-6.78c-2.15-1.24-1.88-3.43.6-4.86l7.55-4.36c2.48-1.43,6.27-1.59,8.41-.35l11.74,6.78c2.15,1.24,1.88,3.43-.6,4.86l-7.55,4.36C-2334.12,43.57-2337.9,43.73-2340,42.49Z" transform="translate(2480.69 177.34)" fill="#a8cff0"/>
            </g>
            <g>
              <path d="M-2269.32,65.62l-2.79-.14-10.39-6c-2.15-1.24-5.94-1.08-8.42.35l-7.5,4.33-2.1-.1v2.81h0a2.46,2.46,0,0,0,1.43,2.17l11.74,6.78c2.15,1.23,5.93,1.08,8.41-.35l7.55-4.36a3.4,3.4,0,0,0,2-2.8h0Z" transform="translate(2480.69 177.34)" fill="#084c94"/>
              <path d="M-2287.33,73.12l-11.74-6.78c-2.15-1.24-1.88-3.43.6-4.86l7.55-4.36c2.48-1.43,6.27-1.58,8.42-.35l11.73,6.78c2.15,1.24,1.88,3.43-.6,4.86l-7.55,4.36C-2281.4,74.2-2285.18,74.36-2287.33,73.12Z" transform="translate(2480.69 177.34)" fill="#2672ab"/>
            </g>
          </g>
          <g>
            <g>
              <path d="M-2396.89,18.32l-2.79-.14-10.4-6c-2.14-1.24-5.93-1.08-8.41.35l-7.5,4.33-2.1-.11v2.82h0a2.45,2.45,0,0,0,1.43,2.17l11.74,6.78c2.15,1.24,5.93,1.08,8.41-.35l7.55-4.36a3.38,3.38,0,0,0,2-2.79h0Z" transform="translate(2480.69 177.34)" fill="#2672ab"/>
              <path d="M-2414.9,25.82-2426.64,19c-2.15-1.24-1.88-3.42.6-4.85l7.55-4.36c2.48-1.43,6.27-1.59,8.41-.35l11.74,6.78c2.15,1.24,1.88,3.42-.6,4.85l-7.55,4.36C-2409,26.9-2412.75,27.06-2414.9,25.82Z" transform="translate(2480.69 177.34)" fill="#a8cff0"/>
            </g>
            <g>
              <path d="M-2372,33.64l-2.8-.14-10.39-6c-2.15-1.24-5.94-1.08-8.42.35l-7.49,4.33-2.11-.1v2.81h0a2.45,2.45,0,0,0,1.42,2.17l11.74,6.77c2.15,1.24,5.94,1.09,8.42-.34l7.54-4.36a3.4,3.4,0,0,0,2-2.8h0Z" transform="translate(2480.69 177.34)" fill="#2672ab"/>
              <path d="M-2390,41.14l-11.74-6.78c-2.14-1.24-1.87-3.43.61-4.86l7.54-4.36c2.48-1.43,6.27-1.59,8.42-.35l11.74,6.78c2.15,1.24,1.87,3.43-.61,4.86l-7.54,4.36C-2384,42.22-2387.83,42.38-2390,41.14Z" transform="translate(2480.69 177.34)" fill="#a8cff0"/>
            </g>
            <g>
              <path d="M-2346,49l-2.79-.14-10.4-6c-2.15-1.24-5.93-1.08-8.41.35l-7.5,4.33-2.1-.11V50.2h0a2.45,2.45,0,0,0,1.43,2.17l11.74,6.78c2.14,1.24,5.93,1.08,8.41-.35l7.55-4.36a3.34,3.34,0,0,0,2-2.79h0Z" transform="translate(2480.69 177.34)" fill="#2672ab"/>
              <path d="M-2364,56.45l-11.74-6.78c-2.15-1.24-1.88-3.42.6-4.85l7.55-4.36c2.48-1.43,6.26-1.59,8.41-.35l11.74,6.78c2.15,1.24,1.88,3.42-.6,4.85l-7.55,4.36C-2358,57.53-2361.84,57.69-2364,56.45Z" transform="translate(2480.69 177.34)" fill="#a8cff0"/>
            </g>
            <g>
              <path d="M-2293.25,79.58l-2.79-.14-10.4-6c-2.14-1.24-5.93-1.08-8.41.35l-7.5,4.33-2.1-.11v2.82h0A2.44,2.44,0,0,0-2323,83l11.74,6.78c2.14,1.24,5.93,1.08,8.41-.35l7.55-4.36a3.34,3.34,0,0,0,2-2.79h0Z" transform="translate(2480.69 177.34)" fill="#084c94"/>
              <path d="M-2311.26,87.08-2323,80.3c-2.15-1.24-1.88-3.42.6-4.85l7.55-4.36c2.48-1.43,6.27-1.59,8.41-.35l11.74,6.78c2.15,1.24,1.88,3.42-.6,4.86l-7.55,4.35C-2305.33,88.16-2309.12,88.32-2311.26,87.08Z" transform="translate(2480.69 177.34)" fill="#2672ab"/>
            </g>
          </g>
          <g>
            <path d="M-2298.47,50.16l-10.39-6c-2.15-1.24-5.94-1.08-8.42.35,0,0-21.45,12.53-23.93,14l-7.5,4.33-2.1-.1v2.82h0a2.46,2.46,0,0,0,1.43,2.17l11.74,6.78c2.14,1.24,5.93,1.08,8.41-.35l5.32-3.07h0l2.23-1.28.11-.08,21-12.27,2.79-1.62a3.38,3.38,0,0,0,2-2.79h0V50.3Z" transform="translate(2480.69 177.34)" fill="#2672ab"/>
            <path d="M-2297.13,48.24l-11.73-6.78c-2.15-1.24-5.94-1.08-8.42.35l-3.83,2.21h0l-27.64,16.1c-2.48,1.43-2.75,3.62-.6,4.86l11.74,6.78c2.14,1.24,5.93,1.08,8.41-.35l31.48-18.33C-2295.25,51.66-2295,49.48-2297.13,48.24Z" transform="translate(2480.69 177.34)" fill="#a8cff0"/>
          </g>
        </g>
        <path d="M-2394,3.67l1.77,1,5.45-3.14-1.53-.89,1.35-.78a11.52,11.52,0,0,0,2.9.68l1.38.8-7.66,4.42,1.53.89-1.77,1-5.19-3Z" transform="translate(2480.69 177.34)" fill="#084c94"/>
        <path d="M-2368.62,19.83c4.36-.11,7.44-.2,8.77-1,.92-.53,1-1.08.27-1.49a4.67,4.67,0,0,0-2.41-.28l.14-1.27a7.15,7.15,0,0,1,4.24.71c1.61.93,1.51,2.25-.3,3.29-1.59.92-4.57,1.16-7.5,1.32a13.61,13.61,0,0,1,1.48.72l1.65.95-1.85,1.06-5.74-3.32Z" transform="translate(2480.69 177.34)" fill="#084c94"/>
        <path d="M-2343.31,34.73l2.25-.3a1.55,1.55,0,0,0,.84,1.58,2.44,2.44,0,0,0,2.44.12c.83-.47.93-1-.85-2.05l1.54-.89c1.47.85,2.44.83,3.19.39s.69-.81,0-1.18a4.64,4.64,0,0,0-2.36-.4l.38-1.32a7.51,7.51,0,0,1,3.78.79c1.68,1,1.88,2.16.23,3.11a4.82,4.82,0,0,1-3.45.42l-.06,0c.62.72.53,1.56-.69,2.26a6,6,0,0,1-5.78-.16C-2343.13,36.37-2343.52,35.53-2343.31,34.73Z" transform="translate(2480.69 177.34)" fill="#084c94"/>
        <path d="M-2322,55.2l-2.26-1.3,1.54-.89,2.26,1.3,2.73-1.57,1.39.8-2.73,1.57,2.27,1.31-1.55.89-2.26-1.3-2.73,1.57-1.39-.8Z" transform="translate(2480.69 177.34)" fill="#084c94"/>
        <path d="M-2290.87,33.46l1.54-.9,5.92,3.41-1.54.89Z" transform="translate(2480.69 177.34)" fill="#d1ebff"/>
        <path d="M-2389.9,31c3.21-1.85,6-2.13,7.77-1.12s1.28,2.64-1.93,4.49-6.1,2.17-7.85,1.16S-2393.11,32.83-2389.9,31Zm4.05,2.34c2.58-1.49,2.67-2.11,2-2.48s-1.71-.32-4.29,1.17-2.74,2.16-2.11,2.53S-2388.42,34.8-2385.85,33.32Z" transform="translate(2480.69 177.34)" fill="#084c94"/>
        <path d="M-2416.09,16.11l5.92,3.41-1.55.89-5.91-3.41Zm3.45-2,5.91,3.41-1.54.89-5.91-3.41Z" transform="translate(2480.69 177.34)" fill="#084c94"/>
        <path d="M-2362.22,47.23a2.72,2.72,0,0,1,2.53-.14c.65.38.55,1-.24,1.46a2.74,2.74,0,0,1-2.51.13C-2363.1,48.3-2363,47.67-2362.22,47.23Z" transform="translate(2480.69 177.34)" fill="#084c94"/>
        <path d="M-2366.69-9.53l-3.54-2,1.5-.87,8.66-1.55,2.31,1.34-5.51,3.18.94.54L-2364-8l-.94-.54-2.26,1.3-1.76-1Zm1.66-1,1.54-.88c.6-.35,1.56-.85,2.18-1.18l-.05,0-2.26.53-3.13.56Z" transform="translate(2480.69 177.34)" fill="#084c94"/>
        <path d="M-2345,5.21l2.22-.31a1.58,1.58,0,0,0,.83,1.56,2.82,2.82,0,0,0,2.85,0c1-.55.93-1.15.17-1.59a3.67,3.67,0,0,0-1.68-.42l-.23-.85,5-2.62,4.63,2.67L-2333,4.67l-3-1.73-1.91.94a3.33,3.33,0,0,1,1.14.39c1.4.81,1.67,2-.33,3.19a6.61,6.61,0,0,1-6.29.18C-2344.75,6.87-2345.07,6-2345,5.21Z" transform="translate(2480.69 177.34)" fill="#084c94"/>
        <path d="M-2315.8,18.36c3.53-2,6.69-2,8.42-1a2,2,0,0,1,1.25,2l-2.3.19a1.13,1.13,0,0,0-.61-1.13c-.89-.52-2.35-.5-4.62.73a4.87,4.87,0,0,1,2.63.37c1.4.81,1.5,1.93-.49,3.08a6.22,6.22,0,0,1-5.87.26C-2319,21.93-2319.11,20.27-2315.8,18.36Zm2.56,3.23c1-.58.92-1.05.3-1.41a3.3,3.3,0,0,0-2.17-.17c-1.31.95-1.25,1.54-.68,1.87A2.62,2.62,0,0,0-2313.24,21.59Z" transform="translate(2480.69 177.34)" fill="#084c94"/>
        <path d="M-2337.15-26.36l-3.66-2.11,1.84-1.06,5.68,3.28-1.34.77c-4.53.43-6.57,1.3-10.39,3.34l-1.9-1.09A26.29,26.29,0,0,1-2337.15-26.36Z" transform="translate(2480.69 177.34)" fill="#084c94"/>
        <path d="M-2319.71-9.38a5.76,5.76,0,0,1,3.71-.54l.06,0a1.84,1.84,0,0,1,1.13-1.92,5.36,5.36,0,0,1,5.22,0c1.49.86,1.45,2-.11,2.92a5.68,5.68,0,0,1-3.13.57l-.06,0c.29.73.2,1.52-1.05,2.24a5.81,5.81,0,0,1-5.51-.16C-2321.08-7.19-2321.23-8.5-2319.71-9.38Zm4.08,2.23c.84-.48.45-1.06-.07-1.95a4.59,4.59,0,0,0-2.13.51c-.83.48-.75,1.09-.07,1.49A2.28,2.28,0,0,0-2315.63-7.15Zm4.25-2.59c.73-.42.85-.92.23-1.27a2,2,0,0,0-2,.1c-.77.44-.58,1-.11,1.68A4.39,4.39,0,0,0-2311.38-9.74Z" transform="translate(2480.69 177.34)" fill="#084c94"/>
        <path d="M-2295.56,6.41l2.31-.17a1.09,1.09,0,0,0,.59,1.11c.91.53,2.36.51,4.63-.72a5,5,0,0,1-2.63-.37c-1.39-.8-1.51-1.93.48-3.08a6.19,6.19,0,0,1,5.88-.26c1.58.91,1.73,2.57-1.58,4.48-3.52,2-6.71,2-8.41,1A2.07,2.07,0,0,1-2295.56,6.41Zm9-.66c1.32-1,1.27-1.53.69-1.87a2.62,2.62,0,0,0-2.56.29c-1,.58-.9,1.06-.28,1.41A3.13,3.13,0,0,0-2286.59,5.75Z" transform="translate(2480.69 177.34)" fill="#084c94"/>
        <path d="M-2266.57,21.33l2.31-.46-.66-1.22,1.36-.45,1.13,1.07,1.92-.92,1,.58-1.6,1.11,1.85.64-.76.8-2.11-.38-.79,1.32-1.44-.07.3-1.36-2.37.16Z" transform="translate(2480.69 177.34)" fill="#d1ebff"/>
        <path d="M-2239.67,37.83a2.31,2.31,0,0,1,2.18-.06c.6.34.57.87-.1,1.26a2.31,2.31,0,0,1-2.18.06C-2240.36,38.75-2240.34,38.21-2239.67,37.83Zm1.53-3.1,5.91,3.42-1.54.89-5.92-3.41Zm3.82,0a2.34,2.34,0,0,1,2.18-.06c.59.34.57.88-.1,1.26a2.33,2.33,0,0,1-2.19.06C-2235,35.66-2235,35.13-2234.32,34.74Z" transform="translate(2480.69 177.34)" fill="#d1ebff"/>
        <path d="M-2319.07-40.8c3.21-1.85,6.92-1.87,9-.65a2.14,2.14,0,0,1,1.26,2.18l-2.4.23a1.28,1.28,0,0,0-.71-1.3c-1.14-.66-3.22-.51-5.17.61s-2.35,2.28-1.12,3a4.56,4.56,0,0,0,2.54.42l-.37,1.37a7,7,0,0,1-4.13-.74C-2322.25-36.91-2322.32-38.92-2319.07-40.8Z" transform="translate(2480.69 177.34)" fill="#d1ebff"/>
        <g>
          <path d="M-2219.63,18.52c2.73-1.58,5.63-1.71,7.59-.58s1.72,2.81-1,4.38-5.7,1.75-7.66.62S-2222.36,20.09-2219.63,18.52Zm4.91,2.83c1.67-1,2-1.9,1-2.47s-2.61-.35-4.28.61-2.11,1.94-1.12,2.51S-2216.4,22.32-2214.72,21.35Z" transform="translate(2480.69 177.34)" fill="#d1ebff"/>
          <path d="M-2207.54,20.72l1.68,1-2.26,3.48-1.13,1.48,0,0c.82-.55,1.86-1.31,2.85-1.88l3-1.7,1.55.9-8.35,4.82-1.68-1,2.27-3.49,1.11-1.47,0,0c-.85.57-1.83,1.29-2.82,1.86l-3,1.71-1.55-.9Z" transform="translate(2480.69 177.34)" fill="#d1ebff"/>
        </g>
        <g>
          <path d="M-2266.67,46.68c2.77-1.6,6-1.61,7.81-.55a1.84,1.84,0,0,1,1.09,1.89l-2.07.19a1.11,1.11,0,0,0-.61-1.12,4.84,4.84,0,0,0-4.47.52c-1.72,1-2,2-1,2.59a4,4,0,0,0,2.19.36l-.31,1.18a6.14,6.14,0,0,1-3.58-.64C-2269.41,50-2269.47,48.3-2266.67,46.68Z" transform="translate(2480.69 177.34)" fill="#d1ebff"/>
          <path d="M-2255.63,48.17l4.54,2.62-1.59.92-2.9-1.67-1.68,1,2.47,1.43-1.58.91-2.46-1.43-1.93,1.11,3,1.75-1.59.91L-2264,53Z" transform="translate(2480.69 177.34)" fill="#d1ebff"/>
        </g>
        <g>
          <path d="M-2286.23,58.45l1.78,1L-2287,62.3c-.35.37-.75.75-1.12,1.13l0,0,2-.65,4.86-1.48,1.78,1-8.35,4.83-1.5-.86,3.06-1.77c.82-.48,2.18-1.1,3.06-1.52l0,0-2.58.81-4.22,1.24-.91-.52,2.16-2.44,1.41-1.48,0,0c-.73.52-1.81,1.3-2.63,1.77l-3.06,1.77-1.47-.85Z" transform="translate(2480.69 177.34)" fill="#d1ebff"/>
          <path d="M-2281.08,67l-2-1.13,1.33-.77,2,1.13,2.36-1.36,1.2.69-2.36,1.36,2,1.13-1.33.77-2-1.13-2.36,1.36-1.2-.69Z" transform="translate(2480.69 177.34)" fill="#d1ebff"/>
        </g>
        <g>
          <path d="M-2310,73.16l1.79,1L-2310.8,77l-1.12,1.13,0,0c.67-.22,1.33-.46,2-.65l4.86-1.49,1.78,1-8.35,4.83-1.5-.87,3.07-1.76c.82-.48,2.17-1.1,3-1.53l0,0-2.58.81-4.22,1.24-.91-.52,2.16-2.44,1.41-1.48,0,0c-.73.52-1.81,1.29-2.63,1.77l-3.06,1.77-1.47-.85Z" transform="translate(2480.69 177.34)" fill="#d1ebff"/>
          <path d="M-2306.4,80.39l2.73,1.58-1.33.77-2.74-1.58Z" transform="translate(2480.69 177.34)" fill="#d1ebff"/>
        </g>
        <path d="M-2284.24-25l1.09.63-14.56,3.18-1.1-.63Zm-10-2.21c1.93-1.12,3.94-1.26,5.14-.57s1,1.86-1,3-4,1.27-5.19.57S-2296.13-26.14-2294.19-27.26Zm2.85,1.64c1.39-.79,1.5-1.26,1.07-1.51s-1.23-.17-2.61.62-1.52,1.28-1.1,1.53S-2292.72-24.82-2291.34-25.62Zm-.56,4.17c1.93-1.11,3.94-1.26,5.14-.56s1,1.86-1,3-4,1.28-5.18.58S-2293.85-20.32-2291.9-21.45Zm2.86,1.65c1.38-.8,1.49-1.26,1.07-1.51s-1.24-.18-2.62.62-1.52,1.28-1.1,1.53S-2290.43-19-2289-19.8Z" transform="translate(2480.69 177.34)" fill="#d1ebff"/>
        <path d="M-2271-7.55l2.31-.18a1.1,1.1,0,0,0,.59,1.12c.91.52,2.37.5,4.63-.73a4.87,4.87,0,0,1-2.63-.37c-1.39-.8-1.51-1.93.48-3.08a6.24,6.24,0,0,1,5.88-.26c1.58.91,1.73,2.58-1.58,4.49-3.52,2-6.7,2-8.41,1A2.05,2.05,0,0,1-2271-7.55Zm9-.67c1.31-.95,1.26-1.53.68-1.86a2.62,2.62,0,0,0-2.56.29c-1,.57-.9,1-.28,1.41A3.24,3.24,0,0,0-2262-8.22Z" transform="translate(2480.69 177.34)" fill="#084c94"/>
        <polygon points="235.62 186.94 239.98 181.5 241.14 182.43 239.32 184.7 250.5 182.48 250.79 183.93 235.62 186.94" fill="#084c94"/>
      </g>
      <g>
        <g>
          <g>
            <path d="M-2443.27-44.66v25.88c1.29-.08,2.56-.21,3.8-.38v-25.5Z" transform="translate(2480.69 177.34)" fill="#ffb83b"/>
            <path d="M-2448.5-44.66v25.9c.74,0,1.47.07,2.22.07.36,0,.71,0,1.07,0V-44.66Z" transform="translate(2480.69 177.34)" fill="#ffb83b"/>
            <path d="M-2477.29-44.66v7.36a12.39,12.39,0,0,0,2.29,7V-44.66Z" transform="translate(2480.69 177.34)" fill="#ffb83b"/>
            <path d="M-2437.53-44.66v25.2c1.31-.23,2.58-.51,3.8-.83V-44.66Z" transform="translate(2480.69 177.34)" fill="#ffb83b"/>
            <path d="M-2431.78-44.66v23.8c1-.3,1.9-.63,2.79-1V-44.66Z" transform="translate(2480.69 177.34)" fill="#ffb83b"/>
            <path d="M-2468.31-44.66v20.45c.88.53,1.82,1,2.8,1.49V-44.66Z" transform="translate(2480.69 177.34)" fill="#ffb83b"/>
            <path d="M-2453.72-44.66v25.4c1.07.16,2.16.29,3.28.38V-44.66Z" transform="translate(2480.69 177.34)" fill="#ffb83b"/>
            <path d="M-2463.57-44.66v22.81c.9.36,1.83.69,2.8,1v-23.8Z" transform="translate(2480.69 177.34)" fill="#ffb83b"/>
            <path d="M-2458.83-44.66v24.37c1,.27,2.08.52,3.16.72V-44.66Z" transform="translate(2480.69 177.34)" fill="#ffb83b"/>
            <path d="M-2473-44.66v16.72a21.48,21.48,0,0,0,2.79,2.44V-44.66Z" transform="translate(2480.69 177.34)" fill="#ffb83b"/>
            <path d="M-2415.26-44.66h-2.3v14.37a12.4,12.4,0,0,0,2.3-7Z" transform="translate(2480.69 177.34)" fill="#ffb83b"/>
            <path d="M-2422.3-44.66V-25.5a22.27,22.27,0,0,0,2.8-2.44V-44.66Z" transform="translate(2480.69 177.34)" fill="#ffb83b"/>
            <path d="M-2427-44.66v21.94c1-.47,1.92-1,2.8-1.49V-44.66Z" transform="translate(2480.69 177.34)" fill="#ffb83b"/>
            <path d="M-2475-44.66v14.37a17.74,17.74,0,0,0,1.95,2.35V-44.66Z" transform="translate(2480.69 177.34)" fill="#ff9d27"/>
            <path d="M-2470.26-44.66V-25.5q.93.67,2,1.29V-44.66Z" transform="translate(2480.69 177.34)" fill="#ff9d27"/>
            <path d="M-2465.51-44.66v21.94c.63.3,1.27.6,1.94.87V-44.66Z" transform="translate(2480.69 177.34)" fill="#ff9d27"/>
            <path d="M-2460.77-44.66v23.8c.63.21,1.28.39,1.94.57V-44.66Z" transform="translate(2480.69 177.34)" fill="#ff9d27"/>
            <path d="M-2455.67-44.66v25.09c.64.12,1.29.22,2,.31v-25.4Z" transform="translate(2480.69 177.34)" fill="#ff9d27"/>
            <path d="M-2450.44-44.66v25.78c.64.05,1.29.09,1.94.12v-25.9Z" transform="translate(2480.69 177.34)" fill="#ff9d27"/>
            <path d="M-2445.21-44.66v25.93c.65,0,1.3,0,1.94-.05V-44.66Z" transform="translate(2480.69 177.34)" fill="#ff9d27"/>
            <path d="M-2439.47-44.66v25.5c.66-.09,1.31-.18,1.94-.3v-25.2Z" transform="translate(2480.69 177.34)" fill="#ff9d27"/>
            <path d="M-2419.5-44.66v16.72a16.91,16.91,0,0,0,1.94-2.35V-44.66Z" transform="translate(2480.69 177.34)" fill="#ff9d27"/>
            <path d="M-2424.24-44.66v20.45c.68-.41,1.33-.84,1.94-1.29V-44.66Z" transform="translate(2480.69 177.34)" fill="#ff9d27"/>
            <path d="M-2429-44.66v22.81c.68-.27,1.32-.57,1.95-.87V-44.66Z" transform="translate(2480.69 177.34)" fill="#ff9d27"/>
            <path d="M-2433.73-44.66v24.37c.66-.18,1.31-.36,1.95-.57v-23.8Z" transform="translate(2480.69 177.34)" fill="#ff9d27"/>
          </g>
          <path d="M-2446.28-63.27c-17.13,0-31,8.34-31,18.61s13.88,18.61,31,18.61,31-8.33,31-18.61S-2429.15-63.27-2446.28-63.27Z" transform="translate(2480.69 177.34)" fill="#ffe375"/>
          <g>
            <path d="M-2446.28-59.56c14.42,0,26.16,6.77,27,15.3,0-.31.08-.62.08-.94,0-9-12.11-16.23-27.05-16.23s-27,7.27-27,16.23c0,.32,0,.63.08.94C-2472.44-52.79-2460.69-59.56-2446.28-59.56Z" transform="translate(2480.69 177.34)" fill="#ff9d27"/>
            <path d="M-2446.28-29c14.42,0,26.16-6.77,27-15.29-.81-8.53-12.55-15.3-27-15.3s-26.16,6.77-27,15.3C-2472.44-35.74-2460.69-29-2446.28-29Z" transform="translate(2480.69 177.34)" fill="#ff9d27" opacity="0.5"/>
          </g>
        </g>
        <path d="M-2468.1-40.15a16.74,16.74,0,0,1-1.33-2.64c-.27-.89,0-1.88-.35-2.71a.39.39,0,0,0-.65-.17c-.78.79-.54,2.24-.3,3.24a4.17,4.17,0,0,0,2,2.87A.43.43,0,0,0-2468.1-40.15Z" transform="translate(2480.69 177.34)" fill="#ff9d27"/>
        <path d="M-2423.58-49.67a.22.22,0,0,0-.37.15,20.65,20.65,0,0,1,.14,3.15c-.16.92-.81,1.68-.82,2.61,0,.25.28.52.54.41C-2422.09-44.16-2422-48.41-2423.58-49.67Z" transform="translate(2480.69 177.34)" fill="#ff9d27"/>
        <path d="M-2429.16-51.18a.21.21,0,0,0-.14.35,26.81,26.81,0,0,0,2,1.82c.56.57.9,1.14,1.69,1.4a.34.34,0,0,0,.42-.32C-2425.08-49.6-2427.63-51.28-2429.16-51.18Z" transform="translate(2480.69 177.34)" fill="#ff9d27"/>
      </g>
      <g>
        <g>
          <g>
            <path d="M-2434.52-60.07V-34.2c1.3-.08,2.56-.21,3.8-.37v-25.5Z" transform="translate(2480.69 177.34)" fill="#ffb83b"/>
            <path d="M-2439.74-60.07v25.89c.73,0,1.47.07,2.21.07.36,0,.71,0,1.07,0V-60.07Z" transform="translate(2480.69 177.34)" fill="#ffb83b"/>
            <path d="M-2468.54-60.07v7.35a12.36,12.36,0,0,0,2.3,7V-60.07Z" transform="translate(2480.69 177.34)" fill="#ffb83b"/>
            <path d="M-2428.77-60.07v25.2c1.3-.23,2.57-.51,3.8-.84V-60.07Z" transform="translate(2480.69 177.34)" fill="#ffb83b"/>
            <path d="M-2423-60.07v23.8c1-.31,1.9-.64,2.8-1v-22.8Z" transform="translate(2480.69 177.34)" fill="#ffb83b"/>
            <path d="M-2459.56-60.07v20.44a28.53,28.53,0,0,0,2.8,1.49V-60.07Z" transform="translate(2480.69 177.34)" fill="#ffb83b"/>
            <path d="M-2445-60.07v25.4c1.07.16,2.17.28,3.28.37V-60.07Z" transform="translate(2480.69 177.34)" fill="#ffb83b"/>
            <path d="M-2454.82-60.07v22.8c.9.36,1.84.69,2.8,1v-23.8Z" transform="translate(2480.69 177.34)" fill="#ffb83b"/>
            <path d="M-2450.08-60.07v24.36c1,.27,2.08.52,3.16.73V-60.07Z" transform="translate(2480.69 177.34)" fill="#ffb83b"/>
            <path d="M-2464.3-60.07v16.72a21.62,21.62,0,0,0,2.8,2.43V-60.07Z" transform="translate(2480.69 177.34)" fill="#ffb83b"/>
            <path d="M-2406.51-60.07h-2.3V-45.7a12.36,12.36,0,0,0,2.3-7Z" transform="translate(2480.69 177.34)" fill="#ffb83b"/>
            <path d="M-2413.55-60.07v19.15a21.62,21.62,0,0,0,2.8-2.43V-60.07Z" transform="translate(2480.69 177.34)" fill="#ffb83b"/>
            <path d="M-2418.29-60.07v21.93a28.53,28.53,0,0,0,2.8-1.49V-60.07Z" transform="translate(2480.69 177.34)" fill="#ffb83b"/>
            <path d="M-2466.24-60.07V-45.7a18.17,18.17,0,0,0,1.94,2.35V-60.07Z" transform="translate(2480.69 177.34)" fill="#ff9d27"/>
            <path d="M-2461.5-60.07v19.15c.61.45,1.26.88,1.94,1.29V-60.07Z" transform="translate(2480.69 177.34)" fill="#ff9d27"/>
            <path d="M-2456.76-60.07v21.93c.63.3,1.27.6,1.94.87v-22.8Z" transform="translate(2480.69 177.34)" fill="#ff9d27"/>
            <path d="M-2452-60.07v23.8c.63.2,1.28.38,1.94.56V-60.07Z" transform="translate(2480.69 177.34)" fill="#ff9d27"/>
            <path d="M-2446.92-60.07V-35c.64.12,1.3.21,2,.31v-25.4Z" transform="translate(2480.69 177.34)" fill="#ff9d27"/>
            <path d="M-2441.69-60.07V-34.3q1,.09,2,.12V-60.07Z" transform="translate(2480.69 177.34)" fill="#ff9d27"/>
            <path d="M-2436.46-60.07v25.93c.65,0,1.3,0,1.94-.06V-60.07Z" transform="translate(2480.69 177.34)" fill="#ff9d27"/>
            <path d="M-2430.72-60.07v25.5q1-.13,1.95-.3v-25.2Z" transform="translate(2480.69 177.34)" fill="#ff9d27"/>
            <path d="M-2410.75-60.07v16.72a18.17,18.17,0,0,0,1.94-2.35V-60.07Z" transform="translate(2480.69 177.34)" fill="#ff9d27"/>
            <path d="M-2415.49-60.07v20.44c.68-.41,1.33-.84,1.94-1.29V-60.07Z" transform="translate(2480.69 177.34)" fill="#ff9d27"/>
            <path d="M-2420.23-60.07v22.8c.67-.27,1.31-.57,1.94-.87V-60.07Z" transform="translate(2480.69 177.34)" fill="#ff9d27"/>
            <path d="M-2425-60.07v24.36c.66-.18,1.31-.36,1.94-.56v-23.8Z" transform="translate(2480.69 177.34)" fill="#ff9d27"/>
          </g>
          <path d="M-2437.53-78.68c-17.13,0-31,8.33-31,18.61s13.88,18.61,31,18.61,31-8.34,31-18.61S-2420.4-78.68-2437.53-78.68Z" transform="translate(2480.69 177.34)" fill="#ffe375"/>
          <g>
            <path d="M-2437.53-75c14.42,0,26.16,6.77,27,15.29,0-.31.08-.62.08-.94,0-9-12.12-16.23-27.06-16.23s-27,7.27-27,16.23c0,.32,0,.63.08.94C-2463.68-68.2-2451.94-75-2437.53-75Z" transform="translate(2480.69 177.34)" fill="#ff9d27"/>
            <path d="M-2437.53-44.39c14.42,0,26.16-6.76,27-15.29-.82-8.52-12.56-15.29-27-15.29s-26.15,6.77-27,15.29C-2463.68-51.15-2451.94-44.39-2437.53-44.39Z" transform="translate(2480.69 177.34)" fill="#ff9d27" opacity="0.5"/>
          </g>
        </g>
        <path d="M-2459.35-55.56a15.59,15.59,0,0,1-1.32-2.65c-.27-.89,0-1.88-.35-2.71a.4.4,0,0,0-.66-.17c-.77.8-.54,2.24-.29,3.24a4.09,4.09,0,0,0,2,2.87A.43.43,0,0,0-2459.35-55.56Z" transform="translate(2480.69 177.34)" fill="#ff9d27"/>
        <path d="M-2414.83-65.09a.22.22,0,0,0-.37.15,20.78,20.78,0,0,1,.14,3.16c-.16.91-.81,1.68-.82,2.6,0,.25.28.52.54.41C-2413.34-59.58-2413.26-63.82-2414.83-65.09Z" transform="translate(2480.69 177.34)" fill="#ff9d27"/>
        <path d="M-2420.41-66.59a.2.2,0,0,0-.14.34,26.81,26.81,0,0,0,2,1.82c.56.58.9,1.14,1.69,1.4a.33.33,0,0,0,.42-.32C-2416.33-65-2418.87-66.7-2420.41-66.59Z" transform="translate(2480.69 177.34)" fill="#ff9d27"/>
      </g>
      <g>
        <g>
          <g>
            <path d="M-2432.1-117.08V-91.2c1.29-.08,2.55-.21,3.8-.38v-25.5Z" transform="translate(2480.69 177.34)" fill="#ffb83b"/>
            <path d="M-2437.33-117.08v25.9c.74,0,1.47.07,2.22.07.36,0,.71,0,1.06,0v-25.94Z" transform="translate(2480.69 177.34)" fill="#ffb83b"/>
            <path d="M-2466.13-117.08v7.36a12.4,12.4,0,0,0,2.3,7v-14.37Z" transform="translate(2480.69 177.34)" fill="#ffb83b"/>
            <path d="M-2426.36-117.08v25.2c1.31-.23,2.57-.51,3.8-.83v-24.37Z" transform="translate(2480.69 177.34)" fill="#ffb83b"/>
            <path d="M-2420.62-117.08v23.81c1-.31,1.9-.64,2.8-1v-22.81Z" transform="translate(2480.69 177.34)" fill="#ffb83b"/>
            <path d="M-2457.14-117.08v20.45c.87.53,1.81,1,2.79,1.49v-21.94Z" transform="translate(2480.69 177.34)" fill="#ffb83b"/>
            <path d="M-2442.56-117.08v25.41c1.08.15,2.17.28,3.29.37v-25.78Z" transform="translate(2480.69 177.34)" fill="#ffb83b"/>
            <path d="M-2452.4-117.08v22.81c.89.36,1.83.69,2.79,1v-23.81Z" transform="translate(2480.69 177.34)" fill="#ffb83b"/>
            <path d="M-2447.66-117.08v24.37c1,.27,2.08.52,3.16.72v-25.09Z" transform="translate(2480.69 177.34)" fill="#ffb83b"/>
            <path d="M-2461.89-117.08v16.72a22.27,22.27,0,0,0,2.8,2.44v-19.16Z" transform="translate(2480.69 177.34)" fill="#ffb83b"/>
            <path d="M-2404.09-117.08h-2.3v14.37a12.4,12.4,0,0,0,2.3-7Z" transform="translate(2480.69 177.34)" fill="#ffb83b"/>
            <path d="M-2411.13-117.08v19.16a21.48,21.48,0,0,0,2.79-2.44v-16.72Z" transform="translate(2480.69 177.34)" fill="#ffb83b"/>
            <path d="M-2415.87-117.08v21.94c1-.47,1.91-1,2.79-1.49v-20.45Z" transform="translate(2480.69 177.34)" fill="#ffb83b"/>
            <path d="M-2463.83-117.08v14.37a16.91,16.91,0,0,0,1.94,2.35v-16.72Z" transform="translate(2480.69 177.34)" fill="#ff9d27"/>
            <path d="M-2459.09-117.08v19.16q.93.67,2,1.29v-20.45Z" transform="translate(2480.69 177.34)" fill="#ff9d27"/>
            <path d="M-2454.35-117.08v21.94c.63.3,1.27.6,1.95.87v-22.81Z" transform="translate(2480.69 177.34)" fill="#ff9d27"/>
            <path d="M-2449.61-117.08v23.81c.64.2,1.29.38,2,.56v-24.37Z" transform="translate(2480.69 177.34)" fill="#ff9d27"/>
            <path d="M-2444.5-117.08V-92c.63.13,1.29.22,1.94.32v-25.41Z" transform="translate(2480.69 177.34)" fill="#ff9d27"/>
            <path d="M-2439.27-117.08V-91.3c.64,0,1.29.09,1.94.12v-25.9Z" transform="translate(2480.69 177.34)" fill="#ff9d27"/>
            <path d="M-2434-117.08v25.94c.65,0,1.31,0,2-.06v-25.88Z" transform="translate(2480.69 177.34)" fill="#ff9d27"/>
            <path d="M-2428.3-117.08v25.5c.65-.08,1.3-.18,1.94-.3v-25.2Z" transform="translate(2480.69 177.34)" fill="#ff9d27"/>
            <path d="M-2408.34-117.08v16.72a17,17,0,0,0,2-2.35v-14.37Z" transform="translate(2480.69 177.34)" fill="#ff9d27"/>
            <path d="M-2413.08-117.08v20.45q1-.62,1.95-1.29v-19.16Z" transform="translate(2480.69 177.34)" fill="#ff9d27"/>
            <path d="M-2417.82-117.08v22.81c.67-.27,1.31-.57,2-.87v-21.94Z" transform="translate(2480.69 177.34)" fill="#ff9d27"/>
            <path d="M-2422.56-117.08v24.37c.66-.18,1.31-.36,1.94-.56v-23.81Z" transform="translate(2480.69 177.34)" fill="#ff9d27"/>
          </g>
          <path d="M-2435.11-135.68c-17.13,0-31,8.33-31,18.6s13.89,18.61,31,18.61,31-8.33,31-18.61S-2418-135.68-2435.11-135.68Z" transform="translate(2480.69 177.34)" fill="#ffe375"/>
          <g>
            <path d="M-2435.11-132c14.41,0,26.16,6.76,27,15.29,0-.31.08-.62.08-.94,0-9-12.11-16.23-27.05-16.23s-27,7.27-27,16.23c0,.32,0,.63.08.94C-2461.27-125.21-2449.52-132-2435.11-132Z" transform="translate(2480.69 177.34)" fill="#ff9d27"/>
            <path d="M-2435.11-101.39c14.41,0,26.16-6.77,27-15.29-.81-8.53-12.56-15.29-27-15.29s-26.16,6.76-27,15.29C-2461.27-108.16-2449.52-101.39-2435.11-101.39Z" transform="translate(2480.69 177.34)" fill="#ff9d27" opacity="0.5"/>
          </g>
        </g>
        <path d="M-2456.93-112.57a15.54,15.54,0,0,1-1.33-2.64c-.27-.89,0-1.88-.35-2.71a.39.39,0,0,0-.65-.17c-.78.8-.55,2.24-.3,3.24a4.14,4.14,0,0,0,2,2.87A.44.44,0,0,0-2456.93-112.57Z" transform="translate(2480.69 177.34)" fill="#ff9d27"/>
        <path d="M-2412.42-122.09a.21.21,0,0,0-.36.15,19.49,19.49,0,0,1,.13,3.15c-.16.92-.8,1.68-.81,2.61a.42.42,0,0,0,.54.41C-2410.92-116.58-2410.85-120.83-2412.42-122.09Z" transform="translate(2480.69 177.34)" fill="#ff9d27"/>
        <path d="M-2418-123.6a.21.21,0,0,0-.15.35,26.81,26.81,0,0,0,2,1.82c.57.57.91,1.14,1.7,1.4a.34.34,0,0,0,.42-.32C-2413.91-122-2416.46-123.7-2418-123.6Z" transform="translate(2480.69 177.34)" fill="#ff9d27"/>
      </g>
      <path d="M-2348-113.93c-18.93,0-34.27,9.21-34.27,20.56S-2367-72.81-2348-72.81s34.27-9.2,34.27-20.56S-2329.1-113.93-2348-113.93Z" transform="translate(2480.69 177.34)" fill="#2672ab"/>
      <g>
        <g>
          <g>
            <path d="M-2345-103.67V-77.8c1.29-.08,2.55-.21,3.8-.37v-25.5Z" transform="translate(2480.69 177.34)" fill="#ffb83b"/>
            <path d="M-2350.25-103.67v25.89c.74,0,1.47.07,2.22.07.36,0,.71,0,1.06,0v-25.93Z" transform="translate(2480.69 177.34)" fill="#ffb83b"/>
            <path d="M-2379-103.67v7.35a12.46,12.46,0,0,0,2.3,7v-14.37Z" transform="translate(2480.69 177.34)" fill="#ffb83b"/>
            <path d="M-2339.28-103.67v25.2c1.31-.24,2.57-.52,3.8-.84v-24.36Z" transform="translate(2480.69 177.34)" fill="#ffb83b"/>
            <path d="M-2333.53-103.67v23.8c1-.31,1.89-.64,2.79-1v-22.8Z" transform="translate(2480.69 177.34)" fill="#ffb83b"/>
            <path d="M-2370.06-103.67v20.44a29.38,29.38,0,0,0,2.79,1.49v-21.93Z" transform="translate(2480.69 177.34)" fill="#ffb83b"/>
            <path d="M-2355.48-103.67v25.4c1.08.16,2.17.28,3.29.37v-25.77Z" transform="translate(2480.69 177.34)" fill="#ffb83b"/>
            <path d="M-2365.32-103.67v22.8c.89.36,1.83.69,2.79,1v-23.8Z" transform="translate(2480.69 177.34)" fill="#ffb83b"/>
            <path d="M-2360.58-103.67v24.36c1,.27,2.08.52,3.16.73v-25.09Z" transform="translate(2480.69 177.34)" fill="#ffb83b"/>
            <path d="M-2374.81-103.67V-87a22.27,22.27,0,0,0,2.8,2.44v-19.15Z" transform="translate(2480.69 177.34)" fill="#ffb83b"/>
            <path d="M-2317-103.67h-2.3V-89.3a12.46,12.46,0,0,0,2.3-7Z" transform="translate(2480.69 177.34)" fill="#ffb83b"/>
            <path d="M-2324-103.67v19.15a21.48,21.48,0,0,0,2.79-2.44v-16.71Z" transform="translate(2480.69 177.34)" fill="#ffb83b"/>
            <path d="M-2328.79-103.67v21.93c1-.46,1.91-1,2.79-1.49v-20.44Z" transform="translate(2480.69 177.34)" fill="#ffb83b"/>
            <path d="M-2376.75-103.67V-89.3a17.44,17.44,0,0,0,1.94,2.34v-16.71Z" transform="translate(2480.69 177.34)" fill="#ff9d27"/>
            <path d="M-2372-103.67v19.15q.93.67,2,1.29v-20.44Z" transform="translate(2480.69 177.34)" fill="#ff9d27"/>
            <path d="M-2367.27-103.67v21.93c.63.3,1.28.6,1.95.87v-22.8Z" transform="translate(2480.69 177.34)" fill="#ff9d27"/>
            <path d="M-2362.53-103.67v23.8c.64.2,1.29.38,2,.56v-24.36Z" transform="translate(2480.69 177.34)" fill="#ff9d27"/>
            <path d="M-2357.42-103.67v25.09c.63.12,1.29.21,1.94.31v-25.4Z" transform="translate(2480.69 177.34)" fill="#ff9d27"/>
            <path d="M-2352.19-103.67V-77.9c.64.05,1.29.09,1.94.12v-25.89Z" transform="translate(2480.69 177.34)" fill="#ff9d27"/>
            <path d="M-2347-103.67v25.93c.65,0,1.31,0,1.95-.06v-25.87Z" transform="translate(2480.69 177.34)" fill="#ff9d27"/>
            <path d="M-2341.22-103.67v25.5c.65-.09,1.3-.19,1.94-.3v-25.2Z" transform="translate(2480.69 177.34)" fill="#ff9d27"/>
            <path d="M-2321.26-103.67V-87a17.53,17.53,0,0,0,2-2.34v-14.37Z" transform="translate(2480.69 177.34)" fill="#ff9d27"/>
            <path d="M-2326-103.67v20.44q1-.61,1.95-1.29v-19.15Z" transform="translate(2480.69 177.34)" fill="#ff9d27"/>
            <path d="M-2330.74-103.67v22.8c.67-.27,1.31-.57,1.95-.87v-21.93Z" transform="translate(2480.69 177.34)" fill="#ff9d27"/>
            <path d="M-2335.48-103.67v24.36c.66-.18,1.31-.36,1.95-.56v-23.8Z" transform="translate(2480.69 177.34)" fill="#ff9d27"/>
          </g>
          <path d="M-2348-122.28c-17.13,0-31,8.33-31,18.61s13.89,18.6,31,18.6,31-8.33,31-18.6S-2330.9-122.28-2348-122.28Z" transform="translate(2480.69 177.34)" fill="#ffe375"/>
          <g>
            <path d="M-2348-118.57c14.41,0,26.16,6.76,27,15.29,0-.31.08-.62.08-.94,0-9-12.11-16.23-27.05-16.23s-27,7.27-27,16.23c0,.32,0,.63.08.94C-2374.19-111.81-2362.44-118.57-2348-118.57Z" transform="translate(2480.69 177.34)" fill="#ff9d27"/>
            <path d="M-2348-88c14.41,0,26.16-6.77,27-15.29-.81-8.53-12.56-15.29-27-15.29s-26.16,6.76-27,15.29C-2374.19-94.76-2362.44-88-2348-88Z" transform="translate(2480.69 177.34)" fill="#ff9d27" opacity="0.5"/>
          </g>
        </g>
        <path d="M-2369.85-99.16a16,16,0,0,1-1.33-2.65c-.27-.89,0-1.88-.35-2.71a.39.39,0,0,0-.65-.17c-.78.8-.55,2.24-.3,3.24a4.14,4.14,0,0,0,2,2.87A.43.43,0,0,0-2369.85-99.16Z" transform="translate(2480.69 177.34)" fill="#ff9d27"/>
        <path d="M-2325.34-108.69a.21.21,0,0,0-.36.15,19.57,19.57,0,0,1,.13,3.16c-.16.91-.8,1.67-.81,2.6a.42.42,0,0,0,.54.41C-2323.84-103.18-2323.77-107.43-2325.34-108.69Z" transform="translate(2480.69 177.34)" fill="#ff9d27"/>
        <path d="M-2330.91-110.2a.21.21,0,0,0-.15.35,26.81,26.81,0,0,0,2,1.82c.57.58.91,1.14,1.7,1.4a.34.34,0,0,0,.42-.32C-2326.83-108.61-2329.38-110.3-2330.91-110.2Z" transform="translate(2480.69 177.34)" fill="#ff9d27"/>
      </g>
      <path d="M-2097.55,156.35c-18.93,0-34.27,9.2-34.27,20.56s15.34,20.56,34.27,20.56,34.27-9.21,34.27-20.56S-2078.63,156.35-2097.55,156.35Z" transform="translate(2480.69 177.34)" fill="#2672ab"/>
      <g>
        <g>
          <g>
            <path d="M-2094.54,166.6v25.87c1.29-.07,2.55-.2,3.8-.37V166.6Z" transform="translate(2480.69 177.34)" fill="#ffb83b"/>
            <path d="M-2099.77,166.6v25.9c.74,0,1.47.06,2.22.06.36,0,.71,0,1.06,0V166.6Z" transform="translate(2480.69 177.34)" fill="#ffb83b"/>
            <path d="M-2128.57,166.6V174a12.43,12.43,0,0,0,2.3,7V166.6Z" transform="translate(2480.69 177.34)" fill="#ffb83b"/>
            <path d="M-2088.8,166.6v25.2c1.31-.23,2.57-.51,3.8-.84V166.6Z" transform="translate(2480.69 177.34)" fill="#ffb83b"/>
            <path d="M-2083.06,166.6v23.8c1-.31,1.9-.63,2.8-1V166.6Z" transform="translate(2480.69 177.34)" fill="#ffb83b"/>
            <path d="M-2119.58,166.6v20.45c.87.53,1.81,1,2.79,1.49V166.6Z" transform="translate(2480.69 177.34)" fill="#ffb83b"/>
            <path d="M-2105,166.6V192c1.08.16,2.17.29,3.28.38V166.6Z" transform="translate(2480.69 177.34)" fill="#ffb83b"/>
            <path d="M-2114.84,166.6v22.8c.89.37,1.83.69,2.79,1V166.6Z" transform="translate(2480.69 177.34)" fill="#ffb83b"/>
            <path d="M-2110.1,166.6V191c1,.28,2.07.52,3.16.73V166.6Z" transform="translate(2480.69 177.34)" fill="#ffb83b"/>
            <path d="M-2124.33,166.6v16.72a24,24,0,0,0,2.8,2.44V166.6Z" transform="translate(2480.69 177.34)" fill="#ffb83b"/>
            <path d="M-2066.53,166.6h-2.3V181a12.43,12.43,0,0,0,2.3-7Z" transform="translate(2480.69 177.34)" fill="#ffb83b"/>
            <path d="M-2073.57,166.6v19.16a23.1,23.1,0,0,0,2.79-2.44V166.6Z" transform="translate(2480.69 177.34)" fill="#ffb83b"/>
            <path d="M-2078.31,166.6v21.93c1-.46,1.91-.95,2.79-1.48V166.6Z" transform="translate(2480.69 177.34)" fill="#ffb83b"/>
            <path d="M-2126.27,166.6V181a16.91,16.91,0,0,0,1.94,2.35V166.6Z" transform="translate(2480.69 177.34)" fill="#ff9d27"/>
            <path d="M-2121.53,166.6v19.16c.61.45,1.27.87,2,1.29V166.6Z" transform="translate(2480.69 177.34)" fill="#ff9d27"/>
            <path d="M-2116.79,166.6v21.94c.63.3,1.27.59,1.95.86V166.6Z" transform="translate(2480.69 177.34)" fill="#ff9d27"/>
            <path d="M-2112,166.6v23.8c.64.2,1.29.39,2,.56V166.6Z" transform="translate(2480.69 177.34)" fill="#ff9d27"/>
            <path d="M-2106.94,166.6v25.09c.63.12,1.29.21,1.94.31V166.6Z" transform="translate(2480.69 177.34)" fill="#ff9d27"/>
            <path d="M-2101.72,166.6v25.78q1,.08,1.95.12V166.6Z" transform="translate(2480.69 177.34)" fill="#ff9d27"/>
            <path d="M-2096.49,166.6v25.93c.65,0,1.31,0,1.95-.06V166.6Z" transform="translate(2480.69 177.34)" fill="#ff9d27"/>
            <path d="M-2090.74,166.6v25.5c.65-.09,1.3-.19,1.94-.3V166.6Z" transform="translate(2480.69 177.34)" fill="#ff9d27"/>
            <path d="M-2070.78,166.6v16.72a17,17,0,0,0,2-2.35V166.6Z" transform="translate(2480.69 177.34)" fill="#ff9d27"/>
            <path d="M-2075.52,166.6v20.45c.68-.42,1.33-.84,1.95-1.29V166.6Z" transform="translate(2480.69 177.34)" fill="#ff9d27"/>
            <path d="M-2080.26,166.6v22.8c.67-.27,1.31-.56,2-.87V166.6Z" transform="translate(2480.69 177.34)" fill="#ff9d27"/>
            <path d="M-2085,166.6V191c.66-.17,1.31-.36,1.94-.56V166.6Z" transform="translate(2480.69 177.34)" fill="#ff9d27"/>
          </g>
          <path d="M-2097.55,148c-17.13,0-31,8.33-31,18.61s13.89,18.61,31,18.61,31-8.33,31-18.61S-2080.42,148-2097.55,148Z" transform="translate(2480.69 177.34)" fill="#ffe375"/>
          <g>
            <path d="M-2097.55,151.7c14.41,0,26.16,6.77,27,15.29,0-.31.08-.62.08-.93,0-9-12.11-16.23-27.05-16.23s-27,7.26-27,16.23c0,.31,0,.62.08.93C-2123.71,158.47-2112,151.7-2097.55,151.7Z" transform="translate(2480.69 177.34)" fill="#ff9d27"/>
            <path d="M-2097.55,182.29c14.41,0,26.16-6.77,27-15.3-.81-8.52-12.56-15.29-27-15.29s-26.16,6.77-27,15.29C-2123.71,175.52-2112,182.29-2097.55,182.29Z" transform="translate(2480.69 177.34)" fill="#ff9d27" opacity="0.5"/>
          </g>
        </g>
        <path d="M-2119.37,171.11a15.64,15.64,0,0,1-1.33-2.65c-.27-.88,0-1.87-.35-2.71a.39.39,0,0,0-.65-.17c-.78.8-.55,2.25-.3,3.24a4.16,4.16,0,0,0,2,2.88A.44.44,0,0,0-2119.37,171.11Z" transform="translate(2480.69 177.34)" fill="#ff9d27"/>
        <path d="M-2074.86,161.58a.22.22,0,0,0-.36.15,19.57,19.57,0,0,1,.13,3.16c-.16.92-.8,1.68-.81,2.61a.43.43,0,0,0,.54.41C-2073.36,167.09-2073.29,162.85-2074.86,161.58Z" transform="translate(2480.69 177.34)" fill="#ff9d27"/>
        <path d="M-2080.43,160.08a.21.21,0,0,0-.15.35,26.69,26.69,0,0,0,2,1.81c.57.58.91,1.15,1.7,1.41a.33.33,0,0,0,.41-.32C-2076.35,161.66-2078.9,160-2080.43,160.08Z" transform="translate(2480.69 177.34)" fill="#ff9d27"/>
      </g>
    </g>
    <g>
      <g>
        <polygon points="410.41 105.59 410.41 264.08 452.88 239.66 452.88 81.17 410.41 105.59" fill="#a8cff0"/>
        <polygon points="410.43 105.59 410.43 264.08 368.55 239.67 368.55 81.2 410.43 105.59" fill="#d1ebff"/>
        <polygon points="368.55 81.2 410.43 105.59 452.88 81.17 410.96 56.75 368.55 81.2" fill="#f0f8ff"/>
      </g>
      <g>
        <path d="M-2108.3-57.13l4.08,2.51v-7.54l-4.08-2.5Zm7.45,4.29,4.08,2.51v-7.53l-4.08-2.51Zm7.45,4.3,4.08,2.5v-7.53l-4.08-2.5Z" transform="translate(2480.69 177.34)" fill="#3f92d1"/>
        <path d="M-2108.3-68.8l4.08,2.51v-7.53l-4.08-2.51Zm7.45,4.29,4.08,2.51v-7.53l-4.08-2.51Zm7.45,4.3,4.08,2.51v-7.54l-4.08-2.5Z" transform="translate(2480.69 177.34)" fill="#3f92d1"/>
        <path d="M-2108.3-80.47l4.08,2.51v-7.53L-2108.3-88Zm7.45,4.3,4.08,2.51V-81.2l-4.08-2.5Zm7.45,4.29,4.08,2.51v-7.54l-4.08-2.5Z" transform="translate(2480.69 177.34)" fill="#3f92d1"/>
        <path d="M-2108.3-42l4.08,2.51V-50.94l-4.08-2.5Zm7.45,4.29,4.08,2.51V-46.64l-4.08-2.51Zm7.45,4.29,4.08,2.51V-42.35l-4.08-2.51Z" transform="translate(2480.69 177.34)" fill="#3f92d1"/>
        <path d="M-2108.3-23l4.08,2.5V-35.83l-4.08-2.5Zm7.45,4.29,4.08,2.51V-31.53l-4.08-2.51Zm7.45,4.29,4.08,2.51V-27.24l-4.08-2.51Z" transform="translate(2480.69 177.34)" fill="#3f92d1"/>
        <path d="M-2108.3.51l4.08,2.51v-19.2l-4.08-2.51Zm7.45,4.29,4.08,2.51v-19.2l-4.08-2.5Zm7.45,4.3,4.08,2.51V-7.6l-4.08-2.5Z" transform="translate(2480.69 177.34)" fill="#3f92d1"/>
        <polygon points="397.02 102.27 397.02 256.04 402.92 259.66 402.92 105.89 397.02 102.27" fill="#3f92d1"/>
        <polygon points="372.39 236.9 376.47 239.41 376.47 185.34 372.39 182.83 372.39 236.9" fill="#3f92d1"/>
        <polygon points="379.84 241.2 383.92 243.71 383.92 189.63 379.84 187.13 379.84 241.2" fill="#3f92d1"/>
        <polygon points="387.29 245.49 391.37 248 391.37 193.93 387.29 191.42 387.29 245.49" fill="#3f92d1"/>
      </g>
      <g>
        <polygon points="383.92 102.98 380.56 100.92 380.56 94.08 379.84 93.63 379.84 101.16 383.92 103.67 383.92 102.98" fill="#084c94"/>
        <polygon points="383.92 126.32 380.56 124.26 380.56 117.42 379.84 116.97 379.84 124.5 383.92 127.01 383.92 126.32" fill="#084c94"/>
        <polygon points="383.92 114.65 380.56 112.59 380.56 105.75 379.84 105.3 379.84 112.83 383.92 115.34 383.92 114.65" fill="#084c94"/>
        <polygon points="391.37 188.25 388.01 186.19 388.01 167.68 387.29 167.24 387.29 186.44 391.37 188.94 391.37 188.25" fill="#084c94"/>
        <polygon points="383.92 141.43 380.56 139.37 380.56 128.63 379.84 128.19 379.84 139.61 383.92 142.12 383.92 141.43" fill="#084c94"/>
        <polygon points="391.37 145.72 388.01 143.66 388.01 132.93 387.29 132.48 387.29 143.9 391.37 146.41 391.37 145.72" fill="#084c94"/>
        <polygon points="391.37 130.61 388.01 128.55 388.01 121.71 387.29 121.26 387.29 128.79 391.37 131.3 391.37 130.61" fill="#084c94"/>
        <polygon points="391.37 118.94 388.01 116.88 388.01 110.04 387.29 109.59 387.29 117.12 391.37 119.63 391.37 118.94" fill="#084c94"/>
        <polygon points="391.37 164.72 388.01 162.66 388.01 148.04 387.29 147.59 387.29 162.9 391.37 165.41 391.37 164.72" fill="#084c94"/>
        <polygon points="383.92 160.43 380.56 158.36 380.56 143.74 379.84 143.3 379.84 158.61 383.92 161.12 383.92 160.43" fill="#084c94"/>
        <polygon points="391.37 107.28 388.01 105.21 388.01 98.37 387.29 97.93 387.29 105.46 391.37 107.97 391.37 107.28" fill="#084c94"/>
        <polygon points="380.56 240.95 380.56 187.57 379.84 187.13 379.84 241.2 383.92 243.71 383.92 243.02 380.56 240.95" fill="#084c94"/>
        <polygon points="376.47 179.67 373.12 177.61 373.12 159.1 372.39 158.65 372.39 177.85 376.47 180.36 376.47 179.67" fill="#084c94"/>
        <polygon points="383.92 183.96 380.56 181.9 380.56 163.39 379.84 162.94 379.84 182.14 383.92 184.65 383.92 183.96" fill="#084c94"/>
        <polygon points="388.01 245.25 388.01 191.87 387.29 191.42 387.29 245.49 391.37 248 391.37 247.31 388.01 245.25" fill="#084c94"/>
        <polygon points="397.75 255.8 397.75 102.72 397.02 102.27 397.02 256.04 402.92 259.66 402.92 258.97 397.75 255.8" fill="#084c94"/>
        <polygon points="373.12 236.66 373.12 183.28 372.39 182.83 372.39 236.9 376.47 239.41 376.47 238.72 373.12 236.66" fill="#084c94"/>
        <polygon points="376.47 156.13 373.12 154.07 373.12 139.45 372.39 139 372.39 154.31 376.47 156.82 376.47 156.13" fill="#084c94"/>
        <polygon points="376.47 110.36 373.12 108.3 373.12 101.45 372.39 101.01 372.39 108.54 376.47 111.05 376.47 110.36" fill="#084c94"/>
        <polygon points="376.47 98.69 373.12 96.63 373.12 89.79 372.39 89.34 372.39 96.87 376.47 99.38 376.47 98.69" fill="#084c94"/>
        <polygon points="376.47 137.13 373.12 135.07 373.12 124.34 372.39 123.89 372.39 135.31 376.47 137.82 376.47 137.13" fill="#084c94"/>
        <polygon points="376.47 122.03 373.12 119.96 373.12 113.12 372.39 112.68 372.39 120.21 376.47 122.72 376.47 122.03" fill="#084c94"/>
      </g>
      <g>
        <path d="M-2031.84-64.66l-4.09,2.5v7.54l4.09-2.51Zm-7.45,4.29-4.09,2.51v7.53l4.09-2.51Zm-7.45,4.3-4.08,2.5V-46l4.08-2.5Zm-19,11.09v7.53l4.08-2.51v-7.53Zm11.53-6.8-4.08,2.5v7.54l4.08-2.51Z" transform="translate(2480.69 177.34)" fill="#2672ab"/>
        <path d="M-2031.84-76.33l-4.09,2.51v7.53l4.09-2.51Zm-7.45,4.29-4.09,2.51V-62l4.09-2.51Zm-7.45,4.3-4.08,2.5v7.54l4.08-2.51Zm-19,11.09v7.53l4.08-2.51v-7.53Zm11.53-6.8-4.08,2.51v7.53l4.08-2.51Z" transform="translate(2480.69 177.34)" fill="#2672ab"/>
        <path d="M-2031.84-88l-4.09,2.51V-78l4.09-2.51Zm-7.45,4.3-4.09,2.5v7.54l4.09-2.51Zm-7.45,4.29-4.08,2.5v7.54l4.08-2.51Zm-19,11.09v7.53l4.08-2.5v-7.53Zm11.53-6.8-4.08,2.51v7.53l4.08-2.51Z" transform="translate(2480.69 177.34)" fill="#2672ab"/>
        <path d="M-2031.84-53.44l-4.09,2.5v11.43l4.09-2.51Zm-7.45,4.29-4.09,2.51v11.42l4.09-2.51Zm-7.45,4.29-4.08,2.51v11.42l4.08-2.51Zm-19,11.1v11.42l4.08-2.51V-36.27Zm11.53-6.8-4.08,2.5v11.43l4.08-2.51Z" transform="translate(2480.69 177.34)" fill="#2672ab"/>
        <path d="M-2031.84-38.33l-4.09,2.5v15.31l4.09-2.5Zm-7.45,4.29-4.09,2.51v15.31l4.09-2.51Zm-7.45,4.29-4.08,2.51v15.31l4.08-2.51Zm-19,11.1V-3.34l4.08-2.51V-21.16Zm11.53-6.8-4.08,2.5V-7.64l4.08-2.5Z" transform="translate(2480.69 177.34)" fill="#2672ab"/>
        <path d="M-2031.84-18.69l-4.09,2.51V3l4.09-2.51Zm-7.45,4.3-4.09,2.5V7.31l4.09-2.51Zm-7.45,4.29-4.08,2.5V11.61l4.08-2.51Zm-19,11.09v19.2l4.08-2.51V-1.51Zm11.53-6.8-4.08,2.51V15.9l4.08-2.51Z" transform="translate(2480.69 177.34)" fill="#2672ab"/>
        <path d="M-2031.84,5.5l-4.09,2.5V62.08l4.09-2.51Zm-7.45,4.29-4.09,2.51V66.37l4.09-2.51Zm-7.45,4.29-4.08,2.51V70.66l4.08-2.51Zm-19,11.1V79.25l4.08-2.51V22.67Zm11.53-6.8-4.08,2.5V75l4.08-2.5Z" transform="translate(2480.69 177.34)" fill="#2672ab"/>
      </g>
      <g>
        <polygon points="425.65 132.97 422.42 134.95 422.42 135.59 426.5 133.09 426.5 125.56 425.65 126.08 425.65 132.97" fill="#084c94"/>
        <polygon points="425.65 190.61 422.42 192.59 422.42 193.24 426.5 190.73 426.5 171.53 425.65 172.05 425.65 190.61" fill="#084c94"/>
        <polygon points="425.65 121.3 422.42 123.28 422.42 123.93 426.5 121.42 426.5 113.89 425.65 114.41 425.65 121.3" fill="#084c94"/>
        <polygon points="425.65 148.07 422.42 150.06 422.42 150.7 426.5 148.19 426.5 136.78 425.65 137.3 425.65 148.07" fill="#084c94"/>
        <polygon points="425.65 167.07 422.42 169.06 422.42 169.7 426.5 167.19 426.5 151.88 425.65 152.4 425.65 167.07" fill="#084c94"/>
        <polygon points="425.65 109.63 422.42 111.62 422.42 112.26 426.5 109.75 426.5 102.22 425.65 102.74 425.65 109.63" fill="#084c94"/>
        <polygon points="433.1 186.31 429.86 188.3 429.86 188.94 433.95 186.44 433.95 167.24 433.1 167.76 433.1 186.31" fill="#084c94"/>
        <polygon points="433.1 245.37 429.86 247.36 429.86 248 433.95 245.49 433.95 191.42 433.1 191.94 433.1 245.37" fill="#084c94"/>
        <polygon points="418.2 152.37 414.97 154.35 414.97 155 419.05 152.49 419.05 141.07 418.2 141.59 418.2 152.37" fill="#084c94"/>
        <polygon points="418.2 171.37 414.97 173.35 414.97 174 419.05 171.49 419.05 156.18 418.2 156.7 418.2 171.37" fill="#084c94"/>
        <polygon points="418.2 194.9 414.97 196.89 414.97 197.53 419.05 195.02 419.05 175.82 418.2 176.34 418.2 194.9" fill="#084c94"/>
        <polygon points="425.65 249.66 422.42 251.65 422.42 252.29 426.5 249.78 426.5 195.71 425.65 196.24 425.65 249.66" fill="#084c94"/>
        <polygon points="418.2 253.96 414.97 255.94 414.97 256.59 419.05 254.08 419.05 200.01 418.2 200.53 418.2 253.96" fill="#084c94"/>
        <polygon points="433.1 162.78 429.86 164.77 429.86 165.41 433.95 162.9 433.95 147.59 433.1 148.11 433.1 162.78" fill="#084c94"/>
        <polygon points="418.2 113.92 414.97 115.91 414.97 116.55 419.05 114.04 419.05 106.51 418.2 107.03 418.2 113.92" fill="#084c94"/>
        <polygon points="418.2 125.59 414.97 127.58 414.97 128.22 419.05 125.71 419.05 118.18 418.2 118.7 418.2 125.59" fill="#084c94"/>
        <polygon points="418.2 137.26 414.97 139.25 414.97 139.89 419.05 137.38 419.05 129.85 418.2 130.37 418.2 137.26" fill="#084c94"/>
        <polygon points="448 135.19 444.76 137.18 444.76 137.82 448.85 135.31 448.85 123.89 448 124.42 448 135.19" fill="#084c94"/>
        <polygon points="448 154.19 444.76 156.18 444.76 156.82 448.85 154.31 448.85 139 448 139.53 448 154.19" fill="#084c94"/>
        <polygon points="433.1 143.78 429.86 145.77 429.86 146.41 433.95 143.9 433.95 132.48 433.1 133 433.1 143.78" fill="#084c94"/>
        <polygon points="448 177.73 444.76 179.72 444.76 180.36 448.85 177.85 448.85 158.65 448 159.17 448 177.73" fill="#084c94"/>
        <polygon points="440.55 101.04 437.31 103.03 437.31 103.67 441.4 101.16 441.4 93.63 440.55 94.15 440.55 101.04" fill="#084c94"/>
        <polygon points="448 89.86 448 96.75 444.76 98.74 444.76 99.38 448.85 96.87 448.85 89.34 448 89.86" fill="#084c94"/>
        <polygon points="440.55 112.71 437.31 114.7 437.31 115.34 441.4 112.83 441.4 105.3 440.55 105.82 440.55 112.71" fill="#084c94"/>
        <polygon points="448 120.08 444.76 122.07 444.76 122.72 448.85 120.21 448.85 112.68 448 113.2 448 120.08" fill="#084c94"/>
        <polygon points="448 108.42 444.76 110.4 444.76 111.05 448.85 108.54 448.85 101.01 448 101.53 448 108.42" fill="#084c94"/>
        <polygon points="448 236.78 444.76 238.77 444.76 239.41 448.85 236.9 448.85 182.83 448 183.35 448 236.78" fill="#084c94"/>
        <polygon points="433.1 117 429.86 118.99 429.86 119.63 433.95 117.12 433.95 109.59 433.1 110.11 433.1 117" fill="#084c94"/>
        <polygon points="440.55 241.07 437.31 243.06 437.31 243.71 441.4 241.2 441.4 187.13 440.55 187.65 440.55 241.07" fill="#084c94"/>
        <polygon points="440.55 124.38 437.31 126.37 437.31 127.01 441.4 124.5 441.4 116.97 440.55 117.49 440.55 124.38" fill="#084c94"/>
        <polygon points="433.1 128.67 429.86 130.66 429.86 131.3 433.95 128.79 433.95 121.26 433.1 121.78 433.1 128.67" fill="#084c94"/>
        <polygon points="433.1 105.33 429.86 107.32 429.86 107.97 433.95 105.46 433.95 97.93 433.1 98.45 433.1 105.33" fill="#084c94"/>
        <polygon points="440.55 139.49 437.31 141.47 437.31 142.12 441.4 139.61 441.4 128.19 440.55 128.71 440.55 139.49" fill="#084c94"/>
        <polygon points="440.55 158.49 437.31 160.47 437.31 161.12 441.4 158.61 441.4 143.3 440.55 143.82 440.55 158.49" fill="#084c94"/>
        <polygon points="440.55 182.02 437.31 184.01 437.31 184.65 441.4 182.14 441.4 162.94 440.55 163.46 440.55 182.02" fill="#084c94"/>
      </g>
      <g>
        <polygon points="410.43 94.13 410.43 99.75 442.92 81.07 442.92 75.45 410.43 94.13" fill="#a8cff0"/>
        <polygon points="410.45 94.13 410.45 99.75 378.42 81.07 378.42 75.47 410.45 94.13" fill="#d1ebff"/>
        <polygon points="378.42 75.47 410.45 94.13 442.92 75.45 410.85 56.77 378.42 75.47" fill="#f0f8ff"/>
      </g>
      <g>
        <g>
          <polygon points="435.98 75.7 410.35 60.77 384.68 75.55 410.35 90.5 435.98 75.7" fill="url(#a)"/>
          <polygon points="410.36 65.18 410.36 60.78 410.35 60.77 384.68 75.55 388.5 77.77 410.36 65.18" fill="#72b5e8"/>
          <polygon points="410.35 65.18 432.18 77.89 435.98 75.7 410.35 60.77 410.35 65.18" fill="#a8cff0"/>
        </g>
        <polygon points="388.66 77.67 410.19 90.21 432 77.66 410.46 65.11 388.66 77.67" fill="#d1ebff"/>
      </g>
    </g>
    <g>
      <g>
        <polygon points="495.57 179.56 495.57 182.63 538.14 157.8 538.14 154.73 495.57 179.56" fill="#d1ebff"/>
        <polygon points="495.6 179.56 495.6 182.63 452.88 157.73 452.88 154.68 495.6 179.56" fill="#a8cff0"/>
        <polygon points="452.88 154.68 495.6 179.56 538.14 154.73 495.38 129.83 452.88 154.68" fill="#084c94"/>
      </g>
      <g>
        <polygon points="495.57 158.14 495.57 177.72 535.12 154.65 535.12 135.07 495.57 158.14" fill="#3f92d1"/>
        <polygon points="495.57 164 495.57 177.72 535.12 154.65 535.12 140.93 495.57 164" fill="#3f92d1"/>
        <polygon points="495.59 158.14 495.59 177.72 455.9 154.59 455.9 135.03 495.59 158.14" fill="#2672ab"/>
      </g>
      <g>
        <polygon points="495.57 150.15 495.57 160.8 538.14 135.97 538.14 125.32 495.57 150.15" fill="#d1ebff"/>
        <polygon points="495.6 150.15 495.6 160.8 452.88 135.9 452.88 125.28 495.6 150.15" fill="#a8cff0"/>
        <polygon points="452.88 125.28 495.6 150.15 538.14 125.32 495.38 100.42 452.88 125.28" fill="#084c94"/>
      </g>
      <g>
        <polygon points="495.57 141.36 495.57 148.32 535.12 125.25 535.12 118.29 495.57 141.36" fill="#3f92d1"/>
        <polygon points="495.59 141.36 495.59 148.32 455.9 125.18 455.9 118.25 495.59 141.36" fill="#2672ab"/>
      </g>
      <g>
        <polygon points="495.57 133.37 495.57 144.02 538.14 119.19 538.14 108.54 495.57 133.37" fill="#d1ebff"/>
        <polygon points="495.6 133.37 495.6 144.02 452.88 119.12 452.88 108.5 495.6 133.37" fill="#a8cff0"/>
        <polygon points="452.88 108.5 495.6 133.37 538.14 108.54 495.38 83.64 452.88 108.5" fill="#084c94"/>
      </g>
      <g>
        <polygon points="495.57 124.58 495.57 131.54 535.12 108.47 535.12 101.51 495.57 124.58" fill="#3f92d1"/>
        <polygon points="495.59 124.58 495.59 131.54 455.9 108.4 455.9 101.47 495.59 124.58" fill="#2672ab"/>
      </g>
      <g>
        <polygon points="495.57 116.59 495.57 127.24 538.14 102.41 538.14 91.76 495.57 116.59" fill="#d1ebff"/>
        <polygon points="495.6 116.59 495.6 127.24 452.88 102.34 452.88 91.72 495.6 116.59" fill="#a8cff0"/>
        <polygon points="452.88 91.72 495.6 116.59 538.14 91.76 495.38 66.86 452.88 91.72" fill="#084c94"/>
      </g>
      <g>
        <polygon points="495.57 108.01 495.57 114.97 535.12 91.9 535.12 84.94 495.57 108.01" fill="#3f92d1"/>
        <polygon points="495.59 108.01 495.59 114.97 455.9 91.83 455.9 84.89 495.59 108.01" fill="#2672ab"/>
      </g>
      <g>
        <polygon points="495.57 100.02 495.57 110.67 538.14 85.84 538.14 75.19 495.57 100.02" fill="#d1ebff"/>
        <polygon points="495.6 100.02 495.6 110.67 452.88 85.77 452.88 75.14 495.6 100.02" fill="#a8cff0"/>
        <polygon points="452.88 75.14 495.6 100.02 538.14 75.19 495.38 50.29 452.88 75.14" fill="#084c94"/>
      </g>
      <g>
        <polygon points="495.57 91.23 495.57 98.19 535.12 75.12 535.12 68.16 495.57 91.23" fill="#3f92d1"/>
        <polygon points="495.59 91.23 495.59 98.19 455.9 75.05 455.9 68.11 495.59 91.23" fill="#2672ab"/>
      </g>
      <g>
        <polygon points="495.57 83.24 495.57 93.89 538.14 69.06 538.14 58.41 495.57 83.24" fill="#d1ebff"/>
        <polygon points="495.6 83.24 495.6 93.89 452.88 68.99 452.88 58.37 495.6 83.24" fill="#a8cff0"/>
        <polygon points="452.88 58.37 495.6 83.24 538.14 58.41 495.38 33.51 452.88 58.37" fill="#084c94"/>
      </g>
      <g>
        <polygon points="495.57 74.44 495.57 81.41 535.12 58.34 535.12 51.38 495.57 74.44" fill="#3f92d1"/>
        <polygon points="495.59 74.44 495.59 81.41 455.9 58.27 455.9 51.33 495.59 74.44" fill="#2672ab"/>
      </g>
      <g>
        <polygon points="495.57 66.51 495.57 77.16 538.14 52.33 538.14 41.68 495.57 66.51" fill="#d1ebff"/>
        <polygon points="495.6 66.51 495.6 77.16 452.88 52.26 452.88 41.64 495.6 66.51" fill="#a8cff0"/>
        <polygon points="452.88 41.64 495.6 66.51 538.14 41.68 495.38 16.78 452.88 41.64" fill="#084c94"/>
      </g>
      <g>
        <polygon points="495.57 57.72 495.57 64.68 535.12 41.61 535.12 34.65 495.57 57.72" fill="#3f92d1"/>
        <polygon points="495.59 57.72 495.59 64.68 455.9 41.54 455.9 34.61 495.59 57.72" fill="#2672ab"/>
      </g>
      <g>
        <polygon points="495.57 49.73 495.57 60.38 538.14 35.55 538.14 24.9 495.57 49.73" fill="#d1ebff"/>
        <polygon points="495.6 49.73 495.6 60.38 452.88 35.48 452.88 24.86 495.6 49.73" fill="#a8cff0"/>
        <polygon points="452.88 24.86 495.6 49.73 538.14 24.9 495.38 0 452.88 24.86" fill="#f0f8ff"/>
      </g>
      <g>
        <polygon points="531.83 25.16 495.41 3.95 458.95 24.95 495.41 46.18 531.83 25.16" fill="#d1ebff"/>
        <polygon points="495.43 10.22 495.43 3.96 495.41 3.95 458.95 24.95 464.37 28.1 495.43 10.22" fill="#a8cff0"/>
        <polygon points="495.41 10.22 526.42 28.28 531.83 25.16 495.41 3.95 495.41 10.22" fill="#72b5e8"/>
      </g>
    </g>
    <g>
      <g>
        <polygon points="495.08 159.68 495.08 345.68 538.05 320.97 538.05 134.97 495.08 159.68" fill="#a8cff0"/>
        <polygon points="495.1 159.68 495.1 345.68 452.73 320.98 452.73 135 495.1 159.68" fill="#d1ebff"/>
        <g>
          <path d="M-1946.72-35.07l-4.13,2.53v4.77l4.13-2.53Zm-7.54,4.34-4.13,2.53v4.78l4.13-2.54Zm-7.54,4.34-4.13,2.54v4.77l4.13-2.54ZM-1981-15.16v4.77l4.13-2.54V-17.7Zm11.67-6.88-4.13,2.53v4.78l4.13-2.54Z" transform="translate(2480.69 177.34)" fill="#084c94"/>
          <path d="M-1946.72-26.09l-4.13,2.54v4.77l4.13-2.54Zm-7.54,4.34-4.13,2.54v4.77l4.13-2.54Zm-7.54,4.35-4.13,2.53v4.78l4.13-2.54ZM-1981-6.18v4.77l4.13-2.53V-8.71Zm11.67-6.88-4.13,2.54v4.77l4.13-2.54Z" transform="translate(2480.69 177.34)" fill="#084c94"/>
          <path d="M-1946.72-17.1l-4.13,2.53V-9.8l4.13-2.54Zm-7.54,4.34-4.13,2.53v4.78l4.13-2.54Zm-7.54,4.34-4.13,2.54v4.77l4.13-2.54ZM-1981,2.8V7.58l4.13-2.54V.27Zm11.67-6.87-4.13,2.53V3.23l4.13-2.53Z" transform="translate(2480.69 177.34)" fill="#084c94"/>
          <path d="M-1946.72-8.12l-4.13,2.53V-.81l4.13-2.54Zm-7.54,4.34-4.13,2.54V3.53l4.13-2.54ZM-1961.8.57l-4.13,2.53V7.88l4.13-2.54ZM-1981,11.79v4.77l4.13-2.54V9.25Zm11.67-6.88-4.13,2.54v4.77l4.13-2.54Z" transform="translate(2480.69 177.34)" fill="#084c94"/>
          <path d="M-1946.72.86l-4.13,2.54V8.17l4.13-2.54Zm-7.54,4.35-4.13,2.53v4.78l4.13-2.54Zm-7.54,4.34-4.13,2.54v4.77l4.13-2.54ZM-1981,20.77v4.78l4.13-2.54V18.24Zm11.67-6.87-4.13,2.53V21.2l4.13-2.53Z" transform="translate(2480.69 177.34)" fill="#084c94"/>
          <path d="M-1946.72,9.85l-4.13,2.53v4.78l4.13-2.54Zm-7.54,4.34-4.13,2.54V21.5l4.13-2.54Zm-7.54,4.35-4.13,2.53v4.77l4.13-2.53ZM-1981,29.76v4.77l4.13-2.54V27.22Zm11.67-6.88-4.13,2.53v4.78l4.13-2.54Z" transform="translate(2480.69 177.34)" fill="#084c94"/>
          <path d="M-1946.72,18.83l-4.13,2.54v4.77l4.13-2.54Zm-7.54,4.35-4.13,2.53v4.77l4.13-2.53Zm-7.54,4.34-4.13,2.54v4.77l4.13-2.54ZM-1981,38.74v4.78l4.13-2.54V36.21Zm11.67-6.88-4.13,2.54v4.77l4.13-2.54Z" transform="translate(2480.69 177.34)" fill="#084c94"/>
          <path d="M-1946.72,27.82l-4.13,2.53v4.78l4.13-2.54Zm-7.54,4.34-4.13,2.54v4.77l4.13-2.54Zm-7.54,4.34-4.13,2.54v4.77l4.13-2.54ZM-1981,47.73V52.5l4.13-2.54V45.19Zm11.67-6.88-4.13,2.53v4.78l4.13-2.54Z" transform="translate(2480.69 177.34)" fill="#084c94"/>
          <path d="M-1946.72,36.8l-4.13,2.54v4.77l4.13-2.54Zm-7.54,4.35-4.13,2.53v4.77l4.13-2.53Zm-7.54,4.34-4.13,2.53V52.8l4.13-2.54ZM-1981,56.71v4.78l4.13-2.54V54.18Zm11.67-6.88-4.13,2.54v4.77l4.13-2.54Z" transform="translate(2480.69 177.34)" fill="#084c94"/>
          <path d="M-1946.72,45.79l-4.13,2.53v4.77l4.13-2.53Zm-7.54,4.34-4.13,2.53v4.78l4.13-2.54Zm-7.54,4.34-4.13,2.54v4.77l4.13-2.54ZM-1981,65.7v4.77l4.13-2.54V63.16Zm11.67-6.88-4.13,2.53v4.78l4.13-2.54Z" transform="translate(2480.69 177.34)" fill="#084c94"/>
          <path d="M-1946.72,54.77l-4.13,2.54v4.77l4.13-2.54Zm-7.54,4.34-4.13,2.54v4.77l4.13-2.54Zm-7.54,4.35-4.13,2.53v4.78l4.13-2.54ZM-1981,74.68v4.77l4.13-2.53V72.15Zm11.67-6.88-4.13,2.54v4.77l4.13-2.54Z" transform="translate(2480.69 177.34)" fill="#084c94"/>
          <path d="M-1946.72,63.75l-4.13,2.54v4.77l4.13-2.54Zm-7.54,4.35-4.13,2.53v4.78l4.13-2.54Zm-7.54,4.34-4.13,2.54v4.77l4.13-2.54ZM-1981,83.66v4.78l4.13-2.54V81.13Zm11.67-6.87-4.13,2.53v4.77l4.13-2.53Z" transform="translate(2480.69 177.34)" fill="#084c94"/>
          <path d="M-1946.72,72.74l-4.13,2.53v4.78l4.13-2.54Zm-7.54,4.34-4.13,2.54v4.77l4.13-2.54Zm-7.54,4.35-4.13,2.53v4.78l4.13-2.54ZM-1981,92.65v4.77l4.13-2.54V90.11Zm11.67-6.88-4.13,2.54v4.77l4.13-2.54Z" transform="translate(2480.69 177.34)" fill="#084c94"/>
          <path d="M-1946.72,81.72l-4.13,2.54V89l4.13-2.54Zm-7.54,4.35-4.13,2.53v4.78l4.13-2.54Zm-7.54,4.34-4.13,2.54v4.77l4.13-2.54Zm-19.2,11.22v4.78l4.13-2.54V99.1Zm11.67-6.87-4.13,2.53v4.77l4.13-2.54Z" transform="translate(2480.69 177.34)" fill="#084c94"/>
          <path d="M-1946.72,90.71l-4.13,2.53V98l4.13-2.54Zm-7.54,4.34-4.13,2.54v4.77l4.13-2.54Zm-7.54,4.35-4.13,2.53v4.77l4.13-2.53Zm-19.2,11.22v4.77l4.13-2.54v-4.77Zm11.67-6.88-4.13,2.53v4.78l4.13-2.54Z" transform="translate(2480.69 177.34)" fill="#084c94"/>
          <path d="M-1946.72,99.69l-4.13,2.54V107l4.13-2.54Zm-7.54,4.35-4.13,2.53v4.77l4.13-2.53Zm-7.54,4.34-4.13,2.53v4.78l4.13-2.54ZM-1981,119.6v4.78l4.13-2.54v-4.77Zm11.67-6.88-4.13,2.54V120l4.13-2.54Z" transform="translate(2480.69 177.34)" fill="#084c94"/>
          <path d="M-1946.72,108.68l-4.13,2.53V116l4.13-2.54Zm-7.54,4.34-4.13,2.54v4.77l4.13-2.54Zm-7.54,4.34-4.13,2.54v4.77l4.13-2.54Zm-19.2,11.23v4.77l4.13-2.54v-4.77Zm11.67-6.88-4.13,2.53V129l4.13-2.54Z" transform="translate(2480.69 177.34)" fill="#084c94"/>
          <path d="M-1946.72,117.66l-4.13,2.54V125l4.13-2.54Zm-7.54,4.35-4.13,2.53v4.77l4.13-2.54Zm-7.54,4.34-4.13,2.53v4.78l4.13-2.54Zm-19.2,11.22v4.78l4.13-2.54V135Zm11.67-6.88-4.13,2.54V138l4.13-2.54Z" transform="translate(2480.69 177.34)" fill="#084c94"/>
          <path d="M-1946.72,126.65l-4.13,2.53V134l4.13-2.53Zm-7.54,4.34-4.13,2.53v4.78l4.13-2.54Zm-7.54,4.34-4.13,2.54v4.77l4.13-2.54Zm-19.2,11.23v4.77l4.13-2.54V144Zm11.67-6.88-4.13,2.53V147l4.13-2.54Z" transform="translate(2480.69 177.34)" fill="#084c94"/>
          <path d="M-1946.72,135.63l-4.13,2.54v4.77l4.13-2.54Zm-7.54,4.34-4.13,2.54v4.77l4.13-2.54Zm-7.54,4.35-4.13,2.53v4.78l4.13-2.54Zm-19.2,11.22v4.77l4.13-2.53V153Zm11.67-6.88-4.13,2.54V156l4.13-2.54Z" transform="translate(2480.69 177.34)" fill="#084c94"/>
        </g>
        <polygon points="452.73 135 495.1 159.68 538.05 134.97 495.63 110.26 452.73 135" fill="#f0f8ff"/>
        <g>
          <path d="M-1993.93-17.7v4.77l4.13,2.54v-4.77Zm-7.54.43,4.13,2.54v-4.78l-4.13-2.53Zm-22.61-13,4.13,2.53v-4.77l-4.13-2.53Zm7.54,4.34,4.13,2.54V-28.2l-4.13-2.53Zm7.54,4.34,4.13,2.54v-4.77l-4.13-2.54Z" transform="translate(2480.69 177.34)" fill="#2672ab"/>
          <path d="M-1993.93-8.71v4.77l4.13,2.53V-6.18Zm-7.54.42,4.13,2.54v-4.77l-4.13-2.54Zm-22.61-13,4.13,2.54v-4.77l-4.13-2.54Zm7.54,4.34,4.13,2.54v-4.77l-4.13-2.54Zm7.54,4.35,4.13,2.54v-4.78L-2009-17.4Z" transform="translate(2480.69 177.34)" fill="#2672ab"/>
          <path d="M-1993.93.27V5l4.13,2.54V2.8Zm-7.54.43,4.13,2.53V-1.54l-4.13-2.53Zm-22.61-13,4.13,2.54v-4.77l-4.13-2.53Zm7.54,4.35,4.13,2.54v-4.78l-4.13-2.53Zm7.54,4.34,4.13,2.54V-5.88L-2009-8.42Z" transform="translate(2480.69 177.34)" fill="#2672ab"/>
          <path d="M-1993.93,9.25V14l4.13,2.54V11.79Zm-7.54.43,4.13,2.54V7.45l-4.13-2.54Zm-22.61-13,4.13,2.54V-5.59l-4.13-2.53Zm7.54,4.34,4.13,2.54V-1.24l-4.13-2.54Zm7.54,4.35,4.13,2.54V3.1L-2009,.57Z" transform="translate(2480.69 177.34)" fill="#2672ab"/>
          <path d="M-1993.93,18.24V23l4.13,2.54V20.77Zm-7.54.43,4.13,2.53V16.43l-4.13-2.53Zm-22.61-13,4.13,2.54V3.4l-4.13-2.54Zm7.54,4.35,4.13,2.54V7.74l-4.13-2.53Zm7.54,4.34,4.13,2.54V12.09L-2009,9.55Z" transform="translate(2480.69 177.34)" fill="#2672ab"/>
          <path d="M-1993.93,27.22V32l4.13,2.54V29.76Zm-7.54.43,4.13,2.54V25.41l-4.13-2.53Zm-22.61-13,4.13,2.54V12.38l-4.13-2.53Zm7.54,4.34,4.13,2.54V16.73l-4.13-2.54Zm7.54,4.35,4.13,2.53V21.07l-4.13-2.53Z" transform="translate(2480.69 177.34)" fill="#2672ab"/>
          <path d="M-1993.93,36.21V41l4.13,2.54V38.74Zm-7.54.42,4.13,2.54V34.4l-4.13-2.54Zm-22.61-13,4.13,2.54V21.37l-4.13-2.54Zm7.54,4.35,4.13,2.53V25.71l-4.13-2.53Zm7.54,4.34,4.13,2.54V30.06l-4.13-2.54Z" transform="translate(2480.69 177.34)" fill="#2672ab"/>
          <path d="M-1993.93,45.19V50l4.13,2.54V47.73Zm-7.54.43,4.13,2.54V43.38l-4.13-2.53Zm-22.61-13,4.13,2.54V30.35l-4.13-2.53Zm7.54,4.34,4.13,2.54V34.7l-4.13-2.54Zm7.54,4.34,4.13,2.54V39L-2009,36.5Z" transform="translate(2480.69 177.34)" fill="#2672ab"/>
          <path d="M-1993.93,54.18V59l4.13,2.54V56.71Zm-7.54.42,4.13,2.54V52.37l-4.13-2.54Zm-22.61-13,4.13,2.54V39.34l-4.13-2.54Zm7.54,4.35,4.13,2.53V43.68l-4.13-2.53Zm7.54,4.34,4.13,2.54V48l-4.13-2.53Z" transform="translate(2480.69 177.34)" fill="#2672ab"/>
          <path d="M-1993.93,63.16v4.77l4.13,2.54V65.7Zm-7.54.43,4.13,2.54V61.35l-4.13-2.53Zm-22.61-13,4.13,2.53V48.32l-4.13-2.53Zm7.54,4.34,4.13,2.54V52.66l-4.13-2.53Zm7.54,4.34,4.13,2.54V57l-4.13-2.54Z" transform="translate(2480.69 177.34)" fill="#2672ab"/>
          <path d="M-1993.93,72.15v4.77l4.13,2.53V74.68Zm-7.54.42,4.13,2.54V70.34l-4.13-2.54Zm-22.61-13,4.13,2.54V57.31l-4.13-2.54Zm7.54,4.34,4.13,2.54V61.65l-4.13-2.54Zm7.54,4.35,4.13,2.54V66l-4.13-2.53Z" transform="translate(2480.69 177.34)" fill="#2672ab"/>
          <path d="M-1993.93,81.13V85.9l4.13,2.54V83.66Zm-7.54.43,4.13,2.53V79.32l-4.13-2.53Zm-22.61-13,4.13,2.54V66.29l-4.13-2.54Zm7.54,4.35,4.13,2.54V70.63l-4.13-2.53Zm7.54,4.34,4.13,2.54V75l-4.13-2.54Z" transform="translate(2480.69 177.34)" fill="#2672ab"/>
          <path d="M-1993.93,90.11v4.77l4.13,2.54V92.65Zm-7.54.43,4.13,2.54V88.31l-4.13-2.54Zm-22.61-13,4.13,2.54V75.27l-4.13-2.53Zm7.54,4.34,4.13,2.54V79.62l-4.13-2.54Zm7.54,4.35,4.13,2.54V84l-4.13-2.53Z" transform="translate(2480.69 177.34)" fill="#2672ab"/>
          <path d="M-1993.93,99.1v4.77l4.13,2.54v-4.78Zm-7.54.42,4.13,2.54V97.29l-4.13-2.53Zm-22.61-13,4.13,2.54V84.26l-4.13-2.54Zm7.54,4.35,4.13,2.54V88.6l-4.13-2.53Zm7.54,4.34,4.13,2.54V93l-4.13-2.54Z" transform="translate(2480.69 177.34)" fill="#2672ab"/>
          <path d="M-1993.93,108.08v4.77l4.13,2.54v-4.77Zm-7.54.43,4.13,2.54v-4.78l-4.13-2.53Zm-22.61-13,4.13,2.54V93.24l-4.13-2.53Zm7.54,4.34,4.13,2.54V97.59l-4.13-2.54Zm7.54,4.35,4.13,2.53v-4.77L-2009,99.4Z" transform="translate(2480.69 177.34)" fill="#2672ab"/>
          <path d="M-1993.93,117.07v4.77l4.13,2.54V119.6Zm-7.54.42,4.13,2.54v-4.77l-4.13-2.54Zm-22.61-13,4.13,2.54v-4.77l-4.13-2.54Zm7.54,4.35,4.13,2.53v-4.77l-4.13-2.53Zm7.54,4.34,4.13,2.54v-4.78l-4.13-2.53Z" transform="translate(2480.69 177.34)" fill="#2672ab"/>
          <path d="M-1993.93,126.05v4.77l4.13,2.54v-4.77Zm-7.54.43,4.13,2.54v-4.78l-4.13-2.53Zm-22.61-13,4.13,2.54v-4.78l-4.13-2.53Zm7.54,4.34,4.13,2.54v-4.77l-4.13-2.54Zm7.54,4.34,4.13,2.54V119.9l-4.13-2.54Z" transform="translate(2480.69 177.34)" fill="#2672ab"/>
          <path d="M-1993.93,135v4.77l4.13,2.54v-4.78Zm-7.54.42,4.13,2.54v-4.77l-4.13-2.54Zm-22.61-13,4.13,2.54V120.2l-4.13-2.54Zm7.54,4.34,4.13,2.54v-4.77l-4.13-2.53Zm7.54,4.35,4.13,2.54v-4.78l-4.13-2.53Z" transform="translate(2480.69 177.34)" fill="#2672ab"/>
          <path d="M-1993.93,144v4.77l4.13,2.54v-4.77Zm-7.54.43,4.13,2.54v-4.78l-4.13-2.53Zm-22.61-13,4.13,2.53v-4.77l-4.13-2.53Zm7.54,4.34,4.13,2.54v-4.78l-4.13-2.53Zm7.54,4.34,4.13,2.54v-4.77l-4.13-2.54Z" transform="translate(2480.69 177.34)" fill="#2672ab"/>
          <path d="M-1993.93,153v4.77l4.13,2.53v-4.77Zm-7.54.42,4.13,2.54V151.2l-4.13-2.54Zm-22.61-13,4.13,2.54v-4.77l-4.13-2.54Zm7.54,4.34,4.13,2.54v-4.77l-4.13-2.54Zm7.54,4.35,4.13,2.54v-4.78l-4.13-2.53Z" transform="translate(2480.69 177.34)" fill="#2672ab"/>
        </g>
      </g>
      <g>
        <polygon points="495.14 146.53 495.14 151.4 523.28 135.22 523.28 130.35 495.14 146.53" fill="#a8cff0"/>
        <polygon points="495.15 146.53 495.15 151.4 467.4 135.22 467.4 130.38 495.15 146.53" fill="#d1ebff"/>
        <polygon points="495.14 146.53 495.14 147.74 523.28 131.56 523.28 130.35 495.14 146.53" fill="#2672ab"/>
        <polygon points="495.15 146.53 495.15 147.74 467.4 131.56 467.4 130.38 495.15 146.53" fill="#3f92d1"/>
        <polygon points="467.4 130.38 495.15 146.53 523.28 130.35 495.5 114.18 467.4 130.38" fill="#f0f8ff"/>
      </g>
      <g>
        <polygon points="495.24 129.6 495.24 138.43 509.17 130.42 509.17 121.6 495.24 129.6" fill="#a8cff0"/>
        <polygon points="495.25 129.6 495.25 138.43 481.51 130.42 481.51 121.61 495.25 129.6" fill="#d1ebff"/>
        <polygon points="495.24 130.71 495.24 134.01 509.17 126.01 509.17 122.7 495.24 130.71" fill="#2672ab"/>
        <polygon points="495.25 130.71 495.25 134.01 481.51 126.01 481.51 122.71 495.25 130.71" fill="#3f92d1"/>
        <polygon points="481.51 121.61 495.25 129.6 509.17 121.6 495.42 113.59 481.51 121.61" fill="#f0f8ff"/>
      </g>
    </g>
  </g>
</svg>
