<svg width="350" height="196" viewBox="0 0 350 196" fill="none" xmlns="http://www.w3.org/2000/svg">
<path d="M220.96 215.388L161.474 250.033L102.238 215.457L161.78 180.785L220.96 215.388Z" fill="#084C94"/>
<path d="M161.515 220.206V247.471L106.443 215.346V188.082L161.515 220.206Z" fill="#3F92D1"/>
<path d="M161 230.879V254L94 215.121V192L161 230.879Z" fill="#3F92D1"/>
<path d="M161 220.518V254L229 214.448V181L161 220.518Z" fill="#2672AB"/>
<path d="M161.515 209.08V223.909L102.238 189.334V174.505L161.515 209.08Z" fill="#D1EBFF"/>
<path d="M161.474 209.08V223.91L220.96 189.237V174.449L161.474 209.08Z" fill="#A8CFF0"/>
<path d="M220.96 174.449L161.474 209.08L102.238 174.505L161.78 139.832L220.96 174.449Z" fill="#084C94"/>
<path d="M161.515 196.84V206.532L106.443 174.407V164.716L161.515 196.84Z" fill="#3F92D1"/>
<path d="M161.488 196.84V206.532L216.755 174.31V164.66L161.488 196.84Z" fill="#2672AB"/>
<path d="M161.515 185.714V200.544L102.238 165.969V151.139L161.515 185.714Z" fill="#D1EBFF"/>
<path d="M161.474 185.714V200.544L220.96 165.871V151.083L161.474 185.714Z" fill="#A8CFF0"/>
<path d="M220.96 151.083L161.474 185.714L102.238 151.139L161.78 116.466L220.96 151.083Z" fill="#084C94"/>
<path d="M161.515 173.474V183.166L106.443 151.041V141.35L161.515 173.474Z" fill="#3F92D1"/>
<path d="M161.488 173.474V183.166L216.755 150.944V141.294L161.488 173.474Z" fill="#2672AB"/>
<path d="M161.515 162.349V177.178L102.238 142.603V127.773L161.515 162.349Z" fill="#D1EBFF"/>
<path d="M161.474 162.349V177.179L220.96 142.506V127.718L161.474 162.349Z" fill="#A8CFF0"/>
<path d="M220.96 127.718L161.474 162.349L102.238 127.774L161.78 93.101L220.96 127.718Z" fill="#084C94"/>
<path d="M161.515 150.401V160.093L106.443 127.968V118.277L161.515 150.401Z" fill="#3F92D1"/>
<path d="M161.488 150.401V160.093L216.755 127.871V118.207L161.488 150.401Z" fill="#2672AB"/>
<path d="M161.515 139.275V154.105L102.238 119.53V104.7L161.515 139.275Z" fill="#D1EBFF"/>
<path d="M161.474 139.275V154.105L220.96 119.433V104.631L161.474 139.275Z" fill="#A8CFF0"/>
<path d="M220.96 104.631L161.474 139.275L102.238 104.7L161.78 70.0276L220.96 104.631Z" fill="#084C94"/>
<path d="M161.515 127.035V136.727L106.443 104.603V94.9111L161.515 127.035Z" fill="#3F92D1"/>
<path d="M161.488 127.036V136.727L216.755 104.505V94.8416L161.488 127.036Z" fill="#2672AB"/>
<path d="M161.515 115.909V130.739L102.238 96.1639V81.3341L161.515 115.909Z" fill="#D1EBFF"/>
<path d="M161.474 115.909V130.739L220.96 96.0668V81.2787L161.474 115.909Z" fill="#A8CFF0"/>
<path d="M220.96 81.2786L161.474 115.909L102.238 81.3343L161.78 46.6617L220.96 81.2786Z" fill="#084C94"/>
<path d="M161.515 103.656V113.361L106.443 81.2369V71.5453L161.515 103.656Z" fill="#3F92D1"/>
<path d="M161.488 103.656V113.361L216.755 81.1395V71.4757L161.488 103.656Z" fill="#2672AB"/>
<path d="M161.515 92.6133V107.443L102.238 72.868V58.0382L161.515 92.6133Z" fill="#D1EBFF"/>
<path d="M161.474 92.6135V107.443L220.96 72.7707V57.9827L161.474 92.6135Z" fill="#A8CFF0"/>
<path d="M220.96 57.9826L161.474 92.6134L102.238 58.0383L161.78 23.3657L220.96 57.9826Z" fill="#084C94"/>
<path d="M161.515 80.3739V90.0655L106.443 57.9411V48.2495L161.515 80.3739Z" fill="#3F92D1"/>
<path d="M161.488 80.3737V90.0653L216.755 57.8434V48.1936L161.488 80.3737Z" fill="#2672AB"/>
<path d="M161.515 69.2476V84.0774L102.238 49.5023V34.6725L161.515 69.2476Z" fill="#D1EBFF"/>
<path d="M161.474 69.2479V84.0777L220.96 49.4051V34.6171L161.474 69.2479Z" fill="#A8CFF0"/>
<path d="M220.96 34.6169L161.474 69.2477L102.238 34.6726L161.78 0L220.96 34.6169Z" fill="#F0F8FF"/>
<path d="M111.024 35.0346L161.738 5.50024L212.508 34.7422L161.738 64.3044L111.024 35.0346Z" fill="#D1EBFF"/>
<path d="M161.711 14.2311V5.51417L161.738 5.50024L212.508 34.7422L204.961 39.1285L161.711 14.2311Z" fill="#A8CFF0"/>
<path d="M161.738 14.2311L118.558 39.3791L111.025 35.0346L161.738 5.50024V14.2311Z" fill="#72B5E8"/>
<path d="M60.3219 179.816V438.816L0.487328 404.408V145.408L60.3219 179.816Z" fill="#A8CFF0"/>
<path d="M60.294 179.816V438.816L119.293 404.422V145.45L60.294 179.816Z" fill="#D1EBFF"/>
<path d="M6.16857 155.573L11.9195 159.096V165.738L6.16857 162.215V155.573ZM16.6679 161.616L22.4188 165.139V171.795L16.6679 168.258V161.616ZM27.1672 167.66L32.9181 171.197V177.839L27.1672 174.302V167.66ZM53.9026 183.297V189.939L48.1517 186.402V179.76L53.9026 183.297ZM37.6524 173.717L43.4033 177.24V183.896L37.6524 180.359V173.717Z" fill="#084C94"/>
<path d="M6.16863 168.077L11.9196 171.614V178.256L6.16863 174.719V168.077ZM16.6679 174.121L22.4189 177.658V184.3L16.6679 180.763V174.121ZM27.1672 180.178L32.9182 183.701V190.357L27.1672 186.82V180.178ZM53.9026 195.802V202.444L48.1517 198.921V192.279L53.9026 195.802ZM37.6524 186.221L43.4033 189.758V196.4L37.6524 192.863V186.221Z" fill="#084C94"/>
<path d="M6.16863 180.596L11.9196 184.119V190.761L6.16863 187.224V180.596ZM16.6679 186.639L22.4189 190.162V196.818L16.6679 193.281V186.639ZM27.1672 192.682L32.9182 196.219V202.861L27.1672 199.324V192.682ZM53.9026 208.306V214.962L48.1517 211.425V204.783L53.9026 208.306ZM37.6524 198.74L43.4033 202.263V208.905L37.6524 205.382V198.74Z" fill="#084C94"/>
<path d="M6.16863 193.1L11.9196 196.623V203.279L6.16863 199.742V193.1ZM16.6679 199.143L22.4189 202.68V209.322L16.6679 205.786V199.143ZM27.1672 205.201L32.9182 208.724V215.38L27.1672 211.843V205.201ZM53.9026 220.824V227.466L48.1517 223.929V217.287L53.9026 220.824ZM37.6524 211.244L43.4033 214.781V221.423L37.6524 217.886V211.244Z" fill="#084C94"/>
<path d="M119.293 145.45L60.294 179.816L0.48732 145.408L59.556 111L119.293 145.45Z" fill="#F0F8FF"/>
<path d="M71.9074 179.76V186.402L66.1565 189.939V183.297L71.9074 179.76ZM82.4065 180.359L76.6556 183.896V177.24L82.4065 173.717V180.359ZM113.89 162.257L108.139 165.78V159.138L113.89 155.615V162.257ZM103.391 168.3L97.6403 171.837V165.139L103.391 161.616V168.3ZM92.8919 174.343L87.141 177.88V171.238L92.8919 167.701V174.343Z" fill="#2672AB"/>
<path d="M71.9074 192.278V198.921L66.1565 202.443V195.801L71.9074 192.278ZM82.4065 192.863L76.6556 196.4V189.758L82.4065 186.221V192.863ZM113.89 174.761L108.139 178.298V171.656L113.89 168.119V174.761ZM103.391 180.804L97.6403 184.341V177.699L103.391 174.162V180.804ZM92.8919 186.862L87.141 190.399V183.743L92.8919 180.178V186.862Z" fill="#2672AB"/>
<path d="M71.9074 204.783V211.369L66.1565 214.906V208.306L71.9074 204.783ZM82.4065 205.382L76.6556 208.905V202.262L82.4065 198.739V205.382ZM113.89 187.279L108.139 190.816V184.174L113.89 180.651V187.279ZM103.391 193.337L97.6403 196.874V190.218L103.391 186.695V193.337ZM92.8919 199.38L87.141 202.917V196.219L92.8919 192.682V199.38Z" fill="#2672AB"/>
<path d="M71.9074 217.287V223.901L66.1565 227.438V220.824L71.9074 217.287ZM82.4065 217.886L76.6556 221.423V214.781L82.4065 211.244V217.886ZM113.89 199.784L108.139 203.321V196.623L113.89 193.1V199.784ZM103.391 205.827L97.6403 209.364V202.68L103.391 199.143V205.827ZM92.8919 211.884L87.141 215.421V208.723L92.8919 205.2V211.884Z" fill="#2672AB"/>
<path d="M60.2385 161.505V168.286L21.0542 145.756V138.975L60.2385 161.505Z" fill="#A8CFF0"/>
<path d="M60.2246 161.505V168.286L98.8657 145.756V139.016L60.2246 161.505Z" fill="#D1EBFF"/>
<path d="M60.2385 161.505V163.19L21.0542 140.659V138.975L60.2385 161.505Z" fill="#2672AB"/>
<path d="M60.2246 161.505V163.19L98.8657 140.659V139.016L60.2246 161.505Z" fill="#3F92D1"/>
<path d="M98.8657 139.016L60.2245 161.505L21.0542 138.975L59.7372 116.458L98.8657 139.016Z" fill="#F0F8FF"/>
<path d="M60.0991 137.93V150.226L40.7019 139.072V126.791L60.0991 137.93Z" fill="#A8CFF0"/>
<path d="M60.0852 137.93V150.226L79.2178 139.072V126.805L60.0852 137.93Z" fill="#D1EBFF"/>
<path d="M60.0991 139.476V144.071L40.7019 132.932V128.323L60.0991 139.476Z" fill="#2672AB"/>
<path d="M60.0852 139.476V144.071L79.2178 132.932V128.336L60.0852 139.476Z" fill="#3F92D1"/>
<path d="M79.2177 126.805L60.0851 137.93L40.7019 126.791L59.8484 115.637L79.2177 126.805Z" fill="#F0F8FF"/>
<path d="M261.004 134.008V354.701L201.866 320.697V100.004L261.004 134.008Z" fill="#A8CFF0"/>
<path d="M260.976 134.008V354.701L319.293 320.711V100.046L260.976 134.008Z" fill="#D1EBFF"/>
<path d="M319.293 100.046L260.976 134.008L201.866 100.004L260.238 66L319.293 100.046Z" fill="#F0F8FF"/>
<path d="M313.946 154.367L308.265 157.862V147.363L313.946 143.881V154.367ZM303.572 160.34L297.891 163.835V153.35L303.572 149.855V160.34ZM293.198 166.328L287.517 169.809V159.324L293.198 155.843V166.328Z" fill="#3F92D1"/>
<path d="M313.946 138.116L308.265 141.611V131.126L313.946 127.631V138.116ZM303.572 144.09L297.891 147.585V137.1L303.572 133.605V144.09ZM293.198 150.078L287.517 153.573V143.073L293.198 139.592V150.078Z" fill="#3F92D1"/>
<path d="M313.946 121.866L308.265 125.361V114.876L313.946 111.381V121.866ZM303.572 127.854L297.891 131.349V120.85L303.572 117.368V127.854ZM293.198 133.828L287.517 137.323V126.823L293.198 123.342V133.828Z" fill="#3F92D1"/>
<path d="M313.946 175.435L308.265 178.93V162.986L313.946 159.505V175.435ZM303.572 181.408L297.891 184.903V168.974L303.572 165.478V181.408ZM293.198 187.382L287.517 190.877V174.947L293.198 171.452V187.382Z" fill="#3F92D1"/>
<path d="M313.946 201.892L308.265 205.373V184.026L313.946 180.545V201.892ZM303.572 207.865L297.891 211.36V190.014L303.572 186.519V207.865ZM293.198 213.839L287.517 217.334V195.987L293.198 192.492V213.839Z" fill="#3F92D1"/>
<path d="M279.649 129.385V343.506L271.434 348.547V134.426L279.649 129.385Z" fill="#3F92D1"/>
<path d="M297.891 130.374L302.57 127.506V117.981L303.572 117.355V127.84L297.891 131.335V130.374Z" fill="#084C94"/>
<path d="M297.891 162.875L302.57 160.006V150.482L303.572 149.855V160.34L297.891 163.836V162.875Z" fill="#084C94"/>
<path d="M297.891 146.624L302.57 143.756V134.231L303.572 133.605V144.09L297.891 147.585V146.624Z" fill="#084C94"/>
<path d="M297.891 183.915L302.57 181.046V166.091L303.572 165.479V181.381L297.891 184.876V183.915Z" fill="#084C94"/>
<path d="M287.517 189.888L292.196 187.02V172.079L293.198 171.452V187.354L287.517 190.849V189.888Z" fill="#084C94"/>
<path d="M287.517 168.848L292.196 165.98V156.455L293.198 155.829V166.314L287.517 169.809V168.848Z" fill="#084C94"/>
<path d="M287.517 152.598L292.196 149.73V140.205L293.198 139.578V150.064L287.517 153.559V152.598Z" fill="#084C94"/>
<path d="M287.517 216.346L292.196 213.477V193.119L293.198 192.492V213.811L287.517 217.306V216.346Z" fill="#084C94"/>
<path d="M297.891 210.372L302.57 207.489V187.131L303.572 186.519V207.837L297.891 211.333V210.372Z" fill="#084C94"/>
<path d="M287.517 136.362L292.196 133.479V123.955L293.198 123.342V133.828L287.517 137.323V136.362Z" fill="#084C94"/>
<path d="M278.633 343.172V130.012L279.649 129.385V343.506L271.434 348.547V347.586L278.633 343.172Z" fill="#084C94"/>
<path d="M308.265 204.384L312.93 201.516V181.158L313.946 180.531V201.85L308.265 205.345V204.384Z" fill="#084C94"/>
<path d="M308.265 140.65L312.93 137.782V128.244L313.946 127.631V138.116L308.265 141.611V140.65Z" fill="#084C94"/>
<path d="M308.265 124.4L312.93 121.532V112.007L313.946 111.381V121.866L308.265 125.361V124.4Z" fill="#084C94"/>
<path d="M308.265 177.927L312.93 175.059V160.117L313.946 159.491V175.393L308.265 178.888V177.927Z" fill="#084C94"/>
<path d="M308.265 156.901L312.93 154.019V144.494L313.946 143.881V154.367L308.265 157.862V156.901Z" fill="#084C94"/>
<path d="M207.478 143.881L213.173 147.363V157.862L207.478 154.367V143.881ZM217.852 149.855L223.547 153.35V163.835L217.852 160.34V149.855ZM228.225 155.843L233.907 159.324V169.865L228.225 166.384V155.843ZM254.682 171.285V181.771L249.001 178.275V167.79L254.682 171.285ZM238.627 161.816L244.309 165.298V175.797L238.627 172.302V161.816Z" fill="#2672AB"/>
<path d="M207.478 127.631L213.173 131.126V141.611L207.478 138.116V127.631ZM217.852 133.605L223.547 137.1V147.585L217.852 144.09V133.605ZM228.225 139.592L233.907 143.073V153.573L228.225 150.078V139.592ZM254.682 155.035V165.52L249.001 162.025V151.54L254.682 155.035ZM238.627 145.566L244.309 149.061V159.546L238.627 156.051V145.566Z" fill="#2672AB"/>
<path d="M207.478 111.381L213.173 114.876V125.306L207.478 121.81V111.381ZM217.852 117.368L223.547 120.85V131.349L217.852 127.854V117.368ZM228.225 123.342L233.907 126.823V137.323L228.225 133.828V123.342ZM254.682 138.785V149.27L249.001 145.789V135.304L254.682 138.785ZM238.627 129.316L244.309 132.811V143.296L238.627 139.801V129.316Z" fill="#2672AB"/>
<path d="M207.478 159.505L213.173 162.986V178.902L207.478 175.407V159.505ZM217.852 165.478L223.547 168.974V184.876L217.852 181.381V165.478ZM228.225 171.452L233.907 174.947V190.849L228.225 187.354V171.452ZM254.682 186.909V202.811L249.001 199.316V183.414L254.682 186.909ZM238.627 177.44L244.309 180.921V196.837L238.627 193.342V177.44Z" fill="#2672AB"/>
<path d="M207.478 180.545L213.173 184.026V205.345L207.478 201.864V180.545ZM217.852 186.519L223.547 190.014V211.333L217.852 207.837V186.519ZM228.225 192.492L233.907 195.987V217.306L228.225 213.811V192.492ZM254.682 207.949V229.268L249.001 225.772V204.454L254.682 207.949ZM238.627 198.48L244.309 201.961V223.28L238.627 219.799V198.48Z" fill="#2672AB"/>
<path d="M239.783 172.134L244.281 174.891V175.783L238.599 172.301V161.816L239.783 162.54V172.134Z" fill="#084C94"/>
<path d="M239.783 155.884L244.281 158.641V159.547L238.599 156.051V145.566L239.783 146.29V155.884Z" fill="#084C94"/>
<path d="M239.783 193.161L244.281 195.932V196.823L238.599 193.328V177.44L239.783 178.164V193.161Z" fill="#084C94"/>
<path d="M239.783 139.634L244.281 142.405V143.296L238.599 139.801V129.316L239.783 130.04V139.634Z" fill="#084C94"/>
<path d="M250.157 199.149L254.654 201.906V202.811L248.973 199.316V183.414L250.157 184.138V199.149Z" fill="#084C94"/>
<path d="M229.409 213.644L233.921 216.415V217.306L228.225 213.811V192.492L229.409 193.217V213.644Z" fill="#084C94"/>
<path d="M250.157 145.608L254.654 148.379V149.27L248.973 145.775V135.29L250.157 136.014V145.608Z" fill="#084C94"/>
<path d="M250.157 161.858L254.654 164.629V165.52L248.973 162.025V151.54L250.157 152.264V161.858Z" fill="#084C94"/>
<path d="M250.157 178.108L254.654 180.879V181.77L248.973 178.275V167.79L250.157 168.514V178.108Z" fill="#084C94"/>
<path d="M208.661 175.226L213.173 177.997V178.888L207.477 175.393V159.491L208.661 160.229V175.226Z" fill="#084C94"/>
<path d="M208.661 201.683L213.173 204.454V205.345L207.477 201.85V180.531L208.661 181.269V201.683Z" fill="#084C94"/>
<path d="M229.409 187.187L233.921 189.958V190.849L228.225 187.354V171.452L229.409 172.176V187.187Z" fill="#084C94"/>
<path d="M219.035 127.673L223.547 130.444V131.335L217.851 127.84V117.355L219.035 118.079V127.673Z" fill="#084C94"/>
<path d="M208.661 112.105V121.699L213.173 124.47V125.361L207.477 121.866V111.381L208.661 112.105Z" fill="#084C94"/>
<path d="M219.035 143.923L223.547 146.694V147.585L217.851 144.09V133.605L219.035 134.329V143.923Z" fill="#084C94"/>
<path d="M208.661 154.186L213.173 156.957V157.862L207.477 154.367V143.881L208.661 144.605V154.186Z" fill="#084C94"/>
<path d="M208.661 137.949L213.173 140.706V141.611L207.477 138.116V127.631L208.661 128.355V137.949Z" fill="#084C94"/>
<path d="M229.409 149.897L233.921 152.668V153.559L228.225 150.064V139.578L229.409 140.303V149.897Z" fill="#084C94"/>
<path d="M219.035 160.173L223.547 162.944V163.836L217.851 160.34V149.855L219.035 150.579V160.173Z" fill="#084C94"/>
<path d="M229.409 166.147L233.921 168.918V169.809L228.225 166.314V155.829L229.409 156.553V166.147Z" fill="#084C94"/>
<path d="M229.409 133.647L233.921 136.418V137.323L228.225 133.828V123.342L229.409 124.066V133.647Z" fill="#084C94"/>
<path d="M219.035 181.213L223.547 183.971V184.876L217.851 181.381V165.479L219.035 166.203V181.213Z" fill="#084C94"/>
<path d="M219.035 207.67L223.547 210.427V211.333L217.851 207.837V186.519L219.035 187.243V207.67Z" fill="#084C94"/>
<path d="M260.976 118.05V125.876L215.735 99.8648V92.0391L260.976 118.05Z" fill="#A8CFF0"/>
<path d="M260.948 118.05V125.876L305.549 99.8647V92.0669L260.948 118.05Z" fill="#D1EBFF"/>
<path d="M305.549 92.0671L260.948 118.051L215.735 92.0392L260.391 66.0278L305.549 92.0671Z" fill="#F0F8FF"/>
<path d="M225.399 92.3873L261.088 71.5977L296.833 92.1784L261.088 112.996L225.399 92.3873Z" fill="url(#paint0_linear_628_9518)"/>
<path d="M261.074 77.7385V71.6116L261.088 71.5977L296.833 92.1784L291.513 95.2697L261.074 77.7385Z" fill="#72B5E8"/>
<path d="M261.088 77.7385L230.69 95.4368L225.399 92.3873L261.088 71.5977V77.7385Z" fill="#A8CFF0"/>
<path d="M291.29 95.1306L261.31 112.592L230.941 95.1167L260.935 77.6411L291.29 95.1306Z" fill="#D1EBFF"/>
<defs>
<linearGradient id="paint0_linear_628_9518" x1="298.128" y1="162.846" x2="258.303" y2="86.9427" gradientUnits="userSpaceOnUse">
<stop stop-color="#AFB6E5"/>
<stop offset="0.14" stop-color="#B6BCE8"/>
<stop offset="0.35" stop-color="#C8CDF1"/>
<stop offset="0.58" stop-color="#E5E9FF"/>
<stop offset="0.95" stop-color="#F5F4FC"/>
<stop offset="1" stop-color="#F7F6FB"/>
</linearGradient>
</defs>
</svg>
