<svg width="101" height="28" viewBox="0 0 101 28" fill="none" xmlns="http://www.w3.org/2000/svg">
<path d="M22.5753 13.1077V6.35382H19.4785V0.269205H17.8063V6.35382H14.7095V13.1077H13.3159V27.9615H19.7263C22.0489 27.9615 23.9069 25.7 23.9069 22.9V13.1077H22.5753ZM19.2076 8.37692H20.8798V10.3923H19.2076V8.37692ZM16.4205 8.37692H18.0927V10.3923H16.4205V8.37692ZM16.4205 11.7538H18.0927V13.7846H16.4205V11.7538ZM16.6992 23.9154H15.0269V21.8846H16.6992V23.9154ZM16.6992 20.5385H15.0269V18.5077H16.6992V20.5385ZM16.6992 17.1615H15.0269V15.1308H16.6992V17.1615ZM19.4863 23.9154H17.814V21.8846H19.4863V23.9154ZM19.4863 20.5385H17.814V18.5077H19.4863V20.5385ZM19.4863 17.1615H17.814V15.1308H19.4863V17.1615ZM19.2076 13.7846V11.7538H20.8798V13.7846H19.2076ZM22.3043 23.9154H20.6321V21.8846H22.3043V23.9154ZM22.3043 20.5385H20.6321V18.5077H22.3043V20.5385ZM22.3043 17.1615H20.6321V15.1308H22.3043V17.1615ZM6.41787 12.4308H1.40111V16.4846H0.00756836V22.9C0.00756836 25.7 1.87334 27.9615 4.18818 27.9615H7.81143V16.4846H6.41787V12.4308ZM3.32109 23.9154H1.64885V21.8846H3.32109V23.9154ZM3.32109 20.5385H1.64885V18.5077H3.32109V20.5385ZM6.10821 23.9154H4.49788V21.8846H6.17012L6.10821 23.9154ZM6.10821 20.5385H4.49788V18.5077H6.17012L6.10821 20.5385ZM8.63982 0.269205H4.49788V11.2538H7.79595V15.1H8.95724V27.9308H12.2398V0.23843H8.63982V0.269205ZM7.78046 9.73077H6.10821V7.7H7.78046V9.73077ZM7.78046 6.35382H6.10821V4.32304H7.78046V6.35382ZM10.5676 13.1077H8.8953V11.0769H10.5676V13.1077ZM10.5676 9.73077H8.8953V7.7H10.5676V9.73077ZM10.5676 6.35382H8.8953V4.32304H10.5676V6.35382Z" fill="#084C95"/>
<path d="M39.5187 15.6738C39.5187 14.9265 39.5987 14.2032 39.7587 13.5038C39.9347 12.8042 40.2067 12.1842 40.5747 11.6438C40.9427 11.0873 41.4227 10.6502 42.0147 10.3322C42.6067 9.99838 43.3267 9.83146 44.1747 9.83146C45.0227 9.83146 45.7427 9.99838 46.3347 10.3322C46.9267 10.6502 47.4067 11.0873 47.7747 11.6438C48.1427 12.1842 48.4067 12.8042 48.5667 13.5038C48.7427 14.2032 48.8307 14.9265 48.8307 15.6738C48.8307 16.3892 48.7427 17.0886 48.5667 17.7722C48.4067 18.4399 48.1427 19.044 47.7747 19.5845C47.4067 20.125 46.9267 20.5622 46.3347 20.8961C45.7427 21.214 45.0227 21.373 44.1747 21.373C43.3267 21.373 42.6067 21.214 42.0147 20.8961C41.4227 20.5622 40.9427 20.125 40.5747 19.5845C40.2067 19.044 39.9347 18.4399 39.7587 17.7722C39.5987 17.0886 39.5187 16.3892 39.5187 15.6738ZM35.7507 15.6738C35.7507 16.9138 35.9427 18.0742 36.3267 19.1553C36.7107 20.2204 37.2627 21.1504 37.9827 21.9453C38.7027 22.7402 39.5827 23.3681 40.6227 23.8292C41.6787 24.2742 42.8627 24.4968 44.1747 24.4968C45.5027 24.4968 46.6867 24.2742 47.7267 23.8292C48.7667 23.3681 49.6467 22.7402 50.3667 21.9453C51.0867 21.1504 51.6387 20.2204 52.0227 19.1553C52.4067 18.0742 52.5987 16.9138 52.5987 15.6738C52.5987 14.4019 52.4067 13.2255 52.0227 12.1445C51.6387 11.0476 51.0867 10.0938 50.3667 9.283C49.6467 8.47223 48.7667 7.83631 47.7267 7.37531C46.6867 6.91425 45.5027 6.68375 44.1747 6.68375C42.8627 6.68375 41.6787 6.91425 40.6227 7.37531C39.5827 7.83631 38.7027 8.47223 37.9827 9.283C37.2627 10.0938 36.7107 11.0476 36.3267 12.1445C35.9427 13.2255 35.7507 14.4019 35.7507 15.6738Z" fill="#084C95"/>
<path d="M55.1744 7.08913V24.1153H67.2944V20.9676H58.9424V7.08913H55.1744Z" fill="#084C95"/>
<path d="M73.721 17.5338L75.953 11.2861H76.001L78.1611 17.5338H73.721ZM74.081 7.08913L67.601 24.1153H71.393L72.737 20.3238H79.1451L80.4411 24.1153H84.3531L77.9451 7.08913H74.081Z" fill="#084C95"/>
<path d="M85.831 7.08913V24.1153H89.359V12.7168H89.407L96.535 24.1153H100.303V7.08913H96.775V18.5115H96.727L89.575 7.08913H85.831Z" fill="#084C95"/>
</svg>
