<svg width="44" height="44" viewBox="0 0 44 44" fill="none" xmlns="http://www.w3.org/2000/svg">
<path fill-rule="evenodd" clip-rule="evenodd" d="M22 0C34.1503 0 44 9.84974 44 22C44 34.1503 34.1503 44 22 44C9.84974 44 0 34.1503 0 22C0 9.84974 9.84974 0 22 0ZM30.9949 13.2441C30.1675 13.2587 28.8979 13.7002 22.7883 16.2414C20.6484 17.1314 16.3718 18.9736 9.95841 21.7678C8.91699 22.1819 8.37138 22.5871 8.32169 22.9832C8.22634 23.7438 9.32136 23.9807 10.6991 24.4285C11.8224 24.7937 13.3334 25.2208 14.1189 25.2378C14.8314 25.2532 15.6267 24.9594 16.5047 24.3565C22.4968 20.3116 25.5901 18.2671 25.7845 18.2229C25.9215 18.1918 26.1114 18.1528 26.24 18.2671C26.3686 18.3814 26.356 18.5979 26.3424 18.656C26.2334 19.1205 20.6044 24.2406 20.2804 24.5771C19.0426 25.8628 17.6344 26.6495 19.8065 28.0809C21.686 29.3194 22.7799 30.1095 24.7162 31.3788C25.9536 32.1899 26.9237 33.1518 28.2013 33.0342C28.7892 32.9801 29.3965 32.4273 29.7048 30.7787C30.4337 26.8825 31.8663 18.4406 32.1974 14.9619C32.2264 14.6571 32.1898 14.2669 32.1605 14.0957C32.1312 13.9245 32.07 13.6806 31.8474 13.5C31.5838 13.2861 31.1769 13.2409 30.9949 13.2441Z" fill="url(#paint0_linear_3913_66695)"/>
<defs>
<linearGradient id="paint0_linear_3913_66695" x1="2200" y1="0" x2="2200" y2="4367.37" gradientUnits="userSpaceOnUse">
<stop stop-color="#2AABEE"/>
<stop offset="1" stop-color="#229ED9"/>
</linearGradient>
</defs>
</svg>
