<svg width="64" height="20" viewBox="0 0 64 20" fill="none" xmlns="http://www.w3.org/2000/svg">
<g clip-path="url(#clip0_1045_10654)">
<path d="M46.2825 0.83422C44.8466 0.297657 43.3248 0.027284 41.7919 0.0363536C36.8383 0.0363536 33.3524 2.61769 33.3225 6.31902C33.2927 9.05609 35.8121 10.5814 37.7108 11.4902C39.6628 12.4225 40.3177 13.0198 40.3113 13.8518C40.2985 15.1276 38.754 15.7121 37.3119 15.7121C35.3065 15.7121 34.2399 15.4241 32.5929 14.7137L31.9487 14.4108L31.2489 18.671C32.418 19.2022 34.5833 19.663 36.8297 19.6865C42.0948 19.6865 45.5124 17.135 45.5551 13.1841C45.5721 11.0145 44.2367 9.36969 41.346 8.01075C39.5967 7.12969 38.5215 6.54302 38.5343 5.65129C38.5343 4.85982 39.4409 4.01289 41.4036 4.01289C42.6911 3.9842 43.9697 4.23379 45.1519 4.74462L45.602 4.96222L46.2804 0.83422H46.2825ZM23.0996 19.4028L26.2335 0.369154H31.2425L28.1087 19.407H23.0996V19.4028Z" fill="#1A1F71"/>
<path fill-rule="evenodd" clip-rule="evenodd" d="M55.2604 0.38623H59.1324L63.1857 19.4113H58.535C58.535 19.4113 58.0764 17.2225 57.927 16.559L54.4006 16.5526H54.3708L51.5121 16.5484C51.3158 17.0646 50.4582 19.4113 50.4582 19.4113H45.1953L52.6342 1.9649C53.1612 0.723297 54.0593 0.38623 55.2604 0.38623ZM54.9468 7.3345C54.9468 7.3345 53.3681 11.5606 52.9521 12.655H57.1121C56.9137 11.7036 55.9516 7.15956 55.9516 7.15956L55.6124 5.5169C55.4801 5.89663 55.2924 6.39796 55.1494 6.7777C55.0236 7.11476 54.934 7.35796 54.9468 7.33236V7.3345Z" fill="#1A1F71"/>
<path d="M18.8969 0.383894L13.9945 13.361L13.4675 10.7242L11.7118 1.97749C11.4089 0.770027 10.5299 0.411627 9.44194 0.371094H1.36301L1.29688 0.76576C3.13882 1.2158 4.90983 1.91789 6.55981 2.85216L11.0142 19.3855H16.3155L24.2046 0.38176H18.8969V0.383894Z" fill="#1A1F71"/>
</g>
<defs>
<clipPath id="clip0_1045_10654">
<rect width="62.6667" height="20" fill="white" transform="translate(0.699219)"/>
</clipPath>
</defs>
</svg>
