<svg width="117" height="20" viewBox="0 0 117 20" fill="none" xmlns="http://www.w3.org/2000/svg">
<g clip-path="url(#clip0_1045_10658)">
<path d="M20.2811 2.25439H11.8047V17.4871H20.2811V2.25439Z" fill="#FF5F00"/>
<path d="M12.3425 9.87269C12.3406 8.40552 12.6726 6.95717 13.3134 5.63729C13.9541 4.31742 14.8867 3.16063 16.0406 2.25451C14.6115 1.1313 12.8953 0.432815 11.088 0.23889C9.2807 0.044965 7.45531 0.363423 5.82046 1.15787C4.1856 1.95231 2.80724 3.19068 1.84291 4.73145C0.878577 6.27222 0.367188 8.05321 0.367188 9.87087C0.367188 11.6885 0.878577 13.4695 1.84291 15.0103C2.80724 16.5511 4.1856 17.7894 5.82046 18.5839C7.45531 19.3783 9.2807 19.6968 11.088 19.5029C12.8953 19.3089 14.6115 18.6104 16.0406 17.4872C14.8872 16.5815 13.9549 15.4253 13.3142 14.1061C12.6735 12.7869 12.3412 11.3392 12.3425 9.87269Z" fill="#EB001B"/>
<path d="M31.7174 9.87297C31.7164 11.6905 31.2043 13.4712 30.2394 15.0115C29.2745 16.5518 27.8958 17.7897 26.2608 18.5836C24.6258 19.3776 22.8005 19.6957 20.9933 19.5015C19.1862 19.3074 17.47 18.6088 16.041 17.4857C17.194 16.579 18.1261 15.4224 18.767 14.1031C19.408 12.7837 19.741 11.3361 19.741 9.86933C19.741 8.40255 19.408 6.95491 18.767 5.63557C18.1261 4.31623 17.194 3.15963 16.041 2.25297C17.4702 1.12987 19.1866 0.431549 20.9939 0.237807C22.8013 0.0440651 24.6267 0.362725 26.2614 1.15736C27.8962 1.952 29.2745 3.19056 30.2386 4.73146C31.2028 6.27237 31.714 8.05346 31.7137 9.87115L31.7174 9.87297ZM30.7919 15.8748V15.5639H30.9192V15.5002H30.5974V15.5639H30.7247V15.8748H30.7919ZM31.4137 15.8748V15.4984H31.3156L31.2028 15.7584L31.0901 15.4984H30.9919V15.8748H31.061V15.5911L31.1665 15.8366H31.2392L31.3447 15.5911V15.8748H31.4137Z" fill="#F79E1B"/>
<path d="M41.5846 19.6145H41.2246V0H41.5846V19.6145ZM51.5137 15.8745H50.5064V4.32182H51.5119V15.8727L51.5137 15.8745ZM58.8591 4.32182C59.741 4.30909 60.6192 4.44545 61.4573 4.72545C62.1846 4.97091 62.8537 5.36364 63.421 5.88182C63.9664 6.38909 64.3901 7.00909 64.6664 7.7C65.2501 9.24545 65.2501 10.9509 64.6664 12.4945C64.3901 13.1855 63.9646 13.8073 63.421 14.3145C62.8539 14.8322 62.1851 15.226 61.4573 15.4709C60.621 15.7509 59.741 15.8891 58.8573 15.8745H54.6392V4.32182H58.8573H58.8591ZM55.6464 5.27818V14.9182H58.8573C59.6145 14.9313 60.3684 14.8151 61.0864 14.5745C61.6901 14.3709 62.2446 14.04 62.7119 13.6055C63.1555 13.1818 63.4973 12.6618 63.7101 12.0873C64.161 10.7996 64.161 9.39681 63.7101 8.10909C63.4956 7.53296 63.1538 7.01273 62.7101 6.58727C62.2449 6.15076 61.6911 5.8196 61.0864 5.61636C60.3677 5.37908 59.6141 5.26474 58.8573 5.27818H55.6464ZM76.8064 4.18909C77.2901 4.18909 77.7719 4.24364 78.2428 4.35273C78.6937 4.46182 79.1301 4.62 79.5428 4.82909C79.9392 5.02909 80.3064 5.28 80.641 5.57455C80.9646 5.86545 81.2464 6.19818 81.4773 6.56545L80.6355 7.12727C80.4377 6.82443 80.2005 6.54928 79.9301 6.30909C79.3732 5.81345 78.7003 5.46637 77.9737 5.3C77.5914 5.20853 77.1995 5.16276 76.8064 5.16364C76.1502 5.15789 75.499 5.27825 74.8882 5.51818C74.3064 5.74741 73.7778 6.09349 73.335 6.53506C72.8921 6.97662 72.5446 7.50428 72.3137 8.08545C71.8129 9.38117 71.8129 10.817 72.3137 12.1127C72.5446 12.6939 72.8921 13.2216 73.335 13.6631C73.7778 14.1047 74.3064 14.4508 74.8882 14.68C75.4992 14.9182 76.1501 15.0382 76.8064 15.0327C77.1992 15.0327 77.5882 14.9891 77.9701 14.9018C78.6943 14.7328 79.3652 14.3867 79.9228 13.8945C80.1955 13.6527 80.4319 13.3745 80.6282 13.0691L81.4519 13.6709C81.2115 14.0322 80.9242 14.36 80.5973 14.6455C80.2666 14.9342 79.9014 15.1809 79.5101 15.38C79.1028 15.5873 78.6719 15.7436 78.2264 15.8455C76.9712 16.1313 75.6592 16.035 74.4592 15.5691C73.7582 15.2922 73.1197 14.878 72.581 14.3509C72.0454 13.82 71.6229 13.186 71.3392 12.4873C70.7396 10.9522 70.7396 9.24778 71.3392 7.71273C71.6228 7.01273 72.0446 6.37636 72.581 5.84364C73.1192 5.31636 73.7592 4.90364 74.4592 4.62545C75.2046 4.33091 76.0046 4.18182 76.8064 4.18909ZM84.5719 9.45455C84.8624 8.97475 85.2829 8.58706 85.7846 8.33636C86.0265 8.2184 86.2816 8.12989 86.5446 8.07273C87.2499 7.91881 87.9841 7.96478 88.6646 8.20545C89.0501 8.34 89.4028 8.55091 89.701 8.82727C89.9939 9.10245 90.2224 9.43896 90.3701 9.81273C90.5319 10.2273 90.6119 10.6673 90.6064 11.1127V15.8764H89.6646V11.4036C89.6696 11.0441 89.6136 10.6863 89.4991 10.3455C89.3981 10.047 89.2317 9.77489 89.0119 9.54909C88.7903 9.32768 88.5228 9.15761 88.2282 9.05091C87.8894 8.92986 87.5316 8.87073 87.1719 8.87636C86.8238 8.87365 86.4784 8.93656 86.1537 9.06182C85.8443 9.18044 85.5623 9.36094 85.325 9.59228C85.0877 9.82363 84.9001 10.1009 84.7737 10.4073C84.6367 10.7379 84.5686 11.093 84.5737 11.4509V15.8745H83.6319V3.99091H84.5719V9.45455ZM96.201 7.98546C96.6955 7.98182 97.1864 8.08 97.641 8.27818C98.0755 8.46727 98.4664 8.74727 98.7864 9.09636C99.1192 9.46 99.3773 9.88727 99.5501 10.3509C99.7875 10.9836 99.8807 11.6613 99.8228 12.3345H93.3137C93.3373 12.7527 93.441 13.16 93.6155 13.54C93.7696 13.8756 93.9892 14.1771 94.2615 14.4265C94.5337 14.676 94.8532 14.8685 95.201 14.9927C95.5573 15.12 95.9355 15.1836 96.3173 15.1818C96.821 15.1909 97.3173 15.0891 97.7792 14.8855C98.2101 14.6855 98.6046 14.4127 98.9428 14.0764L99.4446 14.72C99.2156 14.9521 98.9627 15.1593 98.6901 15.3382C98.2073 15.6513 97.6629 15.8571 97.0937 15.9418C96.8172 15.98 96.5383 15.9988 96.2592 15.9982C95.7228 16.0044 95.1903 15.9056 94.6919 15.7073C94.2251 15.5199 93.8022 15.2378 93.4499 14.8789C93.0975 14.52 92.8233 14.092 92.6446 13.6218C92.4466 13.1031 92.3485 12.5516 92.3555 11.9964C92.3504 11.445 92.4504 10.8976 92.6501 10.3836C92.826 9.91275 93.0971 9.48321 93.4466 9.12188C93.796 8.76054 94.2162 8.47518 94.681 8.28364C95.161 8.08364 95.681 7.98182 96.2028 7.98546H96.201ZM96.1828 8.81818C95.8239 8.81057 95.467 8.87413 95.1328 9.0052C94.7985 9.13627 94.4936 9.33225 94.2355 9.58182C93.9837 9.82769 93.7785 10.1172 93.6301 10.4364C93.4691 10.7805 93.3671 11.1493 93.3282 11.5273H98.8828C98.8553 11.1466 98.7631 10.7733 98.6101 10.4236C98.4713 10.1049 98.274 9.815 98.0282 9.56909C97.7857 9.32847 97.4979 9.13824 97.1815 9.00937C96.8651 8.88049 96.5263 8.81551 96.1846 8.81818H96.1828ZM105.254 7.98546C105.803 7.98 106.348 8.08545 106.857 8.29455C107.339 8.49454 107.77 8.8 108.117 9.19091L107.506 9.82727C107.214 9.53066 106.868 9.29086 106.488 9.12C106.091 8.94814 105.661 8.86262 105.228 8.86909C104.822 8.86559 104.419 8.94541 104.045 9.10364C103.683 9.25647 103.357 9.48066 103.084 9.76279C102.812 10.0449 102.599 10.3791 102.459 10.7455C102.156 11.5519 102.156 12.4408 102.459 13.2473C102.599 13.6124 102.812 13.9453 103.085 14.2259C103.357 14.5065 103.684 14.729 104.045 14.88C104.419 15.04 104.821 15.12 105.228 15.1164C105.666 15.12 106.101 15.0309 106.503 14.8509C106.885 14.68 107.232 14.4436 107.53 14.1509L108.117 14.7945C107.766 15.1818 107.336 15.4891 106.854 15.6891C105.825 16.1 104.678 16.1013 103.648 15.6927C103.176 15.5009 102.749 15.2149 102.391 14.8523C102.033 14.4897 101.754 14.058 101.568 13.5836C101.177 12.559 101.177 11.4264 101.568 10.4018C101.753 9.92671 102.032 9.49435 102.39 9.13133C102.748 8.76831 103.176 8.48231 103.648 8.29091C104.157 8.08364 104.703 7.98 105.254 7.98546ZM110.946 11.3855H112.21L115.477 8.10909H116.666L112.968 11.7727L116.732 15.8745H115.536L112.208 12.2364H110.946V15.8727H110.006V3.99091H110.946V11.3855Z" fill="black"/>
</g>
<defs>
<clipPath id="clip0_1045_10658">
<rect width="116.364" height="20" fill="white" transform="translate(0.367188)"/>
</clipPath>
</defs>
</svg>
