<svg width="40" height="24" viewBox="0 0 40 24" fill="none" xmlns="http://www.w3.org/2000/svg">
<g clip-path="url(#clip0_1045_10649)">
<path fill-rule="evenodd" clip-rule="evenodd" d="M20.2338 2.98677C18.1506 1.35865 15.5817 0.476052 12.9378 0.480102C11.3928 0.473082 9.86145 0.770455 8.43133 1.35524C7.00121 1.94003 5.70027 2.80078 4.6028 3.88834C3.50534 4.9759 2.63283 6.26898 2.0351 7.69374C1.43737 9.11851 1.12613 10.6471 1.11914 12.1921C1.11914 18.6668 6.39914 23.9041 12.9378 23.9041C15.6898 23.9041 18.2178 22.9761 20.2338 21.3974C17.4925 19.2641 20.5538 15.9894 20.5538 12.2454C20.5538 8.5121 17.4925 5.1201 20.2338 2.98677Z" fill="#ED1C24"/>
<path fill-rule="evenodd" clip-rule="evenodd" d="M20.2344 2.98665C22.9757 5.11998 20.7357 8.44798 20.7357 12.192C20.7357 15.9253 22.9757 19.264 20.2344 21.3973C22.3204 23.0277 24.8935 23.9104 27.541 23.904C34.069 23.904 39.349 18.6666 39.349 12.192C39.349 5.71731 34.069 0.47998 27.541 0.47998C24.7784 0.47998 22.2504 1.40798 20.2344 2.98665Z" fill="#009BE5"/>
<path fill-rule="evenodd" clip-rule="evenodd" d="M24.7467 12.1921C24.7467 8.45882 22.976 5.12015 20.2347 2.98682C18.8323 4.07674 17.6975 5.47267 16.9169 7.06804C16.1363 8.66341 15.7305 10.416 15.7305 12.1921C15.7305 13.9683 16.1363 15.7209 16.9169 17.3163C17.6975 18.9116 18.8323 20.3076 20.2347 21.3975C22.976 19.2641 24.7467 15.9361 24.7467 12.1921Z" fill="#6D69C3"/>
</g>
<defs>
<clipPath id="clip0_1045_10649">
<rect width="39.2" height="24" fill="white" transform="translate(0.5)"/>
</clipPath>
</defs>
</svg>
