<svg width="36" height="36" viewBox="0 0 36 36" fill="none" xmlns="http://www.w3.org/2000/svg">
<g clip-path="url(#clip0_1026_11235)">
<path d="M18 18C19.65 18 21 16.65 21 15C21 13.35 19.65 12 18 12C16.35 12 15 13.35 15 15C15 16.65 16.35 18 18 18ZM18 3C24.3 3 30 7.83 30 15.3C30 20.07 26.325 25.68 18.99 32.145C18.42 32.64 17.565 32.64 16.995 32.145C9.675 25.68 6 20.07 6 15.3C6 7.83 11.7 3 18 3Z" fill="white"/>
</g>
<defs>
<clipPath id="clip0_1026_11235">
<rect width="36" height="36" fill="white"/>
</clipPath>
</defs>
</svg>
