<svg width="0" height="0" class="hidden">
  <symbol fill="none" xmlns="http://www.w3.org/2000/svg" viewBox="0 0 24 24" id="shop">
    <path d="M3.00977 11.22V15.71C3.00977 20.2 4.80977 22 9.29977 22H14.6898C19.1798 22 20.9798 20.2 20.9798 15.71V11.22" stroke="#FFFFFF" stroke-width="1.5" stroke-linecap="round" stroke-linejoin="round"></path>
    <path d="M12 12C13.83 12 15.18 10.51 15 8.68L14.34 2H9.66999L8.99999 8.68C8.81999 10.51 10.17 12 12 12Z" stroke="#FFFFFF" stroke-width="1.5" stroke-linecap="round" stroke-linejoin="round"></path>
    <path d="M18.3098 12C20.3298 12 21.8098 10.36 21.6098 8.35L21.3298 5.6C20.9698 3 19.9698 2 17.3498 2H14.2998L14.9998 9.01C15.1698 10.66 16.6598 12 18.3098 12Z" stroke="#FFFFFF" stroke-width="1.5" stroke-linecap="round" stroke-linejoin="round"></path>
    <path d="M5.63988 12C7.28988 12 8.77988 10.66 8.93988 9.01L9.15988 6.8L9.63988 2H6.58988C3.96988 2 2.96988 3 2.60988 5.6L2.33988 8.35C2.13988 10.36 3.61988 12 5.63988 12Z" stroke="#FFFFFF" stroke-width="1.5" stroke-linecap="round" stroke-linejoin="round"></path>
    <path d="M12 17C10.33 17 9.5 17.83 9.5 19.5V22H14.5V19.5C14.5 17.83 13.67 17 12 17Z" stroke="#FFFFFF" stroke-width="1.5" stroke-linecap="round" stroke-linejoin="round"></path>
  </symbol>
  <symbol fill="none" xmlns="http://www.w3.org/2000/svg" viewBox="0 0 24 24" id="teacher">
    <path d="M10.05 2.52997L4.03 6.45997C2.1 7.71997 2.1 10.54 4.03 11.8L10.05 15.73C11.13 16.44 12.91 16.44 13.99 15.73L19.98 11.8C21.9 10.54 21.9 7.72997 19.98 6.46997L13.99 2.53997C12.91 1.81997 11.13 1.81997 10.05 2.52997Z" stroke="#FFFFFF" stroke-width="1.5" stroke-linecap="round" stroke-linejoin="round"></path>
    <path d="M5.63 13.08L5.62 17.77C5.62 19.04 6.6 20.4 7.8 20.8L10.99 21.86C11.54 22.04 12.45 22.04 13.01 21.86L16.2 20.8C17.4 20.4 18.38 19.04 18.38 17.77V13.13" stroke="#FFFFFF" stroke-width="1.5" stroke-linecap="round" stroke-linejoin="round"></path>
    <path d="M21.4 15V9" stroke="#FFFFFF" stroke-width="1.5" stroke-linecap="round" stroke-linejoin="round"></path>
  </symbol>
  <symbol fill="none" xmlns="http://www.w3.org/2000/svg" viewBox="0 0 25 24" id="video">
    <path d="M13.03 20.4201H6.71C3.55 20.4201 2.5 18.3201 2.5 16.2101V7.79008C2.5 4.63008 3.55 3.58008 6.71 3.58008H13.03C16.19 3.58008 17.24 4.63008 17.24 7.79008V16.2101C17.24 19.3701 16.18 20.4201 13.03 20.4201Z" stroke="#FFFFFF" stroke-width="1.5" stroke-linecap="round" stroke-linejoin="round"></path>
    <path d="M20.02 17.0999L17.24 15.1499V8.83989L20.02 6.88989C21.38 5.93989 22.5 6.51989 22.5 8.18989V15.8099C22.5 17.4799 21.38 18.0599 20.02 17.0999Z" stroke="#FFFFFF" stroke-width="1.5" stroke-linecap="round" stroke-linejoin="round"></path>
    <path d="M12 11C12.8284 11 13.5 10.3284 13.5 9.5C13.5 8.67157 12.8284 8 12 8C11.1716 8 10.5 8.67157 10.5 9.5C10.5 10.3284 11.1716 11 12 11Z" stroke="#FFFFFF" stroke-width="1.5" stroke-linecap="round" stroke-linejoin="round"></path>
  </symbol>
  <symbol fill="none" xmlns="http://www.w3.org/2000/svg" viewBox="0 0 24 24" id="buildings">
    <path d="M13 22H5C3 22 2 21 2 19V11C2 9 3 8 5 8H10V19C10 21 11 22 13 22Z" stroke="#FFFFFF" stroke-width="1.5" stroke-miterlimit="10" stroke-linecap="round" stroke-linejoin="round"></path>
    <path d="M10.11 4C10.03 4.3 10 4.63 10 5V8H5V6C5 4.9 5.9 4 7 4H10.11Z" stroke="#FFFFFF" stroke-width="1.5" stroke-miterlimit="10" stroke-linecap="round" stroke-linejoin="round"></path>
    <path d="M14 8V13" stroke="#FFFFFF" stroke-width="1.5" stroke-miterlimit="10" stroke-linecap="round" stroke-linejoin="round"></path>
    <path d="M18 8V13" stroke="#FFFFFF" stroke-width="1.5" stroke-miterlimit="10" stroke-linecap="round" stroke-linejoin="round"></path>
    <path d="M17 17H15C14.45 17 14 17.45 14 18V22H18V18C18 17.45 17.55 17 17 17Z" stroke="#FFFFFF" stroke-width="1.5" stroke-miterlimit="10" stroke-linecap="round" stroke-linejoin="round"></path>
    <path d="M6 13V17" stroke="#FFFFFF" stroke-width="1.5" stroke-miterlimit="10" stroke-linecap="round" stroke-linejoin="round"></path>
    <path d="M10 19V5C10 3 11 2 13 2H19C21 2 22 3 22 5V19C22 21 21 22 19 22H13C11 22 10 21 10 19Z" stroke="#FFFFFF" stroke-width="1.5" stroke-miterlimit="10" stroke-linecap="round" stroke-linejoin="round"></path>
  </symbol>
  <symbol fill="none" xmlns="http://www.w3.org/2000/svg" viewBox="0 0 24 24" id="cup">
    <path d="M12.1499 16.5V18.6" stroke="#FFFFFF" stroke-width="1.5" stroke-linecap="round" stroke-linejoin="round"></path>
    <path d="M7.1499 22H17.1499V21C17.1499 19.9 16.2499 19 15.1499 19H9.1499C8.0499 19 7.1499 19.9 7.1499 21V22V22Z" stroke="#FFFFFF" stroke-width="1.5" stroke-miterlimit="10"></path>
    <path d="M6.1499 22H18.1499" stroke="#FFFFFF" stroke-width="1.5" stroke-linecap="round" stroke-linejoin="round"></path>
    <path d="M12 16C8.13 16 5 12.87 5 9V6C5 3.79 6.79 2 9 2H15C17.21 2 19 3.79 19 6V9C19 12.87 15.87 16 12 16Z" stroke="#FFFFFF" stroke-width="1.5" stroke-linecap="round" stroke-linejoin="round"></path>
    <path d="M5.47004 11.6501C4.72004 11.4101 4.06004 10.9701 3.54004 10.4501C2.64004 9.4501 2.04004 8.2501 2.04004 6.8501C2.04004 5.4501 3.14004 4.3501 4.54004 4.3501H5.19004C4.99004 4.8101 4.89004 5.3201 4.89004 5.8501V8.8501C4.89004 9.8501 5.10004 10.7901 5.47004 11.6501Z" stroke="#FFFFFF" stroke-width="1.5" stroke-linecap="round" stroke-linejoin="round"></path>
    <path d="M18.53 11.6501C19.28 11.4101 19.94 10.9701 20.46 10.4501C21.36 9.4501 21.96 8.2501 21.96 6.8501C21.96 5.4501 20.86 4.3501 19.46 4.3501H18.81C19.01 4.8101 19.11 5.3201 19.11 5.8501V8.8501C19.11 9.8501 18.9 10.7901 18.53 11.6501Z" stroke="#FFFFFF" stroke-width="1.5" stroke-linecap="round" stroke-linejoin="round"></path>
  </symbol>
  <symbol fill="none" xmlns="http://www.w3.org/2000/svg" viewBox="0 0 24 24" id="kanban">
    <path d="M10.5 19.9V4.1C10.5 2.6 9.86 2 8.27 2H4.23C2.64 2 2 2.6 2 4.1V19.9C2 21.4 2.64 22 4.23 22H8.27C9.86 22 10.5 21.4 10.5 19.9Z" stroke="#FFFFFF" stroke-width="1.5" stroke-linecap="round" stroke-linejoin="round"></path>
    <path d="M22 12.9V4.1C22 2.6 21.36 2 19.77 2H15.73C14.14 2 13.5 2.6 13.5 4.1V12.9C13.5 14.4 14.14 15 15.73 15H19.77C21.36 15 22 14.4 22 12.9Z" stroke="#FFFFFF" stroke-width="1.5" stroke-linecap="round" stroke-linejoin="round"></path>
  </symbol>
  <symbol fill="none" xmlns="http://www.w3.org/2000/svg" viewBox="0 0 24 24" id="kanban-bold">
    <path d="M10.5 19.9V4.1C10.5 2.6 9.86 2 8.27 2H4.23C2.64 2 2 2.6 2 4.1V19.9C2 21.4 2.64 22 4.23 22H8.27C9.86 22 10.5 21.4 10.5 19.9Z" fill="#171717"></path>
    <path d="M22 12.9V4.1C22 2.6 21.36 2 19.77 2H15.73C14.14 2 13.5 2.6 13.5 4.1V12.9C13.5 14.4 14.14 15 15.73 15H19.77C21.36 15 22 14.4 22 12.9Z" fill="#171717"></path>
  </symbol>
</svg>