<svg width="25" height="24" viewBox="0 0 25 24" fill="none" xmlns="http://www.w3.org/2000/svg">
<path d="M13.03 20.4201H6.71C3.55 20.4201 2.5 18.3201 2.5 16.2101V7.79008C2.5 4.63008 3.55 3.58008 6.71 3.58008H13.03C16.19 3.58008 17.24 4.63008 17.24 7.79008V16.2101C17.24 19.3701 16.18 20.4201 13.03 20.4201Z" stroke="#171717" stroke-width="1.5" stroke-linecap="round" stroke-linejoin="round"/>
<path d="M20.02 17.0999L17.24 15.1499V8.83989L20.02 6.88989C21.38 5.93989 22.5 6.51989 22.5 8.18989V15.8099C22.5 17.4799 21.38 18.0599 20.02 17.0999Z" stroke="#171717" stroke-width="1.5" stroke-linecap="round" stroke-linejoin="round"/>
<path d="M12 11C12.8284 11 13.5 10.3284 13.5 9.5C13.5 8.67157 12.8284 8 12 8C11.1716 8 10.5 8.67157 10.5 9.5C10.5 10.3284 11.1716 11 12 11Z" stroke="#171717" stroke-width="1.5" stroke-linecap="round" stroke-linejoin="round"/>
</svg>
